<?xml version="1.0" encoding="UTF-8"?>
<svg xmlns="http://www.w3.org/2000/svg" version="1.1" xmlns:xlink="http://www.w3.org/1999/xlink" 
  width="1818px" height="1629px">
<g><path style="opacity:1" fill="#7cd3cd" d="M 1203.5,-0.5 C 1224.83,-0.5 1246.17,-0.5 1267.5,-0.5C 1427.2,13.0783 1554.7,83.745 1650,211.5C 1731.31,328.787 1760.31,458.121 1737,599.5C 1708.52,742.745 1634.02,854.912 1513.5,936C 1499.44,944.696 1485.1,952.863 1470.5,960.5C 1470.5,960.167 1470.5,959.833 1470.5,959.5C 1477.44,881.373 1472.44,804.039 1455.5,727.5C 1455.5,726.5 1455.5,725.5 1455.5,724.5C 1527.38,648.039 1555.21,557.706 1539,453.5C 1516.65,346.837 1456.15,270.67 1357.5,225C 1271.86,190.275 1186.86,191.942 1102.5,230C 1095.78,233.02 1089.45,236.52 1083.5,240.5C 1082.39,240.443 1081.39,240.11 1080.5,239.5C 1011.72,203.461 939.05,178.794 862.5,165.5C 861.791,164.596 860.791,164.263 859.5,164.5C 952.44,65.0359 1067.11,10.0359 1203.5,-0.5 Z"/></g>
<g><path style="opacity:1" fill="#37a195" d="M 859.5,164.5 C 860.791,164.263 861.791,164.596 862.5,165.5C 858.358,167.12 854.858,169.786 852,173.5C 805.731,226.69 771.898,287.023 750.5,354.5C 755.363,354.181 760.03,354.514 764.5,355.5C 759.5,355.5 754.5,355.5 749.5,355.5C 590.185,354.268 455.352,410.602 345,524.5C 232.189,649.619 185.522,796.286 205,964.5C 229.076,1119.59 304.576,1242.42 431.5,1333C 559.209,1418.21 698.543,1445.87 849.5,1416C 987.169,1384.3 1096.67,1311.13 1178,1196.5C 1186.03,1183.66 1194.2,1170.99 1202.5,1158.5C 1157.94,1257.78 1160.1,1356.11 1209,1453.5C 1209.67,1454.25 1210.5,1454.59 1211.5,1454.5C 1210.89,1455.39 1210.56,1456.39 1210.5,1457.5C 1084.29,1560.93 939.286,1617.93 775.5,1628.5C 749.5,1628.5 723.5,1628.5 697.5,1628.5C 488.005,1613.83 314.172,1528.17 176,1371.5C 69.0818,1244.25 10.2485,1097.25 -0.5,930.5C -0.5,904.5 -0.5,878.5 -0.5,852.5C 14.8438,636.972 104.51,459.805 268.5,321C 430.842,191.687 615.842,137.687 823.5,159C 835.611,160.42 847.611,162.253 859.5,164.5 Z"/></g>
<g><path style="opacity:1" fill="#19897d" d="M 862.5,165.5 C 939.05,178.794 1011.72,203.461 1080.5,239.5C 1072.65,245.781 1064.32,251.615 1055.5,257C 1006.26,293.412 969.922,339.912 946.5,396.5C 901.683,378.545 855.35,366.045 807.5,359C 793.215,357.192 778.882,356.026 764.5,355.5C 760.03,354.514 755.363,354.181 750.5,354.5C 771.898,287.023 805.731,226.69 852,173.5C 854.858,169.786 858.358,167.12 862.5,165.5 Z"/></g>
<g><path style="opacity:1" fill="#37a195" d="M 1080.5,239.5 C 1081.39,240.11 1082.39,240.443 1083.5,240.5C 1237.37,324.527 1348.87,447.194 1418,608.5C 1433.29,646.367 1445.79,685.034 1455.5,724.5C 1455.5,725.5 1455.5,726.5 1455.5,727.5C 1453.74,728.072 1452.08,728.906 1450.5,730C 1399.78,779.188 1339.11,807.688 1268.5,815.5C 1268.17,815.5 1267.83,815.5 1267.5,815.5C 1242.58,661.898 1167.25,540.064 1041.5,450C 1011.81,429.986 980.479,412.82 947.5,398.5C 947.167,397.833 946.833,397.167 946.5,396.5C 969.922,339.912 1006.26,293.412 1055.5,257C 1064.32,251.615 1072.65,245.781 1080.5,239.5 Z"/></g>
<g><path style="opacity:1" fill="#7cd3cd" d="M 749.5,355.5 C 754.5,355.5 759.5,355.5 764.5,355.5C 778.882,356.026 793.215,357.192 807.5,359C 855.35,366.045 901.683,378.545 946.5,396.5C 946.833,397.167 947.167,397.833 947.5,398.5C 913.954,491.711 921.787,581.377 971,667.5C 1032.69,763.187 1120.85,813.187 1235.5,817.5C 1246.13,816.668 1256.8,816.001 1267.5,815.5C 1267.83,815.5 1268.17,815.5 1268.5,815.5C 1277.11,882.373 1274.11,948.706 1259.5,1014.5C 1258.83,1015.5 1258.17,1016.5 1257.5,1017.5C 1099.83,1021.25 966.992,966.252 859,852.5C 749.791,727.475 708.124,582.475 734,417.5C 737.922,396.481 743.088,375.814 749.5,355.5 Z"/></g>
<g><path style="opacity:1" fill="#e0edec" d="M 599.5,468.5 C 617.551,466.505 634.885,469.005 651.5,476C 670.769,488.196 680.102,505.863 679.5,529C 677.975,536.431 676.808,543.931 676,551.5C 669.768,573.305 660.768,593.971 649,613.5C 601.8,686.515 538.633,741.015 459.5,777C 450.525,779.77 441.691,782.936 433,786.5C 432.667,786.167 432.333,785.833 432,785.5C 410.072,792.883 387.572,794.383 364.5,790C 340.618,782.091 327.285,765.591 324.5,740.5C 324.83,723.799 327.663,707.465 333,691.5C 346.504,659.02 364.504,629.353 387,602.5C 427.549,555.503 475.382,518.003 530.5,490C 552.809,480.284 575.809,473.117 599.5,468.5 Z"/></g>
<g><path style="opacity:1" fill="#19897d" d="M 1455.5,727.5 C 1472.44,804.039 1477.44,881.373 1470.5,959.5C 1449.63,970.338 1428.3,980.005 1406.5,988.5C 1397.67,990.813 1388.67,993.48 1379.5,996.5C 1342.55,1007.19 1304.72,1013.85 1266,1016.5C 1263.39,1016.47 1261.22,1015.8 1259.5,1014.5C 1274.11,948.706 1277.11,882.373 1268.5,815.5C 1339.11,807.688 1399.78,779.188 1450.5,730C 1452.08,728.906 1453.74,728.072 1455.5,727.5 Z"/></g>
<g><path style="opacity:1" fill="#37a094" d="M 1470.5,959.5 C 1470.5,959.833 1470.5,960.167 1470.5,960.5C 1470.17,965.833 1469.83,971.167 1469.5,976.5C 1469.01,977.995 1468.34,979.329 1467.5,980.5C 1466.9,978.974 1465.73,977.974 1464,977.5C 1444.58,979.709 1425.42,983.376 1406.5,988.5C 1428.3,980.005 1449.63,970.338 1470.5,959.5 Z"/></g>
<g><path style="opacity:1" fill="#b4e6e0" d="M 1469.5,976.5 C 1580.78,971.411 1672.61,1010.74 1745,1094.5C 1787.16,1147.17 1811.33,1207.17 1817.5,1274.5C 1817.5,1291.5 1817.5,1308.5 1817.5,1325.5C 1806.09,1433.54 1755.09,1517.04 1664.5,1576C 1576.41,1627.53 1483.74,1637.53 1386.5,1606C 1309.9,1577.55 1251.23,1528.05 1210.5,1457.5C 1210.56,1456.39 1210.89,1455.39 1211.5,1454.5C 1264.98,1409.53 1311.14,1358.2 1350,1300.5C 1361.03,1283.77 1371.53,1266.77 1381.5,1249.5C 1360.72,1304.87 1371.72,1353.04 1414.5,1394C 1453.66,1424.42 1496.32,1430.75 1542.5,1413C 1589.48,1390.06 1614.48,1352.4 1617.5,1300C 1615.48,1253.94 1595.15,1218.61 1556.5,1194C 1509.32,1169.26 1463.65,1171.92 1419.5,1202C 1407.85,1211.48 1397.85,1222.31 1389.5,1234.5C 1431.03,1154.59 1457.03,1069.92 1467.5,980.5C 1468.34,979.329 1469.01,977.995 1469.5,976.5 Z"/></g>
<g><path style="opacity:1" fill="#2b9683" d="M 1467.5,980.5 C 1457.03,1069.92 1431.03,1154.59 1389.5,1234.5C 1387.08,1239.67 1384.42,1244.67 1381.5,1249.5C 1371.53,1266.77 1361.03,1283.77 1350,1300.5C 1311.14,1358.2 1264.98,1409.53 1211.5,1454.5C 1210.5,1454.59 1209.67,1454.25 1209,1453.5C 1160.1,1356.11 1157.94,1257.78 1202.5,1158.5C 1206.66,1149.51 1211.33,1140.84 1216.5,1132.5C 1256.38,1069.6 1310.72,1024.26 1379.5,996.5C 1388.67,993.48 1397.67,990.813 1406.5,988.5C 1425.42,983.376 1444.58,979.709 1464,977.5C 1465.73,977.974 1466.9,978.974 1467.5,980.5 Z"/></g>
<g><path style="opacity:1" fill="#37a195" d="M 1379.5,996.5 C 1310.72,1024.26 1256.38,1069.6 1216.5,1132.5C 1234.4,1095.7 1248.06,1057.37 1257.5,1017.5C 1258.17,1016.5 1258.83,1015.5 1259.5,1014.5C 1261.22,1015.8 1263.39,1016.47 1266,1016.5C 1304.72,1013.85 1342.55,1007.19 1379.5,996.5 Z"/></g>
</svg>
