<svg xmlns="http://www.w3.org/2000/svg" width="1000" height="1000">
  <g style="display:inline">
    <a style="fill:#df8958;fill-opacity:1" transform="translate(25.58 -3.739)">
      <path d="M874.937 572.266c48.87 41.406 40.347 101.457 10.525 129.12 13.971 128.872-72.057 123.639-85.906 74.195-42.107 55.468-72.604 35.576-77.656 32.036-51.966 36.658-136.475 71.976-240.973 71.976-89.593 0-172.202-26.782-238.39-71.894-32.151 21.464-65.35 8.712-84.185-21.035-67.63 71.219-99.721-10.249-80.424-60.774-48.412-23.995-46.178-82.156 12.295-153.26a319.6 319.6 0 0 1-3.305-45.918c0-135.888 93.358-285.947 211.454-312.8-77.198-50.312 3.995-110.078 85.242-49.74 28.007-68.055 97.75-68.37 99.73-8.985 106.797-1.726 166.269 37.924 219.522 65.83 29.1 15.249 64.29 31.486 105.322 33.381 49.745 2.298 75.437 55.748 22.548 97.177 31.144 52.43 43.856 105.468 44.201 220.69" style="fill:#df8958;fill-opacity:1;stroke:none;stroke-width:1.27370083;stroke-miterlimit:4;stroke-dasharray:none;stroke-opacity:1"/>
    </a>
    <g style="display:inline">
      <a style="display:inline" transform="translate(25.58 -3.739)">
        <path d="M743.338 325.628c35.197.117 57.762 11.4 116.362-19.006-1.671 14.665-10.56 30.537-28.964 44.953 2.128 3.583 4.17 7.169 6.129 10.777-46.771-3.858-78.365-21.252-93.527-36.724" style="fill:#c76c33;fill-opacity:1;stroke:none;stroke-width:1.27370083;stroke-miterlimit:4;stroke-dasharray:none;stroke-opacity:1"/>
      </a>
      <path d="M807.66 621.592c11.76 46.274 57.032 77.2 103.381 76.055 13.971 128.873-72.057 123.639-85.906 74.196-42.107 55.468-72.604 35.576-77.655 32.035-51.967 36.658-136.475 71.977-240.973 71.977-89.594 0-172.203-26.782-238.39-71.895-32.152 21.464-65.352 8.712-84.186-21.034-67.63 71.218-99.721-10.25-80.424-60.774-48.412-23.996-46.178-82.157 12.295-153.26a319.6 319.6 0 0 1-3.305-45.918c0-135.89 93.358-285.948 211.454-312.8-30.612-19.951-36.318-41.39-26.99-56.235 12.123 30.925 52.845 58.816 102.22 61.736-118.732 38.288-82.972 85.284-18.153 120.501 87.743 138.663 421.245 197.306 426.633 285.416" style="display:inline;fill:#c76c33;fill-opacity:1;stroke:none;stroke-width:1.27370083;stroke-miterlimit:4;stroke-dasharray:none;stroke-opacity:1"/>
    </g>
  </g>
  <g style="display:inline">
    <path d="M360.613 331.533c-21.414-.015-44.685 3.447-70.025 12.67-58.843 21.417-89.87 70.883-102.717 125.14 37.845-27.257 68.715-44.075 131.244-47.402 101.361-5.392 136.417 68.638 137.006 100.229.638 34.185-13.607 53.968-39.35 68.19-29.743 16.431-91.906 19.156-109.253 18.902-43.395-.636-70.188-8.007-121.612-19.123 28.061 142 163.209 229.279 323.018 229.279s294.956-87.28 323.017-229.28c-51.416 11.116-78.21 18.484-121.601 19.12-17.347.254-79.51-2.47-109.254-18.903-25.743-14.221-39.988-34.002-39.35-68.187.59-31.59 35.645-105.623 137.006-100.23 62.523 3.325 93.392 20.142 131.23 47.394-12.848-54.253-43.874-103.714-102.712-125.129-101.361-36.892-169.618 18.386-218.336 19.727-36.539-1.005-84.068-32.35-148.31-32.397m469.36 137.799c3.043 12.85 5.068 25.968 6.199 39.047-1.131-13.075-3.14-26.19-6.182-39.035zm6.199 39.047c.055.638.097 1.275.148 1.912-.05-.638-.093-1.274-.148-1.912m.543 7.312c.018.3.03.598.047.897-.018-.3-.029-.597-.047-.897m.047.897c.26 4.443.428 8.876.492 13.283.008.52.007 1.037.012 1.557-.005-.522.006-1.038-.002-1.56a304 304 0 0 0-.502-13.28m.367 27.396c-.023.737-.042 1.477-.07 2.211.029-.735.047-1.473.07-2.21m-.342 7.701q-.066 1.196-.142 2.385.076-1.19.142-2.384m-3.378 30.403q-.178 1.057-.364 2.111.186-1.053.364-2.111m-1.467 8.051.013-.004c.046-.229.083-.461.127-.69q-.07.347-.14.694zm-646.035 0q-.022-.107-.043-.213l.039.213zm1.964-120.795-.004.004q-.033.15-.068.3z" style="fill:#e8e7e5;fill-opacity:1;stroke:none;stroke-width:1.43394423;stroke-miterlimit:4;stroke-dasharray:none;stroke-opacity:1"/>
    <g style="display:inline">
      <path d="M359.22 331.537c-21.029.133-43.84 3.643-68.632 12.666-58.843 21.417-89.87 70.883-102.717 125.14 16.803-12.102 32.236-22.14 49.67-29.859 15.95-46.56 58.828-86.235 135.957-107.527-4.666-.303-9.424-.45-14.277-.42m-82.859 275.91c-27.803-2.91-52.382-9.078-90.455-17.308 28.061 142 163.209 229.279 323.018 229.279 139.06 0 259.45-66.086 306.855-176.807-220.24 172.78-445.067 90.227-539.418-35.164m-90.455-17.308-.043-.213q.02.106.04.213zm-1.228-6.666-.157-.909zm-1.157-7.313q-.073-.502-.144-1.006.071.503.144 1.006m-.964-7.367q-.069-.577-.135-1.156.067.578.135 1.156m-1.389-15.316q-.027-.437-.053-.873.026.436.053.873m-.393-7.729q-.013-.425-.027-.85.014.425.027.85m-.193-7.838-.004-.65q.001.325.004.65m.207-15.309c.032-.822.085-1.647.123-2.47-.038.823-.091 1.648-.123 2.47m.123-2.47c.076-1.632.15-3.265.254-4.9-.103 1.636-.178 3.267-.254 4.9m.254-4.9c.057-.91.135-1.82.201-2.73-.066.91-.144 1.82-.201 2.73m.201-2.73c.111-1.538.222-3.078.358-4.618-.136 1.54-.247 3.08-.358 4.619m.922-10.396q.053-.488.11-.974-.056.488-.11.974m.867-7.156q.065-.47.131-.937c-.043.312-.089.624-.13.937m1.057-7.152.144-.87zm3.658-18.453-.004.004q-.035.15-.068.3zm-.666 2.9c-.071.318-.147.635-.217.953.07-.318.146-.635.217-.953m-.217.953c-.052.239-.1.478-.152.717q.076-.358.152-.717m-1.428 6.959q-.042.213-.084.424.042-.211.084-.424" style="fill:#d3d0d6;fill-opacity:1;stroke:none;stroke-width:.75590551;stroke-miterlimit:4;stroke-dasharray:none;stroke-opacity:1"/>
    </g>
  </g>
  <g style="display:inline">
    <path d="M456.121 522.17c-.59-31.59-35.646-105.62-137.007-100.228-62.532 3.326-93.4 20.146-131.247 47.405-4.715 19.913-6.98 40.47-7.273 60.524-.307 21.029 1.53 41.144 5.308 60.267 51.427 11.117 78.219 18.487 121.615 19.123 17.347.254 79.51-2.47 109.254-18.901 25.742-14.222 39.988-34.004 39.35-68.19M561.736 522.167c.59-31.59 35.646-105.62 137.007-100.229 62.532 3.327 93.4 20.146 131.247 47.406 4.715 19.912 6.98 40.47 7.273 60.524.307 21.028-1.53 41.144-5.308 60.267-51.427 11.117-78.219 18.487-121.615 19.122-17.347.255-79.51-2.469-109.254-18.9-25.742-14.222-39.988-34.005-39.35-68.19" style="display:inline;fill:#77889b;fill-opacity:1;stroke:none;stroke-width:1.43394423;stroke-miterlimit:4;stroke-dasharray:none;stroke-opacity:1"/>
    <path d="M237.436 439.794c-17.422 7.718-32.843 17.758-49.637 29.855-4.715 19.912-6.98 40.47-7.273 60.524-.307 21.028 1.53 41.143 5.309 60.266 38.174 8.253 62.774 14.44 90.668 17.341-36.052-46.377-53.653-109.584-39.067-167.986" style="display:inline;fill:#5e6f7e;fill-opacity:1;stroke:none;stroke-width:.37795275;stroke-miterlimit:4;stroke-dasharray:none;stroke-opacity:1"/>
  </g>
  <g style="display:inline">
    <path d="M418.025 531.324c-.108 24.122-23.306 29.14-31.831 8.052-5.458-13.5-16.556-20.274-31.41-19.57-12.268.582-23.67 10.847-26.301 19.277-6.061 19.414-32.594 16.027-33.16-3.818-.8-28.094 26.46-55.63 60.732-57.255s62.077 29.19 61.97 53.314" style="fill:#333a42;fill-opacity:1;stroke:none;stroke-width:.38498867;stroke-miterlimit:4;stroke-dasharray:none;stroke-opacity:1"/>
    <path d="M477.577 594.476c-1.974-2.444-3.44-5.358-3.853-8.473-.413-3.114.297-6.431 2.243-8.898 1.341-1.7 3.204-2.937 5.198-3.783 1.994-.845 4.125-1.32 6.258-1.691 7.084-1.234 14.31-1.375 21.5-1.375 7.191 0 14.417.141 21.5 1.375 2.134.371 4.265.846 6.26 1.691 1.993.846 3.856 2.083 5.197 3.783 1.946 2.467 2.656 5.784 2.243 8.898-.413 3.115-1.879 6.03-3.853 8.473-3.6 4.456-8.834 7.39-14.333 8.994s-11.285 1.964-17.013 1.964-11.515-.36-17.014-1.964-10.732-4.538-14.333-8.994" style="fill:#333a42;fill-opacity:1;stroke:none;stroke-width:1px;stroke-linecap:butt;stroke-linejoin:miter;stroke-opacity:1" transform="matrix(-1 0 0 1 1017.847 0)"/>
    <path d="M483.175 667.65c-10.672 1.152-21.974-1.19-30.416-7.822-2.035-1.599-3.914-3.461-5.166-5.727-1.25-2.266-1.83-4.977-1.202-7.488.583-2.329 2.2-4.363 4.304-5.52s4.656-1.435 6.98-.834c1.613.418 3.09 1.23 4.596 1.945 6.054 2.872 12.842 4.22 19.525 3.74s13.243-2.801 18.659-6.745a34.8 34.8 0 0 0 8.469-8.84 34.8 34.8 0 0 0 8.468 8.84c5.417 3.944 11.976 6.266 18.66 6.745s13.47-.868 19.524-3.74c1.506-.714 2.983-1.527 4.596-1.945 2.324-.601 4.877-.322 6.98.835 2.104 1.156 3.722 3.19 4.304 5.519.627 2.51.049 5.222-1.202 7.488-1.252 2.266-3.13 4.128-5.166 5.727-8.442 6.632-19.743 8.974-30.416 7.821a53.07 53.07 0 0 1-25.748-10.065 53.07 53.07 0 0 1-25.749 10.065" style="fill:#333a42;fill-opacity:1;stroke:none;stroke-width:1px;stroke-linecap:butt;stroke-linejoin:miter;stroke-opacity:1" transform="matrix(-1.10352 0 0 1 1070.533 -3.25)"/>
    <path d="M599.764 531.078c.013 24.123 23.19 29.232 31.799 8.179 5.512-13.48 16.636-20.21 31.488-19.446 12.264.63 23.625 10.94 26.224 19.38 5.984 19.438 32.53 16.156 33.174-3.687.911-28.091-26.24-55.734-60.505-57.494s-62.192 28.945-62.18 53.068" style="fill:#333a42;fill-opacity:1;stroke:none;stroke-width:.38498867;stroke-miterlimit:4;stroke-dasharray:none;stroke-opacity:1"/>
  </g>
</svg>