<?xml version="1.0" encoding="utf-8"?>
<svg xmlns="http://www.w3.org/2000/svg" xmlns:xlink="http://www.w3.org/1999/xlink"
viewBox="0 0 64 64">
  <path style="fill:#000;fill-rule:nonzero;" d="M 10.675 47.647 C 9.203 47.647 8.067 47.263 7.267 46.495 C 6.467 45.727 6.067 44.959 6.067 44.191 C 6.067 43.551 6.275 43.039 6.691 42.655 C 7.107 42.271 7.555 42.079 8.035 42.079 C 8.291 42.079 8.515 42.127 8.707 42.223 C 9.635 42.703 10.619 43.215 11.659 43.759 C 12.699 44.303 13.939 44.575 15.379 44.575 C 16.115 44.575 16.883 44.479 17.683 44.287 C 19.315 43.103 20.843 41.687 22.267 40.039 C 23.691 38.391 24.931 36.703 25.987 34.975 C 27.043 33.247 27.843 31.711 28.387 30.367 C 29.379 27.871 29.875 25.615 29.875 23.599 C 29.875 21.711 29.483 20.135 28.699 18.871 C 27.915 17.607 26.867 16.655 25.555 16.015 C 24.243 15.375 22.787 15.055 21.187 15.055 C 19.235 15.055 17.411 15.327 15.715 15.871 C 15.523 15.999 15.331 16.135 15.139 16.279 C 14.947 16.423 14.771 16.591 14.611 16.783 C 14.227 17.263 14.067 17.695 14.131 18.079 C 14.483 18.111 14.763 18.271 14.971 18.559 C 15.179 18.847 15.283 19.167 15.283 19.519 C 15.283 19.935 15.219 20.271 15.091 20.527 C 14.963 20.783 14.851 21.007 14.755 21.199 C 14.595 21.455 14.515 21.775 14.515 22.159 C 14.515 22.319 14.547 22.471 14.611 22.615 C 14.675 22.759 14.803 22.863 14.995 22.927 C 14.931 23.055 14.787 23.119 14.563 23.119 C 14.211 23.119 13.875 22.943 13.555 22.591 C 13.235 22.239 12.979 21.823 12.787 21.343 C 12.595 20.863 12.499 20.431 12.499 20.047 C 12.499 19.503 12.643 19.047 12.931 18.679 C 13.219 18.311 13.523 18.111 13.843 18.079 L 13.843 17.887 C 13.843 17.471 13.971 17.055 14.227 16.639 C 14.259 16.575 14.339 16.479 14.467 16.351 C 12.707 17.055 11.171 18.007 9.859 19.207 C 8.547 20.407 7.459 21.695 6.595 23.071 C 6.307 23.551 6.035 24.039 5.779 24.535 C 5.523 25.031 5.315 25.535 5.155 26.047 C 5.091 26.239 5.043 26.447 5.011 26.671 C 4.979 26.895 4.963 27.119 4.963 27.343 C 4.963 27.823 5.043 28.279 5.203 28.711 C 5.363 29.143 5.619 29.487 5.971 29.743 C 6.355 29.455 6.803 29.311 7.315 29.311 C 7.635 29.311 7.907 29.359 8.131 29.455 C 8.579 29.615 8.923 29.807 9.163 30.031 C 9.403 30.255 9.603 30.479 9.763 30.703 C 9.923 30.863 10.139 31.015 10.411 31.159 C 10.683 31.303 10.947 31.375 11.203 31.375 C 11.555 31.375 11.811 31.247 11.971 30.991 C 12.067 31.087 12.115 31.199 12.115 31.327 C 12.115 31.423 12.067 31.567 11.971 31.759 C 11.747 32.207 11.291 32.551 10.603 32.791 C 9.915 33.031 9.235 33.151 8.563 33.151 C 7.571 33.151 6.787 32.847 6.211 32.239 C 5.635 31.631 5.411 31.039 5.539 30.463 C 5.603 30.271 5.667 30.143 5.731 30.079 C 5.443 29.887 5.203 29.623 5.011 29.287 C 4.819 28.951 4.659 28.607 4.531 28.255 C 4.467 28.671 4.411 29.087 4.363 29.503 C 4.315 29.919 4.291 30.319 4.291 30.703 C 4.291 32.207 4.547 33.471 5.059 34.495 C 5.635 35.615 6.467 36.431 7.555 36.943 C 8.643 37.455 9.779 37.711 10.963 37.711 C 12.915 37.711 14.691 37.199 16.291 36.175 C 16.643 35.919 17.003 35.519 17.371 34.975 C 17.739 34.431 17.875 33.855 17.779 33.247 C 17.587 33.343 17.363 33.391 17.107 33.391 C 16.755 33.391 16.403 33.271 16.051 33.031 C 15.699 32.791 15.443 32.495 15.283 32.143 C 15.059 31.695 14.939 31.287 14.923 30.919 C 14.907 30.551 14.899 30.239 14.899 29.983 C 14.899 29.599 14.771 29.183 14.515 28.735 C 14.259 28.287 13.907 28.127 13.459 28.255 C 13.555 27.967 13.731 27.767 13.987 27.655 C 14.243 27.543 14.499 27.487 14.755 27.487 C 14.979 27.487 15.187 27.511 15.379 27.559 C 15.571 27.607 15.731 27.663 15.859 27.727 C 16.403 27.919 16.891 28.231 17.323 28.663 C 17.755 29.095 18.083 29.519 18.307 29.935 C 18.595 30.447 18.739 30.959 18.739 31.471 C 18.739 32.143 18.531 32.655 18.115 33.007 C 18.179 33.135 18.211 33.263 18.211 33.391 L 18.211 33.823 C 18.211 34.207 18.115 34.623 17.923 35.071 C 17.795 35.359 17.651 35.615 17.491 35.839 C 17.587 35.807 17.683 35.791 17.779 35.791 L 18.019 35.791 C 18.499 35.855 18.827 36.015 19.003 36.271 C 19.179 36.527 19.267 36.783 19.267 37.039 C 19.267 37.199 19.235 37.375 19.171 37.567 C 19.139 37.695 19.043 37.759 18.883 37.759 C 18.691 37.759 18.579 37.631 18.547 37.375 C 18.515 37.151 18.371 36.999 18.115 36.919 C 17.859 36.839 17.571 36.799 17.251 36.799 C 17.123 36.799 16.987 36.807 16.843 36.823 C 16.699 36.839 16.547 36.863 16.387 36.895 C 16.355 36.927 16.331 36.943 16.315 36.943 L 16.243 36.943 C 14.643 37.967 12.803 38.479 10.723 38.479 C 9.347 38.479 8.035 38.183 6.787 37.591 C 5.539 36.999 4.579 36.047 3.907 34.735 L 3.907 35.023 C 3.907 35.407 3.843 35.727 3.715 35.983 C 3.395 36.751 2.915 37.135 2.275 37.135 C 1.827 37.135 1.475 36.911 1.219 36.463 C 1.091 36.239 1.059 36.063 1.123 35.935 C 1.187 35.807 1.283 35.807 1.411 35.935 C 1.507 36.031 1.619 36.079 1.747 36.079 C 2.163 36.079 2.563 35.807 2.947 35.263 C 3.107 35.071 3.243 34.799 3.355 34.447 C 3.467 34.095 3.491 33.759 3.427 33.439 C 3.139 32.511 2.995 31.519 2.995 30.463 C 2.995 29.247 3.187 27.991 3.571 26.695 C 3.955 25.399 4.547 24.127 5.347 22.879 C 5.795 22.143 6.315 21.439 6.907 20.767 C 7.499 20.095 8.147 19.455 8.851 18.847 C 8.723 18.879 8.579 18.895 8.419 18.895 L 7.939 18.895 C 7.203 18.831 6.579 18.543 6.067 18.031 C 5.939 18.095 5.747 18.127 5.491 18.127 C 5.107 18.127 4.699 17.983 4.267 17.695 C 3.835 17.407 3.491 16.991 3.235 16.447 C 3.107 16.191 3.003 15.871 2.923 15.487 C 2.843 15.103 2.803 14.719 2.803 14.335 C 2.803 13.759 2.891 13.215 3.067 12.703 C 3.243 12.191 3.491 11.823 3.811 11.599 C 4.035 11.439 4.219 11.367 4.363 11.383 C 4.507 11.399 4.595 11.423 4.627 11.455 C 4.403 11.647 4.291 11.887 4.291 12.175 C 4.291 12.463 4.395 12.751 4.603 13.039 C 4.811 13.327 5.027 13.551 5.251 13.711 C 5.507 13.871 5.771 14.055 6.043 14.263 C 6.315 14.471 6.563 14.799 6.787 15.247 C 6.979 15.567 7.075 15.951 7.075 16.399 C 7.075 17.039 6.867 17.519 6.451 17.839 C 6.803 18.191 7.363 18.367 8.131 18.367 C 8.419 18.367 8.715 18.335 9.019 18.271 C 9.323 18.207 9.603 18.127 9.859 18.031 C 10.979 17.199 12.235 16.471 13.627 15.847 C 15.019 15.223 16.515 14.751 18.115 14.431 C 17.731 14.271 17.403 14.039 17.131 13.735 C 16.859 13.431 16.723 13.087 16.723 12.703 C 16.723 12.287 16.851 12.007 17.107 11.863 C 17.363 11.719 17.587 11.647 17.779 11.647 L 17.827 11.647 L 17.779 11.647 C 17.651 11.679 17.587 11.855 17.587 12.175 C 17.587 12.495 17.699 12.895 17.923 13.375 C 18.147 13.855 18.467 14.159 18.883 14.287 L 18.931 14.335 C 19.987 14.143 21.107 14.047 22.291 14.047 C 24.275 14.047 26.099 14.375 27.763 15.031 C 29.427 15.687 30.755 16.679 31.747 18.007 C 32.739 19.335 33.235 21.039 33.235 23.119 C 33.235 24.015 33.123 24.991 32.899 26.047 C 32.675 27.103 32.323 28.239 31.843 29.455 C 31.331 30.735 30.507 32.199 29.371 33.847 C 28.235 35.495 26.907 37.151 25.387 38.815 C 23.867 40.479 22.243 41.999 20.515 43.375 C 21.923 42.735 23.491 41.831 25.219 40.663 C 26.947 39.495 28.883 37.967 31.027 36.079 C 33.043 34.319 34.883 32.415 36.547 30.367 C 38.211 28.319 39.707 26.343 41.035 24.439 C 42.363 22.535 43.555 20.895 44.611 19.519 C 46.627 16.895 48.459 14.879 50.107 13.471 C 51.755 12.063 53.243 11.087 54.571 10.543 C 55.899 9.999 57.075 9.727 58.099 9.727 C 58.643 9.727 59.123 9.775 59.539 9.871 C 60.275 9.999 60.867 10.319 61.315 10.831 C 61.763 11.343 61.987 11.935 61.987 12.607 C 61.987 13.055 61.875 13.503 61.651 13.951 L 60.979 13.663 C 61.171 13.279 61.267 12.911 61.267 12.559 C 61.267 11.951 61.035 11.455 60.571 11.071 C 60.107 10.687 59.507 10.495 58.771 10.495 C 57.843 10.495 56.715 10.863 55.387 11.599 C 54.059 12.335 52.523 13.543 50.779 15.223 C 49.035 16.903 47.059 19.167 44.851 22.015 C 43.283 24.063 41.427 26.343 39.283 28.855 C 37.139 31.367 34.547 33.967 31.507 36.655 C 28.691 39.119 26.195 40.967 24.019 42.199 C 21.843 43.431 19.955 44.319 18.355 44.863 C 17.043 45.695 15.739 46.367 14.443 46.879 C 13.147 47.391 11.891 47.647 10.675 47.647 Z M 10.579 46.975 C 11.539 46.975 12.483 46.823 13.411 46.519 C 14.339 46.215 15.267 45.807 16.195 45.295 L 15.955 45.295 C 15.827 45.327 15.699 45.343 15.571 45.343 L 15.139 45.343 C 14.243 45.343 13.435 45.247 12.715 45.055 C 11.995 44.863 11.427 44.719 11.011 44.623 C 10.723 44.559 10.459 44.511 10.219 44.479 C 9.979 44.447 9.763 44.431 9.571 44.431 C 8.707 44.431 8.275 44.703 8.275 45.247 C 8.275 45.631 8.507 46.015 8.971 46.399 C 9.435 46.783 9.971 46.975 10.579 46.975 Z"></path>
</svg>