<svg viewBox="0 0 128 128"
  xmlns="http://www.w3.org/2000/svg" fill="#fff">
  <g>
    <g>
      <rect clip-rule="evenodd" fill="none" height="128" width="128"/>
      <path clip-rule="evenodd" d="M31.426,84.104 c0.028,0.078,0.695,1.911,1.082,2.82c2.122,4.987,5.16,9.467,9.031,13.315c3.868,3.845,8.375,6.865,13.396,8.976    c5.197,2.186,10.717,3.294,16.406,3.294c5.688,0,11.208-1.108,16.406-3.294c5.019-2.11,9.526-5.131,13.395-8.978    c3.869-3.846,6.908-8.327,9.031-13.316c2.199-5.168,3.313-10.655,3.313-16.31c0-5.655-1.115-11.143-3.313-16.31    c-2.123-4.989-5.161-9.47-9.031-13.317c-3.868-3.846-8.375-6.866-13.395-8.978c-5.198-2.186-10.718-3.294-16.406-3.294    c-5.756,0-11.507,1.139-16.633,3.294c-4.097,1.723-11.031,6.158-15.09,10.32l-0.024,0.024V7.869l58.266,0    c2.12-0.023,2.12-2.967,2.12-3.934c0-0.967,0-3.91-2.127-3.934L34.852,0c-1.715,0-2.777,1.418-2.777,2.732v48.535    c0,1.566,1.962,2.696,3.785,3.084c3.56,0.756,4.383-0.375,5.255-1.572l0.116-0.159c1.331-1.966,5.491-6.128,5.532-6.169    c6.491-6.453,15.171-10.007,24.44-10.007c9.224,0,17.88,3.554,24.371,10.007c6.513,6.476,10.101,15.055,10.101,24.159    c0,9.137-3.569,17.717-10.049,24.159c-6.397,6.36-15.335,10.007-24.52,10.007c-6.221,0-12.227-1.648-17.371-4.766l0.022-29.511    c0-3.935,1.718-8.212,4.595-11.443c3.29-3.693,7.823-5.726,12.765-5.726c4.786,0,9.257,1.806,12.588,5.086    c3.307,3.257,5.128,7.596,5.128,12.218c0,9.862-7.801,17.587-17.759,17.587c-1.92,0-5.41-0.843-5.553-0.878    c-2.011-0.595-2.866,2.18-3.148,3.095c-1.082,3.518,0.544,4.215,0.881,4.319c3.205,0.989,5.306,1.176,8.062,1.176    c14.058,0,25.495-11.375,25.495-25.357c0-13.87-11.43-25.154-25.479-25.154c-6.88,0-13.343,2.615-18.199,7.362    c-4.624,4.521-7.277,10.549-7.277,16.538l-0.003,0.149c-0.022,0.747-0.037,18.438-0.041,24.244l-0.026-0.029    c-2.642-2.909-5.254-7.361-6.986-11.91c-0.679-1.783-2.212-1.467-4.304-0.827c-0.914,0.28-3.694,1.131-3.079,3.13L31.426,84.104z     M61.373,77.17c0.009,0.848,0.79,1.592,1.256,2.036l0.147,0.141c0.8,0.782,1.562,1.179,2.264,1.179    c0.582,0,0.94-0.273,1.067-0.391c0.352-0.325,4.338-4.34,4.718-4.723l4.445,4.404c0.412,0.461,0.859,0.692,1.38,0.706    c0.71,0,1.483-0.42,2.299-1.247c1.918-1.947,0.958-2.997,0.494-3.504l-4.503-4.478l4.697-4.702    c1.03-1.108,0.121-2.285-0.787-3.187c-1.317-1.31-2.588-1.648-3.403-0.901l-4.67,4.65l-4.723-4.696    c-0.25-0.238-0.566-0.364-0.913-0.364c-0.629,0-1.374,0.423-2.213,1.257c-1.452,1.444-1.764,2.441-1.008,3.238l4.724,4.682    l-4.696,4.677C61.562,76.329,61.368,76.741,61.373,77.17z M71.665,13.714c-7.549,0-15.58,1.515-21.48,4.052    c-0.631,0.246-1.008,0.749-1.091,1.457c-0.078,0.667,0.104,1.548,0.555,2.694c0.366,0.93,1.338,3.399,3.219,2.685    c6.039-2.29,12.714-3.551,18.796-3.551c6.892,0,13.577,1.341,19.868,3.986c4.999,2.102,9.715,5.139,14.843,9.556    c0.374,0.322,0.771,0.486,1.179,0.486c1,0,1.959-0.976,2.779-1.891c1.369-1.527,2.31-2.796,0.961-4.067    c-4.897-4.612-10.263-8.057-16.887-10.841C87.203,15.25,79.551,13.714,71.665,13.714z M112.345,106.391L112.345,106.391    c-0.908-0.901-1.68-1.432-2.359-1.626c-0.688-0.197-1.303-0.05-1.778,0.423l-0.447,0.443c-4.679,4.652-10.128,8.304-16.195,10.855    c-6.279,2.64-12.95,3.978-19.829,3.978c-6.879,0-13.551-1.339-19.829-3.978c-6.067-2.551-11.515-6.203-16.194-10.855    c-4.875-4.846-8.549-10.263-10.919-16.098c-2.311-5.69-3.066-9.97-3.314-11.376c-0.023-0.132-0.041-0.236-0.056-0.311    c-0.318-1.656-1.851-1.772-4.055-1.437c-0.916,0.139-3.705,0.563-3.439,2.558l0.006,0.046c0.738,4.617,2.042,9.144,3.877,13.455    c2.948,6.929,7.167,13.15,12.541,18.491c5.373,5.342,11.632,9.536,18.601,12.466c7.216,3.035,14.88,4.574,22.781,4.574    c7.896,0,15.561-1.54,22.781-4.576c6.967-2.929,13.226-7.124,18.602-12.469c0.012-0.012,0.306-0.302,0.467-0.476    C114.179,109.839,114.693,108.719,112.345,106.391z" />
    </g>
  </g>
</svg>