<?xml version="1.0" encoding="utf-8"?>
<svg viewBox="0 0 640 640" xmlns="http://www.w3.org/2000/svg">
  <g transform="matrix(0, 8.632180213928223, 8.632180213928223, 0, 350.89324951171875, 602.2131958007811)" id="g2448">
    <path id="path2450" style="fill:#000000;fill-opacity:1;fill-rule:evenodd;stroke:none" d="M 0,0 C 0.845,-0.292 2.913,-1.195 2.913,-3.408 C 2.913,-5.914 0.175,-6.758 0.087,-6.816 L -0.175,-6.874 C -0.175,-6.874 0,-4.719 0,-3.554 C 0,-2.36 -0.117,-0.32 -0.175,0 L 0,0"/>
  </g>
  <g transform="matrix(0, 8.632180213928223, 8.632180213928223, 0, 407.7275085449219, 590.6461791992186)" id="g2452">
    <path id="path2454" style="fill:#000000;fill-opacity:1;fill-rule:evenodd;stroke:none" d="M 0,0 L 0.058,0.524 C 1.66,-0.117 3.466,-1.195 3.466,-3.38 C 3.466,-5.476 2.243,-6.496 1.427,-6.963 L 1.223,-7.312 C 1.223,-7.312 1.078,-3.7 0,0"/>
  </g>
  <g transform="matrix(0, 8.632180213928223, 8.632180213928223, 0, 236.2319793701172, 590.6461791992186)" id="g2456">
    <path id="path2458" style="fill:#000000;fill-opacity:1;fill-rule:evenodd;stroke:none" d="M 0,0 L 0.058,-0.525 C 1.66,0.087 3.466,1.194 3.466,3.35 C 3.466,5.447 2.185,6.584 1.427,7.049 L 1.223,7.282 C 1.223,7.282 1.078,3.67 0,0"/>
  </g>
  <g transform="matrix(0, 8.632180213928223, 8.632180213928223, 0, 336.8141784667969, 603.7238159179686)" id="g2460">
    <path id="path2462" style="fill-opacity: 1; fill-rule: evenodd; stroke: none; fill: rgb(230, 230, 230);" d="M 0,0 C 0.495,-0.35 0.466,-0.583 0.466,-0.991 C 0.466,-1.195 0.641,-1.486 0.932,-1.486 C 1.165,-1.486 1.369,-1.282 1.369,-0.962 C 1.369,-0.204 0.35,0.349 -0.088,0.524 C -0.088,0.524 -0.117,0.961 -0.117,1.078 C -0.117,1.078 2.214,0.291 2.214,-1.748 C 2.214,-3.787 -0.088,-4.603 -0.088,-4.603 C -0.088,-4.603 0,-2.884 0,-1.894 C 0,-0.932 0,-0.292 0,0"/>
  </g>
  <g transform="matrix(0, 8.632180213928223, 8.632180213928223, 0, 405.20697021484375, 594.6773071289061)" id="g2464">
    <path id="path2466" style="fill-opacity: 1; fill-rule: evenodd; stroke: none; fill: rgb(230, 230, 230);" d="M 0,0 C 0.378,-1.311 0.67,-2.272 0.932,-4.486 C 0.932,-4.486 1.165,-4.428 1.136,-3.933 C 1.136,-3.758 1.078,-3.728 1.078,-3.641 C 1.048,-3.524 1.194,-3.291 1.427,-3.321 C 1.602,-3.35 1.806,-3.496 1.806,-3.991 C 1.806,-4.486 1.398,-5.069 1.019,-5.359 C 1.019,-5.359 1.106,-5.651 1.106,-5.942 C 1.106,-5.942 2.447,-5.011 2.447,-3.146 C 2.447,-1.078 0.611,-0.32 0,0"/>
  </g>
  <g transform="matrix(0, 8.632180213928223, 8.632180213928223, 0, 238.5022430419922, 594.6773071289061)" id="g2480">
    <path id="path2482" style="fill-opacity: 1; fill-rule: evenodd; stroke: none; fill: rgb(230, 230, 230);" d="M 0,0 C 0.378,1.34 0.67,2.272 0.932,4.515 C 0.932,4.515 1.165,4.427 1.136,3.961 C 1.136,3.757 1.078,3.728 1.078,3.67 C 1.048,3.524 1.194,3.321 1.427,3.349 C 1.602,3.349 1.806,3.496 1.806,3.991 C 1.806,4.486 1.398,5.069 1.019,5.36 C 1.019,5.36 1.106,5.651 1.106,5.972 C 1.106,5.972 2.447,5.01 2.447,3.146 C 2.447,1.078 0.611,0.32 0,0"/>
  </g>
  <g transform="matrix(0, 8.632180213928223, 8.632180213928223, 0, 320.22308349609375, 500.1203613281249)" id="g2484">
    <path id="path2486" style="fill-opacity: 1; fill-rule: evenodd; stroke: none; fill: rgb(255, 255, 255);" d="M 0,0 C 0,7.078 -4.34,14.943 -10.632,20.478 C -11.302,21.06 -12.613,22.08 -12.613,24.498 C -12.613,26.887 -10.399,30.09 -6.437,29.712 C -3.524,29.42 3.03,25.284 7.05,18.177 C 11.099,11.069 11.972,4.544 11.972,0 C 11.972,-4.545 11.099,-11.099 7.05,-18.206 C 3.03,-25.285 -3.524,-29.451 -6.437,-29.712 C -10.399,-30.091 -12.613,-26.916 -12.613,-24.498 C -12.613,-22.11 -11.302,-21.09 -10.632,-20.507 C -4.34,-14.973 0,-7.108 0,0"/>
  </g>
  <g transform="matrix(0, 8.632180213928223, 8.632180213928223, 0, 320.22308349609375, 498.11785888671864)" id="g2488">
    <path id="path2490" style="fill-opacity: 1; fill-rule: evenodd; stroke: none;" d="M 0,0 C 0,3.437 -1.048,7.049 -2.854,10.516 C -4.719,14.099 -7.399,17.507 -10.574,20.274 C -10.923,20.595 -11.419,21.002 -11.856,21.672 C -12.293,22.342 -12.613,23.216 -12.613,24.498 C -12.613,24.614 -12.613,24.76 -12.613,24.906 C -12.496,26.071 -11.943,27.324 -10.953,28.314 C -9.991,29.304 -8.593,29.974 -6.816,29.974 C -6.612,29.974 -6.409,29.974 -6.175,29.945 C -4.515,29.8 -1.689,28.401 1.195,25.954 C 3.438,24.032 5.71,21.468 7.516,18.293 C 9.555,14.739 10.778,11.302 11.507,8.185 C 12.235,5.069 12.439,2.272 12.439,0 C 12.439,-2.302 12.235,-5.098 11.507,-8.215 C 10.778,-11.302 9.555,-14.74 7.516,-18.323 C 5.71,-21.469 3.438,-24.062 1.195,-25.984 C -1.689,-28.431 -4.515,-29.829 -6.175,-29.974 C -6.409,-30.004 -6.612,-30.004 -6.816,-30.004 C -8.593,-30.004 -9.991,-29.304 -10.953,-28.343 C -11.943,-27.353 -12.496,-26.071 -12.613,-24.935 C -12.613,-24.79 -12.613,-24.644 -12.613,-24.498 C -12.613,-23.245 -12.293,-22.342 -11.856,-21.672 C -11.419,-21.032 -10.923,-20.624 -10.574,-20.304 C -7.399,-17.507 -4.719,-14.128 -2.854,-10.516 C -1.048,-7.079 0,-3.438 0,0 z M 0.495,0 C 0.495,-3.525 -0.553,-7.254 -2.389,-10.749 C -4.282,-14.42 -6.991,-17.857 -10.225,-20.682 C -10.574,-20.974 -11.04,-21.382 -11.419,-21.964 C -11.798,-22.547 -12.118,-23.362 -12.118,-24.498 C -12.118,-24.644 -12.118,-24.76 -12.089,-24.877 C -12.001,-25.926 -11.477,-27.091 -10.603,-27.965 C -9.7,-28.868 -8.447,-29.509 -6.816,-29.509 C -6.612,-29.509 -6.409,-29.479 -6.204,-29.479 C -4.632,-29.334 -1.923,-27.965 0.845,-25.605 C 3.058,-23.712 5.301,-21.177 7.079,-18.061 C 9.089,-14.536 10.283,-11.157 11.011,-8.098 C 11.739,-5.011 11.943,-2.272 11.943,0 C 11.943,2.243 11.739,5.01 11.011,8.069 C 10.283,11.128 9.089,14.536 7.079,18.06 C 5.301,21.148 3.058,23.683 0.845,25.576 C -1.923,27.964 -4.632,29.304 -6.204,29.45 C -6.409,29.479 -6.612,29.479 -6.816,29.479 C -8.447,29.479 -9.7,28.838 -10.603,27.964 C -11.477,27.061 -12.001,25.896 -12.089,24.847 C -12.118,24.731 -12.118,24.614 -12.118,24.498 C -12.118,23.333 -11.798,22.546 -11.419,21.935 C -11.04,21.352 -10.574,20.944 -10.225,20.653 C -6.991,17.827 -4.282,14.389 -2.389,10.748 C -0.553,7.224 0.495,3.524 0.495,0"/>
  </g>
  <g transform="matrix(0, 8.632180213928223, 8.632180213928223, 0, 136.40943908691406, 413.625762939453)" id="g2492">
    <path id="path2494" style="fill-opacity: 1; fill-rule: evenodd; stroke: none; fill: rgb(255, 255, 255);" d="M 0,0 L -0.088,-0.087 C -0.728,-0.641 -1.631,-1.428 -1.631,-3.263 C -1.631,-4.34 -1.048,-5.564 -0.146,-6.379 C 0.525,-6.991 1.69,-7.69 3.466,-7.515 C 5.913,-7.282 12.263,-3.379 16.196,3.525 C 19.371,9.089 20.974,15.06 20.974,21.235 C 20.974,27.382 19.371,33.353 16.196,38.917 C 12.263,45.85 5.913,49.724 3.466,49.958 C 1.69,50.132 0.525,49.433 -0.146,48.821 C -1.048,48.035 -1.631,46.811 -1.631,45.733 C -1.631,43.869 -0.728,43.083 -0.088,42.529 L 0,42.442 C 6.787,36.5 10.982,28.372 10.982,21.235 C 10.982,14.07 6.787,5.943 0,0"/>
  </g>
  <g transform="matrix(0, 8.632180213928223, 8.632180213928223, 0, 517.1058349609375, 344.72384643554676)" id="g2496">
    <path id="path2498" style="fill-opacity: 1; fill-rule: evenodd; stroke: none; fill: rgb(255, 255, 255);" d="M 0,0 C -3.408,0 -6.175,2.768 -6.175,6.146 C -6.175,9.555 -3.408,12.322 0,12.322 C 3.408,12.322 6.176,9.555 6.176,6.146 C 6.176,2.768 3.408,0 0,0"/>
  </g>
  <g transform="matrix(0, 8.632180213928223, 8.632180213928223, 0, 514.8441772460938, 344.72384643554676)" id="g2500">
    <path id="path2502" style="fill-opacity: 1; fill-rule: evenodd; stroke: none;" d="M 0,0 C -1.776,0 -3.379,0.728 -4.544,1.893 C -5.709,3.03 -6.409,4.661 -6.409,6.409 C -6.409,8.186 -5.709,9.817 -4.544,10.953 C -3.379,12.118 -1.776,12.846 0,12.846 C 1.777,12.846 3.379,12.118 4.544,10.953 C 5.709,9.817 6.438,8.186 6.438,6.409 C 6.438,4.661 5.709,3.03 4.544,1.893 C 3.379,0.728 1.777,0 0,0 z M 0,0.495 C 1.632,0.495 3.117,1.165 4.195,2.243 C 5.273,3.321 5.913,4.778 5.913,6.409 C 5.913,8.069 5.273,9.525 4.195,10.604 C 3.117,11.682 1.632,12.322 0,12.322 C -1.631,12.322 -3.116,11.682 -4.166,10.604 C -5.244,9.525 -5.914,8.069 -5.914,6.409 C -5.914,4.778 -5.244,3.321 -4.166,2.243 C -3.116,1.165 -1.631,0.495 0,0.495"/>
  </g>
  <g transform="matrix(0, 8.632180213928223, 8.632180213928223, 0, 17.72560691833496, 344.98263549804676)" id="g2504">
    <path id="path2506" style="fill-opacity: 1; fill-rule: evenodd; stroke: none; fill: rgb(255, 255, 255);" d="M 0,0 C -3.408,0 -6.176,2.767 -6.176,6.175 C -6.176,9.583 -3.408,12.351 0,12.351 C 3.408,12.351 6.146,9.583 6.146,6.175 C 6.146,2.767 3.408,0 0,0"/>
  </g>
  <g transform="matrix(0, 8.632180213928223, 8.632180213928223, 0, 15.714292526245117, 344.98263549804676)" id="g2508">
    <path id="path2510" style="fill:#000000;fill-opacity:1;fill-rule:evenodd;stroke:none" d="M 0,0 C -1.777,0 -3.379,0.699 -4.544,1.864 C -5.709,3.029 -6.438,4.631 -6.438,6.408 C -6.438,8.185 -5.709,9.788 -4.544,10.953 C -3.379,12.118 -1.777,12.846 0,12.846 C 1.748,12.846 3.379,12.118 4.544,10.953 C 5.68,9.788 6.409,8.185 6.409,6.408 C 6.409,4.631 5.68,3.029 4.544,1.864 C 3.379,0.699 1.748,0 0,0 z M 0,0.495 C 1.631,0.495 3.088,1.164 4.166,2.242 C 5.244,3.291 5.914,4.777 5.914,6.408 C 5.914,8.04 5.244,9.525 4.166,10.603 C 3.088,11.681 1.631,12.321 0,12.321 C -1.632,12.321 -3.117,11.681 -4.195,10.603 C -5.273,9.525 -5.913,8.04 -5.913,6.408 C -5.913,4.777 -5.273,3.291 -4.195,2.242 C -3.117,1.164 -1.632,0.495 0,0.495"/>
  </g>
  <g transform="matrix(0, 8.632180213928223, 8.632180213928223, 0, 584.7476806640625, 201.6543273925781)" id="g2512">
    <path id="path2514" style="fill:#00000f;fill-opacity:0.94117647;fill-rule:evenodd;stroke:none" d="M 0,0 L -1.66,0.058 C -1.282,0.553 -1.253,1.514 -1.865,2.068 C -2.127,2.33 -2.563,2.476 -3,2.447 C -3.496,2.418 -3.991,2.214 -4.34,1.835 C -6.379,-0.234 -8.389,-2.068 -8.389,-2.068 C -8.71,-2.272 -8.914,-2.563 -9.001,-2.738 C -9.118,-3 -9.526,-3.903 -8.477,-4.573 C -7.544,-5.185 -6.205,-5.098 -5.71,-4.981 L -3.058,-3.03 C -2.214,-2.389 -0.437,-0.495 0,0"/>
  </g>
  <g transform="matrix(0, 8.632180213928223, 8.632180213928223, 0, 226.4258270263672, 53.29294586181638)" id="g2516">
    <path id="path2518" style="fill:#231f20;fill-opacity:1;fill-rule:evenodd;stroke:none" d="M 0,0 C -0.816,2.447 -1.486,4.66 -1.777,7.69 L 0,0"/>
  </g>
  <g transform="matrix(0, 8.632180213928223, 8.632180213928223, 0, 226.4258270263672, 53.29294586181638)" id="g2520">
    <path id="path2522" style="fill:#000000;fill-opacity:1;fill-rule:evenodd;stroke:none" d="M 0,0 C -0.816,2.447 -1.486,4.66 -1.748,7.69 L -2.01,8.156 C -3.35,6.467 -4.253,4.777 -4.253,3.117 C -4.253,2.068 -3.525,-0.059 0.204,-0.525 L 0,0"/>
  </g>
  <g transform="matrix(0, 8.632180213928223, 8.632180213928223, 0, 414.0117492675781, 53.29294586181638)" id="g2524">
    <path id="path2526" style="fill:#000000;fill-opacity:1;fill-rule:evenodd;stroke:none" d="M 0,0 C -0.816,-2.447 -1.486,-4.69 -1.748,-7.691 L -2.01,-8.156 C -3.35,-6.467 -4.253,-4.806 -4.253,-3.146 C -4.253,-2.098 -3.525,0.029 0.204,0.495 L 0,0"/>
  </g>
  <g transform="matrix(0, 8.632180213928223, 8.632180213928223, 0, 302.8724365234375, 34.94071197509763)" id="g2528">
    <path id="path2530" style="fill:#231f20;fill-opacity:1;fill-rule:evenodd;stroke:none" d="M 0,0 C -0.029,0.495 -0.058,1.631 -0.058,2.098 C -0.058,2.563 0,3.816 0.029,4.107 L 0,0"/>
  </g>
  <g transform="matrix(0, 8.632180213928223, 8.632180213928223, 0, 296.3292236328125, 36.94364929199216)" id="g2532">
    <path id="path2534" style="fill:#000000;fill-opacity:1;fill-rule:evenodd;stroke:none" d="M 0,0 C -2.359,1.223 -3.204,2.36 -3.204,2.971 C -3.204,3.758 -1.981,4.661 -0.378,5.389 L 0,5.534 L -0.058,4.923 C -0.146,4.486 -0.146,3.321 -0.146,2.855 C -0.146,2.389 -0.146,1.398 -0.116,0.787 L 0,0"/>
  </g>
  <g transform="matrix(0, 8.632180213928223, 8.632180213928223, 0, 275.4566345214844, 519.7413330078124)" id="g2536">
    <path id="path2538" style="fill-opacity: 1; fill-rule: evenodd; stroke: none;" d="M 0,0 L 4.108,-1.107 L -0.845,-3.175 L -1.195,-4.428 L 4.632,-6.001 L 4.981,-4.602 L 0.845,-3.496 L 5.855,-1.398 L 6.176,-0.175 L 0.379,1.398 L 0,0"/>
  </g>
  <g transform="matrix(0, 8.632180213928223, 8.632180213928223, 0, 316.7012023925781, 526.0253295898436)" id="g2540">
    <path id="path2542" style="fill-opacity: 1; fill-rule: evenodd; stroke: none;" d="M 0,0 L -0.087,-1.573 L 5.943,-1.894 L 6.03,-0.292 L 0,0"/>
  </g>
  <g transform="matrix(0, 8.632180213928223, 8.632180213928223, 0, 329.019287109375, 525.5250244140624)" id="g2544">
    <path id="path2546" style="fill-opacity: 1; fill-rule: evenodd; stroke: none;" d="M 0,0 L 0.787,0.117 L 0.553,1.807 L 5.739,2.535 L 5.506,4.108 L 0.35,3.38 L 0.117,5.04 L -0.67,4.923 L 0,0"/>
  </g>
  <g transform="matrix(0, 8.632180213928223, 8.632180213928223, 0, 469.8360900878906, 504.3934631347655)" id="g2548">
    <path id="path2550" style="fill-opacity: 1; fill-rule: evenodd; stroke: none;" d="M 0,0 C 1.34,0.787 2.331,0.612 3,-0.553 L 3.322,-1.107 L -0.495,-3.321 L -0.844,-2.738 C -1.66,-1.311 -0.961,-0.525 0,0 z M -1.602,-3.058 L -0.408,-5.098 L 4.836,-2.097 L 3.642,-0.058 C 2.447,2.039 0.612,2.243 -0.874,1.428 C -2.621,0.408 -2.651,-1.223 -1.602,-3.058"/>
  </g>
  <g transform="matrix(0, 8.632180213928223, 8.632180213928223, 0, 410.239501953125, 554.6931762695311)" id="g2552">
    <path id="path2554" style="fill-opacity: 1; fill-rule: evenodd; stroke: none;" d="M 0,0 L -1.864,-0.583 L -2.447,1.195 L -3.204,0.932 L -2.621,-0.845 L -4.194,-1.34 L -4.806,0.467 L -5.564,0.233 L -4.457,-3.116 L 1.253,-1.253 L 0.059,2.447 L -0.699,2.185 L 0,0"/>
  </g>
  <g transform="matrix(0, 8.632180213928223, 8.632180213928223, 0, 212.59706115722656, 497.3579101562499)" id="g2556">
    <path id="path2558" style="fill-opacity: 1; fill-rule: evenodd; stroke: none;" d="M 0,0 L 3.233,-1.806 C 4.195,-2.33 4.806,-2.884 4.283,-3.787 C 3.787,-4.69 3.03,-4.486 2.04,-3.933 L -1.194,-2.156 L -1.981,-3.583 L 1.428,-5.476 C 3.292,-6.525 4.457,-5.214 5.04,-4.195 C 5.623,-3.088 6.088,-1.486 4.224,-0.467 L 0.787,1.428 L 0,0"/>
  </g>
  <g transform="matrix(0, 8.632180213928223, 8.632180213928223, 0, 203.792236328125, 191.83944702148435)" id="g2560">
    <path id="path2562" style="fill-opacity: 1; fill-rule: evenodd; stroke: none; fill: rgb(255, 255, 255);" d="M 0,0 L 28.227,0 L 36.878,13.487 L 28.227,26.974 L 0.059,26.974 C -0.32,26.566 -1.165,25.663 -1.601,24.935 L -1.601,1.952 C -1.194,1.369 -0.203,0.175 0,0"/>
  </g>
  <g transform="matrix(0, 8.632180213928223, 8.632180213928223, 0, 205.8035430908203, 191.83944702148435)" id="g2564">
    <path id="path2566" style="fill:#000000;fill-opacity:1;fill-rule:evenodd;stroke:none" d="M 0,0 L 28.081,0 L 36.587,13.254 L 28.081,26.479 L 0.059,26.479 L 0.059,27.003 L 28.227,26.974 L 28.343,26.974 L 28.431,26.858 L 37.112,13.37 L 37.199,13.254 L 37.112,13.108 L 28.431,-0.378 L 28.343,-0.495 L 0,-0.495 L 0,0"/>
  </g>
  <g transform="matrix(0, 8.632180213928223, 8.632180213928223, 0, 435.12603759765625, 194.1096038818359)" id="g2568">
    <path id="path2570" style="fill:#231f20;fill-opacity:1;fill-rule:evenodd;stroke:none" d="M 0,0 C -0.116,-0.116 -0.029,-0.029 -0.146,-0.146 C -0.583,-0.611 -1.281,-1.369 -1.631,-1.981 L -2.068,-1.718 C -1.66,-1.078 -0.961,-0.291 -0.524,0.204 C -0.524,0.204 -0.583,0.146 -0.408,0.35 L 0,0"/>
  </g>
  <path id="path2572" style="fill:#000000;fill-opacity:1;fill-rule:nonzero;stroke:none" d="M 220.642 175.749 L 220.642 180.277 L 419.035 180.277 L 419.035 175.749 L 220.642 175.749 Z" transform="matrix(1, 0, 0, 1, 0, -2.842170943040401e-14)"/>
  <g transform="matrix(0, 8.632180213928223, 8.632180213928223, 0, 221.90257263183594, 179.77166748046872)" id="g2574">
    <path id="path2576" style="fill:#231f20;fill-opacity:1;fill-rule:evenodd;stroke:none" d="M 0,0 C 0.204,-0.292 0.525,-0.67 0.815,-1.02 C 1.137,-1.457 1.485,-1.806 1.573,-1.923 L 1.253,-2.301 C 1.107,-2.185 0.757,-1.777 0.408,-1.34 C 0.087,-0.962 -0.233,-0.583 -0.408,-0.292 L 0,0"/>
  </g>
  <path id="path2582" style="fill-opacity: 1; fill-rule: nonzero; stroke: none;" d="M 205.138 296.506 L 205.138 300.81 L 435.298 300.81 L 435.298 296.506 L 205.138 296.506 Z" transform="matrix(1, 0, 0, 1, 0, -2.842170943040401e-14)"/>
  <g transform="matrix(0, 8.632180213928223, 8.632180213928223, 0, 289.53570556640625, 36.44291305541989)" id="g2594">
    <path id="path2596" style="fill-opacity: 1; fill-rule: evenodd; stroke: none; fill: rgb(230, 230, 230);" d="M 0,0 C 0.262,-2.971 0.903,-4.777 1.69,-7.195 C 0.67,-6.991 0.058,-6.758 -0.553,-6.35 C -0.029,-6.379 0.553,-5.942 0.553,-5.068 C 0.553,-4.194 0.058,-3.729 -0.262,-3.729 C -0.553,-3.729 -0.99,-3.903 -0.99,-4.369 C -0.99,-4.835 -0.641,-4.952 -0.525,-4.894 C -0.378,-4.864 -0.35,-4.981 -0.32,-5.097 C -0.291,-5.243 -0.495,-5.622 -0.961,-5.476 C -1.456,-5.33 -1.748,-4.719 -1.748,-3.961 C -1.748,-3.961 -1.806,-2.214 0,0"/>
  </g>
  <g transform="matrix(0, 8.632180213928223, 8.632180213928223, 0, 413.0017395019531, 51.28158187866208)" id="g2598">
    <path id="path2600" style="fill-opacity: 1; fill-rule: evenodd; stroke: none; fill: rgb(230, 230, 230);" d="M 0,0 C -0.816,-2.418 -1.427,-4.311 -1.689,-7.253 C -2.651,-5.914 -3.437,-4.631 -3.437,-3.233 C -3.437,-2.505 -3.175,-1.893 -2.651,-1.748 C -2.184,-1.602 -1.981,-1.981 -2.009,-2.097 C -2.068,-2.243 -2.097,-2.33 -2.214,-2.301 C -2.359,-2.272 -2.679,-2.359 -2.679,-2.826 C -2.679,-3.291 -2.243,-3.496 -1.951,-3.496 C -1.66,-3.496 -1.165,-3 -1.165,-2.126 C -1.165,-1.281 -1.718,-0.845 -2.243,-0.874 C -1.66,-0.436 -1.019,-0.175 0,0"/>
  </g>
  <g transform="matrix(0, 8.632180213928223, 8.632180213928223, 0, 305.1340637207031, 31.669082641601534)" id="g2602">
    <path id="path2604" style="fill-opacity: 1; fill-rule: evenodd; stroke: none; fill: rgb(230, 230, 230);" d="M 0,0 C 0.145,-0.087 0.233,-0.145 0.378,-0.233 C 0.35,0.262 0.32,1.398 0.32,1.835 C 0.32,2.301 0.378,3.524 0.408,3.816 C -0.612,3.349 -2.04,2.534 -2.04,1.951 C -2.04,1.835 -2.098,1.573 -1.544,1.106 C -1.544,1.106 -1.311,1.048 -1.34,1.34 C -1.398,1.718 -1.02,1.864 -0.816,1.835 C -0.35,1.776 0.087,1.223 0.087,0.699 C 0.087,0.175 0,0 0,0"/>
  </g>
  <g transform="matrix(0, 8.632180213928223, 8.632180213928223, 0, 83.09709167480469, 175.24821472167966)" id="g2606">
    <path id="path2608" style="fill:#000000;fill-opacity:1;fill-rule:evenodd;stroke:none" d="M 0,0 L -2.651,1.952 C -3.147,2.069 -4.486,2.156 -5.418,1.544 C -6.467,0.845 -6.06,-0.058 -5.943,-0.32 C -5.855,-0.466 -5.651,-0.786 -5.331,-0.961 C -5.331,-0.961 -3.263,-2.854 -1.253,-4.922 C -0.962,-5.185 -0.437,-5.534 0.058,-5.564 C 0.495,-5.564 0.932,-5.389 1.223,-5.155 C 1.806,-4.573 1.776,-3.582 1.398,-3.087 L 3.058,-3.058 C 2.621,-2.534 0.844,-0.669 0,0"/>
  </g>
  <g transform="matrix(0, 8.632180213928223, 8.632180213928223, 0, 320.22308349609375, 141.8073577880859)" id="g2610">
    <path id="path2612" style="fill-opacity: 1; fill-rule: evenodd; stroke: none; fill: rgb(255, 255, 255);" d="M 0,0 C 0,11.098 10.429,17.419 12.264,18.788 C 15.526,21.235 18.177,24.236 17.303,27.702 C 16.021,32.829 8.447,32.538 8.447,32.538 C 7.544,31.314 6.438,29.217 1.02,25.401 C -4.282,21.643 -12.176,13.166 -12.176,0 C -12.176,-13.196 -4.282,-21.672 1.02,-25.43 C 6.438,-29.246 7.544,-31.344 8.447,-32.567 C 8.447,-32.567 16.021,-32.829 17.303,-27.731 C 18.177,-24.265 15.526,-21.265 12.264,-18.818 C 10.429,-17.449 0,-11.128 0,0"/>
  </g>
  <g transform="matrix(0, 8.632180213928223, 8.632180213928223, 0, 320.22308349609375, 139.79598999023435)" id="g2614">
    <path id="path2616" style="fill:#000000;fill-opacity:1;fill-rule:evenodd;stroke:none" d="M 0,0 C 0,10.312 8.855,16.545 11.739,18.555 C 12.002,18.73 12.205,18.905 12.351,18.992 C 13.953,20.216 15.409,21.556 16.371,23.013 C 17.274,24.439 17.711,25.984 17.303,27.644 C 16.138,32.188 9.787,32.305 8.797,32.305 C 8.739,32.188 8.652,32.101 8.594,31.985 C 7.69,30.702 6.263,28.634 1.398,25.197 C -1.66,23.041 -5.564,19.313 -8.302,14.011 C -10.312,10.166 -11.681,5.505 -11.681,0 C -11.681,-5.506 -10.312,-10.196 -8.302,-14.041 C -5.564,-19.342 -1.66,-23.071 1.398,-25.197 C 6.263,-28.634 7.69,-30.703 8.594,-32.014 C 8.652,-32.101 8.739,-32.217 8.797,-32.305 C 9.787,-32.334 16.138,-32.217 17.303,-27.673 C 17.711,-26.013 17.274,-24.469 16.371,-23.013 C 15.409,-21.556 13.953,-20.216 12.351,-19.022 C 12.205,-18.906 12.002,-18.759 11.739,-18.585 C 8.855,-16.546 0,-10.341 0,0 z M 0.495,0 C 0.495,-10.079 9.205,-16.168 12.03,-18.177 C 12.293,-18.352 12.497,-18.469 12.642,-18.614 C 14.303,-19.837 15.818,-21.236 16.779,-22.75 C 17.798,-24.295 18.235,-25.984 17.798,-27.79 C 16.429,-33.092 8.68,-32.829 8.68,-32.829 L 8.535,-32.829 L 8.477,-32.713 C 8.36,-32.567 8.273,-32.451 8.156,-32.276 C 7.312,-31.024 5.913,-29.013 1.107,-25.635 C -2.01,-23.45 -5.972,-19.663 -8.768,-14.273 C -10.778,-10.37 -12.205,-5.593 -12.205,0 C -12.205,5.592 -10.778,10.341 -8.768,14.244 C -5.972,19.633 -2.01,23.42 1.107,25.604 C 5.913,28.984 7.312,31.023 8.156,32.275 C 8.273,32.421 8.36,32.567 8.477,32.683 L 8.535,32.8 L 8.68,32.8 C 8.68,32.8 16.429,33.091 17.798,27.76 C 18.235,25.954 17.798,24.264 16.779,22.721 C 15.818,21.206 14.303,19.837 12.642,18.585 C 12.497,18.468 12.293,18.322 12.03,18.147 C 9.205,16.167 0.495,10.05 0.495,0"/>
  </g>
  <g transform="matrix(0, 8.632180213928223, 8.632180213928223, 0, 320.22308349609375, 133.25273132324216)" id="g2618">
    <path id="path2620" style="fill-opacity: 1; fill-rule: evenodd; stroke: none; fill: rgb(255, 255, 255);" d="M 0,0 C 0,10.69 9.089,17.07 12.089,19.167 C 12.322,19.313 12.526,19.458 12.672,19.575 C 16.429,22.401 17.973,24.993 17.332,27.469 C 16.429,31.052 11.507,31.489 10.02,31.547 L 9.962,31.547 L 9.934,31.489 C 9.059,30.237 7.603,28.139 2.563,24.585 C -0.437,22.488 -10.195,14.448 -10.195,0 C -10.195,-14.478 -0.408,-22.488 2.563,-24.615 C 7.545,-28.139 9.089,-30.324 9.904,-31.519 L 9.934,-31.547 L 9.992,-31.547 C 11.477,-31.519 16.429,-31.052 17.332,-27.499 C 17.973,-25.023 16.429,-22.43 12.672,-19.604 C 12.526,-19.488 12.322,-19.342 12.089,-19.167 C 9.089,-17.099 0,-10.72 0,0"/>
  </g>
  <g transform="matrix(0, 8.632180213928223, 8.632180213928223, 0, 136.7745361328125, 151.87707519531247)" id="g2622">
    <path id="path2624" style="fill-opacity: 1; fill-rule: evenodd; stroke: none;" d="M 0,0 L 1.339,-1.106 L 5.651,0.99 L 4.194,-3.524 L 5.33,-4.486 L 9.205,0.145 L 8.389,0.845 L 5.651,-2.418 L 7.049,1.952 L 6.525,2.418 L 2.33,0.32 L 5.097,3.612 L 3.874,4.603 L 0,0"/>
  </g>
  <g transform="matrix(-0.724915921688, 8.601686477661, 8.610980987549, 0.6146479249, 244.181809068322, 108.468618862811)" id="g2630" style="transform-origin: 3.3935px 0.248001px;">
    <path id="path2632" style="fill-opacity: 1; fill-rule: evenodd; stroke: none;" d="M -0.153 -0.897 L 3.459 1.346 L 1.565 -3.693 L 2.294 -4.8 L 7.392 -1.625 L 6.634 -0.402 L 2.993 -2.673 L 4.857 2.424 L 4.188 3.502 L -0.911 0.327 L -0.153 -0.897"/>
  </g>
  <g transform="matrix(7.306262016296, 4.597072124481, 4.597072124481, -7.306262016296, 186.924391990626, 140.857559135076)" id="g2634" style="transform-origin: -1.967px 0.8735px;">
    <path id="path2636" style="fill-opacity: 1; fill-rule: evenodd; stroke: none;" d="M 0,0 L -1.835,0.641 L -1.224,2.418 L -1.981,2.68 L -2.593,0.903 L -4.166,1.427 L -3.525,3.263 L -4.282,3.524 L -5.448,0.203 L 0.262,-1.777 L 1.514,1.893 L 0.757,2.156 L 0,0"/>
  </g>
  <g transform="matrix(6.606500148773, 5.555960178375, 5.555960178375, -6.606500148773, 297.301453863538, 81.551461125427)" id="g2638" style="transform-origin: 3.3355px 0.450999px;">
    <path id="path2640" style="fill-opacity: 1; fill-rule: evenodd; stroke: none;" d="M 0,0 L 0.612,-0.554 L 1.748,0.728 L 5.622,-2.768 L 6.671,-1.602 L 2.796,1.893 L 3.933,3.146 L 3.321,3.67 L 0,0"/>
  </g>
  <g transform="matrix(-3.246128082275, 7.998575210571, 7.998575210571, 3.246128082275, 506.973387346885, 194.591263403604)" id="g2654" style="transform-origin: -2.68089px 1.66px;">
    <path id="path2656" style="fill-opacity: 1; fill-rule: evenodd; stroke: none;" d="M 0,0 C 0.699,1.107 0.583,2.36 -0.378,2.913 C -1.048,3.35 -1.573,3.35 -2.563,2.855 C -2.854,2.709 -3.058,2.534 -3.321,2.418 C -3.729,2.214 -4.049,2.01 -4.369,2.185 C -4.719,2.418 -4.748,2.884 -4.486,3.321 C -4.194,3.787 -3.757,3.991 -3.437,4.078 L -3.729,4.806 C -4.34,4.573 -4.864,4.253 -5.33,3.496 C -6.088,2.214 -5.884,1.165 -5.155,0.728 C -4.427,0.292 -3.816,0.408 -3.204,0.728 C -3.204,0.758 -2.825,0.961 -2.592,1.078 C -2.097,1.369 -1.514,1.69 -1.106,1.456 C -0.641,1.165 -0.524,0.67 -0.816,0.204 C -1.223,-0.437 -1.66,-0.583 -2.126,-0.699 L -1.776,-1.486 C -1.164,-1.311 -0.524,-0.903 0,0"/>
  </g>
  <g transform="matrix(1, 0, 0, 1, -2, -4.000000000000028)">
    <g transform="matrix(-5.660147, 6.517464, 6.517464, 5.660147, 395.289093, 108.929184)" id="g2658" style="transform-origin: 3.11623px 0.0732286px;">
      <path id="path2660" style="fill-opacity: 1; fill-rule: evenodd; stroke: none;" d="M 0,0 C 0.408,-1.981 1.865,-3.263 3.816,-2.826 C 4.894,-2.593 6.846,-1.631 6.205,1.34 C 6.059,2.185 5.71,2.621 5.302,3.058 L 4.661,2.505 C 4.894,2.33 5.243,2.01 5.389,1.311 C 5.681,-0.117 4.515,-0.99 3.496,-1.195 C 2.01,-1.515 0.962,-0.641 0.758,0.35 C 0.612,1.048 0.787,1.456 0.903,1.748 L 0.117,1.923 C -0.058,1.456 -0.203,0.874 0,0"/>
    </g>
    <g transform="matrix(5.259251, -6.845064, -6.845064, -5.259251, 402.216583, 115.167099)" id="g-3" style="transform-origin: 3.11623px 0.0732286px;">
      <path id="path-3" style="fill-opacity: 1; fill-rule: evenodd; stroke: none;" d="M 0,0 C 0.408,-1.981 1.865,-3.263 3.816,-2.826 C 4.894,-2.593 6.846,-1.631 6.205,1.34 C 6.059,2.185 5.71,2.621 5.302,3.058 L 4.661,2.505 C 4.894,2.33 5.243,2.01 5.389,1.311 C 5.681,-0.117 4.515,-0.99 3.496,-1.195 C 2.01,-1.515 0.962,-0.641 0.758,0.35 C 0.612,1.048 0.787,1.456 0.903,1.748 L 0.117,1.923 C -0.058,1.456 -0.203,0.874 0,0"/>
    </g>
  </g>
  <g transform="matrix(0, 8.632180213928223, 8.632180213928223, 0, 545.5143432617188, 154.37586975097653)" id="g2662">
    <path id="path2664" style="fill-opacity: 1; fill-rule: evenodd; stroke: none; fill: rgb(204, 204, 204);" d="M 0,0 C -0.35,-0.058 -1.894,-0.203 -2.68,0.379 C -3.438,0.932 -3.175,1.399 -3.059,1.66 C -3.03,1.807 -2.797,2.156 -2.33,2.214 C -2.098,2.243 -1.748,2.185 -1.485,1.981 C -0.99,1.632 -0.67,0.787 -0.67,0.787 C -0.67,0.787 1.427,1.865 3.496,4.108 L 4.894,4.108 C 1.923,1.02 0,0 0,0"/>
  </g>
  <g transform="matrix(0, 8.632180213928223, 8.632180213928223, 0, 559.0927734375, 150.6035003662109)" id="g2666">
    <path id="path2668" style="fill-opacity: 1; fill-rule: evenodd; stroke: none; fill: rgb(255, 255, 255);" d="M 0,0 C 0.525,0.292 1.806,1.078 3.641,3.03 C 3.962,3.35 4.194,4.166 3.699,4.603 C 3.496,4.778 3.204,4.895 2.884,4.865 C 2.505,4.865 2.068,4.632 1.893,4.399 C 1.544,4.02 -0.145,2.33 -1.457,1.137 C -1.223,1.107 -0.815,0.904 -0.815,0.904 C -0.583,0.729 -0.262,0.554 0,0"/>
  </g>
  <g transform="matrix(0, 8.632180213928223, 8.632180213928223, 0, 60.463539123535156, 195.87060546874997)" id="g2670">
    <path id="path2672" style="fill-opacity: 1; fill-rule: evenodd; stroke: none; fill: rgb(204, 204, 204);" d="M 0,0 L -1.311,0 C -3.408,2.272 -5.476,3.321 -5.476,3.321 C -5.476,3.321 -5.797,2.505 -6.292,2.126 C -6.554,1.952 -6.904,1.865 -7.137,1.893 C -7.603,1.981 -7.836,2.33 -7.866,2.447 C -7.982,2.709 -8.244,3.204 -7.487,3.729 C -6.7,4.311 -5.186,4.166 -4.836,4.078 C -4.836,4.078 -2.971,3.03 0,0"/>
  </g>
  <g transform="matrix(0, 8.632180213928223, 8.632180213928223, 0, 82.09577941894531, 150.6035003662109)" id="g2674">
    <path id="path2676" style="fill-opacity: 1; fill-rule: evenodd; stroke: none; fill: rgb(255, 255, 255);" d="M 0,0 C 0.525,-0.292 1.806,-1.078 3.641,-3.03 C 3.962,-3.35 4.194,-4.136 3.699,-4.603 C 3.496,-4.778 3.204,-4.894 2.884,-4.865 C 2.505,-4.865 2.068,-4.631 1.893,-4.399 C 1.544,-4.02 -0.145,-2.33 -1.457,-1.136 C -1.223,-1.107 -0.815,-0.903 -0.815,-0.903 C -0.583,-0.728 -0.262,-0.525 0,0"/>
  </g>
  <g transform="matrix(0, 8.632180213928223, 8.632180213928223, 0, 27.78211784362793, 344.48699951171864)" id="g2678">
    <path id="path2680" style="fill-opacity: 1; fill-rule: evenodd; stroke: none; fill: rgb(255, 255, 255);" d="M 0,0 C -2.767,0 -5.01,2.243 -5.01,5.039 C -5.01,7.807 -2.767,10.05 0,10.05 C 2.797,10.05 5.04,7.807 5.04,5.039 C 5.04,2.243 2.797,0 0,0"/>
  </g>
  <g transform="matrix(0, 8.632180213928223, 8.632180213928223, 0, 613.9036865234375, 346.22457885742176)" id="g2686">
    <path id="path2688" style="fill-opacity: 1; fill-rule: evenodd; stroke: none; fill: rgb(255, 255, 255); paint-order: fill;" d="M 0,0 C -2.767,0 -5.01,-2.243 -5.01,-5.04 C -5.01,-7.807 -2.767,-10.05 0,-10.05 C 2.797,-10.05 5.04,-7.807 5.04,-5.04 C 5.04,-2.243 2.797,0 0,0"/>
  </g>
  <g transform="matrix(-0.767508029938, 8.597992897034, 8.597992897034, 0.767508029938, 343.688171348661, 90.319435959047)" id="g-2" style="transform-origin: 2.9715px -0.946999px;">
    <path id="path-2" style="fill-opacity: 1; fill-rule: evenodd; stroke: none;" d="M 0,0 L -0.087,-1.573 L 5.943,-1.894 L 6.03,-0.292 L 0,0"/>
  </g>
  <g transform="matrix(-3.872740983963, 7.714687824249, 7.714687824249, 3.872740983963, 458.454374278667, 151.295518889822)" id="g-4" style="transform-origin: 2.4905px -2.3015px;">
    <path id="path-4" style="fill-opacity: 1; fill-rule: evenodd; stroke: none;" d="M 0,0 L 4.108,-1.107 L -0.845,-3.175 L -1.195,-4.428 L 4.632,-6.001 L 4.981,-4.602 L 0.845,-3.496 L 5.855,-1.398 L 6.176,-0.175 L 0.379,1.398 L 0,0"/>
  </g>
  <path fill="#000000" d="M 380.832 325.061 L 345.522 357.913 L 362.564 357.913 L 349.515 414.407 L 349.208 414.407 L 330.787 357.913 L 308.679 357.913 L 290.104 413.487 L 289.797 413.487 L 272.757 340.412 L 249.269 340.412 L 277.67 447.874 L 301.465 447.874 L 319.426 392.147 L 319.732 392.147 L 337.848 447.874 L 361.336 447.874 L 385.439 357.913 L 402.785 357.913 L 380.832 325.061 Z" style="" transform="matrix(1, 0, 0, 1, 0, -2.842170943040401e-14)"/>
  <g style="stroke: none; stroke-width: 0; stroke-dasharray: none; stroke-linecap: butt; stroke-linejoin: miter; stroke-miterlimit: 10; fill: none; fill-rule: nonzero; opacity: 1;" transform="matrix(0.8194929957389832, 0, 0, 0.8194929957389832, 285.1961669921875, 202.36679077148435)">
    <path d="M 45 0 C 20.187 0 0 20.187 0 45 c 0 24.813 20.187 45 45 45 c 24.813 0 45 -20.187 45 -45 C 90 20.187 69.813 0 45 0 z M 4.051 47 H 20.07 c 0.142 6.123 0.934 11.89 2.255 17.096 H 8.735 C 6.011 58.944 4.348 53.149 4.051 47 z M 47 21.905 V 4.2 c 6.216 1.214 11.734 8.007 15.192 17.705 H 47 z M 63.455 25.905 C 64.89 31.084 65.772 36.89 65.931 43 H 47 V 25.905 H 63.455 z M 43 4.2 v 17.705 H 27.809 C 31.266 12.207 36.784 5.414 43 4.2 z M 43 25.905 V 43 H 24.069 c 0.159 -6.11 1.041 -11.916 2.476 -17.095 H 43 z M 20.07 43 H 4.051 c 0.297 -6.149 1.96 -11.944 4.684 -17.095 h 13.59 C 21.003 31.11 20.211 36.877 20.07 43 z M 24.069 47 H 43 v 17.096 H 26.545 C 25.111 58.917 24.228 53.111 24.069 47 z M 43 68.096 V 85.8 c -6.216 -1.214 -11.733 -8.007 -15.191 -17.705 H 43 z M 47 85.8 V 68.096 h 15.192 C 58.734 77.793 53.216 84.586 47 85.8 z M 47 64.096 V 47 h 18.931 c -0.159 6.111 -1.041 11.917 -2.476 17.096 H 47 z M 69.931 47 h 16.018 c -0.297 6.149 -1.96 11.944 -4.684 17.096 H 67.676 C 68.997 58.89 69.789 53.123 69.931 47 z M 69.931 43 c -0.142 -6.123 -0.934 -11.89 -2.255 -17.095 h 13.589 c 2.724 5.152 4.387 10.946 4.684 17.095 H 69.931 z M 78.855 21.905 H 66.523 c -2.153 -6.613 -5.219 -12.087 -8.909 -15.911 C 66.331 8.82 73.779 14.487 78.855 21.905 z M 32.386 5.994 c -3.689 3.824 -6.755 9.298 -8.909 15.911 H 11.145 C 16.221 14.487 23.669 8.82 32.386 5.994 z M 11.146 68.096 h 12.332 c 2.153 6.612 5.219 12.086 8.909 15.911 C 23.669 81.18 16.222 75.513 11.146 68.096 z M 57.614 84.006 c 3.689 -3.824 6.756 -9.298 8.909 -15.91 h 12.332 C 73.778 75.513 66.331 81.18 57.614 84.006 z" style="stroke: none; stroke-width: 1; stroke-dasharray: none; stroke-linecap: butt; stroke-linejoin: miter; stroke-miterlimit: 10; fill: rgb(0,0,0); fill-rule: nonzero; opacity: 1;" transform=" matrix(1 0 0 1 0 0) " stroke-linecap="round"/>
  </g>
  <g transform="matrix(1.1968539953231812, 0, 0, 1.1968539953231812, -754.537353515625, -2.263639926910429)" style="">
    <path d="M 661.6 273.683 L 661.6 283.787 L 689.89 283.787 L 685.344 273.683 L 661.6 273.683" stroke="none" fill="#ff5c00" fill-rule="evenodd" style=""/>
    <path d="M 688.375 273.683 L 705.046 309.046 L 721.717 273.683 L 688.375 273.683" stroke="none" fill="#fcb404" fill-rule="evenodd" style=""/>
    <path d="M 661.6 286.313 L 661.6 309.046 L 692.921 309.046 L 697.215 299.447 L 690.901 286.313 L 661.6 286.313" stroke="none" fill="#fc0404" fill-rule="evenodd" style=""/>
  </g>
  <g transform="matrix(1.1442710161209106, 0, 0, 1.1442710161209106, 163.05654907226562, 107.43221282958982)" style="">
    <path fill="#a730b8" d="M 337.454 197.246 C 336.81 198.48 335.8 199.485 334.563 200.124 L 350.437 216.06 L 354.264 214.121 L 337.454 197.246 Z M 358.393 218.265 L 354.566 220.205 L 362.609 228.28 C 363.254 227.045 364.264 226.04 365.501 225.401 L 358.393 218.265 Z" style=""/>
    <path fill="#5496be" d="M 367.772 208.106 L 368.435 212.345 L 378.603 207.191 C 377.628 206.197 376.984 204.926 376.759 203.551 L 367.772 208.106 Z M 362.555 210.75 L 341.306 221.519 C 342.281 222.513 342.925 223.784 343.151 225.159 L 363.218 214.989 L 362.555 210.75 Z" style=""/>
    <path fill="#ce3d1a" d="M 345.468 204.24 L 348.496 207.279 L 359.352 186.086 C 357.979 185.854 356.711 185.203 355.722 184.223 L 345.468 204.24 Z M 342.802 209.446 L 337.608 219.585 C 338.981 219.818 340.249 220.468 341.238 221.448 L 345.829 212.485 L 342.802 209.446 Z" style=""/>
    <path fill="#d0188f" d="M 334.474 200.168 C 333.229 200.791 331.821 201.014 330.444 200.806 L 333.477 220.204 C 334.722 219.582 336.13 219.359 337.507 219.567 L 334.474 200.168 Z" style=""/>
    <path fill="#5b36e9" d="M 343.167 225.255 C 343.373 226.632 343.148 228.039 342.524 229.284 L 361.919 232.396 C 361.713 231.019 361.937 229.612 362.561 228.367 L 343.167 225.255 Z" style=""/>
    <path fill="#30b873" d="M 369.72 224.738 C 371.093 224.97 372.361 225.621 373.35 226.601 L 382.302 209.125 C 380.929 208.893 379.661 208.242 378.672 207.262 L 369.72 224.738 Z" style=""/>
    <path fill="#ebe305" d="M 366.462 182.544 C 365.818 183.779 364.808 184.784 363.57 185.423 L 377.434 199.34 C 378.078 198.105 379.088 197.1 380.326 196.461 L 366.462 182.544 Z" style=""/>
    <path fill="#f47601" d="M 336.284 189.394 C 337.259 190.389 337.903 191.66 338.128 193.034 L 355.653 184.152 C 354.678 183.158 354.034 181.887 353.809 180.513 L 336.284 189.394 Z" style=""/>
    <path fill="#57c115" d="M 363.538 185.439 C 362.298 186.072 360.892 186.307 359.514 186.111 L 361.066 196.052 L 365.302 196.731 L 363.538 185.439 Z M 361.968 201.83 L 365.638 225.332 C 366.889 224.72 368.298 224.51 369.674 224.729 L 366.204 202.51 L 361.968 201.83 Z" style=""/>
    <path fill="#dbb210" d="M 338.141 193.108 C 338.352 194.485 338.132 195.893 337.513 197.14 L 347.461 198.737 L 349.416 194.919 L 338.141 193.108 Z M 355.191 195.846 L 353.236 199.665 L 376.74 203.44 C 376.538 202.062 376.766 200.655 377.394 199.412 L 355.191 195.846 Z" style=""/>
    <path fill="#ffca00" d="M 354.336 179.088 C 354.078 183.812 359.032 187.044 363.252 184.904 C 365.21 183.912 366.491 181.949 366.61 179.757 C 366.867 175.032 361.914 171.801 357.694 173.94 C 355.735 174.933 354.455 176.896 354.336 179.088" style=""/>
    <path fill="#64ff00" d="M 377.286 202.127 C 377.029 206.851 381.982 210.083 386.202 207.943 C 388.161 206.951 389.441 204.988 389.56 202.796 C 389.817 198.071 384.864 194.84 380.644 196.979 C 378.685 197.972 377.405 199.935 377.286 202.127" style=""/>
    <path fill="#00a3ff" d="M 362.461 231.068 C 362.204 235.792 367.158 239.023 371.378 236.884 C 373.336 235.891 374.617 233.928 374.736 231.736 C 374.993 227.012 370.04 223.78 365.82 225.92 C 363.861 226.913 362.581 228.875 362.461 231.068" style=""/>
    <path fill="#9500ff" d="M 330.35 225.915 C 330.092 230.639 335.046 233.87 339.266 231.731 C 341.224 230.738 342.504 228.776 342.624 226.583 C 342.881 221.859 337.928 218.627 333.708 220.767 C 331.749 221.76 330.469 223.722 330.35 225.915" style=""/>
    <path fill="#ff0000" d="M 325.328 193.79 C 325.07 198.514 330.024 201.745 334.244 199.606 C 336.202 198.613 337.482 196.651 337.602 194.458 C 337.859 189.734 332.906 186.503 328.686 188.642 C 326.727 189.635 325.447 191.597 325.328 193.79" style=""/>
  </g>
</svg>