<svg viewBox="0 0 512 512"
  xmlns="http://www.w3.org/2000/svg">
  <defs>
    <style>.cls-1{fill:#c9dd00;}.cls-2{fill:#007b6b;}</style>
  </defs>
  <g id="Xing">
    <path class="cls-1" d="M471.42,0h-87.9a13.7,13.7,0,0,0-11.91,6.93L203,303.75a13.72,13.72,0,0,0,0,13.51L309.35,505.05A13.69,13.69,0,0,0,321.27,512h87.84A13.69,13.69,0,0,0,421,491.48L321.07,317.7a13.68,13.68,0,0,1,0-13.63L483.31,20.5A13.7,13.7,0,0,0,471.42,0Z"/>
    <path class="cls-2" d="M59.53,95.88h81.4a13.68,13.68,0,0,1,11.93,7L209.23,203a13.7,13.7,0,0,1-.19,13.76L132,345.22a13.68,13.68,0,0,1-11.74,6.66H40.58A13.69,13.69,0,0,1,28.86,331.1L97.22,218a13.69,13.69,0,0,0,.2-13.84l-49.8-87.81A13.69,13.69,0,0,1,59.53,95.88Z"/>
  </g>
</svg>