<?xml version="1.0" encoding="UTF-8"?><svg id="Ebene_2" xmlns="http://www.w3.org/2000/svg" width="200" height="200" viewBox="0 0 321.36 368.03"><defs><style>.cls-1,.cls-2{fill:#0057b7;}.cls-3{fill:#fff;}.cls-2{fill-rule:evenodd;}</style></defs><g id="Ebene_1-2"><path class="cls-3" d="m0,0l.03,206.81c-.02,43.04,16.72,83.52,47.12,114,30.37,30.45,70.69,47.22,113.52,47.22,88.6,0,160.68-72.34,160.68-161.26V0H0Z"/><path class="cls-2" d="m161.46,39.25V11.42s-150.21,0-150.21,0l.03,194.24c-.03,82.82,67.09,149.95,149.4,149.95.25,0,.5,0,.75,0l.02-263.56h-6.83v36.59h-28.09V39.2h28.09v.06h8.74v12.14l30.51-.14v-12h-32.42Zm-62.24,70.08c6.73,0,12.22,5.49,12.22,12.22s-5.49,12.22-12.22,12.22-12.21-5.49-12.21-12.22,5.49-12.22,12.21-12.22ZM28.93,44.33l48.76-5.19-.12,11.07h-.08v78.62h-28.09V53.41l-20.48,2.33v-11.41Zm22.59,161.39l-.4-.18-27.12-13.1,27.14-12.85c.24-.1.64-.28,1.19-.54,2.74-1.32,5.06-2.3,7.01-2.93-2.24.33-4.24.57-5.98.74-1.74.17-3.12.26-4.14.25l-24.3-.04.02-11.04,47.84.08-.03,14.76-26.25,11.66,26.21,12.39-.03,14.22-47.84-.08.02-11.04,24.3.04c1.15,0,2.59.09,4.36.25,1.76.17,3.68.41,5.76.72-2.04-.68-4.63-1.78-7.76-3.32Zm-8.13,73.45l-4.56-11.87,5.78-4.31-6.59-17.18-7.17.69-4.53-11.82,50.54-1.82,5.31,13.84-38.78,32.46Zm64.67,25.15c-.39.54-.7.94-.92,1.2-1.62,1.87-3.44,3.49-5.47,4.89-2.02,1.4-3.89,2.34-5.59,2.84-4.67,1.36-9,1.63-12.99.79-3.98-.82-7.76-2.79-11.34-5.9-2.65-2.31-4.74-4.92-6.24-7.82-1.51-2.9-2.38-5.99-2.62-9.28-.26-3.24.15-6.4,1.22-9.47,1.07-3.06,2.76-5.92,5.07-8.58,2.33-2.68,4.93-4.75,7.82-6.24,2.89-1.5,5.97-2.35,9.25-2.58,3.25-.23,6.4.2,9.46,1.3,3.06,1.09,5.94,2.82,8.64,5.16,2.94,2.56,5.16,5.41,6.65,8.57,1.5,3.17,2.26,6.63,2.31,10.38l-11.72.03c.26-2.12.04-4.11-.68-5.97-.72-1.86-1.92-3.5-3.58-4.95-2.84-2.47-6.03-3.49-9.58-3.07-3.54.42-6.66,2.19-9.4,5.34-2.73,3.14-4.05,6.49-3.98,10.05.08,3.57,1.53,6.59,4.38,9.06,2.2,1.92,4.58,3.04,7.15,3.38,2.57.34,5.1-.16,7.6-1.47l-9.35-8.13,5.99-6.9,18.71,16.26c-.16.18-.43.55-.82,1.09Zm29.5-14.35c3.22.96,5.89,2.02,7.98,3.18,2.11,1.16,3.82,2.5,5.18,4.04,2.77,3.19,4.53,6.74,5.29,10.64.76,3.91.47,8.05-.84,12.44-1.27,4.24-3.3,7.77-6.11,10.59-2.79,2.82-6.31,4.86-10.53,6.13-1.83.54-3.97.73-6.44.55-2.46-.17-5.22-.71-8.27-1.62l-14.08-4.21,13.74-45.95,14.08,4.21Z"/><polygon class="cls-2" points="52.04 257.19 70.42 243.23 47.42 245.15 52.04 257.19"/><rect class="cls-1" x="154.62" y="51.4" width="6.83" height="28.49"/><path class="cls-2" d="m137.34,325.83c2.88-1.82,4.95-4.83,6.2-9.02,1.29-4.32,1.21-7.99-.23-11.04-1.44-3.05-4.08-5.14-7.93-6.3l-3.19-.95-8.18,27.35,3.49,1.05c3.67,1.1,6.95.73,9.83-1.08Z"/><polygon class="cls-2" points="163.31 92.04 161.47 92.04 161.48 92.19 193.82 92.04 193.82 80.04 163.31 80.04 163.31 92.04"/><path class="cls-2" d="m263.65,227.14c2.03.43,3.47,1.35,4.3,2.76.85,1.42,1.03,3.2.57,5.37l-.72,3.37-12.44-2.64.65-3.08c.51-2.39,1.39-4.06,2.65-5.02,1.25-.95,2.91-1.2,4.98-.76m-47.36,71.46c.43-1.32.2-2.77-.69-4.3-.98-1.7-2.14-2.64-3.49-2.84-1.34-.2-3.12.34-5.35,1.63l-1.55.9,5.48,9.49,2.39-1.38c1.72-.99,2.79-2.15,3.22-3.49m5.22,8.08c-1.48-.27-3.17.15-5.07,1.25l-2.39,1.38,5.75,9.96,3.23-1.87c1.53-.88,2.48-2.04,2.87-3.45.37-1.42.12-2.91-.77-4.44-.93-1.62-2.13-2.56-3.62-2.82m26.96-267.43c-24.71,0-44.85,20.09-44.85,44.73s20.15,44.73,44.85,44.73c21.04,0,38.77-14.57,43.57-34.11l-26.33.1c-.86,14.73-4.73,24.37-17.61,24.5-15.37.16-18.69-15.6-18.69-35s4.26-35.66,18.69-35.45c13.57.19,15.55,7.77,17.48,19.9l25.45-.13c-6.3-17.11-23.27-29.27-42.57-29.27m-51.82,299.7l-1.62-9.18-14.01,2.47-1.64-9.32,14.01-2.47-1.55-8.77-14.01,2.47-1.63-9.25,14.01-2.47-1.55-8.77-25.38,4.48,7.99,45.3,25.38-4.47Zm40.39-23.6c1.16-3.31.63-6.88-1.58-10.7-1.29-2.24-2.91-3.82-4.85-4.73-1.94-.92-4.08-1.11-6.4-.59,1.24-1.82,1.87-3.72,1.91-5.69.05-1.98-.5-3.96-1.64-5.93-1.89-3.28-4.46-5.26-7.7-5.96-3.24-.69-6.69.01-10.34,2.12l-14.55,8.4,23,39.84,13.81-7.98c4.4-2.54,7.18-5.46,8.33-8.78m31.11-23.62c3.61-4.62,5.22-9.17,4.83-13.68-.39-4.51-2.73-8.44-7.02-11.79l-23.25-18.16-7.11,9.1,20.08,15.69c3.14,2.46,5.07,4.67,5.76,6.64.68,1.97.25,3.95-1.31,5.94-1.54,1.98-3.36,2.86-5.44,2.66-2.07-.2-4.68-1.54-7.81-3.98l-20.08-15.69-7.15,9.15,23.25,18.16c4.28,3.34,8.66,4.66,13.12,3.95,4.47-.71,8.51-3.37,12.12-7.98m28.41-71.47l-20.93,7.85c.37-3.13-.34-5.82-2.13-8.06-1.78-2.24-4.42-3.73-7.88-4.47-4.41-.94-8.23-.21-11.47,2.19-3.23,2.4-5.38,6.12-6.45,11.16l-3.51,16.5,44.99,9.56,2.4-11.29-19.14-4.07,21.24-5.77,2.89-13.6Zm1.22-20.9c1.15-2.92,1.74-6.08,1.74-9.46,0-4.55-.95-8.54-2.87-11.95-1.9-3.42-4.83-6.4-8.77-8.93-1.44-.91-3.3-1.68-5.59-2.26-2.3-.59-4.62-.88-7-.88-.33,0-.81.03-1.46.09-.63.06-1.07.09-1.3.09v23.84h8.79v-11.91c2.53.98,4.48,2.51,5.86,4.58,1.38,2.08,2.06,4.51,2.06,7.32,0,3.62-1.28,6.58-3.81,8.89-2.54,2.3-5.8,3.45-9.8,3.45s-7.26-1.16-9.8-3.45c-2.54-2.31-3.81-5.27-3.81-8.89,0-2.12.45-4.03,1.34-5.72.89-1.69,2.2-3.11,3.9-4.25l-7.42-8.49c-2.7,2.41-4.72,5.14-6.08,8.23-1.36,3.08-2.03,6.48-2.03,10.23,0,3.44.57,6.62,1.71,9.53,1.13,2.91,2.81,5.48,5.03,7.69,2.24,2.24,4.79,3.93,7.7,5.09,2.9,1.15,6.05,1.73,9.46,1.73s6.53-.58,9.43-1.73c2.91-1.15,5.46-2.85,7.65-5.09,2.24-2.25,3.93-4.84,5.09-7.75"/><path class="cls-1" d="m0,0l.03,206.81c-.02,43.04,16.72,83.52,47.12,114,30.37,30.45,70.69,47.22,113.52,47.22,88.6,0,160.68-72.34,160.68-161.26V0H0Zm315.86,206.77c0,85.88-69.61,155.76-155.18,155.76-41.36,0-80.3-16.2-109.63-45.6-29.37-29.44-45.53-68.55-45.51-110.12l-.03-201.31h310.36v201.27Z"/></g></svg>