<?xml version="1.0" encoding="UTF-8"?>
<!-- Generator: Adobe Illustrator 14.0.0, SVG Export Plug-In . SVG Version: 6.00 Build 43363)  -->
<svg width="200" height="200" enable-background="new 269.5 139.5 256 256" version="1.1" viewBox="269.5 139.5 316 316" xml:space="preserve" xmlns="http://www.w3.org/2000/svg">
<path d="m271.05 297.46c-6e-3 -86.694 70.262-156.96 156.95-156.96 86.691 3e-3 156.97 70.284 156.98 156.97 0.0102 86.689-70.262 156.96-156.95 156.96-86.696-9.9e-4 -156.97-70.282-156.98-156.97z" fill="#aa1124" stroke-width="1.2608"/>
<path d="m287.44 296.74c-5e-3 -77.145 62.526-139.68 139.67-139.68 77.142 3e-3 139.69 62.542 139.69 139.69 6e-3 77.146-62.527 139.68-139.67 139.68-77.143-4e-3 -139.68-62.542-139.69-139.69z" fill="none" stroke="#fff" stroke-miterlimit="3.8637" stroke-width="5.6434"/><g fill="#fff">
<polygon transform="matrix(1.2608 0 0 1.2608 -72.514 -39.161)" points="355.02 291.3 355.02 280.94 323.44 280.94 323.44 261.94 359.41 261.95 359.41 250.98 311.22 250.98 311.23 323.49 323.44 323.49 323.44 291.3"/>
<path d="m457.86 306.33c-1.8533-19.717-17.503-31.115-37.346-31.242-26.371-4e-3 -42.147 21.765-42.144 47.886 9.9e-4 26.122 15.776 47.89 42.152 47.892 21.322 0 36.232-15.113 37.464-37.005h-15.037c-1.2318 13.315-8.7486 23.944-22.429 23.942-18.851 0-26.744-17.288-26.744-34.83-3e-3 -17.543 7.8874-34.828 26.739-34.828 12.818 0 19.348 7.6845 21.94 18.184h15.405z" stroke-width="1.2608"/>
<polygon transform="matrix(1.2608 0 0 1.2608 -72.514 -39.161)" points="435.21 323.5 435.2 270.18 435.5 270.18 467.27 323.5 480.17 323.5 480.17 250.98 468.54 250.98 468.54 304.4 468.34 304.4 436.47 250.98 423.57 250.98 423.58 323.5"/>
<path d="m395.45 201.64 21.198 3e-3 6e-3 63.258h15.404l-8e-3 -89.634h-11.46c-2.0942 10.753-13.308 14.981-25.137 14.852v11.521z" stroke-width="1.2608"/>
<polygon transform="matrix(1.2608 0 0 1.2608 -72.514 -39.161)" points="418.16 241.17 418.16 227.46 404.57 227.46 404.57 241.17"/>
</g></svg>
