<?xml version="1.0" encoding="UTF-8"?>
<svg width="200" height="200" version="1.2" viewBox="0 0 413 413" xmlns="http://www.w3.org/2000/svg" xmlns:xlink="http://www.w3.org/1999/xlink">
 <defs>
  <clipPath id="r">
   <path d="M138.29 53.008H266.7v128.41H138.29z"/>
  </clipPath>
 </defs>
 <g transform="matrix(3.1403,0,0,3.1403,-429.18,-161.37)" clip-path="url(#r)" stroke-width=".318">
  <path d="m138.29 117.21c0-35.457 28.746-64.203 64.207-64.203 35.457 0 64.203 28.746 64.203 64.203 0 35.461-28.746 64.207-64.203 64.207-35.461 0-64.207-28.746-64.207-64.207" fill="#fff"/>
 </g>
 <path d="m88.216 120.66 207.5-36.185v-3.803l-112 19.529v-4.931l8.464-1.129 5.937-22.559h-14.597l-1.51-19.332h-2.661l-0.945 19.332h-14.781l5.496 22.743 8.905 0.945v5.691l-89.819 16.29zm90.174 64.021-2.245 81.843h11.825l-1.325-83.39zm-27.54 41.622-111.65-23.27 0.258 14.646 43.411 15.947s-3.496 31.906 15.947 65.099c16.99 29.023 55.753 51.937 91.512 49.692 107.73-6.808 106.68-105.9 106.68-105.9l61.186-7.851 10.45-41.572-145.37 22.486s-0.528 9.15-2.355 27.71c-1.828 18.572-25.626 39.744-50.207 27.196-25.196-12.868-19.86-44.184-19.86-44.184m127.54 35.168-35.464-19.676 1.337-6.685 40.381-4.809-1.361 6.796-9.114 0.982-2.49 12.438 8.047 4.293zm-24.448 22.84 2.06-5.936c4.748 1.52 7.974 0.527 9.679-2.981 0.846-1.73 1.055-3.325 0.638-4.76-0.43-1.435-1.313-2.478-2.662-3.128-0.785-0.392-1.533-0.54-2.257-0.466-0.724 0.086-1.435 0.393-2.134 0.932-0.712 0.54-2.135 1.975-4.306 4.306-1.926 2.085-3.606 3.484-5.03 4.207-1.423 0.712-2.993 1.068-4.735 1.055-1.741-0.012-3.422-0.429-5.041-1.214-1.89-0.92-3.398-2.171-4.49-3.778-1.092-1.595-1.656-3.337-1.693-5.238-0.037-1.89 0.49-3.95 1.57-6.183 1.632-3.36 3.815-5.532 6.538-6.538 2.736-0.993 5.815-0.736 9.237 0.798l-2.49 5.912c-1.975-0.65-3.533-0.724-4.686-0.257-1.14 0.49-2.085 1.508-2.846 3.054-0.76 1.546-1.018 2.895-0.773 4.048 0.233 1.153 0.822 1.963 1.791 2.429 0.933 0.454 1.914 0.454 2.92 0.012 1.018-0.441 2.576-1.84 4.674-4.195 2.257-2.49 4.146-4.146 5.691-4.992a10.013 10.013 0 0 1 5.018-1.202c1.79 0.025 3.729 0.54 5.814 1.558 3.018 1.472 5.103 3.63 6.256 6.477 1.153 2.858 0.76 6.268-1.153 10.218-3.398 6.992-9.261 8.942-17.59 5.863m-21.823 34.75-21.761-31.905 5.14-3.508 25.245 14.009-14.524-21.308 4.919-3.361 21.749 31.905-5.312 3.62-24.73-13.617 14.193 20.805zm-43.032 9.054 6.796-39.967 6.735-0.944 17.946 36.48-6.87 0.97-3.925-8.28-12.573 1.766-1.387 9.028zm-34.078-3.742 4.931-38.308 6.33 0.81-1.938 15.075 12.45 1.595 1.938-15.064 6.33 0.81-4.944 38.309-6.317-0.81 2.159-16.756-12.463-1.595-2.147 16.744zm-20.339-8.746 3.435-6.575 5.36 2.797-3.422 6.575zm-32.91-49.632 7.225-1.607 1.3 5.9-7.212 1.607zm38.261-2.27-6.489 0.687-1.631-15.223-9.102 0.969 1.41 13.187-6.5 0.687-1.4-13.187-16.338 1.754-0.675-6.354 38.418-4.097zm8.096 12.843c2.233 2.773 3.153 5.852 2.773 9.225-0.258 2.417-1.472 4.993-3.607 7.753l-5.41-3.766c1.362-1.631 2.11-3.25 2.22-4.894 0.099-1.644-0.355-3.092-1.385-4.367-1.472-1.828-3.472-2.675-5.974-2.54-2.515 0.123-5.594 1.656-9.237 4.6-3.778 3.055-6.01 5.778-6.698 8.182-0.686 2.417-0.306 4.515 1.141 6.305 1.055 1.313 2.478 2.037 4.27 2.172 1.79 0.135 3.974-0.491 6.525-1.853l2.036 6.306c-3.986 1.974-7.458 2.71-10.426 2.22s-5.484-2.012-7.557-4.576c-2.6-3.213-3.459-6.82-2.6-10.807 0.993-4.6 3.925-8.856 8.77-12.782 5.128-4.133 10.072-6.219 14.831-6.243 4.134-0.013 7.581 1.668 10.33 5.066m52.354 20.044-2.257 14.793 8.6-1.202zm66.88-57.813-14.93 1.484 13.224 7.029zm-22.118 100.98c-1.3 0.784 78.187-17.26 78.187-17.26v-78.702l-20.915 2.882s-1.901 22.277-10.206 43.142c-9.15 23-29.28 39.216-47.067 49.937" fill="#e64226" stroke-width=".318"/>
 <path d="m401.59 206.7c0-107.62-87.253-194.87-194.88-194.87-107.62 0-194.87 87.253-194.87 194.87 0 107.63 87.252 194.88 194.87 194.88 107.63 0 194.88-87.253 194.88-194.88m-11.395 0c0 101.34-82.138 183.49-183.49 183.49-101.32 0-183.48-82.15-183.48-183.49 0-101.32 82.15-183.48 183.48-183.48 101.35 0 183.49 82.15 183.49 183.48m-126.14-60.465c-1.766-32.643 22.105-54.49 22.105-54.49l-180.38 32.138s-11.347 20.669-7.79 42.174c5.03 30.385 24.878 44.944 25.883 43.694 10.856-13.567 39.44-30.888 79.133-30.888 39.696 0 78.385 17.578 78.385 17.578s-15.579-17.578-17.333-50.207m-75.772 24.583c-0.16-1.546 1.545-3.104 2.784-3.877 1.24-0.772 5.594 0 6.673 0.148 1.092 0.16 4.195-0.614 6.98-2.638 2.797-2.011 3.57-5.274 3.57-5.274s-0.626-0.307-2.331 0.16c-1.705 0.465-5.275 0.625-5.888-0.16-0.626-0.773 1.092-2.638 1.239-3.41 0.16-0.773 0.307-3.558 0.16-6.82-0.16-3.264 2.318-6.048 7.911-9.47 5.581-3.41 12.88-1.08 12.88-1.08 1.227 0.466 0.614 0.932 0 1.08-0.625 0.159-3.103 1.557-3.57 5.274-0.465 3.73 1.08 5.581 1.865 6.526 0.773 0.932 0.92 2.318 1.387 4.023s4.342 2.638 4.342 2.638 0.16 1.398-1.398 2.17c-1.546 0.786-3.104 0.16-3.251 0.933-0.16 0.773 1.852 2.797 1.852 2.797s-0.307 1.092-2.478 1.558-3.876-0.32-4.649-0.945c-0.773-0.613-3.104-0.613-3.104-0.613l-0.16 0.773c-0.146 0.785-0.612 0.625-1.079 1.717-0.466 1.08 0.148 3.557 0.148 3.557s0.466 0.32 1.558 0.32c1.08 0 2.796-0.16 4.036-0.786 1.238-0.613 3.876 0.785 4.501 1.865 0.614 1.08-0.318 3.57-0.932 3.25-0.625-0.306-0.625-0.92-1.398-0.92s-1.24 0.773-2.797 0.773c-1.546 0-2.637-0.932-4.036-1.557-1.386-0.614-2.944-0.467-4.023 0.478-1.092 0.92-2.49 2.478-3.73 2.478s-1.238-1.558-1.238-1.558-1.092-0.147-1.865-0.147-1.398 1.239-1.398 1.239-0.773-0.626-0.933-1.705c-0.147-1.092 1.865-2.331 2.638-2.638s0.932-1.092 0.932-1.092h-1.705c-0.932 0-3.41 1.718-4.809 2.797-1.398 1.08-2.637 1.546-3.729 0.933-1.08-0.626-1.08-2.49-1.08-2.49s-0.625-0.148-1.398-0.148c-0.772 0-1.705 1.705-1.705 1.705s-0.625-0.319-0.772-1.864m-69.564-25.883c0.454 1.055 2.404 2.404 3.741 2.551 1.362 0.16 5.25 1.803 6.305 2.846 1.055 1.055 1.35 1.509 1.35 1.509s-1.203 3.435-1.35 4.49l-0.16 1.054s-5.691-3.753-6.881-4.207c-1.202-0.442-3.3-0.748-4.207-0.147-0.896 0.6-1.644 0.908-1.35 1.803 0.307 0.896 1.656 5.25 0.454 6.6-1.202 1.337-1.496 2.846-1.496 3.594s-0.908 1.644-2.098 1.803c-1.202 0.147-0.147-1.055-0.147-1.95 0-0.908-0.16-1.497-0.601-1.656-0.454-0.148-4.809-2.098-2.258-4.797 2.552-2.699 1.804-0.895 1.95-2.098 0.16-1.202-0.146-4.342 0.455-4.649 0.6-0.294 1.202-1.35 0.454-1.79-0.749-0.455-3.754 0.294-4.208-0.749l-0.441-1.055s-1.804 0.896-2.699 0.748c-0.908-0.147 0.147-3.594 1.803-4.048 1.644-0.441 2.687-0.441 3.889-0.147s1.95 1.043 1.95 0.147c0-0.895-0.895-2.993-2.245-3.14-1.349-0.16-3.3-2.552-2.257-3.754 1.055-1.202 2.11-1.35 1.656-2.097-0.454-0.749-1.055-0.896-1.656-1.202-0.588-0.295 0.307-1.497 1.95-0.896 1.657 0.601 3.754 2.392 3.595 4.195-0.147 1.803 0.307 2.846 1.055 3.447s1.202-1.95 1.055-3.3c-0.16-1.349-0.908-3.3 0.748-3.888 1.644-0.601 2.392-1.35 1.938-2.098-0.441-0.76-1.496-1.656-1.043-2.257 0 0 3.448 0 3.901 2.552s0.749 3.9-0.748 6.292c-1.496 2.392-2.858 5.25-2.404 6.293m9.065-10.046c-1.337-0.074-1.938-0.515-2.466-0.736-0.527-0.233 1.276-0.834 2.392-1.35 1.129-0.527 4.048-0.38 5.03-0.306 0.969 0.073 4.563 0.527 4.87 0.38 0 0-2.846 1.276-3.828 1.57-0.969 0.295-4.649 0.515-5.998 0.442m89.093-21.614c-9.004 5.839-21.369 6.182-21.369 6.182s0.332-0.22 1.46-1.239c1.129-1.005 2.92-4.833 2.92-4.833l2.698-0.11c2.7-0.11 10.243-2.135 14.291-3.594 4.036-1.472 6.17-3.607 6.624-3.496 0.454 0.122 2.368 1.239-6.624 7.09m-29.354 16.744 0.454-0.896c0.453-0.895 0.564-4.379 0.564-4.379h1.239c1.226 0 5.054-0.908 8.88-1.693 3.816-0.785 13.936-4.722 13.936-4.722 0.785 0.785-2.024 2.809-9.102 7.433-7.09 4.6-15.971 4.257-15.971 4.257m8.317 0.797c2.146-0.797 2.257-1.803 2.146-0.797-0.11 1.018-3.717 4.048-6.415 5.3-2.699 1.226-4.834 1.336-5.398 1.336h-0.552s1.116-2.92 0.896-4.158c0 0 7.2-0.895 9.323-1.68m65.971-22.682c-2.944 0.466-3.41 0.466-3.41 0.466s-0.773 0.307-1.386 0.932c0 0 2.478 0.467 3.41 0.933s0.773 1.239 0.773 1.239-4.65-0.307-5.435 0.16c-0.772 0.465-2.944 0.306-2.011 3.876 0.932 3.57 2.17 9.15-2.012 11.947-4.195 2.797-8.231-1.864-8.845-3.57-0.625-1.704-1.705-7.752-2.33-9.15s-2.638-2.49-3.57-0.933c-0.932 1.558 0 3.717 1.399 6.98 1.398 3.263 4.49 9.777 3.57 13.187-0.945 3.422-2.798 4.343-0.626 8.378 2.17 4.036 6.673 7.606 6.673 7.606s0.466 1.239-0.466 1.546c-0.933 0.306-2.172 0.159-1.705 0.466 0.466 0.319 2.477 1.705 4.342 1.864 1.864 0.16 2.33 0 3.263-0.147l0.932-0.16s-0.16 2.785-1.558 3.717c-1.398 0.933-2.637 1.08-2.637 1.08s1.398 4.048 3.41 5.593c2.024 1.558 2.797 2.184 2.797 2.184s-1.558 2.318-4.036 2.159c-2.478-0.148-4.502-1.865-4.502-1.865s-2.478 2.024-2.797 2.956c-0.294 0.933 0.16 1.546 0.32 2.012 0.147 0.466 1.091 0.466 1.238 1.092l0.16 0.613s8.378-0.306 9.15 2.331c0.774 2.637-0.612 3.104-0.612 3.104s-0.773-1.24-1.558-1.24h-1.705s-0.16 0.307-0.626 0.614l-0.466 0.319s-2.638-2.638-4.036-2.638c-1.399 0-3.251 0-3.557 0.614-0.307 0.625-0.16 1.398-1.092 1.558-0.932 0.147-2.797 0-2.797 0s-0.147 0.773 0 1.398l0.16 0.613s-3.104-0.772-3.251-2.477c-0.16-1.706 0.454-2.172 0.92-2.172h0.466l-0.307-1.705s-3.717-0.16-4.661 0.307c-0.933 0.466-2.638 2.012-4.024 1.546-1.398-0.466-2.024-2.012-1.705-2.638l0.307-0.613-2.49 0.147s1.251-3.25 3.888-3.25c2.625 0 3.092 0.772 4.183 1.091 1.092 0.307 2.33 0.613 3.104 0.307 0.773-0.307 2.33-2.797 2.33-4.968v-2.171l-2.796-0.148 0.16-4.514s-0.774-2.478-3.104-2.784c-2.331-0.32-5.9-1.092-6.514-2.638-0.626-1.558-0.626-2.011-0.626-2.011h-2.024s-2.011-3.889-1.386-6.833 2.171-4.502 3.41-4.662l1.24-0.147s0.159-2.797-4.49-4.342c-4.662-1.558-12.267-1.865-17.542 2.784-5.275 4.662-16.756 20.327-24.202 25.147-7.446 4.809-12.095 7.287-18.302 7.9-6.207 0.626-8.072 0.16-8.072 0.16s1.546-6.526 0.773-9.152c-0.773-2.637-2.012-3.581-2.012-3.581s-0.306 6.219-0.932 7.458l-0.625 1.239s0.932 3.422 0 5.581c-0.92 2.171-4.65 3.57-6.355 3.104-1.705-0.467-3.716-0.933-3.263-0.773 0.467 0.16 0 3.263-0.772 4.502-0.773 1.239-2.957 2.944-2.957 2.944s3.73 0.16 4.355 0c0.613-0.148 2.478-3.104 5.74-2.478 3.252 0.625 4.503 1.864 4.81 3.103 0.306 1.24-0.467 1.08-1.093 0.773-0.613-0.319-2.17-0.319-2.17-0.319s-0.933 3.422-2.785 3.889c-1.865 0.466-4.036-0.307-4.355-0.932 0 0-7.127 0.625-8.525 1.238-1.399 0.626-2.172 0.933-2.172 2.478 0 1.558 1.24 3.116 0.614 4.036-0.614 0.933-1.386 0.933-2.319 0.933h-1.705s-0.319 2.024 0.307 2.49-0.626 1.239-1.864 0.466-3.104-5.287-1.399-6.673c1.705-1.399 2.637-1.865 2.637-2.957 0-1.08-0.306-2.17-0.306-2.17s-0.933-0.467-2.638-0.467-2.478-0.147-2.478 0.466c0 0.626-0.319 1.865-1.864 2.024-1.558 0.148-2.797-0.466-2.797-1.705s0.466-2.024-0.147-2.024c-0.626 0-1.558 0.32-2.024 0.932-0.466 0.614-1.24-3.103 0.319-3.876 1.545-0.773 4.183-0.307 5.581 0.626 1.386 0.932 1.705 1.08 3.104 1.226 1.398 0.172 2.797 0 2.797 0s0.613-1.693-0.479-2.625c-1.08-0.932-2.318-2.024-3.876-2.024-1.546 0-4.195 0.32-5.115-1.398-0.933-1.705 0-1.853 0.16-2.785 0.146-0.932-0.32-1.705-1.559-1.705s-0.932-1.092 0-1.558 1.399-0.773 1.399-0.773 2.011-1.239 3.25-0.613c1.252 0.613 3.264 2.319 4.502 4.797 1.24 2.49 2.49 3.888 5.128 4.82 2.637 0.92 6.047-0.466 6.673-2.796 0.613-2.331 1.08-4.662 1.08-4.662s0.932-0.773 2.011-1.693c1.092-0.944 3.263-5.593 3.57-8.071l0.319-2.49s-3.263 6.22-8.379 9.004c-5.127 2.784-5.74 1.705-5.74-3.104s2.011-16.143 3.717-19.541c1.717-3.422 3.263-4.514 4.195-6.366 0.932-1.865 0.613-3.263-0.626-2.957-1.239 0.307-2.012 1.092-3.57 0.626-1.545-0.466-2.17-1.08-2.17-1.08s4.035-1.25 5.74-2.33c1.705-1.092 2.024-1.558 2.024-1.558s-2.33-2.637-3.73-2.637c-1.397 0-2.33 0.159-3.262-0.307-0.92-0.466-3.41-0.626-4.956-0.147-1.558 0.454-2.49 1.08-2.637 0.306 0 0 2.012-4.661 6.513-4.82l4.502-0.148 0.614-0.466s-0.307-1.865 3.103-2.024c3.41-0.147 12.88-0.307 14.426-0.613 1.558-0.307 4.195-1.705 4.195-1.705s0.773 1.398 0 2.318c-0.773 0.932-2.956 2.024-3.41 2.024-0.466 0 1.705 5.74-0.466 9.004-2.171 3.25-3.876 8.525-2.956 10.856 0.932 2.33 1.864 3.103 4.036 3.41 2.17 0.307 2.956 0 2.956 0l0.307 4.809s3.717-2.478 3.57-7.287c-0.16-4.808-1.092-5.9-2.025-6.98-0.932-1.091-6.207-7.912 0.626-14.119 6.82-6.207 13.8-5.434 16.13-6.06 2.331-0.613 11.176-2.159 14.427-3.876 3.263-1.705 4.354-3.41 4.661-2.944s-2.024 4.808-4.661 6.82c-2.638 2.024-9.924 5.594-15.358 6.06l-5.422 0.466s0.932 4.183-0.467 6.048c-1.398 1.865-1.864 2.797-3.263 3.25l-1.386 0.467s1.386 6.526 0.454 11.175c-0.932 4.65-2.012 5.594-2.012 5.594s3.104-0.626 4.343-3.89c1.239-3.25 1.239-7.911 1.08-9.616-0.148-1.705 0.159-2.331 0.159-2.331s3.263-2.637 4.354-3.876c1.08-1.24 0.761-4.183 0.761-4.183l4.968-0.785s0.319 2.49-1.08 4.036c-1.398 1.557-2.637 2.33-3.103 2.49-0.466 0.147-0.307 2.944-1.398 4.502l-1.092 1.545s0.773 2.944 0.319 4.49c-0.466 1.558-1.399 3.116-1.399 3.116s3.41-2.024 3.877-4.048c0.466-2 0.625-3.092 0.625-3.092s1.705-0.772 2.172-1.864c0.466-1.08-0.467-4.036-0.467-4.036s3.251-2.171 3.717-4.968 0-2.944 0-2.944l3.889-0.307s0 3.717-1.251 5.581c-1.24 1.865-1.865 2.025-1.865 2.025s0.479 2.944-0.147 4.33c-0.626 1.41-1.865 1.717-1.865 1.717s-0.16 2.171-0.932 3.41c-0.773 1.251-1.239 2.024-1.239 2.024s13.812-5.9 19.86-10.562c6.048-4.649 15.358-13.334 21.565-12.88 6.207 0.478 8.538 1.251 11.016 3.889 2.49 2.637 3.41 4.502 4.342 3.41 0.932-1.08 0.16-2.797-0.466-5.422-0.614-2.638-4.65-9.777 0.319-12.267 4.955-2.478 7.912 0.785 8.832 5.74 0.932 4.969 1.398 7.913 3.57 8.38 2.17 0.478 3.888-1.546 4.195-3.41 0.306-1.865 0-3.41-1.399-4.65-1.398-1.239-4.968-6.673-0.625-11.948 4.354-5.275 14.891-3.422 16.756-4.036 1.864-0.625 2.33-0.625 2.33-0.625s-0.625 2.33-2.943 3.57c-2.331 1.238-3.423 1.716-3.423 1.716s2.49 0.614 3.116 0.307l0.613-0.307s-1.705 2.16-4.661 2.626m-112.59 19.038c0-0.896 0.073-1.423 0.073-1.423s-2.245 0.527-3.3 0.527c-1.054 0-2.024-0.674-2.845-0.6-0.822 0.073-1.816 0.465-2.331 1.545 0 0 2.466 3.827 4.943 3.57 2.466-0.258 3.46-2.724 3.46-3.62m-1.95 0.234s-0.823 1.644-1.644 1.864c-0.835 0.233-1.656 0.074-2.024-0.441-0.38-0.528-0.602-0.982-0.602-0.982s0.675-0.748 1.718-0.6c1.055 0.159 1.435 0.38 2.097 0.232 0.687-0.147 0.454-0.073 0.454-0.073" fill="#006eb8" stroke-width=".318"/>
 <use transform="translate(-138.29 221.83)" x="484.072" y="196.198" width="100%" height="100%" fill="#006eb8" xlink:href="#s"/>
</svg>
