<?xml version="1.0"?>
<svg width="200" height="200" viewBox="0 0 956 890" xmlns="http://www.w3.org/2000/svg">
<path d="m223.8 1.1h19.01c35.57 1.26 70.77 7.18 105.7 13.52 39.94 7.29 79.61 16.25 119.9 21.44 18.23 2.16 36.7 4.15 55.02 1.86 46.07-5.03 91.62-14.36 137.9-17.86 21.3-1.9 42.67-.36 64 .16 24.52.88 49.08 1.54 73.53 3.72 7.89.85 15.91 1.54 23.51 3.98 10.47 4.03 20.68 9.56 28.27 17.99 8.07 8.66 12.75 19.71 17.47 30.41 16.41 38.07 27.01 78.34 35.42 118.8 3.73 18.38 6.31 37.09 5.92 55.88-.4 18.29-2.16 36.52-4.13 54.71 21.67 21.96 35.98 50.5 43.08 80.38 3.49 14.25 4.96 28.89 6.02 43.5.27 5.44.11 10.13 0 14.89-1.77 29.89-3.76 59.78-7.69 89.47-3.52 27.51-7.99 54.9-13.87 82-.67 3.12-1.43 6.38-3.52 8.9-3.79 4.98-10.79 7.06-16.71 5.15-4.88-1.72-8.51-5.63-12.92-8.19-54.55-35.18-120.5-53.12-185.4-48.38-25.18 1.39-50.38 4.01-74.97 9.77-16.57 3.78-32.6 9.52-48.48 15.49-15.08 5.66-30.61 10.42-46.66 12.31-24.18 2.94-48.73 1.46-72.7-2.56-23.31-3.84-46.11-10.09-69.11-15.35-19.67-4.43-39.81-8.34-60.08-6.85-20.27 1.33-40.57 3.21-60.45 7.53-14.48 3.18-28.84 7.69-41.74 15.12 8.04 31.45 16.07 62.91 24.11 94.37 21.37 5.74 43.39 10.05 63.39 19.87 13.69 6.66 25.94 17.03 32.91 30.74 9.25 17.8 10.25 38.49 9.03 58.14-.92 12.12-2.65 24.69-8.93 35.33-3.96 6.87-11.19 12.1-19.3 12.22-9.78.68-18.51-5.82-23.37-13.86-8.79-14.47-10.66-31.99-10.17-48.6.13-5.77-.24-12.44-4.9-16.53-5.88-4.96-13.72-6.46-20.94-8.42 5.67 20.95 12.44 41.58 18.08 62.53 2.65 10.2 5.4 20.65 4.77 31.28-.39 7.68-4.56 15.36-11.58 18.87-4.6 2.57-9.07 3.05-13.81 3.94-1.32.25-5.17-.02-5.93-.21-4.53-1.08-10.27-2.44-14.43-6.16-9.97-8.43-14.33-21.35-17.47-33.6-8.39-30.77-16.6-61.59-24.83-92.4-.07-1.67-1.68-2.09-2.97-2.51-17.29-6.09-34.32-13.92-48.37-25.89-11.12-9.43-19.82-21.74-24.63-35.52-7-20.03-7.6-42.7.65-62.45 6.72-16.94 18.94-30.71 29.64-45.18-42.78-161.3-85.59-322.5-128.2-483.8-11.16-1.6-22.63-5.66-30.17-14.44-6.77-7.67-10.63-17.69-11.34-27.86-.04-2.02-.07-4.04 0-6.13 1.01-14.83 9.91-28.44 22.51-36.11 11.23-6.88 24.34-10.59 37.44-11.4 12.36-.75 25.37 3.53 33.47 13.21 42.29-9.87 85.5-16.17 128.9-17.23" fill="#fff"/>
<path d="m189.7 648.1c-3.75 10.47-4.67 22.61.55 32.75 5.8 11.51 17.13 18.87 28.53 24.04-6.62-25.14-13.34-50.27-19.99-75.41-3.51 5.96-6.83 12.07-9.09 18.62zm502.6-323.8c-27.9 5.67-55.75 11.62-83.83 16.32-18.59 3.05-37.29 5.7-56.12 6.37-25.64.67-51.02-3.89-76.07-8.82-24.53-4.91-49.04-10.09-73.9-13.05-25.54-3.15-51.36-3.82-77.03-2.22-37.41 2.32-74.61 8.61-110.5 19.32 5.87 30.79 12.15 61.55 16.19 92.66 2.03 14.94 2.08 30.05 2.34 45.1.11 27.1-.53 54.2-1.35 81.29 29.12-10.71 59.23-19.52 90.18-22.7 18.3-2.06 36.66.68 54.62 4.11 28.29 5.43 56.23 12.55 84.62 17.42 21.88 3.64 44.29 6.63 66.43 3.54 25.99-3.67 50.34-13.95 75.39-21.28 23.79-7.22 48.31-12.15 73.11-14.1 42.81-3.34 85.96.5 128 8.8 30.34 6.13 60.34 14.37 89.13 25.81 6.46-38.89 11.3-78.31 9.96-117.8-1.37-22.88-4.64-45.82-11.74-67.67-4.47-13.21-10.44-26.39-20.35-36.44-7.51-7.82-17.92-11.74-27.87-15.43-29.21-9.94-60.5-13.22-91.21-11.23-20.23 1.72-40.09 6.1-59.98 9.99m-591.8-198.2c33.06 129.6 66.55 259 99.68 388.6 2.23-49.75-2.96-99.73-14.13-148.2-4.43-19.55-10.35-38.72-16-57.94-7.58-25.56-15.36-51.06-23.83-76.33-12.45-36.45-25.57-73.09-45.72-106.1m42.49-101.8c32.23-5.27 64.87-8.49 97.55-7.91 21.6.39 43.07 3.16 64.41 6.31 43.48 6.52 86.38 16.25 129.7 23.7 24.07 4.03 48.34 7.6 72.79 7.86 24.05-.84 47.8-5.06 71.57-8.43 35.67-5.15 71.41-11.18 107.5-11.5 36.13 1.13 72.31 1.74 108.4 4.57 9.24 1.06 18.98 1.18 27.43 5.53 6.76 3.02 13.2 7.09 17.99 12.8 4.83 5.55 7.98 12.27 11.04 18.9 15.16 33.58 25.48 69.13 33.54 105 5.33 23.26 9.95 46.95 9.29 70.93-.59 19.93-2.59 39.8-4.95 59.59 12.81 11.15 22.7 25.33 30.45 40.35 14.73 28.86 20.34 61.75 19.06 93.96-2.27 56.94-9.43 113.7-21.4 169.4-22.69-16.59-48.13-29.19-74.45-38.87-38.12-13.88-78.92-20.63-119.5-18.87-28.19 1.2-56.42 3.76-84.01 9.85-18.07 3.9-35.57 9.94-52.83 16.47-15.15 5.73-30.8 10.51-46.97 12.13-27.5 2.95-55.27-.26-82.21-5.94-27.76-5.69-54.95-14.11-83.07-17.95-11.87-1.6-23.91-2.11-35.85-1.07-23.66 1.65-47.41 4.17-70.38 10.3-16.1 4.37-31.98 10.63-45.39 20.74 9.67 37.84 19.37 75.67 28.99 113.5 19.94 5.68 40.42 9.58 59.88 16.88 13.32 5.02 26.36 12.9 33.8 25.43 6.56 10.8 8.85 23.62 9.28 36.09.21 12.7-.07 25.66-3.79 37.91-1.67 4.78-3.97 10.6-9.32 12.14-5.23.86-9.01-3.91-11.31-7.93-6.56-12.22-7.43-26.54-7.07-40.15.2-9.9-2.53-20.63-10.39-27.23-9.05-7.64-21.01-10.12-32.23-12.77-6.58-1.46-13.19-2.8-19.76-4.29 7.1 28.71 16.18 56.86 24.14 85.34 2.21 8.48 4.7 17.06 4.8 25.89.09 3.26-.78 7.41-4.28 8.59-3.28.89-6.68 1.47-10.07 1.51-4.58-.28-8.22-3.64-10.65-7.27-5.02-7.44-6.93-16.34-9.3-24.85-8.86-32.66-17.59-65.36-26.31-98.06-16.81-5.52-33.71-11.81-48.17-22.26-10.74-7.72-19.64-18.23-24.55-30.58-7.1-17.8-7.76-38.51.19-56.15 7.34-17.41 21.32-30.65 31.16-46.51-44.33-166.8-88.49-333.5-132.6-500.4-9.51-1.39-19.9-1.66-27.84-7.8-12.16-9.84-14.06-29.64-4.21-41.75 6.33-8.16 16.19-12.52 25.94-15.05 8.56-2.23 18.02-3.46 26.42.03 5.77 2.35 10.16 7.51 11.79 13.51 18.38-4.81 37.02-8.58 55.75-11.72"/>
<path d="m608 390.8c5.38-1.31 10.97-.93 16.46-.79 4.65.19 9.65.75 13.44 3.73 2.83 2.23 4.24 5.77 4.77 9.25 2.08 22.27 9.32 43.58 14.77 65.16 3.28 13.17 7.05 26.35 8.03 39.95.64 3.54-1.76 7.41-5.06 8.65-4.08.34-7.92-1.7-11.98-1.9-5.76-.86-10.98 2.14-16.21 4.01-6.37 1.96-13.11 5.31-19.87 3.31-7.23-2.49-10.78-10.08-13.01-16.84-3.96-13.15-6.13-27.92-.61-40.96 3.3-8.42 11-13.68 16.89-20.15 3.51-3.8 7.42-7.55 9.38-12.45 1.72-4.68-2.12-9.2-6.26-10.86-2.92-1.26-7.44-2.19-9.3 1.17-2.48 4.95-2.53 10.64-4.18 15.85-1.45 4.36-6.56 6.06-10.74 5.95-2.9-.73-3.74-4.06-4.21-6.6-1.43-10.66-.88-21.86 3.64-31.77 2.78-6.24 6.91-13.03 14.05-14.71m21.91 74.67c-3.5 1.96-4.89 6.12-6.06 9.72-1.27 5.06-3.05 10.6-1.18 15.72 1.79 3.69 7.29 2.74 9.3-.27 4.17-5.69 2-13.08 2.1-19.56-.24-2.27-1.04-6.56-4.16-5.61zm-194.1-77.97c2.57-1.35 5.8-.48 7.57 1.76 3.71 4.44 4.64 10.75 3.36 16.29-1.32 6.56-1.96 13.75 1.21 19.9 2.64 5.91 7.72 11 8.05 17.74-.01 4.14-4.76 5.14-7.97 5.73-2.37.37-5.95 1.92-7.17-1.16-2.88-7.27-.83-15.28-1.66-22.84-.82-5.53-7.88-8.55-12.58-5.82-3.09 2.67-3.05 7.21-3.23 10.97.22 11.19 1.69 22.46 5.21 33.12 4.94 14.22 11.87 27.86 14.58 42.78.78 6.06 1.19 12.42-.39 18.38-.87 3.55-5.07 5.26-8.26 3.57-8.03-3.58-12.92-11.71-15.19-19.91-4.77-16.89-8.08-34.14-11.11-51.41-2.44-13.99-6-27.74-9.37-41.52-1-4.29-2.62-8.6-2.02-13.08.56-5.44 4.42-10.44 9.62-12.2 3.14-.79 5.47 1.92 7.75 3.58 2.22 1.9 5.23 3.11 8.16 2.34 5.37-1.1 8.69-5.92 13.44-8.22zm-85.9-10.7c9.81-2.78 21.92-.8 28.68 7.37 3.32 3.88 4.67 8.94 6.1 13.72 2.24 8.29 4.9 16.54 5.59 25.14.92 9.09-.42 18.17-1.13 27.23-.21 2.67-1.11 5.57-3.46 7.12-4.82 3.22-11.57-.13-16.03 3.9-3.86 3.61-3.51 9.47-2.82 14.27.85 5.14 2.55 11.2 7.73 13.56 2.95 1.27 7.65 1.76 9.11-1.86 2.16-6.12.84-13.05 3.76-18.97.64-1.56 2.33-2.77 4.07-2.34 4.44.88 8.23 4.21 9.52 8.57 2.66 8.89 3.45 18.68.06 27.5-1.94 4.64-2.45 10.78-7.33 13.42-5.38 2.55-11.54 1.25-17.28 1.9-4.69.55-9.68-.63-13.15-3.96-5.97-5.7-9.9-13.26-12.21-21.12-5.87-19.47-7.52-39.85-9.03-60.04-.86-12-1.6-24.03-1.65-36.07.14-4.63.17-9.52 2.3-13.76 1.41-2.84 4.31-4.5 7.17-5.58m15 33.74c-2.77 1.02-2.1 4.31-2.12 6.62.16 3.76.08 8.04 2.64 11.09 2.14 2.04 5.19-.62 5.24-3.05.5-4.47.78-9.22-.75-13.52-.74-2.19-3.33-2.39-5.01-1.14zm141.3-46.64c2.3-6.66 11.75-9.11 17.05-4.58 3.74 3.58 4.91 8.87 6.08 13.72 2.63 12.5 4.65 25.11 6.73 37.71 7.15-.01 14.3-.58 21.45-.91 3.08-.02 6.61 0 9.02 2.23 2.18 2.15 3.01 5.23 3.91 8.07 5.41 18.53 8.61 37.59 12.7 56.43 2.74 13.54 6.08 26.94 8.92 40.45.5 3.63 1.83 7.87-.4 11.19-2.43 2.5-6.02 3.41-9.26 4.38-4.16.93-7.81-2.16-9.85-5.45-4.54-7.29-6.4-15.8-8.53-24.01-3.13-14.45-2.97-29.33-4.26-44-.62-7.62-1.58-15.73-6.22-22.08-1.67-2.32-5.02-4.52-7.75-2.54-2.98 2.21-3.43 6.3-3.63 9.73-.29 10.8 4.75 20.64 7.32 30.9 3.34 12.39 4.98 25.14 6.58 37.85.66 6.36 1.56 13.06-.67 19.23-1.78 5.1-6.64 8.57-11.76 9.75-2.47.6-5.3.01-6.98-1.97-3.08-3.59-3.78-8.48-4.6-12.97-3.87-25.99-7.69-51.98-11.43-77.99-2.64-19.97-8.12-39.38-13.09-58.86-1.9-8.53-4.4-17.73-1.33-26.28zm-42.6-9.8c1.4-1.8 4.22-2.9 6.21-1.36 2.07 1.72 3.09 4.33 4.29 6.68 2.27 5.11 4.97 10.11 6.29 15.59 1.74 6.45 1.87 13.21 3.69 19.65.78 3.14 3.72 4.98 6.4 6.41 4.9 2.61 10.52 4.41 14.24 8.75 3.38 3.89 3.39 9.89.76 14.18-3.38 5.63-9.03 9.39-14.74 12.36.95 16 2.84 31.97 6.19 47.65 1.75 8.34 5.75 15.95 8.62 23.93 3.97 10.71 10.25 20.32 16.1 30.06 1.27 2.36 3.49 5.84 1.05 8.17-2.88 2.23-6.79 2.07-10.23 2.37-5.05.11-10.71.68-14.99-2.54-3.83-2.94-6.12-7.32-8.51-11.4-3.85-6.79-7.8-13.67-9.64-21.33-2.24-9.3-2.99-18.88-4.45-28.31-2.61-17.27-5.08-34.56-7.3-51.88-5.38-1.53-10.95-4.11-13.96-9.07-1.74-3.06-2.7-7.27-.55-10.38 2.94-4.33 7.61-7.03 12.05-9.59-1.67-11.69-3.37-23.38-4.86-35.09-.68-5.1.01-10.75 3.34-14.85zm-163.6-12.3c3.85-.31 8.53-1.72 11.79 1.06 2.28 2.9 2.06 6.88 2.78 10.32 9.73 48.79 17.69 97.92 26.64 146.8.69 3.98 1.96 7.92 1.88 11.99-.04 3.06-3.29 4.18-5.72 4.87-4.43 1.1-9.23 2.9-13.74 1.2-4.19-1.74-5.58-6.52-6.69-10.51-6.98-24.04-8.91-49.16-14.58-73.49-1.21-4.32-2.78-9.97-7.82-11.08-4.27-.61-8.6.47-12.7 1.62-3.95 1.29-5.99 5.52-6.17 9.44-.55 8.6 2.39 16.84 4.13 25.13 3.5 16.53 6.02 33.25 9.26 49.83.77 4.59 2.25 9.55.46 14.07-1.61 3.32-5.83 3.17-8.92 3.95-3.68.79-8.5 1.8-11-1.88-4.51-6.54-6.47-14.43-8.53-22-5-20.14-8.7-40.57-13.12-60.84-5.31-24.43-9.39-49.17-11.3-74.11-.24-4.37-.73-9.24 1.81-13.07 2.59-3.46 7.22-3.94 11.09-5.01 3.57-.78 7.67-2.14 11.04-.04 3.1 2.37 3.48 6.63 4.36 10.16 2.05 10.98 3.29 22.12 5.79 33.02.66 2.36 1.24 4.95 3.03 6.74 1.93 1.67 4.58.47 6.83.34 3.18-.58 7.24.3 9.47-2.65 2.5-3.66 1.65-8.37 1.76-12.54.21-9.79-1.98-19.38-4.01-28.89-.75-3.47-1.34-7.7 1.27-10.56 2.84-2.88 7.13-3.28 10.91-3.92zm459.1-1c7.42-1.39 15.73-1.96 22.45 2.15 10.08 6.15 15.46 18.53 14.53 30.12-.23 4.62-.1 10.37-4.28 13.37-2.5 1.5-6.43 2.6-8.71.22-1.74-2.73-2.62-5.94-4.72-8.46-2.93-3.52-2.3-8.99-5.86-12.01-4.52-2.17-12.31-.05-12.22 5.94.26 8.54 4.34 16.43 8.67 23.61 10.84 17.4 25.72 31.73 37.73 48.26 7.12 9.78 12.81 21.02 13.99 33.22.99 9.47-.07 19.97-6.43 27.52-5.95 7.19-15.61 9.96-24.63 10.11-7.64.14-16.08-.62-22.12-5.81-5.46-4.81-7.68-12.06-9.44-18.87-1.69-6.34-2.81-13.33-.22-19.59 1.57-3.95 5.17-7.55 9.66-7.51 4.23-.24 7.78 2.91 9.58 6.49 2.37 4.22 2.58 9.17 4.22 13.65 1.56 4.03 6.45 4.94 10.26 5.15 4.51-.95 5-6.62 4.51-10.35-1.53-10.39-7.61-19.38-13.84-27.56-11.26-14.32-24.33-27.18-34.87-42.08-7.42-10.56-9.54-23.67-10.73-36.24-.73-7.06.18-14.65 4.38-20.57 4.16-5.98 11.1-9.35 18.09-10.76zm-68.6.4c7.58-2.07 16.42-4.23 23.58.23 8.42 5.33 11.19 15.86 12.21 25.18 1.2 15.32-.36 30.9-4.47 45.71 8.21.54 15.74 5.29 20.43 11.94 6.6 9.24 8.8 20.79 9.56 31.91.79 12.59-.36 26.04-7.26 36.94-5.11 8.2-13.66 13.81-22.87 16.35-12.08 3.34-24.96 3.19-37.14.48-3.32-28.59-6.65-57.19-10.71-85.69-2.57-19.82-7.6-39.59-17.26-57.21-.28-6.3-.03-12.62-.1-18.93 11.46-1.6 22.93-3.53 34.03-6.91m0 28.13c-1.4 7.2-2.21 14.61-1.49 21.94.7 6.31 1.65 13.29 6.35 18 5.95-5.2 6.52-13.78 6.53-21.14-.19-5.63.72-11.41-.6-16.93-2.03-3.9-7.33-3.27-10.79-1.87m17.41 64.45c-3.22.49-5.26 3.45-5.88 6.45-1.45 6.5-.96 13.23-.72 19.84.43 4.96.63 10.31 3.43 14.61 2.74 4.05 9.33 3.85 12.19.02 4.23-5.53 4.88-12.82 5.51-19.52.35-6.75.25-14.39-4.23-19.89-2.54-3.14-6.89-2.23-10.3-1.51zm131.2-95.98c7.38-1.78 15.43.59 20.75 5.99 8.9 8.74 12.22 21.29 14.83 33.1.87 5.07 2.02 11.34-1.91 15.45-3.09 2.91-9.23 4.75-12 .5-3.4-5.39-4.1-12.07-7.6-17.41-2.38-2.38-6.84-2.36-9.19.07-2.65 2.55-3.91 6.14-4.85 9.6-2.52 10.46-2.14 21.35-1.28 32 1.61 19.21 6.95 38.27 16.83 54.9 2.27 3.47 4.78 7.44 8.95 8.78 3.22.87 5.8-2.04 7.1-4.63 3.2-5.6 2.48-12.52 5.6-18.13 2.07-3.51 6.94-2.41 9.69-.35 4.68 3.46 5.88 9.64 6.68 15.06 1.29 12.16 1.64 24.93-3.02 36.48-2.81 7.08-7.54 14.14-14.93 16.96-7.26 2.69-15.58-.02-20.89-5.38-7.27-7.23-11.65-16.68-16.38-25.63-5.19-9.82-10.15-19.82-13.69-30.37-8.28-23.95-11.07-49.45-11.32-74.68.13-12.51 1.37-25.5 7.23-36.78 3.88-7.59 10.86-13.89 19.4-15.53zm-612.5-287c-39.99 2.93-79.94 8.28-118.8 18.27 23.88 27.05 44.43 57.21 59.76 89.92 5.8 12.54 10.6 25.52 15.38 38.48 13.13 36.38 24.6 73.36 35.05 110.6 31.13-7.95 62.76-14.04 94.71-17.51 24.56-2.55 49.46-3.63 73.99-.28 24.81 3.12 49.32 8.18 73.78 13.29 23.48 4.81 47.08 9.78 71.09 10.9 22.26 1.15 44.32-2.84 66.12-6.85 41.57-7.96 82.87-17.62 124.9-22.71 28.18-3.48 56.69-4.4 85.02-2.54 18.13 1.45 36.53 3.61 53.6 10.25.9-25.91.01-51.9-2.8-77.68-3.61-35.18-12.35-69.86-26.48-102.3-6.18-13.95-13.05-27.71-21.87-40.18-6.02-1.92-12.38-2.58-18.59-3.68-47.05-6.98-95-5.72-142.1.34-25.51 2.89-50.9 6.74-76.33 10.24-21.42 2.95-43 4.47-64.6 5.07-27.54 1.14-54.88-3.39-81.94-7.94-42.71-7.43-85.09-16.81-128.1-22.56-23.79-3.12-47.88-5.17-71.86-3.14" fill="#004d9e"/>
</svg>
