<?xml version="1.0" encoding="UTF-8" standalone="no"?>
<svg
   xmlns:dc="http://purl.org/dc/elements/1.1/"
   xmlns:cc="http://creativecommons.org/ns#"
   xmlns:rdf="http://www.w3.org/1999/02/22-rdf-syntax-ns#"
   xmlns:svg="http://www.w3.org/2000/svg"
   xmlns="http://www.w3.org/2000/svg"
   xmlns:sodipodi="http://sodipodi.sourceforge.net/DTD/sodipodi-0.dtd"
   xmlns:inkscape="http://www.inkscape.org/namespaces/inkscape"
   width="76.853622mm"
   height="91.28125mm"
   viewBox="0 0 76.853622 91.28125"
   version="1.1"
   id="svg7507"
   inkscape:version="1.0.1 (3bc2e813f5, 2020-09-07)"
   sodipodi:docname="logo-desktop-3_2ce15e97.svg">
  <defs
     id="defs7501" />
  <sodipodi:namedview
     id="base"
     pagecolor="#ffffff"
     bordercolor="#666666"
     borderopacity="1.0"
     inkscape:pageopacity="0.0"
     inkscape:pageshadow="2"
     inkscape:zoom="0.35"
     inkscape:cx="-100.42857"
     inkscape:cy="105.39143"
     inkscape:document-units="mm"
     inkscape:current-layer="layer1"
     inkscape:document-rotation="0"
     showgrid="false"
     inkscape:pagecheckerboard="true"
     inkscape:window-width="1366"
     inkscape:window-height="705"
     inkscape:window-x="-8"
     inkscape:window-y="-8"
     inkscape:window-maximized="1" />
  <metadata
     id="metadata7504">
    <rdf:RDF>
      <cc:Work
         rdf:about="">
        <dc:format>image/svg+xml</dc:format>
        <dc:type
           rdf:resource="http://purl.org/dc/dcmitype/StillImage" />
        <dc:title></dc:title>
      </cc:Work>
    </rdf:RDF>
  </metadata>
  <g
     inkscape:label="Layer 1"
     inkscape:groupmode="layer"
     id="layer1"
     transform="translate(-132.40506,-120.28185)">
    <path
       class="st0"
       d="m 173.17418,209.23271 -2.33035,2.33039 -2.35517,-2.33039 c -1.38829,-1.37591 -2.52869,-2.16923 -3.68149,-2.66504 -1.16519,-0.50822 -2.44193,-0.75614 -3.99138,-0.95446 -2.24363,-0.29749 -4.49962,-0.8305 -6.45811,-2.14444 -1.48749,-0.99166 -2.72702,-2.33039 -3.55752,-4.21449 -2.0701,-0.14899 -3.79309,-0.86771 -5.25578,-1.95854 -1.95849,-1.42549 -3.29721,-3.40878 -4.32604,-5.40448 -0.76856,-1.46268 -1.45032,-2.73943 -2.3056,-3.76825 -0.81808,-0.95446 -1.88414,-1.79737 -3.56994,-2.59068 l -2.93774,-1.38833 1.31394,-2.98732 c 0.75611,-1.72298 1.11558,-3.09891 1.20235,-4.40044 0.0867,-1.31394 -0.0867,-2.57832 -0.44601,-4.0038 -0.60736,-2.50388 -0.55779,-5.34249 0.42164,-7.98275 0.60742,-1.61143 1.53705,-3.12369 2.8634,-4.41284 -0.39681,-2.09488 -0.12415,-4.02859 0.5578,-5.77636 0.89248,-2.256 2.44193,-4.10295 4.14013,-5.59042 v 0.014 c 1.128,-1.00403 2.02048,-1.93372 2.67745,-3.0493 0.65697,-1.09084 1.16519,-2.42957 1.52468,-4.2641 l 0.63213,-3.2105 3.21051,0.55783 c 1.90888,0.32232 3.33438,0.32232 4.56155,0.0744 1.23959,-0.26047 2.42958,-0.79329 3.81787,-1.52466 1.98328,-1.04122 4.1525,-1.90888 6.55723,-1.98327 1.80981,-0.0745 3.63193,0.32232 5.40452,1.38829 a 9.4541281,9.4541281 0 0 1 5.3921,-1.38829 c 2.39234,0.0744 4.56156,0.95445 6.55725,1.98327 1.3883,0.71895 2.57827,1.26437 3.80545,1.52466 1.23959,0.23566 2.65267,0.23566 4.5616,-0.0744 l 3.21045,-0.55783 0.63219,3.2105 c 0.35933,1.83453 0.8553,3.17326 1.52463,4.26405 0.65698,1.11563 1.54946,2.0329 2.67745,3.04935 v -0.014 c 1.6982,1.48747 3.26008,3.33442 4.14015,5.59042 0.68174,1.74777 0.95446,3.68148 0.55783,5.77636 a 12.091912,12.091912 0 0 1 2.86334,4.41284 c 0.97926,2.64026 1.02888,5.47887 0.42165,7.98275 -0.35934,1.42548 -0.54537,2.70227 -0.44601,4.0038 0.0744,1.30153 0.44601,2.67746 1.2024,4.40044 l 1.31395,2.98732 -2.93781,1.38833 c -1.68578,0.79331 -2.75179,1.63622 -3.56992,2.59068 -0.85529,1.02882 -1.53706,2.30557 -2.30557,3.76825 -1.04123,2.00811 -2.36754,3.97899 -4.32608,5.40448 -1.46264,1.07843 -3.19804,1.80979 -5.25572,1.95854 -0.8305,1.8841 -2.07006,3.22283 -3.55752,4.21449 -1.95855,1.31394 -4.21454,1.83453 -6.45812,2.14444 -1.54945,0.19817 -2.82619,0.43382 -3.99139,0.95446 -1.15278,0.49581 -2.3056,1.28913 -3.68148,2.66504 z"
       id="path7429"
       style="fill:#004899;stroke-width:1.23956" />
    <path
       class="st1"
       d="m 171.73633,207.78244 -0.90491,0.90486 -0.91727,-0.90486 c -1.56182,-1.56188 -2.92537,-2.50392 -4.28888,-3.09891 -1.37594,-0.6074 -2.81379,-0.86769 -4.54918,-1.10321 -1.97093,-0.26049 -3.94178,-0.70653 -5.59042,-1.80975 -1.46268,-0.97926 -2.64026,-2.40474 -3.26003,-4.54919 -2.24362,0.13634 -4.02858,-0.49581 -5.47886,-1.56187 -1.63622,-1.20235 -2.80142,-2.93775 -3.71868,-4.69793 -0.81814,-1.5866 -1.54945,-2.96253 -2.56591,-4.1525 -0.97924,-1.1652 -2.28077,-2.18165 -4.25168,-3.12369 l -1.128,-0.54543 0.49582,-1.14037 c 0.86769,-1.97091 1.30151,-3.56992 1.38833,-5.09461 0.1115,-1.52466 -0.1115,-2.98735 -0.50822,-4.62357 -0.50823,-2.14445 -0.48344,-4.56155 0.34715,-6.78038 0.61978,-1.66101 1.67342,-3.19806 3.23524,-4.41286 -0.65698,-2.11962 -0.49581,-4.04096 0.18599,-5.75153 0.74374,-1.89651 2.09489,-3.48318 3.58236,-4.79711 1.27674,-1.128 2.29313,-2.19401 3.08648,-3.49555 0.78095,-1.30157 1.35111,-2.82619 1.77256,-4.94585 l 0.23565,-1.2396 1.25197,0.21083 c 2.18163,0.37199 3.83023,0.35934 5.29291,0.0618 1.47511,-0.28531 2.81383,-0.90484 4.36329,-1.69819 0.90485,-0.48339 1.84694,-0.91726 2.86334,-1.23955 1.04123,-0.34714 2.10729,-0.54542 3.19809,-0.533 0.97926,0 1.98329,0.19817 2.98732,0.63219 0.65697,0.28531 1.32635,0.68175 1.97091,1.18997 1.74778,-1.40071 3.55757,-1.88414 5.33011,-1.82216 2.00812,0.0618 3.90464,0.84292 5.66482,1.76018 1.54945,0.7933 2.88818,1.41308 4.35083,1.6982 1.47509,0.2975 3.12369,0.32234 5.30533,-0.0618 l 1.25196,-0.21082 0.23565,1.23955 c 0.42164,2.10724 0.99167,3.64433 1.77255,4.94585 0.78095,1.30154 1.80976,2.36755 3.08654,3.49554 1.48747,1.31394 2.85098,2.88818 3.58231,4.79711 0.68175,1.72299 0.84291,3.63191 0.18599,5.75158 1.56187,1.21476 2.61547,2.7518 3.23524,4.41286 0.8305,2.21879 0.85533,4.63593 0.34716,6.78039 -0.409,1.63621 -0.61978,3.09885 -0.50823,4.62352 0.0866,1.52468 0.50823,3.1237 1.38834,5.09461 l 0.49581,1.14041 -1.128,0.54538 c -1.98328,0.92969 -3.27244,1.9585 -4.25169,3.12369 -1.00403,1.18998 -1.74777,2.57832 -2.5659,4.15255 -0.91726,1.76019 -2.08245,3.49554 -3.71868,4.69794 -1.46269,1.06601 -3.23524,1.6982 -5.47887,1.56182 -0.63214,2.14444 -1.79733,3.56993 -3.26002,4.54919 -1.63622,1.10321 -3.6195,1.54945 -5.59042,1.80979 -1.7354,0.223 -3.17326,0.49581 -4.54918,1.10316 -1.35114,0.60741 -2.70223,1.54945 -4.27647,3.11133 z"
       id="path7431"
       style="fill:#ffffff;stroke-width:1.23956" />
    <path
       class="st0"
       d="m 170.83142,205.08021 c 1.45028,-1.31395 2.789,-2.16923 4.15255,-2.77663 1.661,-0.71895 3.29723,-1.04124 5.25572,-1.30154 1.63622,-0.21082 3.23525,-0.57021 4.48721,-1.40071 1.1652,-0.78093 2.04526,-2.02047 2.40473,-4.04095 l 0.22301,-1.27675 1.26437,0.22301 c 2.03286,0.34715 3.55752,-0.11151 4.73513,-0.96689 1.26433,-0.91726 2.19402,-2.33038 2.95012,-3.79302 0.89249,-1.72299 1.6982,-3.23529 2.87581,-4.636 1.00403,-1.18997 2.28077,-2.25599 4.02855,-3.22283 -0.69413,-1.77259 -1.04124,-3.33442 -1.14037,-4.82189 -0.12415,-1.79738 0.13634,-3.49558 0.60736,-5.42929 0.409,-1.66101 0.39681,-3.55753 -0.26048,-5.26814 -0.53306,-1.41313 -1.51231,-2.72702 -3.06176,-3.70627 l -0.92963,-0.5702 0.42164,-1.02887 c 0.78088,-1.82212 0.70654,-3.42119 0.16116,-4.80948 -0.55784,-1.45027 -1.66105,-2.71464 -2.87581,-3.79308 -1.48748,-1.31389 -2.66509,-2.56585 -3.59472,-4.10294 -0.78093,-1.26433 -1.37592,-2.72702 -1.83458,-4.58633 -1.94609,0.23565 -3.54515,0.186 -5.02021,-0.12415 -1.77255,-0.35933 -3.30964,-1.04123 -5.05741,-1.9585 -1.46268,-0.76857 -3.01213,-1.40072 -4.53677,-1.46269 -1.42553,-0.0496 -2.913,0.43383 -4.35085,1.88411 l -0.90491,0.90489 -0.91727,-0.90489 c -0.69417,-0.69413 -1.38829,-1.16516 -2.08246,-1.46265 -0.65696,-0.28532 -1.3263,-0.42165 -1.98327,-0.42165 -0.79336,-0.014 -1.59908,0.13633 -2.37997,0.39681 -0.81813,0.27266 -1.63621,0.64461 -2.45434,1.06607 -1.73537,0.91727 -3.27245,1.59902 -5.04501,1.9585 -1.47509,0.2975 -3.07412,0.35933 -5.0202,0.12415 -0.47108,1.85931 -1.05364,3.30958 -1.83458,4.58633 -0.92968,1.53709 -2.10725,2.78905 -3.59472,4.10294 -1.21475,1.09086 -2.31797,2.35518 -2.87576,3.79308 -0.54542,1.38829 -0.61977,2.98736 0.14852,4.80948 l 0.43382,1.02887 -0.92968,0.5702 c -1.54947,0.97925 -2.52871,2.29314 -3.06171,3.70627 -0.64456,1.72298 -0.65698,3.6195 -0.26049,5.26814 0.47103,1.93371 0.70653,3.63191 0.6074,5.42924 -0.1115,1.48748 -0.44647,3.04935 -1.1404,4.82189 1.74776,0.96689 2.99973,2.03291 4.02859,3.22288 1.17756,1.40071 1.98328,2.92538 2.87575,4.63596 0.75611,1.46268 1.68579,2.87576 2.93776,3.79306 1.18998,0.85529 2.71465,1.3139 4.74754,0.96684 l 1.26433,-0.22301 0.223,1.27676 c 0.35935,2.02048 1.25192,3.26006 2.40474,4.04095 1.25196,0.8305 2.85098,1.18998 4.48721,1.4007 1.94608,0.26049 3.5947,0.57022 5.25571,1.30159 1.36352,0.60736 2.70224,1.47505 4.16492,2.77658 z"
       id="path7433"
       style="fill:#004899;stroke-width:1.23956" />
    <path
       class="st1"
       d="m 164.99307,156.81169 c -0.54537,0.47103 -0.88006,1.06602 -0.96683,1.6982 -0.0745,0.60741 0.0744,1.20241 0.47103,1.67342 0.19817,0.23566 0.42165,0.409 0.69417,0.53302 0.27267,0.13632 0.57021,0.19817 0.90485,0.21082 0.32233,0.014 0.63219,-0.0496 0.95447,-0.14852 0.2975,-0.1115 0.6074,-0.27266 0.85533,-0.4958 0.55779,-0.47108 0.86765,-1.09086 0.96683,-1.69822 0.0745,-0.6074 -0.0618,-1.20238 -0.44601,-1.6734 -0.39681,-0.47103 -0.96683,-0.71896 -1.56181,-0.74374 -0.65698,-0.0375 -1.31395,0.17334 -1.87179,0.64455 z m -6.75555,-4.28889 c 3.30959,-2.40473 7.33819,-3.91698 11.70141,-4.07815 -0.60735,0.84292 -1.25195,1.79738 -1.87172,2.77663 -0.81809,1.30152 -1.59902,2.61548 -2.21879,3.79308 -0.58264,0.13633 -1.1652,0.42165 -1.67343,0.84287 -0.0496,0.0234 -0.0745,0.0745 -0.12415,0.1115 -0.81808,-0.57021 -1.74777,-1.17761 -2.73943,-1.76018 -0.99162,-0.59498 -2.03285,-1.1652 -3.07408,-1.68584 z m -8.09433,11.68906 c 1.17755,-4.28884 3.6567,-8.05714 6.9787,-10.83372 1.23954,0.58257 2.44194,1.23955 3.56994,1.89652 0.91726,0.54542 1.80974,1.10321 2.59068,1.63621 -0.26049,0.42165 -0.409,0.89248 -0.48344,1.33873 -2.28077,0.223 -4.67315,1.02881 -6.96634,2.16923 -2.03284,1.05364 -3.99135,2.35517 -5.68954,3.79303 z m 7.23899,22.31209 c -4.87146,-3.92937 -7.99515,-9.95366 -7.99515,-16.6597 0,-1.20234 0.1115,-2.39232 0.2975,-3.54509 1.85935,-1.80981 4.21449,-3.50796 6.71841,-4.75992 2.11966,-1.06606 4.33846,-1.8098 6.42091,-2.03289 0.1115,0.53301 0.34716,1.04122 0.70658,1.46269 0,0.014 0.014,0.0234 0.0234,0.0496 -2.25604,2.16922 -4.14015,6.35892 -5.29297,11.14367 -1.09079,4.59874 -1.49984,9.8049 -0.88006,14.34167 z"
       id="path7435"
       style="fill:#ffffff;stroke-width:1.23956" />
    <path
       class="st1"
       d="m 172.71557,191.20952 c -0.61977,0.0496 -1.25195,0.0744 -1.88415,0.0744 -4.45,0 -8.57773,-1.35113 -12.01134,-3.6939 -0.86769,-4.62358 -0.4958,-10.2264 0.65698,-15.12265 1.11558,-4.68556 2.93774,-8.73889 5.0574,-10.67261 0.0234,0.014 0.0618,0.0496 0.1115,0.0618 0.43383,0.19817 0.91728,0.32232 1.40072,0.32232 0.47103,0.014 0.92968,-0.0618 1.40071,-0.223 0.29749,-0.1115 0.6074,-0.26049 0.89248,-0.44648 3.81786,2.40474 6.06144,7.32581 6.87957,12.68072 0.94205,6.09863 0.0496,12.75506 -2.50392,17.01916 z"
       id="path7437"
       style="fill:#ffffff;stroke-width:1.23956" />
    <path
       class="st1"
       d="m 192.23865,170.70717 c -0.39681,10.23877 -8.05718,18.69259 -17.98605,20.30403 2.33039,-4.49962 3.13611,-11.03213 2.21884,-17.00681 -0.85532,-5.56562 -3.19808,-10.69739 -7.17706,-13.37483 0.29749,-0.37198 0.53301,-0.81813 0.65697,-1.25196 3.92941,0.0234 7.89598,1.06602 11.66427,2.99973 3.81782,1.92134 7.43736,4.75991 10.62303,8.32984 z"
       id="path7439"
       style="fill:#ffffff;stroke-width:1.23956" />
    <path
       class="st1"
       d="m 183.82205,152.8203 c 4.88382,3.7311 8.11912,9.50746 8.4166,16.02755 -3.07412,-3.21045 -6.48289,-5.78877 -10.05283,-7.61094 -3.89224,-1.97087 -7.98278,-3.07408 -12.07335,-3.12369 0,-0.35934 -0.0745,-0.74374 -0.19817,-1.06601 1.87173,-1.26433 4.02859,-2.16923 6.28457,-2.81378 2.4791,-0.70654 5.06978,-1.11563 7.62332,-1.41313 z m -12.34603,-4.40043 c 3.96657,0.12415 7.67288,1.32635 10.82135,3.33441 -2.16923,0.28532 -4.33844,0.69418 -6.42091,1.27674 -2.37995,0.68177 -4.62359,1.62387 -6.61928,2.95017 -0.533,-0.5702 -1.20234,-0.91726 -1.94608,-1.04122 0.54537,-0.97926 1.16514,-2.03291 1.82211,-3.07414 0.79335,-1.23954 1.62385,-2.46671 2.34281,-3.44596 z"
       id="path7441"
       style="fill:#ffffff;stroke-width:1.23956" />
    <path
       class="st0"
       d="m 168.1044,171.85996 h 6.17299 v 2.08246 h -0.54537 c -0.26049,0 -0.43382,0.0618 -0.53301,0.12414 -0.0744,0.0618 -0.13633,0.16117 -0.16116,0.2975 -0.0496,0.12415 -0.0618,0.43382 -0.0618,0.9049 v 6.92913 c 0,3.76825 -1.94609,4.45001 -4.04096,4.45001 h -1.77255 v -3.12369 h 1.04123 c 0.69413,0 1.17756,-0.34717 1.17756,-1.37588 v -7.18949 c 0,-0.28484 -0.014,-0.48339 -0.0234,-0.57015 a 0.50202201,0.50202201 0 0 0 -0.18599,-0.34715 c -0.0866,-0.0746 -0.23566,-0.11151 -0.47102,-0.11151 h -0.6074 v -2.07009 z m -15.94074,-7.63568 5.98704,3.08649 0.014,2.0453 -0.48339,-0.26047 c -0.28531,-0.14899 -0.48344,-0.21083 -0.57025,-0.21083 -0.11149,0.014 -0.18599,0.0744 -0.223,0.18599 -0.0496,0.0866 -0.0618,0.13634 -0.0618,0.53301 l -0.014,2.28082 3.37162,1.83454 v -2.49151 c 0,-0.29749 0,-0.53301 -0.0496,-0.64456 -0.1115,-0.34715 -0.23565,-0.35933 -0.58258,-0.54542 l -0.39682,-0.19818 v -2.04525 l 6.03666,3.14847 v 2.03286 l -0.50818,-0.26049 c -0.95446,-0.49586 -0.99166,-0.37198 -0.99166,0.57016 l -0.0234,7.11508 c 0,0.44648 0.014,0.76852 0.0745,0.92968 0.0496,0.14899 0.13633,0.2975 0.23566,0.42165 0.12415,0.12415 0.37198,0.2975 0.7933,0.54542 l 0.42164,0.26049 v 2.10725 l -6.03665,-3.59473 v -2.08245 l 0.37199,0.26047 c 0.14851,0.0867 0.42165,0.186 0.54542,-0.0496 0.0496,-0.0866 0.0745,-0.35934 0.0745,-0.79331 l 0.014,-2.6031 -3.3592,-1.89652 v 2.49151 c 0,0.43383 0,0.71895 0.0496,0.84291 0.0496,0.186 0.13633,0.33452 0.23565,0.44602 0.12415,0.1115 0.2975,0.26049 0.63218,0.44647 l 0.42165,0.23566 v 2.08246 l -5.98709,-3.52038 v -2.07004 l 0.42164,0.27266 c 0.14853,0.1115 0.53302,0.2975 0.64456,0.0496 0.0496,-0.0745 0.0745,-0.2975 0.0745,-0.6818 v -6.6688 c 0,-0.43382 -0.014,-0.47108 -0.0496,-0.61982 -0.1115,-0.33451 -0.28484,-0.54537 -0.58257,-0.69412 l -0.50822,-0.26049 v -2.03289 z m 24.96476,6.96633 5.65239,-3.44597 v 2.03285 l -0.34715,0.21082 c -0.2975,0.186 -0.47108,0.28531 -0.55784,0.42164 -0.0866,0.13634 -0.0866,0.2975 -0.0866,0.6074 v 2.67746 l 3.04935,-4.40043 c 0.63218,-0.91727 0.19817,-0.81814 -0.39682,-0.44601 l -0.47103,0.26048 v -2.02047 l 5.02021,-2.99973 v 2.03285 a 0.47103301,0.47103301 0 0 0 -0.16116,0.1115 c -0.6074,0.44647 -0.8305,0.42165 -1.31395,1.10316 l -2.75184,3.97902 3.30963,2.789 c 0.32232,0.27267 1.11563,-0.18599 1.33873,-0.3345 l 0.22301,-0.12416 v 2.04527 c -0.92969,0.55779 -1.87174,1.11563 -2.80142,1.68584 -0.92963,0.55779 -1.93371,1.16514 -2.86334,1.73535 v -2.07006 l 0.60735,-0.35933 c 0.33451,-0.18599 0.49586,-0.32232 0.14851,-0.63219 l -2.00807,-1.79737 -0.92968,1.30157 -0.0618,1.87173 c 0,0.2975 0.0234,0.49582 0.0867,0.58258 0.0496,0.0745 0.223,0.16116 0.35933,0.0745 l 0.6074,-0.35934 v 2.0329 l -5.65239,3.48316 v -2.04526 l 0.64456,-0.39681 c 0.55779,-0.33451 0.69417,-0.54542 0.69417,-1.11563 v -6.17299 c 0,-0.34716 -0.0234,-0.57021 -0.0745,-0.65697 a 0.24791212,0.24791212 0 0 0 -0.22301,-0.13633 c -0.1115,0 -0.29749,0.0867 -0.58261,0.26048 -0.14852,0.0866 -0.29751,0.186 -0.44602,0.27267 v -2.05769 z"
       id="path7443"
       style="fill:#004899;stroke-width:1.23956" />
    <path
       class="st1"
       d="m 176.40946,200.23352 1.66102,-6.297 h -1.73541 v -1.38829 h 3.37162 v 1.01645 l -1.6982,6.66884 z m -13.62276,0 v -5.87554 h -0.84292 v -0.92967 h 0.0234 c 0.29749,0 0.54542,-0.0745 0.74373,-0.23566 a 1.004044,1.004044 0 0 0 0.39682,-0.63214 h 1.20234 v 7.68524 h -1.5234 z m 8.67692,-5.87554 c 0,-0.70653 0.13632,-1.21475 0.40899,-1.52467 0.28531,-0.32232 0.74374,-0.47102 1.38833,-0.47102 0.64456,0 1.10317,0.14851 1.37588,0.44601 0.28531,0.29749 0.42165,0.81813 0.42165,1.53708 v 4.05333 c 0,0.71895 -0.13634,1.2396 -0.42165,1.53708 -0.27267,0.2975 -0.71895,0.44601 -1.37588,0.44601 -0.64459,0 -1.10321,-0.14898 -1.38833,-0.44601 -0.27267,-0.29748 -0.40899,-0.81813 -0.40899,-1.53708 z m 1.52466,-0.50822 v 5.02021 c 0,0.13633 0.0234,0.223 0.0618,0.28484 0.0496,0.0618 0.12416,0.0867 0.21082,0.0867 0.0866,0 0.16116,-0.0234 0.19817,-0.0744 0.0496,-0.0618 0.0618,-0.16116 0.0618,-0.2975 v -5.0202 c 0,-0.13634 -0.014,-0.23566 -0.0618,-0.28485 -0.0234,-0.0618 -0.1115,-0.0866 -0.19817,-0.0866 -0.0866,0 -0.16116,0.0234 -0.19817,0.0866 -0.0496,0.0496 -0.0745,0.16116 -0.0745,0.28485 z m -5.29292,5.00784 c 0,0.13633 0.0234,0.22301 0.0618,0.28532 0.0496,0.0618 0.12415,0.0866 0.21082,0.0866 0.0867,0 0.14899,-0.0234 0.19818,-0.0744 0.0496,-0.0618 0.0618,-0.16116 0.0618,-0.29749 v -1.61143 c -0.13633,0.0867 -0.26048,0.16116 -0.39681,0.21082 a 1.2271649,1.2271649 0 0 1 -0.43384,0.0745 c -0.39681,0 -0.69411,-0.12415 -0.90484,-0.34715 -0.21083,-0.22301 -0.32233,-0.55784 -0.32233,-0.99171 v -1.83454 c 0,-0.70654 0.13634,-1.21476 0.409,-1.52468 0.28485,-0.32232 0.74374,-0.47102 1.38829,-0.47102 0.63219,0 1.10321,0.14852 1.37592,0.44601 0.27266,0.29749 0.409,0.81813 0.409,1.53708 v 4.05334 c 0,0.71895 -0.13634,1.23959 -0.409,1.53708 -0.28484,0.29749 -0.74373,0.44601 -1.37592,0.44601 -0.57016,0 -1.00403,-0.12416 -1.32631,-0.39682 -0.32232,-0.26048 -0.47103,-0.61977 -0.47103,-1.09079 v -0.99166 h 1.52468 z m 0.53301,-3.02451 v -1.92135 c 0,-0.13633 -0.014,-0.223 -0.0618,-0.28485 -0.0496,-0.0618 -0.11151,-0.0744 -0.19817,-0.0744 -0.0867,0 -0.16117,0.014 -0.21083,0.0744 -0.0234,0.0618 -0.0618,0.14852 -0.0618,0.28485 v 1.93372 c 0,0.13634 0.0234,0.23566 0.0618,0.2975 0.0496,0.0618 0.12415,0.0744 0.21083,0.0744 0.0867,0 0.14897,-0.014 0.19817,-0.0744 0.0496,-0.0618 0.0618,-0.17335 0.0618,-0.30968 z"
       id="path7445"
       style="fill:#ffffff;stroke-width:1.23956" />
    <path
       class="st2"
       d="m 149.44901,129.19432 h 4.16493 l -3.38399,2.57827 1.3635,4.12773 -3.74345,-2.44194 -3.74348,2.44194 1.17757,-4.12773 -3.19808,-2.57827 h 4.17732 l 1.58667,-4.11535 z"
       id="path7447"
       style="fill:#ffed00;stroke-width:1.23956" />
    <path
       class="st3"
       d="m 147.85,130.94209 -4.8963,-1.4379 -0.0375,0.0374 2.71464,2.13203 z m 0,0.0234 -3.30965,4.25169 0.0374,0.0866 3.27245,-2.18165 z m 0,-0.0234 v -5.03262 h -0.0375 l -1.31394,3.45838 z m 0,0 4.90864,-1.45027 v -0.0375 h -3.6319 z m 0,0 3.22282,4.25168 0.0374,-0.014 -1.23953,-3.64432 z"
       id="path7449"
       style="fill:#ffcc00;stroke-width:1.23956" />
    <path
       class="st2"
       d="m 160.58028,125.8227 h 4.16492 l -3.38398,2.57827 1.3635,4.12772 -3.74347,-2.44189 -3.7435,2.44189 1.17761,-4.12772 -3.1981,-2.57827 h 4.17734 l 1.58665,-4.11536 z"
       id="path7451"
       style="fill:#ffed00;stroke-width:1.23956" />
    <path
       class="st3"
       d="m 158.96884,127.57047 -4.89624,-1.43791 -0.0374,0.0375 2.71459,2.13207 z m 0,0.014 -3.30964,4.25169 0.0374,0.0867 3.27244,-2.18159 z m 0,-0.014 v -5.03264 h -0.0375 l -1.31393,3.4584 z m 0,0 4.90865,-1.45028 v -0.0374 h -3.6319 z m 0,0 3.22288,4.25168 0.0374,-0.014 -1.23959,-3.64428 z"
       id="path7453"
       style="fill:#ffcc00;stroke-width:1.23956" />
    <path
       class="st2"
       d="m 172.43044,124.39721 h 4.16492 l -3.38398,2.57826 1.3635,4.12773 -3.74346,-2.44194 -3.74347,2.44194 1.17757,-4.12773 -3.19805,-2.57826 h 4.17735 l 1.5866,-4.11536 z"
       id="path7455"
       style="fill:#ffed00;stroke-width:1.23956" />
    <path
       class="st3"
       d="m 170.83142,126.13256 -4.89624,-1.43785 -0.0374,0.0374 2.71464,2.13203 z m 0,0.0234 -3.30963,4.25173 0.0374,0.0867 3.27244,-2.18165 z m 0,-0.0234 v -5.03258 h -0.0375 l -1.31389,3.45835 z m 0,0 4.90866,-1.45027 v -0.0374 h -3.63191 z m 0,0 3.22288,4.25174 0.0374,-0.014 -1.23958,-3.63193 z"
       id="path7457"
       style="fill:#ffcc00;stroke-width:1.23956" />
    <path
       class="st2"
       d="m 184.28066,125.8227 h 4.16492 l -3.38398,2.57827 1.3635,4.12772 -3.74347,-2.44189 -3.74346,2.44189 1.17757,-4.12772 -3.19806,-2.57827 h 4.1773 l 1.58665,-4.11536 z"
       id="path7459"
       style="fill:#ffed00;stroke-width:1.23956" />
    <path
       class="st3"
       d="m 182.68163,127.57047 -4.89628,-1.43791 -0.0374,0.0375 2.71464,2.13207 z m 0,0.014 -3.30963,4.25169 0.0374,0.0867 3.27243,-2.18159 z m 0,-0.014 v -5.03264 h -0.0375 l -1.31413,3.4584 z m 0,0 4.90866,-1.45028 v -0.0374 h -3.6319 z m 0,0 3.22287,4.25168 0.0375,-0.014 -1.2396,-3.63192 z"
       id="path7461"
       style="fill:#ffcc00;stroke-width:1.23956" />
    <path
       class="st2"
       d="m 195.39949,129.19432 h 4.16493 l -3.38398,2.57827 1.36351,4.12773 -3.74347,-2.44194 -3.74346,2.44194 1.17756,-4.12773 -3.19805,-2.57827 h 4.1773 l 1.58665,-4.11535 z"
       id="path7463"
       style="fill:#ffed00;stroke-width:1.23956" />
    <path
       class="st3"
       d="m 193.80048,130.94209 -4.89625,-1.4379 -0.0375,0.0374 2.71461,2.13203 z m 0,0.0234 -3.30963,4.25169 0.0374,0.0866 3.27243,-2.18165 z m 0,-0.0234 v -5.03262 h -0.0375 l -1.31394,3.45838 z m 0,0 4.90866,-1.45027 v -0.0375 h -3.63192 z m 0,0 3.22287,4.25168 0.0375,-0.014 -1.23959,-3.6319 z"
       id="path7465"
       style="fill:#ffcc00;stroke-width:1.23956" />
  </g>
</svg>
