<?xml version="1.0" encoding="utf-8"?>
<svg version="1.1" id="Ebene_1" xmlns="http://www.w3.org/2000/svg" xmlns:xlink="http://www.w3.org/1999/xlink" x="0px" y="0px"
	 width="200" height="200" viewBox="0 0 186 185.98" style="enable-background:new 0 0 186 185.98;" xml:space="preserve">
<style type="text/css">
	.st0{fill-rule:evenodd;clip-rule:evenodd;fill:#004C94;}
	.st1{fill-rule:evenodd;clip-rule:evenodd;fill:#FFFFFF;}
</style>
	<path class="st0" d="M0,92.99C0,41.63,42.33,0,93.69,0S186,41.63,186,92.99c0,51.36-41.64,92.99-93,92.99
		C41.64,185.98,0,144.34,0,92.99z"/>
	<path class="st1" d="M71.88,50.74l-12.2,35.13V52.46l-12.23,1.72v87.13l12.23-1.71v-38.67l11.53,37.05l12.3-1.73L69.63,91.71
		l14.58-42.7L71.88,50.74z M110.08,45.38l-13.92,1.96c-3.93,9.38-9.11,21.63-9.11,27.33c0,7.67,2.55,13.58,5.13,18.83
		c2.25,4.58,5.5,9.69,5.24,14.95c-0.41,8.09-2.95,18.29-4.98,26.54c0.28,0,13.24-1.86,13.24-1.86c1.68-7.92,4.24-18.6,4.24-26.58
		c0-13.22-10.37-20.32-10.37-32.7C99.56,68.51,105.37,55.45,110.08,45.38z M142.45,127.97v-12.29l-5.81,0.74
		c-3.38,0.43-6.24-1.92-6.24-5V62.21c0-2.57,1.33-6.66,6.08-7.34l4.76-0.69V40.99l-8.65,1.22c-13.02,1.71-14.43,12.96-14.43,15.73
		v60.61c0,7.52,5.38,12.02,13.22,10.98C131.4,129.52,138.9,128.5,142.45,127.97z M6.15,92.99c0-47.96,39.53-86.84,87.5-86.84
		c47.96,0,86.2,38.88,86.2,86.84c0,47.96-38.88,86.84-86.85,86.84C45.03,179.83,6.15,140.95,6.15,92.99z M9.14,92.99
		c0,46.31,37.55,83.85,83.86,83.85c46.32,0,83.86-37.54,83.86-83.85c0-46.31-36.92-83.85-83.24-83.85
		C47.31,9.14,9.14,46.68,9.14,92.99z"/>
</svg>
