<svg width="200" height="200" viewBox="50 40 80 80" version="1.1" xmlns="http://www.w3.org/2000/svg" xmlns:xlink="http://www.w3.org/1999/xlink">
<g id="Logo_Schalke04_527498304" stroke="none" stroke-width="1px" fill="none" fill-rule="evenodd" transform="translate(50.000000, 40.000000)">
<path d="M40,80 C62.0914997,80 80,62.0912184 80,40.0001812 C80,17.9084191 62.0914997,0 40,0 C17.9085003,0 0,17.9084191 0,40.0001812 C0,62.0912184 17.9085003,80 40,80" id="Fill-1_1247046660" fill="#ffffff" stroke="none" stroke-width="1px"></path>
<path d="M40,78.5185185 L40,78.5185185 C18.7269244,78.5185185 1.48148148,61.2730756 1.48148148,40 C1.48148148,18.7269244 18.7269244,1.48148148 40,1.48148148 C61.2730756,1.48148148 78.5185185,18.7269244 78.5185185,40 C78.5185185,61.2730756 61.2730756,78.5185185 40,78.5185185" id="Fill-3_857620085" fill="#004b9c" stroke="none" stroke-width="1px"></path>
<path d="M40,5.92592593 L40,5.92592593 C54.6932084,5.92592593 67.2142734,15.2261651 71.997915,28.2606982 C71.997915,28.2606982 69.3233932,28.260336 69.3233932,28.2599738 L54.9782638,28.2599738 L54.9775394,19.7909863 C54.9775394,17.2240667 54.9775394,8.42547613 40,8.42547613 C34.5274445,8.42547613 29.3801491,9.81741518 24.8927913,12.2666194 L24.8927913,67.737727 C29.3801491,70.1869312 34.5274445,71.5788703 40,71.5788703 C54.9775394,71.5788703 54.9775394,62.7802797 54.9775394,60.2129979 L54.9775394,52.7244889 L51.2040876,52.7244889 L51.2033632,40.0228187 L74.0740741,40.0228187 C74.0613969,58.8308383 58.810755,74.0740741 40,74.0740741 C21.1812765,74.0740741 5.92592593,58.8185234 5.92592593,40 C5.92592593,21.1814766 21.1812765,5.92592593 40,5.92592593" id="Fill-5_553616903" fill="#ffffff" stroke="none" stroke-width="1px"></path>
<path d="M40.855492,15.3676639 C41.7631334,15.1171576 42.4996383,15.1711742 43.3658582,15.502524 C45.5862733,16.3055216 46.003396,19.2894824 46.1661756,21.1789738 L48.6075058,21.1789738 L48.6031457,10.8549261 L47.1047015,10.8549261 C47.1047015,10.8549261 46.3598397,11.9599088 46.1483715,12.2753074 C44.9031805,11.4719473 43.4407077,10.9517208 41.9796884,10.5743301 C38.5140822,9.96057165 35.265031,10.7635693 32.7201468,12.5584411 C29.4616485,14.8666514 27.6074874,20.146134 29.8864015,23.652859 C32.1653155,27.159584 38.675045,36.6088537 38.675045,36.6088537 C38.675045,36.6088537 39.1306825,37.2421886 39.1172387,37.9690555 C39.0972546,39.1284173 38.622723,39.8766733 37.7016377,40.5284971 C36.7801891,41.1803209 35.8343961,41.322069 34.5612273,41.0472734 C31.5494419,40.4063254 31.7401992,36.6012406 31.7401992,34.6744089 L28.1481481,34.6744089 L28.1481481,45.5567484 L30.4499531,45.5567484 L31.1839145,44.154131 C32.0839257,44.5590738 33.7487829,45.3939738 35.1563902,45.6310665 C38.9468288,46.385848 43.0083245,45.724236 45.769037,43.2677521 C48.7477579,40.8105432 50.2603725,36.0230099 47.2442269,31.9420419 C44.0609415,27.14037 39.2720246,20.7145766 38.6830387,19.2597552 C38.5017284,18.8123967 37.9585242,16.3889028 40.855492,15.3676639" id="Fill-7_854969787" fill="#ffffff" stroke="none" stroke-width="1px"></path>
<path d="M28.1481481,51.8881298 L28.1481481,65.1485423 C28.1481481,67.623396 30.1379764,69.6296296 32.5922306,69.6296296 C35.0468468,69.6296296 37.037037,67.623396 37.037037,65.1485423 L37.037037,51.8881298 C37.037037,49.4136411 35.0468468,47.4074074 32.5922306,47.4074074 C30.1379764,47.4074074 28.1481481,49.4136411 28.1481481,51.8881298" id="Fill-9_613752881" fill="#ffffff" stroke="none" stroke-width="1px"></path>
<path d="M47.0886593,59.9416103 L47.0872801,56.6570271 L44.2747016,56.6570271 L44.2747016,59.9444219 L42.3772369,59.9444219 C42.3772369,59.9444219 45.3080837,47.4636382 45.3325649,47.4074074 L42.2041446,47.4074074 C42.2041446,47.4074074 38.5185185,63.0993227 38.5185185,63.009002 L44.1329866,63.0079476 L44.1322969,68.1481481 L47.0886593,68.1481481 L47.0872801,63.0079476 L48.8888889,63.009002 L48.8888889,59.9416103 L47.0886593,59.9416103 Z" id="Fill-11_1232255691" fill="#ffffff" stroke="none" stroke-width="1px"></path>
<path d="M34.0740741,51.849918 L34.0740741,65.1874858 C34.0740741,66.004648 33.4108228,66.6666667 32.5929598,66.6666667 C31.7743624,66.6666667 31.1111111,66.004648 31.1111111,65.1874858 L31.1111111,51.849918 C31.1111111,51.0323891 31.7743624,50.3703704 32.5929598,50.3703704 C33.4108228,50.3703704 34.0740741,51.0323891 34.0740741,51.849918" id="Fill-13_392256374" fill="#004b9c" stroke="none" stroke-width="1px"></path>
</g>
</svg>