<?xml version="1.0" encoding="utf-8"?>
<svg version="1.1" xmlns="http://www.w3.org/2000/svg" xmlns:xlink="http://www.w3.org/1999/xlink" xml:space="preserve" 
viewBox="0 0 24 24" fill="none">
<path d="M12.0002 12V14C13.1048 14 14.0002 13.1045 14.0002 12H12.0002ZM12.0002 12H10.0002C10.0002 13.1045 10.8956 14 12.0002 14V12ZM12.0002 12V9.99995C10.8956 9.99995 10.0002 10.8954 10.0002 12H12.0002ZM12.0002 12H14.0002C14.0002 10.8954 13.1048 9.99995 12.0002 9.99995V12ZM12.0002 13H12.0102V11H12.0002V13ZM14.8286 14.8284C12.7579 16.8991 10.5345 18.3566 8.64907 19.0636C6.67076 19.8055 5.45764 19.5995 4.92913 19.071L3.51492 20.4852C4.93902 21.9093 7.23488 21.7299 9.35132 20.9363C11.5606 20.1078 14.0178 18.4677 16.2428 16.2426L14.8286 14.8284ZM4.92913 19.071C4.40061 18.5425 4.19466 17.3294 4.93653 15.3511C5.64358 13.4656 7.10106 11.2422 9.17177 9.17152L7.75756 7.75731C5.5325 9.98237 3.89235 12.4395 3.06387 14.6488C2.2702 16.7653 2.09081 19.0611 3.51492 20.4852L4.92913 19.071ZM9.17177 9.17152C11.2425 7.10082 13.4658 5.64333 15.3513 4.93628C17.3296 4.19441 18.5427 4.40037 19.0713 4.92888L20.4855 3.51467C19.0614 2.09056 16.7655 2.26996 14.6491 3.06362C12.4398 3.8921 9.98262 5.53225 7.75756 7.75731L9.17177 9.17152ZM19.0713 4.92888C19.5998 5.4574 19.8057 6.67051 19.0639 8.64883C18.3568 10.5343 16.8993 12.7577 14.8286 14.8284L16.2428 16.2426C18.4679 14.0175 20.108 11.5604 20.9365 9.35108C21.7302 7.23464 21.9096 4.93878 20.4855 3.51467L19.0713 4.92888ZM14.8286 9.17152C16.8993 11.2422 18.3568 13.4656 19.0639 15.3511C19.8057 17.3294 19.5998 18.5425 19.0713 19.071L20.4855 20.4852C21.9096 19.0611 21.7302 16.7653 20.9365 14.6488C20.108 12.4395 18.4679 9.98237 16.2428 7.75731L14.8286 9.17152ZM19.0713 19.071C18.5427 19.5995 17.3296 19.8055 15.3513 19.0636C13.4658 18.3566 11.2425 16.8991 9.17177 14.8284L7.75756 16.2426C9.98262 18.4677 12.4398 20.1078 14.6491 20.9363C16.7655 21.7299 19.0614 21.9093 20.4855 20.4852L19.0713 19.071ZM9.17177 14.8284C7.10106 12.7577 5.64358 10.5343 4.93653 8.64883C4.19466 6.67051 4.40061 5.4574 4.92913 4.92888L3.51491 3.51467C2.09081 4.93878 2.2702 7.23464 3.06387 9.35108C3.89235 11.5604 5.5325 14.0175 7.75756 16.2426L9.17177 14.8284ZM4.92913 4.92888C5.45764 4.40037 6.67076 4.19441 8.64907 4.93628C10.5345 5.64333 12.7579 7.10082 14.8286 9.17152L16.2428 7.75731C14.0178 5.53225 11.5606 3.8921 9.35132 3.06362C7.23488 2.26996 4.93902 2.09056 3.51491 3.51467L4.92913 4.92888Z" 
fill="#4b81d1"/>
</svg>