<?xml version="1.0" encoding="utf-8"?>
<svg xmlns="http://www.w3.org/2000/svg" xmlns:xlink="http://www.w3.org/1999/xlink" 
viewBox="0 0 1024 1024">
  <path d="M483.84 585.386667a99.84 99.84 0 0 0 66.56 26.453333 16.213333 16.213333 0 0 0 12.8-4.693333L840.96 341.333333a103.68 103.68 0 0 0-5.12-152.32 103.253333 103.253333 0 0 0-148.053333 13.653334l-228.693334 313.173333a17.493333 17.493333 0 0 0-2.986666 13.653333 103.253333 103.253333 0 0 0 27.733333 55.893334zM162.133333 735.146667a47.786667 47.786667 0 0 0 51.2-17.92c18.773333-27.306667 24.32-85.333333 64.853334-121.173334a142.506667 142.506667 0 0 1 111.786666-37.12 11.52 11.52 0 0 1 9.813334 8.96 116.053333 116.053333 0 0 0 39.253333 72.106667 243.2 243.2 0 0 0 81.066667 32.853333 10.666667 10.666667 0 0 1 8.96 10.666667c2.56 37.546667 0 179.2-186.88 173.226667C128 853.333333 143.36 728.32 162.133333 735.146667z" />
</svg>