<?xml version="1.0" encoding="utf-8"?>
<svg version="1.1" xmlns="http://www.w3.org/2000/svg" xmlns:xlink="http://www.w3.org/1999/xlink" xml:space="preserve" 
viewBox="0 0 1200 1200">
	<path id="path3007" d="M1030.014,96.91
	C874.836,250.578,646.766,344.637,427.042,357.866H100.749C49.358,358.572,2.898,402.262,0,459.889V607.02
	c0.701,51.369,43.068,99.121,100.699,102.021h130.821c-34.962,118.567,2.593,238.596,43.15,356.415
	c60.166,56.81,197.785,49.742,242.638-24.195c-95.523-75.091-142.05-277.145-26.889-326.979
	c196.285,22.271,390.749,122.01,539.594,255.716c51.169-0.701,97.705-42.745,100.699-100.062V628.618
	c102.449-36.383,81.738-164.259,0-190.28V197.659c-0.683-51.365-43.073-97.799-100.699-100.7V96.91z M1032.609,227.045v613.453
	C888.778,728.424,711.072,653.216,527.741,619.46V448.134C707.635,421.062,883.576,338.057,1032.609,227.045z"/>
</svg>