<svg xmlns="http://www.w3.org/2000/svg" xmlns:xlink="http://www.w3.org/1999/xlink" version="1.1" width="256" height="256" viewBox="0 0 256 256" xml:space="preserve">

<defs>
</defs>
<g style="stroke: none; stroke-width: 0; stroke-dasharray: none; stroke-linecap: butt; stroke-linejoin: miter; stroke-miterlimit: 10; fill: none; fill-rule: nonzero; opacity: 1;" transform="translate(1.4065934065934016 1.4065934065934016) scale(2.81 2.81)" >
	<path d="M 34.985 53.37 l 30.724 -30.724 c 0.769 -0.769 2.015 -0.769 2.784 0 l 8.591 8.591 c 0.769 0.769 0.769 2.015 0 2.784 L 46.359 64.744 c -0.769 0.769 -2.015 0.769 -2.784 0 l -8.591 -8.591 C 34.216 55.384 34.216 54.138 34.985 53.37 z" style="stroke: none; stroke-width: 1; stroke-dasharray: none; stroke-linecap: butt; stroke-linejoin: miter; stroke-miterlimit: 10; fill: rgb(0,0,0); fill-rule: nonzero; opacity: 1;" transform=" matrix(1 0 0 1 0 0) " stroke-linecap="round" />
	<path d="M 55.015 53.37 L 24.291 22.645 c -0.769 -0.769 -2.015 -0.769 -2.784 0 l -8.591 8.591 c -0.769 0.769 -0.769 2.015 0 2.784 l 30.724 30.724 c 0.769 0.769 2.015 0.769 2.784 0 l 8.591 -8.591 C 55.784 55.384 55.784 54.138 55.015 53.37 z" style="stroke: none; stroke-width: 1; stroke-dasharray: none; stroke-linecap: butt; stroke-linejoin: miter; stroke-miterlimit: 10; fill: rgb(0,0,0); fill-rule: nonzero; opacity: 1;" transform=" matrix(1 0 0 1 0 0) " stroke-linecap="round" />
	<path d="M 36.957 45.419 l 0 -43.451 C 36.957 0.881 37.838 0 38.925 0 l 12.149 0 c 1.087 0 1.968 0.881 1.968 1.968 l 0 43.451 c 0 1.087 -0.881 1.968 -1.968 1.968 H 38.925 C 37.838 47.387 36.957 46.506 36.957 45.419 z" style="stroke: none; stroke-width: 1; stroke-dasharray: none; stroke-linecap: butt; stroke-linejoin: miter; stroke-miterlimit: 10; fill: rgb(0,0,0); fill-rule: nonzero; opacity: 1;" transform=" matrix(1 0 0 1 0 0) " stroke-linecap="round" />
	<path d="M 75.349 90 l -60.699 0 c -1.276 0 -2.311 -1.035 -2.311 -2.311 l 0 -11.464 c 0 -1.276 1.035 -2.311 2.311 -2.311 l 60.699 0 c 1.276 0 2.311 1.035 2.311 2.311 v 11.464 C 77.66 88.965 76.626 90 75.349 90 z" style="stroke: none; stroke-width: 1; stroke-dasharray: none; stroke-linecap: butt; stroke-linejoin: miter; stroke-miterlimit: 10; fill: rgb(0,0,0); fill-rule: nonzero; opacity: 1;" transform=" matrix(1 0 0 1 0 0) " stroke-linecap="round" />
</g>
</svg>