<?xml version="1.0" encoding="utf-8"?>
<svg xmlns="http://www.w3.org/2000/svg" xmlns:xlink="http://www.w3.org/1999/xlink" 
viewBox="0 0 256 256">
<g style="stroke: none; stroke-width: 0; stroke-dasharray: none; stroke-linecap: butt; stroke-linejoin: miter; stroke-miterlimit: 10; fill: none; fill-rule: nonzero; opacity: 1;" transform="translate(1.4065934065934016 1.4065934065934016) scale(2.81 2.81)" >
	<path d="M 85.033 -0.001 H 4.967 C 2.224 -0.001 0 2.223 0 4.967 v 80.066 C 0 87.775 2.223 90 4.967 90 h 40.922 V 55.147 H 34.16 V 41.564 h 11.729 V 31.547 c 0 -11.625 7.1 -17.954 17.47 -17.954 c 4.967 0 9.237 0.37 10.481 0.535 v 12.149 l -7.193 0.003 c -5.639 0 -6.731 2.68 -6.731 6.612 v 8.672 h 13.45 l -1.752 13.583 H 59.916 V 90 h 25.117 C 87.776 90 90 87.776 90 85.032 V 4.967 C 90 2.223 87.776 -0.001 85.033 -0.001 z" style="stroke: none; stroke-width: 1; stroke-dasharray: none; stroke-linecap: butt; stroke-linejoin: miter; stroke-miterlimit: 10; fill: #3c5a99; fill-rule: nonzero; opacity: 1;" transform=" matrix(1 0 0 1 0 0) " stroke-linecap="round" />
</g>
</svg>