<svg xmlns="http://www.w3.org/2000/svg" viewBox="0 0 960 960" >
  <g transform="matrix(1, 0, 0, 1, -32.380116, -90.786499)">
    <path style="color:#000000;font-style:normal;font-variant:normal;font-weight:normal;font-stretch:normal;font-size:medium;line-height:normal;font-family:sans-serif;font-variant-ligatures:normal;font-variant-position:normal;font-variant-caps:normal;font-variant-numeric:normal;font-variant-alternates:normal;font-feature-settings:normal;text-indent:0;text-align:start;text-decoration:none;text-decoration-line:none;text-decoration-style:solid;text-decoration-color:#000000;letter-spacing:normal;word-spacing:normal;text-transform:none;writing-mode:lr-tb;direction:ltr;text-orientation:mixed;dominant-baseline:auto;baseline-shift:baseline;text-anchor:start;white-space:normal;shape-padding:0;clip-rule:nonzero;display:inline;overflow:visible;visibility:visible;opacity:1;isolation:auto;mix-blend-mode:normal;color-interpolation:sRGB;color-interpolation-filters:linearRGB;solid-color:#000000;solid-opacity:1;vector-effect:none;fill:none;fill-opacity:1;fill-rule:nonzero;stroke:#ffffff;stroke-width:28;stroke-linecap:round;stroke-linejoin:round;stroke-miterlimit:4;stroke-dasharray:none;stroke-dashoffset:0;stroke-opacity:1;color-rendering:auto;image-rendering:auto;shape-rendering:auto;text-rendering:auto;enable-background:accumulate" d="M 167.076 270.787 C 166.129 270.785 165.183 270.791 164.239 270.809 C 159.923 270.887 155.649 271.168 151.426 271.655 C 117.641 275.546 87.21 293.518 68.555 324.928 C 50.275 355.705 45.777 389.594 55.094 420.996 C 64.411 452.398 86.979 480.928 120.391 503.53 C 120.593 503.666 120.798 503.797 121.006 503.922 C 149.661 521.2 178.188 532.854 208.748 538.877 C 208.003 551.491 208.023 564.449 208.83 577.721 C 211.27 617.83 225.438 654.758 246.926 687.393 L 169.918 718.83 C 161.612 722.09 157.576 731.513 160.949 739.774 C 164.321 748.034 173.798 751.942 182.012 748.457 L 266.709 713.881 C 282.416 732.608 300.463 749.564 319.83 764.451 C 320.57 765.02 321.321 765.574 322.065 766.137 L 272.453 831.828 C 266.999 838.876 268.353 849.021 275.464 854.392 C 282.576 859.762 292.705 858.288 297.99 851.114 L 348.377 784.395 C 376.063 801.929 405.452 815.599 434.449 824.647 C 449.331 851.927 478.419 869.293 512.037 869.293 C 545.975 869.293 575.08 850.606 589.838 823.856 C 618.545 814.643 647.591 800.924 674.987 783.453 L 726.084 851.114 C 731.37 858.288 741.499 859.762 748.61 854.392 C 755.722 849.021 757.076 838.876 751.621 831.828 L 701.26 765.143 C 701.594 764.889 701.933 764.642 702.266 764.387 C 721.403 749.738 739.292 733.101 754.969 714.752 L 837.531 748.457 C 845.746 751.942 855.223 748.034 858.595 739.774 C 861.967 731.513 857.931 722.09 849.625 718.83 L 775.086 688.403 C 797.258 655.573 812.124 618.369 815.229 577.942 C 816.254 564.589 816.458 551.516 815.867 538.766 C 846.223 532.712 874.584 521.098 903.069 503.922 C 903.277 503.797 903.482 503.666 903.684 503.53 C 937.096 480.928 959.664 452.398 968.981 420.996 C 978.297 389.594 973.8 355.705 955.52 324.928 C 936.864 293.518 906.434 275.546 872.649 271.655 C 868.426 271.168 864.152 270.887 859.836 270.809 C 829.628 270.264 797.395 279.633 766.405 297.524 C 743.607 310.684 723.052 330.838 706.967 352.828 C 661.97 327.077 603.423 312.578 531.489 311.389 C 525.036 311.282 518.476 311.282 511.809 311.391 C 431.62 312.7 367.426 327.9 318.938 355.383 C 318.819 355.192 318.695 355.004 318.567 354.819 C 302.277 332.055 281.156 311.082 257.67 297.524 C 227.648 280.192 196.46 270.859 167.076 270.787 L 167.076 270.787 Z" id="path817-3"></path>
    <path style="display:inline;opacity:1;fill:#ffffff;fill-opacity:1;stroke:#000000;stroke-width:28;stroke-linecap:round;stroke-linejoin:round;stroke-miterlimit:4;stroke-dasharray:none;stroke-opacity:1" d="M 716.893 362.965 C 732.184 341.597 752.255 321.856 773.403 309.647 C 840.067 271.163 910.429 276.426 943.483 332.078 C 976.578 387.799 958.47 449.566 895.839 491.933 C 863.884 511.201 832.906 522.856 798.61 527.477 M 307.181 362.965 C 291.891 341.597 271.819 321.856 250.672 309.647 C 184.008 271.163 113.645 276.426 80.591 332.078 C 47.497 387.799 65.605 449.566 128.235 491.933 C 160.191 511.201 191.169 522.856 225.464 527.477"></path>
    <path style="display:inline;opacity:1;fill:#ffffff;fill-opacity:1;stroke:#000000;stroke-width:28;stroke-linecap:round;stroke-linejoin:round;stroke-miterlimit:4;stroke-dasharray:none;stroke-opacity:1" d="M 801.269 576.87 C 812.772 427.07 720.622 321.983 512.037 325.389 C 303.453 328.794 213.751 428.031 222.805 576.87 C 231.448 718.95 399.608 823.274 510.926 823.274 C 622.244 823.274 790.376 718.729 801.269 576.87 L 801.269 576.87 Z"></path>
    <path style="display:inline;opacity:1;fill:#000000;fill-opacity:1;stroke:#000000;stroke-width:0;stroke-linecap:round;stroke-linejoin:round;stroke-miterlimit:4;stroke-dasharray:none;stroke-opacity:1" d="M 610.536 644.289 C 610.536 667.401 629.242 686.137 652.317 686.137 C 675.392 686.137 694.098 667.401 694.098 644.289 C 694.098 621.177 675.392 602.441 652.317 602.441 C 629.242 602.441 610.536 621.177 610.536 644.289 L 610.536 644.289 Z M 329.976 644.289 C 329.976 667.614 348.855 686.523 372.142 686.523 C 395.43 686.523 414.308 667.614 414.308 644.289 C 414.308 620.964 395.43 602.056 372.142 602.056 C 348.855 602.056 329.976 620.964 329.976 644.289 Z"></path>
    <path style="display:inline;opacity:1;fill:none;stroke:#000000;stroke-width:32;stroke-linecap:round;stroke-linejoin:miter;stroke-miterlimit:4;stroke-dasharray:none;stroke-opacity:1" d="M 339.767 769.247 L 285.222 841.472 M 684.308 769.247 L 738.852 841.472 M 263.721 697.82 L 175.965 733.644 M 755.823 697.82 L 843.578 733.644"></path>
    <path style="display:inline;opacity:1;fill:#ffffff;fill-opacity:1;stroke:#000000;stroke-width:28;stroke-linecap:round;stroke-linejoin:round;stroke-miterlimit:4;stroke-dasharray:none;stroke-opacity:1" d="M 512.038 713.09 C 466.174 713.09 436.908 744.935 437.897 784.191 C 438.967 826.703 470.365 855.294 512.038 855.294 C 553.711 855.294 586.089 822.298 586.18 784.191 C 586.273 744.922 557.902 713.09 512.038 713.09 Z"></path>
  </g>
</svg>