<?xml version="1.0" encoding="utf-8"?>
<svg xmlns="http://www.w3.org/2000/svg" xmlns:xlink="http://www.w3.org/1999/xlink" 
fill="#000000" viewBox="0 0 16.465 28.961">
<g>
	<path d="M14,25.907c0-0.522-0.424-0.946-0.946-0.946H2.946C2.424,24.961,2,25.385,2,25.907v2.107c0,0.522,0.424,0.946,0.946,0.946
		h10.107c0.522,0,0.946-0.424,0.946-0.946V25.907z"/>
	<path d="M13.428,19.315l2.617-6.453c0.757-1.868,0.478-3.996-0.736-5.605l-5.305-7.032C9.906,0.095,9.575,0.042,9.42,0.094
		C9.265,0.146,9,0.291,9,0.454v10.057c1,0.372,1.644,1.237,1.644,2.245c0,1.348-1.012,2.441-2.36,2.441
		c-1.347,0-2.562-1.094-2.562-2.441C5.722,11.783,6,10.949,7,10.558V0.419c0-0.163,0.057-0.308-0.098-0.36
		C6.749,0.007,6.658,0.058,6.559,0.187L1.152,7.254C-0.092,8.867-0.366,11.02,0.4,12.908l2.681,6.581
		c-0.392,0.366-0.64,0.885-0.64,1.492c0,1.104,0.824,1.98,1.834,1.98h8.174c1.01,0,1.829-0.877,1.829-1.98
		C14.278,20.27,13.938,19.67,13.428,19.315z"/>
</g>
</svg>