<?xml version="1.0" encoding="utf-8"?>
<svg version="1.1" xmlns="http://www.w3.org/2000/svg" xmlns:xlink="http://www.w3.org/1999/xlink" xml:space="preserve" 
viewBox="0 0 1200 1200">
	<path d="M30.702,440.542V92.705C33.358,39.559,76.183,0.64,123.407,0h347.836
	c55.938,3.476,122.726,25.407,158.596,65.89l514.859,573.089c32.341,40.942,33.256,97.599,0,131.778l-403,403
	c-39.514,35.748-98.47,34.227-131.779,0L96.591,599.137C59.17,554.944,31.218,495.859,30.702,440.542z M181.635,239.808
	c2.193,51.71,42.984,89.029,88.875,89.641c51.859-2.316,89.028-43.651,89.641-89.641c-2.283-51.883-43.829-88.273-89.641-88.875
	C218.775,153.094,182.234,194.096,181.635,239.808L181.635,239.808z"/>
</svg>