<?xml version="1.0" encoding="utf-8"?>
<svg xmlns="http://www.w3.org/2000/svg" xmlns:xlink="http://www.w3.org/1999/xlink" 
viewBox="0 0 256 256">
<g style="stroke: none; stroke-width: 0; stroke-dasharray: none; stroke-linecap: butt; stroke-linejoin: miter; stroke-miterlimit: 10; fill: none; fill-rule: nonzero; opacity: 1;" transform="translate(1.4065934065934016 1.4065934065934016) scale(2.81 2.81)" >
	<path d="M 66.537 41.713 c -0.388 -0.186 -0.781 -0.365 -1.18 -0.536 c -0.695 -12.8 -7.689 -20.128 -19.433 -20.203 c -0.053 0 -0.106 0 -0.159 0 c -7.025 0 -12.867 2.998 -16.462 8.455 l 6.459 4.431 c 2.686 -4.076 6.902 -4.944 10.007 -4.944 c 0.036 0 0.072 0 0.107 0 c 3.867 0.025 6.785 1.149 8.673 3.341 c 1.374 1.596 2.294 3.802 2.749 6.586 c -3.428 -0.583 -7.136 -0.762 -11.1 -0.535 c -11.166 0.643 -18.344 7.155 -17.862 16.204 c 0.245 4.59 2.531 8.539 6.438 11.118 c 3.303 2.181 7.558 3.247 11.98 3.006 c 5.84 -0.32 10.421 -2.548 13.617 -6.622 c 2.427 -3.094 3.962 -7.103 4.64 -12.155 c 2.783 1.68 4.845 3.89 5.985 6.547 c 1.937 4.516 2.05 11.938 -4.006 17.989 c -5.306 5.301 -11.684 7.594 -21.322 7.665 c -10.692 -0.079 -18.778 -3.508 -24.035 -10.192 C 16.708 65.609 14.164 56.57 14.069 45 c 0.095 -11.57 2.639 -20.609 7.562 -26.867 C 26.888 11.449 34.974 8.02 45.666 7.941 c 10.769 0.08 18.996 3.525 24.455 10.241 c 2.677 3.293 4.695 7.435 6.025 12.264 l 7.569 -2.019 c -1.613 -5.944 -4.15 -11.066 -7.603 -15.313 C 69.114 4.503 58.88 0.091 45.693 0 H 45.64 c -13.16 0.091 -23.28 4.52 -30.079 13.162 c -6.05 7.691 -9.171 18.392 -9.275 31.806 l 0 0.032 l 0 0.032 c 0.105 13.414 3.226 24.116 9.275 31.806 C 22.359 85.48 32.479 89.909 45.64 90 h 0.053 c 11.7 -0.081 19.947 -3.144 26.741 -9.932 c 8.889 -8.88 8.621 -20.012 5.692 -26.845 C 76.024 48.322 72.016 44.342 66.537 41.713 z M 46.335 60.706 c -4.894 0.276 -9.978 -1.921 -10.229 -6.626 c -0.186 -3.488 2.483 -7.381 10.529 -7.845 c 0.921 -0.053 1.826 -0.079 2.714 -0.079 c 2.923 0 5.657 0.284 8.143 0.827 C 56.565 58.563 51.127 60.443 46.335 60.706 z" style="stroke: none; stroke-width: 1; stroke-dasharray: none; stroke-linecap: butt; stroke-linejoin: miter; stroke-miterlimit: 10; fill: rgb(0,0,0); fill-rule: nonzero; opacity: 1;" transform=" matrix(1 0 0 1 0 0) " stroke-linecap="round" />
</g>
</svg>