<?xml version="1.0" encoding="utf-8"?>
<svg xmlns="http://www.w3.org/2000/svg" xmlns:xlink="http://www.w3.org/1999/xlink" 
viewBox="0 0 1024 1024">
  <path d="M788.9 635.2c0 8.3-3 15.6-9.1 21.6-6.1 6.1-13.3 9.1-21.6 9.1H551.9l-24.6 232.3c-0.6 3.8-2.3 7.2-5.1 9.8-2.7 2.7-6 4-9.8 4h-0.5c-8.7 0-13.8-4.3-15.4-12.9L460 665.9H265.8c-8.3 0-15.6-3-21.6-9.1-6.1-6.1-9.1-13.3-9.1-21.6 0-39.4 12.5-74.9 37.7-106.5 25.2-31.5 53.6-47.3 85.3-47.3V235.2c-16.7 0-31-6.1-43.3-18.3-12.1-12.1-18.3-26.6-18.3-43.3s6.1-31 18.3-43.3c12.1-12.1 26.6-18.3 43.3-18.3h307.7c16.7 0 31 6.1 43.3 18.3 12.1 12.2 18.3 26.6 18.3 43.3s-6.1 31-18.3 43.3-26.6 18.3-43.3 18.3v246.1c31.7 0 60.2 15.8 85.3 47.3 25.2 31.6 37.8 67.1 37.8 106.6zM465.8 465.9V250.5c0-4.4-1.4-8.2-4.3-11-2.9-2.9-6.6-4.3-11-4.3s-8.2 1.4-11 4.3c-2.9 2.9-4.3 6.6-4.3 11v215.4c0 4.4 1.4 8.2 4.3 11 2.9 2.9 6.6 4.3 11 4.3s8.2-1.4 11-4.3c2.8-2.8 4.3-6.5 4.3-11z" />
</svg>