<?xml version="1.0" encoding="utf-8"?>
<svg version="1.0" xmlns="http://www.w3.org/2000/svg"
 width="820.000000pt" height="820.000000pt" 
 viewBox="0 0 820.000000 820.000000"
 preserveAspectRatio="xMidYMid meet">
<g transform="translate(0.000000,820.000000) scale(0.100000,-0.100000)"
fill="#000000" stroke="none">
<path d="M0 4100 l0 -4100 4100 0 4100 0 0 4100 0 4100 -4100 0 -4100 0 0
-4100z m7514 2285 c91 -19 151 -49 204 -103 61 -61 94 -136 95 -220 1 -85 -27
-177 -52 -167 -9 4 -28 11 -43 17 l-27 9 15 42 c40 110 7 226 -80 284 -63 43
-114 56 -213 55 -332 -3 -814 -365 -1389 -1042 -45 -52 -195 -239 -334 -415
-610 -770 -942 -1139 -1395 -1550 -394 -358 -670 -573 -980 -765 -154 -96
-508 -275 -650 -329 -60 -23 -164 -73 -230 -110 -218 -125 -382 -196 -552
-238 -94 -24 -128 -27 -263 -28 -136 0 -164 3 -225 23 -92 31 -151 70 -223
146 -75 81 -104 142 -110 229 -5 84 13 137 65 191 49 50 105 76 169 76 44 0
77 -14 295 -123 260 -131 316 -150 476 -167 126 -14 343 4 398 33 47 24 219
170 339 287 424 413 806 992 988 1495 92 256 138 490 138 710 0 310 -79 529
-262 726 -139 149 -336 247 -583 289 -141 24 -426 12 -630 -26 -197 -36 -273
-70 -349 -154 -64 -71 -98 -170 -58 -170 33 0 79 -38 101 -82 35 -73 29 -142
-21 -252 -51 -112 -58 -189 -20 -228 29 -31 28 -35 -8 -43 -126 -28 -289 238
-259 423 13 83 73 163 135 178 21 5 24 12 24 49 0 27 10 63 28 99 16 31 26 56
22 56 -3 0 -63 -29 -133 -64 -348 -176 -654 -480 -857 -852 -39 -71 -84 -172
-101 -224 -28 -86 -30 -105 -27 -195 3 -83 9 -110 32 -162 15 -34 39 -71 52
-84 l23 -22 53 23 c128 55 263 17 387 -109 74 -76 134 -110 193 -111 39 0 88
17 88 32 0 4 4 8 10 8 19 0 22 -48 5 -84 -66 -139 -383 -220 -573 -148 -141
54 -237 201 -204 310 10 33 9 37 -29 80 -22 25 -52 72 -68 105 l-29 60 -9 -59
c-15 -108 -9 -421 10 -499 35 -144 101 -266 188 -354 217 -215 631 -281 982
-154 170 61 277 130 350 226 55 73 77 124 77 184 l0 52 -53 -6 c-110 -11 -221
71 -264 198 -13 38 -24 103 -28 159 -11 165 -62 262 -138 262 -34 0 -35 1 -25
24 14 31 46 51 99 63 104 24 261 -39 366 -147 161 -165 207 -350 120 -476 -17
-24 -21 -47 -23 -115 -2 -87 -25 -176 -58 -223 -24 -33 -20 -38 27 -38 90 0
157 -64 157 -150 0 -60 -28 -101 -57 -84 -10 6 -22 26 -27 43 -14 50 -54 66
-161 65 -89 -1 -91 -1 -199 -57 -202 -106 -373 -143 -619 -134 -166 5 -249 22
-390 78 -149 60 -275 163 -353 289 l-39 63 -12 -61 c-30 -149 -117 -228 -227
-208 -45 9 -106 75 -106 115 0 37 11 45 36 26 57 -43 155 18 213 132 33 66 36
143 11 238 -31 114 -39 358 -16 514 56 376 255 752 560 1056 l121 120 -80 1
c-87 2 -151 23 -215 72 -19 15 -39 26 -44 24 -34 -11 -111 -1 -160 21 -142 65
-221 220 -219 432 2 206 80 355 188 355 29 0 31 -7 10 -34 -8 -11 -15 -40 -15
-65 0 -63 46 -131 134 -196 39 -29 87 -70 107 -92 98 -108 117 -274 42 -363
-25 -30 -25 -31 -7 -45 31 -24 114 -45 176 -45 108 0 190 26 288 91 262 174
577 309 863 370 l59 13 -29 14 c-38 19 -101 80 -120 116 -21 39 -20 119 2 152
9 14 32 32 50 40 50 20 56 18 44 -13 -31 -83 63 -268 147 -289 13 -3 61 -1
106 5 137 19 373 25 493 12 575 -62 957 -321 1088 -736 118 -375 6 -950 -277
-1428 -232 -392 -628 -864 -1006 -1198 -52 -46 -115 -101 -140 -123 -43 -37
-41 -36 80 26 321 165 688 427 1095 782 405 354 718 712 1171 1340 371 516
429 595 543 740 516 661 979 1023 1420 1111 89 18 251 18 335 0z"/>
<path d="M1426 2199 c-112 -18 -131 -113 -40 -204 77 -78 180 -104 330 -86
154 19 315 70 479 153 l69 35 -154 5 c-139 5 -171 9 -315 46 -144 36 -186 45
-290 56 -16 2 -52 0 -79 -5z"/>
</g>
</svg>
