<?xml version="1.0"?>
<svg width="1024" height="660"
     xmlns="http://www.w3.org/2000/svg"
     shape-rendering="crispEdges">
<polygon points="524,322 535,330 531,299" style="fill:rgb(191,132,76)"/>
<polygon points="535,330 547,297 531,299" style="fill:rgb(240,125,46)"/>
<polygon points="547,297 540,293 531,299" style="fill:rgb(241,154,83)"/>
<polygon points="535,330 559,303 547,297" style="fill:rgb(216,53,9)"/>
<polygon points="547,297 558,267 540,293" style="fill:rgb(242,119,19)"/>
<polygon points="553,385 545,341 526,396" style="fill:rgb(148,27,6)"/>
<polygon points="535,330 545,341 559,303" style="fill:rgb(196,35,8)"/>
<polygon points="558,346 566,303 559,303" style="fill:rgb(218,75,15)"/>
<polygon points="559,303 558,267 547,297" style="fill:rgb(220,48,9)"/>
<polygon points="545,341 558,346 559,303" style="fill:rgb(167,12,7)"/>
<polygon points="575,273 558,267 559,303" style="fill:rgb(197,11,9)"/>
<polygon points="540,293 547,263 531,299" style="fill:rgb(218,169,113)"/>
<polygon points="558,267 547,263 540,293" style="fill:rgb(237,161,96)"/>
<polygon points="633,375 581,282 566,303" style="fill:rgb(244,173,59)"/>
<polygon points="566,303 575,273 559,303" style="fill:rgb(220,67,10)"/>
<polygon points="581,282 575,273 566,303" style="fill:rgb(247,131,23)"/>
<polygon points="558,267 565,259 547,263" style="fill:rgb(244,169,71)"/>
<polygon points="575,273 565,259 558,267" style="fill:rgb(221,37,10)"/>
<polygon points="526,396 545,341 535,330" style="fill:rgb(196,59,9)"/>
<polygon points="545,341 553,385 558,346" style="fill:rgb(151,18,6)"/>
<polygon points="558,346 599,382 566,303" style="fill:rgb(237,148,69)"/>
<polygon points="547,263 507,243 531,299" style="fill:rgb(47,55,13)"/>
<polygon points="531,299 507,243 524,322" style="fill:rgb(43,53,12)"/>
<polygon points="579,217 507,243 547,263" style="fill:rgb(60,68,20)"/>
<polygon points="520,399 526,396 524,322" style="fill:rgb(199,153,86)"/>
<polygon points="524,322 526,396 535,330" style="fill:rgb(238,117,44)"/>
<polygon points="418,379 520,399 524,322" style="fill:rgb(76,92,35)"/>
<polygon points="563,457 599,382 553,385" style="fill:rgb(222,138,65)"/>
<polygon points="531,436 553,385 526,396" style="fill:rgb(128,23,5)"/>
<polygon points="553,385 599,382 558,346" style="fill:rgb(231,138,66)"/>
<polygon points="597,231 591,230 575,273" style="fill:rgb(231,73,12)"/>
<polygon points="575,273 591,230 565,259" style="fill:rgb(212,8,11)"/>
<polygon points="565,259 579,217 547,263" style="fill:rgb(240,188,76)"/>
<polygon points="597,231 575,273 581,282" style="fill:rgb(249,162,15)"/>
<polygon points="648,250 597,231 581,282" style="fill:rgb(250,201,27)"/>
<polygon points="597,209 585,223 591,230" style="fill:rgb(237,96,9)"/>
<polygon points="591,230 585,223 565,259" style="fill:rgb(235,70,11)"/>
<polygon points="597,209 579,217 585,223" style="fill:rgb(251,215,60)"/>
<polygon points="585,223 579,217 565,259" style="fill:rgb(248,204,46)"/>
<polygon points="617,437 633,375 599,382" style="fill:rgb(241,179,47)"/>
<polygon points="599,382 633,375 566,303" style="fill:rgb(240,172,56)"/>
<polygon points="520,399 524,432 526,396" style="fill:rgb(208,133,59)"/>
<polygon points="610,206 597,209 597,231" style="fill:rgb(231,36,11)"/>
<polygon points="597,231 597,209 591,230" style="fill:rgb(228,31,9)"/>
<polygon points="579,217 512,176 507,243" style="fill:rgb(72,85,36)"/>
<polygon points="524,432 531,436 526,396" style="fill:rgb(228,94,8)"/>
<polygon points="633,375 648,250 581,282" style="fill:rgb(248,189,35)"/>
<polygon points="648,250 610,206 597,231" style="fill:rgb(251,214,18)"/>
<polygon points="603,196 594,195 597,209" style="fill:rgb(244,168,11)"/>
<polygon points="597,209 594,195 579,217" style="fill:rgb(230,202,34)"/>
<polygon points="507,243 405,304 524,322" style="fill:rgb(44,51,17)"/>
<polygon points="520,399 459,430 524,432" style="fill:rgb(65,76,25)"/>
<polygon points="618,200 603,196 610,206" style="fill:rgb(230,107,9)"/>
<polygon points="610,206 603,196 597,209" style="fill:rgb(245,130,7)"/>
<polygon points="405,304 418,379 524,322" style="fill:rgb(52,58,21)"/>
<polygon points="536,464 544,460 531,436" style="fill:rgb(161,66,7)"/>
<polygon points="648,250 618,200 610,206" style="fill:rgb(251,219,33)"/>
<polygon points="594,195 512,176 579,217" style="fill:rgb(81,104,53)"/>
<polygon points="507,243 401,195 405,304" style="fill:rgb(65,69,29)"/>
<polygon points="597,183 512,176 594,195" style="fill:rgb(86,109,57)"/>
<polygon points="418,379 459,430 520,399" style="fill:rgb(74,89,30)"/>
<polygon points="653,429 667,373 633,375" style="fill:rgb(235,150,60)"/>
<polygon points="633,375 667,373 648,250" style="fill:rgb(246,161,58)"/>
<polygon points="611,190 597,183 603,196" style="fill:rgb(102,104,48)"/>
<polygon points="603,196 597,183 594,195" style="fill:rgb(236,185,95)"/>
<polygon points="544,460 557,456 531,436" style="fill:rgb(107,28,4)"/>
<polygon points="531,436 557,456 553,385" style="fill:rgb(86,21,3)"/>
<polygon points="618,200 611,190 603,196" style="fill:rgb(216,103,13)"/>
<polygon points="557,456 563,457 553,385" style="fill:rgb(186,83,26)"/>
<polygon points="563,457 617,437 599,382" style="fill:rgb(220,150,50)"/>
<polygon points="536,464 531,436 524,432" style="fill:rgb(206,94,9)"/>
<polygon points="557,456 569,483 563,457" style="fill:rgb(166,92,30)"/>
<polygon points="377,317 392,314 364,254" style="fill:rgb(217,100,5)"/>
<polygon points="405,304 392,314 418,379" style="fill:rgb(90,72,18)"/>
<polygon points="486,457 536,464 524,432" style="fill:rgb(82,99,36)"/>
<polygon points="544,460 569,483 557,456" style="fill:rgb(74,32,5)"/>
<polygon points="392,314 406,386 418,379" style="fill:rgb(123,86,14)"/>
<polygon points="418,379 406,386 459,430" style="fill:rgb(71,81,22)"/>
<polygon points="499,491 486,457 403,476" style="fill:rgb(109,159,52)"/>
<polygon points="459,430 486,457 524,432" style="fill:rgb(72,87,34)"/>
<polygon points="611,190 608,171 597,183" style="fill:rgb(81,90,42)"/>
<polygon points="597,183 589,90 512,176" style="fill:rgb(95,115,62)"/>
<polygon points="613,165 608,171 621,169" style="fill:rgb(218,199,55)"/>
<polygon points="642,191 611,190 618,200" style="fill:rgb(242,117,25)"/>
<polygon points="673,198 642,191 648,250" style="fill:rgb(248,133,8)"/>
<polygon points="648,250 642,191 618,200" style="fill:rgb(243,126,8)"/>
<polygon points="364,254 392,314 405,304" style="fill:rgb(134,89,14)"/>
<polygon points="392,314 377,317 406,386" style="fill:rgb(222,111,8)"/>
<polygon points="638,469 653,429 617,437" style="fill:rgb(221,154,19)"/>
<polygon points="617,437 653,429 633,375" style="fill:rgb(231,159,41)"/>
<polygon points="563,457 612,461 617,437" style="fill:rgb(211,147,27)"/>
<polygon points="569,483 612,461 563,457" style="fill:rgb(196,129,31)"/>
<polygon points="621,169 608,171 611,190" style="fill:rgb(229,166,30)"/>
<polygon points="589,90 506,100 512,176" style="fill:rgb(99,97,63)"/>
<polygon points="642,191 621,169 611,190" style="fill:rgb(246,123,5)"/>
<polygon points="571,501 569,483 536,464" style="fill:rgb(129,83,7)"/>
<polygon points="536,464 569,483 544,460" style="fill:rgb(130,71,6)"/>
<polygon points="642,191 639,173 621,169" style="fill:rgb(98,88,15)"/>
<polygon points="621,169 653,163 613,165" style="fill:rgb(76,78,26)"/>
<polygon points="705,385 713,299 667,373" style="fill:rgb(232,100,12)"/>
<polygon points="667,373 713,299 648,250" style="fill:rgb(241,104,9)"/>
<polygon points="642,191 653,163 639,173" style="fill:rgb(218,165,12)"/>
<polygon points="692,468 682,418 653,429" style="fill:rgb(235,127,28)"/>
<polygon points="653,429 682,418 667,373" style="fill:rgb(238,139,47)"/>
<polygon points="709,251 673,198 648,250" style="fill:rgb(244,131,12)"/>
<polygon points="682,418 705,385 667,373" style="fill:rgb(235,102,11)"/>
<polygon points="407,458 486,457 459,430" style="fill:rgb(86,120,45)"/>
<polygon points="486,457 499,491 536,464" style="fill:rgb(89,125,44)"/>
<polygon points="512,176 401,195 507,243" style="fill:rgb(71,81,31)"/>
<polygon points="713,299 709,251 648,250" style="fill:rgb(242,115,11)"/>
<polygon points="692,194 677,196 673,198" style="fill:rgb(165,99,6)"/>
<polygon points="673,198 653,163 642,191" style="fill:rgb(245,164,8)"/>
<polygon points="401,195 364,254 405,304" style="fill:rgb(82,80,37)"/>
<polygon points="577,496 638,469 612,461" style="fill:rgb(192,139,10)"/>
<polygon points="612,461 638,469 617,437" style="fill:rgb(228,172,13)"/>
<polygon points="377,317 368,385 406,386" style="fill:rgb(246,169,45)"/>
<polygon points="406,386 407,458 459,430" style="fill:rgb(76,86,28)"/>
<polygon points="327,373 368,385 377,317" style="fill:rgb(253,191,5)"/>
<polygon points="571,501 577,496 569,483" style="fill:rgb(146,95,17)"/>
<polygon points="569,483 577,496 612,461" style="fill:rgb(166,107,17)"/>
<polygon points="677,196 653,163 673,198" style="fill:rgb(103,87,9)"/>
<polygon points="639,173 653,163 621,169" style="fill:rgb(92,88,24)"/>
<polygon points="507,502 571,501 536,464" style="fill:rgb(86,106,26)"/>
<polygon points="577,496 653,499 638,469" style="fill:rgb(164,126,9)"/>
<polygon points="653,499 653,466 638,469" style="fill:rgb(147,95,7)"/>
<polygon points="638,469 653,466 653,429" style="fill:rgb(200,124,12)"/>
<polygon points="714,446 731,384 705,385" style="fill:rgb(231,134,12)"/>
<polygon points="459,566 507,502 499,491" style="fill:rgb(75,93,27)"/>
<polygon points="499,491 507,502 536,464" style="fill:rgb(85,114,36)"/>
<polygon points="713,299 720,255 709,251" style="fill:rgb(218,59,8)"/>
<polygon points="709,251 715,240 673,198" style="fill:rgb(221,77,6)"/>
<polygon points="677,196 680,160 653,163" style="fill:rgb(83,79,15)"/>
<polygon points="734,300 720,255 713,299" style="fill:rgb(225,76,8)"/>
<polygon points="720,255 715,240 709,251" style="fill:rgb(237,112,10)"/>
<polygon points="715,240 692,194 673,198" style="fill:rgb(227,113,7)"/>
<polygon points="336,227 349,268 364,254" style="fill:rgb(226,157,5)"/>
<polygon points="364,254 349,268 377,317" style="fill:rgb(236,139,4)"/>
<polygon points="393,454 407,458 406,386" style="fill:rgb(162,132,30)"/>
<polygon points="731,384 734,300 713,299" style="fill:rgb(206,48,7)"/>
<polygon points="720,255 728,248 715,240" style="fill:rgb(246,156,63)"/>
<polygon points="715,240 701,192 692,194" style="fill:rgb(253,219,81)"/>
<polygon points="745,297 728,248 720,255" style="fill:rgb(241,158,87)"/>
<polygon points="728,248 723,235 715,240" style="fill:rgb(248,189,87)"/>
<polygon points="377,453 393,454 406,386" style="fill:rgb(219,153,41)"/>
<polygon points="407,458 403,476 486,457" style="fill:rgb(96,140,50)"/>
<polygon points="701,192 698,190 692,194" style="fill:rgb(247,222,74)"/>
<polygon points="692,194 680,160 677,196" style="fill:rgb(228,146,10)"/>
<polygon points="506,100 464,125 512,176" style="fill:rgb(85,81,54)"/>
<polygon points="512,176 464,125 401,195" style="fill:rgb(84,83,48)"/>
<polygon points="597,183 608,171 589,90" style="fill:rgb(85,98,54)"/>
<polygon points="723,235 701,192 715,240" style="fill:rgb(245,207,79)"/>
<polygon points="738,385 731,384 714,446" style="fill:rgb(170,50,8)"/>
<polygon points="705,385 731,384 713,299" style="fill:rgb(239,112,12)"/>
<polygon points="728,248 732,246 723,235" style="fill:rgb(142,108,29)"/>
<polygon points="723,235 764,168 701,192" style="fill:rgb(63,72,11)"/>
<polygon points="745,297 732,246 728,248" style="fill:rgb(174,129,53)"/>
<polygon points="751,379 745,297 734,300" style="fill:rgb(240,158,84)"/>
<polygon points="734,300 745,297 720,255" style="fill:rgb(245,142,70)"/>
<polygon points="698,190 680,160 692,194" style="fill:rgb(253,227,42)"/>
<polygon points="589,90 608,171 613,165" style="fill:rgb(89,96,49)"/>
<polygon points="686,150 680,160 698,190" style="fill:rgb(231,204,32)"/>
<polygon points="393,454 403,476 407,458" style="fill:rgb(121,135,57)"/>
<polygon points="464,125 445,124 401,195" style="fill:rgb(103,86,54)"/>
<polygon points="401,195 355,201 364,254" style="fill:rgb(79,80,34)"/>
<polygon points="714,446 705,385 682,418" style="fill:rgb(216,105,7)"/>
<polygon points="731,384 744,379 734,300" style="fill:rgb(231,83,6)"/>
<polygon points="368,385 377,453 406,386" style="fill:rgb(239,171,49)"/>
<polygon points="393,454 376,475 403,476" style="fill:rgb(146,138,55)"/>
<polygon points="337,413 377,453 368,385" style="fill:rgb(249,190,6)"/>
<polygon points="349,268 324,327 377,317" style="fill:rgb(254,207,2)"/>
<polygon points="360,121 355,201 401,195" style="fill:rgb(88,98,47)"/>
<polygon points="349,268 311,279 324,327" style="fill:rgb(255,215,1)"/>
<polygon points="738,385 744,379 731,384" style="fill:rgb(224,84,5)"/>
<polygon points="464,125 455,33 445,124" style="fill:rgb(107,65,57)"/>
<polygon points="589,90 613,165 613,84" style="fill:rgb(81,82,41)"/>
<polygon points="557,532 586,525 571,501" style="fill:rgb(54,62,10)"/>
<polygon points="571,501 586,525 577,496" style="fill:rgb(84,76,11)"/>
<polygon points="557,532 571,501 507,502" style="fill:rgb(65,75,11)"/>
<polygon points="400,102 420,132 445,124" style="fill:rgb(148,92,63)"/>
<polygon points="445,124 420,132 401,195" style="fill:rgb(115,99,58)"/>
<polygon points="355,201 342,220 364,254" style="fill:rgb(83,89,43)"/>
<polygon points="675,499 692,468 653,466" style="fill:rgb(199,112,16)"/>
<polygon points="653,466 692,468 653,429" style="fill:rgb(216,125,30)"/>
<polygon points="751,383 751,379 744,379" style="fill:rgb(159,127,50)"/>
<polygon points="586,525 653,499 577,496" style="fill:rgb(103,81,13)"/>
<polygon points="481,587 557,532 507,502" style="fill:rgb(52,64,11)"/>
<polygon points="324,327 327,373 377,317" style="fill:rgb(254,194,3)"/>
<polygon points="692,468 714,446 682,418" style="fill:rgb(207,121,7)"/>
<polygon points="300,217 336,227 342,220" style="fill:rgb(202,162,14)"/>
<polygon points="342,220 336,227 364,254" style="fill:rgb(163,145,26)"/>
<polygon points="701,192 686,150 698,190" style="fill:rgb(133,123,23)"/>
<polygon points="680,160 686,150 653,163" style="fill:rgb(106,97,42)"/>
<polygon points="705,108 686,150 764,168" style="fill:rgb(65,71,15)"/>
<polygon points="751,383 744,379 738,385" style="fill:rgb(231,121,35)"/>
<polygon points="744,379 751,379 734,300" style="fill:rgb(244,123,32)"/>
<polygon points="731,461 751,383 738,385" style="fill:rgb(227,113,21)"/>
<polygon points="327,373 337,413 368,385" style="fill:rgb(252,184,8)"/>
<polygon points="713,461 718,451 714,446" style="fill:rgb(69,21,3)"/>
<polygon points="714,446 718,451 738,385" style="fill:rgb(114,34,5)"/>
<polygon points="713,461 714,446 692,468" style="fill:rgb(105,67,7)"/>
<polygon points="677,512 713,461 692,468" style="fill:rgb(84,52,6)"/>
<polygon points="377,453 376,475 393,454" style="fill:rgb(191,136,36)"/>
<polygon points="403,476 419,549 499,491" style="fill:rgb(93,136,45)"/>
<polygon points="366,491 376,475 325,479" style="fill:rgb(182,140,11)"/>
<polygon points="731,461 738,385 718,451" style="fill:rgb(161,57,6)"/>
<polygon points="731,461 757,383 751,383" style="fill:rgb(109,99,34)"/>
<polygon points="751,383 757,383 751,379" style="fill:rgb(70,88,27)"/>
<polygon points="751,379 775,289 745,297" style="fill:rgb(70,77,30)"/>
<polygon points="641,97 613,165 653,163" style="fill:rgb(71,70,18)"/>
<polygon points="336,227 311,279 349,268" style="fill:rgb(251,203,2)"/>
<polygon points="324,327 309,338 327,373" style="fill:rgb(254,174,16)"/>
<polygon points="653,499 675,499 653,466" style="fill:rgb(143,85,10)"/>
<polygon points="677,512 675,499 653,499" style="fill:rgb(133,83,7)"/>
<polygon points="311,279 309,338 324,327" style="fill:rgb(253,189,2)"/>
<polygon points="327,373 305,399 337,413" style="fill:rgb(251,163,47)"/>
<polygon points="793,294 775,289 751,379" style="fill:rgb(79,89,40)"/>
<polygon points="745,297 775,289 732,246" style="fill:rgb(45,46,14)"/>
<polygon points="732,246 776,238 723,235" style="fill:rgb(54,56,16)"/>
<polygon points="686,150 641,97 653,163" style="fill:rgb(84,79,20)"/>
<polygon points="641,97 613,84 613,165" style="fill:rgb(69,71,23)"/>
<polygon points="589,90 511,54 506,100" style="fill:rgb(83,68,51)"/>
<polygon points="649,531 677,512 653,499" style="fill:rgb(99,69,9)"/>
<polygon points="675,499 677,512 692,468" style="fill:rgb(204,138,12)"/>
<polygon points="649,531 653,499 586,525" style="fill:rgb(73,60,21)"/>
<polygon points="713,461 731,461 718,451" style="fill:rgb(164,95,8)"/>
<polygon points="677,512 731,461 713,461" style="fill:rgb(131,93,10)"/>
<polygon points="620,550 649,531 586,525" style="fill:rgb(37,30,13)"/>
<polygon points="325,479 376,475 377,453" style="fill:rgb(212,158,8)"/>
<polygon points="376,475 366,491 403,476" style="fill:rgb(145,146,65)"/>
<polygon points="325,479 377,453 337,413" style="fill:rgb(235,169,7)"/>
<polygon points="265,328 305,399 309,338" style="fill:rgb(248,118,4)"/>
<polygon points="309,338 305,399 327,373" style="fill:rgb(252,155,40)"/>
<polygon points="280,264 292,277 311,279" style="fill:rgb(254,165,2)"/>
<polygon points="311,279 292,277 309,338" style="fill:rgb(252,162,3)"/>
<polygon points="300,217 311,279 336,227" style="fill:rgb(249,190,3)"/>
<polygon points="775,289 776,238 732,246" style="fill:rgb(58,59,17)"/>
<polygon points="686,150 705,108 641,97" style="fill:rgb(82,78,26)"/>
<polygon points="572,581 586,525 557,532" style="fill:rgb(36,40,7)"/>
<polygon points="572,581 620,550 586,525" style="fill:rgb(21,24,5)"/>
<polygon points="400,83 400,102 445,124" style="fill:rgb(152,84,72)"/>
<polygon points="420,132 360,121 401,195" style="fill:rgb(115,118,64)"/>
<polygon points="297,208 300,217 342,220" style="fill:rgb(149,142,48)"/>
<polygon points="455,33 464,125 506,100" style="fill:rgb(80,65,48)"/>
<polygon points="757,383 793,294 751,379" style="fill:rgb(85,104,42)"/>
<polygon points="775,289 793,294 776,238" style="fill:rgb(84,82,34)"/>
<polygon points="814,382 793,294 757,383" style="fill:rgb(97,119,50)"/>
<polygon points="297,208 342,220 355,201" style="fill:rgb(94,97,50)"/>
<polygon points="620,550 636,552 649,531" style="fill:rgb(75,49,15)"/>
<polygon points="649,531 665,551 677,512" style="fill:rgb(163,173,93)"/>
<polygon points="765,523 780,462 731,461" style="fill:rgb(51,57,16)"/>
<polygon points="365,509 398,533 403,476" style="fill:rgb(172,193,96)"/>
<polygon points="620,550 662,635 636,552" style="fill:rgb(70,35,11)"/>
<polygon points="342,520 365,509 366,491" style="fill:rgb(113,120,59)"/>
<polygon points="366,491 365,509 403,476" style="fill:rgb(152,166,78)"/>
<polygon points="589,55 511,54 589,90" style="fill:rgb(70,55,39)"/>
<polygon points="400,102 360,121 420,132" style="fill:rgb(128,103,66)"/>
<polygon points="300,217 280,264 311,279" style="fill:rgb(252,182,2)"/>
<polygon points="292,277 265,328 309,338" style="fill:rgb(252,139,2)"/>
<polygon points="360,121 297,208 355,201" style="fill:rgb(67,75,31)"/>
<polygon points="300,217 258,257 280,264" style="fill:rgb(239,204,19)"/>
<polygon points="678,59 589,55 613,84" style="fill:rgb(39,36,18)"/>
<polygon points="613,84 589,55 589,90" style="fill:rgb(67,59,35)"/>
<polygon points="366,574 419,549 398,533" style="fill:rgb(171,189,94)"/>
<polygon points="398,533 419,549 403,476" style="fill:rgb(140,175,72)"/>
<polygon points="419,549 459,566 499,491" style="fill:rgb(80,105,32)"/>
<polygon points="764,168 686,150 701,192" style="fill:rgb(64,73,11)"/>
<polygon points="641,97 678,59 613,84" style="fill:rgb(46,49,17)"/>
<polygon points="793,294 793,232 776,238" style="fill:rgb(106,107,41)"/>
<polygon points="776,238 764,168 723,235" style="fill:rgb(61,67,15)"/>
<polygon points="793,218 764,168 776,238" style="fill:rgb(69,72,24)"/>
<polygon points="657,559 649,531 636,552" style="fill:rgb(112,85,40)"/>
<polygon points="657,559 665,551 649,531" style="fill:rgb(122,135,74)"/>
<polygon points="400,102 385,89 360,121" style="fill:rgb(101,80,60)"/>
<polygon points="455,33 400,83 445,124" style="fill:rgb(130,70,69)"/>
<polygon points="481,587 572,581 557,532" style="fill:rgb(45,53,9)"/>
<polygon points="307,478 325,479 337,413" style="fill:rgb(233,153,35)"/>
<polygon points="793,232 793,218 776,238" style="fill:rgb(98,96,40)"/>
<polygon points="400,83 385,89 400,102" style="fill:rgb(114,71,65)"/>
<polygon points="662,635 657,559 636,552" style="fill:rgb(95,53,26)"/>
<polygon points="249,319 265,328 292,277" style="fill:rgb(250,136,6)"/>
<polygon points="305,399 307,478 337,413" style="fill:rgb(246,151,45)"/>
<polygon points="432,632 481,587 459,566" style="fill:rgb(47,58,16)"/>
<polygon points="459,566 481,587 507,502" style="fill:rgb(62,76,18)"/>
<polygon points="765,523 731,461 677,512" style="fill:rgb(37,40,10)"/>
<polygon points="731,461 780,462 757,383" style="fill:rgb(64,74,22)"/>
<polygon points="765,523 677,512 745,554" style="fill:rgb(56,60,24)"/>
<polygon points="260,404 307,478 305,399" style="fill:rgb(236,104,6)"/>
<polygon points="322,499 342,520 366,491" style="fill:rgb(112,95,23)"/>
<polygon points="365,509 366,574 398,533" style="fill:rgb(162,181,89)"/>
<polygon points="799,444 814,382 757,383" style="fill:rgb(98,122,54)"/>
<polygon points="793,294 841,258 793,232" style="fill:rgb(140,142,45)"/>
<polygon points="848,210 810,187 793,218" style="fill:rgb(71,62,33)"/>
<polygon points="322,499 366,491 325,479" style="fill:rgb(162,122,8)"/>
<polygon points="419,549 432,632 459,566" style="fill:rgb(75,88,37)"/>
<polygon points="307,478 322,499 325,479" style="fill:rgb(195,125,10)"/>
<polygon points="297,208 258,257 300,217" style="fill:rgb(154,145,39)"/>
<polygon points="280,264 249,319 292,277" style="fill:rgb(252,171,12)"/>
<polygon points="255,170 258,257 297,208" style="fill:rgb(74,71,35)"/>
<polygon points="385,89 298,82 360,121" style="fill:rgb(67,69,35)"/>
<polygon points="360,121 255,170 297,208" style="fill:rgb(61,68,27)"/>
<polygon points="400,83 394,66 385,89" style="fill:rgb(90,57,49)"/>
<polygon points="455,33 394,66 400,83" style="fill:rgb(96,62,57)"/>
<polygon points="814,382 826,313 793,294" style="fill:rgb(99,115,48)"/>
<polygon points="258,257 249,319 280,264" style="fill:rgb(251,221,79)"/>
<polygon points="265,328 260,404 305,399" style="fill:rgb(243,106,3)"/>
<polygon points="756,62 678,59 705,108" style="fill:rgb(44,47,16)"/>
<polygon points="705,108 678,59 641,97" style="fill:rgb(58,60,23)"/>
<polygon points="780,462 799,444 757,383" style="fill:rgb(85,99,45)"/>
<polygon points="233,392 260,404 265,328" style="fill:rgb(241,94,5)"/>
<polygon points="474,0 455,33 511,54" style="fill:rgb(51,40,27)"/>
<polygon points="511,54 455,33 506,100" style="fill:rgb(64,59,37)"/>
<polygon points="432,22 455,33 474,0" style="fill:rgb(54,45,30)"/>
<polygon points="810,187 789,150 764,168" style="fill:rgb(41,45,17)"/>
<polygon points="764,168 789,150 705,108" style="fill:rgb(51,60,15)"/>
<polygon points="810,187 764,168 793,218" style="fill:rgb(52,57,21)"/>
<polygon points="849,230 793,218 793,232" style="fill:rgb(115,100,42)"/>
<polygon points="848,382 841,322 814,382" style="fill:rgb(66,74,22)"/>
<polygon points="814,382 841,322 826,313" style="fill:rgb(84,91,31)"/>
<polygon points="826,313 841,258 793,294" style="fill:rgb(110,120,45)"/>
<polygon points="258,257 234,312 249,319" style="fill:rgb(248,217,69)"/>
<polygon points="249,319 233,392 265,328" style="fill:rgb(250,143,25)"/>
<polygon points="251,470 294,499 307,478" style="fill:rgb(184,115,7)"/>
<polygon points="307,478 294,499 322,499" style="fill:rgb(199,116,7)"/>
<polygon points="322,499 291,538 342,520" style="fill:rgb(85,67,14)"/>
<polygon points="342,520 366,574 365,509" style="fill:rgb(102,119,58)"/>
<polygon points="841,322 841,258 826,313" style="fill:rgb(88,92,29)"/>
<polygon points="709,571 677,512 665,551" style="fill:rgb(166,177,97)"/>
<polygon points="780,462 827,467 799,444" style="fill:rgb(65,72,31)"/>
<polygon points="694,584 709,571 665,551" style="fill:rgb(124,136,75)"/>
<polygon points="694,584 665,551 657,559" style="fill:rgb(92,98,63)"/>
<polygon points="474,0 511,54 589,55" style="fill:rgb(42,28,19)"/>
<polygon points="455,33 432,22 394,66" style="fill:rgb(76,59,46)"/>
<polygon points="687,590 694,584 657,559" style="fill:rgb(64,67,42)"/>
<polygon points="709,571 732,561 677,512" style="fill:rgb(148,161,85)"/>
<polygon points="687,590 657,559 662,635" style="fill:rgb(25,23,10)"/>
<polygon points="357,584 366,574 342,520" style="fill:rgb(81,84,43)"/>
<polygon points="662,635 620,550 572,581" style="fill:rgb(24,19,6)"/>
<polygon points="732,561 709,571 752,613" style="fill:rgb(151,161,85)"/>
<polygon points="769,593 732,561 752,613" style="fill:rgb(122,130,72)"/>
<polygon points="204,377 233,392 249,319" style="fill:rgb(250,208,107)"/>
<polygon points="260,404 251,470 307,478" style="fill:rgb(227,129,4)"/>
<polygon points="769,593 745,554 732,561" style="fill:rgb(98,101,62)"/>
<polygon points="732,561 745,554 677,512" style="fill:rgb(102,112,64)"/>
<polygon points="852,447 848,382 814,382" style="fill:rgb(77,84,36)"/>
<polygon points="871,225 849,230 841,258" style="fill:rgb(88,75,40)"/>
<polygon points="852,447 814,382 799,444" style="fill:rgb(86,100,46)"/>
<polygon points="258,257 221,311 234,312" style="fill:rgb(209,189,45)"/>
<polygon points="234,312 204,377 249,319" style="fill:rgb(250,217,100)"/>
<polygon points="249,149 360,121 298,82" style="fill:rgb(54,64,23)"/>
<polygon points="249,149 255,170 360,121" style="fill:rgb(63,69,30)"/>
<polygon points="213,244 208,309 221,311" style="fill:rgb(120,118,53)"/>
<polygon points="678,59 474,0 589,55" style="fill:rgb(28,20,12)"/>
<polygon points="233,392 234,415 260,404" style="fill:rgb(238,103,12)"/>
<polygon points="216,429 234,415 233,392" style="fill:rgb(245,179,83)"/>
<polygon points="871,225 841,258 906,304" style="fill:rgb(80,77,37)"/>
<polygon points="841,258 849,230 793,232" style="fill:rgb(133,116,44)"/>
<polygon points="849,117 810,86 789,150" style="fill:rgb(36,33,21)"/>
<polygon points="781,591 797,508 765,523" style="fill:rgb(40,46,19)"/>
<polygon points="765,523 797,508 780,462" style="fill:rgb(46,51,20)"/>
<polygon points="327,597 357,584 342,520" style="fill:rgb(40,39,9)"/>
<polygon points="412,631 432,632 419,549" style="fill:rgb(108,126,63)"/>
<polygon points="849,230 848,210 793,218" style="fill:rgb(97,79,40)"/>
<polygon points="797,508 827,467 780,462" style="fill:rgb(39,44,19)"/>
<polygon points="234,415 251,470 260,404" style="fill:rgb(225,100,4)"/>
<polygon points="294,499 291,538 322,499" style="fill:rgb(124,84,9)"/>
<polygon points="213,244 221,311 258,257" style="fill:rgb(104,110,49)"/>
<polygon points="221,311 204,377 234,312" style="fill:rgb(218,193,63)"/>
<polygon points="255,170 213,244 258,257" style="fill:rgb(92,81,48)"/>
<polygon points="789,150 756,62 705,108" style="fill:rgb(42,50,11)"/>
<polygon points="678,59 785,31 474,0" style="fill:rgb(15,12,6)"/>
<polygon points="810,86 756,62 789,150" style="fill:rgb(34,36,15)"/>
<polygon points="298,82 385,89 313,40" style="fill:rgb(61,63,32)"/>
<polygon points="255,170 190,188 213,244" style="fill:rgb(115,83,60)"/>
<polygon points="228,480 291,538 294,499" style="fill:rgb(76,59,8)"/>
<polygon points="406,0 394,66 432,22" style="fill:rgb(51,40,28)"/>
<polygon points="313,40 385,89 394,66" style="fill:rgb(46,43,25)"/>
<polygon points="412,631 419,549 366,574" style="fill:rgb(156,174,84)"/>
<polygon points="481,587 551,660 572,581" style="fill:rgb(40,45,11)"/>
<polygon points="197,373 204,377 221,311" style="fill:rgb(135,141,59)"/>
<polygon points="234,415 227,452 251,470" style="fill:rgb(217,98,13)"/>
<polygon points="474,0 406,0 432,22" style="fill:rgb(40,32,21)"/>
<polygon points="216,429 227,452 234,415" style="fill:rgb(236,168,74)"/>
<polygon points="251,470 228,480 294,499" style="fill:rgb(121,79,6)"/>
<polygon points="885,471 852,447 827,467" style="fill:rgb(54,60,22)"/>
<polygon points="827,467 852,447 799,444" style="fill:rgb(70,76,34)"/>
<polygon points="906,304 841,258 841,322" style="fill:rgb(73,76,20)"/>
<polygon points="357,584 412,631 366,574" style="fill:rgb(117,131,67)"/>
<polygon points="396,652 412,631 357,584" style="fill:rgb(107,114,64)"/>
<polygon points="204,377 216,429 233,392" style="fill:rgb(241,205,106)"/>
<polygon points="620,660 662,635 572,581" style="fill:rgb(32,30,10)"/>
<polygon points="752,613 709,571 694,584" style="fill:rgb(122,130,73)"/>
<polygon points="745,554 781,591 765,523" style="fill:rgb(48,53,22)"/>
<polygon points="906,304 841,322 848,382" style="fill:rgb(52,62,15)"/>
<polygon points="849,230 871,225 848,210" style="fill:rgb(67,60,33)"/>
<polygon points="849,117 789,150 810,187" style="fill:rgb(43,40,26)"/>
<polygon points="434,660 481,587 432,632" style="fill:rgb(37,41,16)"/>
<polygon points="434,660 551,660 481,587" style="fill:rgb(25,27,7)"/>
<polygon points="208,309 197,373 221,311" style="fill:rgb(90,90,36)"/>
<polygon points="204,377 209,430 216,429" style="fill:rgb(197,185,80)"/>
<polygon points="171,337 197,373 208,309" style="fill:rgb(106,111,52)"/>
<polygon points="197,373 209,430 204,377" style="fill:rgb(149,154,68)"/>
<polygon points="216,429 211,452 227,452" style="fill:rgb(193,174,73)"/>
<polygon points="227,452 228,480 251,470" style="fill:rgb(173,96,10)"/>
<polygon points="169,268 189,299 213,244" style="fill:rgb(167,174,81)"/>
<polygon points="213,244 189,299 208,309" style="fill:rgb(164,151,69)"/>
<polygon points="211,452 228,480 227,452" style="fill:rgb(156,135,44)"/>
<polygon points="291,580 327,597 291,538" style="fill:rgb(67,48,12)"/>
<polygon points="291,538 327,597 342,520" style="fill:rgb(65,51,9)"/>
<polygon points="849,117 810,187 872,155" style="fill:rgb(52,48,32)"/>
<polygon points="315,30 313,40 394,66" style="fill:rgb(35,35,18)"/>
<polygon points="298,82 271,76 249,149" style="fill:rgb(47,54,20)"/>
<polygon points="209,430 211,452 216,429" style="fill:rgb(162,166,73)"/>
<polygon points="146,377 211,452 209,430" style="fill:rgb(93,109,51)"/>
<polygon points="551,660 620,660 572,581" style="fill:rgb(37,39,14)"/>
<polygon points="313,40 271,76 298,82" style="fill:rgb(53,57,27)"/>
<polygon points="249,149 212,158 255,170" style="fill:rgb(71,54,37)"/>
<polygon points="885,471 884,416 852,447" style="fill:rgb(57,63,21)"/>
<polygon points="852,447 884,416 848,382" style="fill:rgb(66,72,26)"/>
<polygon points="406,0 315,30 394,66" style="fill:rgb(25,22,10)"/>
<polygon points="313,40 223,55 271,76" style="fill:rgb(42,43,22)"/>
<polygon points="404,660 434,660 412,631" style="fill:rgb(89,85,56)"/>
<polygon points="412,631 434,660 432,632" style="fill:rgb(81,78,50)"/>
<polygon points="223,55 212,158 249,149" style="fill:rgb(32,32,12)"/>
<polygon points="694,584 687,590 738,633" style="fill:rgb(49,51,29)"/>
<polygon points="752,613 694,584 738,633" style="fill:rgb(78,75,49)"/>
<polygon points="797,508 885,471 827,467" style="fill:rgb(33,36,14)"/>
<polygon points="210,576 291,580 291,538" style="fill:rgb(42,47,13)"/>
<polygon points="379,660 396,652 357,584" style="fill:rgb(71,67,42)"/>
<polygon points="379,660 357,584 327,597" style="fill:rgb(32,32,12)"/>
<polygon points="738,633 687,590 662,635" style="fill:rgb(20,21,7)"/>
<polygon points="872,155 810,187 848,210" style="fill:rgb(55,51,31)"/>
<polygon points="943,343 906,304 848,382" style="fill:rgb(45,56,20)"/>
<polygon points="871,225 872,155 848,210" style="fill:rgb(47,47,27)"/>
<polygon points="189,299 171,337 208,309" style="fill:rgb(173,137,60)"/>
<polygon points="197,373 146,377 209,430" style="fill:rgb(96,119,55)"/>
<polygon points="157,337 171,337 152,310" style="fill:rgb(146,151,62)"/>
<polygon points="802,613 781,591 784,634" style="fill:rgb(76,69,46)"/>
<polygon points="769,593 781,591 745,554" style="fill:rgb(82,79,51)"/>
<polygon points="912,203 872,155 871,225" style="fill:rgb(33,37,18)"/>
<polygon points="140,227 190,188 126,202" style="fill:rgb(81,92,52)"/>
<polygon points="212,158 190,188 255,170" style="fill:rgb(89,58,44)"/>
<polygon points="379,660 404,660 396,652" style="fill:rgb(70,64,43)"/>
<polygon points="396,652 404,660 412,631" style="fill:rgb(97,95,62)"/>
<polygon points="140,227 169,268 213,244" style="fill:rgb(113,146,62)"/>
<polygon points="315,30 223,55 313,40" style="fill:rgb(35,34,18)"/>
<polygon points="126,202 190,188 135,169" style="fill:rgb(63,70,38)"/>
<polygon points="406,0 315,15 315,30" style="fill:rgb(14,12,6)"/>
<polygon points="888,101 785,31 810,86" style="fill:rgb(13,11,7)"/>
<polygon points="810,86 785,31 756,62" style="fill:rgb(24,22,11)"/>
<polygon points="756,62 785,31 678,59" style="fill:rgb(28,26,11)"/>
<polygon points="620,660 738,633 662,635" style="fill:rgb(23,17,6)"/>
<polygon points="784,634 781,591 769,593" style="fill:rgb(90,83,58)"/>
<polygon points="868,573 885,471 797,508" style="fill:rgb(18,19,8)"/>
<polygon points="884,416 943,343 848,382" style="fill:rgb(42,52,14)"/>
<polygon points="324,660 379,660 327,597" style="fill:rgb(17,14,3)"/>
<polygon points="152,310 171,337 189,299" style="fill:rgb(187,164,66)"/>
<polygon points="171,337 146,377 197,373" style="fill:rgb(107,142,60)"/>
<polygon points="99,285 152,310 169,268" style="fill:rgb(128,142,62)"/>
<polygon points="169,268 152,310 189,299" style="fill:rgb(191,180,79)"/>
<polygon points="872,155 888,101 849,117" style="fill:rgb(35,31,21)"/>
<polygon points="938,245 912,203 871,225" style="fill:rgb(46,52,23)"/>
<polygon points="114,362 146,377 157,337" style="fill:rgb(85,88,48)"/>
<polygon points="157,337 146,377 171,337" style="fill:rgb(110,134,61)"/>
<polygon points="160,534 203,557 228,480" style="fill:rgb(101,118,45)"/>
<polygon points="212,596 324,660 291,580" style="fill:rgb(12,10,3)"/>
<polygon points="784,634 769,593 752,613" style="fill:rgb(105,102,66)"/>
<polygon points="781,591 868,573 797,508" style="fill:rgb(37,39,17)"/>
<polygon points="1024,387 929,412 885,471" style="fill:rgb(21,22,5)"/>
<polygon points="885,471 929,412 884,416" style="fill:rgb(39,44,11)"/>
<polygon points="906,304 938,245 871,225" style="fill:rgb(65,70,33)"/>
<polygon points="738,633 784,634 752,613" style="fill:rgb(78,70,48)"/>
<polygon points="797,660 784,634 738,633" style="fill:rgb(55,48,33)"/>
<polygon points="943,343 938,245 906,304" style="fill:rgb(46,56,23)"/>
<polygon points="929,412 943,343 884,416" style="fill:rgb(40,46,12)"/>
<polygon points="203,557 291,538 228,480" style="fill:rgb(86,98,35)"/>
<polygon points="291,580 324,660 327,597" style="fill:rgb(52,32,6)"/>
<polygon points="190,188 140,227 213,244" style="fill:rgb(95,102,58)"/>
<polygon points="152,310 114,327 157,337" style="fill:rgb(136,129,67)"/>
<polygon points="223,55 249,149 271,76" style="fill:rgb(39,42,17)"/>
<polygon points="315,15 223,55 315,30" style="fill:rgb(27,24,12)"/>
<polygon points="938,72 888,101 912,203" style="fill:rgb(15,15,7)"/>
<polygon points="912,203 888,101 872,155" style="fill:rgb(26,26,13)"/>
<polygon points="849,117 888,101 810,86" style="fill:rgb(29,23,16)"/>
<polygon points="160,534 228,480 211,452" style="fill:rgb(85,94,34)"/>
<polygon points="837,660 868,573 802,613" style="fill:rgb(24,23,8)"/>
<polygon points="802,613 868,573 781,591" style="fill:rgb(39,39,15)"/>
<polygon points="203,557 210,576 291,538" style="fill:rgb(63,70,23)"/>
<polygon points="99,285 114,327 152,310" style="fill:rgb(171,143,70)"/>
<polygon points="146,377 160,534 211,452" style="fill:rgb(84,88,40)"/>
<polygon points="190,601 212,596 210,576" style="fill:rgb(23,21,7)"/>
<polygon points="114,327 114,362 157,337" style="fill:rgb(114,91,56)"/>
<polygon points="135,169 190,188 212,158" style="fill:rgb(44,44,24)"/>
<polygon points="140,227 99,285 169,268" style="fill:rgb(96,122,51)"/>
<polygon points="129,136 135,169 212,158" style="fill:rgb(28,29,12)"/>
<polygon points="210,576 212,596 291,580" style="fill:rgb(24,25,7)"/>
<polygon points="180,568 210,576 203,557" style="fill:rgb(56,57,19)"/>
<polygon points="620,660 797,660 738,633" style="fill:rgb(17,16,7)"/>
<polygon points="784,634 797,660 802,613" style="fill:rgb(68,60,42)"/>
<polygon points="114,327 104,354 114,362" style="fill:rgb(158,104,52)"/>
<polygon points="95,381 160,534 146,377" style="fill:rgb(77,77,33)"/>
<polygon points="80,361 104,354 59,339" style="fill:rgb(207,137,35)"/>
<polygon points="95,381 146,377 114,362" style="fill:rgb(92,81,38)"/>
<polygon points="837,660 890,575 868,573" style="fill:rgb(14,15,5)"/>
<polygon points="868,573 890,575 885,471" style="fill:rgb(9,9,4)"/>
<polygon points="160,534 180,568 203,557" style="fill:rgb(81,78,26)"/>
<polygon points="102,235 140,227 126,202" style="fill:rgb(76,84,45)"/>
<polygon points="102,235 99,285 140,227" style="fill:rgb(84,91,42)"/>
<polygon points="106,177 102,235 126,202" style="fill:rgb(47,49,22)"/>
<polygon points="223,55 158,83 212,158" style="fill:rgb(27,27,11)"/>
<polygon points="135,169 106,177 126,202" style="fill:rgb(44,48,23)"/>
<polygon points="143,57 158,83 223,55" style="fill:rgb(16,16,7)"/>
<polygon points="158,83 129,136 212,158" style="fill:rgb(18,20,7)"/>
<polygon points="943,343 981,245 938,245" style="fill:rgb(37,43,17)"/>
<polygon points="938,245 981,245 912,203" style="fill:rgb(39,42,18)"/>
<polygon points="1024,387 981,245 943,343" style="fill:rgb(26,28,9)"/>
<polygon points="1024,387 943,343 929,412" style="fill:rgb(35,36,11)"/>
<polygon points="80,361 95,381 104,354" style="fill:rgb(172,138,31)"/>
<polygon points="104,354 95,381 114,362" style="fill:rgb(142,114,38)"/>
<polygon points="180,568 190,601 210,576" style="fill:rgb(38,35,12)"/>
<polygon points="212,596 197,660 324,660" style="fill:rgb(4,4,2)"/>
<polygon points="111,545 190,601 180,568" style="fill:rgb(46,44,16)"/>
<polygon points="0,246 106,177 34,98" style="fill:rgb(11,8,4)"/>
<polygon points="129,136 106,177 135,169" style="fill:rgb(27,27,10)"/>
<polygon points="797,660 837,660 802,613" style="fill:rgb(48,41,27)"/>
<polygon points="59,339 104,354 114,327" style="fill:rgb(218,140,65)"/>
<polygon points="95,381 63,399 160,534" style="fill:rgb(87,87,41)"/>
<polygon points="160,534 111,545 180,568" style="fill:rgb(68,67,23)"/>
<polygon points="74,305 114,327 99,285" style="fill:rgb(213,152,73)"/>
<polygon points="74,305 99,285 61,293" style="fill:rgb(178,135,46)"/>
<polygon points="61,293 99,285 56,277" style="fill:rgb(108,93,33)"/>
<polygon points="1024,215 938,72 912,203" style="fill:rgb(8,8,3)"/>
<polygon points="888,101 938,72 785,31" style="fill:rgb(7,5,4)"/>
<polygon points="158,83 143,57 129,136" style="fill:rgb(18,18,8)"/>
<polygon points="315,15 143,57 223,55" style="fill:rgb(17,16,8)"/>
<polygon points="56,277 99,285 102,235" style="fill:rgb(76,76,25)"/>
<polygon points="74,305 59,339 114,327" style="fill:rgb(236,161,85)"/>
<polygon points="56,277 102,235 43,259" style="fill:rgb(48,50,11)"/>
<polygon points="61,293 59,339 74,305" style="fill:rgb(204,133,69)"/>
<polygon points="57,372 63,399 95,381" style="fill:rgb(114,101,42)"/>
<polygon points="57,372 95,381 80,361" style="fill:rgb(148,124,30)"/>
<polygon points="43,259 102,235 106,177" style="fill:rgb(34,32,11)"/>
<polygon points="61,293 52,341 59,339" style="fill:rgb(186,114,57)"/>
<polygon points="52,341 57,372 59,339" style="fill:rgb(163,117,16)"/>
<polygon points="59,339 57,372 80,361" style="fill:rgb(163,115,13)"/>
<polygon points="63,399 111,545 160,534" style="fill:rgb(71,71,32)"/>
<polygon points="53,559 197,660 190,601" style="fill:rgb(26,22,10)"/>
<polygon points="190,601 197,660 212,596" style="fill:rgb(17,15,6)"/>
<polygon points="26,347 52,341 61,293" style="fill:rgb(138,94,45)"/>
<polygon points="1024,660 1024,387 890,575" style="fill:rgb(1,1,1)"/>
<polygon points="890,575 1024,387 885,471" style="fill:rgb(6,6,2)"/>
<polygon points="981,245 1024,215 912,203" style="fill:rgb(25,25,10)"/>
<polygon points="1024,387 1024,215 981,245" style="fill:rgb(20,21,8)"/>
<polygon points="0,246 43,259 106,177" style="fill:rgb(22,19,6)"/>
<polygon points="56,277 26,347 61,293" style="fill:rgb(102,75,38)"/>
<polygon points="26,347 57,372 52,341" style="fill:rgb(138,114,30)"/>
<polygon points="24,384 63,399 57,372" style="fill:rgb(85,74,32)"/>
<polygon points="24,384 38,415 63,399" style="fill:rgb(57,53,20)"/>
<polygon points="63,399 38,415 111,545" style="fill:rgb(57,55,23)"/>
<polygon points="43,259 26,347 56,277" style="fill:rgb(66,56,19)"/>
<polygon points="26,347 24,384 57,372" style="fill:rgb(100,86,34)"/>
<polygon points="0,246 0,372 26,347" style="fill:rgb(24,21,6)"/>
<polygon points="26,347 0,372 24,384" style="fill:rgb(43,37,11)"/>
<polygon points="24,384 0,372 38,415" style="fill:rgb(36,32,10)"/>
<polygon points="38,415 53,559 111,545" style="fill:rgb(39,34,13)"/>
<polygon points="34,98 106,177 129,136" style="fill:rgb(12,12,4)"/>
<polygon points="43,259 0,246 26,347" style="fill:rgb(36,31,9)"/>
<polygon points="0,372 53,559 38,415" style="fill:rgb(27,24,6)"/>
<polygon points="111,545 53,559 190,601" style="fill:rgb(34,32,13)"/>
<polygon points="143,57 34,98 129,136" style="fill:rgb(14,14,6)"/>
<polygon points="1024,215 1024,0 938,72" style="fill:rgb(2,2,1)"/>
<polygon points="938,72 1024,0 785,31" style="fill:rgb(2,2,1)"/>
<polygon points="785,31 1024,0 474,0" style="fill:rgb(5,4,3)"/>
<polygon points="837,660 1024,660 890,575" style="fill:rgb(3,3,1)"/>
<polygon points="315,15 0,0 143,57" style="fill:rgb(4,3,2)"/>
<polygon points="143,57 0,0 34,98" style="fill:rgb(7,4,3)"/>
<polygon points="34,98 0,0 0,246" style="fill:rgb(8,3,3)"/>
<polygon points="406,0 0,0 315,15" style="fill:rgb(4,4,2)"/>
<polygon points="0,372 0,660 53,559" style="fill:rgb(7,7,2)"/>
<polygon points="53,559 0,660 197,660" style="fill:rgb(13,11,5)"/>
</svg>