<?xml version="1.0" encoding="utf-8"?>
<!-- Generator: Adobe Illustrator 27.2.0, SVG Export Plug-In . SVG Version: 6.00 Build 0)  -->
<svg version="1.1" id="Ebene_1" xmlns="http://www.w3.org/2000/svg" xmlns:xlink="http://www.w3.org/1999/xlink" x="0px" y="0px"
	 width="283.5px" height="283.5px" viewBox="0 0 283.5 283.5" style="enable-background:new 0 0 283.5 283.5;" xml:space="preserve"
	>
<style type="text/css">
	.st0{clip-path:url(#SVGID_00000040541994924750940350000002828951922924657598_);}
	.st1{clip-path:url(#SVGID_00000040541994924750940350000002828951922924657598_);fill:#004F9F;}
	.st2{clip-path:url(#SVGID_00000040541994924750940350000002828951922924657598_);fill:#FFCC00;}
</style>
<g>
	<defs>
		<rect id="SVGID_1_" x="-0.4" y="5.3" width="283.5" height="272.6"/>
	</defs>
	<clipPath id="SVGID_00000159445360410041395150000009848843010695930001_">
		<use xlink:href="#SVGID_1_"  style="overflow:visible;"/>
	</clipPath>
	<path style="clip-path:url(#SVGID_00000159445360410041395150000009848843010695930001_);" d="M141.3,277.9l-9.3-7
		c-1.5-1.1-3-2.2-4.5-3.1c-8.9-5.9-17.2-9.2-24.5-9.7c-45.8-3.5-78.3-20.4-94-48.9c-6.5-11.7-9.7-24.7-9.4-37.6
		c0.2-9.4,2.4-19,5.9-25.6c3.4-6.4,6.6-12.3,9.3-17.5l0.1-0.3C26.7,106.4,33.2,94.4,33.6,87c0.3-5.2-2.8-12.4-8.7-20.4l-9.1-12.4
		l64.6-49l9,5.2c4.5,2.6,9.1,5.1,13.6,7.3c15.1,7.3,27.9,11.1,37.9,11.2l0.4,0l0.4,0c10-0.1,22.8-3.9,37.9-11.2
		c4.5-2.2,9.1-4.6,13.6-7.3l9-5.2l64.6,49l-9.1,12.4c-5.9,7.9-9,15.2-8.7,20.4c0.4,7.3,6.9,19.4,18.7,41.3c2.8,5.2,6,11.1,9.4,17.6
		c3.5,6.6,5.7,16.1,5.9,25.6c0.3,12.9-3,25.9-9.4,37.6c-15.7,28.5-48.2,45.4-94,48.9c-7.3,0.6-15.5,3.8-24.5,9.7c-1.5,1-3,2-4.5,3.1
		L141.3,277.9z"/>
	<path style="clip-path:url(#SVGID_00000159445360410041395150000009848843010695930001_);" d="M263.4,153.2
		c-3.4-6.5-6.6-12.3-9.4-17.6c-13.2-24.6-19.9-37-20.5-47.7c-0.6-11.2,5.8-22.5,11.7-30.5l-44.1-33.5c-3.8,2.2-8.9,5-14.7,7.8
		c-17.3,8.4-32.4,12.7-44.7,12.8c0,0-0.3,0-0.4,0c-0.1,0-0.4,0-0.4,0c-12.4-0.1-27.4-4.4-44.7-12.8c-5.8-2.8-10.9-5.6-14.7-7.8
		L37.4,57.4c5.9,8,12.3,19.3,11.7,30.5c-0.6,10.8-7.2,23.1-20.5,47.7c-2.8,5.3-6,11.1-9.4,17.6c-4.6,8.7-7.5,28.7,3.4,48.4
		c13.1,23.7,41.3,37.9,81.6,40.9c10,0.8,20.7,4.9,31.9,12.2c1.9,1.2,3.6,2.5,5.2,3.6c1.6-1.2,3.3-2.4,5.2-3.6
		c11.2-7.4,21.9-11.5,31.9-12.2c40.3-3.1,68.5-17.2,81.6-40.9C270.8,181.9,268,161.9,263.4,153.2"/>
	<path style="clip-path:url(#SVGID_00000159445360410041395150000009848843010695930001_);fill:#004F9F;" d="M260,201.6
		c10.9-19.7,8-39.8,3.4-48.4c-3.4-6.5-6.6-12.3-9.4-17.6c-13.2-24.6-19.9-37-20.5-47.7c-0.6-11.2,5.8-22.5,11.7-30.5l-44.1-33.5
		c-3.8,2.2-8.9,5-14.7,7.8c-17.3,8.4-32.4,12.7-44.7,12.8c0,0-0.3,0-0.4,0v113.6v12.5h-13.8v79.1c2.9,1.5,5.7,3.2,8.7,5.1
		c1.9,1.2,3.6,2.5,5.2,3.6c1.6-1.2,3.3-2.4,5.2-3.6c2.9-1.9,5.8-3.6,8.7-5.1v-79.1h27.7v71.6c10-1,19.3-2.7,27.7-5.1v-66.4h27.7
		v54.1C247.6,218.5,254.9,210.8,260,201.6 M44.4,170.6H15.2c-0.4,9.1,1.4,20.1,7.5,31c5,9.1,12.3,16.8,21.7,23.1V170.6z M99.8,170.6
		H72.1v66.4c8.4,2.4,17.7,4.1,27.7,5.1V170.6z"/>
	<path style="clip-path:url(#SVGID_00000159445360410041395150000009848843010695930001_);fill:#FFCC00;" d="M263.4,153.2
		c1.6,3,3.3,8.2,3.9,14.8H143.9V44.5c11.9-0.5,26.2-4.8,42.5-12.7c4.9-2.4,9.8-5,14.7-7.8l44.1,33.5c-5.7,7.7-12.3,19.2-11.7,30.5
		c0.6,10.8,7.2,23.1,20.5,47.7C256.8,140.8,259.9,146.7,263.4,153.2 M138.7,44.5V168H15.4c0.6-6.6,2.3-11.8,3.9-14.8
		c3.4-6.5,6.6-12.4,9.4-17.6c13.2-24.6,19.9-37,20.5-47.7c0.6-11.3-6-22.8-11.7-30.5l44.1-33.5c4.8,2.8,9.8,5.4,14.7,7.8
		C112.6,39.6,126.9,43.9,138.7,44.5 M15.2,173.2h26.6v49.7c-8.1-5.9-14.5-13-19.1-21.3C17.7,192.6,15.2,183,15.2,173.2 M74.7,173.2
		h22.5v68.7c-8-0.9-15.5-2.3-22.5-4.1V173.2z M47,173.2h22.5v63.1c-8.4-2.6-15.9-5.9-22.5-9.9V173.2z M102.4,242.4v-69.2h22.5v75.2
		c-7.1-3.4-14-5.4-20.6-5.9C103.6,242.5,103,242.5,102.4,242.4 M130.1,251.1v-77.9h22.5v77.9c-2,1.1-4,2.4-6.1,3.7
		c-1.7,1.1-3.5,2.4-5.2,3.6c-1.7-1.3-3.5-2.5-5.2-3.6C134.1,253.5,132.1,252.2,130.1,251.1 M178.4,242.6c-6.6,0.5-13.5,2.5-20.6,5.9
		v-75.2h22.5v69.2C179.7,242.5,179,242.5,178.4,242.6 M213.2,173.2h22.5v53.1c-6.6,4-14.1,7.3-22.5,9.9V173.2z M185.5,173.2H208
		v64.6c-7,1.8-14.5,3.2-22.5,4.1V173.2z M240.9,222.9v-49.7h26.6c0,9.8-2.5,19.4-7.5,28.4C255.4,209.9,249,217,240.9,222.9
		 M277.9,171.8c-0.2-8.7-2.2-17.4-5.3-23.4c-3.5-6.5-6.6-12.4-9.4-17.7c-12.5-23.2-18.8-34.9-19.2-43.4c-0.3-6.4,3.1-14.8,9.7-23.8
		l6.1-8.2l-57.8-43.9l-6,3.5c-4.6,2.7-9.3,5.2-14,7.4C166,30.1,152.5,34,141.8,34.2l-0.4,0l-0.4,0c-10.7-0.1-24.2-4.1-40.1-11.8
		c-4.7-2.3-9.4-4.8-14-7.4l-6-3.5L23,55.3l6.1,8.2c6.6,8.9,10,17.3,9.7,23.8c-0.5,8.5-6.7,20.1-19.2,43.4c-2.8,5.2-6,11.1-9.4,17.7
		c-3.2,6-5.1,14.7-5.3,23.4c-0.2,11.9,2.8,24,8.8,34.9c14.8,26.9,45.9,42.9,89.9,46.2c8.2,0.6,17.3,4.2,26.9,10.6
		c1.6,1,3.2,2.2,4.7,3.3l6.2,4.6l6.2-4.6c1.6-1.2,3.1-2.3,4.7-3.3c9.7-6.4,18.8-9.9,26.9-10.6c43.9-3.3,75-19.3,89.9-46.2
		C275,195.8,278.1,183.7,277.9,171.8"/>
	<path style="clip-path:url(#SVGID_00000159445360410041395150000009848843010695930001_);fill:#FFCC00;" d="M70,53.8l-8.9,8.4
		l1.1,2.1l3.2-1.5c0,0-0.2,7,0.1,9.5c0.7,4.5,4.2,2.2,6.7,1.2c0,0-3.4-8.3-0.3-19.4C72.2,53.3,70,53.8,70,53.8 M76.2,73.8
		c1.5,0,2.8-1.2,2.8-2.8s-1.2-2.8-2.8-2.8c-1.5,0-2.8,1.2-2.8,2.8S74.7,73.8,76.2,73.8 M80.1,125.1c0,0-15.8-2-15.4-19.5
		C65.2,83.4,80.1,84,80.1,84V125.1z M131.4,67.5l-7.7-15.4H77.9l3,6.8v16.4c0,0-7.1,0.9-11.1,2.9c-10.8,5.3-15.8,14.6-16,26.5
		c-0.7,31.9,26.7,31.8,26.7,31.8s0.9,4,0,6.3c-0.7,1.8-3,3.8-3,3.8l14.5,9.8L91.6,136c0,0,9-1.6,12.8-12c-8.7,3.5-13.3,2.7-13.3,2.7
		V103h11.1c0,0,10.5,14.7,9.8,25.2c-1.3,19.7-12,9.4-12,9.4v13.3c0,0,29.5-10.7,19.2-34.6c-2.1-5-5.1-12.8-5.1-12.8l9.8,6.8
		l-6.4-15.8c0,0-12,8.6-9.4-7.2c1.4-8.5,14.1,2.1,14.1,2.1v-15l-6,3.4c0,0-3.4,0-5.6,0C91.2,78.2,100.6,97,100.6,97h-9l0-12.3
		l4.2,2.5l6.4-18l-8.1,8.1l-2.1-1.2V59h24.4L131.4,67.5z"/>
	<path style="clip-path:url(#SVGID_00000159445360410041395150000009848843010695930001_);fill:#FFCC00;" d="M228.4,67.3h-5v-5h-5.2
		v5h-5v5.2h5v5h5.2v-5h5V67.3z M173.1,57.3h-5v5h-5.2v-5h-5v-5.2h5v-5h5.2v5h5V57.3z M168,127.9h-5v-5h-5.2v5h-5v5.2h5v5h5.2v-5h5
		V127.9z M251.1,156.5h-5v5h-5.2v-5h-5v-5.2h5v-5h5.2v5h5V156.5z M162.4,144.8l-1.2,2.3h2.2l1.8,3l0.1,1.7l2.5-0.3l2.5-3.6l3.4-0.6
		l3.2,1l3.3-1.5l2.2-2.5l3.7-0.1l1.1-1.9l3.6,0.5l-0.6-9.9l6.6-7.2l0.4-3.2l-1.9-3.2l-1.9-3l-3.2,3.9l-6.3,2.3l-7.8,8.9l2.8,1.2
		l0.1,4.4l-3.6,5.6c0,0-5.8,3-4.3,1.9c7-4.8,5.5-9.6,5.5-9.6s-3.4,6.3-7.3,6.6c-1,0.1-2.6-0.3-2.6-0.3l-1.8,2.9L162.4,144.8z
		 M181.2,68.5c-6.7-4.1-5.5,0.4-5.5,0.4s2.3,3.9,4.1,3c10.8-5,11.2,2.6,10.2-1.2C189.1,67.2,184.7,70.6,181.2,68.5 M201.7,61.5
		l4.8-1.7l-4.8-0.8l-1.1-4.5l-4.4,1.9l-3.7-3.9l0.7,4.8L201.7,61.5z M192.5,84.7l1.4-1.4l1.8,0.6l1.6-1.4l1-1.4v3.3l-1.8,1l-1.8,1.9
		L192.5,84.7z M228,95.2c-0.4-9.6-10.1-16.5-13.5-8c-1.7,4.3,1.1,11.8,1.1,11.8l3.7,11.3c0,0,1.7,17.2-12.1,3.4
		c-4.6-4.6-8.5-16.4-8.5-16.4l-5.1,0.6l1.7-5.1l2.3,3.1l2.5-6.8l3.7-3.7l-0.3-5.1l2.8,0.3l-0.8-2l-1.1-4.5l1.7-4.5l-0.3-3.9
		l-2.5-0.3l-0.8-2.8l-1.7,2l-1.7-2.8l-6.8-3.1l-1.7,1.4l2.3,2.3l-4.5-0.8l-3.1,2.5l1.4,2.5l3.9,0.3c0,0,6.4,9.7-2.8,8.5
		c-1-0.1-0.6,2.5-0.6,2.5l7,0.6l-7.3,4.2l-5.6-0.6l-6.5,0.8l1.1,2.8l-4.2,1.5l1.4-6c0,0-10.3-4.1-9.6-7.3c0.4-1.9,4.1-1.3,3.9-3.3
		c-0.3-5-3.7-3.7-3.7-3.7l-5,4.7c0,0,1.3-4.8-0.7-5.3c-2.2-0.6-2.7,5.1-2.7,5.1s-1.6,1.6-1.4,2.8c0.2,2,5.1,1.1,5.1,1.1l0.8,4.5
		l4.8,4.5l1.1,2.9l4.2,1.4l-2,3.7l3.1,2l-1.4,3.4l3.7,1.1l-2,1.1l2,1.1l4.8-4.5l-3.1-1.4l3.4-4.8l-0.3-2h2.5v2l-2.8,3.4h5.4
		c0,0-11.4,14.6-18,15.8c-2,0.4-3.7-3.7-3.7-3.7l-2.5,2.8l-3.4-1.1l-2,2.3l1.7,2.5l-0.3,3.4l2.8,0.6l3.1-2.5l4.2,2.8l2.8-3.4h3.1
		l2.5-3.4l3.1-1.1l2-2.8h5.6l-1.1-4.2l5.6,1.1l-1.1,2.8l-4.2,3.1c0,0,5.9,1.7,9.9,2c8.2,0.5,5.9,19.7,5.9,19.7l2.3,3.1l1.6,4.4
		l5.4-0.4l5.9,2.3l2.3,8.2l-1.7,2.3l-3.9-2.3l-1.4,2.5l-2.5,2l0.6,2.3l5.9-1.1l-2,2.8l2.5,1.7l2.5-2.5l3.4-3.9l2,2.3l2.8-0.3
		l-2.5-3.9v-2.8l-0.6-7l3.1-3.4l-3.9-1.1l-2-3.7l-7-4.2c0,0-0.2-3.6,2.8-4.2c14.8-3.2,3.3-23.4,3.3-23.4s-3.6-12.4,0-12.4
		c1,0,3.4,1.2,4.1,7.9c0.4,4.8,3,7.9,3.7,6.2C226.7,99,228.1,97.3,228,95.2"/>
</g>
</svg>
