<?xml version="1.0" encoding="iso-8859-1"?>
<!-- Generator: Adobe Illustrator 16.0.0, SVG Export Plug-In . SVG Version: 6.00 Build 0)  -->
<!DOCTYPE svg PUBLIC "-//W3C//DTD SVG 1.1//EN" "http://www.w3.org/Graphics/SVG/1.1/DTD/svg11.dtd">
<svg version="1.1" id="Layer_1" xmlns="http://www.w3.org/2000/svg" xmlns:xlink="http://www.w3.org/1999/xlink" x="0px" y="0px"
	 width="250px" height="332.563px" viewBox="0 0 250 332.563" style="enable-background:new 0 0 250 332.563;" xml:space="preserve"
	>
<g>
	<path style="fill-rule:evenodd;clip-rule:evenodd;fill:#842229;" d="M0,0h250v193.55c0,37.546-17.517,69.804-44.553,94.856
		c-21.22,19.698-50.634,36.621-78.86,43.694l-1.585,0.462l-1.588-0.462c-28.226-7.073-57.642-23.996-78.86-43.694
		C17.518,263.354,0,231.096,0,193.55V0z"/>
	<path style="fill-rule:evenodd;clip-rule:evenodd;fill:#D54243;" d="M125.002,6.611H243.39V193.55
		c0,75.092-73.769,120.968-118.388,132.14C80.381,314.518,6.61,268.642,6.61,193.55V6.611H125.002z"/>
	<path style="fill-rule:evenodd;clip-rule:evenodd;fill:#141212;" d="M93.205,39.133c-3.041-0.132-8.262,0.926-8.131,3.372
		c-8.658-1.454-9.453,2.115-9.057,5.155c0.926-1.189,1.852-1.851,2.646-1.983c1.122-0.264,2.446,0.133,3.635,0.926
		c1.189,0.794,2.512,1.983,3.173,2.71c-3.04,0.794-5.42,0.266-7.865-0.132c-1.189-0.198-2.777-0.859-3.702-1.521
		c-1.058-0.793-1.321-1.321-2.776-2.907c-1.917-1.852-3.9-1.323-3.238,1.453c1.321,2.776,3.768,3.9,6.676,4.429
		c1.321,0.266,3.438,0.794,5.883,0.794c2.38,0,5.023-0.396,6.479-0.133c-0.926,0.528-1.852,1.587-3.834,1.851
		c-1.982,0.397-5.09-1.189-6.809-1.586c0.133,1.586,2.115,3.041,6.015,3.701c6.413,1.454,11.568,2.578,15.072,4.43
		c3.437,1.851,5.685,4.23,7.337,6.082c3.041,3.636,3.173,6.544,3.438,7.072c0.529,6.015-1.455,9.188-5.354,10.313
		c-1.851,0.528-5.155-0.397-6.478-1.918c-1.256-1.454-2.446-3.966-2.182-7.998c0.396-1.453,2.182-5.421,0.661-6.213
		c-6.875-3.901-15.271-7.735-21.418-10.048c-1.586-0.661-2.908,1.652-3.503,2.444c-10.379-1.189-19.699-8.13-23.797-15.599
		c-2.843-5.09-7.602,0-6.809,4.759c1.322,5.354,5.288,9.254,10.246,11.898c5.09,2.776,11.303,5.421,17.582,5.289
		c3.504,0.727,3.372,5.09-0.66,5.882c-7.998,0.134-14.41-0.132-20.492-5.882c-4.561-4.231-7.073,0.858-5.751,3.636
		c2.116,8.659,14.675,11.038,27.168,8.262c4.825-0.793,1.852,4.363,0.53,4.495c-5.156,3.768-14.676,7.47-22.939-0.132
		c-3.701-2.776-6.213-0.397-4.891,3.768c3.701,10.907,17.716,8.659,27.3,3.306c2.513-1.455,4.825,1.719,1.72,4.296
		c-11.965,8.396-17.98,8.396-23.269,5.156c-6.81-2.645-7.337,4.958-3.372,7.337c4.43,2.843,15.865,0.662,24.129-4.495
		c3.569-2.71,3.701,1.455,1.453,3.041c-9.849,8.66-13.683,10.775-24.127,9.453c-5.024-0.397-5.024,5.883-0.926,8.395
		c5.486,3.371,16.13-2.246,24.523-9.188c3.504-1.852,4.033,1.189,2.248,4.957c-5.023,6.346-9.85,10.114-14.344,11.832
		c-4.693,1.852-9.057,1.455-12.163,0.397c-3.833-1.189-4.363,2.71-2.247,6.279c1.322,2.248,6.543,2.908,12.229,0.926
		c5.752-1.983,11.898-6.809,15.997-12.229c3.636-3.239,3.238,1.058,1.652,3.966c-8.396,13.353-16.129,18.244-26.309,17.451
		c-4.495-0.793-5.42,2.644-2.644,5.883c5.09,4.23,11.303,4.099,16.789,0c4.957-4.693,14.278-14.938,19.17-20.294
		c3.372-2.776,4.562-0.132,3.504,5.487c-0.926,3.173-3.239,6.676-9.453,9.056c-4.296,2.512-1.058,5.883,2.115,5.883
		c1.719,0.133,5.354-1.983,8.131-5.089c3.569-4.099,3.834-6.81,5.883-13.155c1.852-3.106,5.156-1.652,5.156,1.587
		c-1.586,6.412-3.041,7.47-6.279,10.114c-3.041,2.908,2.182,3.899,4.032,2.644c5.09-3.438,7.072-7.999,8.792-12.097
		c1.189-2.908,4.824-1.454,3.04,3.305c-3.966,11.634-10.51,16.13-21.946,18.443c-1.189,0.264-1.851,0.925-1.454,2.247
		c1.454,1.587,3.041,3.041,4.495,4.627c-7.073,2.183-12.758,3.239-19.963,5.355c-3.504-2.248-6.281-4.298-9.717-6.546
		c-0.992-2.114-1.521-5.42-6.545-3.04c-3.503-1.719-5.223-1.058-7.072,0.528c2.775,0.133,3.966,0.794,5.09,2.116
		c1.453,3.769,4.76,4.165,8.13,3.106c2.247,1.852,3.438,3.307,5.554,5.155c-4.099-0.132-6.941-0.264-11.04-0.396
		c-3.899-4.097-7.073-3.964-9.849-0.66c-2.182,0.265-3.107,0.396-4.43,2.908c2.248-0.925,3.768-1.188,4.693-0.132
		c4.098,2.445,6.941,1.917,8.924,0c3.967,0.264,7.603,0.396,11.568,0.66c-1.454,1.257-3.438,1.918-4.892,3.241
		c-6.016-1.72-9.188,0.527-10.313,5.42c-0.792,2.049-1.189,4.162-0.792,6.146c0.528-1.85,1.454-3.569,3.239-4.496
		c5.42,1.323,7.47-0.925,7.734-4.163c2.512-2.115,6.478-2.512,9.056-4.627c3.041,0.925,4.495,1.587,7.602,2.512
		c1.058,3.172,3.438,4.495,7.403,3.7c4.693,0.133,3.9,2.182,4.297,3.638c1.19-2.314,1.19-4.43-1.719-6.413
		c-1.059-2.776-3.371-4.163-6.412-2.512c-2.908-0.793-3.701-2.05-6.676-2.843c7.338-2.247,12.56-2.775,19.896-5.155
		c1.851,1.719,3.173,3.04,5.023,4.495c1.059,0.528,1.852,0.793,2.513,0c4.562-6.479,6.544-12.361,10.841-16.791
		c1.586-1.85,3.701-4.229,5.948-4.759c1.124-0.396,2.579-0.133,3.504,0.793c0.794,0.926,1.587,2.776,1.19,5.42
		c-0.396,3.9-1.322,5.09-2.381,7.338c-1.057,2.315-2.445,3.768-3.768,5.487c-2.644,3.437-6.213,5.618-8.395,6.941
		c-4.099,2.775-5.949,1.585-9.188,1.32c-4.229,0.528-5.42,2.512-1.982,5.486c3.305,1.587,6.146,1.852,8.526,1.455
		c1.983-0.396,4.43-3.106,6.147-4.43c1.852-2.247,5.024,0.396,2.909,2.975c-3.967,4.628-7.867,7.736-12.625,7.535
		c-5.091,0.729-4.165,3.638-0.859,4.958c6.146,2.515,11.633-2.113,14.277-5.222c2.115-2.38,3.768-2.512,3.371,1.257
		c-2.182,6.479-5.09,9.057-9.783,9.321c-3.834-0.265-3.834,2.644-1.058,4.627c6.413,4.428,11.105-3.042,13.221-7.735
		c1.454-3.965,3.834-2.113,4.099,1.389c0,4.496-1.982,8.13-7.471,12.758c4.166,6.677,9.058,13.618,13.222,20.227
		c4.296-6.608,9.188-13.55,13.353-20.227c-5.485-4.628-7.47-8.262-7.47-12.758c0.265-3.502,2.645-5.354,4.1-1.389
		c2.113,4.693,6.807,12.163,13.22,7.735c2.776-1.983,2.776-4.892-1.059-4.627c-4.691-0.265-7.602-2.842-9.715-9.321
		c-0.465-3.769,1.057-3.637,3.172-1.257c2.776,3.108,8.262,7.736,14.411,5.222c3.304-1.32,4.229-4.229-0.861-4.958
		c-4.76,0.201-8.658-2.907-12.625-7.535c-2.116-2.578,1.059-5.222,2.908-2.975c1.719,1.323,4.033,4.033,6.148,4.43
		c2.248,0.396,5.222,0.132,8.394-1.455c3.439-2.975,2.38-4.958-1.851-5.486c-3.238,0.265-5.09,1.455-9.187-1.32
		c-2.116-1.323-5.753-3.505-8.396-6.941c-1.321-1.72-2.71-3.172-3.767-5.487c-1.06-2.248-1.984-3.438-2.38-7.338
		c-0.396-2.644,0.396-4.494,1.188-5.42c0.927-0.926,2.248-1.189,3.505-0.793c2.247,0.529,4.229,2.909,5.948,4.759
		c4.165,4.43,6.28,10.313,10.842,16.791c0.528,0.793,1.453,0.528,2.512,0c1.718-1.455,3.173-2.776,5.024-4.495
		c7.337,2.38,12.56,2.908,19.765,5.155c-2.842,0.793-3.637,2.05-6.545,2.843c-3.04-1.651-5.354-0.265-6.413,2.512
		c-2.908,1.983-3.04,4.099-1.717,6.413c0.396-1.456-0.396-3.505,4.295-3.638c3.967,0.795,6.347-0.528,7.47-3.7
		c3.042-0.925,4.495-1.587,7.537-2.512c2.578,2.115,6.411,2.512,9.055,4.627c0.265,3.238,2.313,5.486,7.602,4.163
		c1.786,0.927,2.71,2.646,3.373,4.496c0.264-1.984,0-4.098-0.795-6.146c-1.057-4.893-4.295-7.14-10.312-5.42
		c-1.453-1.323-3.568-1.984-5.023-3.241c4.099-0.264,7.733-0.396,11.7-0.66c2.05,1.917,4.826,2.445,8.923,0
		c0.927-1.057,2.445-0.793,4.693,0.132c-1.453-2.512-2.248-2.644-4.427-2.908c-2.778-3.304-5.951-3.437-9.85,0.66
		c-4.099,0.133-6.941,0.265-11.04,0.396c2.115-1.849,3.304-3.304,5.552-5.155c3.373,1.059,6.677,0.662,8.198-3.106
		c1.057-1.322,2.248-1.983,5.023-2.116c-1.983-1.586-3.57-2.247-7.073-0.528c-5.155-2.38-5.618,0.926-6.545,3.04
		c-3.437,2.248-6.212,4.298-9.717,6.546c-7.206-2.116-12.89-3.173-20.095-5.355c1.587-1.586,3.172-3.04,4.627-4.627
		c0.396-1.322-0.264-1.983-1.455-2.247c-11.435-2.313-18.111-6.81-22.078-18.443c-1.651-4.759,1.983-6.213,3.174-3.305
		c1.718,4.098,3.569,8.659,8.791,12.097c1.852,1.256,7.073,0.265,4.033-2.644c-3.371-2.645-4.693-3.702-6.281-10.114
		c0-3.239,3.307-4.693,5.156-1.587c2.049,6.346,2.313,9.057,5.884,13.155c2.776,3.105,6.411,5.222,8.131,5.089
		c3.238,0,6.412-3.371,2.115-5.883c-6.215-2.38-8.526-5.883-9.453-9.056c-1.057-5.619,0-8.264,3.505-5.487
		c4.892,5.355,14.21,15.601,19.168,20.294c5.422,4.099,11.701,4.23,16.79,0c2.776-3.239,1.852-6.676-2.644-5.883
		c-10.18,0.793-17.913-4.099-26.243-17.451c-1.651-2.908-2.18-7.205,1.587-3.966c4.1,5.42,10.245,10.245,15.932,12.229
		c5.751,1.982,10.973,1.322,12.296-0.926c1.98-3.569,1.585-7.469-2.248-6.279c-3.108,1.058-7.47,1.454-12.163-0.397
		c-4.628-1.718-9.321-5.486-14.477-11.832c-1.786-3.768-1.125-6.809,2.38-4.957c8.394,6.941,19.038,12.559,24.523,9.188
		c4.098-2.512,4.098-8.792-0.927-8.395c-10.443,1.322-14.276-0.793-24.125-9.453c-2.248-1.586-2.116-5.751,1.452-3.041
		c8.265,5.157,19.699,7.338,24.128,4.495c3.968-2.379,3.437-9.981-3.37-7.337c-5.29,3.239-11.305,3.239-23.27-5.156
		c-3.106-2.577-0.792-5.751,1.72-4.296c9.585,5.354,23.598,7.602,27.3-3.306c1.321-4.165-1.19-6.544-4.957-3.768
		c-8.263,7.602-17.716,3.899-22.871,0.132c-1.455-0.132-4.298-5.288,0.528-4.495c12.493,2.776,24.92,0.397,27.168-8.262
		c1.321-2.777-1.191-7.867-5.885-3.636c-5.948,5.75-12.361,6.016-20.358,5.882c-4.098-0.792-4.098-5.155-0.661-5.882
		c6.281,0.132,12.493-2.513,17.583-5.289c4.958-2.645,8.925-6.544,10.246-11.898c0.795-4.759-3.965-9.849-6.81-4.759
		c-4.229,7.469-13.418,14.409-23.795,15.599c-0.595-0.792-1.918-3.105-3.637-2.444c-6.015,2.313-14.409,6.146-21.284,10.048
		c-1.521,0.792,0.265,4.76,0.528,6.213c0.396,4.032-0.792,6.544-2.05,7.998c-1.32,1.521-4.627,2.446-6.61,1.918
		c-3.767-1.124-5.883-4.298-5.223-10.313c0.265-0.528,0.396-3.437,3.439-7.072c1.65-1.852,3.898-4.231,7.337-6.082
		c3.503-1.852,8.658-2.976,15.071-4.43c3.833-0.66,5.75-2.115,6.015-3.701c-1.852,0.396-4.826,1.983-6.807,1.586
		c-1.983-0.264-2.911-1.322-3.835-1.851c1.455-0.264,4.099,0.133,6.479,0.133c2.446,0,4.427-0.528,5.883-0.794
		c2.907-0.528,5.222-1.652,6.677-4.429c0.528-2.776-1.323-3.305-3.241-1.453c-1.452,1.586-1.849,2.114-2.775,2.907
		c-0.925,0.661-2.645,1.322-3.701,1.521c-2.445,0.397-4.825,0.926-7.865,0.132c0.66-0.727,1.981-1.916,3.172-2.71
		c1.188-0.793,2.38-1.189,3.568-0.926c0.861,0.133,1.786,0.794,2.578,1.983c0.531-3.04-0.264-6.609-8.922-5.155
		c0.132-2.446-5.09-3.504-8.133-3.372c-1.717,0-5.354,1.059-7.998,2.314c-4.03,1.189-8.13,2.115-12.955,2.38
		c2.842,2.379,3.37,2.512,6.146,4.494c-4.229,1.521-7.47,4.693-8.923,6.677c3.568,0.264,4.958-0.132,6.146,0.396
		c-5.222,1.454-7.47,2.445-10.113,5.09c0.927,0.264,2.38,0.397,2.908,0.661c0.662,0.265,0.398,0.528,0,1.058
		c-1.189,0.661-5.75,6.016-7.072,7.206c-1.322-1.19-5.751-6.545-6.941-7.206c-0.396-0.529-0.66-0.793,0-1.058
		c0.529-0.264,1.983-0.397,2.976-0.661c-2.711-2.645-5.09-3.636-10.18-5.09c1.188-0.528,2.445-0.133,6.146-0.396
		c-1.454-1.983-4.692-5.156-8.924-6.677c2.777-1.982,3.306-2.115,6.147-4.494c-4.825-0.265-8.923-1.19-12.956-2.38
		C98.561,40.191,94.924,39.133,93.205,39.133L93.205,39.133z M93.602,44.62L93.602,44.62c2.578,0,4.164,0.925,4.164,1.982
		s-1.586,1.852-4.164,1.852c-2.379,0-3.967-0.926-3.967-1.983S91.223,44.62,93.602,44.62L93.602,44.62z M156.267,44.62
		L156.267,44.62c-2.445,0-4.03,0.925-4.03,1.982s1.585,1.852,4.03,1.852c2.512,0,4.1-0.926,4.1-1.983S158.778,44.62,156.267,44.62
		L156.267,44.62z"/>
	<path style="fill:#141212;" d="M66.698,277.17h7.205v-11.899h16.261v-6.677H73.903v-7.005h17.319v-6.678H66.698V277.17z
		 M112.243,268.245L112.243,268.245c0,0.927-0.397,1.587-1.322,2.115c-0.794,0.66-1.983,0.927-3.702,0.927
		c-1.982,0-3.899-0.53-5.486-1.455c-1.719-1.059-3.041-2.38-4.098-4.165l-5.223,4.43c1.189,2.247,3.041,4.099,5.618,5.552
		c2.513,1.521,5.686,2.313,9.321,2.313c3.438,0,6.412-0.925,8.791-2.974c2.248-1.983,3.438-4.363,3.438-7.271
		c0-1.918-0.396-3.371-1.322-4.693c-0.925-1.321-1.982-2.38-3.305-3.041c-1.322-0.528-2.842-1.257-4.297-1.785
		c-1.586-0.528-3.041-0.925-4.363-1.188c-1.321-0.265-2.445-0.66-3.371-1.191c-0.926-0.528-1.322-1.188-1.322-1.983
		c0-1.981,1.586-3.106,4.826-3.106c3.04,0,5.817,1.39,8.131,4.033l4.759-4.693c-2.908-3.967-7.204-5.948-12.626-5.948
		c-3.635,0-6.676,0.925-8.924,2.908c-2.445,1.983-3.635,4.295-3.635,6.941c0,1.849,0.527,3.437,1.322,4.757
		c0.991,1.257,2.182,2.313,3.371,2.977c1.322,0.528,2.775,1.188,4.361,1.717c1.654,0.531,3.107,0.927,4.43,1.191
		c1.322,0.396,2.38,0.792,3.306,1.453C111.713,266.594,112.243,267.452,112.243,268.245L112.243,268.245z M145.559,277.17
		L145.559,277.17h7.206v-32.259h-7.206v12.626h-14.345v-12.626h-7.205v32.259h7.205v-12.956h14.345V277.17z M158.778,277.17
		L158.778,277.17h7.073v-11.899h16.263v-6.677h-16.263v-7.005h17.451v-6.678h-24.524V277.17z"/>
</g>
</svg>
