<?xml version="1.0" encoding="utf-8"?>
<!-- Generator: Adobe Illustrator 13.0.2, SVG Export Plug-In . SVG Version: 6.00 Build 14948)  -->
<!DOCTYPE svg PUBLIC "-//W3C//DTD SVG 1.0//EN" "http://www.w3.org/TR/2001/REC-SVG-20010904/DTD/svg10.dtd">
<svg version="1.0" id="Ebene_1" xmlns="http://www.w3.org/2000/svg" xmlns:xlink="http://www.w3.org/1999/xlink" x="0px" y="0px"
	 width="444.439px" height="561.259px" viewBox="0 0 444.439 561.259" enable-background="new 0 0 444.439 561.259"
	 xml:space="preserve">
<path fill-rule="evenodd" clip-rule="evenodd" fill="#DFB774" d="M437.036,91.51c-28.342-1.758-52.96-7.414-73.175-16.806
	c-15.964-7.418-29.232-17.181-39.439-29.016c-17.373-20.147-19.966-39.706-19.989-39.901l-0.715-5.763L140.723,0l-0.715,5.788
	c-0.025,0.195-2.619,19.753-19.992,39.901c-10.204,11.834-23.474,21.598-39.441,29.016C60.363,84.097,35.747,89.752,7.405,91.51
	L0,91.972l1.352,7.295c0.151,0.813,15.485,82.466,49.586,172.979c20.082,53.294,42.661,99.252,67.115,136.594
	c30.857,47.124,64.872,80.692,101.105,99.773l3.062,1.611l3.062-1.611c36.231-19.081,70.251-52.649,101.106-99.773
	c24.451-37.342,47.033-83.3,67.113-136.594c34.102-90.513,49.436-172.166,49.588-172.979l1.351-7.295L437.036,91.51L437.036,91.51z"
	/>
<path fill-rule="evenodd" clip-rule="evenodd" fill="#005EA8" d="M245.681,418.979c0.155-0.832,0.311-1.667,0.466-2.52
	c7.714-41.666,15.568-98.566,23.341-169.116c11.42-103.6,19.327-206.805,21.354-234.207c-11.616-0.003-125.628-0.003-137.244,0
	c2.029,27.401,9.936,130.607,21.353,234.207c7.774,70.55,15.627,127.45,23.341,169.116c0.158,0.855,0.315,1.696,0.472,2.531
	c7.37-2.517,15.261-3.882,23.457-3.882C230.42,415.109,238.31,416.471,245.681,418.979L245.681,418.979z"/>
<path fill-rule="evenodd" clip-rule="evenodd" fill="#DFB774" d="M195.639,341.67H214.2c0.497,3.064,1.443,5.317,2.793,6.668
	c1.352,1.354,3.334,2.027,5.947,2.027c2.208,0,3.966-0.539,5.271-1.667c1.263-1.081,1.893-2.613,1.893-4.55
	c0-3.108-2.657-5.587-8.019-7.523c-1.037-0.404-1.847-0.677-2.388-0.902c-4.417-1.62-7.885-3.062-10.497-4.415
	c-2.569-1.351-4.46-2.569-5.676-3.738c-2.254-2.388-3.965-5.183-5.137-8.47c-1.126-3.29-1.711-7.028-1.711-11.265
	c0-8.47,2.208-15.138,6.667-19.957c4.46-4.775,10.542-7.21,18.248-7.21c7.658,0,13.649,2.344,18.021,6.894
	c4.415,4.641,6.894,11.265,7.433,19.869h-18.108c-0.272-2.522-1.037-4.371-2.3-5.631c-1.262-1.219-3.019-1.849-5.316-1.849
	c-2.027,0-3.56,0.498-4.551,1.441c-0.99,0.99-1.487,2.435-1.487,4.415c0,2.839,2.613,5.183,7.794,7.075
	c0.45,0.223,0.812,0.36,1.037,0.404c0.767,0.27,1.893,0.677,3.425,1.216c6.891,2.525,11.44,4.775,13.559,6.85
	c2.613,2.522,4.55,5.361,5.769,8.604c1.172,3.199,1.802,6.984,1.802,11.353c0,9.416-2.297,16.67-6.894,21.762
	c-4.55,5.045-11.13,7.57-19.688,7.57c-7.838,0-14.057-2.525-18.697-7.57C198.792,357.98,196.223,350.861,195.639,341.67
	L195.639,341.67z"/>
<path fill-rule="evenodd" clip-rule="evenodd" fill="#DFB774" d="M194.197,250.033v-85.421h18.111c0,0,19.418,48.973,20.092,51.902
	c-0.179-1.532-0.495-51.902-0.495-51.902h18.202v85.421h-18.202c0,0-19.507-48.927-20.139-51.675
	c0.226,1.487,0.542,51.675,0.542,51.675H194.197L194.197,250.033z"/>
<polygon fill-rule="evenodd" clip-rule="evenodd" fill="#DFB774" points="194.197,131.723 194.197,46.304 213.3,46.304 
	213.3,75.272 231.006,75.272 231.006,46.304 250.107,46.304 250.107,131.723 231.006,131.723 231.006,98.609 213.3,98.609 
	213.3,131.723 194.197,131.723 "/>
<path fill-rule="evenodd" clip-rule="evenodd" fill="#FFFFFF" d="M347.476,226.351c-0.431,1.991-0.858,3.973-1.286,5.941
	c15.636-2.043,32.394-4.507,50.054-7.482c7.6-23.199,13.849-44.859,18.817-63.52c-19.617,3.053-38.411,5.622-56.045,7.78
	C355.562,187.321,351.709,206.644,347.476,226.351L347.476,226.351z"/>
<path fill-rule="evenodd" clip-rule="evenodd" fill="#FFFFFF" d="M153.114,162.867c-2.35-24.731-4.43-48.07-6.204-68.788
	c-18.833-1.159-40.003-2.745-62.06-4.916c3.001,18.686,6.951,42.056,11.771,68.016C117.479,159.618,136.515,161.468,153.114,162.867
	L153.114,162.867z"/>
<path fill-rule="evenodd" clip-rule="evenodd" fill="#FFFFFF" d="M359.587,89.164c-22.055,2.171-43.225,3.757-62.06,4.916
	c-1.772,20.717-3.853,44.057-6.202,68.788c16.6-1.399,35.637-3.249,56.49-5.688C352.638,131.219,356.587,107.849,359.587,89.164
	L359.587,89.164z"/>
<path fill-rule="evenodd" clip-rule="evenodd" fill="#E32219" d="M112.144,234.034c18.089,2.174,34.44,3.768,48.674,4.937
	c-2.3-21.274-4.449-42.429-6.428-62.814c-16.213-1.346-34.815-3.122-55.22-5.458C103.02,190.852,107.355,212.262,112.144,234.034
	L112.144,234.034z"/>
<path fill-rule="evenodd" clip-rule="evenodd" fill="#FFFFFF" d="M115.198,247.693c4.458,19.598,9.272,39.333,14.421,58.563
	c14.666,2.019,27.943,3.519,39.576,4.638c-2.193-17.399-4.386-35.896-6.571-55.481c-0.116-1.028-0.229-2.057-0.344-3.085
	c-9.375-0.744-19.683-1.671-30.806-2.833C126.33,248.959,120.895,248.36,115.198,247.693L115.198,247.693z"/>
<path fill-rule="evenodd" clip-rule="evenodd" fill="#E32219" d="M152.35,380.087c9.924,1.658,19.002,2.941,27.091,3.929
	c-2.839-17.994-5.687-37.939-8.534-59.769c-11.043-1.025-23.626-2.396-37.521-4.233C139.31,341.164,145.642,361.484,152.35,380.087
	L152.35,380.087z"/>
<path fill-rule="evenodd" clip-rule="evenodd" fill="#FFFFFF" d="M181.645,397.613c-7.176-0.823-15.185-1.881-23.934-3.243
	c5.533,14.133,11.303,27.009,17.29,38.165c3.541-3.015,7.37-5.698,11.439-8.001C184.846,416.199,183.248,407.222,181.645,397.613
	L181.645,397.613z"/>
<path fill-rule="evenodd" clip-rule="evenodd" fill="#FFFFFF" d="M286.729,394.37c-8.748,1.362-16.758,2.42-23.933,3.243
	c-1.603,9.601-3.199,18.565-4.793,26.895c4.075,2.3,7.91,4.983,11.452,7.995C275.438,421.352,281.2,408.491,286.729,394.37
	L286.729,394.37z"/>
<path fill-rule="evenodd" clip-rule="evenodd" fill="#E32219" d="M311.054,320.014c-13.893,1.837-26.476,3.208-37.521,4.233
	c-2.848,21.829-5.695,41.774-8.534,59.769c8.089-0.987,17.168-2.271,27.091-3.929C298.799,361.484,305.13,341.164,311.054,320.014
	L311.054,320.014z"/>
<path fill-rule="evenodd" clip-rule="evenodd" fill="#FFFFFF" d="M329.241,247.693c-5.698,0.667-11.133,1.266-16.277,1.802
	c-11.121,1.162-21.428,2.089-30.806,2.833c-0.114,1.028-0.229,2.057-0.343,3.085c-2.186,19.583-4.377,38.082-6.571,55.481
	c11.634-1.119,24.911-2.619,39.577-4.638C319.969,287.026,324.785,267.292,329.241,247.693L329.241,247.693z"/>
<path fill-rule="evenodd" clip-rule="evenodd" fill="#E32219" d="M345.27,170.698c-20.405,2.336-39.009,4.112-55.222,5.458
	c-1.975,20.385-4.125,41.54-6.428,62.814c14.235-1.169,30.586-2.763,48.674-4.937C337.084,212.262,341.42,190.852,345.27,170.698
	L345.27,170.698z"/>
<path fill-rule="evenodd" clip-rule="evenodd" fill="#E32219" d="M372.41,92.358c-2.83,17.619-6.475,39.246-10.869,63.163
	c17.991-2.244,37.151-4.917,57.126-8.098c5.024-19.822,8.344-35.065,10.069-43.403C407.959,102.201,389.092,98.301,372.41,92.358
	L372.41,92.358z"/>
<path fill-rule="evenodd" clip-rule="evenodd" fill="#E32219" d="M313.866,53.565c-4.846-5.714-8.657-11.364-11.657-16.652
	c-0.926,11.854-2.121,26.774-3.56,43.935c13.406-0.838,27.961-1.894,43.146-3.224C330.999,70.787,321.645,62.736,313.866,53.565
	L313.866,53.565z"/>
<path fill-rule="evenodd" clip-rule="evenodd" fill="#E32219" d="M142.23,36.913c-3,5.288-6.813,10.938-11.659,16.652
	c-7.778,9.171-17.133,17.222-27.927,24.059c15.185,1.33,29.738,2.386,43.146,3.224C144.35,63.687,143.155,48.766,142.23,36.913
	L142.23,36.913z"/>
<path fill-rule="evenodd" clip-rule="evenodd" fill="#E32219" d="M72.031,92.358c-16.683,5.943-35.55,9.842-56.329,11.662
	c1.726,8.338,5.045,23.58,10.072,43.403c19.975,3.18,39.133,5.854,57.125,8.098C78.502,131.604,74.858,109.978,72.031,92.358
	L72.031,92.358z"/>
<path fill-rule="evenodd" clip-rule="evenodd" fill="#FFFFFF" d="M96.964,226.351c-4.233-19.707-8.086-39.029-11.539-57.281
	c-17.634-2.158-36.429-4.727-56.046-7.78c4.97,18.661,11.219,40.321,18.817,63.52c17.66,2.975,34.417,5.439,50.054,7.482
	C97.821,230.323,97.392,228.341,96.964,226.351L96.964,226.351z"/>
<path fill-rule="evenodd" clip-rule="evenodd" fill="#E32219" d="M101.282,245.99c-14.754-1.885-30.965-4.203-48.35-7.05
	c3.242,9.454,6.697,19.104,10.375,28.862c3.801,10.084,7.693,19.896,11.669,29.429c14.25,2.745,27.775,5.042,40.441,6.967
	C110.651,286.103,105.939,266.695,101.282,245.99L101.282,245.99z"/>
<path fill-rule="evenodd" clip-rule="evenodd" fill="#FFFFFF" d="M119.14,318.031c-11.89-1.737-24.579-3.806-37.939-6.264
	c9.492,21.604,19.434,41.651,29.77,60.035c9.256,2.156,18.101,4.014,26.473,5.613C131.266,359.708,125.164,339.916,119.14,318.031
	L119.14,318.031z"/>
<path fill-rule="evenodd" clip-rule="evenodd" fill="#E32219" d="M142.668,391.847c-7.162-1.289-14.711-2.769-22.608-4.471
	c2.985,4.919,6,9.706,9.042,14.353c10.833,16.535,22.037,31.298,33.564,44.259c0.885-1.245,1.809-2.455,2.767-3.639
	C157.753,428.594,150.16,411.751,142.668,391.847L142.668,391.847z"/>
<path fill-rule="evenodd" clip-rule="evenodd" fill="#E32219" d="M279.029,442.308c0.961,1.184,1.89,2.399,2.774,3.645
	c11.517-12.952,22.711-27.703,33.533-44.224c3.044-4.646,6.059-9.434,9.044-14.353c-7.898,1.702-15.448,3.182-22.611,4.471
	C294.287,411.731,286.702,428.562,279.029,442.308L279.029,442.308z"/>
<path fill-rule="evenodd" clip-rule="evenodd" fill="#FFFFFF" d="M306.996,377.416c8.37-1.6,17.215-3.457,26.473-5.613
	c10.336-18.384,20.276-38.432,29.769-60.035c-13.359,2.458-26.051,4.526-37.939,6.264
	C319.277,339.916,313.172,359.708,306.996,377.416L306.996,377.416z"/>
<path fill-rule="evenodd" clip-rule="evenodd" fill="#E32219" d="M329.021,304.197c12.665-1.925,26.191-4.222,40.441-6.967
	c3.976-9.533,7.866-19.345,11.669-29.429c3.68-9.757,7.134-19.408,10.374-28.862c-17.382,2.848-33.595,5.165-48.349,7.05
	C338.499,266.695,333.788,286.103,329.021,304.197L329.021,304.197z"/>
<path fill-rule="evenodd" clip-rule="evenodd" fill="#FFFFFF" d="M222.22,415.109c40.277,0,73.075,32.842,73.075,73.075
	s-32.798,73.075-73.075,73.075c-40.188,0-73.031-32.842-73.031-73.075S182.032,415.109,222.22,415.109L222.22,415.109z"/>
<path fill-rule="evenodd" clip-rule="evenodd" fill="#DFB774" d="M239.927,510.62c-4.146-7.254-8.968-15.589-17.978-20.273
	c-23.643,6.393-41.662,6.571-72.737-0.287c0.256,10.063,2.569,19.638,6.529,28.31C184.654,522.86,216.196,522.306,239.927,510.62
	L239.927,510.62z"/>
<path fill-rule="evenodd" clip-rule="evenodd" fill="#DFB774" d="M232.717,461.468c-4.236,7.207-7.568,17.391-7.479,25.5
	c17.519,17.432,26.794,31.767,37.279,62.124c7.781-5.171,14.525-11.792,19.837-19.474
	C271.737,502.601,254.481,476.096,232.717,461.468L232.717,461.468z"/>
<path fill-rule="evenodd" clip-rule="evenodd" fill="#DFB774" d="M220.553,485.076c6.209-23.276,14.818-38.848,35.479-61.644
	c-8.481-4.45-17.936-7.286-27.952-8.089c-17.679,22.485-31.781,49.632-33.478,75.41
	C202.938,490.797,212.938,488.814,220.553,485.076L220.553,485.076z"/>
<path fill-rule="evenodd" clip-rule="evenodd" fill="#DFB774" d="M255.378,538.417c-4.189-9.908-7.975-16.983-13.649-24.554
	c-25.074,12.091-53.902,12.738-83.684,9.117c5.701,10.465,13.887,19.395,23.748,25.992
	C208.044,550.8,232.148,545.72,255.378,538.417L255.378,538.417z"/>
<path fill-rule="evenodd" clip-rule="evenodd" fill="#DFB774" d="M250.693,435.335c-7.567,7.614-11.804,14.373-15.545,23.068
	c22.931,15.659,37.866,40.154,49.573,67.576c6.07-9.993,9.814-21.545,10.468-33.891
	C283.767,468.842,268.424,451.654,250.693,435.335L250.693,435.335z"/>
<path fill-rule="evenodd" clip-rule="evenodd" fill="#DFB774" d="M190.141,490.346c2.052-27.111,15.272-51.794,32.58-75.231
	c-0.168-0.003-0.334-0.006-0.501-0.006c-12.413,0-24.123,3.135-34.384,8.651c-13.424,20.813-20.367,41.997-25.402,64.693
	C172.797,491.202,180.771,491.474,190.141,490.346L190.141,490.346z"/>
<path fill-rule="evenodd" clip-rule="evenodd" fill="#DFB774" d="M178.736,429.552c-17.244,12.853-28.676,33.12-29.495,55.998
	l8.914,1.418C161.095,465.816,169.635,447.913,178.736,429.552L178.736,429.552z"/>
<path fill-rule="evenodd" clip-rule="evenodd" fill="#DFB774" d="M189.957,553.701c9.741,4.834,20.697,7.559,32.263,7.559
	c13.576,0,26.297-3.735,37.207-10.222l-3.328-8.563C234.349,551.316,212.641,552.303,189.957,553.701L189.957,553.701z"/>
<path fill-rule="evenodd" clip-rule="evenodd" fill="#DFB774" d="M295.239,485.43c-0.955-25.535-15.117-47.801-35.845-60.117
	l-6.855,7.907C270.545,447.218,284.238,466.162,295.239,485.43L295.239,485.43z"/>
</svg>
