<?xml version="1.0" encoding="UTF-8" standalone="no"?>
<!-- Created with Inkscape (http://www.inkscape.org/) -->

<svg
   xmlns:dc="http://purl.org/dc/elements/1.1/"
   xmlns:cc="http://creativecommons.org/ns#"
   xmlns:rdf="http://www.w3.org/1999/02/22-rdf-syntax-ns#"
   xmlns:svg="http://www.w3.org/2000/svg"
   xmlns="http://www.w3.org/2000/svg"
   xmlns:sodipodi="http://sodipodi.sourceforge.net/DTD/sodipodi-0.dtd"
   xmlns:inkscape="http://www.inkscape.org/namespaces/inkscape"
   width="364.45001"
   height="520"
   id="svg90789"
   version="1.1"
   inkscape:version="0.48.4 r9939"
   sodipodi:docname="Neues Dokument 5">
  <defs
     id="defs90791" />
  <sodipodi:namedview
     id="base"
     pagecolor="#ffffff"
     bordercolor="#666666"
     borderopacity="1.0"
     inkscape:pageopacity="0.0"
     inkscape:pageshadow="2"
     inkscape:zoom="1.55"
     inkscape:cx="172.22309"
     inkscape:cy="301.6129"
     inkscape:document-units="px"
     inkscape:current-layer="layer1"
     showgrid="false"
     fit-margin-top="0"
     fit-margin-left="0"
     fit-margin-right="0"
     fit-margin-bottom="0"
     inkscape:window-width="1680"
     inkscape:window-height="990"
     inkscape:window-x="-4"
     inkscape:window-y="-4"
     inkscape:window-maximized="1" />
  <metadata
     id="metadata90794">
    <rdf:RDF>
      <cc:Work
         rdf:about="">
        <dc:format>image/svg+xml</dc:format>
        <dc:type
           rdf:resource="http://purl.org/dc/dcmitype/StillImage" />
        <dc:title></dc:title>
      </cc:Work>
    </rdf:RDF>
  </metadata>
  <g
     inkscape:label="Ebene 1"
     inkscape:groupmode="layer"
     id="layer1"
     transform="translate(-507.47418,-28.24115)">
    <path
       inkscape:connector-curvature="0"
       d="m 542.89184,45.301081 -18.59115,17.649827 0,228.271102 c 0,50.8315 24.00377,93.19109 67.06934,132.02071 l -0.78443,12.94321 c 0,52.47882 42.83025,95.30906 95.30907,95.30906 50.8315,0 92.95575,-40.47693 95.07373,-90.83777 45.65422,-40.9476 70.59931,-86.83716 73.65862,-137.66866 1.41198,-23.06244 -2.11798,-44.94823 -8.23659,-64.95136 l -0.47066,-175.086292 -18.59115,-17.649827 -284.51522,0"
       style="fill:#ffffff;fill-opacity:1;fill-rule:nonzero;stroke:none"
       id="path82450" />
    <path
       inkscape:connector-curvature="0"
       d="m 542.89184,45.301081 0,-7.059931 -18.12049,8.471917 -7.29526,16.237841 0,228.271102 c 0,53.42014 25.41575,97.66238 69.42265,136.96266 l 4.47129,-4.94195 -6.58926,-1.2551 -1.09822,14.11986 c 0,56.24412 45.88956,102.13367 102.369,102.13367 54.5968,0 99.54503,-43.30091 102.13367,-97.42705 l -7.05993,-0.15688 4.47129,4.94195 c 46.83087,-41.41826 72.95262,-89.66113 76.01192,-142.13995 l 0.31378,-10.82522 c 0,-20.00314 -3.29464,-39.06496 -8.94258,-56.47945 l -6.35394,1.88265 6.8246,0 -0.47066,-175.086292 -7.05993,-16.237841 -18.35582,-8.471917 -284.51522,0 0,13.884531 284.51522,0 8.23658,3.765296 3.52997,7.059931 0.31377,176.027612 0.47067,1.09821 c 4.94195,16.23784 8.23658,34.123 8.23658,52.47882 l -0.31377,9.88391 c -3.05931,48.71352 -26.59241,92.95575 -71.30531,132.7267 l -2.11798,2.11798 -0.31377,2.82397 c -2.11798,46.59554 -40.9476,84.24851 -88.24914,84.24851 -24.47442,0 -46.36021,-9.8839 -62.59805,-25.88641 -16.00251,-16.00251 -26.12175,-38.12363 -26.12175,-62.36273 l 1.09822,-12.23721 0.15688,-3.52997 -2.58864,-2.58864 c -42.12425,-37.88829 -64.71603,-78.1299 -64.71603,-126.60809 0,0 -0.31378,-55.06747 -0.31378,-111.07625 0,-56.00879 0,-113.194228 0,-117.194855 l 3.52997,-7.059931 8.23658,-3.765297 0,-6.8246"
       style="fill:#211d1d;fill-opacity:1;fill-rule:nonzero;stroke:none"
       id="path82452" />
    <path
       inkscape:connector-curvature="0"
       d="m 542.89184,45.301081 -18.59115,17.649827 0,228.271102 c 0,50.8315 24.00377,93.19109 67.06934,132.02071 l -0.78443,12.94321 c 0,52.47882 42.83025,95.30906 95.30907,95.30906 50.8315,0 92.95575,-40.47693 95.07373,-90.83777 45.65422,-40.9476 70.59931,-86.83716 73.65862,-137.66866 1.41198,-23.06244 -2.11798,-44.94823 -8.23659,-64.95136 l -0.47066,-175.086292 -18.59115,-17.649827 -284.51522,0"
       style="fill:#ffffff;fill-opacity:1;fill-rule:nonzero;stroke:none"
       id="path82454" />
    <path
       inkscape:connector-curvature="0"
       d="m 804.81528,304.40055 c -18.59115,41.65359 -44.24223,77.42391 -119.54816,86.36649 -24.00377,0 -46.83088,7.29526 -66.83402,-3.29464 -46.59554,-24.23909 -78.36523,-71.54063 -78.36523,-127.54942 0,-80.01255 65.1867,-145.19924 145.19925,-145.19924 47.0662,0 88.7198,22.12111 115.54753,57.18544 18.35582,29.65171 28.47506,78.83589 4.00063,132.49137"
       style="fill:#ee2a46;fill-opacity:1;fill-rule:nonzero;stroke:none"
       id="path82456" />
    <path
       inkscape:connector-curvature="0"
       d="m 799.87333,170.73252 c 44.94823,49.89018 89.42579,165.43772 -26.35708,266.1594 27.06307,-33.41701 51.06684,-90.13179 54.12614,-144.72859 7.05993,-43.77157 -1.64732,-88.0138 -27.76906,-121.43081"
       style="fill:#ee2a46;fill-opacity:1;fill-rule:nonzero;stroke:none"
       id="path82458" />
    <path
       inkscape:connector-curvature="0"
       d="m 608.78453,53.302336 0,10.119234 -30.3577,0 -5.41262,2.823973 0,5.883276 35.77032,0 0,10.354565 -35.77032,0 0,19.061816 -17.64982,0 0,-38.594292 17.17916,-9.648572 36.24098,0 z m 95.30907,33.652338 4.23596,2.588641 37.41763,0 0,12.001885 -41.18293,0 -18.12049,-11.29589 0,-27.063071 16.94384,-9.883903 12.9432,0 5.64795,5.883276 5.41261,-5.883276 18.35582,0 0,13.413869 -37.41763,0 -4.23596,2.35331 0,17.885159"
       style="fill:#2c5bb0;fill-opacity:1;fill-rule:nonzero;stroke:none"
       id="path82460" />
    <path
       inkscape:connector-curvature="0"
       d="m 631.61164,72.128819 0,-5.883276 5.17728,-2.823973 21.1798,0 5.41261,2.823973 0,5.883276 -31.76969,0 z m 32.24035,-18.826483 -33.18167,0 -16.70851,9.648572 0,38.594292 17.64983,0 0,-19.061816 31.76969,0 0,19.061816 17.64983,0 0,-38.594292 -17.17917,-9.648572 m 104.01632,10.119234 23.76843,0 5.41262,2.823973 0,5.883276 -29.18105,0 0,-8.707249 z m -17.17917,-10.119234 0,48.242864 17.64983,0 0,-19.061816 25.18042,0 3.7653,4.000628 0,15.061188 17.64982,0 0,-18.591154 -4.94195,-5.647945 4.94195,-6.589269 0,-7.765924 -16.94383,-9.648572 -0.31377,0 -47.06621,0 z m 81.18921,62.833384 2.35331,0 1.41199,-0.15689 0.78443,-0.31377 0.15689,-0.94132 -0.47066,-0.94133 -1.41199,-0.47066 -2.82397,0 0,2.82397 z m -1.09821,4.94195 0,-8.47191 3.76529,0 1.88265,0 0.94133,0.78443 0.47066,1.41199 -0.62755,1.64732 -1.88265,0.94132 0.62755,0.31378 0.94132,1.09821 1.41199,2.35331 -1.41199,0 -0.94132,-1.88265 -0.62755,-1.2551 -0.94132,-0.78444 -0.31378,0 -2.11798,0 0,3.7653 -1.09821,0 z m 3.76529,-11.06056 -6.8246,6.8246 6.8246,6.58927 6.58927,-6.58927 -6.58927,-6.8246 m 8.00126,6.8246 -8.00126,8.00126 -8.23658,-8.00126 8.23658,-8.23658 8.00126,8.23658"
       style="fill:#2c5bb0;fill-opacity:1;fill-rule:nonzero;stroke:none"
       id="path82462" />
    <path
       inkscape:connector-curvature="0"
       d="m 814.93451,113.07642 -74.12927,0 c 43.30091,17.17916 82.60119,59.06809 97.66238,93.89708 l 0,-70.83464 -23.53311,-23.06244 m -259.33479,0 72.24662,0 c -43.30091,17.17916 -82.60119,57.42077 -95.77973,111.31158 l 0,-88.24914 23.53311,-23.06244 m -23.53311,160.0251 c 3.29464,38.12363 23.76844,92.4851 75.0706,126.6081 l -6.58927,20.70913 C 558.89435,384.4131 529.47797,338.99421 532.06661,273.10152"
       style="fill:#2c5bb0;fill-opacity:1;fill-rule:nonzero;stroke:none"
       id="path82464" />
    <path
       inkscape:connector-curvature="0"
       d="m 746.68852,373.35254 c 27.2984,-7.76592 72.95262,-32.94634 80.95387,-81.18921 -5.17728,49.89018 -16.00251,92.95576 -54.36147,144.72859 l -26.5924,-63.53938"
       style="fill:#2c5bb0;fill-opacity:1;fill-rule:nonzero;stroke:none"
       id="path82466" />
    <path
       inkscape:connector-curvature="0"
       d="m 773.28092,436.18593 c 0,48.24286 -39.30028,87.30781 -87.30781,87.30781 -48.24286,0 -87.30781,-39.06495 -87.30781,-87.30781 0,-48.24287 39.06495,-87.54315 87.30781,-87.54315 48.00753,0 87.30781,39.30028 87.30781,87.54315"
       style="fill:#ffffff;fill-opacity:1;fill-rule:nonzero;stroke:none"
       id="path82468" />
    <path
       inkscape:connector-curvature="0"
       d="m 738.2166,370.7639 16.47317,15.06118 1.41199,5.17729 0,12.00188 -2.58864,4.94195 -27.53374,-12.23721 -14.82585,-28.23973 19.06181,0.15689 8.00126,3.0593 m -52.71415,-6.58926 -17.17917,-9.17791 -35.77032,15.76717 0,16.70851 29.88705,-4.23596 23.06244,-19.06181"
       style="fill:#2c5bb0;fill-opacity:1;fill-rule:nonzero;stroke:none"
       id="path82470" />
    <path
       inkscape:connector-curvature="0"
       d="m 664.32265,389.35505 13.41387,17.64983 32.47569,3.0593 12.23721,-8.70725 -7.76592,12.70788 2.58864,30.12237 16.00251,13.41387 -19.06182,-8.00126 -27.76906,13.41387 -6.11861,17.17917 0.31378,-17.88516 -21.88579,-20.4738 -24.00376,2.35331 23.06244,-8.00125 12.94321,-26.82774 -6.35394,-20.00314 z m -51.06683,26.82774 16.00251,28.47505 -4.70662,32.94635 -20.94446,-19.06182 -2.11798,-20.23847 11.76655,-22.12111 m 36.94697,81.42454 28.71039,-6.35394 32.71101,14.11986 -17.41449,12.00188 -17.88516,0.15689 -18.82649,-5.88328 -7.29526,-14.11986 m 93.42642,-36.00565 -7.29526,29.18105 21.17979,-12.23721 10.35457,-21.41513 -6.35394,-15.76718 -17.88516,20.23847"
       style="fill:#2c5bb0;fill-opacity:1;fill-rule:nonzero;stroke:none"
       id="path82472" />
    <path
       inkscape:connector-curvature="0"
       d="m 711.62419,343.93616 1.88265,-1.88265 -1.64732,-0.94132 -1.41198,-1.09821 0,6.8246 1.09821,-2.82398 m -8.47192,1.88265 0.62755,-3.52996 -2.82397,-0.94133 -1.41199,0.78444 3.52997,3.7653 m -4.94195,-10.5899 -0.94133,-1.09821 -0.78444,-1.2551 -1.09821,5.41261 2.82398,-3.0593 m -0.47067,-6.11861 0.31378,-0.78443 -0.78444,-3.29464 -2.82397,4.94195 3.29463,-0.94132 z m -43.30091,0.94133 0.47067,-2.58864 -2.11798,-0.15689 -1.88265,-0.78444 4.00063,6.35394 -0.47067,-2.82397 z m -12.47254,-3.05931 -0.94133,-1.41198 -1.41198,-0.94133 1.88265,5.88328 0.47066,-3.52997 m -7.76593,-5.64794 -1.41198,-2.82397 0,6.1186 1.41198,-3.29463 m -1.64731,-8.00126 -0.15689,-1.64731 -0.31377,-1.41199 -2.82398,4.23596 3.29464,-1.2551 m 47.53687,-47.06621 -8.23659,2.11798 -14.35519,4.23596 -8.70725,8.94258 -0.47066,4.94195 -1.64732,-2.11798 -1.64732,3.05931 2.35331,2.35331 7.29526,-5.41262 -6.1186,6.11861 -0.78444,3.7653 6.35394,-3.7653 -1.88265,1.2551 0.15689,7.29526 -4.70662,7.76593 -5.64795,0.62754 -0.78443,0 3.76529,3.52997 -7.05993,-3.52997 -5.17728,3.52997 1.88265,3.29463 4.70662,0.15689 -6.35394,1.41199 1.09821,3.29463 1.64732,1.88265 3.29463,-1.41199 0,2.82398 2.58864,2.58864 3.7653,0.47066 4.94195,-6.35394 3.05931,7.29526 4.94195,-6.8246 -1.2551,-6.35393 0,-5.41262 0.78444,4.47129 0.47066,2.82398 3.76529,3.29463 -0.47066,-2.58864 0.78444,-2.58864 -0.15689,-4.94195 6.11861,7.53059 -0.78444,-5.88328 -0.94132,-4.70662 7.29526,5.64795 -2.35331,-10.82523 -4.00063,-8.94258 6.8246,-2.11798 15.06119,0 0.94132,-7.53059 -3.7653,-3.05931 -3.52996,-5.88327 3.29463,4.23596 1.41199,-5.41262 -2.11798,-2.58864 2.35331,1.64732 1.09821,-2.82397 -9.41324,-1.41199 m 8.00126,6.8246 2.82397,7.53059 1.09821,-5.88327 -1.88265,-6.58927 -2.11798,4.94195 m -73.65861,-28.00439 2.35331,-1.64732 -2.11798,-1.2551 -1.09821,-0.47066 0,4.94195 0.94132,-1.64732 z m -8.94258,-5.64795 0,-0.78443 -2.82397,-1.41199 -0.47066,0 2.11798,5.88328 1.25509,-3.7653 m -5.64794,-9.17791 2.58864,0 -1.64732,-2.82397 -0.47066,-3.05931 -2.11798,6.35394 1.64732,-0.47066 z m 0.47066,-11.06056 0.15689,-1.41199 0,-2.35331 -4.23596,5.17729 4.00063,-1.41199 m 0.15688,-32.47568 3.7653,-2.35331 -2.11798,-4.94195 -1.64732,7.29526 m 3.7653,-13.41387 0,-2.35331 -2.11798,-0.31378 2.11798,7.29527 0,-4.70662 m 4.23596,-12.47255 0.47066,-3.7653 -4.47129,3.7653 4.00063,0 z m 8.47192,-5.64794 0.31377,1.88264 1.41199,-0.78443 1.41198,-0.78444 -4.00062,-1.88265 0.94132,1.41199 z m 42.83025,45.65422 -12.47255,-7.05993 -8.94258,-4.23596 -7.05993,-5.17729 -9.17791,-16.00251 1.88265,-7.53059 -4.00063,-3.7653 -3.0593,2.11798 1.88265,4.47129 -4.00063,-5.17728 -2.58864,-1.88265 -2.58864,2.82397 2.58864,4.00063 -6.8246,0.94133 -2.35331,3.76529 1.41198,1.88265 2.11798,2.11798 5.64795,-2.35331 -2.82398,8.00125 -1.09821,4.70663 0.31378,2.82397 3.52996,-0.94133 -6.1186,0.94133 -5.41262,4.00063 5.17729,4.47129 11.29588,-7.05994 -5.88327,8.23659 1.88265,8.00126 3.76529,-2.35332 0.15689,3.7653 1.64732,8.00126 2.58864,-5.17729 0.94132,-4.94195 -0.47066,-3.76529 1.41199,5.64794 4.23596,4.70662 4.47129,-9.17791 -0.94133,6.58927 0.94133,2.58864 2.11798,-3.7653 1.41198,-4.70662 0.47066,10.35457 18.59116,-7.76592 -12.00189,5.88327 -9.17791,3.7653 -7.29526,2.58864 -5.88328,3.29463 -2.82397,1.64732 -9.8839,-6.8246 -5.88328,4.70662 4.47129,3.52997 -4.70662,3.29463 4.70662,5.41262 -3.52996,4.00062 3.29463,4.00063 4.70662,-2.82397 4.47129,-2.35331 -1.64732,5.17728 5.64795,4.47129 4.47129,-8.00126 3.52996,1.2551 5.64795,3.52997 -0.78444,-4.94195 1.2551,-7.29526 -0.47066,5.64794 22.82711,-12.47254 -8.23659,4.00062 -0.31377,1.64732 -2.58864,4.47129 1.64731,4.94195 12.47255,-6.35394 -9.8839,4.94196 0.94132,9.64857 -3.0593,9.17791 2.82397,6.35394 1.41198,-6.58927 4.47129,-5.64795 5.17729,-5.17728 -4.00063,9.41324 2.35331,-3.0593 1.41199,-3.05931 4.23595,-2.35331 -4.70662,6.35394 2.35331,3.7653 7.05994,5.64794 20.70913,8.47192 0.47066,-3.0593 3.0593,10.35456 -2.58864,13.41387 7.76592,9.41324 -5.64794,-0.94132 1.41199,4.70662 0.78443,9.41324 5.17729,1.2551 4.23595,-4.23596 5.64795,-7.53059 -4.23596,3.29463 3.7653,3.29464 4.47129,4.94195 -1.88265,9.8839 -1.09821,3.7653 -3.05931,-1.64732 -4.47129,-0.78444 -5.41261,4.00063 3.29463,2.58864 -3.52996,3.7653 3.0593,3.29463 -0.94132,4.70662 4.47129,0.47067 1.09821,-0.78444 4.70662,-2.35331 4.23596,3.0593 4.47129,-5.41261 -1.09821,-5.64795 1.88264,2.58865 4.47129,-4.47129 -3.52996,-5.17729 9.41324,6.11861 -2.58864,-4.70662 -1.09821,-5.41261 -4.00063,-6.35394 10.35457,7.53059 -5.88328,-12.23721 4.70662,4.23596 3.7653,0.94132 -0.94133,-4.94195 -4.70662,-6.35394 -4.47129,-9.17791 -9.8839,-7.05993 0.78444,-4.00063 2.58864,-4.94195 0.94132,-0.15689 15.29652,2.82397 20.4738,-22.35644 4.47129,-8.70725 -2.11798,-17.4145 -4.23596,3.7653 4.47129,-5.41262 4.23596,-8.23658 -3.29464,1.88265 -4.47129,1.41198 1.64732,-5.88327 -1.64732,-2.58864 6.8246,2.58864 4.23596,-3.29464 -9.17791,-1.41198 6.35394,-1.41199 -3.7653,0.31377 -3.76529,-0.78443 1.88265,-0.47066 15.53184,-12.23722 -5.41261,-8.94258 -3.0593,8.00126 -8.70725,0.94132 -11.29589,19.29715 4.94195,13.17853 -6.35394,-3.76529 8.23659,14.82585 4.23596,-1.64731 -3.29464,3.0593 0,5.17728 -13.88453,-13.17854 -5.17728,-7.76592 0.47066,4.00063 2.35331,2.58864 -9.17791,1.2551 3.7653,4.94195 -14.3552,2.35331 -8.94257,-8.94258 7.29526,-4.23596 -2.35331,-4.47129 3.76529,4.47129 -0.94132,5.17729 3.7653,3.52996 4.00062,-1.41199 -0.94132,-3.29463 0.94132,-4.00063 -2.11798,-5.17728 4.47129,4.00063 2.58865,-2.58864 2.58864,-3.52997 -9.17791,-1.88265 12.70787,-6.35394 6.11861,-16.00251 -5.41261,-15.76718 0.94132,-5.88327 -11.53122,12.00188 5.88327,13.88453 -3.52996,-2.82397 -2.11798,-3.29463 -0.31378,7.05993 2.11798,9.8839 -3.0593,-4.47129 -1.64732,-5.17728 -2.82397,3.29463 -1.88265,3.52997 4.00063,4.94195 -6.8246,4.70662 -0.47066,-2.35331 -0.47066,0.31377 -11.06056,16.94384 8.70725,12.94321 3.29463,0.78443 3.7653,0.94133 7.29526,-1.41199 -4.70662,2.35331 -4.23596,1.64732 3.52997,2.58864 2.35331,-1.41199 3.29463,0.78444 -4.23596,3.0593 5.88328,8.47192 0.78443,-6.8246 4.00063,-5.17728 4.70662,-6.11861 14.3552,9.17791 -16.00251,16.00251 -12.23722,-4.94195 -3.52996,-4.00063 -1.41199,6.11861 -0.78444,-10.82523 -10.82522,-10.82523 -10.82523,-15.06118 7.29526,-14.59053 3.7653,-6.35393 -3.29464,-3.7653 -5.64794,12.70788 -2.58864,-8.94258 -4.94196,3.76529 -16.47317,10.5899 3.29464,-12.70788 -13.41387,1.41199 -14.82586,-1.88265 12.23722,-12.94321 m -2.35331,-14.35519 1.25509,-1.09821 -1.25509,-1.88265 0,3.05931 m -1.41199,-11.06056 -2.35331,0.47066 2.35331,2.58864 0,-3.0593 z m 41.18293,-17.4145 -5.17728,4.47129 4.23596,1.88265 -3.05931,-2.11798 4.00063,-4.23596 m 1.64732,-4.00063 -0.15689,9.41324 -7.05993,7.29527 6.35394,-3.05931 1.88265,-9.64857 0.15688,-5.41261 -7.76592,4.70662 6.58927,-3.29464 m -24.70976,6.35394 -4.23596,0.47066 -2.11798,3.05931 0.94133,0.47066 5.41261,-4.00063 m -7.53059,0.78444 0.78443,2.11798 2.11798,-2.35331 -2.82397,0.15688 z m 8.70724,-0.78444 -6.35393,5.17728 -3.52997,-4.23596 -0.94132,-1.64731 11.76655,0.47066 -0.94133,0.15689 z m -6.35393,-15.06119 -5.88328,-14.35519 6.8246,5.64795 5.41261,1.41198 -1.64731,4.23596 8.47191,0 2.58865,-6.58927 4.23595,-8.00125 3.7653,7.76592 1.09821,6.58927 5.41262,0 4.23595,-7.05993 5.17729,-5.17728 -4.70662,18.59115 9.8839,8.47191 1.41199,6.58927 -8.00126,-3.0593 11.29589,4.00063 -10.5899,7.05993 7.29527,-1.09821 2.35331,3.29463 2.35331,9.64857 -13.88453,-1.25509 7.53059,3.76529 -0.47066,16.70851 -8.00126,-10.11924 6.35394,8.94258 -5.17728,10.11923 -4.00063,-5.88327 -1.41199,-3.52997 -3.76529,16.94384 -2.58864,-15.53185 -4.00063,11.06056 -7.05993,4.00063 1.88265,-11.29589 -9.41325,15.76718 0.78444,-11.06056 2.35331,-8.94258 -3.7653,8.23658 -6.8246,4.00063 -5.41261,-0.47066 6.8246,-10.5899 -14.11986,11.53122 -5.64795,-1.64731 10.82523,-14.3552 -12.23721,-5.88327 14.59052,-0.94133 6.11861,-1.88265 0,-2.35331 1.88265,-1.25509 0.47066,2.35331 5.64794,-4.47129 3.29464,2.11798 1.88265,-5.41262 4.70662,-0.78443 -2.58864,-2.82398 5.17728,-1.64731 -3.52997,-2.58865 -0.94132,-4.00062 -3.52997,-3.29464 3.05931,5.17728 0.47066,3.05931 2.11798,1.41198 -4.70662,0.78444 2.58864,3.29464 -3.7653,0 -1.64732,5.41261 -2.82397,-2.58864 -4.70662,4.94195 -0.62755,-3.52997 -6.35394,4.23596 -6.58926,0.62755 -1.64732,-2.11798 1.64732,-1.2551 0.78443,-1.88264 5.17729,-0.31378 4.47128,-3.29463 -9.41324,0 -11.06055,4.70662 -6.35394,-14.3552 9.17791,10.35457 15.29651,-6.8246 -5.64794,-2.35331 -8.47192,2.82397 -4.23596,-7.29526 -0.31377,-3.7653 10.35456,-4.94195 1.64732,-6.8246 6.8246,-0.78444 3.05931,-2.82397 -0.94133,-2.82397 15.06119,0 0.47066,-0.94132 -15.76718,0"
       style="fill:#ffffff;fill-opacity:1;fill-rule:evenodd;stroke:none"
       id="path82474" />
  </g>
</svg>
