<svg id="Layer_1" data-name="Layer 1" xmlns="http://www.w3.org/2000/svg" viewBox="0 0 93.1511 93.1511"><defs><style>.cls-1{fill:#fff;}.cls-2{fill:#cd181e;}</style></defs><path class="cls-1" d="M46.5665.877a45.689,45.689,0,1,0,.002,0h-.002"/><path class="cls-2" d="M46.566.5A46.0855,46.0855,0,1,0,79.177,14.03l-.037-.037A45.7684,45.7684,0,0,0,46.566.5m45.417,46.067a45.4165,45.4165,0,1,1-13.302-32.114,45.4168,45.4168,0,0,1,13.302,32.114"/><path class="cls-2" d="M46.5665,90.6779a44.111,44.111,0,1,0-44.111-44.112,44.111,44.111,0,0,0,44.111,44.112"/><path class="cls-1" d="M26.5014,79.5744a.764.764,0,1,0-.764-.764h0a.7639.7639,0,0,0,.7638.764h0"/><path class="cls-1" d="M67.7889,78.85a.764.764,0,1,0-.763-.765v.001a.7633.7633,0,0,0,.7626.764h0"/><path class="cls-1" d="M15.1071,25.9839a.764.764,0,1,0-.764-.764h0a.7639.7639,0,0,0,.7638.764h0"/><path class="cls-1" d="M46.5664,78.0216a31.455,31.455,0,1,0-31.455-31.455,31.455,31.455,0,0,0,31.455,31.455m-30.619-31.455a30.619,30.619,0,1,1,30.619,30.62,30.6189,30.6189,0,0,1-30.619-30.62"/><path class="cls-1" d="M33.9192,39.3407a13.9146,13.9146,0,0,1-2.168-5.568H21.6222l-.742,1.948a3.9511,3.9511,0,0,1,2.459,3.151V51.22c0,.691-.916,2.077-3.016,2.971l.835,2.103H31.32c.744,0,6.828-.645,6.684-8.182-.055-2.826-2.122-6.035-4.085-8.771m-.324,8.214c-.549,4.223-3.806,3.898-3.806,3.898H27.485V38.3987c0,.431,6.713,4.515,6.11,9.156"/><path class="cls-1" d="M53.6418,46.9512a32.18,32.18,0,0,0-2.659-3.354c1.118-1.508,2.407-3.262,1.935-6.164a6.5509,6.5509,0,0,0-4.288-5.007,10.7887,10.7887,0,0,0-11.554,1.995,5.5194,5.5194,0,0,1,2.088,4.13v11.606c0,1.467-1.294,4.976-3.713,6.137h6.197a4.3678,4.3678,0,0,1-1.244-3.589c.333-1.965,1.745-3.527,3.215-3.575v-6.123l5.011,5.289a3.3786,3.3786,0,0,1,.611,3.202,2.3711,2.3711,0,0,1-2.56,1.671c-1.074-.195-1.878-.749-1.924-1.723s-.568-1.1-.892-1.193a1.8321,1.8321,0,0,0-1.36.457,3.48,3.48,0,0,0-1.067,2.969,5.0262,5.0262,0,0,0,5.29,4.038c2.831,0,5.475-.928,7.054-3.666a7.1745,7.1745,0,0,0-.14-7.1m-4.429-8.472a3.9247,3.9247,0,0,1-1.418,3.042s-3.254-3.088-3.573-3.388a1.83,1.83,0,0,1-.047-2.737c1.197-1.171,2.581-.354,3.232.018.348.199,1.867,1.655,1.806,3.065"/><path class="cls-1" d="M62.4572,33.7723h-4.548l-.974,1.902a2.675,2.675,0,0,1,1.206,2.182c.046,3.201-2.692,7.609-3.48,8.677,0,0,2.505,4.162.139,7.611a5.0564,5.0564,0,0,0,4.13,2.15h12.949l.836-2.112c-1.231-.475-3.019-1.909-3.019-2.999V39.0873a3.9852,3.9852,0,0,1,2.461-3.375l-.741-1.949-6.081.009v17.726s-5.201,1.218-6.021-3.434c-.279-1.578.015-3.7,1.704-7.517,1.597-3.607,1.439-3.985,1.439-4.749Z"/><path class="cls-1" d="M19.27,76.8246l-.35-.35c-1.609-1.611-1.964-3.832-.542-5.251,1.407-1.405,3.073-.777,4.616.768l.558.56Zm6.712-3.198-2.678-2.683c-2.943-2.949-5.262-2.11-6.337-1.038-1.453,1.451-1.585,4.384,1.084,7.058l2.29,2.295.293-.292c-.401-.528-.164-.765.176-1.104l3.776-3.77c.34-.339.577-.576,1.104-.175Z"/><path class="cls-1" d="M14.0434,65.4116l-2.904.161,1.759-2.344ZM9.2414,65.1l.902,1.721,7.408-.39c.345-.014.851-.083,1.101.346l.366-.192-1.219-2.326-.366.192c.168.608-.033.729-.539.751l-1.821.108-1.524-2.906,1.094-1.496c.3-.415.517-.603.912-.04l.367-.192-1.455-2.777-.367.192a.7587.7587,0,0,1-.21.852Z"/><path class="cls-1" d="M7.5442,56.1879l5.02-.905c.473-.085.803-.145.786-.741l.406-.074.447,2.479-.406.074c-.193-.564-.522-.505-.995-.42l-5.251.947c-.472.085-.801.144-.785.741l-.407.072-.485-2.689,2.75-4.756-2.198.396c-.472.085-.802.145-.785.74l-.406.074-.447-2.478.406-.074c.193.564.522.505.995.419l5.251-.945c.473-.086.803-.145.786-.741l.406-.074.447,2.479-.406.073c-.193-.564-.522-.505-.995-.42l-1.033.187Z"/><path class="cls-1" d="M9.8711,44.6036l.38-.374a.8127.8127,0,0,0,.542.371c.865.1,1.361-1.192,1.456-2.017.107-.945-.129-2.307-1.073-2.415-2.096-.24-1.306,5.918-4.301,5.575-1.697-.194-2.053-2.284-1.857-4.001a5.2269,5.2269,0,0,1,1.948-3.755L7.9,39.6316l-.306.424a.5226.5226,0,0,0-.319-.158c-.788-.09-1.152,1.23-1.237,1.961-.086.759-.087,1.946.723,2.038,1.686.193,1.186-6.04,4.39-5.673,1.842.211,2.345,2.493,2.125,4.41a4.7288,4.7288,0,0,1-2.532,4.052Z"/><path class="cls-1" d="M16.3674,29.2431a1.1377,1.1377,0,0,0,.732-.487l.379.164-1.265,2.94-.379-.163c.212-.609-.009-.601-.299-.521l-4.011,1.103.482,1.591,1.61.693c.441.19.749.323,1.064-.184l.379.164L13.8724,37.3l-.379-.163c.152-.577-.157-.71-.597-.899l-4.902-2.109c-.441-.19-.748-.323-1.063.183l-.379-.163,1.185-2.756.38.164c-.151.576.156.708.598.898l2.009.865-1.149-3.6c-.178-.545-.401-.422-.68.028l-.379-.164,1.382-3.211.379.163a2.2921,2.2921,0,0,0,.084,1.64l.698,2.503Z"/><path class="cls-1" d="M22.032,22.04l-1.946-2.153,1.303-1.177c.884-.799,1.977-1.228,2.725-.4.681.754.145,1.72-.651,2.438Zm-1.146,2.33,3.698-3.34c1.252-1.132,1.989-2.715.95-3.867a2.3166,2.3166,0,0,0-3.11-.003l-.015-.018a1.9854,1.9854,0,0,0,.106-2.441c-.816-.904-2.2-.556-3.124.278l-3.848,3.475.277.307c.497-.329.722-.08,1.044.276l3.576,3.96c.321.356.546.604.169,1.066Zm-1.443-5.196-1.467-1.623,1.402-1.267c.607-.547,1.358-.834,1.889-.246.592.654.174,1.332-.511,1.951Z"/><path class="cls-1" d="M32.3453,15.0749a2.9228,2.9228,0,0,1-4.142-1.521,2.9593,2.9593,0,0,1,1.617-4.197,2.9045,2.9045,0,0,1,4.087,1.497,2.9569,2.9569,0,0,1-1.562,4.221m.411.942c2.747-1.241,3.939-3.678,2.918-5.937-.988-2.187-3.712-2.817-6.289-1.654-2.612,1.181-3.955,3.674-2.954,5.891,1.016,2.248,3.627,2.919,6.325,1.7"/><path class="cls-1" d="M38.4669,13.2662c.571-.17.525-.503.458-.977l-.742-5.285c-.066-.474-.113-.806-.709-.813l-.058-.409,2.972-.417.057.409c-.57.17-.525.502-.458.978l.792,5.637,2.546-.358c.717-.1,1.325-.298,1.306-1.016l.663-.093.248,1.768-7.017.985Z"/><path class="cls-1" d="M51.372,10.1308l.344.408a.8129.8129,0,0,0-.414.511c-.165.855,1.084,1.449,1.899,1.608.934.181,2.31.05,2.491-.881.402-2.072-5.799-1.762-5.225-4.721.326-1.677,2.437-1.87,4.135-1.541a5.2278,5.2278,0,0,1,3.592,2.234l-1.713.804-.398-.339a.5244.5244,0,0,0,.183-.306c.15-.777-1.137-1.244-1.86-1.384-.75-.146-1.932-.24-2.088.561-.323,1.665,5.929,1.652,5.314,4.819-.353,1.819-2.668,2.142-4.562,1.775a4.729,4.729,0,0,1-3.842-2.838Z"/><path class="cls-1" d="M63.6148,9.58l1.233.619c.958.481,1.606,1.369,1.165,2.247-.616,1.226-2.797.793-4.122.566Zm-.879,4.555c1.908.409,4.184.803,5.07-.964.567-1.127.094-2.513-1.989-3.559L61.8908,7.64l-.185.369c.486.345.336.644.12,1.073l-2.395,4.769c-.216.428-.365.728-.932.543l-.186.369,2.682,1.347.186-.369c-.487-.345-.337-.644-.121-1.073l.406-.808Z"/><path class="cls-1" d="M68.7081,19.44c-.294.379-.499.644-.088,1.076l-.253.326-2.372-1.838.254-.326c.52.29.725.026,1.018-.354l3.27-4.218c.293-.379.499-.644.088-1.075l.252-.327,2.372,1.838-.253.327c-.52-.291-.726-.026-1.019.353Z"/><path class="cls-1" d="M69.7843,21.3709c.459.38.709.157,1.067-.162l3.981-3.554c.358-.319.608-.542.282-1.041l.307-.276,1.999,2.239-.308.275c-.459-.38-.71-.157-1.067.163l-4.248,3.791,1.713,1.918c.481.54.984.936,1.57.52l.447.5-1.332,1.189-4.719-5.287Z"/><rect class="cls-1" x="78.1604" y="24.9214" width="1.1168" height="3.1215" transform="translate(-2.0684 45.7533) rotate(-32.0104)"/><path class="cls-1" d="M85.2776,35.0566c.453-.156.769-.266.662-.852l.391-.135.978,2.837-.39.135c-.277-.528-.594-.418-1.047-.262l-5.045,1.739c-.454.157-.77.266-.662.852l-.391.135-1.371-3.977c-1.031-2.988.6-4.557,1.888-5.002,1.72-.592,3.906.439,4.212.334.191-.066.164-.383.092-.557l.39-.134.948,2.748-.39.135c-.896-1.123-3.287-1.276-4.437-.879-1.539.531-2.108,1.932-1.474,3.768l.327.949Z"/><path class="cls-1" d="M86.5533,42.5883l-5.097.185c-.481.018-.815.03-.883.622l-.413.014-.091-2.516.413-.015c.111.586.445.574.924.556l5.333-.193c.479-.017.815-.029.882-.622l.413-.015.099,2.731-3.396,4.319,2.231-.081c.481-.018.815-.03.882-.622l.414-.015.091,2.517-.413.015c-.11-.585-.444-.574-.924-.556l-5.333.193c-.48.018-.815.03-.882.622l-.414.014-.09-2.516.412-.015c.111.586.445.574.925.556l1.049-.037Z"/><path class="cls-1" d="M80.8505,53.7176c-.473-.085-.802-.145-.994.419l-.407-.073.532-2.953.407.073c-.017.597.313.656.785.741l5.252.947c.472.086.801.145.994-.419l.407.073-.532,2.954-.407-.075c.016-.595-.313-.655-.786-.739Z"/><path class="cls-1" d="M78.2223,60.4184a2.9229,2.9229,0,0,1,4.096-1.641,2.96,2.96,0,0,1,1.608,4.201,2.906,2.906,0,0,1-4.04,1.622,2.9572,2.9572,0,0,1-1.664-4.182m-.935-.425c-1.211,2.76-.466,5.369,1.803,6.365,2.199.963,4.645-.392,5.782-2.979,1.151-2.626.481-5.378-1.748-6.355-2.259-.991-4.648.258-5.837,2.969"/><path class="cls-1" d="M78.13,71.4358l-3.802-3.402c-.358-.32-.607-.543-1.067-.164l-.307-.275,1.679-1.877.307.276c-.326.499-.077.722.281,1.042l3.977,3.558c.357.32.607.544,1.066.165l.309.274-1.823,2.036-5.441.759,1.664,1.487c.357.321.606.544,1.065.165l.309.276-1.68,1.876-.308-.275c.328-.5.078-.723-.28-1.043l-3.977-3.559c-.357-.319-.607-.543-1.066-.163l-.308-.275,1.679-1.877.308.275c-.327.499-.077.722.281,1.042l.782.7Z"/><path class="cls-1" d="M35.3251,78.5373l-2.55,6.465c-.244.622-.089.832.705,1.193l-.157.398-4-1.578.156-.397c1.174.414,1.349.198,1.631-.521l2.013-5.103a6.1809,6.1809,0,0,1-1.781-.231l.237-.6a4.9135,4.9135,0,0,0,2.549-.097Z"/><path class="cls-1" d="M39.5629,85.63a1.54,1.54,0,0,1,1.921-1.43,1.6234,1.6234,0,0,1,1.5537,1.69q-.0033.0767-.0137.1528a1.6494,1.6494,0,0,1-1.8282,1.4487q-.081-.0094-.1608-.0267a1.5672,1.5672,0,0,1-1.472-1.835m.304-2.18a2.3092,2.3092,0,0,0-2.275,1.906c-.241,1.805,1.367,2.831,3.327,3.093,1.974.263,3.855-.464,4.089-2.224a2.2435,2.2435,0,0,0-1.755-2.326l.003-.022-.002.011a1.8313,1.8313,0,0,0,1.793-1.528c.194-1.462-1.546-2.217-3.013-2.412-1.439-.192-3.344.184-3.528,1.565a1.9077,1.9077,0,0,0,1.364,1.914Zm2.023-2.521c.891.118,1.487.569,1.383,1.345-.097.732-.864,1.048-1.673.941-.877-.116-1.45-.635-1.352-1.376.1-.743.806-1.021,1.642-.91"/><path class="cls-1" d="M49.85,86.11a1.54,1.54,0,0,1,1.492-1.871,1.6234,1.6234,0,0,1,1.9339,1.2371c.0111.0508.02.1022.0261.1539a1.6476,1.6476,0,0,1-1.397,1.8648q-.0816.0117-.164.0152a1.5651,1.5651,0,0,1-1.891-1.4m-.261-2.184a2.3109,2.3109,0,0,0-1.716,2.422c.229,1.806,2.044,2.391,4.007,2.144,1.975-.249,3.61-1.431,3.387-3.192a2.2423,2.2423,0,0,0-2.289-1.802l-.004-.023.002.011a1.8323,1.8323,0,0,0,1.345-1.934c-.185-1.464-2.061-1.75-3.528-1.565-1.441.182-3.188,1.03-3.013,2.413a1.9078,1.9078,0,0,0,1.806,1.503Zm1.314-2.954c.892-.112,1.583.173,1.681.95.092.732-.57,1.234-1.379,1.335-.878.11-1.564-.244-1.657-.988-.094-.742.519-1.192,1.355-1.297"/><path class="cls-1" d="M59.6241,78.7739a1.6327,1.6327,0,0,1,2.1971.71q.0311.0606.0569.1237a1.6835,1.6835,0,0,1-1.0518,2.1359l-.0032.0011A1.6031,1.6031,0,0,1,59.51,78.82q.0564-.0253.1146-.0462m3.05,2.637a2.6613,2.6613,0,0,1-1.513,3.83c-.537.219-1.297.443-1.652-.021l-.64.261.502,1.226a11.239,11.239,0,0,0,2.2-.612,4.4472,4.4472,0,0,0,2.667-6.12,3.64,3.64,0,0,0-5.156-2.124c-1.792.732-2.854,2.299-2.223,3.846.568,1.386,2.215,1.908,3.879,1.228a2.91,2.91,0,0,0,1.792-1.791l.026-.011Z"/><path class="cls-1" d="M48.7356,6.8718c-.077-1.251-1.377-2.506-3.634-2.366l-1.879.116-.136.009.008.136.015.24.007.118.119.009c.265.02.27.094.286.373l.193,3.093c.016.278.022.353-.238.405l-.117.023.007.119.015.24.008.136.136-.009,2.197-.136c2.327-.144,3.082-1.389,3.013-2.506m-3.689,1.716-.201-3.233.152-.011a1.9883,1.9883,0,0,1,2.335,1.5667q.0084.0429.015.0863c.06.957-.606,1.486-1.979,1.571Z"/><path class="cls-1" d="M46.3482,18.1674s-2.253.061-2.941.798c0,0,3.132,4.876-.589,5.01a2.0773,2.0773,0,0,1-2.004-.819c-.497-.956-.195-2.425.869-2.56a3.9631,3.9631,0,0,0-4.856-.843c-1.767.81-1.866,3.29-1.669,3.978,0,0-3.818-.921-5.438,2.172a4.79,4.79,0,0,0,.073,4.235,6.4793,6.4793,0,0,1,3.461-1.631c1.232-.222,4.958.823,6.114.71,1.326-.129,4.181-.184,5.606-3.375.253-.568.44-1.223.61-.762.29.786.503.956.623.974a.3513.3513,0,0,0,.141.031.3467.3467,0,0,0,.141-.031c.119-.018.333-.188.623-.974.17-.461.357.194.61.762,1.425,3.191,4.279,3.246,5.606,3.375,1.155.113,4.881-.932,6.114-.71a6.48,6.48,0,0,1,3.461,1.631,4.7943,4.7943,0,0,0,.074-4.235c-1.621-3.093-5.439-2.172-5.439-2.172.197-.688.098-3.168-1.669-3.978a3.9631,3.9631,0,0,0-4.856.843c1.064.135,1.366,1.604.869,2.56a2.0773,2.0773,0,0,1-2.004.819c-3.721-.134-.589-5.01-.589-5.01-.688-.737-2.941-.798-2.941-.798"/><path class="cls-2" d="M62.5262,27.47c-.224-1.413-1.174-2.51-3.396-2.871a9.7061,9.7061,0,0,0-2.641.091,4.0239,4.0239,0,0,0,.219-1.365,3.2856,3.2856,0,0,0-.894-2.402,3.1551,3.1551,0,0,0-2.503-.644l-.934.289s.214.087.491.709a2.3678,2.3678,0,0,1-.393,2.483,3.1342,3.1342,0,0,1-3.263,1.075,2.3684,2.3684,0,0,1-1.364-.775c-.001-.001.411,1.085.655,1.582.28.57,1.841,3.797,7.693,2.263a8.0119,8.0119,0,0,1,5.323.211,7,7,0,0,1,.979.609s.192-.218.028-1.255"/><path class="cls-2" d="M30.1708,27.47c.223-1.413,1.173-2.51,3.396-2.871a9.7061,9.7061,0,0,1,2.641.091,3.9992,3.9992,0,0,1-.219-1.365,3.2889,3.2889,0,0,1,.893-2.402,3.1559,3.1559,0,0,1,2.503-.644l.934.289s-.213.087-.49.709a2.3651,2.3651,0,0,0,.392,2.483,3.1346,3.1346,0,0,0,3.263,1.075,2.3648,2.3648,0,0,0,1.364-.775c.002-.001-.411,1.085-.654,1.582-.281.57-1.841,3.797-7.693,2.263a8.0107,8.0107,0,0,0-5.323.211,6.9941,6.9941,0,0,0-.979.609s-.192-.218-.028-1.255"/><path class="cls-2" d="M46.2952,24.47a.257.257,0,0,1-.25-.208s-.516-2.138-.761-2.929-.654-1.746-.654-1.746a2.8886,2.8886,0,0,1,1.665-.421h.106a2.8937,2.8937,0,0,1,1.666.421s-.41.955-.655,1.746-.761,2.929-.761,2.929a.2571.2571,0,0,1-.25.208Z"/><path class="cls-1" d="M46.6137,75.083a6.4953,6.4953,0,0,1-2.262-.396A2.498,2.498,0,0,1,43.0079,71.42l.0118-.0278c-1.2.873-3.1.046-3.683-2.087a4.9343,4.9343,0,0,1,.56-4.217,2.25,2.25,0,0,0-2.869,1.907,5.9065,5.9065,0,0,0,.419,3.32s-.664.454-2.192-.164c-2.129-.861-1.831-3.47-1.831-3.47a3.3846,3.3846,0,0,1-3.359-.544c-2.898-2.352-2.721-4.774-2.721-4.774s3.591,1.433,5.363,1.217c1.298-.158,2.893-.636,4.202-.845,3.247-.519,6.184,2.484,6.184,2.484-.934-3.592,2.845-3.79,3.521-3.772s4.455.18,3.522,3.772c0,0,2.937-3.003,6.183-2.484,1.309.209,2.904.687,4.201.845,1.773.216,5.364-1.217,5.364-1.217s.178,2.422-2.721,4.774a3.3846,3.3846,0,0,1-3.359.544s.299,2.609-1.83,3.47c-1.529.6179-2.194.164-2.194.164a5.8908,5.8908,0,0,0,.42-3.32,2.25,2.25,0,0,0-2.869-1.907,4.9346,4.9346,0,0,1,.56,4.217c-.583,2.133-2.483,2.96-3.682,2.087a2.4979,2.4979,0,0,1-1.3043,3.2828l-.0287.0122a6.4953,6.4953,0,0,1-2.262.396"/><path class="cls-2" d="M35.8445,62.7164c3.403-1.164,6.193,1.555,6.193,1.555a2.2432,2.2432,0,0,0-1.746.327,2.7834,2.7834,0,0,0-3.247.764c-1.361,1.507-.42,4.475-.42,4.475s-3.263-.11-2.357-4.107a10.8452,10.8452,0,0,1-2.122.441c-2.353.034-4.058-3.819-4.058-3.819a10.1035,10.1035,0,0,0,7.757.364"/><path class="cls-2" d="M52.106,65.0429a3.1836,3.1836,0,0,0-1.87-.007,11.1324,11.1324,0,0,0-1.711,1.312,2.347,2.347,0,0,1,.456,1.334,1.9981,1.9981,0,0,1-.436,1.309s1.556,1.445,1.808,1.581a1.5909,1.5909,0,0,0,2.059-.131,4.28,4.28,0,0,0,.589-4.541,1.5436,1.5436,0,0,0-.895-.857"/><path class="cls-2" d="M57.3833,62.7164c-3.403-1.164-6.193,1.555-6.193,1.555a2.2432,2.2432,0,0,1,1.746.327,2.7834,2.7834,0,0,1,3.247.764c1.362,1.507.42,4.475.42,4.475s3.263-.11,2.357-4.107a10.86,10.86,0,0,0,2.122.441c2.353.034,4.058-3.819,4.058-3.819a10.1035,10.1035,0,0,1-7.757.364"/><path class="cls-2" d="M41.1218,65.0429a3.1836,3.1836,0,0,1,1.87-.007,11.19,11.19,0,0,1,1.711,1.312,2.3455,2.3455,0,0,0-.456,1.334,1.9981,1.9981,0,0,0,.436,1.309s-1.556,1.445-1.809,1.581a1.5914,1.5914,0,0,1-2.059-.131,4.2817,4.2817,0,0,1-.588-4.541,1.543,1.543,0,0,1,.895-.857"/><path class="cls-2" d="M49.2265,62.1983a3.2486,3.2486,0,0,0-2.578-1.012v-.001l-.035.001-.033-.001v.001a3.25,3.25,0,0,0-2.579,1.012,2.5211,2.5211,0,0,0-.136,2.455,4.2255,4.2255,0,0,0,1.199,1.217,2.744,2.744,0,0,1,3.098,0,4.2114,4.2114,0,0,0,1.2-1.217,2.5188,2.5188,0,0,0-.136-2.455"/><path class="cls-2" d="M49.4723,71.2824c-.197-.394-1.31-1.828-1.31-1.828a3.1425,3.1425,0,0,1-3.097,0s-1.112,1.434-1.309,1.828a2.6618,2.6618,0,0,0,.001,1.649,1.5419,1.5419,0,0,0,.856.895,5.3428,5.3428,0,0,0,1.967.437v.002c.011,0,.023-.001.033-.002.012.001.023.002.034.002v-.002a5.3252,5.3252,0,0,0,1.966-.437,1.5452,1.5452,0,0,0,.858-.895,2.6772,2.6772,0,0,0,.001-1.649"/></svg>