<?xml version="1.0" encoding="utf-8"?>
<!-- Generator: Adobe Illustrator 26.3.1, SVG Export Plug-In . SVG Version: 6.00 Build 0)  -->
<svg version="1.1" id="Livello_1" xmlns="http://www.w3.org/2000/svg" xmlns:xlink="http://www.w3.org/1999/xlink" x="0px" y="0px"
	 viewBox="0 0 295.4 500" style="enable-background:new 0 0 295.4 500;" xml:space="preserve">
<style type="text/css">
	.st0{fill:#FF0028;}
	.st1{fill:#FFC908;}
</style>
<path class="st0" d="M147.7,500l-1-0.2c-25.3-6.8-49.8-16.7-72.8-29.3C25.5,443.5,0,409.3,0,371.5V116.6
	c0.1-10.8,8.9-19.4,19.7-19.3h256c10.8-0.1,19.6,8.6,19.7,19.3v255c0,38.6-25.6,73-73.9,99.6c-23,12.5-47.5,22.1-72.8,28.6
	L147.7,500z"/>
<path class="st1" d="M147.7,500l-1-0.2c-25.3-6.8-49.8-16.7-72.8-29.3C25.5,443.5,0,409.3,0,371.5V116.6
	c0.1-10.8,8.9-19.4,19.7-19.3h256c10.8-0.1,19.6,8.6,19.7,19.3v255c0,38.6-25.6,73-73.9,99.6c-23,12.5-47.5,22.1-72.8,28.6
	L147.7,500z M12.7,110.8v258.8c0,34.3,22.7,64.3,67.3,89.4c30.7,17.2,61.9,26,67.7,27.6c12.2-3.1,135-36.7,135-116.9V110.8H12.7z"/>
<polygon class="st1" points="109.3,27.9 138.6,27.9 147.7,0 156.8,27.9 186.1,27.9 162.4,45.1 171.4,73 147.7,55.8 124,73 133,45.1 
	"/>
<path class="st1" d="M85.3,425.4l-3.8,3.3l-3.4-2.7c0.6-0.5,1-1.2,1-2v-10.5c0-0.5-0.1-1-0.4-1.5c-0.3-0.3-0.7-0.5-1-0.7l-1.2,1
	l-0.5-0.6l3.6-3.1c0.4,0.2,0.8,0.5,1.2,0.7c0.4,0.2,0.7,0.5,1,0.9c0.2,0.4,0.3,0.8,0.4,1.2c0.1,0.5,0.1,1.1,0.1,1.6v11.6
	c0.1,0.2,0.3,0.4,0.4,0.6c0.3,0.4,0.6,0.6,0.8,0.6c0.1,0,0.3-0.2,0.7-0.5c0.1-0.1,0.3-0.3,0.6-0.6L85.3,425.4z"/>
<path class="st1" d="M99.7,417.1c0,2.2-0.6,4.3-1.6,6.2c-1.3,2.1-3,3.9-5,5.4l-5.5-2.7l2.3-2.3l4.6,2.5c1.8-2,2.7-4.6,2.5-7.2v-1.1
	l-6.3,4.5c-2.6-1.1-3.9-2.9-3.9-5.3c0-1.5,0.5-2.9,1.4-4.1c1.3-1.6,2.9-3,4.7-4.1c2,0.5,3.7,1.7,5.1,3.2
	C99.1,413.4,99.8,415.2,99.7,417.1 M96.8,417.2c-0.3-1.4-0.9-2.6-1.9-3.7c-1.1-1-2.4-1.7-3.9-2.1c-1.2,0.8-2,2.1-1.9,3.6
	c0,1.2,0.4,2.3,1.2,3.2c0.6,0.8,1.5,1.3,2.6,1.4c0.1,0,0.3,0,0.4,0c0.2,0,0.4-0.1,0.5-0.3L96.8,417.2z"/>
<path class="st1" d="M208,418.1c0,2-0.5,3.9-1.5,5.6c-1.3,2-2.9,3.7-4.8,5c-2-0.6-3.8-1.8-5-3.5c-1.2-1.7-1.9-3.8-1.8-6
	c0-2,0.5-4.1,1.6-5.8c1.2-1.9,2.9-3.6,4.8-4.8c2,0.9,3.7,2.2,5.1,3.9C207.5,414.2,208.1,416.1,208,418.1 M205.8,419.4
	c0-1.9-0.6-3.7-1.8-5.1c-1.3-1.5-3-2.5-4.9-2.9c-0.6,0.7-1.2,1.6-1.5,2.5c-0.3,0.9-0.5,1.8-0.4,2.7c-0.1,2.2,0.6,4.3,1.9,6.1
	c1.2,1.7,2.9,2.8,4.9,3.2C205.2,424.1,205.9,421.8,205.8,419.4"/>
<path class="st1" d="M222.9,417.1c0,2.2-0.6,4.3-1.6,6.2c-1.3,2.1-3,4-5.1,5.4l-5.5-2.7l2.4-2.3l4.6,2.5c1.7-1.7,2.5-4.2,2.5-7.3
	v-1.1l-6.4,4.5c-2.6-1.1-3.9-2.9-3.9-5.4c0-1.5,0.5-2.9,1.4-4.1c1.3-1.6,2.9-3,4.7-4.1c2,0.6,3.7,1.7,5.1,3.2
	C222.3,413.3,223,415.2,222.9,417.1 M219.9,417.1c-0.3-1.4-0.9-2.7-1.9-3.7c-1.1-1-2.4-1.7-3.9-2.1c-1.2,0.8-2,2.2-1.9,3.6
	c0,1.2,0.4,2.3,1.2,3.2c0.6,0.8,1.5,1.3,2.6,1.4c0.1,0,0.3,0,0.4,0c0.2-0.1,0.4-0.1,0.5-0.3L219.9,417.1z"/>
<path class="st1" d="M184.2,418.7c0,20.2-16.4,36.5-36.5,36.5s-36.5-16.4-36.5-36.5c0-20.2,16.4-36.5,36.5-36.5
	C167.9,382.2,184.2,398.5,184.2,418.7 M147.7,386.2c-17.9,0-32.5,14.5-32.5,32.5c0,17.9,14.5,32.5,32.5,32.5s32.5-14.5,32.5-32.5
	C180.1,400.8,165.6,386.2,147.7,386.2"/>
<path class="st1" d="M133.3,410.7v4.4h-3.4v-13.6h8.7c1.6-0.1,3.1,0.3,4.4,1.2c1,0.8,1.6,2.1,1.5,3.4v0.1c0,0.9-0.2,1.9-0.7,2.7
	c-0.4,0.6-1.1,1.1-1.8,1.4l3.1,4.8H141l-2.5-4.4L133.3,410.7z M138.5,404.4h-5.2v3.4h5c0.7,0,1.4-0.1,2.1-0.4
	c0.4-0.3,0.7-0.8,0.7-1.3V406c0-0.5-0.2-1-0.6-1.3C139.9,404.4,139.2,404.3,138.5,404.4"/>
<polygon class="st1" points="152.4,415.1 152.4,401.4 166.5,401.4 166.5,404.4 156,404.4 156,406.9 165.5,406.9 165.5,409.7 
	156,409.7 156,415.1 "/>
<polygon class="st1" points="152.4,435.9 152.4,422.3 166.5,422.3 166.5,425.2 156,425.2 156,427.8 165.5,427.8 165.5,430.6 
	156,430.6 156,435.9 "/>
<polygon class="st1" points="129.9,422.3 144.6,422.3 144.6,425.2 133.5,425.2 133.5,427.5 143.2,427.5 143.2,430.3 133.5,430.3 
	133.5,433 144.7,433 144.7,435.9 129.9,435.9 "/>
<path class="st1" d="M153.9,358c-2.4,0.3-4.7,2.5-5.2,3.1c0-0.2,0-0.4,0-0.6c0-0.8-0.2-1.6-0.4-2.4c3-0.2,5.3-2.1,5.3-4.7
	c0-2.1-1.4-4-3.4-4.5c0-0.3,0.1-0.5,0.1-0.8c0.1-0.3,0.2-0.8,0.2-0.8c-0.3,0.1-0.6,0.2-0.9,0.3c-0.3,0.1-0.6,0.3-0.9,0.6
	c-0.1-0.2-0.2-0.4-0.3-0.7c-0.2-0.3-0.4-0.5-0.7-0.7c-0.3,0.2-0.5,0.4-0.8,0.6c-0.2,0.3-0.4,0.5-0.6,0.8c-0.2-0.2-0.5-0.4-0.8-0.5
	c-0.4-0.1-0.9-0.1-1.4,0c0,0,0.5,0.5,0.7,0.7c0.1,0.2,0.2,0.4,0.3,0.6c-2.2,0.2-3.3,2.4-3.3,4.4c0,2.5,2.4,4.5,5.4,4.7
	c0.1,0.8,0.2,1.6,0.2,2.4c0,0.1,0,0.2,0,0.3c-0.8-0.5-4.1-2.8-5.6-3.1c-2.2-0.5-4.8-0.1-5.8-0.2c0.6,0.5,1.3,1,1.9,1.6
	c1,0.9,2.2,1.6,3.5,2c2,0.5,4.1,0.4,6.1-0.2c-0.1,0.9-0.4,1.8-0.7,2.7c0,0,0.7-0.2,0.9-0.3c0.3-0.1,0.5-0.2,0.8-0.2c0,0,0.1-1,0.2-2
	l0.9-0.1c0.4-0.1,2.8,0.2,5,0.2c1.5-0.1,3-0.7,4.2-1.7c0.6-0.4,1.6-0.9,1.6-0.9C158.3,357.9,156.1,357.7,153.9,358 M146.2,353.4
	c0-1.6,0.6-3.1,1.8-4.2c2.3,2.3,2.3,6,0.1,8.3c0,0-0.1,0.1-0.1,0.1C146.9,356.5,146.2,355,146.2,353.4"/>
<path class="st1" d="M155.3,285.6h-3l-0.6,0.8c0.9,0.1,1.7,0.6,2.3,1.3l0.1,0.1l0.1-0.2c0.5-0.7,1.3-1.1,2.2-1.2l0,0l-0.6-0.8
	L155.3,285.6z"/>
<path class="st1" d="M138.2,278.2c-1.1,0-2,0.9-2,1.9c0,0,0,0,0,0c0,0.4,0.1,0.7,0.3,1.1l0.6,1.3c0.2-0.5,0.7-0.8,1.3-0.8
	c0.7,0,1.3,0.4,1.5,1.1h2.3c0.2-0.6,0.8-1.1,1.5-1.1c0.6,0,1.1,0.3,1.3,0.8l0.6-1.3c0.2-0.3,0.3-0.7,0.3-1.1c0-1.1-0.9-2-2-1.9
	c-0.8,0-1.5,0.5-1.8,1.2v0c0,0,0,0.1,0,0.1l0,0c0,0,0-0.1,0-0.1c0.5-1.1,0.7-2.2,0.7-3.4c0-1.9-1.8-3.9-1.8-3.9s-1.8,2-1.8,3.9
	c0,1.2,0.3,2.3,0.7,3.4c0,0,0,0.1,0,0.1l0,0c0,0,0-0.1,0-0.1l0,0C139.8,278.7,139,278.2,138.2,278.2"/>
<path class="st1" d="M150.1,282.6c0.2-0.5,0.7-0.8,1.3-0.8c0.7,0,1.3,0.4,1.5,1.1h2.3c0.2-0.6,0.8-1.1,1.5-1.1
	c0.6,0,1.1,0.3,1.3,0.8l0.6-1.3c0.2-0.3,0.3-0.7,0.3-1.1c0-1.1-0.9-2-2-1.9c-0.8,0-1.5,0.5-1.8,1.2l0,0c0,0,0,0,0,0.1v0
	c0,0,0-0.1,0-0.1c0.5-1.1,0.7-2.2,0.7-3.4c0-1.9-1.8-3.9-1.8-3.9s-1.8,2-1.8,3.9c0,1.2,0.3,2.3,0.7,3.4l0,0c0,0,0,0.1,0,0.1l0,0
	l0-0.1c-0.4-1-1.6-1.5-2.6-1c-0.7,0.3-1.2,1-1.2,1.8c0,0.4,0.1,0.7,0.3,1.1L150.1,282.6z"/>
<polygon class="st1" points="156.9,283.5 151.2,283.5 151.2,283.5 151.2,284.9 152.8,284.9 155.3,284.9 156.9,284.9 156.9,283.5 "/>
<path class="st1" d="M146.5,292.2C146.5,292.2,146.5,292.2,146.5,292.2L146.5,292.2L146.5,292.2
	C146.6,292.3,146.5,292.3,146.5,292.2c-0.4-1-1.6-1.5-2.6-1c-0.7,0.3-1.2,1-1.2,1.8c0,0.4,0.1,0.7,0.3,1.1l0.6,1.3
	c0.2-0.5,0.7-0.8,1.3-0.8c0.7,0,1.3,0.4,1.5,1.1h2.3c0.2-0.6,0.8-1.1,1.5-1.1c0.6,0,1.1,0.3,1.3,0.8l0.6-1.3
	c0.2-0.3,0.3-0.7,0.3-1.1c0-1.1-0.9-2-2-1.9c-0.8,0-1.5,0.5-1.8,1.2c0,0,0,0,0,0.1c0,0,0,0,0,0l0,0c0,0,0-0.1,0-0.1
	c0.5-1.1,0.7-2.2,0.7-3.4c0-1.9-1.8-3.9-1.8-3.9s-1.8,2-1.8,3.9C145.8,290,146.1,291.1,146.5,292.2"/>
<path class="st1" d="M148.9,298.4h-3l-0.6,0.8c0.9,0.1,1.7,0.6,2.3,1.3l0.1,0.1l0.1-0.2c0.5-0.7,1.3-1.1,2.2-1.2l0,0l-0.6-0.8
	L148.9,298.4z"/>
<polygon class="st1" points="139.9,284.9 142.4,284.9 144,284.9 144,283.5 144,283.5 138.3,283.5 138.3,283.5 138.3,284.9 "/>
<polygon class="st1" points="144.8,296.3 144.8,296.3 144.7,296.3 144.7,297.7 146.4,297.7 148.9,297.7 150.5,297.7 150.5,296.3 
	150.5,296.3 "/>
<path class="st1" d="M143.6,286.4l-0.6-0.8h-3.5l-0.6,0.8c0.9,0.1,1.7,0.6,2.3,1.3l0.1,0.1l0.1-0.2
	C141.8,287,142.6,286.5,143.6,286.4L143.6,286.4z"/>
<path class="st1" d="M178.5,224.6c2.6,1,4.8,2.7,6.5,5c1.2-0.8,3.3-1.5,4.7-0.8c0,0,0.1,0,0.1,0c0.2-0.2-0.5-1.2-0.9-1.2
	c0,0-0.1,0-0.1,0c-0.1,0.1-0.4,0.3-0.5,0.4c0,0-0.1,0-0.1,0c0-0.1,0.1-0.3,0.1-0.4c0,0,0-0.1,0-0.1c-0.2-0.3-0.6-0.3-0.9,0
	c-0.1,0.1-0.2,0.2-0.2,0.4c0,0,0,0.1,0,0.1c0.1,0.1,0.2,0.2,0.3,0.3c0.1,0,0,0.1-0.1,0.1c-0.3,0-0.8,0.1-1-0.2
	c-0.1-0.1-0.2-0.3-0.1-0.5c0,0,0-0.1,0-0.1c-0.1,0-0.3,0-0.4-0.1c-0.3-0.3,0-0.6,0.2-0.8c0,0,0.1-0.1,0.1,0c0,0.1,0.1,0.3,0.1,0.4
	c0,0,0,0.1,0,0.1c0.3,0.1,0.7,0,0.8-0.4c0.1-0.1,0.1-0.3,0-0.4c0,0,0,0-0.1,0c-0.1,0-0.3-0.1-0.4-0.1c0,0-0.1-0.1,0-0.1
	c0.2-0.1,0.5-0.2,0.6-0.3c0,0,0.1,0,0.1,0c0.1-0.3,0-0.7-0.4-0.8c-0.1-0.1-0.3-0.1-0.5,0c0,0,0,0,0,0.1c-0.1,0.2-0.2,0.5-0.3,0.6
	c0,0-0.1,0-0.1,0c0-0.1-0.1-0.3-0.1-0.4c0,0,0-0.1,0-0.1c-0.3-0.1-0.7,0-0.8,0.4c-0.1,0.1-0.1,0.3,0,0.5c0,0,0,0,0.1,0
	c0.2,0,0.3,0.1,0.4,0.1c0.1,0,0,0.1,0,0.1c-0.3,0.3-0.6,0.6-1,0.3c-0.2-0.1-0.3-0.4-0.2-0.6c0,0,0,0,0,0c-0.2,0.1-0.4,0-0.6-0.1
	c-0.5-0.4-0.1-0.8,0.1-1.1c0,0,0.1-0.1,0.1-0.1c0.1,0.1,0.1,0.3,0.2,0.4c0,0,0,0.1,0.1,0.1c0.3,0.1,0.7-0.1,0.8-0.4
	c0-0.2,0-0.3-0.1-0.5c0,0,0,0-0.1,0c-0.1,0-0.3,0-0.5-0.1c0,0-0.1,0,0-0.1s0.4-0.3,0.6-0.4c0,0,0.1,0,0.1-0.1
	c0.1-0.3-0.1-0.7-0.4-0.8c-0.2,0-0.3,0-0.5,0.1c0,0,0,0.1,0,0.1c-0.1,0.2-0.2,0.6-0.2,0.6c0,0,0,0-0.1,0c0,0,0,0,0,0
	c0,0-0.1-0.3-0.2-0.4c0,0,0-0.1-0.1-0.1c-0.3-0.1-0.7,0.1-0.8,0.5c0,0.2,0,0.3,0.1,0.4c0,0,0,0,0.1,0l0.5,0.1c0.1,0,0,0.1,0,0.2
	c-0.3,0.3-0.6,0.8-1,0.4c-0.2-0.1-0.2-0.3-0.2-0.5c0,0,0,0,0,0c-0.2,0.1-0.5,0.1-0.6,0c-0.4-0.3-0.2-0.7,0-1c0,0,0.1-0.1,0.1-0.1
	c0.1,0.1,0.2,0.3,0.2,0.4c0,0,0,0.1,0.1,0.1c0.3,0,0.6-0.2,0.7-0.6c0-0.2,0-0.3-0.1-0.4c0,0-0.1,0-0.1,0c-0.2,0-0.3,0-0.5,0
	c0,0-0.1,0,0-0.1c0.1-0.1,0.4-0.4,0.5-0.4c0,0,0.1,0,0.1-0.1c0-0.2-0.1-0.5-0.3-0.6c-0.2-0.1-0.5-0.1-0.7,0c0,0,0,0.1,0,0.1
	c0,0.2-0.1,0.5-0.1,0.7c0,0-0.1,0-0.1,0c0-0.1-0.2-0.3-0.2-0.4c0,0,0,0-0.1-0.1c-0.3,0-0.6,0.2-0.7,0.5c0,0.2,0,0.3,0.1,0.4
	c0,0,0,0,0.1,0c0.1,0,0.3,0,0.5,0c0.1,0,0,0.1,0,0.2c-0.2,0.3-0.3,0.6-0.7,0.4c-0.1-0.1-0.2-0.2-0.2-0.3c0,0,0,0-0.1,0
	c-0.1,0.1-0.3,0.1-0.5,0c-0.3-0.1-0.4-0.7-0.4-0.9c0-0.1,0-0.2,0.1-0.1s0.3,0.2,0.4,0.2c0,0,0.1,0,0.1,0c0.3-0.1,0.5-0.5,0.4-0.8
	c-0.1-0.1-0.2-0.3-0.3-0.3c0,0-0.1,0-0.1,0c-0.1,0.1-0.3,0.2-0.4,0.2c0,0-0.1,0-0.1,0c0-0.1,0.2-0.4,0.2-0.6c0,0,0-0.1,0-0.1
	c-0.1-0.4-1.3-0.8-1.4-0.5c0,0,0,0.1,0,0.1C179.1,221,179,223.2,178.5,224.6"/>
<path class="st1" d="M174.8,255.1c-2.6-0.8-5.4,0.6-6.2,3.2c-0.4,1.1-0.3,2.3,0.1,3.4c0-0.4,0.1-0.9,0.3-1.2
	c0.2-0.4,0.5-0.7,0.8-0.9c-0.2,0.5-0.3,1-0.2,1.5c0.1,0.6,0.3,1.2,0.7,1.6c0-0.3,0.1-0.6,0.2-0.9c0-0.1,0.1-0.2,0.3-0.2
	c0.1,0,0.2,0.1,0.3,0.2c0.1,0.3,0.1,0.6,0.2,0.9c0,0.3,0,0.6-0.1,0.9c-0.5,1.5-2.1,2.3-3.5,1.8c-0.3-0.1-0.5-0.2-0.7-0.4
	c-0.6-0.4-1.2-0.6-1.9-0.9c-0.8-0.2-1.6-0.2-2.4,0.2c-0.6,0.3-1,0.8-1.1,1.5c0.4-0.5,1.1-0.7,1.7-0.5c0.2,0,0.3,0.2,0.3,0.4
	c0.1,0.6,0.7,1,1.4,0.9c0.1,0,0.2,0,0.4-0.1c0.2-0.1,0.5-0.2,0.8-0.3c0.1,0,0.3,0.1,0.3,0.2c0.1,0.2,0,0.4-0.2,0.4c0,0,0,0,0,0
	c-0.4,0.1-0.7,0.2-1.1,0.3c-0.7,0.4-1.3,1-1.6,1.8c-0.2,0.6-0.1,1.3,0.2,1.8c0-0.6,0.3-1.2,0.9-1.5c0.2-0.1,0.4-0.1,0.5,0
	c0.5,0.3,1.2,0.2,1.6-0.2c0.1-0.1,0.1-0.2,0.2-0.3c0.1-0.1,0.3-0.7,0.5-1c0.1-0.2,0.3-0.2,0.4-0.2c0.1,0.1,0.2,0.2,0.2,0.4
	c-0.1,0.3-0.2,0.6-0.2,0.9c0,0.8,0.3,1.6,0.7,2.3c0.4,0.5,1,0.7,1.7,0.7c-0.6-0.3-0.9-0.9-0.9-1.5c0-0.2,0.1-0.4,0.3-0.4
	c0.6-0.3,0.8-1,0.6-1.5c-0.1-0.1-0.1-0.2-0.2-0.3c-0.1-0.1-0.1-0.3-0.2-0.4c-0.1-0.2,0-0.4,0.2-0.4c0.1,0,0.2,0,0.3,0
	c2.1,1.3,4.9,0.9,6.5-1c-0.4,0-0.8-0.1-1.2-0.2c-0.4-0.1-0.7-0.3-1-0.5c1.1-0.1,2.1-0.7,2.7-1.7c-0.7,0.3-1.6-0.1-1.8-0.9
	c-0.3-0.7,0.1-1.6,0.9-1.8c0.3-0.1,0.6-0.1,0.9,0c0.2,0.1,0.5,0,0.6-0.2c0,0,0-0.1,0-0.1C178.6,258.3,177.2,255.9,174.8,255.1"/>
<path class="st1" d="M165.8,230.8L165.8,230.8c0.3,0.4,0.8,0.7,1.3,0.9c0.3,0.1,0.6,0.1,0.9,0.1l5.5,0c-1.6-0.4-3.6-0.7-5.1-1.2
	c-0.4-0.1-0.8-0.4-1.1-0.7c-0.9-1-2.5-1.1-3.6-0.3c0.3,0,0.5,0,0.8,0.1C165,229.9,165.4,230.3,165.8,230.8"/>
<path class="st1" d="M170.4,229.8c0,0.4,0.1,0.9,0.4,1.2c0.3-0.9,1.2-1.3,2.1-1c0.9,0.3,1.3,1.2,1,2.1c-0.2,0.7-1,1.2-1.7,1.1
	c0,0-0.1,0-0.1,0c-0.5-0.1-0.8-0.6-0.7-1.1c-0.2,0.2-0.3,0.4-0.4,0.7c-0.3,0.8-0.2,1.6-0.5,2.2c-0.2,0.5-0.6,0.4-0.8,0.9
	c2.3-0.7,2.7-0.1,3.2-0.2c1-0.4,2-0.8,3-1.1c0.2-0.1,0.4-0.4,0.3-0.6c0,0,0,0,0-0.1c-0.1-0.3-0.1-0.7,0-1c0.1-0.2,0.2-0.4,0.3-0.6
	c0.1-0.1,0.1-0.1,0.2,0c0,0,0.1,0.1,0,0.2c0,0.1-0.1,0.2-0.1,0.3c-0.1,0.4-0.1,0.8,0.1,1.1c0,0.1,0.1,0.2,0.2,0.3
	c0.1,0.2,0.3,0.4,0.4,0.6c0,0.1,0,0.1,0,0.2c0,0,0,0,0,0c-0.2,0.1-1.4,0.4-1.7,0.6c-0.2,0.1-0.4,0.3-0.3,0.6c0,0.3,0,0.5-0.2,0.7
	c-0.2,0.2-0.5,0.4-0.8,0.4c-1.4,0-2.8,0.2-4.2,0.5c-1.1,0.4-1.8,1.4-1.8,2.6c1.1-0.2,2.1,0,3.1,0.5l0.7,0.4l-0.7,0.5
	c-0.8,0.7-1.2,1.7-1.2,2.7c1-0.4,2.1-0.4,3.1,0.1l0.6,0.3l-0.5,0.5c-0.7,0.7-0.9,1.8-0.4,2.7c0.9-0.8,2.2-1,3.4-0.7l0.4,0.1l0.1,0.4
	c0,0,0,0.1,0,0.1c0,0.8,0.3,1.5,0.8,2c0.8-0.9,1.9-1.5,3.1-1.6c1-0.4,1.8-1.4,2-2.5c-2.1,1-1.9-0.4-1.4-0.8c1.2-1.3,1.5-2.8,2-4.5
	c0-0.1,0.1-0.2,0.1-0.3c0.1-0.2,0-0.5-0.2-0.6c-0.2-0.2-0.3-0.5-0.4-0.8c1.3,0.9,2.4-0.6,2.3-1.5c-0.8,1-1.1,0.5-1.1,0.1
	s0.4-4.2-0.5-6.1c0.9,0.2,1.7-0.2,2-1.1c0-0.1,0-0.2,0.1-0.3c-0.7,0.3-1.4,0.1-1.9-0.4c-0.3-0.4-0.5-0.7-0.9-1
	c-1.3-1.4-3-2.5-4.8-3.1c-0.4,0.4-1,0.6-1.6,0.6l-2.6-0.1c-0.5-0.2-1,0.1-1.3,0.5c-0.7,0.5-1.5,0.9-2.3,1.2
	c-0.3,0.1-0.4,0.3-0.4,0.6c0,0.1,0.1,0.2,0.2,0.3C170.4,228.9,170.5,229.4,170.4,229.8 M174.2,227.8L174.2,227.8L174.2,227.8
	L174.2,227.8L174.2,227.8L174.2,227.8L174.2,227.8L174.2,227.8L174.2,227.8L174.2,227.8L174.2,227.8L174.2,227.8v-0.1l0,0l0,0v0v0
	l0,0v0l0,0v0v0v0l0,0l0,0v0l0,0v0l0,0l0,0l0,0v0l0,0v0l0,0l0,0l0,0l0,0v0l0,0v0v0l0,0v0l0,0l0,0l0,0l0,0l0,0v0l0,0v0l0,0l0,0l0,0
	l0,0l0,0l0,0l0,0l0,0l0,0l0,0l0,0v0h0l0,0l0,0l0,0l0,0l0,0l0,0h0l0,0l0,0l0,0l0,0l0,0l0,0l0,0l0,0l0,0h0l0,0l0,0l0,0h0h0l0,0l0,0h0
	l0,0h0h0h0l0,0l0,0h0l0,0l0,0h0l0,0h0h0h0l0,0h0h0l0,0h0c0,0,0,0,0,0l0,0c0,0,0.1,0,0.1,0h0h0h0l0,0h0l0,0h0l0,0h0h0l0,0h0l0,0l0,0
	h0l0,0h0h0l0,0h0l0,0l0,0h0h0l0,0l0,0h0l0,0h0l0,0l0,0l0,0l0,0l0,0l0,0l0,0l0,0l0,0l0,0l0,0l0,0l0,0l0,0l0,0l0,0l0,0l0,0l2.2,0.6
	c-0.6,0.9-1.8,1-2.7,0.4c0,0-0.1-0.1-0.1-0.1v0l0,0l0,0v0l0,0c0,0,0,0,0,0l0,0l0,0l0,0l0,0v0l0,0l0,0l0,0v0l0,0v0v0c0,0,0,0,0,0l0,0
	c0,0,0,0,0,0l0,0v0l0,0l0,0l0,0l0,0v0v0v0v0l0,0v0v0l0,0v0l0,0v0l0,0v0v0l0,0v0l0,0v0v0v0v0v-0.2L174.2,227.8z"/>
<path class="st1" d="M154.7,234.9c0.4,0.5,1.1,0.6,1.6,0.3c0.1-0.1,0.2-0.2,0.3-0.2c0.2-0.1,0.3-0.2,0.5-0.3l0,0
	c0.2-0.1,0.4,0,0.5,0.1c0,0.1,0.1,0.1,0,0.2h0c0,0,0,0,0,0.1l0,0c-0.3,1,0.2,2.1,1.2,2.4c0,0,0,0,0,0c0.2,0.1,0.3,0.1,0.5,0.1
	c0.4,0.6,0.8,1.1,1.3,1.5c-0.1,0.1-0.2,0.1-0.3,0.1c-0.6,0-1.2-0.4-1.5-1c-0.1,0.6,0.1,1.3,0.6,1.7c0.6,0.5,1.4,0.8,2.2,0.8
	c-0.7,0.3-1.4,0.4-2.1,0.1c0.4,0.6,0.9,1,1.6,1.2l0,0h0l0,0c1.4,0.3,2.8,0.5,4.2,0.6c1,0.2,1,1.1,2,0.9c0.7-0.3,1.4-0.6,2-1
	c0.2-0.4,0.4-0.8,0.7-1.2c-0.7-0.2-1.5-0.2-2.2,0.1l-0.8,0.3v-0.8c0,0,0-0.1,0-0.1c-0.1-0.7,0-1.4,0.3-2c-0.8,0-1.5-0.2-2.3-0.4
	c-0.3-0.1-0.6-0.2-0.8-0.3l0,0c-0.7-0.4-1.4-0.8-1.9-1.4l0,0c0,0,0,0-0.1-0.1l-0.1-0.1l0,0c0,0,0,0,0-0.1l0,0c0,0,0,0-0.1-0.1l0,0
	l0-0.1l0,0l0,0c0,0,0,0,0,0l0-0.1c0,0,0,0,0-0.1l0,0c0,0,0,0,0,0l0,0c0-0.1-0.1-0.1-0.1-0.2l0,0c-0.1-0.2-0.2-0.3-0.3-0.5
	c-0.4-0.8-0.7-1.7-0.7-2.6c-0.2-0.4-0.2-0.8-0.2-1.2c0-0.6,0.2-0.7,0.3-1.6c0.1-0.8-0.2-1.6-0.6-2.3c-0.4-0.5-0.9-0.7-1.5-0.7
	c-0.1,0-0.1,0-0.2,0c0.5,0.3,0.9,0.9,0.9,1.5c0,0.2-0.1,0.4-0.3,0.4c-0.6,0.3-0.9,0.9-0.7,1.5c0.1,0.1,0.1,0.2,0.2,0.3
	c0.1,0.2,0.1,0.4,0.2,0.6c0,0,0,0,0,0.1s0,0,0,0.1h0c0,0,0,0,0,0.1c-0.1,0.2-0.2,0.3-0.4,0.2c-0.1,0-0.1-0.1-0.2-0.1l0,0
	c-0.1-0.1-0.2-0.2-0.3-0.3c-0.4-0.5-0.3-0.6-0.8-1.4c-0.5-0.6-1.2-1.1-2-1.3c-0.6-0.1-1.2,0.1-1.6,0.4c0,0-0.1,0.1-0.1,0.1
	c0.6-0.1,1.3,0.1,1.7,0.6c0.1,0.1,0.1,0.4,0,0.5c-0.2,0.6,0,1.3,0.5,1.6c0.1,0,0.2,0.1,0.3,0.1c0.3,0.1,0.6,0.3,0.8,0.6l0,0
	c0.1,0.1,0.2,0.2,0.1,0.4c0,0.1-0.2,0.2-0.3,0.2v0c-0.4,0-0.7,0-1.1,0c-0.8,0.1-1.6,0.6-2.1,1.2c-0.4,0.5-0.5,1-0.4,1.6
	c0,0.1,0,0.1,0,0.2c0.2-0.6,0.7-1.1,1.3-1.2C154.4,234.6,154.6,234.7,154.7,234.9"/>
<path class="st1" d="M187.6,236.7c-2.1,4.5,1.5,9.3,3.2,13.3c0.9,2.3,1.3,4.8,1.1,7.2c0,0.3-0.1,0.6-0.2,0.8
	c-0.5,1.5-1.9,2.4-3.4,2.3c-0.2,0-0.3-0.1-0.3-0.3c-0.1-1.3-0.7-2.5-1.7-3.4c-2.4-2-3.2-2.3-4.5-3.9c-0.9-0.9-1.1-2.3-0.7-3.5
	c-1.1,0-2.2,0.6-2.8,1.5l-0.3,0.4l-0.5-0.2c-1.1-0.6-1.8-1.7-1.8-2.9c-0.9-0.1-1.8,0.2-2.4,1l-0.4,0.5l-0.4-0.5
	c-0.2-0.2-0.3-0.4-0.4-0.6l-1.1-0.1c-0.4,0.8-0.9,1.6-1.5,2.3c2.6,1.4,4.9,2.3,7.3,3.7c2.4,1.5,3.5,4.4,2.8,7.1
	c-0.1,0.4-1.1,4-0.7,5.9c0.1,1.2,0.7,2.3,1.6,3.1c-0.2-0.4-0.2-0.8-0.2-1.3c0-0.4,0.1-0.8,0.3-1.1c0,0.5,0.1,1,0.4,1.4
	c0.3,0.5,0.8,0.9,1.4,1.2c-0.2-0.5-0.2-1-0.1-1.5c0.2-0.6,0.7-1.1,1.3-1.3c1.1-0.4,2-1.3,2.3-2.5c0.3,1,0.2,2-0.4,2.9
	c0.6,0.5,0.8,1.3,0.5,2c-0.1,0.8-0.6,1.5-1.2,1.9c-0.1,0-0.9,0.4-3-0.4c-0.8-0.2-1.6-0.2-2.4,0.2c-0.6,0.3-1,0.8-1.1,1.5
	c0.4-0.5,1.1-0.7,1.7-0.5c0.2,0,0.3,0.2,0.3,0.4c0.1,0.6,0.7,1,1.4,0.9c0.1,0,0.2,0,0.4-0.1c0.2-0.1,0.5-0.2,0.8-0.3
	c0.2,0,0.3,0.2,0.3,0.3c0,0.1-0.1,0.3-0.2,0.3c-0.4,0.1-0.7,0.2-1.1,0.3c-0.7,0.4-1.3,1-1.6,1.8c-0.2,0.6-0.1,1.3,0.2,1.8
	c0-0.6,0.3-1.2,0.9-1.5c0.2-0.1,0.4-0.1,0.5,0c0.5,0.3,1.2,0.2,1.6-0.2c0.1-0.1,0.1-0.2,0.2-0.3c0.1-0.1,0.3-0.7,0.5-1
	c0.1-0.2,0.3-0.2,0.4-0.2c0,0,0,0,0,0c0.1,0.1,0.2,0.2,0.2,0.4c-0.1,0.5-0.3,0.9-0.6,1.4c-0.4,0.7-0.5,1.6-0.4,2.4
	c0.2,0.6,0.6,1.1,1.2,1.4c-0.4-0.5-0.4-1.2-0.1-1.8c0.1-0.2,0.3-0.3,0.5-0.2c0.6,0,1.2-0.5,1.2-1.1c0-0.5-0.4-0.8-0.3-1.1
	c0-0.2,0.2-0.3,0.3-0.3c1,0.2,2-0.5,2.2-1.5c0.1-0.4,0-0.8-0.1-1.1c-1-2.2,2.8-3.9,2.8-5.2c0.3-1-0.2-2-1.2-2.3
	c-0.3-0.1-0.6-0.1-0.9-0.1c-0.5,0.1-0.9-0.2-1-0.7c-0.2-0.9-0.6-1.8-1.2-2.6c0.1-0.2,0.2-0.4,0.3-0.6c2.5,0.3,4.9-1.3,5.7-3.7
	c0.2-0.6,0.3-1.2,0.3-1.9c0.1-2.6-0.4-5.1-1.3-7.5c-1.7-4.2-6-9.1-2.4-13.5c1.5-1.8,3.5-1.5,4.3-0.8c0.7,0.5,1.4,1.4,2.1,3.7
	c0.4,1.6,1.7,2.8,3.3,3c-0.6-0.5-1-1.3-1.2-2.1c-0.1-0.2,0.1-0.5,0.3-0.5c0.2,0,0.3,0,0.5,0.1c1.1,1.6,3.3,1.9,4.9,0.8
	c0.5-0.4,0.9-0.8,1.1-1.4c-0.7,0.5-1.7,0.6-2.5,0.2c-1.3-0.4-1.5-2.3-2.4-3.4c-0.8-1.2-2.1-2.2-3.5-2.7
	C193.3,231.4,189.2,233.1,187.6,236.7"/>
<path class="st1" d="M161.2,255.6c0.4,0.4,1,0.6,1.5,0.6c0.1,0,0.1,0,0.2,0c-0.6-0.3-1-0.8-1-1.5c0-0.2,0.1-0.4,0.3-0.4
	c0.5-0.3,0.8-1,0.5-1.6c-0.1-0.1-0.1-0.2-0.2-0.3c-0.1-0.2-0.2-0.4-0.2-0.6l0,0c0-0.1,0-0.2,0-0.3c0.1-0.1,0.2-0.2,0.4-0.2v0
	c0,0,0,0,0.1,0l0,0c0.9,0.5,2.1,0.1,2.5-0.8c0,0,0,0,0,0c0.1-0.2,0.1-0.3,0.2-0.5c0.6-0.3,1.2-0.6,1.7-1c0.1,0.1,0.1,0.2,0.1,0.3
	c-0.1,0.6-0.6,1.1-1.2,1.3c0.6,0.2,1.3,0.1,1.8-0.3c0.6-0.5,1-1.3,1.1-2.1c0.2,0.7,0.2,1.5-0.2,2.1c0.9-0.4,1.5-1.2,1.6-2.2
	c0,0,0-0.1,0-0.1c0-0.2,0.2-0.3,0.3-0.3c0.1,0,0.1,0,0.2,0.1c0.3,0.1,0.6,0.1,0.9,0.1c-0.3-0.9-0.2-2,0.3-2.8c-0.7-0.2-1.4,0-2,0.4
	l-0.6,0.5l-0.2-0.7c-0.2-0.6-0.3-1.3-0.2-1.9c-2.9,2.2-3,3.4-5.7,4.3c-0.9,0.3-1.8,0.4-2.7,0.3c-0.4,0.1-0.8,0.1-1.2,0
	c-0.6-0.1-0.6-0.3-1.5-0.6c-0.8-0.2-1.6-0.1-2.4,0.3c-0.5,0.3-0.9,0.8-1,1.3c0,0.1,0,0.1,0,0.2c0.4-0.5,1-0.7,1.7-0.6
	c0.2,0,0.3,0.2,0.4,0.4c0.2,0.6,0.8,1,1.4,0.9c0.1,0,0.2-0.1,0.4-0.1c0.2,0,0.4-0.1,0.6-0.1c0,0,0,0,0.1,0h0.1v0l0.1,0
	c0.2,0.1,0.2,0.3,0.1,0.5c0,0.1-0.1,0.1-0.1,0.1l0,0c-0.1,0.1-0.2,0.2-0.4,0.3c-0.5,0.3-0.7,0.2-1.5,0.6c-0.7,0.4-1.3,1-1.6,1.8
	c-0.2,0.5-0.1,1.1,0.2,1.6c0,0.1,0.1,0.1,0.1,0.2c0-0.6,0.3-1.2,0.8-1.6c0.2-0.1,0.4-0.1,0.5,0c0.5,0.3,1.2,0.2,1.6-0.3
	c0.2-0.4,0.5-0.7,0.9-1l0,0c0.1-0.1,0.3-0.1,0.4-0.1c0.1,0.1,0.2,0.2,0.2,0.4h0c-0.1,0.4-0.1,0.7-0.2,1.1
	C160.3,254.1,160.6,254.9,161.2,255.6"/>
<path class="st1" d="M82.3,324.7c0,15.1,7.3,27.2,21,35.2c11.4,6.6,27.2,10.2,44.5,10.2c31.6,0,65.3-11.9,65.3-45.4V210.2H82.3
	V324.7z M107.3,356.8c-0.6-0.3-1.1-0.6-1.6-0.9c-1.9-1.1-3.8-2.3-5.5-3.7v-65.8h7.1V356.8z M113.3,358.9v-72.5h7.1v72.4
	c-1.2,0.2-2.5,0.3-3.8,0.3C115.5,359,114.4,359,113.3,358.9 M147.8,365.4c-10.3,0.1-20.6-1.4-30.5-4.5c8.3-0.2,16.2-4.2,22.2-11.4
	c3.9-4.7,6.7-10.2,8.1-16.2c1.3,6.1,4,11.7,8,16.5c5.7,6.8,14.1,10.9,23,11.1C168.6,364,158.2,365.5,147.8,365.4 M126.4,357v-70.6
	h0.8c0.2,5.9,2.4,11.5,6.3,15.9v50.4C131.3,354.4,128.9,355.9,126.4,357 M139.5,346.6v-39.7c2.2,1.1,4.7,1.8,7.2,1.9v16.1
	C146.7,332.7,144.2,340.3,139.5,346.6 M208.4,324.7c0,13.7-6.3,24.2-18.6,31.3c-1.5,0.9-3.1,1.7-4.8,2.4c-1.7,0.4-3.5,0.6-5.3,0.6
	c-8.7,0.1-17.1-3.8-22.7-10.5c-5.5-6.7-8.5-15.1-8.4-23.7v-16.1c2.8-0.2,5.5-1,7.9-2.3v7.3c-2.6,0.8-4.1,3.5-3.3,6.1
	c0.5,1.6,1.7,2.9,3.3,3.3v5c0,2.4,0.4,4.7,1.1,7c-2.1,1.8-2.3,4.9-0.5,6.9c0.9,1.1,2.3,1.7,3.7,1.7c0.6,0,1.2-0.1,1.8-0.3
	c3,3.2,6.8,5.4,11.1,6.3c0.4,2.7,3,4.5,5.6,4c2.1-0.3,3.7-2,4-4c4.3-1,8.1-3.2,11.1-6.4c2.5,1,5.4-0.3,6.4-2.8
	c0.8-2,0.2-4.2-1.4-5.5c0.7-2.2,1.1-4.6,1.1-6.9v-5c2.6-0.8,4.1-3.5,3.3-6.1c-0.5-1.6-1.7-2.9-3.3-3.3v-13.7
	c2.6-0.8,4.1-3.5,3.4-6.1c-0.8-2.6-3.5-4.1-6.1-3.4c-1.6,0.5-2.9,1.7-3.3,3.3h-11.2c-0.8-2.6-3.5-4.1-6.1-3.3
	c-1.6,0.5-2.8,1.7-3.3,3.3h-7.2c0.8-2.5,1.3-5,1.4-7.6h40.4L208.4,324.7z M162.9,334.4c-0.9-0.4-1.8-0.6-2.8-0.4
	c-0.6-1.9-0.9-3.8-0.9-5.8v-5c1.6-0.5,2.8-1.7,3.3-3.3H173c0.2,0.7,0.5,1.4,0.9,2L162.9,334.4z M163.5,338.9c0,1.5-1.2,2.7-2.7,2.7
	c-1.5,0-2.7-1.2-2.7-2.7c0-1.5,1.2-2.7,2.7-2.7C162.3,336.1,163.5,337.4,163.5,338.9 M165,336.2l11.1-12.6c0.3,0.2,0.7,0.3,1.1,0.4
	v20.2c-1.4,0.4-2.6,1.4-3.1,2.8c-3.5-0.9-6.7-2.7-9.2-5.3C166,340.1,166.1,337.9,165,336.2 M175.3,318.5c0-1.8,1.5-3.2,3.3-3.2
	c1.8,0,3.2,1.5,3.2,3.3c0,1.8-1.5,3.2-3.2,3.2C176.8,321.8,175.3,320.3,175.3,318.5 M178.5,346.2c1.5,0,2.7,1.2,2.7,2.7
	s-1.2,2.7-2.7,2.7c-1.5,0-2.7-1.2-2.7-2.7c0,0,0,0,0,0C175.8,347.5,177,346.2,178.5,346.2 M179.9,344.2v-20.1
	c0.4-0.1,0.8-0.2,1.1-0.4l11.1,12.5c-1.1,1.7-1,3.9,0.2,5.5c-2.5,2.6-5.7,4.4-9.2,5.3C182.5,345.7,181.3,344.7,179.9,344.2
	 M183.2,321.9c0.4-0.6,0.8-1.3,1-2h10.3c0.5,1.6,1.7,2.8,3.3,3.3v5c0,2-0.3,3.9-0.9,5.8c-0.2,0-0.4,0-0.6,0c-0.7,0-1.4,0.2-2.1,0.5
	L183.2,321.9z M196.3,336.1c1.5,0,2.7,1.2,2.7,2.7c0,1.5-1.2,2.7-2.7,2.7c-1.5,0-2.7-1.2-2.7-2.7c0,0,0,0,0,0
	C193.6,337.4,194.8,336.2,196.3,336.1 M196.4,318.5c0-1.5,1.2-2.7,2.7-2.7c1.5,0,2.7,1.2,2.7,2.7c0,1.5-1.2,2.7-2.7,2.7
	C197.7,321.2,196.4,320,196.4,318.5 M196.4,295.4c0-1.5,1.2-2.7,2.7-2.7c1.5,0,2.7,1.2,2.7,2.7c0,1.5-1.2,2.7-2.7,2.7
	C197.7,298.1,196.4,296.9,196.4,295.4L196.4,295.4 M197.1,299.8c0.2,0.1,0.5,0.2,0.7,0.3v13.7c-1.6,0.5-2.8,1.7-3.3,3.3h-10.3
	c-0.2-0.6-0.4-1.2-0.8-1.7L197.1,299.8z M181.3,313.5c-0.5-0.3-0.9-0.4-1.4-0.6v-12.9c1.6-0.5,2.8-1.7,3.3-3.3h11.2
	c0.1,0.4,0.3,0.8,0.6,1.2L181.3,313.5z M178.5,298.1c-1.5,0-2.7-1.2-2.7-2.7s1.2-2.7,2.7-2.7c1.5,0,2.7,1.2,2.7,2.7c0,0,0,0,0,0
	C181.2,296.9,180,298.1,178.5,298.1C178.5,298.1,178.5,298.1,178.5,298.1 M177.1,300.1V313c-0.5,0.1-0.9,0.3-1.4,0.6l-12.1-13.7
	c0.7-1,1.3-2,1.8-3h8.4C174.3,298.4,175.5,299.6,177.1,300.1 M173.7,315.4c-0.3,0.5-0.6,1.1-0.7,1.7h-10.4c-0.5-1.6-1.7-2.8-3.3-3.3
	v-9.2c1-0.8,1.9-1.6,2.7-2.6L173.7,315.4z M160.6,318.5c0,1.5-1.2,2.7-2.7,2.7c-1.5,0-2.7-1.2-2.7-2.7c0-1.5,1.2-2.7,2.7-2.7
	C159.4,315.8,160.6,317,160.6,318.5C160.6,318.5,160.6,318.5,160.6,318.5 M148.6,214.9h59.8v69.4H168c-0.5-12.1-8.9-21.8-19.4-22.4
	L148.6,214.9z M164.4,285.3c0,11-7.5,19.9-16.8,19.9s-16.8-8.9-16.8-19.9s7.5-19.9,16.8-19.9S164.4,274.3,164.4,285.3 M87,214.9
	h59.7v46.9c-4.3,0.3-8.5,2-11.6,5h-5.1v-18.6h2.2v-8h-2.2v-5.3h1.6v-4.7h-1.4v1.9h-1.4v-1.9H126v1.9h-1.4v-1.9h-1.4v4.7h1.6v5.3H120
	v-11.6h1.9V223h-1.4v1.9h-2.3V223h-2.8v1.9H113V223h-1.4v5.6h1.9v11.6h-4.9v-5.3h1.6v-4.7h-1.4v1.9h-1.4v-1.9h-2.8v1.9h-1.4v-1.9
	h-1.4v4.7h1.6v5.3h-2.2v8h2.2v18.6h-4v9.3H113v-6.6c0-2.1,1.7-3.7,3.7-3.7c2.1,0,3.7,1.7,3.7,3.7v6.6h8.4c-1,2.6-1.5,5.4-1.6,8.1H87
	V214.9z M124.5,250.6v5.2h-4.1v-5.2c0-1.1,1-2,2.1-2C123.6,248.7,124.5,249.5,124.5,250.6 M113,250.6v5.2h-4.1v-5.2c0-1.1,1-2,2.1-2
	C112.1,248.7,113,249.5,113,250.6 M87,286.3h7.2v60c-4.9-6.1-7.4-13.8-7.2-21.6V286.3z"/>
<path class="st1" d="M65.9,220.5c0-0.7-0.6-1.3-1.3-1.3H47.6c-0.7,0-1.3,0.6-1.3,1.3c0,0.5,0.3,0.9,0.7,1.1c0,0,0,0,0,0
	c0.9,0.6,1.3,1.6,1.3,2.6c0.1,1-0.4,2-1.2,2.6c0,0,0,0,0,0c-0.5,0.3-0.8,0.8-0.7,1.4c-0.1,0.8,0.5,1.5,1.3,1.5h17.1
	c0.8-0.1,1.3-0.7,1.3-1.5c0-0.6-0.3-1.1-0.8-1.4l0,0c-0.8-0.6-1.3-1.5-1.2-2.5c-0.1-1,0.3-2,1.2-2.5l0,0
	C65.6,221.5,65.9,221,65.9,220.5"/>
<rect x="43.6" y="342.2" class="st1" width="24.8" height="7.1"/>
<path class="st1" d="M54,251.2c3.3-0.4,6.7-0.7,10-0.7v-18.6H48.2v20.4C50.1,251.9,52,251.5,54,251.2"/>
<path class="st1" d="M63.3,297.7c-5.3,2.9-10.5,5.4-15.1,7.4v26.2c0,3.4-0.7,5.7-1.6,7.2c-0.2,0.4-0.2,0.8,0.2,1.1
	c0.1,0.1,0.2,0.1,0.4,0.1h17.9c0.5,0,0.8-0.7,0.4-1.2c-0.9-1.5-1.5-3.7-1.5-7.2v-33.9L63.3,297.7"/>
<path class="st1" d="M66,274v8.2c2.2-1.4,4.3-3.1,6.1-5l1-1C71.8,275.2,68.8,274.2,66,274"/>
<path class="st1" d="M74.3,355.2c-1.8,0.5-3.7,0.6-5.6,0.3c-1.5-0.3-3-0.8-4.5-1.4c-2.4-1.1-5-1.6-7.6-1.6c-2.7,0-5.3,0.6-7.8,1.7
	c-1.5,0.6-3,1.1-4.5,1.4c-1.8,0.2-3.6,0.1-5.4-0.3c-0.5-0.1-1.1-0.2-1.7-0.3v2.5c0.4,0,0.8,0.1,1.2,0.2c1.4,0.3,2.8,0.5,4.2,0.5
	c0.7,0,1.5-0.1,2.2-0.2c1.7-0.3,3.3-0.8,4.9-1.5c2.2-1,4.5-1.5,6.9-1.5c2.3,0,4.6,0.5,6.7,1.5c1.6,0.7,3.2,1.2,4.9,1.5
	c2.2,0.3,4.4,0.2,6.5-0.3c0.4-0.1,0.8-0.2,1-0.2V355C75.3,355,74.8,355.1,74.3,355.2"/>
<path class="st1" d="M74.3,360.8c-1.8,0.5-3.7,0.6-5.6,0.3c-1.5-0.3-3-0.8-4.5-1.4c-2.4-1.1-5-1.6-7.6-1.6c-2.7,0-5.3,0.6-7.8,1.7
	c-1.5,0.6-3,1.1-4.5,1.4c-1.8,0.2-3.6,0.1-5.4-0.3c-0.5-0.1-1.1-0.2-1.7-0.3v2.5c0.4,0,0.8,0.1,1.2,0.2c1.4,0.3,2.8,0.5,4.2,0.5
	c0.7,0,1.5-0.1,2.2-0.2c1.7-0.3,3.3-0.8,4.9-1.5c2.2-1,4.5-1.5,6.9-1.5c2.3,0,4.6,0.5,6.7,1.5c1.6,0.7,3.2,1.2,4.9,1.5
	c2.2,0.3,4.4,0.2,6.5-0.3c0.4-0.1,0.8-0.2,1-0.2v-2.5C75.3,360.6,74.8,360.7,74.3,360.8"/>
<path class="st1" d="M74.3,366.1c-1.8,0.5-3.7,0.6-5.6,0.3c-1.5-0.3-3-0.8-4.5-1.4c-2.4-1.1-5-1.6-7.6-1.6c-2.7,0-5.3,0.6-7.8,1.7
	c-1.5,0.6-3,1.1-4.5,1.4c-1.8,0.2-3.6,0.1-5.4-0.3c-0.5-0.1-1.1-0.2-1.7-0.3v2.5c0.4,0,0.8,0.1,1.2,0.2c1.4,0.3,2.8,0.5,4.2,0.5
	c0.7,0,1.5-0.1,2.2-0.2c1.7-0.3,3.3-0.8,4.9-1.5c2.2-1,4.5-1.5,6.9-1.5c2.3,0,4.6,0.5,6.7,1.5c1.6,0.7,3.2,1.2,4.9,1.5
	c2.2,0.3,4.4,0.2,6.5-0.3c0.4-0.1,0.8-0.2,1-0.2v-2.5C75.3,365.9,74.8,366,74.3,366.1"/>
<path class="st1" d="M64,266.4c-2.4,0.1-4.7,0.2-6.8,0.5c-3.1,0.4-6.1,1.1-9,2v22.4c4.6-1.9,9-4.1,13.3-6.7c0.8-0.5,1.6-1,2.5-1.5
	L64,266.4z"/>
<path class="st1" d="M41.6,303.6c-0.2,0.7-0.3,1.3-0.4,1.9c12.8-4.2,32.5-15.6,33.7-17.8l-1.1-8.8c-2.2,2.2-7,5.4-11,7.7
	c-7,4.1-14,7.3-19.1,8.8C43.1,297.1,42.3,300.7,41.6,303.6"/>
<path class="st1" d="M43.7,259.1l-0.6,0.2l1,2.6c0.2-0.1,0.4-0.2,0.6-0.3c0.6-0.3,0.8-1.1,0.5-1.7C45,259.3,44.4,258.9,43.7,259.1
	C43.7,259.1,43.7,259.1,43.7,259.1"/>
<path class="st1" d="M54.3,253.4C43,255,34.5,259.5,31.9,263c-0.6,0.7-0.9,1.5-0.8,2.4c0.2,0.6,2.3,5.3,4.1,9.3
	c0.2-0.3,0.4-0.6,0.6-0.9c3.1-4.2,12-8,21.2-9.2c3-0.4,6-0.5,9-0.5c5.8,0,10.8,0.4,14.2,1.5V254c-2.9-0.9-8.6-1.3-14.8-1.3
	C61.7,252.7,58,252.9,54.3,253.4 M47.4,260.6c-0.3,0.8-1.3,1.5-3,2.1l1.2,3.1l-2.1,0.8l-2.9-7.3l3.2-1.2c2.3-0.9,3.2-0.1,3.5,0.8
	C47.6,259.5,47.6,260.1,47.4,260.6 M51,264.2l0-0.1l-1.7-7.5l0.4-0.1c0.2,0,0.5-0.1,0.8-0.1s0.5-0.1,0.7-0.2l0.4-0.1l0,0.1l1.5,6.5
	c1.1-0.2,2-0.5,2.8-0.8l0.1,0l0.3,1.2L51,264.2z M64.3,255.5c-1,2.3-2,4.7-2.8,7.1l0,0.1l-1.3,0.1l0-0.1c-1.2-2.2-2.5-4.5-4.2-7.3
	l-0.1-0.2l0.2,0c0.4,0,2-0.1,2.3-0.2l0.1,0l0,0.1c0.6,1.2,1.2,2.5,1.9,3.6c0.3,0.5,0.5,0.9,0.8,1.4c0.6-1.5,1.4-3.5,1.9-5.4l0-0.1
	l0.1,0c0.4,0,0.8,0,1.2-0.1l0.3,0L64.3,255.5z M66.2,261.8c0.2-0.4,0.4-0.9,0.5-1.3l0-0.1l0.5,0l0,0.1c0.2,0.7,0.8,1.3,1.6,1.3
	c0.7,0.1,1.5-0.2,1.5-0.9s-0.6-1.1-1.5-1.5c-1.1-0.5-2.3-1.1-2.1-2.7c0.1-1.2,1.2-2.4,3.4-2.2c0.8,0,1.5,0.3,2.1,0.8l0.1,0.1
	l-0.1,0.1c-0.2,0.3-0.4,0.7-0.5,1l0,0.1l-0.4,0l0-0.1c-0.2-0.6-0.7-1-1.3-1c-0.9-0.1-1.4,0.2-1.4,0.8c-0.1,0.6,0.6,0.9,1.4,1.3
	c1.1,0.6,2.4,1.3,2.3,2.8c-0.1,1.4-1.5,2.3-3.4,2.3c-0.2,0-0.4,0-0.6,0c-0.8-0.1-1.5-0.3-2.2-0.7l-0.1-0.1L66.2,261.8z"/>
<path class="st1" d="M46.2,281.7v-10.2c-1.2,0-2.4-0.1-3.6-0.3c-1.9,0.9-3.7,2.3-5.1,3.9c-0.1,0.2-0.3,0.4-0.4,0.6l-0.7,1.3
	c0,0,0,0.1,0,0.1C36.9,279.7,40.6,281.3,46.2,281.7"/>
<polygon class="st1" points="146.9,133.9 148.5,133.9 148.5,131.3 150.4,131.3 150.4,129.7 148.5,129.7 148.5,127.5 146.9,127.5 
	146.9,129.7 145,129.7 145,131.3 146.9,131.3 "/>
<path class="st1" d="M88.3,179.1c0.1,0.2,0,0.3-0.2,0.4c-1,0.6-1.7,1.5-2.1,2.5c-0.1,0.2,0,0.4,0.2,0.5c0.1,0,0.2,0,0.3,0
	c2.2-1,4.8,0,5.8,2.2c0.2,0.4,0.3,0.7,0.3,1.1c0,0.2,0.2,0.3,0.4,0.3c0.1,0,0.1,0,0.2-0.1c1.2-0.9,3-0.6,3.8,0.6
	c0.6,0.8,0.7,1.9,0.3,2.8c-0.1,0.2,0,0.4,0.1,0.5c5.8,3.7,9.6,9.9,10.3,16.8c0,0.2,0.2,0.3,0.4,0.3c0,0,0,0,0,0
	c23-6.8,55.8-6.8,78.9,0c0.2,0,0.4-0.1,0.5-0.3c0,0,0,0,0,0c0.7-6.9,4.5-13,10.3-16.8c0.2-0.1,0.2-0.3,0.1-0.5c-0.6-1.4,0-3,1.3-3.7
	c0.9-0.4,2-0.3,2.8,0.3c0.2,0.1,0.4,0.1,0.5-0.1c0,0,0.1-0.1,0.1-0.2c0.4-2.4,2.6-4,5-3.7c0.4,0.1,0.8,0.2,1.1,0.3
	c0.2,0.1,0.4,0,0.5-0.2c0-0.1,0-0.2,0-0.3c-0.3-1.1-1.1-2-2.1-2.5c-0.1-0.1-0.2-0.3-0.1-0.4c1.2-2.5,2-5.2,2.4-8
	c1.7-13.9-11.4-21.1-30.6-18.3c-4.2-7.1-15.1-9.5-29-6.5c-0.2-1.3-0.1-3.6-2.2-3.6s-2.2,2.2-2.2,3.6c-13.9-3-24.8-0.6-29,6.5
	c-19.1-2.9-32.2,4.4-30.6,18.3C86.3,173.9,87.1,176.6,88.3,179.1 M112.1,201.1c-1.1,0-1.9-0.9-1.9-1.9c0-1.1,0.9-1.9,1.9-1.9
	c1.1,0,1.9,0.9,1.9,1.9c0,0,0,0,0,0C114,200.3,113.2,201.1,112.1,201.1C112.1,201.1,112.1,201.1,112.1,201.1 M128.4,196.9l-4.9,3.2
	c-0.1,0.1-0.3,0.1-0.4,0l-5.4-2.1c-0.2,0-0.3-0.2-0.2-0.4c0-0.1,0.1-0.2,0.2-0.2l4.8-3.1c0.2-0.1,0.2-0.1,0.4-0.1l5.4,2.1
	c0.2,0,0.3,0.2,0.2,0.4C128.5,196.8,128.5,196.9,128.4,196.9 M135.2,198.7c-1.2,0-2.2-1-2.2-2.2c0-1.2,1-2.2,2.2-2.2s2.2,1,2.2,2.2
	c0,0,0,0,0,0C137.4,197.7,136.4,198.7,135.2,198.7C135.2,198.7,135.2,198.7,135.2,198.7 M153.3,196.2c-1.8,0.9-3.6,1.8-5.4,2.8
	c-0.1,0.1-0.3,0.1-0.4,0l-5.4-2.8c-0.2-0.1-0.2-0.3-0.1-0.5c0-0.1,0.1-0.1,0.2-0.2c1.8-0.9,3.6-1.8,5.4-2.8c0.2-0.1,0.2-0.1,0.4,0
	c1.8,0.9,3.6,1.8,5.4,2.8c0.2,0.1,0.3,0.3,0.2,0.4C153.4,196.1,153.4,196.2,153.3,196.2 M160.2,198.7c-1.2,0-2.2-1-2.2-2.2
	c0-1.2,1-2.2,2.2-2.2s2.2,1,2.2,2.2c0,0,0,0,0,0C162.4,197.7,161.4,198.7,160.2,198.7L160.2,198.7 M177.7,198l-5.4,2.1
	c-0.1,0.1-0.3,0.1-0.4,0l-4.9-3.2c-0.2-0.1-0.2-0.3-0.1-0.5c0-0.1,0.1-0.1,0.2-0.1l5.4-2.1c0.2-0.1,0.2-0.1,0.4,0.1l4.8,3.1
	C177.9,197.5,178,197.8,177.7,198 M183.3,201.1c-1.1,0-1.9-0.8-1.9-1.9s0.8-1.9,1.9-1.9c1.1,0,1.9,0.8,1.9,1.9c0,0,0,0,0,0
	C185.2,200.3,184.3,201.1,183.3,201.1C183.3,201.1,183.3,201.1,183.3,201.1 M177.6,176.4c0.2-1.1,1-1.9,2.1-1.9
	c0.2,0,0.3-0.1,0.3-0.3c0-0.1,0-0.2-0.1-0.2c-0.4-0.3-0.8-0.6-1.2-0.7c-0.7-0.2-1.2-0.8-1-1.3c2.6-5.4,4.5-12.3,1.8-18
	c11.8-1.2,20.5,1.4,23.7,8.4c1.7,3.8,1.7,8.5,0.2,13.8c-0.1,0.1-0.1,0.3,0,0.4c0.4,0.7,0.8,1.4,1.1,2.1c0.1,0.2,0,0.4-0.1,0.5
	c0,0-0.1,0-0.1,0c-0.6,0.1-1.1,0.3-1.6,0.7c-0.2,0.1-0.4,0.1-0.5-0.1c0,0,0,0,0,0c-0.3-0.9-0.8-1.7-1.5-2.4
	c-0.4-0.4-0.7,0.1-0.9,0.3c-1.2,1.3-1.9,2.9-2,4.6c0,0.2-0.1,0.4-0.3,0.4c-0.1,0-0.2,0-0.3-0.1c-0.9-1.2-2.4-1.6-3.8-1.1
	c-0.1,0.1-0.2,0.2-0.2,0.3c-0.1,0.6-0.1,1.1,0.1,1.7c0.1,0.2-0.1,0.4-0.2,0.4c-0.1,0-0.2,0-0.3,0c-1.2-0.8-2.8-0.5-3.6,0.7
	c-0.1,0.1-0.1,0.2,0,0.3c0.4,1,1.3,1.7,2.3,1.9c0.2,0,0.3,0.2,0.3,0.4c0,0.1,0,0.1-0.1,0.1c-0.2,0.3-0.4,0.6-0.5,1
	c0,0.2,0.1,0.4,0.3,0.4c0.1,0,0.2,0,0.3,0c0.7-0.4,1.5-0.5,2.3-0.2c0.5,1.8-0.5,3.7-2.4,4.2c-1.8,0.5-3.7-0.5-4.2-2.4
	c-0.1-0.2-0.1-0.4-0.1-0.7c0.9-0.4,1.3-1.5,0.8-2.4s-1.5-1.3-2.4-0.8c-0.9,0.4-1.2,1.5-0.9,2.4c-3,2.5-9.3,1.6-8.5-2.8
	c0.1-1.2,1.2-2.1,2.5-1.9c0.1,0,0.1,0,0.2,0c1.1,0.2,1.8,1.1,1.9,2.1c0,0.2,0.1,0.3,0.3,0.3c0.1,0,0.2,0,0.2-0.1
	c0.5-0.5,0.8-1.1,0.9-1.8c0-0.2,0-0.4,0.2-0.5c0.1-0.1,0.2,0,0.4,0c1.1,0.2,2.3-0.2,3.1-1c0.1-0.1,0.1-0.3,0.1-0.4
	c-0.5-1-1.4-1.8-2.5-2c-0.1,0-0.3,0-0.4-0.1c-0.1-0.2,0-0.3,0-0.5c0.1-0.7,0-1.4-0.2-2c-0.1-0.2-0.2-0.2-0.4-0.2
	c-0.1,0-0.1,0.1-0.2,0.2c-0.5,1.2-1.9,1.7-3.1,1.2C178,178.5,177.4,177.5,177.6,176.4 M177.1,179.7c0.6,1.1,0.2,2.6-0.9,3.2
	c-1.1,0.6-2.6,0.2-3.2-0.9c-0.5-1-0.3-2.1,0.5-2.9c1-0.9,2.4-0.8,3.3,0.2C176.9,179.3,177.1,179.5,177.1,179.7 M151,164.5
	c0.5,0,0.9-0.4,1-0.9c0,0,0,0,0-0.1c0-0.2,0-0.3-0.1-0.5c-1-2.7-1.5-5.6-1.5-8.5c0-2.4-0.1-4.7-0.3-7.2c11.2-2.1,19.7-1,23.6,4.1
	c3.8,4.9,2,12-0.2,17.2c-0.1,0.2,0,0.4,0.1,0.5c0.7,0.5,1.4,1,2,1.5c0.6,0.6-0.6,1.8-1.4,1.9c-0.5,0-1,0.1-1.4,0.3
	c-0.2,0.1-0.2,0.2-0.2,0.4c0,0.1,0.1,0.2,0.2,0.2c1.2,0.5,1.7,1.9,1.2,3.1c-0.5,1.2-1.9,1.7-3.1,1.2c-0.8-0.3-1.3-1.1-1.4-2
	c0-0.2-0.1-0.3-0.3-0.3c-0.1,0-0.2,0-0.2,0.1c-0.5,0.5-0.8,1.1-0.9,1.8c0,0.2,0,0.4-0.2,0.5c-0.1,0.1-0.2,0-0.4,0
	c-1.1-0.2-2.3,0.2-3.1,1c-0.1,0.1-0.1,0.3-0.1,0.4c0.5,1,1.4,1.8,2.5,2c0.1,0,0.3,0,0.4,0.1c0.1,0.2,0,0.3,0,0.5
	c-0.1,0.7,0,1.4,0.2,2c0.1,0.2,0.2,0.2,0.4,0.2c0.1,0,0.1-0.1,0.2-0.2c0.5-1.2,1.9-1.7,3-1.2c1,0.4,1.6,1.5,1.4,2.6
	c-0.7,4.3-7.4,3.4-9.5-0.3c0.9-0.4,1.3-1.5,0.8-2.4s-1.5-1.3-2.4-0.8s-1.3,1.5-0.8,2.4c0.1,0.2,0.2,0.3,0.3,0.5
	c-3.2,4-12.2,3.1-11.2-2.2c0.3-1.5,1.8-2.4,3.3-2.1c1,0.2,1.8,1,2.1,2c0,0.2,0.2,0.3,0.4,0.3c0.1,0,0.2-0.1,0.2-0.2
	c0.4-0.7,0.7-1.4,0.7-2.2c0-0.5-0.1-0.7,0.5-0.7c1.3,0,2.6-0.7,3.3-1.8c0.1-0.1,0.1-0.4,0-0.5c-0.7-1.1-2-1.8-3.3-1.8
	c-0.6,0-0.5-0.2-0.5-0.7c0-0.8-0.2-1.6-0.7-2.2c-0.1-0.2-0.3-0.2-0.5-0.1c-0.1,0.1-0.2,0.1-0.2,0.3c-0.4,1.5-1.9,2.4-3.3,2
	c-1.5-0.4-2.4-1.9-2-3.3c0.2-1,1-1.7,2-2c0.2,0,0.3-0.2,0.3-0.4c0-0.1-0.1-0.2-0.2-0.2c-0.5-0.3-1-0.5-1.6-0.6
	c-0.8-0.1-1.4-0.9-1.4-1.7c0-1,0.8-1.7,1.8-1.7C150.8,164.5,150.9,164.5,151,164.5 M150.4,176.9c0.2,1.5-0.8,2.9-2.3,3.1
	c-1.5,0.2-2.9-0.8-3.1-2.3c0-0.3,0-0.6,0-0.9c0.2-1.5,1.6-2.5,3.1-2.3C149.3,174.8,150.2,175.7,150.4,176.9 M121.7,151.5
	c3.9-5.1,12.4-6.2,23.6-4.1c-0.1,1.4-0.2,4.7-0.3,7.2c-0.1,2.9-0.6,5.8-1.5,8.5c-0.1,0.1-0.1,0.3-0.1,0.5c0,0.5,0.4,0.9,0.9,1
	c0,0,0,0,0.1,0c0.9-0.2,1.9,0.4,2.1,1.4c0,0.1,0,0.2,0,0.3c0,0.8-0.6,1.6-1.4,1.7c-0.6,0.1-1.1,0.3-1.6,0.6
	c-0.2,0.1-0.2,0.3-0.1,0.5c0.1,0.1,0.1,0.2,0.2,0.2c1.5,0.4,2.4,1.9,2,3.3s-1.9,2.4-3.3,2c-1-0.2-1.7-1-2-2c0-0.2-0.2-0.3-0.4-0.3
	c-0.1,0-0.2,0.1-0.2,0.2c-0.4,0.7-0.7,1.4-0.7,2.2c0,0.5,0.1,0.7-0.5,0.7c-1.3,0-2.6,0.7-3.3,1.8c-0.1,0.1-0.1,0.4,0,0.5
	c0.7,1.1,2,1.8,3.3,1.8c0.6,0,0.5,0.2,0.5,0.7c0,0.8,0.2,1.6,0.7,2.2c0.1,0.2,0.3,0.2,0.5,0.1c0.1-0.1,0.2-0.1,0.2-0.2
	c0.4-1.5,1.9-2.3,3.3-2c1,0.3,1.8,1.1,2,2.1c1,5.3-8.1,6.2-11.2,2.2c0.7-0.7,0.7-1.9,0-2.6c-0.7-0.7-1.9-0.7-2.6,0
	c-0.7,0.7-0.7,1.9,0,2.6c0.1,0.1,0.3,0.3,0.5,0.3c-2.1,3.8-8.8,4.7-9.5,0.3c-0.3-1.2,0.5-2.4,1.7-2.7c0.1,0,0.1,0,0.2,0
	c1-0.2,2.1,0.4,2.5,1.3c0.1,0.2,0.2,0.2,0.4,0.2c0.1,0,0.1-0.1,0.2-0.2c0.3-0.6,0.4-1.3,0.2-2c0-0.2-0.1-0.4,0-0.5
	c0.1-0.1,0.2-0.1,0.4-0.1c1.1-0.2,2.1-0.9,2.6-2c0.1-0.1,0-0.3-0.1-0.4c-0.8-0.8-1.9-1.2-3.1-1c-0.1,0-0.3,0.1-0.4,0
	c-0.2-0.1-0.1-0.3-0.2-0.5c-0.1-0.7-0.4-1.3-0.9-1.8c-0.1-0.1-0.3-0.1-0.4,0c-0.1,0.1-0.1,0.1-0.1,0.2c-0.1,1.3-1.2,2.2-2.5,2.2
	s-2.2-1.2-2.2-2.5c0.1-0.9,0.6-1.6,1.4-2c0.2-0.1,0.2-0.2,0.2-0.4c0-0.1-0.1-0.2-0.2-0.2c-0.4-0.2-0.9-0.3-1.4-0.3
	c-0.9,0-2-1.3-1.4-1.9c0.6-0.5,1.3-1,2-1.5c0.2-0.1,0.2-0.3,0.1-0.5C119.7,163.4,117.9,156.3,121.7,151.5 M118.3,179.7
	c0.6-1.1,2-1.6,3.2-1c0.2,0.1,0.3,0.2,0.5,0.3c1,0.9,1,2.3,0.2,3.3c-0.9,1-2.3,1-3.3,0.2C117.9,181.8,117.7,180.6,118.3,179.7
	 M90.9,178.5c0.3-0.7,0.7-1.4,1.1-2.1c0.1-0.1,0.1-0.3,0-0.4c-1.5-5.3-1.5-10,0.2-13.8c3.2-7,11.9-9.6,23.7-8.4
	c-2.7,5.7-0.9,12.7,1.8,18c0.2,0.5-0.3,1.1-1,1.3c-0.5,0.2-0.9,0.4-1.2,0.7c-0.1,0.1-0.1,0.3,0,0.4c0.1,0.1,0.1,0.1,0.2,0.1
	c1.3,0.1,2.2,1.2,2.1,2.5c-0.1,1.3-1.2,2.2-2.5,2.1c-0.9-0.1-1.6-0.6-2-1.4c-0.1-0.2-0.2-0.2-0.4-0.2c-0.1,0-0.2,0.1-0.2,0.2
	c-0.3,0.6-0.4,1.3-0.2,2c0,0.2,0.1,0.4,0,0.5c-0.1,0.1-0.2,0.1-0.4,0.1c-1.1,0.2-2.1,0.9-2.5,2c-0.1,0.1,0,0.3,0.1,0.4
	c0.8,0.8,1.9,1.2,3.1,1c0.1,0,0.3-0.1,0.4,0c0.2,0.1,0.1,0.3,0.2,0.5c0.1,0.7,0.4,1.3,0.9,1.8c0.1,0.1,0.3,0.1,0.4,0
	c0.1-0.1,0.1-0.1,0.1-0.2c0.1-1.3,1.2-2.2,2.5-2.1c1.1,0.1,2,0.9,2.1,1.9c0.8,4.5-5.5,5.3-8.5,2.8c0.1-0.2,0.2-0.5,0.2-0.7
	c0-1-0.8-1.8-1.8-1.8c-1,0-1.8,0.8-1.8,1.8c0,0.7,0.4,1.3,1,1.6c-0.2,1.9-1.8,3.3-3.7,3.1c-1.9-0.2-3.3-1.8-3.1-3.7
	c0-0.2,0.1-0.4,0.1-0.6c0.8-0.3,1.6-0.2,2.3,0.2c0.2,0.1,0.4,0,0.5-0.1c0-0.1,0.1-0.2,0-0.3c-0.1-0.4-0.3-0.7-0.5-1
	c-0.1-0.2-0.1-0.4,0.1-0.5c0,0,0.1-0.1,0.1-0.1c1-0.2,1.9-0.9,2.3-1.9c0.1-0.1,0-0.2,0-0.3c-0.8-1.1-2.4-1.4-3.6-0.7
	c-0.2,0.1-0.4,0.1-0.5-0.1c-0.1-0.1-0.1-0.2,0-0.3c0.1-0.5,0.1-1.1,0.1-1.7c0-0.1-0.1-0.2-0.2-0.3c-1.4-0.5-2.9,0-3.8,1.1
	c-0.1,0.2-0.3,0.2-0.5,0.1c-0.1-0.1-0.1-0.2-0.1-0.3c-0.1-1.7-0.8-3.3-2-4.6c-0.2-0.2-0.6-0.7-0.9-0.3c-0.6,0.7-1.1,1.5-1.5,2.4
	c-0.1,0.2-0.3,0.2-0.5,0.1c0,0,0,0,0,0c-0.5-0.3-1-0.5-1.6-0.7C90.9,179,90.8,178.8,90.9,178.5C90.9,178.6,90.9,178.6,90.9,178.5"/>
<path class="st1" d="M146.9,134.6c-1.4,0.3-2.5,1.4-2.7,2.8h2.7V134.6z"/>
<path class="st1" d="M148.5,134.6v2.8h2.7C151,136,149.9,134.9,148.5,134.6"/>
<path class="st1" d="M147.7,141.7c1.7,0,3.2-1.2,3.5-2.8h-7C144.5,140.5,146,141.7,147.7,141.7"/>
<path class="st1" d="M249.1,220.5c0-0.7-0.6-1.3-1.3-1.3h-17.1c-0.7,0-1.3,0.6-1.3,1.3c0,0.5,0.3,1,0.8,1.2h0
	c0.8,0.6,1.3,1.5,1.2,2.5c0.1,1-0.4,2-1.2,2.5l0,0c-0.5,0.3-0.8,0.8-0.8,1.4c-0.1,0.8,0.5,1.5,1.3,1.5h17.1c0.8-0.1,1.3-0.7,1.3-1.5
	c0-0.6-0.3-1.1-0.7-1.4c0,0,0,0,0,0c-0.8-0.6-1.3-1.5-1.2-2.6c-0.1-1,0.4-2,1.3-2.6c0,0,0,0,0,0C248.8,221.5,249.1,221,249.1,220.5"
	/>
<rect x="226.9" y="342.2" class="st1" width="24.8" height="7.1"/>
<path class="st1" d="M241.4,251.3c2,0.3,3.9,0.7,5.7,1.1V232h-15.8v18.6C234.8,250.6,238.1,250.8,241.4,251.3"/>
<path class="st1" d="M232.1,297.7c-0.2-0.1-0.4-0.2-0.6-0.4v33.9c0,3.5-0.6,5.8-1.5,7.2c-0.3,0.5-0.1,1.2,0.4,1.2h17.9
	c0.4,0,0.7-0.4,0.7-0.9c0-0.1-0.1-0.2-0.1-0.4c-0.9-1.5-1.6-3.9-1.6-7.2v-26.2C242.6,303.2,237.3,300.6,232.1,297.7"/>
<path class="st1" d="M229.4,274.1c-2.8,0.2-5.8,1.2-7.1,2.2l1,1c1.9,1.9,3.9,3.5,6.1,5L229.4,274.1z"/>
<path class="st1" d="M251.1,355.6c-1.5-0.3-3-0.8-4.5-1.4c-2.5-1.1-5.1-1.6-7.8-1.7c-2.6,0-5.2,0.6-7.6,1.6c-1.5,0.6-3,1.1-4.5,1.4
	c-1.9,0.2-3.8,0.1-5.6-0.3c-0.5-0.1-1-0.2-1.5-0.2v2.5c0.3,0,0.7,0.1,1,0.2c2.1,0.5,4.4,0.7,6.5,0.3c1.7-0.3,3.3-0.8,4.9-1.5
	c2.1-0.9,4.4-1.5,6.7-1.5c2.4,0,4.7,0.5,6.9,1.5c1.6,0.6,3.2,1.1,4.9,1.5c0.7,0.1,1.4,0.2,2.2,0.2c1.4,0,2.8-0.2,4.2-0.5
	c0.4-0.1,0.8-0.2,1.2-0.2V355c-0.6,0-1.1,0.1-1.7,0.3C254.7,355.7,252.9,355.8,251.1,355.6"/>
<path class="st1" d="M251.1,361.2c-1.5-0.3-3.1-0.8-4.5-1.4c-2.5-1.1-5.1-1.6-7.8-1.7c-2.6,0-5.2,0.6-7.6,1.6
	c-1.5,0.6-3,1.1-4.5,1.4c-1.9,0.2-3.8,0.1-5.6-0.3c-0.5-0.1-1-0.2-1.5-0.2v2.5c0.3,0,0.7,0.1,1,0.2c2.1,0.5,4.4,0.7,6.5,0.3
	c1.7-0.3,3.3-0.8,4.9-1.5c2.1-0.9,4.4-1.5,6.7-1.5c2.4,0,4.7,0.5,6.9,1.5c1.6,0.6,3.2,1.1,4.9,1.5c0.7,0.1,1.4,0.2,2.2,0.2
	c1.4,0,2.8-0.2,4.2-0.5c0.4-0.1,0.8-0.2,1.2-0.2v-2.5c-0.6,0-1.1,0.1-1.7,0.3C254.7,361.4,252.9,361.5,251.1,361.2"/>
<path class="st1" d="M251.1,366.5c-1.5-0.3-3.1-0.8-4.5-1.4c-2.5-1.1-5.1-1.6-7.8-1.7c-2.6,0-5.2,0.6-7.6,1.6
	c-1.5,0.6-3,1.1-4.5,1.4c-1.9,0.2-3.8,0.1-5.6-0.3c-0.5-0.1-1-0.2-1.5-0.2v2.5c0.3,0,0.7,0.1,1,0.2c2.1,0.5,4.4,0.7,6.5,0.3
	c1.7-0.3,3.3-0.8,4.9-1.5c2.1-0.9,4.4-1.5,6.7-1.5c2.4,0,4.7,0.5,6.9,1.5c1.6,0.6,3.2,1.1,4.9,1.5c0.7,0.1,1.4,0.2,2.2,0.2
	c1.4,0,2.8-0.2,4.2-0.5c0.4-0.1,0.8-0.2,1.2-0.2v-2.5c-0.6,0-1.1,0.1-1.7,0.3C254.7,366.6,252.9,366.7,251.1,366.5"/>
<path class="st1" d="M247.2,291.4v-22.4c-2.9-1-5.9-1.7-9-2c-2.1-0.3-4.4-0.4-6.8-0.5v16.8c0.8,0.5,1.7,1,2.5,1.5
	C238.2,287.2,242.6,289.4,247.2,291.4"/>
<path class="st1" d="M220.6,287.6c1.2,2.2,20.9,13.6,33.7,17.8c-0.1-0.6-0.3-1.2-0.4-1.9c-0.7-2.9-1.5-6.4-1.9-8.2
	c-5.2-1.5-12.1-4.7-19.1-8.8c-4-2.4-8.8-5.5-11-7.7L220.6,287.6z"/>
<path class="st1" d="M247,258.9c0-0.2,0.1-0.3,0.1-0.5c0-0.8-0.8-0.9-1.5-1.1l-0.1,0l-0.6,2.6c0.5,0.2,1,0.2,1.5,0
	C246.7,259.6,246.9,259.3,247,258.9L247,258.9z"/>
<polygon class="st1" points="255.3,264.7 255.4,262.4 253.5,263.8 "/>
<path class="st1" d="M263.5,263.1c-2.6-3.6-11.1-8-22.4-9.6c-3.7-0.5-7.4-0.7-11.1-0.7c-6.2,0-11.8,0.3-14.8,1.3v11.7
	c3.4-1.1,8.4-1.5,14.2-1.5c3,0,6,0.2,9,0.5c9.2,1.1,18.1,5,21.2,9.2c0.2,0.3,0.4,0.6,0.6,0.9c1.8-4,3.9-8.8,4.1-9.3
	C264.3,264.6,264.1,263.7,263.5,263.1 M226.4,255.4c-0.8,2.3-1.6,4.8-2.2,7.2l0,0.1H224c-0.4,0-0.7,0.1-1.1,0.2l-0.1,0l-0.1-0.1
	c-1.3-2.1-2.8-4.3-4.7-7l-0.1-0.2l0.2,0c0.4,0,1.9-0.3,2.3-0.3l0.1,0l0,0.1c0.6,1.2,1.4,2.4,2.1,3.5c0.3,0.4,0.6,0.9,0.9,1.3
	c0.5-1.6,1.1-3.5,1.6-5.5l0-0.1l0.1,0c0.4,0,0.8-0.1,1.2-0.2l0.2-0.1L226.4,255.4z M234.1,262.3l0,0.2l-5.4-0.1l0.2-7.8l0.1,0
	c0.3,0,1.7,0.1,2,0l0.1,0l-0.2,6.8c1.1,0,2,0,2.9-0.1l0.2,0l0,0.2C234.1,261.7,234.1,262,234.1,262.3 M241.3,256.5
	c-0.7-0.1-1.4-0.3-2.2-0.4l-0.7,6.8l-0.1,0c-0.3-0.1-1.7-0.2-2-0.2h-0.1l0.7-6.8c-0.8-0.1-1.6-0.1-2.3-0.1h-0.2l0.1-0.2
	c0.1-0.3,0.1-0.6,0.1-0.9l0-0.2l7.2,0.7l0,0.2c-0.1,0.3-0.1,0.6-0.1,0.9l0,0.2L241.3,256.5z M248.6,265.2c-0.4-0.1-2-0.5-2.3-0.6
	l-0.1,0l-1-2.7c-0.1-0.2-0.2-0.5-0.3-0.8c-0.1-0.1-0.1-0.3-0.2-0.4l-0.8,3.3l-0.1,0c-0.3-0.1-1.6-0.4-1.9-0.5l-0.1,0l1.9-7.7
	l3.1,0.7c0.7,0.1,1.3,0.4,1.9,0.7c0.7,0.4,1,1.2,0.8,2c-0.3,1-1.3,1.7-2.4,1.6h0c0.3,0.9,0.8,1.8,1.1,2.6c0.1,0.3,0.2,0.5,0.3,0.8
	l0.5,1.1L248.6,265.2z M257.2,269.5l-0.2-0.1c-0.3-0.2-1.7-0.9-2-1l-0.1,0l0-0.2c0.1-0.8,0.2-1.6,0.2-2.3l-2.6-1.3
	c-0.2,0.2-0.4,0.3-0.6,0.5c-0.4,0.4-0.9,0.7-1.3,1.1l-0.1,0.1l-0.1-0.1c-0.2-0.1-0.9-0.5-1.1-0.6l-0.2-0.1l7.3-5.3l0.1,0.1
	c0.1,0.1,0.3,0.2,0.4,0.3c0.1,0.1,0.3,0.1,0.5,0.2l0.1,0L257.2,269.5z"/>
<path class="st1" d="M257.8,275.2c-1.4-1.6-3.1-3-5.1-3.9c-1.2,0.2-2.4,0.2-3.6,0.3v10.2c5.7-0.4,9.3-2,9.7-4.5c0,0,0-0.1,0-0.1
	l-0.7-1.3C258.1,275.6,258,275.4,257.8,275.2"/>
<path class="st1" d="M237.6,206.4v-11c-0.3-0.2-0.5-0.3-0.8-0.4c-0.2-0.1-0.5-0.1-0.8-0.1c-1.2,0-2.3,0.7-2.8,1.8
	c0,0.1,0.1,0.3,0.1,0.4c1,2.6,2.6,6.4,3.7,9.3C237.2,206.4,237.4,206.4,237.6,206.4"/>
<path class="st1" d="M226.2,199.7c0.1,0.1,0.1,0.2,0.2,0.3c1.2,1.8,3,4.6,5.3,8.3c0.5-0.3,1-0.5,1.5-0.7c-1.1-2.7-2.6-6.4-3.6-9
	c0-0.1,0-0.1-0.1-0.2l0,0c-0.2-0.1-0.5-0.1-0.8-0.1C227.7,198.4,226.8,198.9,226.2,199.7"/>
<path class="st1" d="M247.9,208.2c2.3-3.7,4.1-6.4,5.2-8.2c0.1-0.1,0.1-0.2,0.2-0.3c-0.6-0.9-1.6-1.4-2.6-1.4c-0.2,0-0.4,0-0.7,0.1
	c0,0.1,0,0.1-0.1,0.2c-1,2.6-2.5,6.2-3.6,8.9C246.9,207.7,247.4,208,247.9,208.2"/>
<path class="st1" d="M239,188.3c0.5-0.2,1-0.2,1.4,0v-2.6h1.9v-1.4h-1.9v-2.2H239v2.2h-1.9v1.4h1.9L239,188.3z"/>
<path class="st1" d="M229.6,210c0.3-0.2,0.5-0.4,0.8-0.6c0.1-0.1,0.2-0.2,0.4-0.2c-1.6-2.6-3.9-6.2-5.4-8.5
	c-0.1-0.1-0.1-0.2-0.1-0.2l-0.1-0.1c-1.1-1.9-1.1-3.9,0-5.1c0.7-0.8,1.7-1.2,2.8-1.1c0.4,0,0.8,0,1.1,0.1c0-0.5,0-1,0.1-1.5
	c-0.4-0.1-0.8-0.1-1.2-0.1c-1.5,0-2.9,0.6-3.9,1.7c-1.6,1.9-1.6,4.7,0.1,7.3C225.6,203.9,227.9,207.4,229.6,210"/>
<path class="st1" d="M230,194.8c0,0.1,0,0.1,0,0.2s0,0.1,0,0.2l0,0.1c0.1,1,0.4,2,0.7,2.9l0.1,0.1c1,2.6,2.5,6.4,3.6,9.1
	c0.4-0.2,0.9-0.3,1.4-0.4c-1.1-2.7-2.7-6.5-3.7-9.2l-0.1-0.2c-0.4-0.9-0.6-1.9-0.7-2.8c0-0.2,0-0.4,0-0.6c0-0.3,0-0.5,0.1-0.8l0-0.1
	c0-0.1,0-0.1,0-0.2c0-0.1,0-0.2,0.1-0.2l0,0c0.3-1.4,1.6-2.3,3-2.2c1.2,0.1,2.3,0.5,3.3,1.2V190c-1-0.6-2.1-0.9-3.3-0.9
	c-1,0-2,0.3-2.8,0.9c-0.7,0.6-1.3,1.4-1.6,2.3c0,0.1,0,0.1-0.1,0.2l0,0.2c0,0,0,0.1,0,0.2c-0.1,0.6-0.2,1.3-0.1,1.9L230,194.8z"/>
<path class="st1" d="M251.6,194.1c1.1-0.1,2.1,0.4,2.8,1.1c1.1,1.3,1.1,3.3-0.1,5.2c0,0,0,0.1,0,0.1c0,0,0,0.1-0.1,0.1
	c-1.2,1.8-3,4.6-5.3,8.3c0.1,0.1,0.2,0.1,0.3,0.2c0.3,0.2,0.6,0.4,1,0.7c1.6-2.6,3.9-6.1,5.3-8.3c1.7-2.6,1.7-5.4,0.1-7.3
	c-1-1.1-2.4-1.7-3.9-1.7c-0.4,0-0.8,0-1.2,0.1c0.1,0.5,0.1,1,0.1,1.5C250.9,194.2,251.3,194.1,251.6,194.1"/>
<path class="st1" d="M246.3,196.9L246.3,196.9c-0.5-1.2-1.6-2-2.9-2c-0.3,0-0.5,0-0.8,0.1c-0.3,0.1-0.5,0.2-0.7,0.3v11
	c0.2,0,0.4,0.1,0.6,0.1c1.6-3.9,2.9-7.1,3.7-9.2C246.2,197.1,246.2,197,246.3,196.9"/>
<path class="st1" d="M241.6,191.7c1-0.7,2.1-1.1,3.3-1.2c1.4-0.1,2.6,0.9,3,2.2l0,0c0,0.1,0,0.2,0.1,0.2c0,0.1,0,0.1,0,0.2l0,0.1
	c0,0.3,0.1,0.5,0.1,0.8c0,0.2,0,0.4,0,0.6c-0.1,1-0.3,1.9-0.7,2.8l-0.2,0.4c-1,2.7-2.5,6.3-3.6,8.9c0.5,0.1,1,0.3,1.5,0.4
	c1.1-2.7,2.6-6.5,3.6-9.1l0-0.1c0.4-0.9,0.6-1.9,0.7-2.9l0-0.1c0-0.1,0-0.1,0-0.2s0-0.1,0-0.2l0-0.1c0-0.6,0-1.3-0.1-1.9
	c0-0.1,0-0.1,0-0.2l0-0.2c0-0.1,0-0.1-0.1-0.2c-0.6-1.9-2.4-3.2-4.4-3.2c-1.2,0-2.3,0.3-3.3,0.9V191.7z"/>
<path class="st1" d="M240.6,189.9c0-0.1,0-0.1-0.1-0.2c-0.2-0.4-0.8-0.6-1.2-0.4c-0.2,0.1-0.3,0.2-0.4,0.4c0,0.1,0,0.1,0,0.2l0,16.6
	c0.6,0,1.2,0,1.7,0L240.6,189.9z"/>
<path class="st1" d="M248.4,210.2c-0.1-0.1-0.2-0.1-0.3-0.2L248,210l-0.2-0.1l-0.1-0.1c0,0-0.1-0.1-0.1-0.1c-0.7-0.4-1.4-0.7-2.2-1
	l-0.1,0c-0.1,0-0.1,0-0.1-0.1l-0.3-0.1c-0.6-0.2-1.2-0.4-1.8-0.5l-0.4-0.1c-0.1,0-0.1,0-0.1,0c-0.3-0.1-0.7-0.1-1.2-0.2l-0.2,0
	c-0.1,0-0.1,0-0.2,0c-0.1,0-0.1,0-0.2,0l-0.1,0c-0.7,0-1.3,0-2,0l-0.3,0c0,0-0.1,0-0.1,0c-0.1,0-0.1,0-0.2,0c-0.4,0-0.8,0.1-1.1,0.2
	l-0.1,0l-0.4,0.1c-0.6,0.1-1.2,0.3-1.8,0.5l-0.5,0.2c-0.7,0.3-1.5,0.6-2.2,1l-0.6,0.4c-0.1,0.1-0.2,0.1-0.3,0.2
	c-0.2,0.2-0.7,0.4-0.9,0.6l2.8,4c0,0.1,0.1,0.1,0.2,0.1c0,0,0.1,0,0.1,0c0.5-0.3,0.9-0.5,1.4-0.7l0.3-0.1c1.6-0.6,3.3-1,5-1
	c1.6,0,3.2,0.3,4.7,0.9l0.1,0c0.1,0,0.1,0,0.2,0.1c0.5,0.2,1,0.5,1.5,0.7c0,0,0.1,0,0.1,0c0.1,0,0.1,0,0.2-0.1l2.8-4.1
	C249.2,210.7,248.7,210.4,248.4,210.2"/>
<path class="st1" d="M58.2,206.1c0.2,0,0.3,0,0.5,0.1c0.5-1.6,1.1-3.2,1.4-4.1c1.1-3,2.8-5.8,5-8.1c0.1-0.1,0.1-0.1,0.2-0.1v0
	c0-2.4-1.9-4.3-4.3-4.4c-1,0-2,0.3-2.8,1L58.2,206.1z"/>
<path class="st1" d="M60.2,206.5c0.6,0.2,1.2,0.3,1.8,0.6c0.6-1.9,1.1-3.1,1.3-3.8c0.9-3.1,2.7-5.9,5-8.2c-0.3-0.1-0.7-0.1-1-0.1
	c-0.2,0-0.3,0-0.5,0c-0.2,0-0.5,0.1-0.7,0.2c-2.1,2.1-3.6,4.7-4.6,7.5C61.3,203.5,60.8,205,60.2,206.5"/>
<path class="st1" d="M63.5,207.6c1.1,0.5,2.1,1.1,3,1.8c1.8-2.7,3.5-5.5,4.9-8.4l0-0.1c0.8-1.9,0.1-4-1.5-5.2l-0.2,0.2
	c-2.6,2.1-4.1,5.4-4.9,7.8C64.5,204.7,63.9,206.5,63.5,207.6"/>
<path class="st1" d="M51.4,202.1c0.3,0.8,0.8,2.3,1.3,3.9l0,0.1c0.1,0,0.3,0,0.4-0.1v-15.5c-1.8-1.5-4.5-1.2-6,0.7
	c-0.6,0.8-0.9,1.7-0.9,2.7c0,0,0.1,0,0.1,0.1C48.6,196.3,50.4,199.1,51.4,202.1"/>
<path class="st1" d="M40.1,201c1.5,2.9,3.1,5.7,4.9,8.4c1-0.7,2-1.3,3-1.8c-0.4-1.1-1-3-1.3-3.9c-0.8-2.4-2.3-5.7-4.9-7.8l-0.2-0.2
	c-1.6,1.2-2.3,3.3-1.5,5.2L40.1,201z"/>
<path class="st1" d="M54.9,187.8L54.9,187.8c0.6-0.2,1.1-0.2,1.6,0l0.1,0v-1.9h1.9v-1.7h-1.9V182h-1.7v2.2H53v1.7h1.9L54.9,187.8z"
	/>
<path class="st1" d="M56.7,189.9c0-0.5-0.4-1-1-1s-1,0.4-1,1V206c0.6,0,1.3-0.1,1.9,0V189.9z"/>
<path class="st1" d="M45.6,210.8l2.8,4.3c0.1,0.2,0.3,0.2,0.5,0.2c0.1,0,0.2,0,0.3-0.1c2.1-1.1,4.4-1.7,6.7-1.7
	c2.3,0,4.6,0.6,6.7,1.7c0.3,0.1,0.6,0.1,0.8-0.2l2.6-4.4l0-0.1l-0.1,0C59.8,206.1,51.6,206.2,45.6,210.8L45.6,210.8z"/>
<path class="st1" d="M48.2,203.2c0.3,0.8,0.8,2.3,1.3,3.8c0.6-0.2,1.1-0.4,1.7-0.5c-0.5-1.5-1-3-1.3-3.8c-1-2.8-2.5-5.3-4.6-7.5
	c-0.2-0.1-0.4-0.1-0.7-0.2c-0.1,0-0.3,0-0.4,0c-0.3,0-0.6,0-0.9,0.1C45.6,197.4,47.2,200.1,48.2,203.2"/>
</svg>
