<?xml version="1.0" encoding="utf-8"?>
<!-- Generator: Adobe Illustrator 21.1.0, SVG Export Plug-In . SVG Version: 6.00 Build 0)  -->
<svg version="1.1" id="Layer_1" xmlns="http://www.w3.org/2000/svg" xmlns:xlink="http://www.w3.org/1999/xlink" x="0px" y="0px"
	 viewBox="0 0 500 500" width="100" height="100" style="enable-background:new 0 0 500 500;" xml:space="preserve">
<style type="text/css">
	.st0{fill:#575D66;}
	.st1{fill-rule:evenodd;clip-rule:evenodd;fill:#E43541;}
	.st2{fill:#E43541;}
</style>
<g id="GFF_Logo_x5F_2Col">
	<g>
		<path class="st0" d="M250,56.639c79.938,0,148.543,48.511,177.991,117.698h52.917C449.103,77.216,357.752,7.059,250,7.059
			c-107.752,0-199.103,70.157-230.908,167.278h52.917C101.457,105.15,170.062,56.639,250,56.639z"/>
		<path class="st0" d="M250,443.361c-79.938,0-148.543-48.511-177.991-117.698H19.092C50.897,422.784,142.248,492.941,250,492.941
			c107.752,0,199.103-70.157,230.908-167.278h-52.917C398.543,394.85,329.938,443.361,250,443.361z"/>
		<path class="st1" d="M145.37,144.491c0.595-5.487,2.576-11.076,5.215-16.667c-2.795-0.008-5.414-0.008-8.217-0.008
			c-2.787,0-5.401,0-8.205,0c2.302,5.536,4.079,11.06,4.54,16.503c-5.435-0.752-10.874-2.854-16.3-5.496
			c-0.19,2.612-0.19,5.416-0.19,8.217c-0.186,2.61-0.186,5.407-0.376,8.207c5.633-2.343,11.266-4.02,16.794-4.284
			c-0.612,5.665-2.711,11.328-5.224,16.982c2.796,0,5.777,0.004,8.581,0.004c2.804,0,5.608,0,8.589,0
			c-2.626-5.544-4.573-11.089-5.185-16.642c5.469,0.815,10.831,3.026,16.199,5.631c0-2.802,0.19-5.787,0.19-8.583
			c0.199-2.983,0.199-5.781,0.199-8.581C156.391,142.097,150.915,144.002,145.37,144.491z"/>
		<path class="st1" d="M358.056,144.491c0.595-5.487,2.576-11.076,5.215-16.667c-2.795-0.008-5.414-0.008-8.217-0.008
			c-2.787,0-5.401,0-8.205,0c2.302,5.536,4.079,11.06,4.54,16.503c-5.435-0.752-10.874-2.854-16.3-5.496
			c-0.19,2.612-0.19,5.416-0.19,8.217c-0.186,2.61-0.186,5.407-0.376,8.207c5.633-2.343,11.266-4.02,16.794-4.284
			c-0.612,5.665-2.711,11.328-5.224,16.982c2.796,0,5.777,0.004,8.581,0.004c2.804,0,5.608,0,8.589,0
			c-2.626-5.544-4.573-11.089-5.185-16.642c5.469,0.815,10.832,3.026,16.199,5.631c0-2.802,0.19-5.787,0.19-8.583
			c0.199-2.983,0.199-5.781,0.199-8.581C369.078,142.097,363.601,144.002,358.056,144.491z"/>
		<path class="st1" d="M145.37,354.108c0.595-5.487,2.576-11.076,5.215-16.667c-2.795-0.008-5.414-0.008-8.217-0.008
			c-2.787,0-5.401,0-8.205,0c2.302,5.536,4.079,11.06,4.54,16.503c-5.435-0.752-10.874-2.854-16.3-5.496
			c-0.19,2.612-0.19,5.416-0.19,8.217c-0.186,2.61-0.186,5.407-0.376,8.207c5.633-2.343,11.266-4.02,16.794-4.284
			c-0.612,5.665-2.711,11.328-5.224,16.982c2.796,0,5.777,0.004,8.581,0.004c2.804,0,5.608,0,8.589,0
			c-2.626-5.544-4.573-11.089-5.185-16.642c5.469,0.815,10.831,3.026,16.199,5.631c0-2.802,0.19-5.787,0.19-8.583
			c0.199-2.983,0.199-5.781,0.199-8.581C156.391,351.714,150.915,353.619,145.37,354.108z"/>
		<path class="st1" d="M358.056,354.108c0.595-5.487,2.576-11.076,5.215-16.667c-2.795-0.008-5.414-0.008-8.217-0.008
			c-2.787,0-5.401,0-8.205,0c2.302,5.536,4.079,11.06,4.54,16.503c-5.435-0.752-10.874-2.854-16.3-5.496
			c-0.19,2.612-0.19,5.416-0.19,8.217c-0.186,2.61-0.186,5.407-0.376,8.207c5.633-2.343,11.266-4.02,16.794-4.284
			c-0.612,5.665-2.711,11.328-5.224,16.982c2.796,0,5.777,0.004,8.581,0.004c2.804,0,5.608,0,8.589,0
			c-2.626-5.544-4.573-11.089-5.185-16.642c5.469,0.815,10.832,3.026,16.199,5.631c0-2.802,0.19-5.787,0.19-8.583
			c0.199-2.983,0.199-5.781,0.199-8.581C369.078,351.714,363.601,353.619,358.056,354.108z"/>
		<path class="st2" d="M487.447,197.916h-63.08v-9.714c0-7.457-6.045-13.502-13.502-13.502h-84.554h-8.017h-13.309h-3.463V89.914
			C285.285,84.692,267.974,81.86,250,81.86c-17.974,0-35.285,2.831-51.523,8.054v99.116c-15.359-11.415-32.484-16.802-53.334-16.802
			c-21.962,0-42.234,7.978-57.08,22.467c-1.071,1.045-2.096,2.124-3.097,3.221H12.553c-3.587,16.608-5.493,33.842-5.493,51.523
			c0,17.681,1.906,34.915,5.493,51.523h70.962c1.579,1.81,3.244,3.557,5.011,5.22c14.794,13.923,35.152,21.591,57.324,21.591
			c22.632,0,40.167-7.214,52.627-15.159l0,97.472c16.238,5.222,33.549,8.054,51.523,8.054c17.974,0,35.284-2.832,51.523-8.054
			v-84.785h16.772h8.017h26.237c7.457,0,13.502-6.045,13.502-13.502v-10.837h121.397c3.587-16.608,5.493-33.842,5.493-51.523
			C492.941,231.758,491.034,214.524,487.447,197.916z M198.936,295.202c-13.065,10.77-31.251,19.069-53.675,19.069
			c-38.491,0-67.272-26.485-67.272-63.917v-0.353c0-36.02,28.25-64.271,66.565-64.271c21.718,0,37.079,6.709,50.146,18.01
			l-20.129,24.19c-8.828-7.416-17.657-11.653-29.841-11.653c-17.832,0-31.604,15.007-31.604,33.901v0.353
			c0,19.952,13.949,34.254,33.547,34.254c8.299,0,14.656-1.766,19.776-5.12v-15.009h-24.366v-17.37
			c0.256-4.291,3.807-7.695,8.162-7.695v-0.008h48.692V295.202z M304.586,210.187c-0.077,4.392-3.609,7.935-7.996,8.032h-50.32
			v21.011h45.195v18.572v1.661c0,4.521-3.665,8.187-8.187,8.187v0.007h-37.008v44.142h-34.254V188.202h92.57V210.187z
			 M410.879,210.187c-0.077,4.392-3.609,7.935-7.996,8.032h-50.32v21.011h45.195v18.572v1.661c0,4.521-3.665,8.187-8.187,8.187
			v0.007h-37.008v44.142h-34.254V188.202h92.57V210.187z"/>
	</g>
</g>
</svg>
