<?xml version="1.0" encoding="UTF-8"?><svg xmlns="http://www.w3.org/2000/svg" viewBox="0 0 306.1417 379.8425"><g id="Background_RGB"><circle cx="153.0709" cy="226.7716" r="153.0709" transform="translate(-115.5183 174.6573) rotate(-45)" style="fill:none;"/><rect x="0" y="0" width="306.1417" height="379.8425" style="fill:none;"/></g><g id="Logo"><path d="m247.5098,313.9881l9.679,8.947c-15.029,16.265-33.821,29.001-54.995,36.824l-4.563-12.369c19.204-7.097,36.249-18.649,49.879-33.402Z" style="fill:#a9936f;"/><path d="m188.0278,350.5121l3.579,12.69c-12.253,3.454-25.179,5.302-38.536,5.302-13.323,0-26.217-1.838-38.441-5.276l3.579-12.689c11.086,3.117,22.78,4.784,34.862,4.784,12.117,0,23.843-1.676,34.957-4.811Z" style="fill:#a9936f;"/><path d="m108.6028,347.4241l-4.564,12.369c-21.184-7.81-39.988-20.537-55.029-36.796l9.679-8.947c13.643,14.747,30.699,26.29,49.914,33.374Z" style="fill:#a9936f;"/><path d="m254.066,306.3127c17.2578-21.8825,27.556-49.509,27.556-79.5409,0-70.9968-57.5543-128.5511-128.5512-128.5511S24.5197,155.775,24.5197,226.7718c0,30.0602,10.3176,57.7105,27.6048,79.6028l-10.3506,8.1621c-19.0597-24.137-30.4353-54.6225-30.4353-87.7649,0-78.2765,63.4557-141.7323,141.7322-141.7323s141.7323,63.4558,141.7323,141.7323c0,33.1137-11.3559,63.5751-30.3858,87.7023l-10.3513-8.1614Z" style="fill:#a9936f;"/><path d="m43.1433,226.7716c0-60.6114,49.3178-109.9275,109.9276-109.9275s109.9272,49.3162,109.9272,109.9275-49.315,109.9226-109.9297,109.9226-109.9251-49.3026-109.9251-109.9226Zm-5.3008,0c0,63.5415,51.6921,115.2283,115.2283,115.2283s115.2283-51.6868,115.2283-115.2283-51.6831-115.2283-115.2283-115.2283-115.2283,51.6949-115.2283,115.2283Z" style="fill:#a9936f;"/><path d="m232.5826,226.7716c0,43.9132-35.5987,79.5118-79.5118,79.5118s-79.5118-35.5987-79.5118-79.5118,35.5987-79.5118,79.5118-79.5118,79.5118,35.5987,79.5118,79.5118Zm-79.5118-74.9339c-41.3848,0-74.9339,33.549-74.9339,74.9339s33.549,74.9339,74.9339,74.9339,74.9339-33.549,74.9339-74.9339-33.549-74.9339-74.9339-74.9339Z" style="fill:#a9936f;"/><path d="m89.3151,169.2027c4.0396-4.3325,4.0132-9.0708-.0298-12.8374-3.9155-3.6475-8.5542-3.2554-12.5938,1.0771l-3.7837,4.0581,12.6235,11.7603,3.7837-4.0581Zm-10.0903-9.6738c2.3521-2.5225,5.0728-2.6177,7.4697-.3853,2.5063,2.3354,2.6748,5.0879.3057,7.6289l-1.3809,1.481-7.7754-7.2441,1.3809-1.4805Z" style="fill:#a9936f;"/><polygon points="108.7321 152.9444 106.8366 150.2432 100.6207 154.6129 98.3952 151.4415 103.6295 147.7618 101.8493 145.2247 96.6149 148.9044 94.4611 145.835 100.4723 141.609 98.6203 138.9693 89.5622 145.337 99.4699 159.4556 108.7321 152.9444" style="fill:#a9936f;"/><path d="m119.4787,148.1094c4.3003-1.8345,5.6289-5.2827,3.7153-9.7666l-3.9639-9.29-3.3799,1.4424,3.9736,9.313c1.0498,2.4604.4556,4.3174-1.5908,5.1909-2.0464.873-3.8213.0264-4.8711-2.4341l-3.9736-9.313-3.4263,1.4619,3.9639,9.29c1.9233,4.5073,5.3447,5.9014,9.5527,4.1055Z" style="fill:#a9936f;"/><polygon points="134.5436 142.8653 138.1994 142.1466 135.487 128.4395 140.3209 127.4898 139.6852 124.2774 126.3864 126.8907 127.0221 130.1031 131.8312 129.1578 134.5436 142.8653" style="fill:#a9936f;"/><path d="m157.6896,135.8927c-.0381-2.9741-1.5781-4.0991-4.3926-5.2524-2.2612-.9126-3.1172-1.3486-3.1079-2.5986-.0122-.9497.7554-1.5376,1.98-1.5576,1.6494-.0273,2.5625.9575,3.0703,1.624l2.1953-2.3359c-.9922-1.3086-2.583-2.5571-5.457-2.5098-3.3491.0552-5.5972,2.167-5.5605,5.0166.04,3.0991,2.0562,4.3657,4.6689,5.3726,1.9336.6934,2.7173,1.355,2.7329,2.5801.0132,1.0244-.7783,1.7124-2.3525,1.7388-1.8745.0308-2.9409-1.2515-3.4761-2.0181l-2.2178,2.4868c.9419,1.3345,2.6865,2.8804,5.811,2.8291,3.9243-.0649,6.144-2.4263,6.106-5.3755Z" style="fill:#a9936f;"/><path d="m170.6984,139.5914c-2.9746-.5503-4.5977-3.1646-3.9707-6.5322.6133-3.2939,3.0605-5.1045,6.0596-4.5498,1.6963.314,2.8467,1.2388,3.46,2.7251l3.0469-1.7505c-1.0244-2.1475-2.8008-3.6709-5.8975-4.2441-5.1377-.9502-9.4443,1.9658-10.415,7.1772-1.0117,5.4326,1.8096,9.5396,7.0449,10.5083,3.3438.6182,5.5566-.3452,7.2324-1.9678l-2.0801-2.6226c-1.0312,1.0298-2.3174,1.6562-4.4805,1.2563Z" style="fill:#a9936f;"/><polygon points="190.1398 149.1983 193.5587 150.6739 200.3927 134.8282 196.9728 133.3526 194.2394 139.691 188.1124 137.0469 190.8458 130.7086 187.4259 129.233 180.5929 145.0787 184.0119 146.5543 186.7951 140.1011 192.923 142.7452 190.1398 149.1983" style="fill:#a9936f;"/><polygon points="207.7218 160.2276 209.629 157.5347 203.4318 153.1373 205.672 149.9747 210.8908 153.6778 212.6818 151.1485 207.463 147.4454 209.631 144.3848 215.6242 148.6378 217.4884 146.0059 208.4572 139.5977 198.4865 153.6744 207.7218 160.2276" style="fill:#a9936f;"/><path d="m214.006,166.2017l4.2344-3.9995.875.9268-1.5732,6.8164,3.1064,3.2896,1.5449-7.6489c2.1973,1.0884,4.415.8159,6.251-.918,2.6895-2.5405,2.375-5.7856-.7324-9.0752l-3.7246-3.9434-12.5391,11.8442,2.5576,2.708Zm10.1768-9.6133l1.2188,1.2905c1.459,1.5449,1.5586,3.0332.3955,4.1318-1.2539,1.1841-2.7354,1.0361-4.2119-.5269l-1.2188-1.2905,3.8164-3.605Z" style="fill:#a9936f;"/><polygon points="66.7999 264.1793 71.0714 262.2691 73.9069 268.608 76.8834 267.2764 72.5338 257.5523 56.8566 264.5645 58.3707 267.9498 63.9147 265.4703 66.4757 271.1954 69.361 269.9049 66.7999 264.1793" style="fill:#a9936f;"/><path d="m85.2907,279.9322l-8.1821,5.8887c-2.1616,1.5566-4.0957,1.3848-5.3916-.4121-1.2954-1.7964-.8604-3.7041,1.3013-5.2603l8.1821-5.8892-2.1689-3.0078-8.1621,5.8745c-3.9595,2.8501-4.5669,6.4766-1.9033,10.1714,2.7222,3.7744,6.3633,4.3125,10.3027,1.4766l8.1621-5.8745-2.1401-2.9673Z" style="fill:#a9936f;"/><path d="m93.2599,292.5465c1.2109,1.1113,1.1982,2.4512,1.1113,3.2832l3.1792-.1904c.1758-1.6299-.1221-3.626-2.231-5.5615-2.458-2.2549-5.5225-2.2637-7.4395-.1709-2.085,2.2764-1.4922,4.5771-.291,7.0986.9248,1.8281,1.0391,2.8457.2153,3.7451-.6895.7529-1.7305.71-2.8862-.3506-1.3755-1.2627-1.2715-2.9238-1.1353-3.8457l-3.2983.2842c-.2295,1.6133-.0234,3.9316,2.269,6.0352,2.8799,2.6426,6.0942,2.4502,8.0786.2842,2.001-2.1846,1.6558-4.0557.4087-6.8223-1.0117-2.2119-1.333-3.1143-.4736-4.0156.6387-.6973,1.5942-.5977,2.4927.2266Z" style="fill:#a9936f;"/><path d="m107.38,299.2779c-2.8154-1.7871-5.833-1.2559-7.3516,1.1416-1.6519,2.6074-.6636,4.7676.9619,7.0371,1.2314,1.6367,1.5234,2.6182.8706,3.6484-.5464.8623-1.5781,1.0029-2.9019.1631-1.5762-1-1.7656-2.6543-1.7939-3.5859l-3.1968.8604c.0581,1.6289.6689,3.874,3.2954,5.541,3.2988,2.0938,6.4287,1.3389,8.0005-1.1426,1.585-2.502.916-4.2832-.7979-6.7861-1.3848-1.999-1.8594-2.8311-1.1724-3.8691.5063-.7988,1.4639-.8691,2.4937-.2158,1.3867.8809,1.6104,2.2021,1.6709,3.0361l3.0957-.7471c-.1138-1.6348-.7578-3.5479-3.1743-5.0811Z" style="fill:#a9936f;"/><path d="m121.3673,306.8082l-5.2051-2.0664-6.3379,15.9609,5.5518,2.2051c3.8628,1.5332,6.5181.5791,7.5742-2.0811.8359-2.1045-.1069-3.9785-1.6528-4.9404l.0181-.0469c1.6318.1396,3.2109-.5996,4.0283-2.6582,1.0107-2.5449-.2295-4.8848-3.9766-6.373Zm-1.666,12.2197c-.4868,1.2266-1.6411,1.5713-3.376.8818l-1.897-.7529,1.5156-3.8164,1.8735.7432c1.7349.6895,2.3706,1.7188,1.8838,2.9443Zm2.0679-6.623c-.4683,1.1797-1.5859,1.5654-3.1128.959l-1.6655-.6611,1.4697-3.7012,1.6655.6611c1.5732.625,2.1211,1.5391,1.6431,2.7422Z" style="fill:#a9936f;"/><path d="m135.6227,311.0992l.3745,1.6074-8.9199,14.3389,3.8252.6689,1.8086-3.0967,5.9834,1.0469.6431,3.5244,3.9722.6943-3.8125-18.1064-3.8745-.6777Zm-1.3184,10.79l2.7949-4.8193.0488.0078.9814,5.4805-3.8252-.6689Z" style="fill:#a9936f;"/><polygon points="154.1173 326.6724 153.9049 312.8355 150.1964 312.8951 150.4596 330.067 160.4396 329.9078 160.3888 326.5728 154.1173 326.6724" style="fill:#a9936f;"/><polygon points="170.4054 325.1734 167.9445 311.5572 164.2931 312.2144 167.3468 329.1129 177.173 327.3443 176.5802 324.0621 170.4054 325.1734" style="fill:#a9936f;"/><rect x="178.7126" y="316.3269" width="6.4716" height="2.9372" transform="translate(-87.5383 69.8517) rotate(-17.5915)" style="fill:#a9936f;"/><path d="m198.9083,309.522l-.0225-.0439c1.1826-1.1338,1.6709-2.8076.666-4.7822-1.2422-2.4404-3.8174-3.0557-7.4092-1.2246l-4.9883,2.5439,7.791,15.3086,5.3213-2.7129c3.7021-1.8887,4.7402-4.5137,3.4414-7.0654-1.0273-2.0186-3.0566-2.5488-4.7998-2.0234Zm-5.2324,1.1318l-1.8066-3.5498,1.5967-.8135c1.5068-.7695,2.5547-.5771,3.1416.5771.5762,1.1309.1279,2.2256-1.335,2.9727l-1.5967.8135Zm4.9688,5.2627l-1.8184.9277-1.8633-3.6611,1.7959-.916c1.6631-.8477,2.8555-.6455,3.4531.5303.5986,1.1758.0947,2.2715-1.5674,3.1191Z" style="fill:#a9936f;"/><path d="m213.0499,288.901l-2.833,2.3145,6.377,7.8115c1.6855,2.0635,1.6318,4.0049-.084,5.4062-1.7148,1.4014-3.6465,1.082-5.3311-.9814l-6.3779-7.8115-2.8711,2.3467,6.3613,7.792c3.0869,3.7803,6.7441,4.168,10.2715,1.2861,3.6035-2.9443,3.9189-6.6113.8486-10.3721l-6.3613-7.792Z" style="fill:#a9936f;"/><polygon points="223.4806 276.3961 231.8126 282.7906 231.798 282.8101 219.0216 282.2012 216.3214 285.7154 218.4318 285.8287 230.674 295.2232 232.9035 292.3209 224.6105 285.9566 224.6408 285.9176 237.3019 286.5943 239.3341 283.9488 225.7101 273.4937 223.4806 276.3961" style="fill:#a9936f;"/><path d="m242.5382,258.3184c-4.8564-2.188-9.1055-.3345-11.5322,5.043l-2.2725,5.0371,15.6562,7.0542,2.2725-5.0371c2.4268-5.3779.8896-9.8379-4.124-12.0972Zm1.166,10.5454l-.8301,1.8379-9.6426-4.3447.8291-1.8379c1.4131-3.1313,3.9482-4.0913,6.9209-2.752,3.1084,1.4004,4.1455,3.9429,2.7227,7.0967Z" style="fill:#a9936f;"/><path d="m216.5222,234.0297s-12.0908-40.0946-14.0504-46.5233c-1.6777-5.5039-5.9836-5.1518-5.9836-5.1518,0,0-1.418.0703-12.8091-.0618-10.9857-.1145-12.0426,2.6246-4.2311,12.9453,2.4789,3.2761,1.5146,3.7428-4.8393,4.8524-6.3579,1.1006-9.3919-5.1076-9.7616-7.8377-.3697-2.7387-1.7747-12.452-1.9419-12.9277-.4094-1.1624,2.5628-2.0339,4.0115-1.1006,2.6638,1.6994,2.2896,2.2454,2.2896-2.8004,0-5.0549-6.6753-4.6409-6.6753-4.6409-.436-5.3457-8.4143-4.4295-10.9727-4.2622-2.5583.1758-5.1252,2.0344-11.9411,2.0344-6.8119,0-5.6229,8.7444-5.6229,8.7444,0,0,3.166-.9423,5.5742-.8806,2.3825.0618,8.56-.0618,6.6929,3.7251,0,0-4.9448-1.7525-7.2741-1.7525s-7.9166-.0528-9.3125-2.0871c-1.396-2.0344-1.9199-2.6769-1.9199-2.6769,0,0-1.5718,6.393,2.0389,7.036,3.6102.643,7.3354,0,9.079-.1145,1.744-.1231,5.1828-.1231,6.1117,0,.9293.1145-.0618,1.101-1.8671,1.2241-1.8008.1145-5.9354-.1763-4.8258,1.6818,1.1011,1.8671,3.025,2.9149,4.1833,3.144,1.1669.2376,4.3677-.2904,2.9677,3.144l-.7841,2.2896c-.8981,2.6156-3.6941,8.78-10.052,7.6614-6.3583-1.092-7.3137-1.5587-4.8479-4.8258,7.8156-10.3297,6.7673-13.0683-4.227-12.9543-11.3866.1321-12.8046.0532-12.8046.0532,0,0-4.3064-.3526-5.9836,5.1513-1.964,6.4287-17.124,47.1401-17.124,47.1401,0,0-.6781,3.9366,2.6286,5.0372,4.3415,1.4356,5.7551-2.7653,5.7551-2.7653l10.9988-29.1486c.8192.5109,1.6249,1.0127,2.4397,1.4884l-13.7379,38.0959s-1.4045,4.2004,3.0295,5.7505c3.9628,1.3738,5.746-3.5665,5.746-3.5665l13.2271-36.0444c.7043.2994,1.409.5988,2.0957.8806l-13.9313,39.8133s-1.2814,4.2712,2.8356,5.6626c4.1079,1.4,5.7721-3.4876,5.7721-3.4876l13.8258-39.1352c.8238.2205,1.6381.4229,2.4352.6078-.009.0442-.0131.0793-.0131.0793l-7.0274,23.4774s-1.1624,4.0332,2.7914,5.5833c3.9628,1.5496,6.1293-3.7252,6.1293-3.7252l6.4372-20.7212s2.6422,10.7878-2.0168,18.3171c-4.654,7.5293-9.2156,12.558-15.1906,15.3494,0,0,.1587.863,2.3292,1.0041,2.171.1672,2.3247.7133,2.6377,1.092l-3.0912,4.7374s-.4712,1.7084-2.5669.7841c-2.0961-.9338-4.7288-2.3338-4.7288-2.3338,0,0-2.7215-.6871-3.3424.6254l-.6204,1.3206s-3.0999.3084-3.4962,2.0871c-.3832,1.7877.1628,2.0168.1628,2.0168,0,0,1.4045-.9865,2.0123-.6078.8278.4933.1582,1.9902,1.1227,2.3428,1.7349.6249,3.0029-.3436,3.9276-1.1804.6078-.5636,2.0957.0708,2.1665.5375.0789.4667-.6209,1.6993-2.4041,1.9374-1.7832.2376-5.6626.9243-5.4381,2.9501.2024,1.7084.229,1.8581.2377,1.8666-.0217.0352-1.4528,3.1088,1.4752,4.2622,0,0,.4712-1.8581,1.0875-1.8581.6209,0,1.1579,1.0835,2.2499,1.0835,1.0875,0,2.0961-.9338,2.7211-2.7919.6123-1.8666,1.6998-4.3501,1.6998-4.3501,0,0,.7751-.9248,1.2417-.7751.4667.1587.7043,1.0127.546,1.5501-.1542.5546-.4667,1.7873-.546,2.1043-.0748.2998-2.708,3.5669-.6164,5.1256,2.0912,1.5411,1.8626,2.1661,2.3996,2.5448.546.3963,2.7166,1.1624,3.4961.7047,0,0-.9293-1.7084-1.1669-2.0168-.2336-.3084-.1542-.9248,1.3166-.9248,1.4793,0,1.4793-1.8666.5505-3.2671-.9338-1.3914-1.2553-2.7387-1.5587-3.6458-.6032-1.8315,1.0433-2.492,1.7918-.6249.7178,1.8049.423,3.5575,2.0168,3.3023,1.1845-.1849,1.4663-.969,2.0123-.8982.546.0789,2.0826,1.1534,1.2593,3.1435,0,0,3.6282-.5898,2.3951-3.91-.8188-2.2012-1.8229-1.1006-1.1669-3.2581.5063-1.6998-1.0082-2.9501-2.7959-2.8798-1.6732.0703-3.8483-.3787-2.7869-2.4041,1.1137-2.1489,2.6372-4.7288,2.6372-4.7288l2.5538,2.9501s2.4131-6.0499,4.5837-8.771c2.171-2.7125,4.8127-6.0589,6.05-5.3542,1.2417.6957,1.6249,9.4667.6208,13.8871-1.0082,4.4209-4.6585,14.1252-5.5084,15.4463-.854,1.3121,4.8082-.854,5.5084-1.092.6958-.229,2.0961-1.9374,2.3996.7047.3174,2.6331,1.3477,7.6523,3.7473,10.2242l.0572-.0618c2.4086-2.5628,3.5755-7.7583,3.8835-10.4005.3084-2.6327,1.7038-.9243,2.4086-.6957.6912.229,6.3583,2.4045,5.4994,1.0834-.8499-1.3121-4.4953-11.0168-5.4994-15.4372-1.0127-4.4209-.6254-13.2009.6209-13.8966,1.2372-.6957,3.8704,2.6507,6.0454,5.3542,2.171,2.7211,4.5792,8.771,4.5792,8.771l2.5583-2.9501s1.5235,2.5804,2.6422,4.7379c1.0524,2.0168-1.1186,2.4744-2.7919,2.4041-1.7918-.0704-3.3068,1.18-2.7914,2.8708.647,2.1579-.3521,1.0659-1.1669,3.2675-1.2332,3.3199,2.3865,3.9096,2.3865,3.9096-.8233-1.9988.7133-3.0642,1.2593-3.1435.546-.0708.8278.7133,2.0163.8982,1.5944.2466,1.3035-1.5059,2.0213-3.3023.744-1.8671,2.3911-1.2156,1.7832.6249-.3039.9072-.6209,2.2458-1.5542,3.6458-.9293,1.3914-.9293,3.2585.546,3.2585s1.5542.6164,1.3206.9248c-.2376.3169-1.1669,2.0254-1.1669,2.0254.7751.4667,2.9461-.317,3.4961-.7047.542-.3873.3084-1.0037,2.4041-2.5538,2.0916-1.5587-.5501-4.8168-.6209-5.1252-.0834-.317-.3959-1.5497-.546-2.0957-.1538-.546.0748-1.3914.546-1.5501.4626-.1583,1.2377.766,1.2377.766,0,0,1.0875,2.4925,1.7084,4.3506.6163,1.8666,1.6335,2.8004,2.712,2.8004,1.092,0,1.6295-1.092,2.2544-1.092.6209,0,1.0875,1.8671,1.0875,1.8671,2.928-1.1628,1.4929-4.227,1.4753-4.2626.0045-.0086.0307-.1673.2331-1.8666.2245-2.0254-3.6499-2.7211-5.4331-2.9592-1.7877-.229-2.4789-1.4703-2.4086-1.9284.0794-.4757,1.5587-1.1006,2.1751-.546.9248.8364,2.1796,1.8053,3.9186,1.18.9735-.3436.2998-1.8405,1.1272-2.3423.6123-.3697,2.0168.6164,2.0168.6164,0,0,.5375-.2376.1587-2.0168-.3878-1.7873-3.4961-2.0957-3.4961-2.0957l-.6209-1.3211c-.6254-1.3121-3.3333-.6163-3.3333-.6163,0,0-2.6463,1.4004-4.742,2.3247-2.0871.9337-2.5538-.7746-2.5538-.7746l-2.4835-5.3542c.3039-.3878.4622-.9338,2.6331-1.0835,2.1705-.1583,2.3333-1.0127,2.3333-1.0127-5.9791-2.7914-9.0041-6.9039-13.6586-14.4336-4.6585-7.5203-2.0209-18.3081-2.0209-18.3081l6.4417,20.7212s2.1751,5.2749,6.1338,3.7162c3.9538-1.5497,2.7914-5.5833,2.7914-5.5833l-7.1816-24.0586s-.0041-.009-.0131-.0528c.7881-.2024,1.5894-.4315,2.3996-.6781l11.8577,39.4607s1.6647,4.8876,5.7812,3.4875c4.1084-1.3914,2.8315-5.6712,2.8315-5.6712l-12.0561-40.3769c.6871-.2908,1.3738-.6078,2.065-.9333.009.0176.0135.0352.0135.0352l11.3689,36.6251s1.7788,4.9493,5.7415,3.5665c4.434-1.5411,3.0295-5.7415,3.0295-5.7415l-11.9898-38.9503s-.0045,0-.0045-.0086c.766-.4842,1.5366-.969,2.3031-1.4884.2286.2376.2949.5018.2949.5018l9.101,29.5097s1.409,4.1919,5.7596,2.7477c3.3023-1.083,2.6241-5.0197,2.6241-5.0197Zm-121.2096.6781s-.7219,2.3603-2.0826,1.7084c-1.3473-.6515-.3391-2.5975-.3391-2.5975,0,0,10.4749-26.9474,11.5232-29.5715.744.546,1.4969,1.0744,2.2368,1.5848l-11.3383,28.8758Zm8.3882,12.7518s-.6696,2.3775-2.0344,1.7611c-1.3693-.6078-.4094-2.5804-.4094-2.5804,0,0,11.263-31.183,13.0729-36.1408.8057.4225,1.6069.8364,2.3951,1.2241l-13.0242,35.736Zm9.9334,7.2385s-.6384,2.3865-2.0078,1.7792c-1.3738-.5902-.4405-2.5718-.4405-2.5718,0,0,11.4659-32.8647,13.553-38.8002.8499.2994,1.6994.5898,2.5317.854l-13.6365,38.7388Zm17.8369-12.8307s-.528,2.4041-1.9329,1.8671c-1.3955-.546-.5415-2.5538-.5415-2.5538,0,0,5.4597-18.2995,6.9043-23.0725.9158.1763,1.8008.317,2.6593.4401l-7.0892,23.3191Zm19.7923-68.3014c-1.1011-.0527-2.0961-1.1623-2.0961-1.1623,0,0,.5857-1.1011,2.0434-1.0483,1.4527.0618,2.0957,1.0483,2.0957,1.0483,0,0-.9333,1.2241-2.0429,1.1623Zm27.9952,67.6674s.8495,2.0168-.5415,2.5628c-1.4005.528-1.9375-1.8671-1.9375-1.8671l-7.1861-22.967s-.1628-.2904.088-.7309c.7575-.1321,1.537-.2904,2.3427-.4576.4576,1.4,7.2344,23.4598,7.2344,23.4598Zm15.913,12.5665s.8495,2.0168-.5505,2.5628-1.9329-1.8671-1.9329-1.8671l-12.0913-39.1086c.8323-.2818,1.6692-.5902,2.5101-.9162,1.3166,4.2009,12.0647,39.329,12.0647,39.329Zm9.9992-6.9833s.8544,2.0163-.537,2.5624c-1.396.546-1.942-1.8666-1.942-1.8666l-11.3866-36.7752c.7926-.4139,1.5853-.854,2.3865-1.303.7882,2.4744,11.479,37.3826,11.479,37.3826Zm7.6046-10.6291c-1.3873.5456-1.9374-1.8671-1.9374-1.8671l-9.2115-30.0558c.7485-.546,1.5014-1.1186,2.2544-1.7084.0045.0176.013.0262.013.0352.2511.7219,9.4275,31.0333,9.4275,31.0333,0,0,.854,2.0168-.546,2.5628Z" style="fill:#a9936f;"/><polygon points="28.0967 53.7637 4.252 53.7637 23.5318 68.4248 16.1717 92.1257 35.4632 77.4776 54.7542 92.1257 47.3917 68.4248 66.6724 53.7637 42.8318 53.7637 35.4632 30.0642 28.0967 53.7637 28.0967 53.7637" style="fill:#a9936f;"/><polygon points="106.5022 23.6995 82.6575 23.6995 101.9373 38.3606 94.5772 62.0614 113.8687 47.4134 133.1598 62.0614 125.7972 38.3606 145.078 23.6995 121.2373 23.6995 113.8687 0 106.5022 23.6995 106.5022 23.6995" style="fill:#a9936f;"/><polygon points="184.9085 23.6995 161.0638 23.6995 180.3436 38.3606 172.9836 62.0614 192.275 47.4134 211.5661 62.0614 204.2035 38.3606 223.4843 23.6995 199.6436 23.6995 192.275 0 184.9085 23.6995 184.9085 23.6995" style="fill:#a9936f;"/><polygon points="263.3139 53.7637 239.4693 53.7637 258.749 68.4248 251.389 92.1257 270.6804 77.4776 289.9715 92.1257 282.6089 68.4248 301.8897 53.7637 278.049 53.7637 270.6804 30.0642 263.3139 53.7637 263.3139 53.7637" style="fill:#a9936f;"/></g></svg>