<?xml version="1.0" encoding="UTF-8"?>
<svg width="79.499" height="79.499" version="1.2" viewBox="0 0 59.624 59.624" xmlns="http://www.w3.org/2000/svg" xmlns:cc="http://creativecommons.org/ns#" xmlns:dc="http://purl.org/dc/elements/1.1/" xmlns:rdf="http://www.w3.org/1999/02/22-rdf-syntax-ns#" xmlns:xlink="http://www.w3.org/1999/xlink">
 <metadata>
  <rdf:RDF>
   <cc:Work rdf:about="">
    <dc:format>image/svg+xml</dc:format>
    <dc:type rdf:resource="http://purl.org/dc/dcmitype/StillImage"/>
    <dc:title/>
   </cc:Work>
  </rdf:RDF>
 </metadata>
 <defs>
  <clipPath>
   <path d="m0.93359 0.51953h41.668v41.617h-41.668z"/>
  </clipPath>
  <clipPath id="clip32">
   <rect width="43" height="43"/>
  </clipPath>
  <g clip-path="url(#clip32)"></g>
  <clipPath>
   <path d="m0.52734 0.10547h8.5664v8.1445h-8.5664z"/>
  </clipPath>
  <clipPath id="clip35">
   <rect width="10" height="9"/>
  </clipPath>
  <g clip-path="url(#clip35)"></g>
  <clipPath>
   <path d="m0.50391 0.14062h5.7539v5.4727h-5.7539z"/>
  </clipPath>
  <clipPath id="clip38">
   <rect width="7" height="6"/>
  </clipPath>
  <g clip-path="url(#clip38)"></g>
  <clipPath>
   <path d="m0.24219 0.13281h5.7539v5.4688h-5.7539z"/>
  </clipPath>
  <clipPath id="clip40">
   <rect width="6" height="6"/>
  </clipPath>
  <g clip-path="url(#clip40)"></g>
  <clipPath id="clip45">
   <path d="m62.68 104.38h44.852v44.852h-44.852z"/>
  </clipPath>
  <clipPath id="clip46">
   <path d="m62.68 104.38h44.852v44.617h-44.852z"/>
  </clipPath>
  <clipPath>
   <path d="m0.14453 1h29.359v27.832h-29.359z"/>
  </clipPath>
  <clipPath id="clip64">
   <rect width="30" height="29"/>
  </clipPath>
  <g clip-path="url(#clip64)"></g>
 </defs>
 <g transform="matrix(1.2959 0 0 1.2959 -80.36 -134.4)" stroke-width=".77165">
  <g clip-path="url(#clip45)" stroke-width=".77165">
   <path d="m85.105 104.38c12.383 0 22.426 10.043 22.426 22.426 0 12.387-10.043 22.426-22.426 22.426-12.387 0-22.426-10.039-22.426-22.426 0-12.383 10.039-22.426 22.426-22.426" fill="#dcb31e" fill-rule="evenodd"/>
  </g>
  <g clip-path="url(#clip46)" stroke-width=".77165">
   <path d="m85.105 104.67c12.223 0 22.137 9.9102 22.137 22.137 0 12.227-9.9141 22.137-22.137 22.137-12.227 0-22.137-9.9102-22.137-22.137 0-12.227 9.9102-22.137 22.137-22.137" fill="#009c51" fill-rule="evenodd"/>
  </g>
  <g fill="#dcb31e" fill-rule="evenodd">
   <path d="m85.105 109.71c9.4414 0 17.094 7.6524 17.094 17.094 0 9.4453-7.6523 17.098-17.094 17.098-9.4453 0-17.094-7.6523-17.094-17.098 0-9.4414 7.6484-17.094 17.094-17.094"/>
   <path d="m99.492 142.07-0.82813-0.77735 0.05859-0.0625c0.30078 0.13281 0.58203 0.17969 0.84375 0.13281 0.26172-0.043 0.48048-0.16015 0.65235-0.34375 0.16406-0.17578 0.25-0.36718 0.26172-0.57812 8e-3 -0.21094-0.0508-0.42188-0.17969-0.63672-0.13672-0.21094-0.29297-0.40625-0.48047-0.57812-0.22656-0.21094-0.44922-0.3711-0.66797-0.47657s-0.42578-0.13281-0.61719-0.0898c-0.19141 0.043-0.35938 0.14453-0.51172 0.30859-0.05469 0.0586-0.10547 0.1211-0.14453 0.19141-0.04687 0.0703-0.08594 0.15234-0.12109 0.23437l0.49219 0.457c0.08984 0.0859 0.15625 0.13671 0.19531 0.14843 0.03906 0.0117 0.08984 8e-3 0.14844-8e-3 0.05859-0.0234 0.11719-0.0586 0.16797-0.11719l0.05469-0.0586 0.06641 0.0586-1.0664 1.1445-0.06641-0.0625c0.07422-0.0898 0.12109-0.16015 0.13672-0.21093 0.01172-0.0508 0.0078-0.10938-0.01563-0.16407-0.01172-0.0312-0.0625-0.0859-0.14844-0.16796l-0.49219-0.45313c0.07422-0.21484 0.16797-0.41797 0.28906-0.61328 0.11719-0.19531 0.25781-0.38281 0.41797-0.55469 0.21094-0.22265 0.41406-0.38281 0.61328-0.47265 0.19922-0.0898 0.39844-0.14454 0.60156-0.16797 0.20703-0.0195 0.39844-4e-3 0.58203 0.0469 0.23438 0.0703 0.45313 0.19531 0.65235 0.37891 0.35547 0.33203 0.53906 0.73828 0.55078 1.2109 0.0117 0.48046-0.16016 0.90625-0.51172 1.2852-0.10937 0.11719-0.21484 0.21485-0.32031 0.28906-0.0586 0.043-0.16407 0.0977-0.3125 0.17579-0.14844 0.0742-0.23438 0.12109-0.25391 0.14062-0.02734 0.0312-0.04687 0.0703-0.05078 0.12109 0 0.0508 0.02344 0.11719 0.06641 0.20313l-0.0625 0.0664m3.9726-3.1992-0.27734-1.1055 0.10547-0.17578 0.55469 0.67187-0.38282 0.60938m-0.55078-1.543-1.1133-0.69922-0.0312 0.0547c-0.10547 0.17578-0.13281 0.33593-0.0703 0.48047 0.0586 0.14453 0.1875 0.29296 0.38672 0.44921l-0.0469 0.0781-1.4336-0.89453 0.0508-0.0781c0.16406 0.082 0.3125 0.12891 0.44531 0.14063 0.13282 8e-3 0.23828-8e-3 0.3125-0.0586 0.0781-0.0469 0.15625-0.13281 0.23828-0.26562l-0.76953-0.48047c-0.15234-0.0937-0.24609-0.14453-0.28906-0.15234-0.0391-8e-3 -0.082-4e-3 -0.12891 0.0195-0.043 0.0234-0.0859 0.0703-0.13671 0.14844l-0.10157 0.16406c-0.16015 0.2539-0.22656 0.49609-0.20312 0.72265 0.0195 0.23047 0.1289 0.45313 0.33203 0.66797l-0.0469 0.0781-0.79296-0.66797 1.4766-2.3594 0.0742 0.0469-0.0547 0.0898c-0.0508 0.0781-0.0781 0.14844-0.0781 0.21875-4e-3 0.043 0.0117 0.0898 0.043 0.14063 0.0234 0.0352 0.10547 0.0937 0.24219 0.17969l1.7969 1.1211c0.125 0.0781 0.20312 0.125 0.23437 0.13672 0.0547 0.0117 0.10938 0.0117 0.15625-8e-3 0.0703-0.0273 0.13281-0.0859 0.1875-0.17579l0.0547-0.0898 0.0742 0.0469-1.4297 2.2852-0.80469-0.5039 0.0469-0.0781c0.22265 0.0859 0.39843 0.12109 0.52734 0.10156 0.12891-0.0156 0.25391-0.0742 0.375-0.17968 0.0742-0.0586 0.17188-0.19141 0.30078-0.39844l0.17578-0.28125m1.3281-1.9531-1.0117-0.35937 0.0352-0.0898c0.26953 0.0547 0.51171 0.0273 0.73046-0.082 0.21875-0.10937 0.36329-0.26172 0.4375-0.45703 0.0586-0.15234 0.0625-0.28906 0.0156-0.40625s-0.12109-0.19922-0.22656-0.23828c-0.0664-0.0273-0.13282-0.0312-0.19532-0.0234-0.0859 0.0156-0.17968 0.0586-0.28515 0.12891-0.0781 0.0508-0.22266 0.17969-0.44141 0.38281-0.3125 0.28516-0.5664 0.45703-0.76562 0.52344-0.20313 0.0625-0.39844 0.0547-0.59766-0.0195-0.25391-0.0977-0.42969-0.27735-0.53906-0.54297-0.10547-0.26953-0.0977-0.55078 0.0156-0.85156 0.0352-0.0977 0.082-0.17969 0.13282-0.25782 0.0508-0.0781 0.1289-0.16796 0.23046-0.27734 0.0547-0.0586 0.0937-0.11328 0.10938-0.15625 0.0156-0.0391 0.0195-0.0859 4e-3 -0.14062-0.0117-0.0547-0.043-0.10547-0.0937-0.15625l0.0312-0.0781 1.1367 0.43359-0.0352 0.082c-0.34375-0.0586-0.63281-0.0273-0.875 0.0937-0.23828 0.12109-0.39844 0.28906-0.48047 0.5039-0.0625 0.16797-0.0664 0.31641-0.0156 0.44922s0.13672 0.22266 0.25782 0.26563c0.0703 0.0273 0.14843 0.0352 0.22656 0.0273 0.082-0.0156 0.16797-0.0469 0.25781-0.10156 0.0898-0.0547 0.21875-0.16016 0.39063-0.32032 0.23828-0.21875 0.42968-0.37109 0.57031-0.45703 0.14062-0.082 0.28125-0.13281 0.42187-0.15625 0.14063-0.0156 0.28516 0 0.42188 0.0547 0.24219 0.0898 0.41406 0.25781 0.51172 0.5 0.10156 0.23828 0.10156 0.49609-4e-3 0.76172-0.0352 0.0977-0.082 0.1875-0.14453 0.26953-0.043 0.0625-0.10547 0.13672-0.19531 0.21484-0.0859 0.082-0.13672 0.14454-0.15235 0.1836-0.0156 0.0391-0.0117 0.0742 0 0.10547 0.0195 0.0312 0.0664 0.0703 0.14844 0.125l-0.0273 0.0664m0.9375-2.7617-0.85156-0.19531 0.0234-0.082c0.20703-4e-3 0.35938-0.0273 0.46094-0.0664 0.0977-0.043 0.18359-0.10937 0.25781-0.20312 0.043-0.0508 0.0781-0.15234 0.11328-0.29688l0.0547-0.23437-2.4219-0.55859c-0.16016-0.0352-0.26172-0.0508-0.30469-0.043-0.043 0.0117-0.0859 0.0352-0.12891 0.082-0.043 0.043-0.0742 0.10937-0.0977 0.19922l-0.0234 0.10547-0.0859-0.0234 0.37891-1.6406 0.0898 0.0195-0.0273 0.10157c-0.0195 0.0937-0.0195 0.17187 0 0.23437 0.0117 0.043 0.0391 0.082 0.0898 0.11719 0.0312 0.0273 0.125 0.0586 0.28125 0.0937l2.4258 0.55859 0.0508-0.22656c0.0508-0.21094 0.0391-0.375-0.0273-0.49219-0.0937-0.16015-0.25391-0.28515-0.47656-0.375l0.0195-0.0898 0.85156 0.19922-0.65234 2.8164m0.625-5.5976-1.3086-0.0195-4e-3 0.0625c0 0.20312 0.0625 0.35156 0.1875 0.44922 0.1289 0.0898 0.3125 0.15234 0.5625 0.18359v0.0898l-1.6875-0.0312 4e-3 -0.0859c0.1836-0.0156 0.33204-0.0547 0.45313-0.11328 0.12109-0.0586 0.19922-0.12891 0.23828-0.21094 0.043-0.0781 0.0625-0.19531 0.0664-0.34766l-0.90625-0.0195c-0.17578 0-0.28516 4e-3 -0.32422 0.0195-0.0391 0.0156-0.0742 0.043-0.10156 0.082-0.0273 0.0391-0.0391 0.10547-0.0391 0.19922l-4e-3 0.19141c-8e-3 0.30078 0.0586 0.54297 0.19531 0.72656 0.13672 0.18359 0.34375 0.32031 0.62891 0.40234v0.0898l-1.0234-0.16407 0.0508-2.7852 0.0859 4e-3v0.10546c0 0.0937 0.0117 0.16797 0.0469 0.22657 0.0195 0.043 0.0586 0.0742 0.11328 0.0977 0.0352 0.0195 0.13672 0.0273 0.29688 0.0312l2.1172 0.0352c0.14843 4e-3 0.23828 0 0.26953-8e-3 0.0547-0.0117 0.0977-0.043 0.13281-0.082 0.043-0.0625 0.0664-0.14063 0.0703-0.2461v-0.10937h0.0898l-0.0508 2.6992-0.94921-0.0195v-0.0859c0.23437-0.0469 0.40234-0.10547 0.5039-0.1875 0.10156-0.0781 0.17969-0.19532 0.23047-0.34766 0.0312-0.0898 0.0469-0.25391 0.0547-0.5v-0.33203m0.21875-2.0977-0.0859 0.0195c-0.0391-0.11328-0.125-0.20312-0.24219-0.27343-0.0937-0.0508-0.29297-0.10938-0.60547-0.1836l-2.6289-0.62109-0.0156-0.0742 2.3047-1.5742c0.27734-0.1914 0.4375-0.3125 0.48047-0.36719 0.0469-0.0547 0.0625-0.14453 0.0508-0.26953l0.0898-0.0156 0.29297 1.5156-0.0859 0.0156-0.0117-0.0508c-0.0234-0.13672-0.0586-0.22657-0.10547-0.26953-0.0273-0.0312-0.0664-0.043-0.10938-0.0352-0.0312 4e-3 -0.0625 0.0195-0.0977 0.0391-0.0352 0.0195-0.12891 0.082-0.28125 0.1836l-1.4453 0.98437 1.5234 0.34766c0.1836 0.043 0.3086 0.0664 0.36719 0.0742 0.0625 4e-3 0.11328 4e-3 0.15234-4e-3 0.0469-8e-3 0.0859-0.0273 0.11719-0.0625 0.0312-0.0312 0.0508-0.0742 0.0586-0.125 0.0156-0.0703 0.0117-0.16406-0.0117-0.27344l0.0859-0.0156 0.20313 1.0352m-0.76172-6.5c0.0352 0.0859 0.0352 0.16407 0 0.2461-0.0352 0.0781-0.0898 0.13281-0.17188 0.16797-0.082 0.0312-0.16406 0.0312-0.24218-4e-3 -0.082-0.0352-0.13672-0.0898-0.16797-0.17188-0.0352-0.082-0.0352-0.16015 0-0.24218 0.0352-0.0781 0.0898-0.13672 0.17187-0.16797 0.082-0.0352 0.16407-0.0312 0.24219 0 0.082 0.0352 0.13672 0.0937 0.16797 0.17187m0.33594 0.82422c0.0312 0.0859 0.0312 0.16406-4e-3 0.2461-0.0352 0.0781-0.0937 0.13281-0.17187 0.16796-0.082 0.0312-0.16016 0.0312-0.24219-4e-3 -0.082-0.0352-0.13672-0.0898-0.16797-0.17188-0.0312-0.082-0.0312-0.16015 0-0.24218 0.0352-0.0781 0.0937-0.13672 0.17187-0.16797 0.082-0.0352 0.16407-0.0312 0.24219 0 0.082 0.0352 0.13672 0.0937 0.17188 0.17187m-1.1484-8e-3c-0.10938-0.27734-0.33203-0.42578-0.66797-0.45703-0.27734-0.0234-0.62891 0.0547-1.0586 0.22656-0.50782 0.20313-0.84766 0.44531-1.0195 0.72266-0.1211 0.19531-0.13672 0.40234-0.0469 0.6289 0.0625 0.15235 0.15234 0.26172 0.26563 0.33594 0.14453 0.0898 0.33593 0.12891 0.57421 0.12109 0.23438-0.0156 0.51563-0.0859 0.84766-0.21875 0.39453-0.16015 0.67578-0.3164 0.84375-0.47265 0.16406-0.15235 0.26563-0.30078 0.30078-0.44531 0.0352-0.14844 0.0234-0.29297-0.0391-0.44141m0.13281-0.0859c0.20703 0.46875 0.22656 0.91016 0.0547 1.3281-0.17969 0.41797-0.48828 0.71484-0.92969 0.89453-0.38281 0.15234-0.75781 0.17578-1.1367 0.0742-0.5-0.14453-0.85937-0.48047-1.0781-1.0156-0.21485-0.53906-0.19922-1.0273 0.0469-1.4688 0.19141-0.34765 0.48828-0.60156 0.88282-0.76172 0.44531-0.17968 0.875-0.17578 1.293 4e-3 0.41797 0.18359 0.70704 0.49609 0.86719 0.94531m-1.1992-2.5078-3.582 0.0703 0.33203 0.51172c0.15625 0.24219 0.28516 0.40234 0.37891 0.48047 0.14844 0.12891 0.32812 0.20703 0.52734 0.23828 0.20313 0.0312 0.42578 0 0.67188-0.0977l0.0469 0.0781-1.0469 0.52344-1.6055-2.4766 3.5859-0.0664-0.25782-0.39844c-0.10156-0.15625-0.17187-0.25781-0.21484-0.30078-0.0781-0.082-0.16797-0.14844-0.27344-0.19531-0.10156-0.0469-0.21484-0.0703-0.33593-0.0703-0.1211 4e-3 -0.25391 0.0273-0.40235 0.082l-0.0508-0.0703 0.83984-0.4414 1.3867 2.1328m-2.2422-3.375-0.75391 0.76562-0.0664-0.0703c0.16016-0.22265 0.23828-0.45312 0.23047-0.69531-8e-3 -0.24609-0.082-0.44141-0.22656-0.58984-0.11328-0.11719-0.23438-0.17969-0.35937-0.1875-0.12891-8e-3 -0.23438 0.0273-0.3125 0.10546-0.05469 0.0508-0.08594 0.10547-0.10156 0.16797-0.02344 0.0859-0.02734 0.19141-0.0078 0.3125 0.01563 0.0898 0.06641 0.27735 0.16016 0.5625 0.125 0.40235 0.17578 0.70703 0.15234 0.91407-0.02734 0.20703-0.12109 0.38671-0.27344 0.53515-0.19531 0.1875-0.43359 0.26953-0.71875 0.25391-0.28516-0.0156-0.54297-0.14063-0.76562-0.3711-0.07031-0.0742-0.12891-0.14843-0.17578-0.23046-0.04687-0.0781-0.10156-0.1875-0.15234-0.32422-0.03125-0.0781-0.0625-0.13282-0.09766-0.16797-0.02734-0.0312-0.07031-0.0508-0.125-0.0586-0.05469-0.0117-0.11328-8e-3 -0.17969 0.0195l-0.0625-0.0625 0.875-0.84766 0.0625 0.0625c-0.19922 0.28906-0.29297 0.56641-0.28516 0.83594 0.01172 0.26562 0.09375 0.48437 0.25391 0.64843 0.12109 0.125 0.25781 0.19532 0.39844 0.20313 0.14062 0.0117 0.26172-0.0312 0.35156-0.12109 0.05469-0.0508 0.09375-0.11719 0.11719-0.19532 0.02344-0.0781 0.02734-0.16797 0.01953-0.27343-0.01172-0.10547-0.05469-0.26563-0.125-0.48829-0.09766-0.3125-0.16016-0.54687-0.17188-0.71093-0.01953-0.16407-0.0039-0.3125 0.03906-0.44922 0.03906-0.13672 0.11328-0.25781 0.22266-0.36328 0.18359-0.17578 0.41016-0.26172 0.66797-0.25 0.26172 0.0117 0.4922 0.12109 0.69142 0.32422 0.0742 0.0742 0.13281 0.15625 0.18359 0.24609 0.0391 0.0664 0.0781 0.15625 0.11328 0.26953 0.0352 0.11328 0.0703 0.18359 0.10156 0.21484 0.0273 0.0312 0.0586 0.043 0.0937 0.043 0.0352 0 0.0937-0.0273 0.17578-0.0781l0.0508 0.0508m-3.5234-4.5547-1.1055 0.28516-0.17188-0.10938 0.67188-0.55078 0.60547 0.375m-1.242 0.64916c-0.25-0.15625-0.51953-0.14844-0.80859 0.0273-0.23828 0.14063-0.48047 0.41016-0.72266 0.80078-0.29297 0.46875-0.42578 0.86329-0.40234 1.1875 0.01563 0.23047 0.12891 0.40625 0.33203 0.53516 0.14062 0.0859 0.27734 0.125 0.41016 0.11719 0.17188-0.0117 0.35156-0.0937 0.53516-0.24219 0.18359-0.14844 0.37109-0.37109 0.55859-0.67578 0.22656-0.36328 0.36328-0.65234 0.40625-0.875 0.04687-0.21875 0.03906-0.39844-0.01953-0.53906-0.05859-0.14063-0.15234-0.25-0.28906-0.33594m0.05469-0.14453c0.44531 0.2539 0.72266 0.60547 0.82422 1.043 0.10156 0.4414 0.02734 0.86328-0.22656 1.2695-0.21484 0.34765-0.50781 0.58984-0.875 0.72656-0.48828 0.17969-0.97656 0.11719-1.4648-0.1875-0.49219-0.30859-0.76953-0.71094-0.82812-1.2148-0.04687-0.39453 0.03906-0.77344 0.26562-1.1367 0.25391-0.40235 0.60547-0.65625 1.0508-0.75391 0.44141-0.0977 0.85938-0.0117 1.2539 0.25391m-2.5039-1.4609-0.40234 1.0625-0.08594-0.0312c0.01172-0.33203-0.05078-0.60547-0.19141-0.83594-0.14062-0.22656-0.32812-0.38281-0.5625-0.47656-0.22656-0.0859-0.4375-0.0937-0.63281-0.0234-0.19922 0.0703-0.37109 0.20703-0.51953 0.40625-0.15234 0.20313-0.27344 0.42578-0.36328 0.66016-0.10938 0.28906-0.17578 0.55469-0.1875 0.80078-0.01563 0.24219 0.03125 0.44141 0.14453 0.60547 0.11328 0.16016 0.27344 0.28125 0.48047 0.35937 0.07422 0.0273 0.14844 0.0508 0.23438 0.0625 0.08203 0.0117 0.16797 0.0195 0.25781 0.0234l0.24219-0.6289c0.04297-0.11719 0.06641-0.19532 0.0625-0.23829-0.0039-0.0391-0.02344-0.0859-0.0625-0.13281-0.04297-0.0469-0.09766-0.0859-0.17188-0.11328l-0.07813-0.0312 0.03125-0.0781 1.4609 0.55859-0.03125 0.082c-0.11328-0.0352-0.19531-0.0508-0.24609-0.043-0.05469 8e-3 -0.10156 0.0312-0.14844 0.0781-0.01953 0.0195-0.05469 0.0859-0.09766 0.19531l-0.23828 0.62891c-0.22656 0.0117-0.44922 0-0.67578-0.0391-0.22266-0.0352-0.44922-0.0977-0.67188-0.18359-0.28516-0.10547-0.50781-0.23828-0.66406-0.38672-0.16016-0.15234-0.28906-0.31641-0.38281-0.5-0.09766-0.17969-0.15625-0.36719-0.17578-0.55469-0.02344-0.24609 0.01172-0.49218 0.10938-0.74609 0.17188-0.45313 0.48047-0.77344 0.91406-0.96094 0.44141-0.1914 0.89844-0.19531 1.3789-0.0117 0.15234 0.0586 0.28125 0.1211 0.39453 0.19141 0.05859 0.0391 0.15234 0.10937 0.27734 0.22266 0.12109 0.10937 0.19922 0.17187 0.22656 0.18359 0.03906 0.0156 0.08203 0.0156 0.13281-4e-3 0.04687-0.0156 0.09766-0.0625 0.16406-0.13281l0.07813 0.0312m-7.1562-1.8633 1.6367 0.28906-0.01563 0.0859-0.08203-0.0156c-0.12109-0.0195-0.20703-0.0234-0.25781-4e-3 -0.05469 0.0156-0.08984 0.0469-0.11719 0.0898-0.02734 0.0391-0.05859 0.15235-0.08984 0.33203l-0.27344 1.5547c-0.05078 0.28516-0.0625 0.47656-0.03516 0.57422 0.02734 0.10156 0.08203 0.1875 0.17188 0.26562 0.08594 0.082 0.20312 0.13282 0.35547 0.16016 0.17188 0.0273 0.32422 0.0156 0.46094-0.0391 0.13281-0.0586 0.24219-0.14844 0.32422-0.27344 0.08594-0.125 0.15625-0.35547 0.21484-0.69141l0.23047-1.2969c0.02344-0.14063 0.02734-0.24219 0.0078-0.30859-0.01953-0.0664-0.04687-0.11719-0.08984-0.14844-0.0625-0.0469-0.16016-0.082-0.28906-0.10547l0.01563-0.0859 1.0977 0.19141-0.01563 0.0898-0.06641-0.0117c-0.08594-0.0156-0.16406-0.0117-0.23047 0.0117-0.06641 0.0273-0.11719 0.0703-0.15625 0.14063-0.02734 0.0469-0.05469 0.13281-0.07813 0.26562l-0.21094 1.2031c-0.06641 0.37109-0.13672 0.63672-0.21484 0.79297-0.07813 0.15625-0.22656 0.28906-0.44141 0.39453s-0.48828 0.1289-0.81641 0.0703c-0.27344-0.0469-0.48047-0.125-0.61719-0.22266-0.1875-0.13672-0.30859-0.28906-0.36328-0.46093-0.05859-0.17188-0.0625-0.38672-0.01563-0.65235l0.27344-1.5508c0.03125-0.18359 0.03906-0.30078 0.02734-0.34766-0.01172-0.0469-0.03906-0.0898-0.08594-0.125-0.04297-0.0352-0.13281-0.0625-0.26953-0.0859l0.01563-0.0859m-2.9492 0.22656 0.02734 1.4141 0.13672-4e-3c0.21875-4e-3 0.38281-0.0273 0.49219-0.0664 0.10938-0.0469 0.19141-0.11719 0.25391-0.22656 0.05859-0.10547 0.08984-0.24219 0.08594-0.41016-0.0039-0.25-0.06641-0.42968-0.17969-0.54297-0.11719-0.11718-0.30469-0.17187-0.55859-0.16796l-0.25781 4e-3m0.03125 1.582 0.01563 0.90235c0.0039 0.17578 0.01562 0.28515 0.03516 0.32812 0.02344 0.043 0.0625 0.082 0.11719 0.10547 0.05469 0.0273 0.15625 0.0391 0.30469 0.0352v0.0898l-1.6484 0.0273-0.0039-0.0859c0.14844-4e-3 0.25-0.0195 0.30078-0.0469 0.05469-0.0312 0.08984-0.0664 0.11328-0.11328 0.01953-0.043 0.02734-0.15234 0.02344-0.32812l-0.03516-2.0898c-0.0039-0.17187-0.01563-0.28125-0.03906-0.32812-0.01953-0.043-0.05859-0.082-0.11328-0.10547-0.05469-0.0273-0.15625-0.0391-0.30469-0.0352v-0.0859l1.4961-0.0312c0.39062-4e-3 0.67578 0.0156 0.85938 0.0703 0.17969 0.0469 0.32812 0.14843 0.44531 0.28906 0.11719 0.14453 0.17578 0.3125 0.17969 0.50391 0.0039 0.23828-0.07813 0.4375-0.24609 0.59765-0.10937 0.0977-0.25781 0.17578-0.45312 0.22656l0.79297 1.0781c0.10156 0.14062 0.17578 0.22656 0.21875 0.25781 0.06641 0.0508 0.14453 0.0742 0.23047 0.0781v0.0859l-1.0156 0.0195-1.0625-1.4492-0.21094 4e-3m-3.0391 0.86328-0.71484-0.97265-0.23047 1.1953 0.94531-0.22266m0.12109 0.15235-1.1094 0.25781-0.0625 0.33594c-0.01953 0.11328-0.01953 0.19922-0.0078 0.26562 0.02344 0.0898 0.07031 0.14453 0.15234 0.17188 0.04687 0.0156 0.15625 8e-3 0.32031-0.0156l0.01953 0.0859-1.043 0.24219-0.01953-0.0898c0.10938-0.0391 0.19141-0.10937 0.24609-0.19921 0.05469-0.0937 0.10937-0.27344 0.16016-0.53907l0.54297-2.7656 0.04688-8e-3 1.7227 2.3164c0.16406 0.21485 0.28906 0.34766 0.375 0.39844 0.0625 0.0352 0.14453 0.043 0.24219 0.0312l0.01953 0.082-1.5195 0.35156-0.01953-0.0859 0.0625-0.0117c0.12109-0.0273 0.20312-0.0664 0.24609-0.11328 0.02344-0.0312 0.03516-0.0703 0.02344-0.11719-0.0039-0.0273-0.01563-0.0547-0.03125-0.082-0.0078-0.0117-0.04297-0.0664-0.10938-0.15625l-0.25781-0.35547m-5.043-0.44531 1.0195 2.3008c0.05859 0.12109 0.09375 0.1914 0.11719 0.21484 0.02344 0.0195 0.05469 0.0352 0.08594 0.0352 0.05078 8e-3 0.11328-8e-3 0.1875-0.0391 0.23828-0.10937 0.38672-0.27343 0.44141-0.49609 0.07422-0.30078 0.0078-0.6875-0.20313-1.1562-0.16797-0.375-0.35937-0.64844-0.58203-0.82422-0.17188-0.13281-0.34375-0.19922-0.51953-0.19531-0.125 0-0.30469 0.0547-0.54688 0.16016m0.10937 3.2778-0.03125-0.0781 0.09766-0.043c0.08594-0.0391 0.14453-0.082 0.17578-0.12891 0.03516-0.0469 0.05078-0.0977 0.05078-0.15234 0-0.0391-0.03125-0.13282-0.09766-0.28516l-0.86328-1.9375c-0.06641-0.14844-0.11719-0.23828-0.14844-0.26953-0.03516-0.0312-0.08203-0.0469-0.14062-0.0547-0.0625-8e-3 -0.13672 8e-3 -0.21875 0.043l-0.09766 0.043-0.03516-0.0781 1.3203-0.58593c0.35156-0.16016 0.65625-0.23438 0.91016-0.23438 0.3125 0 0.59375 0.0859 0.83203 0.26563 0.24219 0.17578 0.42969 0.41406 0.5625 0.71484 0.09375 0.20703 0.14453 0.41016 0.15625 0.61719 0.01172 0.20312-0.01172 0.38672-0.06641 0.54297-0.05469 0.16406-0.13672 0.30859-0.24609 0.4375-0.10547 0.13281-0.25391 0.25781-0.43359 0.38671-0.08203 0.0547-0.21484 0.12891-0.40625 0.21094l-1.3203 0.58587m-2.5117-0.0742 0.58984 0.84766 0.06641 0.0977c0.05078 0.0742 0.10156 0.11328 0.16406 0.125 0.0625 8e-3 0.125-8e-3 0.19531-0.0586 0.10547-0.0742 0.18359-0.16016 0.23828-0.26953 0.05859-0.10547 0.07812-0.22266 0.0625-0.34375-0.01563-0.1211-0.05859-0.23438-0.13672-0.33985-0.08594-0.125-0.19141-0.21484-0.31641-0.27343-0.125-0.0586-0.25391-0.0703-0.37891-0.0391s-0.28906 0.11719-0.48438 0.25391m-0.10938-0.14844c0.18359-0.1289 0.30469-0.24609 0.36328-0.35156 0.05859-0.10156 0.08594-0.20312 0.08203-0.3125-0.0078-0.10937-0.05469-0.21875-0.13281-0.33594-0.08203-0.11718-0.17188-0.19922-0.27344-0.24218-0.09766-0.043-0.19922-0.0508-0.31641-0.0312-0.10937 0.0195-0.26172 0.0977-0.44922 0.23437l0.72656 1.0391m0.74609-0.44539c0.28906-0.11719 0.51562-0.16797 0.67578-0.15625 0.22656 0.0156 0.40625 0.11719 0.53906 0.30469 0.13672 0.19922 0.17578 0.42187 0.10547 0.66015-0.08594 0.29688-0.31641 0.57422-0.69141 0.83594l-1.3398 0.9375-0.05078-0.0703c0.125-0.0859 0.19922-0.15625 0.22656-0.20703 0.02734-0.0547 0.03516-0.10547 0.02734-0.15235-0.0078-0.0508-0.0625-0.14453-0.16016-0.28906l-1.1992-1.7109c-0.10156-0.14453-0.17187-0.23046-0.21484-0.25-0.04687-0.0273-0.09766-0.0352-0.15625-0.0273-0.05859 8e-3 -0.14844 0.0586-0.26953 0.14063l-0.05078-0.0703 1.2656-0.88672c0.30469-0.21093 0.53516-0.33593 0.69922-0.37109 0.16406-0.0312 0.32031-0.0234 0.46484 0.0352 0.14844 0.0547 0.26562 0.14453 0.35156 0.26562 0.08594 0.125 0.12109 0.26953 0.09766 0.4336-0.02344 0.16406-0.12891 0.35937-0.32031 0.57812m-2.625 3.0664-1.1328-0.42969 0.45312 1.1289 0.67968-0.69933m0.18359 0.0625-0.79297 0.8164 0.13281 0.31641c0.04297 0.10547 0.08984 0.17969 0.14062 0.22656 0.06641 0.0625 0.14063 0.082 0.21875 0.0586 0.04688-0.0117 0.13672-0.0742 0.26172-0.1836l0.0625 0.0586-0.74219 0.76953-0.06641-0.0586c0.07031-0.0977 0.10156-0.19531 0.09375-0.30468-0.0039-0.10938-0.05469-0.28907-0.15625-0.53516l-1.0508-2.6172 0.03516-0.0312 2.707 1c0.25391 0.0937 0.42969 0.13672 0.52734 0.13281 0.07422-4e-3 0.14844-0.043 0.22266-0.10546l0.0625 0.0625-1.082 1.1172-0.0625-0.0586 0.04297-0.0469c0.08594-0.0898 0.13672-0.16796 0.14453-0.22656 0.0078-0.043-0.0078-0.0781-0.04297-0.11328-0.01953-0.0195-0.04297-0.0352-0.07422-0.0508-0.01172-8e-3 -0.07031-0.0312-0.17578-0.0703l-0.40625-0.15625m-1.7617 1.6719 0.88672 0.71875-1.5625 2.3984-0.07031-0.0469 0.05859-0.0898c0.04687-0.0781 0.07813-0.14844 0.07813-0.21484 0.0039-0.0469-0.0078-0.0977-0.04297-0.14453-0.02344-0.0312-0.10156-0.0937-0.23828-0.1836l-1.7773-1.1523c-0.13672-0.0937-0.22656-0.14063-0.27344-0.14844-0.04297-8e-3 -0.09375 4e-3 -0.14453 0.0312-0.05859 0.0273-0.10938 0.0781-0.15625 0.15625l-0.0625 0.0859-0.07031-0.0469 0.93359-1.4414 0.07422 0.0508-0.07422 0.11719c-0.05469 0.0781-0.07813 0.14843-0.08203 0.21484-0.0039 0.0469 0.0078 0.0937 0.04297 0.14453 0.02344 0.0352 0.10156 0.0977 0.23438 0.18359l1.7227 1.1172c0.13672 0.0898 0.23437 0.14063 0.28125 0.14844 0.04687 8e-3 0.09375-4e-3 0.14453-0.0391 0.03516-0.0234 0.08984-0.10157 0.17188-0.22657l0.14844-0.22656c0.09375-0.14453 0.14453-0.28125 0.16016-0.40625 0.01172-0.1289-0.01953-0.26562-0.08203-0.40625-0.0625-0.14062-0.17969-0.3125-0.35156-0.51172l0.05078-0.082m-4.7656 5.6367 1.3555 0.39063 0.03516-0.13282c0.0625-0.21093 0.08984-0.375 0.07813-0.49218-0.0078-0.11719-0.05469-0.21875-0.13672-0.30469-0.08594-0.0898-0.21094-0.16016-0.37109-0.20703-0.23828-0.0664-0.42578-0.0625-0.57031 0.0156s-0.25391 0.24219-0.32422 0.48438l-0.06641 0.24609m1.5156 0.43359 0.87109 0.25c0.16797 0.0469 0.27344 0.0703 0.32422 0.0625 0.04687-0.0117 0.09375-0.0352 0.13281-0.0781 0.04297-0.0469 0.08203-0.14063 0.12109-0.28125l0.08594 0.0234-0.45312 1.5859-0.08594-0.0234c0.04297-0.14453 0.05469-0.2461 0.04297-0.30469-0.01172-0.0586-0.03516-0.10156-0.07031-0.13672-0.03906-0.0312-0.14062-0.0703-0.30859-0.12109l-2.0117-0.57422c-0.16406-0.0469-0.27344-0.0703-0.32422-0.0625-0.04687 8e-3 -0.09375 0.0352-0.13281 0.082-0.04297 0.043-0.08203 0.13281-0.12109 0.27734l-0.08594-0.0234 0.41016-1.4414c0.10938-0.37109 0.21484-0.64063 0.31641-0.79688 0.10156-0.16015 0.23438-0.27343 0.40625-0.34375 0.17188-0.0703 0.35156-0.0781 0.53906-0.0234 0.22656 0.0625 0.39453 0.19922 0.49609 0.40625 0.0625 0.13281 0.09375 0.30078 0.08594 0.5039l1.2617-0.44531c0.16016-0.0586 0.26562-0.10547 0.3125-0.13281 0.06641-0.0508 0.11328-0.11719 0.14062-0.19922l0.08594 0.0273-0.28125 0.97266-1.6992 0.59375-0.05859 0.20312m-0.21484 3.1211-1.1445 0.38281 1.0586 0.58984 0.08594-0.97265m0.18359-0.0664-0.10156 1.1367 0.30469 0.16406c0.09766 0.0508 0.18359 0.082 0.25 0.0859 0.08984 8e-3 0.16016-0.0234 0.20703-0.0937 0.02734-0.0391 0.05859-0.14062 0.08594-0.30859l0.08984 8e-3 -0.09766 1.0703-0.08594-8e-3c-0.0078-0.11719-0.04687-0.21484-0.11719-0.29688-0.07422-0.082-0.22656-0.1875-0.46094-0.32031l-2.4609-1.3711 0.0039-0.043 2.7344-0.92969c0.25781-0.0859 0.42187-0.16406 0.49609-0.23047 0.05078-0.0508 0.08594-0.12109 0.10156-0.21875l0.08984 8e-3 -0.13672 1.5508-0.08984-4e-3 0.0078-0.0664c0.01172-0.125 0.0039-0.21484-0.03125-0.26562-0.01953-0.0391-0.05469-0.0586-0.10547-0.0625-0.02344-4e-3 -0.05469 0-0.08594 4e-3 -0.01563 4e-3 -0.07813 0.0195-0.18359 0.0586l-0.41406 0.13281m-2.4805 1.9375 0.08984-8e-3c0.02344 0.10547 0.05859 0.1875 0.10938 0.23828 0.07422 0.0742 0.26172 0.1875 0.57031 0.33984l1.2148 0.61329 0.77344-0.0547c0.16797-0.0117 0.26953-0.0273 0.30859-0.0469 0.03906-0.0195 0.07422-0.0586 0.09766-0.10937 0.03125-0.0547 0.03906-0.125 0.03516-0.21094l-0.01172-0.17969 0.08594-4e-3 0.125 1.8008-0.08594 8e-3 -0.01172-0.16797c-0.0078-0.0937-0.03125-0.17187-0.06641-0.22266-0.02344-0.0391-0.06641-0.0664-0.12109-0.0859-0.03906-0.0195-0.13672-0.0195-0.30078-8e-3l-0.64453 0.043-1.3242 0.85547c-0.26172 0.16797-0.41406 0.28516-0.45703 0.35156-0.04297 0.0625-0.0625 0.14844-0.05469 0.25l-0.08984 8e-3 -0.10938-1.5391 0.08984-8e-3 0.0039 0.0664c0.0078 0.0937 0.02344 0.16015 0.05469 0.19531 0.03125 0.0352 0.05859 0.0508 0.08984 0.0469 0.05469-4e-3 0.19531-0.0742 0.41406-0.21875l1.0234-0.65625-1.0117-0.50782c-0.24609-0.1289-0.40625-0.1875-0.48438-0.18359-0.04297 4e-3 -0.07813 0.0273-0.10156 0.0664-0.03906 0.0586-0.05078 0.16015-0.05078 0.30468l-0.08984 4e-3 -0.07031-0.98047m0.4375 4.4844 1.0977-0.28907 0.02344 0.082c-0.27344 0.1836-0.46094 0.39844-0.55859 0.64454-0.10156 0.24609-0.12109 0.49218-0.05469 0.73437 0.05859 0.23438 0.17969 0.41016 0.35156 0.52734 0.17188 0.1211 0.38281 0.17969 0.63281 0.1836 0.25391 0 0.5-0.0312 0.75-0.0977 0.29688-0.082 0.54688-0.18359 0.75391-0.3164 0.20703-0.12891 0.33984-0.28907 0.40234-0.47266 0.06641-0.18359 0.07031-0.38672 0.01172-0.60156-0.01953-0.0742-0.05078-0.15235-0.08594-0.22266-0.03516-0.0742-0.08203-0.15234-0.13672-0.22266l-0.64453 0.16797c-0.12109 0.0352-0.20312 0.0664-0.23047 0.0937-0.03125 0.0234-0.05469 0.0703-0.07031 0.12891-0.01563 0.0586-0.01563 0.12891 0.0078 0.20703l0.01953 0.0742-0.08594 0.0273-0.40234-1.5156 0.08594-0.0195c0.03516 0.10937 0.07422 0.1875 0.10938 0.22656 0.03516 0.0352 0.08203 0.0625 0.14844 0.0703 0.03125 8e-3 0.10156-8e-3 0.21484-0.0352l0.64844-0.17579c0.14453 0.17579 0.26562 0.36329 0.36719 0.57032 0.10547 0.20312 0.1875 0.41797 0.25 0.65234 0.07813 0.29297 0.10547 0.55078 0.07422 0.76563-0.02734 0.21484-0.08594 0.41796-0.17969 0.60156-0.08984 0.18359-0.20312 0.33984-0.34766 0.46875-0.17969 0.16406-0.40234 0.28125-0.66406 0.35156-0.46875 0.12109-0.90625 0.0664-1.3203-0.17578-0.41016-0.24609-0.68359-0.61328-0.81641-1.1133-0.03906-0.15625-0.06641-0.29688-0.07422-0.42969-0.0078-0.0703 0-0.1875 0.01563-0.35547 0.01563-0.16406 0.02344-0.26172 0.01563-0.28906-0.01172-0.043-0.03906-0.0781-0.08203-0.10547-0.03906-0.0273-0.10547-0.0469-0.20312-0.0508l-0.02344-0.0898m3.8906 4.2734-0.77344 0.92969 1.2148-0.0625-0.44141-0.86719m0.11719-0.15234 0.51953 1.0117 0.33984-0.0195c0.11328-8e-3 0.19922-0.0273 0.26172-0.0625 0.08203-0.0391 0.125-0.10157 0.12891-0.1875 0.0039-0.0469-0.03125-0.14844-0.09375-0.30469l0.07813-0.0391 0.48828 0.95312-0.07813 0.0391c-0.07031-0.0937-0.15625-0.15625-0.25781-0.1875-0.10547-0.0312-0.28906-0.0391-0.55859-0.0234l-2.8164 0.14062-0.01953-0.043 1.8281-2.2344c0.17188-0.21485 0.26953-0.36328 0.29688-0.45703 0.01953-0.0703 0.0078-0.15235-0.02734-0.24219l0.07813-0.0391 0.70703 1.3867-0.07813 0.0391-0.02734-0.0547c-0.05859-0.11328-0.11328-0.18359-0.16797-0.21094-0.03906-0.0234-0.07813-0.0195-0.12109 4e-3 -0.02734 0.0117-0.05078 0.0273-0.07031 0.0508-0.01563 8e-3 -0.05469 0.0547-0.12891 0.14453l-0.28125 0.33594m2.4062 3.8203-2.1914 0.69531-0.83984-1.0078 0.06641-0.0547 0.06641 0.0781c0.0625 0.0742 0.12109 0.12109 0.18359 0.14453 0.04297 0.0156 0.09375 0.0156 0.14844 0 0.03906-0.0117 0.12109-0.0664 0.24219-0.16797l1.6289-1.3672c0.125-0.10546 0.19922-0.17968 0.21875-0.21875 0.01953-0.0391 0.02344-0.0898 0.01563-0.15234-0.01172-0.0625-0.04687-0.125-0.10547-0.19531l-0.06641-0.0781 0.06641-0.0586 1.082 1.2891-0.06641 0.0547-0.06641-0.0781c-0.0625-0.0742-0.125-0.12109-0.1875-0.14453-0.03906-0.0156-0.08984-0.0156-0.14844 4e-3 -0.03906 8e-3 -0.12109 0.0664-0.24219 0.17187l-1.832 1.5352 3.0469-0.94531 0.03516 0.0469-1.4258 2.8359 1.7344-1.4609c0.12109-0.0977 0.19531-0.16797 0.21875-0.19531 0.04687-0.0664 0.06641-0.14453 0.05859-0.22656-0.0039-0.0859-0.05469-0.1836-0.14844-0.29688l0.06641-0.0586 0.70703 0.84766-0.06641 0.0547-0.01953-0.0234c-0.04687-0.0586-0.09766-0.10157-0.15625-0.13282-0.05469-0.0312-0.11328-0.0469-0.16406-0.043-0.05078 0-0.10938 0.0195-0.17969 0.0547-0.01563 8e-3 -0.07813 0.0586-0.1875 0.15235l-1.5664 1.3086c-0.12109 0.10547-0.19531 0.17969-0.21484 0.21484-0.01953 0.043-0.02344 0.0937-0.01172 0.15235 0.01172 0.0625 0.04297 0.1289 0.10156 0.19531l0.06641 0.0781-0.06641 0.0586-0.84766-1.0078 1.0469-2.0586"/>
   <path d="m89.488 148.07-0.04687-0.20704 0.35547-0.12109c0.14062-0.0469 0.23438-0.11719 0.27344-0.20312 0.03906-0.0898 0.03516-0.2461-0.01172-0.46875l-0.375-1.7578c-0.03516-0.17578-0.08594-0.28125-0.14453-0.3164-0.05859-0.0352-0.19922-0.0234-0.42187 0.0391-0.08203 0.0273-0.14844 0.0469-0.19141 0.0586-0.03906 0.0117-0.07813 0.0273-0.11719 0.0391l-0.03906-0.1836c0.30469-0.1289 0.59375-0.28515 0.85547-0.47265 0.26562-0.1836 0.51562-0.40235 0.75391-0.65625l0.65625 3.082c0.03516 0.16797 0.07813 0.27343 0.13281 0.3164 0.05078 0.0391 0.13672 0.0508 0.25391 0.0273l0.41406-0.0781 0.04297 0.20313-2.3906 0.69922m-2.8477-3.1094c-0.17578 0.0117-0.30078 0.14453-0.37109 0.39844-0.06641 0.25-0.08984 0.63281-0.05859 1.1406 0.03125 0.51563 0.09766 0.88672 0.19531 1.1211 0.09766 0.23828 0.23438 0.34765 0.41406 0.33593 0.17969-0.0195 0.30078-0.14843 0.36719-0.39453 0.07031-0.24609 0.08984-0.6289 0.05859-1.1484-0.03125-0.51172-0.09375-0.88672-0.19531-1.125-0.09766-0.23438-0.23438-0.34375-0.41016-0.32813m-0.02734-0.47656c0.4375-0.0352 0.80078 0.11719 1.0938 0.46094 0.29297 0.33984 0.45703 0.80468 0.49219 1.3906 0.03516 0.58594-0.07422 1.0742-0.32031 1.4609-0.25 0.38281-0.59375 0.59375-1.0312 0.6289-0.43359 0.0352-0.80078-0.11718-1.0977-0.45703-0.29297-0.34375-0.46094-0.80468-0.49609-1.3906-0.03516-0.58594 0.07422-1.0742 0.32422-1.4609 0.25391-0.38672 0.59766-0.59766 1.0352-0.63281m-2.9648 1.3086c0.01562-0.24609-0.02344-0.45312-0.10938-0.61719-0.08594-0.16796-0.20312-0.25781-0.35547-0.26953-0.14844-0.0117-0.27344 0.0547-0.38281 0.20313-0.10547 0.14453-0.16406 0.33984-0.17969 0.57812-0.01563 0.25391 0.01953 0.46485 0.10938 0.63282 0.08984 0.16796 0.20312 0.2539 0.35547 0.26562 0.15234 0.0117 0.27734-0.0547 0.38281-0.20312 0.10547-0.14844 0.16406-0.34375 0.17969-0.58985m0.04297 0.89844c-0.13281 0.13281-0.27734 0.23047-0.4375 0.28906-0.16016 0.0625-0.33203 0.082-0.51953 0.0664-0.32812-0.0234-0.58984-0.16016-0.78906-0.41016-0.19922-0.24219-0.28906-0.54297-0.26562-0.89844 0.02344-0.40234 0.17578-0.73046 0.45703-0.97265 0.28125-0.23828 0.63281-0.34375 1.0508-0.3086 0.46484 0.0352 0.82812 0.24219 1.0898 0.61719 0.26172 0.37891 0.375 0.85156 0.33984 1.4258-0.03906 0.60157-0.23047 1.0742-0.58203 1.418-0.35156 0.34375-0.80078 0.4961-1.3438 0.45313-0.13281-0.0117-0.27344-0.0352-0.42188-0.0703-0.14453-0.0352-0.30469-0.0859-0.47656-0.14843l0.24219-1.0195 0.09375 0.0273-0.0039 0.0352c-0.0078 0.19921 0.03516 0.36328 0.14062 0.49218 0.10547 0.1211 0.25391 0.19532 0.44141 0.21094 0.26172 0.0195 0.48047-0.0781 0.66797-0.30469 0.17969-0.21875 0.28906-0.52343 0.31641-0.90234m-5.5742 0.59766 0.04297-0.20704 0.35938 0.0898c0.14453 0.0352 0.25391 0.0234 0.32422-0.0312 0.07031-0.0586 0.12891-0.19531 0.17969-0.41797l0.375-1.7578c0.03516-0.17578 0.03516-0.29297 0-0.35938-0.03906-0.0664-0.16797-0.13281-0.38672-0.19531-0.08984-0.0234-0.15234-0.043-0.19531-0.0547-0.03906-0.0117-0.08203-0.0195-0.11719-0.0312l0.03906-0.1875c0.32031 0.0586 0.63281 0.0781 0.94141 0.0586 0.30859-0.0195 0.61719-0.0742 0.92969-0.16797l-0.65625 3.082c-0.03906 0.16797-0.04297 0.28515-0.01172 0.34765 0.02734 0.0664 0.10156 0.1211 0.21484 0.16797l0.39453 0.15625-0.04297 0.20703-2.3906-0.69921"/>
   <path d="m75.277 142.96c0.49609 0 0.89844 0.40234 0.89844 0.89843 0 0.49219-0.40234 0.89454-0.89844 0.89454s-0.89453-0.40235-0.89453-0.89454c0-0.49609 0.39844-0.89843 0.89453-0.89843"/>
   <path d="m95.402 143.01c0.49219 0 0.89453 0.40234 0.89453 0.89453 0 0.49609-0.40234 0.89844-0.89453 0.89844-0.49609 0-0.89844-0.40235-0.89844-0.89844 0-0.49219 0.40234-0.89453 0.89844-0.89453"/>
  </g>
  <g fill="#fff" fill-rule="evenodd">
   <path d="m74.922 113.49h9.9609v3.4024h-13.254c0.90625-1.2617 1.9688-2.418 3.293-3.4024"/>
   <path d="m69.477 120.94h15.379v3.5586h-16.262c0.15234-1.1875 0.44922-2.375 0.88281-3.5586"/>
   <path d="m68.516 128.55h16.367v0.0273c0.08594 0 0.17578-4e-3 0.26563-4e-3 4.1836 0 7.5938 3.4141 7.5938 7.5938 0 4.1836-3.4102 7.5976-7.5938 7.5976-3.1875 0-5.9297-1.9844-7.0508-4.7773h-4.3945c-1.0469-0.94922-1.875-2.0391-2.6484-3.1953h6.5078c0.07031-1.4375 0.54297-2.7734 1.3125-3.8945h-9.6094c-0.38672-1.1172-0.64062-2.2305-0.75-3.3477"/>
  </g>
  <path d="m91.602 132.16c2.4219 4.3633 0.91797 8.5117-3.1133 10.879 5.207-1.1172 8.9336-3.8867 11.234-8.2578-0.4375-0.625-1.1602-1.0469-2.0781-1.3242l0.23438 1.2461c-0.01563 0.58594-0.5 0.44922-0.51953-0.0273-0.375-2.3086-2.7109-3.1836-5.7578-2.5156" fill="#009c51" fill-rule="evenodd"/>
  <path d="m95.156 114.92h-3.7617c0.22656 0.20703 0.34375 0.48437 0.36328 0.82812v2.3672h-2.3633c-0.27344 0.0234-0.55078-0.0625-0.82812-0.3164v3.5859c0.25-0.25781 0.53516-0.3789 0.85547-0.36328h2.3086v3.8164h-3.1406c-0.21484 0-0.46484-0.10547-0.75-0.3125v3.6094c0.25-0.23437 0.50391-0.36328 0.75391-0.39062h3.1367v2.3398c0.23047 0.0859 0.4375 0.30078 0.625 0.64844 0.05078-0.52735 0.34375-0.91797 0.87891-1.168 0.61719 0.22266 0.92578 0.62109 0.98828 1.1914 0.13672-0.32032 0.26172-0.52735 0.51562-0.69141v-2.293h3.0625c0.27734 0.0117 0.55469 0.1211 0.82812 0.33984v-3.5859c-0.23047 0.22656-0.53516 0.34765-0.90625 0.36328h-2.9844v-3.8398h2.1289c0.41406 0.0234 0.72656 0.15234 0.93359 0.39062v-3.5859c-0.25 0.19922-0.57031 0.29297-0.95703 0.28516h-2.1289v-2.5156c0.04297-0.23828 0.1875-0.46875 0.44141-0.70312" fill="#fff" fill-rule="evenodd"/>
  <g fill="#e6332e" fill-rule="evenodd">
   <path d="m75.441 113.15h9.4141v-3.168c-3.3008 0.14843-6.5664 1.0312-9.4141 3.168"/>
   <path d="m71.395 117.2h13.461v3.375h-15.277c0.57422-1.1562 1.1719-2.2891 1.8164-3.375"/>
   <path d="m68.516 124.81h16.34v3.375h-16.395c-0.10156-1.0273-0.09375-2.1406 0.05469-3.375"/>
   <path d="m74.301 139.35h3.9688c0.66406 1.6211 1.8984 2.9024 3.8125 3.7656-3.2461-0.64063-5.7812-1.9492-7.7812-3.7656"/>
   <path d="m69.422 132.26h9.2344c-0.58203 0.95703-0.96484 2-1.0625 3.168h-6.6914c-0.66016-0.98828-1.1172-2.0664-1.4805-3.168"/>
   <path d="m85.426 109.96v18.613c0.67578 0.0391 1.3594 0.14062 2.0508 0.36328v-5.1133c0.33594 0.34766 0.72266 0.60937 1.1914 0.75h2.6211v-3.1641h-1.7383c-0.48438 0.1289-0.89844 0.42968-1.2422 0.90625v-5.2461c0.37109 0.38282 0.77734 0.625 1.2188 0.73047h1.8164v-2.1055c-0.08984-0.37109-0.36719-0.74609-0.73047-1.1133h5.2695c-0.33594 0.40235-0.60156 0.8125-0.73047 1.2188v1.9492h1.8203c0.52734-0.0742 0.91797-0.38672 1.2422-0.80859v5.3516c-0.41406-0.52344-0.89844-0.75391-1.4531-0.85938h-1.6328v3.1172h2.3594c0.62109-0.0664 1.1172-0.33984 1.5312-0.7539l-0.02734 5.1172c-0.30859-0.51172-0.79297-0.78125-1.4492-0.80859h-2.4141v1.7148l1.5078 0.12891c-0.95703 0.30469-1.6523 0.77734-1.4297 1.8476 0.86328 0.21485 1.5234 0.60157 1.9727 1.168 1.0703 0.0781 2.0039 0.53516 2.8008 1.375 2.3945-4.7461 2.457-9.5039 0.54297-14.125-2.7031-6.0078-8.1367-10-15.098-10.254"/>
   <path d="m87.516 128.95c0.19141-0.43359 0.50781-0.72265 0.94141-0.86328h2.9023l-0.0078 1.7227h-0.71484c-0.29297 0.0117-0.51953 0.082-0.63672 0.24219 0.92969 0.0508 1.2617 0.70312 1.293 1.6562-1.0586-1.3555-2.3047-2.3008-3.7773-2.7578"/>
  </g>
  <g>
   <path d="m88.523 105.94 0.39453-0.73438 0.69922 0.16406-0.85547 0.63282z" fill="#dcb31e" fill-rule="evenodd"/>
   <g>
    <path d="m92.777 136.16c0 4.2031-3.4727 7.6094-7.7539 7.6094s-7.7539-3.4062-7.7539-7.6094c0-4.2031 3.4727-7.6094 7.7539-7.6094s7.7539 3.4062 7.7539 7.6094" fill="#fff"/>
    <path d="m92.555 136.16c0 4.0938-3.3711 7.4141-7.5352 7.4141-4.1602 0-7.5352-3.3203-7.5352-7.4141 0-4.0976 3.375-7.418 7.5352-7.418 4.1641 0 7.5352 3.3203 7.5352 7.418" fill="#dcb31e"/>
    <path d="m92.348 136.14c0 4-3.2734 7.2422-7.3086 7.2422-4.0391 0-7.3125-3.2422-7.3125-7.2422 0-4.0039 3.2734-7.2461 7.3125-7.2461 4.0352 0 7.3086 3.2422 7.3086 7.2461" fill="#fff"/>
   </g>
  </g>
  <g fill="#dcb31e">
   <path d="m79.402 132.46s1.4844-1.2969 3.5586-2.0781c2.0703-0.78125 4.0625-0.83594 4.0625-0.83594s1.0391 0.25391 2.125 1.418c0 0-5.5273-0.20313-10.172 3.9219 0 0-0.0625-1.1133 0.42578-2.4258"/>
   <path d="m79.023 135.74s3.8125-4.1133 10.613-4.125c0 0 0.59766 0.56641 0.94531 1.75 0 0-6.2617 0.33203-11.098 4.4141 0 0-0.41406-1.0312-0.46094-2.0391"/>
   <path d="m79.797 138.35s3.5352-3.3516 10.895-4.3281c0 0 0.26562 1.1328-0.21484 3.1523 0 0-3.9414-0.11719-8.4141 3.4102 0 0-1.4805-0.78516-2.2656-2.2344"/>
   <path d="m78.93 132.14s0.60547-0.71485 2.3555-1.6758l-0.24609-0.42578s-1.4648 0.67968-2.1094 2.1016"/>
   <path d="m83.836 128.9-0.20703 0.66797s-0.5 0.125-0.83594 0.25781c-0.33594 0.12891-0.73438 0.30469-0.73438 0.30469l-0.60547-0.33594s1.0625-0.6289 2.3828-0.89453"/>
   <path d="m84.238 128.86s0.56641-0.0664 1.2578-0.0312c0.77344 0.0391 1.5273 0.30078 1.5273 0.30078s-0.76172-0.0234-1.4062 0.0469c-0.69141 0.0742-1.0859 0.14454-1.3164 0.19532z"/>
   <path d="m82.418 141.13s0.39453-0.36329 1.9805-1.2344c0 0 0.47656 1.1953 1.6016 3.4727 0 0-1.0234 0.28515-2.2227-0.0781 0 0-0.83594-0.98047-1.3594-2.1602"/>
   <path d="m85.234 139.44s0.44922-0.27344 1.0742-0.54688c0.60938-0.26171 1.1328-0.42578 1.1328-0.42578s0.52344 2.1524 1.0391 4.1406c0 0-0.28516 0.27734-1.7305 0.63672 0 0-0.96484-2.1524-1.5156-3.8047"/>
   <path d="m88.293 138.2s0.96094-0.375 2.1367-0.39844c0 0 0.34375 1.1758 0.43359 2.7227 0 0-0.19922 0.65625-1.7578 1.7266 0 0-0.33203-1.9453-0.8125-4.0508"/>
   <path d="m87.418 129.27s5.6719 2.0156 3.6719 8.3945c0 0 0.22266 0.85546 0.25 2.4102 0 0 2.3086-3.7422 0.08984-7.6406-1.375-2.4141-4.0117-3.1641-4.0117-3.1641"/>
   <path d="m78.945 132.08s-2.668 5.8438 2.8086 9.2812c0 0 0.64844 1.1484 1.2578 1.8008 0 0-4.125-1.0859-5.1641-5.0742-0.95703-3.6875 1.0977-6.0078 1.0977-6.0078"/>
  </g>
  <g fill="#fff">
   <path d="m81.684 135.01c0.09766 0.27344 0.15234 0.57422 0.15234 0.57422 0.01172 0.10547-0.01563 0.23047-0.13672 0.28516-0.11719 0.0547-0.25391 0.0156-0.29688-0.0859 0 0-0.02734-0.30859-0.13672-0.5625-0.11328-0.25-0.30859-0.46484-0.30859-0.46484-0.04687-0.10547 0.01563-0.23047 0.13281-0.28516 0.12109-0.0547 0.21094-0.0117 0.30078 0.0898 0 0 0.21875 0.25 0.29297 0.44922"/>
   <path d="m82.797 134.37c0.08984 0.20313 0.15234 0.58594 0.15234 0.58594 0.01953 0.11719-0.01563 0.23828-0.13281 0.29297-0.12109 0.0547-0.25391 0.0117-0.30078-0.0977 0 0-0.03125-0.3164-0.14453-0.57422-0.11719-0.26171-0.32031-0.48437-0.32031-0.48437-0.04687-0.10938 0.01563-0.23828 0.13281-0.29297 0.12109-0.0547 0.20703-8e-3 0.30078 0.0977 0 0 0.18359 0.17578 0.3125 0.47265"/>
   <path d="m83.961 133.79c0.08984 0.21094 0.15625 0.60937 0.15625 0.60937 0.02344 0.1211-0.0078 0.24219-0.12891 0.29688-0.11719 0.0508-0.25391 8e-3 -0.30469-0.10547 0 0-0.03125-0.32031-0.14844-0.58984-0.12109-0.26954-0.32812-0.5-0.32812-0.5-0.04687-0.11329 0.01172-0.2461 0.13281-0.30079 0.11719-0.0508 0.20703-4e-3 0.30078 0.10157 0 0 0.1875 0.1875 0.32031 0.48828"/>
   <path d="m85.227 133.34c0.09375 0.21093 0.16016 0.60547 0.16016 0.60547 0.01953 0.12109-0.01172 0.24609-0.13281 0.29687-0.11719 0.0547-0.25391 8e-3 -0.30469-0.10156 0 0-0.03125-0.32422-0.14844-0.58985-0.12109-0.27343-0.32422-0.5039-0.32422-0.5039-0.05078-0.10938 0.0078-0.24219 0.12891-0.29688 0.12109-0.0547 0.20703-4e-3 0.30469 0.10157 0 0 0.1875 0.18359 0.31641 0.48828"/>
   <path d="m86.621 132.93c0.08984 0.21094 0.15625 0.60547 0.15625 0.60547 0.01953 0.1211-0.01172 0.24219-0.12891 0.29688-0.12109 0.0547-0.25781 8e-3 -0.30469-0.10157 0 0-0.03125-0.32421-0.15234-0.59375-0.12109-0.26953-0.32422-0.5-0.32422-0.5-0.04688-0.10937 0.01172-0.24218 0.12891-0.29687 0.12109-0.0547 0.20703-4e-3 0.30469 0.10156 0 0 0.1875 0.1836 0.32031 0.48828"/>
   <path d="m87.945 132.58c0.08984 0.20704 0.14844 0.58985 0.14844 0.58985 0.01953 0.11719-0.01172 0.23828-0.13281 0.29297-0.11719 0.0508-0.25391 8e-3 -0.30078-0.0977 0 0-0.02734-0.31641-0.14453-0.57812-0.11328-0.25782-0.31641-0.48438-0.31641-0.48438-0.04687-0.10547 0.01172-0.23437 0.13281-0.28906 0.12109-0.0547 0.20703-8e-3 0.30078 0.0977 0 0 0.18359 0.17579 0.3125 0.46875"/>
  </g>
 </g>
</svg>
