<?xml version="1.0" encoding="UTF-8" standalone="no"?>
<svg
   version="1.1"
   id="Livello_2"
   x="0px"
   y="0px"
   width="428.44357"
   height="750"
   viewBox="0 0 856.88715 1500"
   xml:space="preserve"
   sodipodi:docname="Logo EÌquipe Italie Football - 2023.svg"
   inkscape:version="1.2 (dc2aeda, 2022-05-15)"
   xmlns:inkscape="http://www.inkscape.org/namespaces/inkscape"
   xmlns:sodipodi="http://sodipodi.sourceforge.net/DTD/sodipodi-0.dtd"
   xmlns="http://www.w3.org/2000/svg"
   xmlns:svg="http://www.w3.org/2000/svg"><defs
   id="defs211" /><sodipodi:namedview
   id="namedview209"
   pagecolor="#ffffff"
   bordercolor="#666666"
   borderopacity="1.0"
   inkscape:showpageshadow="2"
   inkscape:pageopacity="0.0"
   inkscape:pagecheckerboard="0"
   inkscape:deskcolor="#d1d1d1"
   showgrid="false"
   inkscape:zoom="0.89001173"
   inkscape:cx="164.04278"
   inkscape:cy="361.79298"
   inkscape:window-width="1920"
   inkscape:window-height="1080"
   inkscape:window-x="0"
   inkscape:window-y="0"
   inkscape:window-maximized="0"
   inkscape:current-layer="Livello_2" />
<g
   id="g5712"
   transform="matrix(2.1664707,0,0,2.1664707,-2137.6267,397.74034)"><path
     id="path3670"
     style="fill:#0053b3;fill-opacity:1;stroke:none;stroke-width:0.4;stroke-linecap:butt;stroke-linejoin:miter;stroke-dasharray:none;stroke-opacity:1"
     d="m 1184.4492,-80.882812 c -64.8828,0.298015 -133.9031,10.746663 -197.7617,27.605468 V 302.375 c -0.41409,129.98644 96.5254,206.23943 197.7617,206.40625 101.2363,-0.16682 198.1719,-76.41981 197.7578,-206.40625 V -53.277344 c -63.8586,-16.858805 -132.8749,-27.307453 -197.7578,-27.605468 z" /><path
     id="path4401"
     style="fill:#ffffff;stroke:none;stroke-width:0.368656;stroke-linecap:butt;stroke-linejoin:miter;stroke-dasharray:none;stroke-opacity:1"
     d="m 1184.4492,-63.800781 c -58.3344,0.281554 -120.391,9.353573 -177.8047,25.28125 V 309.49219 c -0.3723,122.80716 97.7633,182.34732 177.8047,183.0039 80.0414,-0.65658 178.1731,-60.19674 177.8008,-183.0039 V -38.519531 c -57.4136,-15.927677 -119.4663,-24.999696 -177.8008,-25.28125 z" /></g><g
   id="g4939"
   style="fill:#0053b3;fill-opacity:1"
   transform="matrix(2.1664707,0,0,2.1664707,-2137.6267,397.74034)"><polygon
     class="st0"
     points="64.457459,153.72952 33.380096,170.06787 39.315346,135.46271 14.173228,110.95521 48.918777,105.90639 64.457459,74.421577 79.996139,105.90639 114.74169,110.95521 89.599579,135.46271 95.534821,170.06787 "
     id="polygon184"
     style="fill:#0053b3;fill-opacity:1"
     transform="matrix(0.78488504,0,0,0.78488504,976.05202,-227.17842)" /><polygon
     class="st0"
     points="172.74414,75.806809 147.60204,51.299301 182.34758,46.250477 197.88626,14.765668 213.42494,46.250477 248.1705,51.299301 223.02838,75.806809 228.96362,110.41196 197.88626,94.073624 166.8089,110.41196 "
     id="polygon190"
     style="fill:#0053b3;fill-opacity:1"
     transform="matrix(0.78488504,0,0,0.78488504,976.05202,-195.17842)" /><polygon
     class="st0"
     points="79.996139,105.90639 114.74169,110.95521 89.599579,135.46271 95.534821,170.06787 64.457459,153.72952 33.380096,170.06787 39.315346,135.46271 14.173228,110.95521 48.918777,105.90639 64.457459,74.421577 "
     id="polygon4810"
     style="fill:#0053b3;fill-opacity:1"
     transform="matrix(-0.78488504,0,0,0.78488504,1392.8425,-227.17842)" /><polygon
     class="st0"
     points="223.02838,75.806809 228.96362,110.41196 197.88626,94.073624 166.8089,110.41196 172.74414,75.806809 147.60204,51.299301 182.34758,46.250477 197.88626,14.765668 213.42494,46.250477 248.1705,51.299301 "
     id="polygon4812"
     style="fill:#0053b3;fill-opacity:1"
     transform="matrix(-0.78488504,0,0,0.78488504,1392.8425,-195.17842)" /></g><g
   id="g5716"
   transform="matrix(2.1664707,0,0,2.1664707,-2137.6267,397.74034)"><path
     id="path4760"
     style="fill:#009d50;fill-opacity:1;stroke:none;stroke-width:1.09908;stroke-linejoin:bevel;stroke-dasharray:none"
     d="M 1023.2461,141.27734 V 297.0888 c -0.2517,83.03683 44.5714,137.04629 98.3469,163.58876 V 141.27734 Z" /><path
     id="path4820"
     style="fill:#f0012b;fill-opacity:1;stroke:none;stroke-width:1.09908;stroke-linejoin:bevel;stroke-dasharray:none"
     d="M 1345.6484,141.27734 V 297.0888 c 0.2517,83.03683 -44.5714,137.04629 -98.3469,163.58876 V 141.27734 Z" /></g><g
   id="g5733"
   transform="matrix(2.1664707,0,0,2.1664707,-2137.6267,397.74034)"><path
     class="st2"
     d="m 1023.245,77.543568 v -98.709322 h 19.54 v 98.709322 z"
     id="path232"
     style="fill:#0053b3;fill-opacity:1;stroke-width:3.47307" /><path
     class="st2"
     d="m 1242.372,77.543568 v -98.709322 h 19.5399 v 98.709322 z"
     id="path234"
     style="fill:#0053b3;fill-opacity:1;stroke-width:3.47307" /><path
     class="st2"
     d="M 1071.0809,77.543568 V -3.0441524 H 1053.398 V -21.165754 h 54.8547 v 18.1216016 h -17.6319 V 77.543568 Z"
     id="path236"
     style="fill:#0053b3;fill-opacity:1;stroke-width:3.47307" /><polygon
     class="st2"
     points="282.78323,466.36133 275.18933,466.36133 275.18933,443.15771 269.5632,443.15771 269.5632,471.57904 282.78323,471.57904 "
     id="polygon238"
     transform="matrix(3.4730682,0,0,3.4730682,248.32862,-1560.2826)"
     style="fill:#0053b3;fill-opacity:1" /><path
     class="st2"
     d="m 1153.9544,77.543568 h 20.3771 l -29.0026,-98.709218 h -15.4648 l -28.2121,98.709218 h 19.9819 l 4.1681,-19.292026 h 23.7885 z m -24.5116,-36.14245 7.9808,-36.9377125 8.3554,36.9377125 z"
     id="path242"
     style="fill:#0053b3;fill-opacity:1;stroke-width:3.47307" /><path
     class="st2"
     d="m 1325.2725,77.543568 h 20.377 l -29.0026,-98.709218 h -15.4647 l -28.2121,98.709218 h 19.9818 l 4.1682,-19.292026 h 23.7885 z m -24.5116,-36.14245 7.9808,-36.9377125 8.3554,36.9377125 z"
     id="path244"
     style="fill:#0053b3;fill-opacity:1;stroke-width:3.47307" /></g><g
   id="g3108"><g
     id="g3098"><rect
       style="fill:#c7b487;fill-opacity:1;stroke-width:2918.78;stroke-linejoin:bevel"
       id="rect4758"
       width="213.06805"
       height="30.330589"
       x="79.203598"
       y="620.94348" /><rect
       style="fill:#c7b487;fill-opacity:1;stroke-width:2918.78;stroke-linejoin:bevel"
       id="rect4818"
       width="213.06805"
       height="30.330589"
       x="-777.68359"
       y="620.94348"
       transform="scale(-1,1)" /></g><g
     id="g3094"><rect
       x="378.8761"
       y="595.96124"
       class="st0"
       width="15.772245"
       height="80.295067"
       id="rect220"
       style="fill:#c7b487;fill-opacity:1;stroke-width:0.78651" /><polygon
       class="st0"
       points="192.93039,324.06604 167.15623,324.06604 147.10274,324.06604 147.10266,324.06604 147.10266,342.29645 147.10274,342.29645 147.10274,361.38925 147.10266,361.38925 147.10266,379.61972 147.10274,379.61972 147.10274,426.15646 167.15623,426.15646 167.15623,379.61972 192.93039,379.61972 192.93039,361.38925 167.15623,361.38925 167.15623,342.29645 192.93039,342.29645 "
       id="polygon222"
       style="fill:#c7b487;fill-opacity:1"
       transform="matrix(0.78650967,0,0,0.78650967,216.11503,341.08017)" /><path
       class="st0"
       d="m 460.86943,632.48551 h -15.42939 -14.74123 v 14.33846 h 14.14258 c -1.27431,8.68382 -4.62172,14.70633 -12.05413,14.70633 -8.91021,0 -12.72039,-11.38159 -12.72039,-25.42151 0,-14.03992 4.04829,-25.42151 12.72039,-25.42151 7.05917,0 10.48337,5.70783 11.89,14.00768 h 15.59722 c -2.04941,-16.60839 -9.3939,-28.73372 -27.59257,-28.73372 -19.25811,0 -28.24813,17.97471 -28.24813,40.14755 0,22.17283 8.46123,40.14756 28.24813,40.14756 18.89548,0 25.90302,-12.46397 27.72164,-29.43237 0.36572,-3.41245 0.50453,-13.14419 0.46588,-14.33847 z"
       id="path224"
       style="fill:#c7b487;fill-opacity:1;stroke-width:0.78651" /><path
       class="st0"
       d="m 508.23046,646.82397 c -0.0349,0.23753 -0.0775,0.46512 -0.11541,0.69866 h -0.0488 c -1.31855,7.77999 -4.41001,13.28239 -10.60613,13.94111 -0.41444,0.0421 -0.84087,0.0665 -1.2839,0.0665 -8.67211,0 -12.7204,-11.38158 -12.7204,-25.42151 0,-14.03992 4.04829,-25.42151 12.7204,-25.42151 0.44303,0 0.86946,0.0245 1.2839,0.0665 6.19612,0.65873 9.28758,6.16113 10.60613,13.94113 h 0.0488 c 0.038,0.23352 0.0805,0.46111 0.11541,0.69866 0.12552,0.8555 0.22406,1.74531 0.31008,2.65059 h 15.4773 c -0.0659,-0.89131 -0.1322,-1.78244 -0.22524,-2.65059 -1.81863,-16.96842 -8.82617,-29.43238 -27.72162,-29.43238 -19.78691,0 -28.24816,17.97471 -28.24816,40.14755 0,22.17283 8.46125,40.14756 28.24816,40.14756 18.89545,0 25.90299,-12.46397 27.72162,-29.43238 0.0745,-0.69496 0.12335,-1.41177 0.18029,-2.12174 h -15.48304 c -0.0752,0.72156 -0.15832,1.43301 -0.25939,2.12174 z"
       id="path226"
       style="fill:#c7b487;fill-opacity:1;stroke-width:0.78651" /></g></g></svg>
