<?xml version="1.0" encoding="utf-8"?>
<!-- Generator: Adobe Illustrator 13.0.0, SVG Export Plug-In . SVG Version: 6.00 Build 14948)  -->
<!DOCTYPE svg PUBLIC "-//W3C//DTD SVG 1.0//EN" "http://www.w3.org/TR/2001/REC-SVG-20010904/DTD/svg10.dtd">
<svg version="1.0" id="HQFL" xmlns="http://www.w3.org/2000/svg" xmlns:xlink="http://www.w3.org/1999/xlink" x="0px" y="0px"
	 width="321.835px" height="445.735px" viewBox="0 0 321.835 445.735" enable-background="new 0 0 321.835 445.735"
	 xml:space="preserve">
<path fill="#FFDF00" d="M224.623,439.182c-8.813,0-15.465-2.29-22.507-4.714c-8.077-2.781-17.231-5.933-30.728-5.933
	c-10.402,0-19.013,2.921-26.005,7.075v-15.872c14.024-3.333,28.552-6.457,44.296-6.457c19.953,0,37.558,6.837,43.991,13.27
	c1.841,1.842,3.34,4.89,3.34,6.795C237.01,436.167,233.756,439.182,224.623,439.182z"/>
<path fill="#FFDF00" d="M95.532,367.833c-3.734,0.37-7.4,0.588-10.958,0.588c-15.939,0-16.747-6.035-17.229-9.641
	c-1.448-10.828,6.771-22.83,24.859-35.842c7.331,8.761,16.155,17.477,26.766,25.714C109.062,355.358,100.361,361.272,95.532,367.833
	z"/>
<path fill="#FFDF00" d="M191.044,358c-15.863,0-34.224,4.06-51.912,8.276c-18.364,4.376-37.353,8.902-54.558,8.902
	c-12.949,0-20.379-3.722-23.038-11.629c2.992,10.265,11.722,28.479,10.955,49.713c10.702,7.598,19.564,7.598,27.284,7.596h0.36
	c12.528,0,25.474-3.111,39.181-6.405c15.801-3.796,32.139-7.723,50.363-7.723c19.374,0,39.823,6.389,48.624,15.19
	c2.533,2.534,5.259,7.19,5.259,11.427c0,0.762-0.129,2.636-1.18,4.705c2.869-5.211,14.289-27.118,26.413-39.435
	c-0.859-9.047-3.54-15.657-9.514-21.632C246.237,363.942,214.765,358,191.044,358z"/>
<path fill="#F49A00" d="M264.494,371.774c-14.607-14.606-47.415-21.145-73.45-21.145c-16.729,0-35.376,4.761-53.478,9.075
	c-11.5,2.741-23.247,5.534-34.516,7.198c4.376-4.25,10.809-8.732,18.834-14.165c0.442-0.3,0.888-0.601,1.333-0.902
	c-1.442-1.054-2.858-2.117-4.239-3.188c-9.911,6.708-18.615,12.624-23.445,19.186c-3.734,0.37-7.4,0.588-10.958,0.588
	c-15.939,0-16.747-6.035-17.229-9.641c-1.449-10.83,6.773-22.834,24.869-35.849c-1.3-1.554-2.556-3.109-3.764-4.664
	c-20.304,14.516-29.573,28.166-27.802,41.408c1.415,10.576,9.017,15.502,23.926,15.502c17.205,0,36.194-4.525,54.558-8.902
	C156.82,362.06,175.181,358,191.044,358c23.721,0,55.193,5.942,68.238,18.985c5.974,5.975,8.654,12.584,9.514,21.632
	c2.095-2.127,4.209-3.967,6.305-5.386C273.957,384.972,270.954,378.234,264.494,371.774z"/>
<path fill="#F49A00" d="M238.303,421.92c-8.801-8.802-29.25-15.19-48.624-15.19c-18.224,0-34.563,3.927-50.363,7.723
	c-13.707,3.294-26.653,6.405-39.181,6.405h-0.36c-7.72,0.002-16.583,0-27.285-7.598c-0.088,2.436-0.294,4.909-0.656,7.417
	c10.972,6.734,20.26,6.734,27.943,6.733h0.358c13.305,0,26.617-3.199,40.711-6.586c15.43-3.708,31.385-7.542,48.833-7.542
	c19.953,0,37.558,6.837,43.991,13.271c1.841,1.842,3.34,4.89,3.34,6.795c0,2.821-3.254,5.835-12.387,5.835
	c-8.813,0-15.465-2.29-22.507-4.714c-8.077-2.781-17.231-5.933-30.728-5.933c-10.402,0-19.012,2.921-26.004,7.075v7.848
	c6.673-4.762,15.264-8.371,26.004-8.371c12.4,0,20.633,2.834,28.595,5.576c7.575,2.607,14.729,5.071,24.64,5.071
	c10.326,0,15.036-3.386,17.177-6.667c1.596-2.447,1.763-4.836,1.763-5.721C243.563,429.109,240.836,424.453,238.303,421.92z"/>
<path fill="#FFDF00" d="M76.224,26.71c15.33,0.666,24.996,1.784,30.417,3.515c5.268,1.681,5.268,3.414,5.268,4.679
	c0,1.196,0,3.686-5.835,3.686c-3.156,0-8.638-1.152-15.577-2.61c-13.674-2.873-32.402-6.808-54.652-6.808
	c-11.481,0-19.583,0.947-25.227,3.051c0.457-7.026,1.079-15.165,1.465-23.246C31.298,22.623,54.01,25.744,76.224,26.71z"/>
<path fill="#FFDF00" d="M111.719,47.011c-23.834,5.968-46.347,11.604-66.048,11.604c-17.842,0-37.957-5.208-38.292-12.682
	c-0.078-1.737,0.384-3.068,1.453-4.186c4.975-5.204,21.561-5.204,27.011-5.204c21.484,0,39.778,3.844,53.137,6.651
	c7.646,1.606,13.171,2.767,17.093,2.767c7.841,0,11.618-3.704,12.792-7.938c-0.715,2.581-1.676,5.081-2.552,7.838
	C114.779,46.245,113.247,46.628,111.719,47.011z"/>
<path fill="#FFDF00" d="M281.987,171.28c-4.125,4.125-9.207,7.82-15.181,11.06v-54.858c2.272,1.809,4.286,3.619,6.049,5.381
	C280.003,140.011,295.203,158.064,281.987,171.28z"/>
<path fill="#FFDF00" d="M315.988,100.769c-0.716-9.183-5.327-15.77-12.275-22.719c-24.643-24.642-73.17-37.537-108.369-37.537
	c-27.334,0-55.041,6.938-81.834,13.646c-24.288,6.082-47.229,11.824-67.838,11.824c-14.063,0-39.662-3.399-44.768-15.71h0
	c4.314,10.281,15.208,33.075,12.312,57.837c12.053,7.36,21.051,9,32.047,9c19.145,0,41.451-4.418,65.066-9.094
	c25.967-5.143,52.819-10.46,78.259-10.46c49.561,0,76.172,16.208,89.769,29.804c12.729,12.728,18.266,25.526,16.239,36.383v0l0,0
	C296.323,154.487,298.925,127.678,315.988,100.769z"/>
<path fill="#F49A00" d="M308.924,72.839c-27.273-27.273-77.994-39.695-113.58-39.695c-28.243,0-56.397,7.05-83.625,13.867
	c-23.834,5.967-46.347,11.604-66.047,11.604c-17.842,0-37.957-5.208-38.292-12.683c-0.078-1.738,0.384-3.068,1.453-4.186
	c4.975-5.204,21.561-5.204,27.011-5.204c21.484,0,39.778,3.844,53.137,6.65c7.646,1.607,13.171,2.768,17.093,2.768
	c9.737,0,13.207-5.711,13.207-11.056c0-11.721-13.184-14.272-42.735-15.557C50.849,18.23,29.595,14.21,12.395,0
	c-0.056,2.94-0.169,5.953-0.314,8.976c19.217,13.648,41.929,16.77,64.144,17.735c15.33,0.667,24.996,1.784,30.417,3.515
	c5.267,1.682,5.267,3.415,5.267,4.679c0,1.196,0,3.686-5.835,3.686c-3.156,0-8.638-1.152-15.577-2.61
	c-13.674-2.873-32.402-6.808-54.652-6.808c-17.654,0-27.325,2.237-32.338,7.48c-2.485,2.599-3.659,5.832-3.489,9.61
	c0.064,1.432,0.371,2.768,0.887,4.012c5.106,12.312,30.706,15.711,44.769,15.711c20.609,0,43.55-5.744,67.838-11.825
	c26.793-6.708,54.5-13.646,81.834-13.646c35.199,0,83.726,12.894,108.369,37.536c6.944,6.944,11.553,13.528,12.274,22.703
	c1.784-2.813,3.731-5.627,5.848-8.423C319.351,84.325,314.328,78.242,308.924,72.839z"/>
<path fill="#F49A00" d="M278.356,127.362c-13.597-13.597-40.208-29.804-89.769-29.804c-25.44,0-52.292,5.317-78.26,10.459
	c-23.615,4.676-45.92,9.094-65.065,9.094c-10.997,0-19.994-1.639-32.048-9c-0.315,2.695-0.798,5.413-1.467,8.141
	c12.301,6.985,22.051,8.639,33.515,8.639c19.907,0,42.577-4.489,66.577-9.242c25.6-5.07,52.072-10.312,76.748-10.312
	c46.898,0,71.71,14.968,84.268,27.525c7.147,7.148,22.347,25.202,9.132,38.417c-4.125,4.125-9.207,7.82-15.181,11.06v8.748
	c8.254-4.02,15.184-8.808,20.682-14.306c3.856-3.855,6.214-8.258,7.106-13.038C296.622,152.889,291.084,140.092,278.356,127.362z"/>
<path fill="#00518B" d="M190.755,76.089c0-5.598,0-10.999,0.08-16.701c0.108-1.205-0.156-2.517,0.298-3.607
	c0.187-0.296,0.487-0.296,0.787-0.524c0.223-0.34,0.115-0.791,0.077-1.196c-0.376-1.126-1.465-0.413-2.258-0.642
	c-0.82,0.114-4.65-0.034-5.737,0.077c-0.566,0.486-0.297,1.314-0.074,1.948c0.64,0.337,0.71,0.978,0.785,1.578l0.12,4.724
	c0,0.492-0.082,2.853-0.082,2.853c-0.861,0-1.761,0.114-2.586-0.069c-0.148-2.631-0.036-4.958-0.036-7.546
	c0.223-0.149,0.142-0.413,0.223-0.635c0.113-0.527,0.456-0.677,0.753-1.054c0.144-0.565,0.108-1.276-0.297-1.691
	c-2.56,0.079-5.375,0.114-7.966,0.193c-0.145,0.149-0.406,0.035-0.519,0.299c-0.115,0.635-0.156,1.314,0.262,1.8
	c0.601,0.413,1.013,0.86,1.276,1.539c0.108,3.563,0.075,7.542,0,11.03c0.029,3.046,0.108,5.786,0,8.787
	c0,0.711-1.092,0.864-1.132,1.647c-0.032,0.492-0.293,1.127-0.032,1.653c0.188,0.079,0.488,0.264,0.639,0.039
	c1.794-0.188,3.635-0.188,5.368-0.41c0.669-0.076,1.425,0.223,2.025-0.155c0.484-0.301,0.223-1.013,0.223-1.499
	c-0.636-0.828-0.822-1.841-1.012-2.853c0,0,0.149-4.464,0.077-6.345l-0.025-1.815c0,0,1.937-0.131,2.647-0.061
	c0,0-0.036,0.079,0.039,0.158l-0.039,0.07l0.075,0.337c0.038,2.552,0,4.992,0,7.508c0.038,0.676,0.077,1.499-0.523,1.875
	c-0.413,0.264-0.3,0.715-0.456,1.053c-0.183,0.41,0.115,0.864,0.079,1.313c0.377,0.67,1.125,0.15,1.653,0.223
	c0.036,0.114,0.149,0.035,0.149,0c2.063,0,3.752-0.15,5.854-0.073c0.674-0.077,0.644-0.864,0.83-1.39
	C192.411,77.476,190.868,77.136,190.755,76.089z"/>
<path fill="#00518B" d="M211.652,54.127c-4.014-0.152-7.731-0.451-11.745-0.75c-0.528,0.521-0.492,1.385-0.416,2.06
	c0.303,0.864,1.356,1.161,1.613,1.99c-0.297,4.429-0.6,8.478-0.897,12.762c-0.036,0.521-0.148,2.625-0.228,3.075
	c0,0-0.115,1.768-0.228,2.477c-0.072,0.641-0.744,0.863-1.197,1.125c-0.302,0.264-0.451,0.598-0.487,0.978
	c0.149,0.413-0.187,1.162,0.413,1.391c2.699,0.183,5.514,0.411,8.107,0.749c0.338-0.301,0.451-0.749,0.521-1.206
	c0.267-1.349-1.459-1.349-1.653-2.51l0.641-8.258c0.115-0.039,0.086-0.366,0.086-0.366c0.828,0,1.533,0.103,2.32,0.179
	c0.298-0.035,0.562-0.378,0.634-0.676c0.043-0.679,0.528-1.39,0.077-2.025c-0.71-0.415-1.869-0.38-2.654-0.53
	c-0.312-0.082-0.024-1.07-0.166-1.257c0.137-2.253,0.269-3.733,0.497-5.943c0.218-0.114,0.448-0.078,0.636,0
	c-0.038,0.105-0.188-0.043-0.116,0.036l0.078,0.035l0.072-0.114l0.036,0.114c0.264-0.071,0.307,0.228,0.456,0.342
	c0.372,1.163,0.863,2.327,0.896,3.638c0.264,0.491,0.372,1.241,1.013,1.241c0.521-0.15,1.166-0.228,1.314-0.864
	c0.041-2.253,0.305-4.541,0.605-6.831C211.836,54.724,211.952,54.346,211.652,54.127z"/>
<path fill="#00518B" d="M175.516,73.946c0.044-1.951-0.71-3.827-1.424-5.552c-1.313-2.289-2.738-4.659-4.614-6.683
	c-0.641-0.863-0.977-1.837-1.355-2.815c-0.068-0.713-0.601-1.727,0.151-2.247c0.079-0.079,0.079-0.342,0.261-0.264
	c0.082-0.263,0.487-0.151,0.682-0.228c0.106,0.15,0.341,0.191,0.525,0.191c0.6,0.6,0.6,1.421,1.049,2.062
	c0,0,0.484,2.174,1.051,2.928c0.41,0.258,0.787,0.145,1.2,0.145c0.262-0.106,0.715-0.145,0.715-0.556
	c0.079-2.403-0.115-4.735,0.079-7.058c-0.194-0.415-0.72-0.337-1.132-0.415c-0.451,0.377-0.977,0.714-1.5,0.977
	c-0.861-0.526-1.919-0.679-2.929-0.828c-0.151,0-0.372,0.193-0.521,0.044c-1.843,0.297-3.642,1.011-4.765,2.51
	c-0.72,0.978-0.868,2.218-1.097,3.414c-0.256,3.19,1.241,5.82,2.781,8.296c1.354,2.138,2.925,4.055,4.05,6.343
	c0.792,1.462,2.256,3.339,1.02,4.956c-0.525,0.298-1.207,0.337-1.725,0.036c-0.23-0.15-0.42-0.413-0.528-0.492
	c-1.425-1.533-1.989-3.409-2.476-5.399c-0.229-0.342-0.533,0.073-0.826-0.079c-0.571,0.152-1.013,0.53-1.2,1.085
	c-0.077,2.034,0.036,4.208,0.111,6.198c0,0-0.379-0.451-0.379-0.641c-0.188-0.451-0.708-0.485-1.084-0.673
	c-0.792-0.077-0.749-1.047-1.013-1.653c-0.264-5.741-0.604-11.444-0.828-17.079l0.036-0.106c-0.187-0.941-0.077-1.989,0.413-2.816
	l0.115-0.114l0.072-0.115c0.226-0.297,0.6-0.521,0.94-0.822c0.379-0.527,0.298-1.123,0.265-1.767
	c-0.115-0.148-0.265-0.299-0.446-0.264c-2.932,0.528-6.008,0.87-8.974,1.429c-0.413,0.228-0.341,0.675-0.262,1.053
	c0.07,0.45,0.555,0.749,0.898,0.936c0.077,0,0.189,0.034,0.228,0.075l0.072,0.188c0.192,0,0.034,0.228,0.3,0.189
	c0.113,0.372,0.3,0.714,0.3,1.086c0.298,6.381,0.49,12.906,0.753,19.44c-0.034,0.903-0.828,1.43-1.502,1.916
	c-0.451,0.565-0.3,1.539-0.187,2.139c0.113,0.148,0.3,0.264,0.528,0.264c2.289-0.229,4.353-0.606,6.603-0.756
	c0.485-0.035,0.97-0.297,1.461-0.183c0.449-0.15,1.091-0.15,1.389-0.75c0.116-0.114-0.076-0.377,0.154-0.377
	c0.075,0,0.039,0.076,0.039,0.149c0.111,0.041,0.144,0.299,0.3,0.447c0.372,0.08,0.708,0.267,1.164,0.193
	c0.485-0.079,0.524-0.676,0.821-0.942c0.076,0.193,1.319,0.749,1.919,0.942c1.502,0.413,3.15,0.372,4.46-0.377
	c1.092-0.636,2.039-1.96,2.783-3.117c0,0,0.67-1.121,0.785-1.69C175.56,75.861,175.516,74.849,175.516,73.946z"/>
<path fill="#00518B" d="M150.827,58.823c-0.269-0.939,0.148-1.84-0.226-2.666c-0.192-0.079-0.341-0.222-0.604-0.188
	c-4.578,1.051-9.005,2.068-13.663,2.926c-0.448-0.035-0.448,0.413-0.561,0.714c0.261,1.653,0.192,3.455,0.192,5.218
	c0.148,0.263,0.069,0.678,0.446,0.714c0.456,0,1.012-0.08,1.276-0.451c0.828-0.562,0.828-1.619,1.128-2.402l0.072-0.15l0.149-0.187
	c0-0.148,0.156-0.298,0.23-0.376l0.113-0.229l0.148-0.184l0.108-0.114l0.079-0.185c0.151,0.035,0.413-0.114,0.482,0.075v0.145
	l0.194,0.301c0.079,5.896,0.376,11.751,0.562,17.571c0.187,1.162-0.338,2.253-1.162,3.112c-0.412,0.337-1.053,0.223-1.24,0.902
	c-0.036,0.789-0.454,1.726,0.336,2.288c1.881-0.185,3.565-0.675,5.404-0.942c0.604-0.15,1.281-0.258,1.881-0.333
	c0.446-0.15,2.171-0.492,2.328-0.372c0,0,0.264-0.12,0.451-0.12c0.257-0.223,0.677-0.337,0.677-0.75
	c0-0.599,0.298-1.348-0.264-1.761c-0.785,0.034-1.543-0.486-2.025-1.05l0.034-0.077c-0.413-0.679-0.336-1.542-0.377-2.29
	l-0.3-10.659c0-2.475-0.264-4.952,0.113-7.429l0.039-0.152l0.189-0.15l0.408-0.073c0.264,0,0.264,0.152,0.377,0.223l0.223,0.193
	l0.077,0.07l0.115,0.152l-0.034,0.035c0.298,0.229,0.298,0.72,0.519,1.053c0.456,0.714,0.187,2.292,1.392,2.099
	c0.297-0.108,0.749-0.035,0.825-0.448c-0.11-1.279-0.036-2.663-0.192-3.979L150.827,58.823z"/>
<path fill="#00518B" d="M33.392,83.105c0.108-1.65,0.108-3.303,0.3-4.95c0.148-0.378-0.077-0.904,0.148-1.168
	c0-0.222-0.077-0.415-0.226-0.563c-0.223-0.413-0.749-0.223-1.084-0.372c-0.979-0.079-1.917-0.299-2.93-0.342l-0.638-0.105
	c-2.699-0.644-5.142-0.714-7.736-1.657c-0.218-0.148-0.521-0.035-0.751,0.115c-0.413,0.863-0.034,1.989-0.262,2.925
	c-0.113,1.276-0.151,2.368-0.185,3.678c0.372,0.413,0.749,0.864,1.392,0.791c0.221-0.111,0.485-0.15,0.562-0.453
	c0.105-1.127,0.449-2.063,0.9-3.076c0.036-0.189,0.218-0.412,0.372-0.45c0.148-0.041,0.269,0.039,0.302,0.153l-0.261,4.876
	c0,3.9-0.376,7.766-0.525,11.561c-0.039,0.826-0.039,1.61-0.417,2.324c-0.446,0.45-1.195,0.49-1.276,1.275
	c0,0.635-0.37,1.354,0.151,1.84c2.704,0.749,5.298,1.578,7.923,2.554l0.451-0.228c0.297-0.708,0.375-1.462,0.375-2.292
	c0.038-0.634-0.713-0.783-1.013-1.24c-0.226-0.705-0.156-1.46-0.262-2.247c0,0-0.038-1.647,0.036-2.174
	c0.226-5.179,0.413-10.212,0.79-15.353c0.148-0.149,0.336-0.035,0.557-0.035c0.341,0.372,0.753,0.899,0.907,1.425
	c0,0.299,0.634,2.625,0.634,2.625c0.187,0.377,0.563,0.641,0.94,0.897C32.829,83.553,33.243,83.369,33.392,83.105z"/>
<path fill="#00518B" d="M68.935,95.342c-0.115-0.229-0.188-0.565-0.492-0.6c-0.864,0.222-1.725,0.448-2.407,1.047
	c-0.37,1.126-0.48,2.402-1.195,3.417c-0.749,0.974-1.692,1.952-2.927,1.803c-0.297-0.115-0.149-0.457-0.264-0.641
	c0-3.19-0.226-6.419-0.113-9.533c0.151-0.109,0.08,0.11,0.151,0.076c0.077-0.185,0.3,0,0.336-0.228
	c0.341,0.043,0.821-0.167,1.238-0.185c1.253-0.056,1.905-0.413,2.033-1.126c0.223-0.714-0.197-1.39-0.377-2.104
	c-1.127,0.21-2.14,0.263-3.119,0.413c-0.149-0.071-0.297-0.264-0.336-0.449l-0.11-3.223c0.11-1.543-0.079-3.081,0.072-4.693
	c0.077-0.343,0.077-0.791,0.375-0.939l-0.034-0.114c0.223,0.041,0.336,0,0.521,0.041c0.713,0.749,1.428,1.686,1.807,2.66
	c0.413,0.828-0.082,2.253,1.046,2.554c0.943-0.035,1.953-0.148,2.517-0.942c-0.036-0.299,0-1.539-0.036-1.838l0.036-4.465
	l-0.185-0.635c-0.079-0.228-0.264-0.492-0.566-0.415c-0.71,0.485-1.651,0.301-2.443,0.673c-3.337,0.304-6.19,0.789-9.415,1.019
	c-0.376-0.077-0.715,0.187-1.089,0.148c-0.341,0.228-0.341,0.673-0.449,1.051c-0.228,1.459,1.461,0.749,1.948,1.688l0.149,0.977
	v5.141l0.115,10.47c-0.115,1.503,0.189,3.115-0.115,4.579c-0.636,0.641-1.497,1.018-1.84,1.951c-0.221,0.378-0.108,0.864,0.12,1.279
	c0.223,0.299,0.557,0.749,1.013,0.597c2.548-0.15,4.99-0.298,7.651-0.413c0,0,0.828-0.185,1.092-0.109c0,0,1.804-0.148,1.804-0.342
	h-0.043c0,0,1.502-0.263,2.253-0.333c0.262-0.262,0.6,0,0.9-0.228c0.34-0.223,0.604-0.485,0.604-0.898
	C68.935,100.111,68.935,97.665,68.935,95.342z"/>
<path fill="#00518B" d="M51.222,101.494c-0.346-0.749-0.115-1.652-0.346-2.367c0.115-5.214,0.346-10.697,0.379-16.095
	c0.115-1.053-0.115-2.253,0.372-3.229l0.674-0.636c0.264-0.456,0.264-0.942,0.23-1.469c-0.185-0.263-0.494-0.521-0.825-0.447
	c-1.876,0-3.681,0-5.557,0c-0.792,0.076-1.541-0.228-2.212,0.149c-0.492,0.485-0.189,1.126,0.038,1.612
	c0.485,0.305,0.864,0.791,0.934,1.355c0.041,2.289,0.041,4.577,0,6.753c-0.185,0.339,0.149,1.054-0.3,1.24l-1.387-0.151
	c-0.447-0.036-1.123-0.111-1.574-0.111c-0.077-2.516,0-5.031,0.036-7.661c0.151-0.933,1.091-1.161,1.612-1.837l0.039-0.6
	c0-0.413-0.338-0.635-0.674-0.787l-4.804-0.491c-1.056,0.078-2.176-0.597-3.229-0.036c-0.372,0.301-0.223,0.75-0.302,1.2
	c0.115,0.826,1.166,1.013,1.243,1.881c-0.264,5.478-0.336,11.56-0.528,17.036c-0.264,0.977,0.228,2.028-0.413,2.852
	c-0.259,0.75-1.276,0.457-1.579,1.165c-0.182,0.675-0.261,1.425-0.033,2.066c0.228,0.187,0.528,0.148,0.825,0.148
	c2.812,0.337,5.442,0.943,8.182,1.126c0.182-0.035,0.261-0.263,0.449-0.155c0.564-0.372,0.449-1.047,0.492-1.647
	c-0.115-0.635-0.864-0.828-1.279-1.234c-0.525-0.492-0.3-1.167-0.3-1.767c0.3-2.774-0.077-5.37,0.187-8.223
	c0.113-0.035,0.264,0.042,0.187-0.108c0.938,0,1.953,0.036,2.927,0.301c0.372,0.265,0,0.82,0.188,1.277
	c-0.113,2.51-0.034,4.947,0,7.542c-0.149,0.823-0.864,1.349-1.354,2.025c-0.446,0.787-0.029,1.727,0.49,2.361
	c2.632,0.114,5.216,0.148,7.961,0.456l0.485-0.263c0.413-0.526,0.413-1.389,0.264-2.033
	C52.497,101.986,51.592,102.022,51.222,101.494z"/>
<path fill="#00518B" d="M104.701,88.132c-0.265,0.825-0.641,1.58-0.941,2.367c-0.677,1.092-1.425,2.511-2.817,2.551
	c-0.451,0-0.782-0.226-1.118-0.482c-1.094-1.622-1.358-3.646-1.732-5.557c-0.187-1.468-0.338-3.046-0.449-4.544
	c-0.223-1.054-0.039-1.877-0.223-2.929c0.185-1.196-0.192-2.503,0.072-3.75c0.151-0.714,0.225-1.505,0.225-2.253
	c0.303-0.6,0.338-1.39,0.9-1.805c0.075-0.22,0.449-0.22,0.643-0.22c0,0,0.598-0.264,0.818,0.035
	c1.656,0.828,1.583,2.818,1.843,4.392c0.182,0.301,0.525,0.451,0.864,0.451c0.674-0.337,1.31-0.6,1.835-1.242
	c0-2.738-0.185-5.626-0.148-8.33c-0.075-0.228-0.149-0.492-0.449-0.413c-0.643,0.342-1.392,0.378-1.92,0.864
	c-0.256,0.412-0.484,0.938-0.931,1.196c-0.379-0.333-0.9-0.485-1.349-0.447c-0.792-0.148-1.694,0-2.447,0.149
	c-1.046,0.114-2.164,0.653-2.889,1.39c-1.989,2.03-2.851,4.842-3.264,7.622c-0.072,1.834-0.6,3.487-0.23,5.29
	c-0.033,1.423,0.195,2.926,0.531,4.276l-0.188,0.075l0.188,0.114c0,0-0.267,0.337-0.336,0.187c0,0-0.343-0.486-0.343-0.679
	c-0.292-0.256-0.372-0.818-0.669-1.161c-1.725-1.989-3.155-4.049-4.581-6.153c-0.864-1.389-1.766-3.229-1.051-4.807
	c0.074,0,0.148-0.184,0.226-0.035v-0.148c0.264-0.036,0.448-0.036,0.712,0c0.897,0.824,1.2,1.989,1.692,3.001
	c0.561,0.79,0.484,1.875,1.195,2.516c0.83-0.079,1.355-0.897,1.956-1.39c0.3-0.412,0-0.937,0-1.425
	c-0.228-1.989-0.195-4.131-0.451-6.047c0.108-0.299-0.041-0.521-0.262-0.743c-0.643-0.229-0.94,0.411-1.392,0.714
	c-0.336,0.184-0.413,0.6-0.782,0.6c-0.979-0.644-2.255-0.571-3.381-0.492c-1.125,0.299-2.138,0.826-3.081,1.539
	c-1.874,1.802-2.438,4.464-2.1,7.016c0.338,1.767,0.751,3.528,1.5,5.141c1.691,2.554,3.642,4.992,5.406,7.546
	c0.861,1.425,1.656,3.493,0.643,5.106c-0.343,0.413-0.907,0.561-1.392,0.492c-2.217-1.691-2.668-4.585-4.017-6.763
	c-0.676-0.148-1.389,0.115-1.838,0.679c-0.151,1.126,0,2.253,0.072,3.38c-0.036,1.797,0.148,3.825,0.148,5.74l0.043,1.048
	c0.07,0.229,0.293,0.416,0.562,0.377c0.787-0.339,1.646-0.825,2.027-1.653c0.151-0.114,0.069-0.407,0.333-0.337
	c1.762,0.864,3.53,0.829,5.442,0.451c1.243-0.451,2.404-1.2,3.266-2.212c1.048-1.732,1.576-3.722,1.612-5.851
	c0.041-0.343-0.223-0.679-0.074-1.022c0.038,0,0.151-0.035,0.187,0.044c0.039,0.069-0.072,0.034-0.113,0.069l0.041,0.042
	c0.072,0.031,0.187-0.042,0.223,0.073l-0.151,0.035c0.077,0.114,0.151-0.077,0.23,0.038l-0.079,0.11c0.036,0,0.079-0.035,0.113,0
	l-0.077,0.118c0.077-0.038,0.113,0.035,0.149,0.07l-0.072,0.079c0,0,1.197,2.438,2.104,3.494c1.164,1.46,2.889,2.361,4.763,2.098
	c0.792-0.108,1.425-0.565,2.141-0.937c1.915-1.955,3.414-4.356,4.055-6.981c0.072-0.377,0.259-0.942-0.077-1.241
	C105.679,88.325,105.221,87.875,104.701,88.132z"/>
<path fill="#00518B" d="M131.723,63.311c-0.039,0.114,0,0.114,0.038,0.15c0,0,1.008,1.469,1.2,2.253
	c0.151,0.485,0.37,1.314,1.084,1.091c0.413-0.19,1.013-0.377,1.013-0.939c0-0.6-0.072-1.354,0-1.989
	c-0.11-1.13-0.11-2.475-0.11-3.646c0-0.784-0.974-0.447-1.348-0.299c-3.974,1.127-8.033,1.727-12.048,2.666
	c-0.376,0.073-0.871,0.149-1.012,0.565v5.368l-0.041,0.337c-0.115,0.075-0.039,0.11-0.039,0.183h-0.148l-0.115-0.183l-0.034-0.114
	c-0.128-0.322-0.264-0.266-0.343-0.565c-0.864-1.498-1.946-3.231-3.674-3.9c-1.541-1.206-3.793-0.527-5.368,0.184
	c-4.917,2.555-5.406,8.485-6.192,13.365c0,3.787,0.749,7.544,2.14,10.923c1.127,1.797,2.253,4.088,4.578,4.421
	c1.797,0,3.455-0.67,4.77-1.876c1.572-1.348,2.882-3.221,3.709-5.062c0.265-1.162,0.979-2.139,1.205-3.345
	c0.713-2.814,0.826-5.963,0.6-8.856c-0.3-1.462-0.34-3.075-0.94-4.465l-0.072-0.076c0.749-0.038,1.805,0.226,2.246-0.828
	c0.12-1.2,0.456-2.44,1.099-3.409h0.105c0,0,0.636-0.564,0.715-0.491l0.185,3.677c0.041,0.902,0,1.876,0.08,2.704
	c0,4.579,0.264,9.419,0.264,14.111c-0.302,1.277-1.992,1.613-1.956,2.924c0.149,0.342-0.372,0.492-0.036,0.755
	c-0.033,0.451,0.264,0.638,0.449,0.901c2.961-0.828,6.083-1.611,8.972-2.291c0.451-0.077,0.415-0.563,0.557-0.864
	c-0.105-0.561,0.346-1.012,0.12-1.574c-0.413-0.977-1.766-0.228-2.069-1.389c-0.148-1.613-0.182-3.005-0.182-4.659
	c0.034-4.842-0.336-9.755-0.264-14.667l-0.072-0.15c0.021-0.166,0.016-0.448,0.091-0.636l0.05-0.306
	c0.156-0.114,0.252-0.087,0.413-0.184c0.022,0.017,0.08,0.017,0.116,0.027L131.723,63.311z M112.465,66.65l0.115-0.114
	c0.221,0.041,0.336-0.035,0.6,0c0.451,0,0.6,0.57,0.749,0.939c0.643,2.103,0.792,4.47,0.904,6.717
	c0.108,2.405,0.223,4.658,0.038,6.981c-0.299,2.368-0.415,4.992-1.058,7.318c-0.221,0.343-0.298,0.754-0.713,0.939l-0.218-0.071
	l-0.038,0.109c-1.31-0.337-0.905-1.949-1.277-3.005c-0.153-0.974-0.153-2.094-0.297-3.038c0.034-3.642-0.53-7.209-0.115-10.881
	c-0.043-2.03,0.562-3.941,1.161-5.706L112.465,66.65z"/>
<path fill="#00518B" d="M289.458,104.084c-0.823,0.526-1.241,1.352-1.908,2.025c-0.793,0.412-1.656,1.167-2.481,0.942l-0.081,0.069
	c-0.257-0.438-0.07-0.783-0.024-1.2c1.422-5.29,3.22-10.469,4.799-15.723c0.41-0.755,0.749-1.574,1.574-2.066
	c0.381,0,0.756-0.149,1.13-0.257c0.333-0.715,0.715-1.539,0.411-2.368c-2.586-1.91-5.186-3.83-7.808-5.705l-0.221-0.079
	c-0.645,0.492-0.866,1.354-0.792,2.147c0.825,0.898,1.089,2.174,0.907,3.374c-1.433,4.954-3.043,9.869-4.54,14.674
	c-0.346,1.05-0.533,2.141-1.061,3.081c-0.297,0.073-0.672-0.041-0.97,0c-0.451,0.521-0.638,1.2-0.638,1.875
	c0.069,0.299,0.367,0.563,0.638,0.67l8.18,6.162l1.538,1.348h0.223l0.264-0.749c0.679-2.253,1.236-4.579,1.989-6.796
	C290.441,104.874,289.985,104.424,289.458,104.084z"/>
<path fill="#00518B" d="M303.948,94.964l-7.21-6.683h-0.18c-0.381,0.228-0.487,0.641-0.569,1.018
	c-0.708,1.537,0.947,2.511,0.833,3.979c-1.504,5.214-2.892,10.542-4.542,15.646c-0.451,1.129-0.61,2.817-2.143,2.932
	c-0.936,0.263-0.9,1.198-1.087,1.989l0.408,0.634c2.517,2.666,5.185,5.027,7.515,7.772c0.443,0.634,0.785,1.313,1.428,1.84
	c0.215,0.07,0.403-0.08,0.598-0.228c0.374-1.092,0.643-2.253,1.012-3.339c0.333-1.275,0.672-2.558,1.087-3.757
	c0.146-0.784-0.449-1.383-1.017-1.875c-0.224-0.069-0.257,0.188-0.439,0.228c-0.574,0.823-1.099,1.727-1.842,2.289l-1.061,0.263
	l-0.18-0.075c-0.487-0.451-0.679-1.2-0.456-1.803c1.953-5.664,3.234-11.561,5.036-17.265c0.341-0.711,1.077-1.048,1.757-1.197
	c0.374,0.035,0.749,0.111,0.942-0.301C304.099,96.39,304.55,95.57,303.948,94.964z"/>
<path fill="#00518B" d="M246.998,85.604c1.651-5.779,3.299-11.674,5.067-17.486l0.151-0.157c0,0,0.292-0.07,0.341,0l0.297,0.263
	c0.146,0.451,0.223,0.978,0.334,1.393c0.187,0.933-0.257,1.946,0.34,2.774c0.408,0.377,0.826,0.978,1.428,0.754
	c0.374-0.491,0.338-1.056,0.525-1.617c0.113-0.188,0-0.413,0.182-0.565c0.345-1.197,0.569-2.475,1.059-3.638
	c-0.046-0.527,0.516-1.126-0.116-1.497c-3.98-1.466-7.958-2.894-11.891-4.357c-0.305,0.114-0.679,0.152-0.866,0.451l-1.135,3.864
	c0.082,0.185-0.265,0.677-0.265,0.677c-0.069,0.038-0.438,0.45-0.556,0.45l0.072-0.678c-0.036-1.61-0.633-3.072-1.346-4.463
	c-1.089-1.39-2.517-2.516-4.098-3.041c-0.443-0.224-0.936-0.148-1.379-0.262c-1.123,0.073-2.26,0.415-3.266,0.977
	c-1.276,0.75-2.33,2.139-3.266,3.375c-0.797,1.354-1.468,2.931-1.919,4.47c-0.149,0.577-0.562,0.954-0.521,1.139
	c-0.115,0.034-0.343-0.167-0.413-0.24c0,0,0.115-0.15,0-0.228c0.449-2.815,0.441-6.718-0.593-8.687
	c-0.744-1.423-1.313-2.286-2.673-3.133c-2.039-1.259-4.281-1.692-6.118-0.522c-0.229,0-0.643,0.522-0.792,0.563
	c-1.46,1.126-2.509,2.774-3.301,4.391c-0.521,0.451-1.33,2.362-1.613,3.637c-0.262,1.313-0.749,2.475-1.046,3.795
	c-0.456,2.545-0.571,5.439,0.105,7.914c0.713,1.464,1.133,3.081,2.14,4.352c1.013,1.202,2.404,2.402,4.057,2.294
	c0.406,0,0.861-0.114,1.198-0.191c1.243-0.415,2.102-1.313,3.153-1.983c0.79-0.942,1.761-1.54,2.294-2.704
	c0.633-0.604,1.024-1.629,1.332-2.414c0.148-0.149,0.353-1.114,0.353-1.149c0.28-0.644,0.641-1.319,0.641-1.319l0.259-0.372
	c0,0-0.036,0.828-0.036,0.898c0,0-0.223,4.659,0.116,6.94c0.561,2.367,1.835,5.106,4.537,5.667c1.241,0.378,2.294,0.079,3.376-0.222
	c1.13-0.483,2.184-1.276,3.042-2.18c1.131-0.972,1.692-2.362,2.558-3.523c0.749-1.389,1.241-2.967,1.802-4.464
	c0.259-1.091,0.634-2.069,0.785-3.157c0.223-1.428,0.297-2.967,0.528-4.315c0.105-0.114,0.221,0.043,0.262,0.043
	c-0.041,0.036-0.11,0-0.192,0.036c0.036,0.069,0.305-0.036,0.305,0.108c0,0,0.638,0.562,0.895,0.675c0.345,0,0.825,0.15,1.053-0.222
	c0.415-1.088,0.825-2.288,1.807-2.887c0-0.191,0.674-0.27,0.784-0.191c-0.033,0.035,0.26,0.035,0.224,0.299
	c-1.651,5.592-4.986,17-4.95,17.193c-0.224,0.263-0.188,0.714-0.492,1.047c-0.34,0.6-1.089,0.565-1.651,0.749l-0.598,0.492
	c-0.304,0.336-0.115,0.828-0.158,1.275c0.194,0.264,0.604,0.108,0.792,0.372c2.55,0.898,5.255,1.726,7.729,2.888
	c0.417-0.447,0.72-1.047,0.533-1.717C247.669,87.442,246.921,86.692,246.998,85.604z M220.144,65.542
	c-0.188,1.538-0.485,3.115-0.749,4.648c-0.715,2.894-1.167,5.969-2.819,8.45c-0.262,0.15-0.411,0.372-0.71,0.413
	c-0.749-0.263-0.792-1.275-0.828-1.989c-0.113-2.401,0.127-4.954,0.456-7.428c0.372-2.847,1.271-5.519,1.869-8.258
	c0.456-0.793,0.345-1.767,1.205-2.326c0.269-0.179,0.634-0.376,0.749-0.342c-0.029-0.125,0.07-0.074,0.145-0.069
	c0.036-0.012,0.066-0.015,0.042-0.001c-0.012,0.005-0.027,0.003-0.042,0.001c-0.025,0.009-0.052,0.02-0.065,0.035
	c1.274,0.413,0.785,2.097,1.046,3.15C220.333,63.024,220.22,64.342,220.144,65.542z M235.452,70.383
	c0,0.562-0.183,1.161-0.264,1.838c-0.521,1.914-0.818,3.979-1.615,5.778c-0.525,1.724-1.005,3.564-2.551,4.77
	c-0.142,0.108-0.48,0.228-0.674,0.035c-0.9-0.978-0.603-2.367-0.672-3.637c0.106-1.39,0.264-2.744,0.597-4.093
	c0.636-1.952,0.866-4.015,1.355-6.08c0.3-1.165,0.715-2.326,1.126-3.453c0.11-1.127,1.386-3.081,1.386-3.081
	c-0.076,0,0.713-0.372,0.79-0.449c0.305,0.041,0.485,0,0.415,0.077l0.598,0.372c0-0.071,0.077-0.036,0.111-0.036
	C236.586,65.09,236.054,67.868,235.452,70.383z"/>
<path fill="#00518B" d="M265.783,83.991c-0.562-0.903-0.979-1.875-1.313-2.818c0,0,1.264-0.561,1.756-0.749
	c1.094-0.562,1.581-1.574,2.07-2.587c0.523-0.977,0.634-2.141,0.634-3.229c0.338-2.028-1.854-3.801-3.242-4.813
	c-2.558-1.197-4.753-2.092-7.339-3.26l-0.151,0.155c-0.679,0.187-0.631,0.972-0.826,1.533l0.569,0.645
	c0.221,0.447,0.07,1.011,0.033,1.539c-1.648,5.81-3.486,11.665-5.185,17.525c-0.326,0.486-0.818,0.75-1.387,0.857
	c-0.415,0.155-0.941,0.08-1.31,0.456c-0.31,0.413-0.37,0.899-0.31,1.425c0.123,0.152,0.232,0.378,0.379,0.415
	c2.627,1.083,5.185,2.248,7.779,3.451c0.782,0.301,1.872,0.039,2.733-0.114c1.164-0.228,2.03-0.825,3.001-1.46
	C266.116,90.824,266.642,87.07,265.783,83.991z M261.687,84.176c-0.223,2.288-0.751,4.47-2.553,6.117
	c-0.484,0.188-1.192,0.565-1.566,0.188c-0.158-0.337,0.221-0.451,0.187-0.714c0.672-2.812,1.497-5.513,2.356-8.217
	c0.159-0.035,0.3,0,0.381-0.114l0.375,0.114C261.317,82.344,261.768,83.243,261.687,84.176z M261.687,78.251
	c-0.036-0.114-0.223-0.038-0.333-0.079c0.156-1.527,1.678-6.639,1.678-6.639c0.235,0.036,0.539-0.041,0.539-0.041
	c0.298-0.037,0.562,0.077,0.701,0.378c0.459,1.196,0.293,2.288-0.033,3.751C263.477,77.206,263.079,78.058,261.687,78.251z"/>
<path fill="#00518B" d="M276.443,98.978c0.328-1.269,0.516-2.511,0.75-3.829c1.087-4.837,3.148-16.737,3.067-17.264
	c0.163-0.409,0.269-0.936-0.142-1.269c-1.123-0.793-2.177-1.504-3.302-2.218c-0.53-0.336-1.053-0.785-1.615-1.047
	c-0.338,0.112-0.379,0.562-0.643,0.785c-2.843,5.104-5.583,10.468-8.443,15.577c-0.182,0.187-0.451,0.821-0.451,0.901
	c-0.151,0.114-0.223,0.333-0.257,0.486c-0.492,0.825-0.938,1.803-1.699,2.438c-0.444,0.64-1.305,0.148-1.721,0.754
	c-0.033,0.559-0.671,1.349,0.036,1.761c1.351,0.6,2.668,1.498,3.979,2.177c0.341,0.149,0.784,0.71,1.053,0.263
	c0.154-0.784,0.598-1.653-0.081-2.291c-0.514-1.197,0.036-2.517,0.645-3.529c0.221-0.413,0.574-1.167,1.023-1.282
	c0,0,0.333,0.041,0.515,0.12c0.749,0.527,1.61,0.978,2.477,1.462c0,1.242-0.447,2.368-0.634,3.53
	c0.187,0.298-0.123,0.564-0.192,0.828c-0.333,0.598-0.861,0.264-1.394,0.219c-0.485,0-0.521,0.57-0.708,0.869
	c-0.11,0.486-0.151,1.051,0.329,1.384c2.481,1.656,5.039,3.195,7.479,4.842c0.188,0.342,0.444,0,0.679,0
	c0.034-0.669,0.188-1.275,0.257-1.91c-0.188-0.565-0.749-0.978-0.866-1.578C276.479,100.444,276.515,99.733,276.443,98.978z
	 M273.283,82.603c-0.408,2.357-0.782,4.803-1.346,7.05c-0.074,0-0.151,0.115-0.115,0.15c-0.562-0.299-1.2-0.671-1.804-1.048
	l-0.07-0.15l-0.041-0.152c0.79-1.91,2.815-5.667,2.815-5.667c-0.03-0.158,0.268-0.155,0.262-0.343
	c-0.038-0.021-0.054-0.061-0.027-0.105c0.019,0.041,0.026,0.075,0.027,0.105c0.028,0.016,0.066,0.023,0.112,0.006l-0.069-0.111
	C273.137,82.23,273.437,82.373,273.283,82.603z"/>
<path fill="#00518B" d="M73.283,88.971c0.948,0,1.708,0.767,1.708,1.707c0,0.947-0.76,1.708-1.708,1.708
	c-0.946,0-1.706-0.761-1.706-1.708C71.577,89.738,72.337,88.971,73.283,88.971z"/>
<path fill="#00518B" d="M195.552,67.616c0.938,0,1.713,0.767,1.713,1.712c0,0.942-0.775,1.708-1.713,1.708
	c-0.95,0-1.716-0.767-1.716-1.708C193.836,68.382,194.602,67.616,195.552,67.616z"/>
<path fill="#005596" d="M153.255,369.939c-91.663-45.075-96.888-127.087-96.956-128.215l-0.005-132.184H161.36l105.447-0.041
	L266.8,241.691c-0.069,1.12-5.291,83.129-96.955,128.215c-2.75,1.354-8.293,4.17-8.293,4.17S157.056,371.82,153.255,369.939z"/>
<path fill="#FFDF00" d="M161.715,364.521c0,0,0.809-0.537,4.362-2.289c87.512-43.041,92.181-120.801,92.181-120.801V118.053
	l-96.896,0.041H64.844v123.381c0,0,4.664,77.755,92.186,120.801C160.583,364.022,161.715,364.521,161.715,364.521z"/>
<path fill="#00518B" d="M190.611,397.432c-0.207-0.672-0.874-0.384-1.334-0.672c-0.604-0.369-0.506-1.108-0.758-1.656
	c-0.31-4.472-0.921-8.945-1.23-13.451c-0.384-2.414-0.68-4.981-0.828-7.429c-0.103-0.35,0.142-0.806-0.074-1.089
	c-2.683,0.177-5.13,0.326-7.805,0.383l-0.2,0.12c-0.235,0.183-0.326,0.447-0.297,0.758c0.106,0.312-1.583,9.828-2.428,14.209
	c0,0-0.677,3.782-1.168,5.547c0.067,0.423-0.18,0.845-0.276,1.268c-0.456,0.911-0.533,2.073-1.377,2.816
	c-0.24,0.188-0.588,0.168-0.72,0.523c0.072,0.394-0.442,0.677-0.148,1.118c0.096,0.62,0.077,1.09,0.765,1.262
	c2.026-0.158,4.01-0.48,5.958-0.72c0.436-0.331,0.412-0.878,0.508-1.339c0.252-0.456-0.269-1.137-0.269-1.137
	c-0.456-0.36-0.979,0.283-1.392-0.202c-0.3-0.278-0.321-0.628-0.461-0.984c0.161-1.271,0.401-2.773,0.562-4.05l0.278-0.144
	c0.27,0.043,0.735,0.067,1.013-0.12c0.806,0.154,1.79-0.25,2.471,0.048c0.149,1.439,0.375,2.846,0.086,4.343
	c-0.207,0.384-0.612,0.797-1.037,0.816c-0.79,0.595-0.439,1.454-0.624,2.342c0.149,0.235,0.053,0.619,0.367,0.715
	c0.972-0.206,1.778-0.096,2.75-0.182c2.181-0.111,4.506-0.183,6.711-0.111C190.343,399.668,190.926,398.526,190.611,397.432z
	 M180.742,389.259c-0.549,0.168-1.653,0.216-2.198,0.192c-0.072-0.682,0.106-1.238,0.125-1.862c0.383-2.001,0.643-3.81,1.089-5.768
	c0.05-0.202,0.41-0.413,0.224-0.658c0.035-0.033,0.079-0.11,0.156-0.072l-0.121,0.072l0.307,0.135c0.149,2.447,0.567,4.78,0.6,7.26
	L180.742,389.259z"/>
<path fill="#00518B" d="M170.717,398.824c-0.369-0.245-0.789-0.418-0.976-0.807c-0.144-0.283-0.166-0.701-0.041-0.969
	c-0.12-2.255-0.079-4.463-0.038-6.747c0.019-3.906-0.11-7.789,0.139-11.7c0.043-0.153,0.24-0.22,0.201-0.374
	c0.691-0.869,2.256-1.286,2.112-2.644c-0.02-0.581-0.153-1.09-0.451-1.521c-0.302-0.211-0.729-0.188-1.046,0.033
	c-0.156,0.153-0.384-0.13-0.504,0.105l-0.041-0.048c-0.08-0.077-0.151-0.034-0.235,0.033c-2.8,0.365-5.538,0.926-8.294,1.143
	c-0.492,0.758-0.341,1.924-0.053,2.711c0.451,0.446,1.065,0.504,1.476,0.945c0.868,0.729,0.353,2.069,0.593,3.038
	c0.012,5.12-0.014,10.389-0.12,15.62c-0.175,0.489-0.151,1.008-0.324,1.497c-0.314,1.036-1.665,1.109-1.859,2.14
	c0.099,0.667-0.13,1.627,0.595,1.929c3.081-0.556,6.325-1.295,9.442-1.81l0.439-0.369c-0.173-0.71,0.091-1.55-0.31-2.183
	C171.233,398.612,170.958,398.756,170.717,398.824z"/>
<path fill="#00518B" d="M161.514,395.056c-0.687-0.139-1.444-0.825-2.087-0.235c-0.497,0.921-0.571,2.001-1.142,2.913
	c-0.516,1.373-1.953,2.524-3.421,2.553c-1.377-0.513-1.368-2.025-1.79-3.157c-0.638-3.983-0.725-8.096-0.351-12.305
	c0.324-0.336,0.024-0.734,0.312-1.075c0.029-0.926,0.372-1.805,1.051-2.366c0.099-0.537,0.749-0.278,1.173-0.345
	c0.305,0.167,0.564,0.523,0.79,0.768c0.542,1.3,0.753,2.735,1.022,4.146c0.099,0.273,0.286,0.547,0.595,0.561
	c0.902-0.129,1.807-0.633,2.411-1.348c-0.132-2.956-0.156-5.585-0.05-8.609c-0.384-0.135-0.83-0.413-1.298-0.312
	c-0.473,0.134-1.03,0.466-1.207,0.965c-0.322,0.374-0.501,0.749-1.058,0.465c-1.296-0.667-2.675-1.066-4.122-0.691
	c-1.284,0.12-2.325,1.243-3.179,2.145c-0.046,0.254-1.341,1.065-2.361,4.481c-0.61,2.049-0.715,3.815-0.946,5.979l0.02,4.958
	c0.211,1.867,0.792,3.599,0.897,5.418c0.024,0.427,0.283,0.82,0.384,1.219c0.84,1.536,1.521,2.918,2.96,3.973
	c1.534,0.518,3.11,0.6,4.804-0.024c1.447-0.48,1.464-0.844,2.249-1.2c0.977-1.094,1.907-2.26,2.423-3.632
	c0.823-1.608,1.356-3.369,2.109-5.01L161.514,395.056z"/>
<path fill="#00518B" d="M227.558,399.063c1.241-2.006,2.791-4.698,3.383-6.33c0.525-1.286,0.448-1.631,0.785-2.979
	c0.407-1.972,0.66-3.426,0.549-3.47c0.151-1.151,0-2.404-0.113-3.608c0.024-0.657-0.578-1.252-0.626-1.881
	c-1.322-2.169-3.649-4.237-6.282-4.439c-0.163,0.144-0.307-0.091-0.496-0.063c-2.026,0.096-4.25,0.585-5.658,1.982
	c-0.768,0.763-1.845,2.27-2.541,3.767c-1.43,3.076-1.857,4.084-2.474,6.872c-0.75,3.34-0.78,5.442-0.58,8.777
	c0.077,1.31,0.777,2.112,1.173,3.172c0.583,1.07,1.36,1.987,2.421,2.644c0.569,0.375,1.229,0.466,1.874,0.725l1.908-0.211
	c1.089-0.269,2.152-0.581,3.061-1.281C224.942,402.207,226.588,400.234,227.558,399.063z M221.367,398.967
	c-0.902,1.439-1.488,1.574-1.488,1.574c-0.389-0.014-0.667,0.062-0.852-0.264c-0.389-0.984-0.149-2.165,0-3.172
	c0.331-1.733,0.396-5.356,3.328-12.909c0.777-2.016,1.62-3.326,2.814-4.376c0,0,0.509-0.053,0.828,0.206
	c0.785,0.657,0.569,2.021,0.653,2.995c-0.612,4.088-0.314,4.799-1.756,8.465c-0.353,0.888-1.109,3.124-2.002,4.905
	C222.281,397.216,221.988,397.974,221.367,398.967z"/>
<path fill="#00518B" d="M200.715,376.581c0.08,0,0.08,0.043,0.113,0.091c0.207-0.153,0.579,0.207,0.72,0.441
	c1.169,1.056,1.181,2.798,1.368,4.238c0.144,0.316,0.125,0.82,0.516,0.869c0.729-0.048,1.687,0.408,2.25-0.197
	c0.403-1.608,0.355-3.437,0.372-5.063c0.08-1.124,0.451-1.992-0.055-2.98c-0.264-0.082-0.926,0.004-1.041-0.072
	c-5.099-0.456-10.212-0.442-15.428-0.931l-0.559,0.365c-0.442,0.49-0.389,1.19-0.451,1.804c0.175,1.833-0.273,3.561-0.189,5.457
	c0.223,0.437,0.641,0.609,1.058,0.82c0.429,0.009,0.89,0.139,1.314,0.082c1.042-1.013,1.018-2.601,1.649-3.815
	c0,0,0.449-0.72,0.6-0.605c0,0,0.197-0.182,0.24-0.072l0.166,2.764c-0.081,4.755-0.177,9.68-0.228,14.368
	c-0.178,0.537,0.199,1.051-0.058,1.588c0.005,1.046-1.31,0.878-1.728,1.723c-0.079,0.154-0.045,0.345-0.245,0.456
	c0.048,0.815-0.172,1.732,0.389,2.294l3.68-0.058c1.625,0.091,3.254,0.033,4.799,0.13c0.581-0.024,1.193,0.269,1.713-0.178
	c0.413-0.801,0.492-1.968,0.132-2.784c-0.298-0.163-0.564-0.412-0.953-0.384c-0.533-0.283-1.104-1.742-0.912-1.694
	c0.043-0.077,0.195-11.004,0.305-16.427C200.394,378.078,200.079,377.022,200.715,376.581z"/>
<path fill="#00518B" d="M212.088,397.13c0.703-5.711,1.583-10.99,2.333-16.691c0.137-0.82,0.749-1.684,1.533-1.934
	c0.953-0.509,1.073-1.699,0.989-2.75l-0.216-0.398c-0.614-0.058-1.277-0.164-1.929-0.264c-2.242-0.269-4.586-0.777-6.873-0.816
	c-0.264-0.125-0.578-0.058-0.923-0.11c-0.197,0.034-0.164,0.188-0.089,0.345c-0.207,0.341-0.338,0.845-0.276,1.234
	c-0.245,0.49,0.161,0.969,0.497,1.367c0.345-0.062,0.213,0.36,0.329,0.518c0.016,0.658,0.264,1.325-0.065,1.896
	c-0.24,2.352-0.636,4.818-0.869,7.069c-0.422,3.201-0.852,6.627-1.235,9.905l-0.732,0.95c-0.429,0.216-1.178,0.379-1.317,0.998
	c-0.18,0.734-0.248,1.506,0.121,2.178c2.9,0.245,6.094,0.902,9.096,1.473c0.792-0.431,0.787-1.439,1.005-2.293l-0.058-0.422
	C212.768,398.862,211.939,398.176,212.088,397.13z"/>
<path fill="#00518B" d="M251.28,391.405l-4.904-3.959c-0.262-0.25-0.562-0.533-0.876-0.533c-0.667,0.389-0.972,1.123-1.183,1.814
	c0.139,0.431,0.082,0.969,0.492,1.214c0.151,0.316,0.667,1.171,0.232,2.212c-0.96,2.178-2.047,4.391-2.973,6.564
	c-0.163,0.269-0.338,0.61-0.489,0.682c0.033,0.038,0,0.081,0,0.081c-0.036,0-0.166,0.154-0.194-0.005
	c0.194-4.491,0.737-8.892,0.931-13.421c0.086-0.341,0.297-0.725,0.077-1.042c0.087-0.307-0.053-0.734-0.312-1.017
	c-1.368-0.629-2.661-1.483-4.038-2.083c-0.574-0.359-1.176-0.739-1.824-1.027c-0.398,0.14-0.667,0.365-0.996,0.658
	c-0.293,0.614-1.049,1.209-0.609,1.963c0.521,0.677,0.809,1.454,0.739,2.352c-1.078,2.783-2.285,5.417-3.619,8.125
	c-1.18,2.749-2.409,5.499-3.743,8.158c-0.557,0.456-1.209,0.312-1.833,0.48c-0.618,0.019-1.366,0.307-1.733,0.868
	c-0.058,0.504-0.384,0.84-0.588,1.257c0.039,0.12,0.519,0.398,1.027,0.585c1.826,0.84,3.687,1.867,5.482,2.74
	c0.394,0.024,0.638,0.648,1.036,0.317c0.362-0.576,0.691-1.142,0.948-1.757c0.736-1.017-0.807-1.229-1.053-1.977
	c-0.188-1.123-0.224-2.48,0.393-3.469c0.053-0.389,3.047-6.243,3.007-6.292c0.029,0,0.04,0.021,0.046,0.043
	c0.03-0.007,0.225,0.37,0.405,0.557c-0.194,2.049-0.288,3.753-0.598,5.715c0.036,0.273-0.057,0.734-0.069,1.046
	c-0.468,2.462-0.289,4.915-0.915,7.328c-0.01,0.389,3.623,2.726,4.986,3.662c0.159,0.043,0.281-0.14,0.211-0.264
	c0.446-0.758,0.516-1.689,0.895-2.486c0.123-0.269,0.183-0.657,0.415-0.878c2.004-4.112,3.899-8.35,5.946-12.501
	c0.739-1.214,0.878-2.995,2.517-3.475c0.435,0.048,0.936-0.164,1.241,0.159c0.504-0.135,1.017-0.351,1.265-0.85
	C251.199,392.451,251.528,391.961,251.28,391.405z"/>
<path fill="#00518B" d="M145.371,393.482c-0.154-1.094-0.077-2.246-0.384-3.339c-0.353-2.227-0.94-4.261-2.233-6.095
	c-0.099-0.466-1.505-2.414-2.109-2.745c-0.23-0.13-0.429-0.24-0.566-0.485c-0.219-0.394-1.258-0.662-1.258-0.662
	c-1.099-0.504-2.313-0.317-3.445,0c-0.974,0.269-1.934,0.974-2.654,1.679c-1.409,1.397-2.141,3.383-3.091,5.135
	c-0.057,0.538-0.417,1.08-0.479,1.651c-0.168,1.387-0.629,2.798-0.691,4.117c-0.077,1.738-0.281,3.489,0.096,5.083
	c0.207,0.858,0.521,1.718,0.566,2.62c0,0,1.166,3.254,1.598,4.237c0.952,1.579,2.09,3.402,3.77,4.166
	c1.168,0.772,2.733,0.552,4.019,0.259c3.095-0.869,5.173-3.825,5.898-6.777c0.509-1.267,0.595-2.692,0.799-4.079
	c0.281-1.387,0.058-2.716,0.185-4.103C145.39,394.145,145.435,393.679,145.371,393.482z M139.425,400.68
	c0.007,0.85-0.297,1.69-0.278,2.505c-0.105,0.581-0.086,1.2-0.413,1.689c-0.398,0.259-0.835,0.633-1.339,0.575
	c-1.036-0.34-1.18-1.545-1.463-2.418c-0.513-1.915-0.753-3.939-1.07-5.97c-0.026-1.583-0.199-3.21-0.221-4.804
	c0.159-1.357-0.099-2.797,0.105-4.064c-0.043-1.209,0.202-2.514,0.585-3.705c0.135-0.34,0.451-0.6,0.658-0.907
	c0.345,0.053,0.59-0.288,0.926,0c0.583,0.015,0.785,0.802,1.128,1.162c0.758,1.416,1.055,3.09,1.149,4.684
	c0.089,0.858,0.175,1.756,0.336,2.658C139.581,394.994,139.603,397.777,139.425,400.68z"/>
<path fill="#00518B" d="M128.498,400.494c-0.063-0.36-0.326-0.672-0.552-0.95c-1.048-2.169-2.805-4.108-4.28-6.051
	c-1.2-1.598-1.627-2.51-2.458-4.064c-0.47-0.888,0.164-1.277,0.327-1.498c0.158-0.11,1.209-0.196,1.209-0.196
	c1.197,1.248,1.876,2.821,2.558,4.362c0.264,0.316-0.034,1.008,0.583,1.051c0.749-0.312,1.365-0.096,1.994-0.581
	c0.208-0.341-0.211-0.552-0.12-0.783c-0.188-2.48-0.211-5.235-0.273-7.793l-0.146-0.24c-0.933,0.048-1.567,0.566-2.253,1.157
	l-0.269,0.072c-0.568-0.447-1.264-0.585-1.91-0.758c-1.55-0.062-3.076,0.082-4.616,1.109c-1.305,0.877-1.771,2.116-2.543,3.133
	c-0.279,1.151-0.367,2.664-0.104,3.868c0.636,2.97,2.097,5.422,3.911,7.85c1.48,1.91,3.169,3.561,4.226,5.615
	c0.125,0.777,0.288,1.67-0.161,2.356c-0.324,0.264-0.473,0.283-1.097,0.269c-0.972-0.14-1.252-0.696-1.78-1.147
	c-0.811-1.267-1.809-2.582-1.593-4.156c-0.148-0.245-0.422-0.254-0.696-0.221c-0.816,0.009-1.372,0.489-1.965,0.858
	c0.098,0.313,0.209,4.891,0.329,7.098c-0.012,0.389,0.211,0.825-0.043,1.209c0.3,0.316,0.644,0.523,1.152,0.427
	c0.657-0.019,0.725-0.826,1.384-0.812c0.915,0.384,2.013,0.116,2.978,0.183c1.128-0.077,2.111-0.504,3.1-1.017
	c1.665-1.219,3.292-2.649,3.846-4.818c0.252-1.632,0.372-2.534-0.089-4.036C128.956,401.376,128.688,400.58,128.498,400.494z"/>
<path fill="#00518B" d="M109.375,395.503c-0.773-1.267-2.371-3.273-0.821-4.367c0.417,0.197,0.732,0.134,0.792,0.456
	c0.844,1.348,1.461,2.721,2.114,4.141c0.264,0.086,0.607,0.365,0.885,0.105c0.389-0.105,1.042,0.23,1.214-0.269l-0.271-5.629
	c-0.012-0.729-0.06-1.632,0.041-2.404c-0.108-0.158-0.096-0.503-0.413-0.394c-0.744,0.36-1.457,0.796-1.948,1.478
	c-0.509,0.057-1.334-0.931-2.323-1.167c-2.63-0.614-4.945,0.572-6.301,2.918c-0.422,0.729-0.593,1.333-0.729,2.025
	c-0.019,1.554,0.278,3.268,0.998,4.65c0.533,1.531,2.003,2.629,2.808,3.935c1.78,2.347,4.225,4.41,5.291,7.242
	c0.17,0.777,0.554,1.919-0.204,2.548c-0.24,0.187-0.473,0.21-0.741,0.129c-1.332-0.83-2.474-2.342-2.932-3.781
	c-0.286-0.514,0.036-0.97-0.336-1.445c-0.641-0.489-1.396,0.024-2.018,0.197c-0.487,0.489,0.149,1.084-0.024,1.665
	c0.166,1.867,0.187,3.685,0.233,5.519c0.137,0.658-0.233,1.262,0.211,1.704c0.54,0.216,1.125,0.077,1.557-0.216
	c0.324-0.226,0.456-0.643,0.729-0.825c0.458,0.321,0.96,0.345,1.454,0.624c1.267,0.202,2.634,0.024,3.729-0.48
	c1.391-0.806,2.875-2.15,3.237-3.844c0.415-0.638,0.41-1.689,0.439-2.462c0.137-0.658-0.144-1.439-0.087-2.135
	C115.056,401.439,111.505,398.905,109.375,395.503z"/>
<path fill="#00518B" d="M101.872,411.65l-0.401-0.595c-0.566-1.536-0.897-3.128-1.349-4.727c-0.921-3.489-3.45-13.269-3.594-14.703
	c-0.01-0.734-0.377-1.373-0.313-2.107c-0.028-0.273,0.029-0.772-0.479-0.677c-1.992,0.327-4.295-0.11-6.371,0.278
	c-0.281,0.417,0.331,0.715,0.113,1.209c-0.254,1.929-0.547,3.662-0.845,5.438c-0.549,3.469-0.974,6.829-1.67,10.168
	c-0.269,0.964-0.228,2.049-0.533,2.966c-0.163,1.43-1.536,0.725-2.253,1.43c-0.377,0.652,0.029,1.286,0.281,1.79
	c1.809,0.379,3.542,0.749,5.346,1.276c0.504-0.057,0.984,0.543,1.389,0.087c0.257-0.648,0.36-1.42-0.05-2.011
	c-0.871-0.465-1.972-1.002-2.13-2.092c-0.106-0.317-0.02-0.701-0.163-0.931c0.11-0.893,0.177-1.704,0.441-2.51
	c1.459,0.202,2.849,0.375,4.348,0.691c0.533,1.416,0.677,2.976,1.128,4.425c0.168,0.782-0.988,0.585-1.171,1.276
	c0.019,0.585,0.075,1.32,0.523,1.68c0.043-0.029,0.233,0.01,0.233,0.01c2.589,0.288,5.099,0.484,7.849,0.432
	c0.12-0.072,0.78-0.096,1.058-0.163c0.636-0.437,0.118-1.152,0.06-1.704C103.107,411.886,102.327,412.016,101.872,411.65z
	 M92.842,403.973c-1.003-0.23-1.967-0.226-3.081-0.461c0.048-2.553,0.792-5.077,1.08-7.673c0.12-0.034,0.005-0.148,0.005-0.23
	l0.235,0.044l0.108,0.167c0,0.115,0.177,0.427,0.251,0.667c0.418,2.337,1.085,4.492,1.425,6.79c0.269,0.125,0.06,0.466,0.216,0.581
	L92.842,403.973z"/>
<path fill="#00518B" d="M81.239,400.594c0.945,0,1.711,0.758,1.711,1.708c0,0.946-0.766,1.708-1.711,1.708
	c-0.943,0-1.713-0.763-1.713-1.708C79.526,401.352,80.296,400.594,81.239,400.594z"/>
<path fill="#008A57" d="M127.73,156.803c2.289,3.997-0.737,8.229-0.737,8.229c3.41,1.377,5.308-1.086,5.308-1.086
	C134.583,157.091,127.73,156.803,127.73,156.803z"/>
<path fill="#008A57" d="M108.453,162.659c3.57,1,5.71,7.713,5.71,7.713c0.573-2.145,3.426-4.431,3.426-4.431
	C115.416,161.921,108.453,162.659,108.453,162.659z"/>
<path fill="#008A57" d="M111.659,176.794c-6.227-1.001-8.858,4.535-8.858,4.535c5.211-1.029,8.225,0.18,8.225,0.18
	C110.166,179.222,111.659,176.794,111.659,176.794z"/>
<path fill="#008A57" d="M108.026,212.634c3.709,0.576,6.711,4.141,6.711,4.141c-0.285-1.425,1.332-3.369,1.332-3.369
	C113.259,210.464,108.026,212.634,108.026,212.634z"/>
<path fill="#008A57" d="M148.929,176.056c-1.173,0.309-4.167-0.047-4.167-0.047c-6.215-0.936-1.44-7.917-1.44-7.917
	c-2.822,0.371-4.314,2.416-4.314,2.416c-3.825,4.594-0.029,8.675-0.029,8.675c2.03,2.997,8.029,1.715,8.029,1.715
	c5.782-1.996,10.26,1.132,10.26,1.132C156.815,175.883,148.929,176.056,148.929,176.056z"/>
<path fill="#008A57" d="M109.991,227.458c-5.176,7.265-1.049,10.488-1.049,10.488c1.349-3.961,3.911-5.358,3.911-5.358
	C110.687,230.975,109.991,227.458,109.991,227.458z"/>
<path fill="#008A57" d="M119.063,249.312c-0.096-4.303,3.671-7.686,3.671-7.686c-3.575-0.146-4.761-2.368-4.761-2.368
	C114.211,246.178,119.063,249.312,119.063,249.312z"/>
<path fill="#008A57" d="M133.186,250.189c-1.919-4.179-7.685-3.632-7.685-3.632c3.237,3.014,3.194,6.843,3.194,6.843
	C129.978,251.792,133.186,250.189,133.186,250.189z"/>
<path fill="#008A57" d="M123.661,264.216c-8.137,3.426-5.034,13.494-5.034,13.494c3.426-5.144,7.407-5.677,7.407-5.677
	C122.084,268.617,123.661,264.216,123.661,264.216z"/>
<path fill="#008A57" d="M127.788,276.842c-5.615,4.693-0.689,9.675-0.689,9.675c1.08-2.855,5.555-5.917,5.555-5.917
	C129.122,279.424,127.788,276.842,127.788,276.842z"/>
<path fill="#008A57" d="M164.571,296.992c-1.284-3.009,0.11-6.757,0.11-6.757c-6.536,1.502-6.433,9.751-6.433,9.751
	C161.466,296.882,164.571,296.992,164.571,296.992z"/>
<path fill="#008A57" d="M163.174,306.983c-3.954,3.69-1.176,9.387-1.176,9.387c0.859-3.11,5.015-6.545,5.015-6.545
	C164.426,308.528,163.174,306.983,163.174,306.983z"/>
<path fill="#008A57" d="M181.169,311.341c-2.039,1.065-5.893,0.643-5.893,0.643c-0.513,5.063,5.999,6.963,5.999,6.963
	C179.778,315.938,181.169,311.341,181.169,311.341z"/>
<path fill="#008A57" d="M161.547,334.257c-2.093,0-3.78,1.693-3.78,3.784c0,2.092,1.688,3.785,3.78,3.785
	c2.093,0,3.788-1.693,3.788-3.785C165.335,335.95,163.64,334.257,161.547,334.257z"/>
<path fill="#CA0039" d="M161.547,332.979c1.042,0,2.002,0.36,2.762,0.955l2.673-6.709c-6.022-3.354-10.862,0-10.862,0l2.67,6.709
	C159.551,333.339,160.511,332.979,161.547,332.979z"/>
<path fill="#008A57" d="M176.543,340.148c0,0-1.339,0.807-1.526-0.561c0,0-0.132-0.955,0.753-2.011c0,0,1.207-3.315-1.046-4.496
	c0,0,0.749,2.39-1.181,2.212c0,0-0.312-3.811-3.849-4.775c0,0,2.524,4.352-0.132,6.512c0,0,2.279,4.132-1.905,4.967
	c0,0,3.429-4.63-1.716-6.238c0,0,2.04,6.526-4.06,7.122h-0.652c-6.114-0.595-4.07-7.122-4.07-7.122
	c-5.139,1.608-1.72,6.238-1.72,6.238c-4.177-0.835-1.898-4.967-1.898-4.967c-2.654-2.16-0.134-6.512-0.134-6.512
	c-3.539,0.964-3.854,4.775-3.854,4.775c-1.919,0.178-1.178-2.212-1.178-2.212c-2.248,1.181-1.044,4.496-1.044,4.496
	c0.881,1.056,0.754,2.011,0.754,2.011c-0.183,1.368-1.526,0.561-1.526,0.561c-0.216,2.251,2.146,2.083,2.146,2.083
	c1.501-0.273,1.329,1.08,1.329,1.08c0.907-1.233,2.414-0.59,2.414-0.59c0.322,1.824-1.71,1.281-1.71,1.281
	c0.144,0.85,1.065,0.859,1.065,0.859c-0.046,1.958-3.17,2.053-3.17,2.053c3.042,3.014,7.263-0.911,7.263-0.911
	c2.695-2.496,4.691-0.696,4.691-0.696v0.806h1.929v-0.806c0,0,1.996-1.8,4.694,0.696c0,0,4.218,3.925,7.257,0.911
	c0,0-3.121-0.096-3.172-2.053c0,0,0.924-0.01,1.073-0.859c0,0-2.039,0.543-1.713-1.281c0,0,1.501-0.643,2.414,0.59
	c0,0-0.178-1.353,1.33-1.08C174.398,342.231,176.761,342.399,176.543,340.148z"/>
<path fill="#008A57" d="M210.851,290.592c-2.094,0-3.782,1.693-3.782,3.784c0,2.092,1.688,3.785,3.782,3.785
	c2.092,0,3.788-1.693,3.788-3.785C214.638,292.285,212.942,290.592,210.851,290.592z"/>
<path fill="#CA0039" d="M210.851,289.313c1.041,0,2.001,0.36,2.761,0.955l2.673-6.708c-6.022-3.354-10.862,0-10.862,0l2.67,6.708
	C208.854,289.673,209.813,289.313,210.851,289.313z"/>
<path fill="#008A57" d="M225.845,296.483c0,0-1.339,0.806-1.526-0.562c0,0-0.131-0.955,0.753-2.011c0,0,1.207-3.315-1.046-4.496
	c0,0,0.749,2.39-1.181,2.212c0,0-0.312-3.81-3.849-4.775c0,0,2.524,4.353-0.131,6.512c0,0,2.28,4.131-1.904,4.967
	c0,0,3.427-4.631-1.717-6.238c0,0,2.039,6.526-4.06,7.121h-0.653c-6.114-0.595-4.07-7.121-4.07-7.121
	c-5.139,1.607-1.721,6.238-1.721,6.238c-4.176-0.835-1.897-4.967-1.897-4.967c-2.654-2.16-0.135-6.512-0.135-6.512
	c-3.54,0.965-3.853,4.775-3.853,4.775c-1.92,0.178-1.179-2.212-1.179-2.212c-2.248,1.181-1.043,4.496-1.043,4.496
	c0.879,1.056,0.753,2.011,0.753,2.011c-0.182,1.367-1.525,0.562-1.525,0.562c-0.216,2.25,2.145,2.083,2.145,2.083
	c1.502-0.273,1.329,1.079,1.329,1.079c0.907-1.233,2.414-0.59,2.414-0.59c0.322,1.823-1.711,1.281-1.711,1.281
	c0.144,0.85,1.065,0.859,1.065,0.859c-0.044,1.958-3.168,2.054-3.168,2.054c3.042,3.014,7.262-0.912,7.262-0.912
	c2.695-2.495,4.691-0.695,4.691-0.695v0.806h1.929v-0.806c0,0,1.997-1.8,4.693,0.695c0,0,4.219,3.926,7.259,0.912
	c0,0-3.123-0.096-3.172-2.054c0,0,0.923-0.009,1.071-0.859c0,0-2.039,0.542-1.713-1.281c0,0,1.503-0.643,2.414,0.59
	c0,0-0.177-1.353,1.33-1.079C223.7,298.566,226.064,298.733,225.845,296.483z"/>
<path fill="#008A57" d="M235.416,237.147c-2.093,0-3.78,1.693-3.78,3.785c0,2.091,1.688,3.784,3.78,3.784
	c2.093,0,3.788-1.693,3.788-3.784C239.204,238.84,237.509,237.147,235.416,237.147z"/>
<path fill="#CA0039" d="M235.416,235.869c1.042,0,2.002,0.36,2.762,0.955l2.673-6.709c-6.022-3.354-10.861,0-10.861,0l2.67,6.709
	C233.42,236.229,234.38,235.869,235.416,235.869z"/>
<path fill="#008A57" d="M250.412,243.038c0,0-1.339,0.807-1.526-0.561c0,0-0.132-0.955,0.753-2.011c0,0,1.207-3.316-1.046-4.497
	c0,0,0.749,2.39-1.181,2.212c0,0-0.312-3.81-3.849-4.775c0,0,2.524,4.353-0.132,6.512c0,0,2.28,4.132-1.905,4.967
	c0,0,3.429-4.63-1.716-6.238c0,0,2.04,6.526-4.06,7.122h-0.652c-6.114-0.595-4.069-7.122-4.069-7.122
	c-5.14,1.608-1.722,6.238-1.722,6.238c-4.177-0.834-1.897-4.967-1.897-4.967c-2.653-2.16-0.134-6.512-0.134-6.512
	c-3.54,0.965-3.854,4.775-3.854,4.775c-1.919,0.178-1.179-2.212-1.179-2.212c-2.248,1.181-1.043,4.497-1.043,4.497
	c0.88,1.056,0.753,2.011,0.753,2.011c-0.183,1.368-1.526,0.561-1.526,0.561c-0.216,2.251,2.145,2.083,2.145,2.083
	c1.502-0.273,1.329,1.08,1.329,1.08c0.907-1.234,2.414-0.591,2.414-0.591c0.322,1.824-1.712,1.281-1.712,1.281
	c0.145,0.85,1.066,0.859,1.066,0.859c-0.045,1.958-3.169,2.054-3.169,2.054c3.042,3.013,7.262-0.912,7.262-0.912
	c2.695-2.496,4.691-0.696,4.691-0.696v0.806h1.929v-0.806c0,0,1.996-1.8,4.694,0.696c0,0,4.218,3.925,7.257,0.912
	c0,0-3.121-0.097-3.172-2.054c0,0,0.924-0.01,1.073-0.859c0,0-2.039,0.542-1.713-1.281c0,0,1.501-0.643,2.414,0.591
	c0,0-0.178-1.354,1.33-1.08C248.267,245.121,250.63,245.289,250.412,243.038z"/>
<path fill="#008A57" d="M235.416,186.676c-2.093,0-3.78,1.693-3.78,3.785c0,2.091,1.687,3.785,3.78,3.785s3.788-1.693,3.788-3.785
	C239.203,188.369,237.509,186.676,235.416,186.676z"/>
<path fill="#CA0039" d="M235.416,185.398c1.041,0,2.001,0.36,2.762,0.955l2.673-6.708c-6.022-3.354-10.862,0-10.862,0l2.671,6.708
	C233.419,185.758,234.379,185.398,235.416,185.398z"/>
<path fill="#008A57" d="M250.411,192.567c0,0-1.338,0.806-1.525-0.562c0,0-0.132-0.955,0.753-2.011c0,0,1.208-3.316-1.046-4.497
	c0,0,0.749,2.39-1.18,2.212c0,0-0.312-3.81-3.849-4.775c0,0,2.523,4.353-0.132,6.512c0,0,2.279,4.132-1.905,4.967
	c0,0,3.429-4.631-1.716-6.238c0,0,2.04,6.526-4.06,7.121h-0.652c-6.114-0.595-4.069-7.121-4.069-7.121
	c-5.14,1.607-1.721,6.238-1.721,6.238c-4.177-0.835-1.897-4.967-1.897-4.967c-2.654-2.16-0.135-6.512-0.135-6.512
	c-3.54,0.965-3.854,4.775-3.854,4.775c-1.919,0.178-1.179-2.212-1.179-2.212c-2.247,1.181-1.042,4.497-1.042,4.497
	c0.88,1.056,0.753,2.011,0.753,2.011c-0.183,1.368-1.526,0.562-1.526,0.562c-0.215,2.25,2.145,2.083,2.145,2.083
	c1.502-0.274,1.33,1.08,1.33,1.08c0.907-1.233,2.414-0.59,2.414-0.59c0.321,1.824-1.712,1.281-1.712,1.281
	c0.144,0.849,1.066,0.859,1.066,0.859c-0.045,1.958-3.169,2.054-3.169,2.054c3.043,3.014,7.263-0.912,7.263-0.912
	c2.695-2.496,4.691-0.696,4.691-0.696v0.806h1.929v-0.806c0,0,1.996-1.8,4.693,0.696c0,0,4.218,3.926,7.258,0.912
	c0,0-3.121-0.096-3.172-2.054c0,0,0.923-0.01,1.073-0.859c0,0-2.04,0.542-1.713-1.281c0,0,1.502-0.643,2.414,0.59
	c0,0-0.178-1.354,1.329-1.08C248.266,194.65,250.629,194.818,250.411,192.567z"/>
<path fill="#008A57" d="M235.416,136.205c-2.093,0-3.78,1.693-3.78,3.785c0,2.092,1.687,3.785,3.78,3.785s3.788-1.693,3.788-3.785
	C239.203,137.898,237.509,136.205,235.416,136.205z"/>
<path fill="#CA0039" d="M235.416,134.927c1.041,0,2.001,0.36,2.762,0.955l2.673-6.709c-6.022-3.354-10.862,0-10.862,0l2.671,6.709
	C233.419,135.287,234.379,134.927,235.416,134.927z"/>
<path fill="#008A57" d="M250.411,142.096c0,0-1.338,0.806-1.525-0.562c0,0-0.132-0.955,0.753-2.011c0,0,1.208-3.316-1.046-4.497
	c0,0,0.749,2.39-1.18,2.212c0,0-0.312-3.81-3.849-4.775c0,0,2.523,4.353-0.132,6.512c0,0,2.279,4.131-1.905,4.967
	c0,0,3.429-4.631-1.716-6.239c0,0,2.04,6.527-4.06,7.122h-0.652c-6.114-0.595-4.069-7.122-4.069-7.122
	c-5.14,1.608-1.721,6.239-1.721,6.239c-4.177-0.835-1.897-4.967-1.897-4.967c-2.654-2.16-0.135-6.512-0.135-6.512
	c-3.54,0.965-3.854,4.775-3.854,4.775c-1.919,0.178-1.179-2.212-1.179-2.212c-2.247,1.181-1.042,4.497-1.042,4.497
	c0.88,1.056,0.753,2.011,0.753,2.011c-0.183,1.368-1.526,0.562-1.526,0.562c-0.215,2.251,2.145,2.083,2.145,2.083
	c1.502-0.273,1.33,1.08,1.33,1.08c0.907-1.233,2.414-0.59,2.414-0.59c0.321,1.823-1.712,1.281-1.712,1.281
	c0.144,0.849,1.066,0.859,1.066,0.859c-0.045,1.958-3.169,2.054-3.169,2.054c3.043,3.014,7.263-0.912,7.263-0.912
	c2.695-2.495,4.691-0.696,4.691-0.696v0.806h1.929v-0.806c0,0,1.996-1.799,4.693,0.696c0,0,4.218,3.925,7.258,0.912
	c0,0-3.121-0.096-3.172-2.054c0,0,0.923-0.01,1.073-0.859c0,0-2.04,0.542-1.713-1.281c0,0,1.502-0.643,2.414,0.59
	c0,0-0.178-1.353,1.329-1.08C248.266,144.179,250.629,144.347,250.411,142.096z"/>
<path fill="#008A57" d="M112.244,290.591c-2.093,0-3.781,1.693-3.781,3.785c0,2.092,1.688,3.785,3.781,3.785
	c2.093,0,3.788-1.693,3.788-3.785C116.032,292.284,114.337,290.591,112.244,290.591z"/>
<path fill="#CA0039" d="M112.244,289.313c1.041,0,2.001,0.36,2.762,0.955l2.673-6.709c-6.022-3.354-10.862,0-10.862,0l2.671,6.709
	C110.248,289.673,111.208,289.313,112.244,289.313z"/>
<path fill="#008A57" d="M127.24,296.482c0,0-1.339,0.806-1.526-0.561c0,0-0.132-0.955,0.754-2.011c0,0,1.207-3.316-1.046-4.497
	c0,0,0.749,2.39-1.181,2.213c0,0-0.312-3.811-3.849-4.775c0,0,2.524,4.353-0.132,6.512c0,0,2.279,4.132-1.905,4.967
	c0,0,3.429-4.631-1.715-6.239c0,0,2.04,6.526-4.06,7.121h-0.652c-6.114-0.595-4.069-7.121-4.069-7.121
	c-5.14,1.607-1.721,6.239-1.721,6.239c-4.177-0.835-1.897-4.967-1.897-4.967c-2.654-2.159-0.134-6.512-0.134-6.512
	c-3.54,0.964-3.854,4.775-3.854,4.775c-1.919,0.177-1.179-2.213-1.179-2.213c-2.248,1.181-1.043,4.497-1.043,4.497
	c0.88,1.056,0.753,2.011,0.753,2.011c-0.183,1.367-1.526,0.561-1.526,0.561c-0.216,2.25,2.145,2.083,2.145,2.083
	c1.502-0.274,1.33,1.08,1.33,1.08c0.907-1.233,2.414-0.59,2.414-0.59c0.322,1.823-1.711,1.281-1.711,1.281
	c0.144,0.849,1.065,0.859,1.065,0.859c-0.045,1.958-3.169,2.054-3.169,2.054c3.042,3.014,7.262-0.912,7.262-0.912
	c2.696-2.495,4.692-0.696,4.692-0.696v0.807h1.929v-0.807c0,0,1.997-1.799,4.693,0.696c0,0,4.218,3.926,7.258,0.912
	c0,0-3.122-0.096-3.172-2.054c0,0,0.924-0.01,1.072-0.859c0,0-2.04,0.542-1.713-1.281c0,0,1.502-0.644,2.414,0.59
	c0,0-0.177-1.354,1.329-1.08C125.094,298.565,127.458,298.732,127.24,296.482z"/>
<path fill="#008A57" d="M136.924,136.205c-2.093,0-3.781,1.693-3.781,3.785c0,2.092,1.688,3.785,3.781,3.785
	s3.788-1.693,3.788-3.785C140.711,137.898,139.017,136.205,136.924,136.205z"/>
<path fill="#CA0039" d="M136.924,134.927c1.042,0,2.001,0.36,2.762,0.955l2.673-6.709c-6.022-3.354-10.862,0-10.862,0l2.671,6.709
	C134.927,135.287,135.887,134.927,136.924,134.927z"/>
<path fill="#008A57" d="M151.919,142.096c0,0-1.339,0.806-1.526-0.562c0,0-0.132-0.955,0.753-2.011c0,0,1.207-3.316-1.046-4.497
	c0,0,0.749,2.39-1.18,2.212c0,0-0.312-3.81-3.849-4.775c0,0,2.524,4.353-0.132,6.512c0,0,2.28,4.131-1.905,4.967
	c0,0,3.429-4.631-1.716-6.239c0,0,2.04,6.527-4.06,7.122h-0.653c-6.113-0.595-4.069-7.122-4.069-7.122
	c-5.14,1.608-1.721,6.239-1.721,6.239c-4.176-0.835-1.897-4.967-1.897-4.967c-2.654-2.16-0.134-6.512-0.134-6.512
	c-3.54,0.965-3.854,4.775-3.854,4.775c-1.919,0.178-1.179-2.212-1.179-2.212c-2.247,1.181-1.043,4.497-1.043,4.497
	c0.88,1.056,0.753,2.011,0.753,2.011c-0.182,1.368-1.526,0.562-1.526,0.562c-0.216,2.251,2.146,2.083,2.146,2.083
	c1.501-0.273,1.329,1.08,1.329,1.08c0.907-1.233,2.414-0.59,2.414-0.59c0.321,1.823-1.711,1.281-1.711,1.281
	c0.144,0.849,1.065,0.859,1.065,0.859c-0.045,1.958-3.169,2.054-3.169,2.054c3.042,3.014,7.262-0.912,7.262-0.912
	c2.695-2.495,4.692-0.696,4.692-0.696v0.806h1.929v-0.806c0,0,1.996-1.799,4.693,0.696c0,0,4.218,3.925,7.258,0.912
	c0,0-3.122-0.096-3.172-2.054c0,0,0.924-0.01,1.072-0.859c0,0-2.04,0.542-1.713-1.281c0,0,1.502-0.643,2.414,0.59
	c0,0-0.178-1.353,1.33-1.08C149.774,144.179,152.137,144.347,151.919,142.096z"/>
<path fill="#008A57" d="M87.679,136.205c-2.093,0-3.781,1.693-3.781,3.785c0,2.092,1.688,3.785,3.781,3.785
	c2.093,0,3.788-1.693,3.788-3.785C91.466,137.898,89.771,136.205,87.679,136.205z"/>
<path fill="#CA0039" d="M87.679,134.927c1.041,0,2.001,0.36,2.762,0.955l2.673-6.709c-6.022-3.354-10.862,0-10.862,0l2.671,6.709
	C85.682,135.287,86.642,134.927,87.679,134.927z"/>
<path fill="#008A57" d="M102.674,142.096c0,0-1.339,0.806-1.526-0.562c0,0-0.132-0.955,0.753-2.011c0,0,1.207-3.316-1.046-4.497
	c0,0,0.749,2.39-1.181,2.212c0,0-0.312-3.81-3.849-4.775c0,0,2.524,4.353-0.132,6.512c0,0,2.279,4.131-1.905,4.967
	c0,0,3.429-4.631-1.716-6.239c0,0,2.04,6.527-4.06,7.122h-0.652c-6.114-0.595-4.07-7.122-4.07-7.122
	c-5.14,1.608-1.721,6.239-1.721,6.239c-4.176-0.835-1.897-4.967-1.897-4.967c-2.654-2.16-0.135-6.512-0.135-6.512
	c-3.54,0.965-3.853,4.775-3.853,4.775c-1.92,0.178-1.179-2.212-1.179-2.212c-2.247,1.181-1.042,4.497-1.042,4.497
	c0.879,1.056,0.753,2.011,0.753,2.011c-0.182,1.368-1.526,0.562-1.526,0.562c-0.216,2.251,2.145,2.083,2.145,2.083
	c1.502-0.273,1.329,1.08,1.329,1.08c0.907-1.233,2.414-0.59,2.414-0.59c0.321,1.823-1.711,1.281-1.711,1.281
	c0.144,0.849,1.065,0.859,1.065,0.859c-0.045,1.958-3.169,2.054-3.169,2.054c3.042,3.014,7.262-0.912,7.262-0.912
	c2.695-2.495,4.691-0.696,4.691-0.696v0.806h1.929v-0.806c0,0,1.997-1.799,4.693,0.696c0,0,4.218,3.925,7.258,0.912
	c0,0-3.122-0.096-3.172-2.054c0,0,0.923-0.01,1.072-0.859c0,0-2.04,0.542-1.713-1.281c0,0,1.502-0.643,2.414,0.59
	c0,0-0.178-1.353,1.329-1.08C100.529,144.179,102.893,144.347,102.674,142.096z"/>
<path fill="#008A57" d="M87.679,186.676c-2.093,0-3.781,1.693-3.781,3.785c0,2.091,1.688,3.785,3.781,3.785
	c2.093,0,3.788-1.693,3.788-3.785C91.466,188.369,89.771,186.676,87.679,186.676z"/>
<path fill="#CA0039" d="M87.679,185.398c1.041,0,2.001,0.36,2.762,0.955l2.673-6.708c-6.022-3.354-10.862,0-10.862,0l2.671,6.708
	C85.682,185.758,86.642,185.398,87.679,185.398z"/>
<path fill="#008A57" d="M102.674,192.567c0,0-1.339,0.806-1.526-0.562c0,0-0.132-0.955,0.753-2.011c0,0,1.207-3.316-1.046-4.497
	c0,0,0.749,2.39-1.181,2.212c0,0-0.312-3.81-3.849-4.775c0,0,2.524,4.353-0.132,6.512c0,0,2.279,4.132-1.905,4.967
	c0,0,3.429-4.631-1.716-6.238c0,0,2.04,6.526-4.06,7.121h-0.652c-6.114-0.595-4.07-7.121-4.07-7.121
	c-5.14,1.607-1.721,6.238-1.721,6.238c-4.176-0.835-1.897-4.967-1.897-4.967c-2.654-2.16-0.135-6.512-0.135-6.512
	c-3.54,0.965-3.853,4.775-3.853,4.775c-1.92,0.178-1.179-2.212-1.179-2.212c-2.247,1.181-1.042,4.497-1.042,4.497
	c0.879,1.056,0.753,2.011,0.753,2.011c-0.182,1.368-1.526,0.562-1.526,0.562c-0.216,2.25,2.145,2.083,2.145,2.083
	c1.502-0.274,1.329,1.08,1.329,1.08c0.907-1.233,2.414-0.59,2.414-0.59c0.321,1.824-1.711,1.281-1.711,1.281
	c0.144,0.849,1.065,0.859,1.065,0.859c-0.045,1.958-3.169,2.054-3.169,2.054c3.042,3.014,7.262-0.912,7.262-0.912
	c2.695-2.496,4.691-0.696,4.691-0.696v0.806h1.929v-0.806c0,0,1.997-1.8,4.693,0.696c0,0,4.218,3.926,7.258,0.912
	c0,0-3.122-0.096-3.172-2.054c0,0,0.923-0.01,1.072-0.859c0,0-2.04,0.542-1.713-1.281c0,0,1.502-0.643,2.414,0.59
	c0,0-0.178-1.354,1.329-1.08C100.529,194.65,102.893,194.818,102.674,192.567z"/>
<path fill="#008A57" d="M87.677,237.146c-2.093,0-3.781,1.693-3.781,3.785c0,2.092,1.688,3.785,3.781,3.785s3.788-1.693,3.788-3.785
	C91.465,238.839,89.771,237.146,87.677,237.146z"/>
<path fill="#CA0039" d="M87.677,235.868c1.042,0,2.001,0.36,2.762,0.955l2.673-6.708c-6.022-3.354-10.862,0-10.862,0l2.67,6.708
	C85.681,236.228,86.641,235.868,87.677,235.868z"/>
<path fill="#008A57" d="M102.673,243.038c0,0-1.339,0.807-1.526-0.562c0,0-0.132-0.955,0.753-2.011c0,0,1.207-3.315-1.046-4.496
	c0,0,0.749,2.39-1.18,2.212c0,0-0.312-3.811-3.849-4.775c0,0,2.524,4.353-0.132,6.512c0,0,2.28,4.132-1.905,4.967
	c0,0,3.428-4.631-1.716-6.239c0,0,2.04,6.526-4.06,7.122H87.36c-6.114-0.596-4.069-7.122-4.069-7.122
	c-5.14,1.608-1.722,6.239-1.722,6.239c-4.176-0.835-1.897-4.967-1.897-4.967c-2.653-2.159-0.134-6.512-0.134-6.512
	c-3.54,0.964-3.854,4.775-3.854,4.775c-1.919,0.178-1.179-2.212-1.179-2.212c-2.248,1.18-1.043,4.496-1.043,4.496
	c0.88,1.056,0.753,2.011,0.753,2.011c-0.183,1.368-1.526,0.562-1.526,0.562c-0.216,2.251,2.145,2.083,2.145,2.083
	c1.502-0.273,1.329,1.08,1.329,1.08c0.907-1.233,2.414-0.59,2.414-0.59c0.321,1.823-1.712,1.281-1.712,1.281
	c0.144,0.85,1.065,0.859,1.065,0.859c-0.045,1.958-3.169,2.054-3.169,2.054c3.042,3.014,7.262-0.911,7.262-0.911
	c2.695-2.496,4.692-0.696,4.692-0.696v0.806h1.929v-0.806c0,0,1.996-1.8,4.693,0.696c0,0,4.218,3.925,7.258,0.911
	c0,0-3.122-0.096-3.172-2.054c0,0,0.924-0.009,1.073-0.859c0,0-2.04,0.542-1.713-1.281c0,0,1.502-0.644,2.414,0.59
	c0,0-0.178-1.353,1.329-1.08C100.528,245.12,102.891,245.289,102.673,243.038z"/>
<path fill="#008A57" d="M186.17,136.205c-2.093,0-3.781,1.693-3.781,3.785c0,2.092,1.688,3.785,3.781,3.785
	c2.093,0,3.788-1.693,3.788-3.785C189.958,137.898,188.263,136.205,186.17,136.205z"/>
<path fill="#CA0039" d="M186.17,134.927c1.042,0,2.001,0.36,2.762,0.955l2.673-6.709c-6.022-3.354-10.862,0-10.862,0l2.671,6.709
	C184.174,135.287,185.134,134.927,186.17,134.927z"/>
<path fill="#008A57" d="M201.166,142.096c0,0-1.338,0.806-1.526-0.562c0,0-0.132-0.955,0.753-2.011c0,0,1.207-3.316-1.046-4.497
	c0,0,0.749,2.39-1.181,2.212c0,0-0.313-3.81-3.849-4.775c0,0,2.524,4.353-0.132,6.512c0,0,2.279,4.131-1.905,4.967
	c0,0,3.428-4.631-1.716-6.239c0,0,2.04,6.527-4.06,7.122h-0.653c-6.113-0.595-4.069-7.122-4.069-7.122
	c-5.139,1.608-1.721,6.239-1.721,6.239c-4.177-0.835-1.897-4.967-1.897-4.967c-2.654-2.16-0.134-6.512-0.134-6.512
	c-3.541,0.965-3.854,4.775-3.854,4.775c-1.919,0.178-1.179-2.212-1.179-2.212c-2.248,1.181-1.043,4.497-1.043,4.497
	c0.88,1.056,0.754,2.011,0.754,2.011c-0.183,1.368-1.527,0.562-1.527,0.562c-0.216,2.251,2.146,2.083,2.146,2.083
	c1.501-0.273,1.33,1.08,1.33,1.08c0.906-1.233,2.414-0.59,2.414-0.59c0.321,1.823-1.712,1.281-1.712,1.281
	c0.145,0.849,1.065,0.859,1.065,0.859c-0.044,1.958-3.168,2.054-3.168,2.054c3.042,3.014,7.262-0.912,7.262-0.912
	c2.695-2.495,4.692-0.696,4.692-0.696v0.806h1.929v-0.806c0,0,1.996-1.799,4.693,0.696c0,0,4.219,3.925,7.258,0.912
	c0,0-3.121-0.096-3.172-2.054c0,0,0.924-0.01,1.073-0.859c0,0-2.04,0.542-1.713-1.281c0,0,1.501-0.643,2.414,0.59
	c0,0-0.178-1.353,1.329-1.08C199.021,144.179,201.384,144.347,201.166,142.096z"/>
<path fill="#CA0039" d="M181.15,164.678c0,0.26-0.855,0.985-1.598,2.027c0.094,0.709,0.568,0.947,0.568,1.827
	c0,1.994-2.514,2.966-2.514,3.913c0,0.436,0.814,0.978,1.83,1.994c2.052,2.053,2.751,5.607,2.969,7.658
	c0.051,0.481-0.295,0.667-0.658,0.667c-0.663,0-1.781-1.111-3.67-1.575c0.988,1.109,1.999,1.851,3.675,4.13
	c1.596,2.169,2.227,3.686,2.227,5.323c0,0.512-0.179,1.024-0.69,1.024c-0.589,0-0.563-0.282-1.715-0.461
	c-1.314-0.204-2.306-0.458-2.662-0.102c-0.384,0.384-0.167,0.734,0.717,2.713c1.51,3.378,3.737,5.784,3.737,6.424
	c0,0.589-0.555,1.169-2.065,1.169c-1.06,0-1.779-0.189-2.8,0.157c0.583,2.176,1.538,4.598,1.538,7.171
	c0,0.793-0.308,3.839-1.447,4.314c-0.443,0-1.064-0.765-1.764-1.671c-1.014-1.313-2.42-2.921-3.239-2.921
	c-0.154,0-0.282,0.16-0.282,0.365c0,1.116,0.53,2.253,1.096,3.271c1.233,2.222,1.71,2.466,1.71,2.836
	c0,0.435-0.63,0.947-1.193,1.331c-0.563,0.384-0.999,0.865-1.537,0.865c-0.843,0-1.381-1.735-1.977-2.578
	c-1.175-1.663-2.503-3.074-3.486-3.932c-1.984,2.548-3.647,4.172-5.286,4.172c-0.538,0-1.104-0.729-1.104-1.368
	c0-0.594,1.586-3.413,1.694-6.494c-3.646,0.908-6.988,1.953-9.392,2.664c-0.094,0.566-0.217,1.583-0.431,2.606
	c0.365,0.157,0.49-0.426,1.401-1.336c0.768-0.768,2.045-0.58,4.249-0.947c0.436-0.073,0.833-0.158,1.228-0.234
	c0.112-0.021,0.244-0.062,0.32-0.062c0,0,0.09,0.009,0.09,0.139c0,0.174-0.078,0.335-0.125,0.499
	c-0.245,0.846-0.489,1.608-0.489,2.012c0,1.868,0.921,3.097,2.815,3.097c2.225,0,3.966-2.839,5.005-3.167
	c2.313,2.574,3.077,4.388,3.962,6.236c0.604-0.395,1.337-0.625,2.263-0.778c3.19,3.729,3.397,5.259,4.454,10.727
	c0.712,3.687,1.115,6.706,1.903,8.569c0.835,1.971,2.971,5.007,5.953,7.99c3.024,3.024,7.82,5.855,10.448,5.855
	c4.121,0,7.465-2.569,7.465-8.698c0-4.44-2.68-9.766-6.467-9.766c-2.15,0-3.686,1.646-4.417,1.646c-0.358,0-0.853-0.416-0.853-1.567
	c0-2.872,1.468-6.971,3.852-8.39c-0.13-0.69-0.696-1.089-0.876-1.089c-0.359,0-0.312,0.51-0.888,1.007
	c-1.229,1.058-2.201,1.826-3.7,1.742c-1.28-0.072-2.481-1.674-2.481-2.791c0-3.354,3.222-4.479,4.322-4.479
	c0.163,0,0.296-0.178,0.155-0.411c-1.317-2.155-4.954-3.197-6.896-3.197c-0.461,0-0.75,0.047-0.996,0.047
	c-0.185,0-0.349-0.131-0.388-0.365c-0.159-0.924,1.234-2.844,2.402-4.013c0.667-0.666,1.354-0.999,2.083-0.999
	c1.19,0,1.938,0.521,2.426,1.009c1.075,1.076,0.616,2.464,1.019,2.464c0.267,0,0.323-1.079,0.323-1.562
	c0-5.515-1.658-10.189-3.011-13.557c-1.878-4.679-3.363-6.291-3.363-10.386c0-4.351,2.765-6.756,4.096-9.06
	c1.572-2.721,4.499-8.044,4.703-8.82c0.241-0.91,0.378-2.728,0.766-4.229c0.282-1.091,0.699-2.091,1.219-2.091
	c1.109,0,2.099,2.128,2.755,4.471c0.516,1.84,0.825,3.402,0.825,4.989c0,1.753-1.413,3.596-2.829,5.904
	c-1.591,2.593-2.855,5.473-2.855,6.086c0,0.218,0.138,0.546,0.266,0.546c0.443,0,0.166-0.507,1.699-2.889
	c1.294-2.012,1.581-2.936,2-3.607c1.103-1.767,3.285-4.368,3.285-7.814c0-1.365-0.445-2.27-0.445-3.926
	c0-1.722,0.487-2.405,1.033-2.405c1.023,0,2.009,1.297,3.567,3.844c1.101,1.798,2.252,3.766,2.252,5.969
	c0,3.686-0.337,4.028-1.57,6.55c-1.519,3.106-4.001,4.77-5.382,7.739c-0.302,0.649-0.679,1.253-0.679,1.548
	c0,0.175,0.093,0.253,0.167,0.253c0.524,0,1.424-1.417,3.33-3.894c2.665-3.462,5.077-7.633,5.077-10.602
	c0-2.38-0.61-4.133-0.61-5.498c0-0.646,0.112-1.065,0.381-1.065c0.703,0,2.155,1.485,3.109,3.261
	c1.149,2.138,1.597,4.742,1.597,8.011c0,7.03-2.858,10.23-6.454,13.826c-3.532,3.532-4.416,3.673-6.732,5.989
	c-1.907,1.906-2.206,4.909-2.206,5.958c0,0.46,0.179,0.942,0.358,0.942c0.32,0,0.295-1.158,1.848-2.711
	c2.228-2.229,5.216-3.923,7.289-3.923c3.635,0,8.02,4.924,8.02,8.899c0,2.321-1.519,6.56-5.147,6.56c-1.926,0-2.7-0.796-2.7-1.479
	c0-0.917,1.793-1.659,1.793-3.498c0-1.835-1.113-4.299-3.03-4.299c-3.082,0-5.02,3.74-5.02,6.367c0,3.43,2.655,7.064,5.225,12.961
	c2.294,4.892,4.375,11.506,4.375,16.294c0,9.225-6.61,14.477-13.205,14.477c-8.748,0-14.267-8.425-16.792-8.425
	c-0.469,0-0.736,0.308-0.736,0.871c0,2.836,4.998,4.018,4.998,9.226c0,2.862-3.138,3.453-3.138,5.579
	c0,0.171,0.065,0.377,0.164,0.591c0.688-0.108,1.292-0.436,2.079-0.841c2.105-1.083,4.752-2.791,8.784-2.791
	c2.069,0,5.33,1.062,5.33,4.461c0,2.089-4.288,3.384-6.629,7.679c2.935-0.743,5.292-3.468,6.519-3.468
	c0.567,0,0.738,0.313,0.738,1.064c0,2.214-2.883,7.031-6.987,10.623c0.403,0.307,0.751,0.444,1.096,0.444
	c1.502,0,2.099-1.7,3.225-1.7c0.393,0,0.557,0.354,0.557,0.937c0,1.055-1.246,3.676-2.978,5.409
	c-1.108,1.107-2.87,2.571-5.012,3.458c0.683,1.532,1.02,3.056,1.02,4.052c0,2.17-0.779,4.527-1.72,6.354
	c-0.957,1.858-1.967,3.166-2.714,3.166c-2.103,0-0.244-5.106-2.426-7.289c-0.52-0.521-1.092-0.785-1.707-0.785
	c-0.904,0-2.345,0.58-2.345,2.456c0,3.499,2.172,4.54,2.172,8.292c0,1.758-1.576,4.129-4.28,4.129c-3.11,0-4.13-3.33-5.587-6.345
	c-0.541,0.952-0.328,2.207-1.45,3.329c-0.486,0.487-1.034,0.654-2.041,0.654c-2.235,0-3.433-1.442-3.433-3.779
	c0-1.666,0.928-3.594,2.087-5.641c-0.896-1.132-1.333-2.777-1.333-4.205c0-5.835,7.678-7.012,12.08-11.415
	c0.998-0.998,2.696-3.839,2.696-7.31c0-0.579-0.024-1.131-0.232-1.789c-1.842,1.535-4.326,3.016-7.608,3.016
	c-3.788,0-5.409-2.235-5.409-5.101c0-6.476,5.208-16.47,5.208-24.387c0-2.485-0.61-3.802-1.297-4.679
	c-0.678,0.523-1.087,1.408-1.087,2.228c0,1.903,1.446,3.932,1.446,4.728c0,0.604-1.353,3.504-2.419,3.504
	c-1.091,0-1.074-2.191-4.828-2.191c-2.2,0-3.327,0.518-4.053,1.78c-0.327,0.569-0.473,1.282-0.473,2.117
	c0,2.867,2.745,8.055,2.745,15.578c0,3.071-0.487,4.565-2.325,6.401c-1.734,1.734-4.579,4.362-6.319,4.362
	c-0.384,0-0.451-0.311-0.501-0.72c-0.064-0.514,0.398-0.96,0.915-1.942c0.7-1.333,1.557-2.982,1.557-4.756
	c0-1.485-0.23-2.611-0.548-2.611c-0.284,0-1.437,4.273-4.522,7.359c-1.463,1.464-2.505,1.929-3.17,1.929
	c-0.257,0-0.529-0.049-1.016-0.535c-0.184-0.183-0.223-0.396-0.223-0.557c0-0.16,0.88-1.005,1.101-1.4
	c0.336-0.6,1.224-3.7,1.224-4.885c0-0.333-0.026-0.602-0.103-0.837c-1.087,0.504-1.965,4.638-3.876,6.549
	c-1.179,1.179-2.714,2.021-4.055,2.021c-0.868,0-1.61-0.345-1.61-0.724c0-0.85,0.542-0.997,1.235-1.896
	c0.825-1.068,1.824-2.82,1.824-4.616c0-1.488-0.586-2.27-1.354-2.27c-1.143,0-1.6,1.978-2.02,3.391
	c-0.438,1.47-1.854,4.017-4.002,4.017c-2.748,0-4.788-2.514-4.788-4.441c0-0.837,0.334-2.099,0.965-2.73
	c0.606-0.606,1.395-0.858,1.957-1.42c0.088-0.089,0.094-0.213,0.06-0.343c-0.291,0.112-0.573,0.252-0.921,0.471
	c-0.717,0.448-0.805,0.508-2.221,0.508c-1.109,0-1.192-0.052-1.765-0.685c-0.863-0.954-1.601-2.301-1.601-3.871
	c0-2.592,2.09-3.737,3.646-4.966c-0.621-1.524-1.453-2.535-1.453-4.36c0-3.048,3.791-5.25,5.987-5.25
	c1.969,0,2.956,0.39,4.012,1.447c2.901,2.901,1.355,5.232,3.488,7.365c0.957,0.956,3.474,2.975,5.667,2.975
	c3.174,0,4.943-1.971,4.943-4.401c0-4.377-5.282-6.808-5.282-11.867c0-4.846,1.994-8.942,3.544-10.493
	c1.637-1.636,3.943-2.434,5.632-2.434c2.494,0,4.285,0.94,6.604,3.249c2.747,2.736,5.437,3.665,6.626,3.665
	c0.512,0,0.575-0.095,0.575-0.428c0-0.477-1.287-2.951-2.159-3.823c-2.162-2.162-4.188-3.232-8.987-6.551
	c-2.524-1.744-7.775-5.763-7.957-5.763c-0.079,0-0.123,0.072-0.123,0.158c0,0.324,0.938,2.205,0.938,3.486
	c0,0.497-0.408,0.758-1.726,0.758c-1.502,0-3.201-0.416-4.475-0.857c-2.043-0.709-3.243-1.632-3.459-1.632
	c-0.12,0-0.266,0.225-0.266,0.419c0,3.2,4.311,4.701,4.311,6.254c0,0.46-0.4,0.834-1.8,0.834c-4.521,0-9.889-4.301-11.319-4.301
	c-0.268,0-0.365,0.267-0.365,0.635c0,0.729,0.621,2.013,1.309,2.989c1.01,1.432,2.192,2.579,2.192,3.359
	c0,0.499-0.807,1.05-2.266,1.05c-2.175,0-3.494-1.024-4.676-2.205c-0.904-0.904-1.65-2.074-1.868-2.074
	c-0.196,0-0.19,0.35-0.19,0.721c0,2.751-1.814,5.437-4.118,5.437c-1.433,0-2.635-0.472-3.323-1.161
	c-2.101-2.102-1.709-4.657-2.233-5.18c-0.384-0.385-2.005-0.684-2.951-1.629c-1.153-1.152-1.753-2.616-1.753-4.108
	c0-3.47,2.556-4.728,3.701-5.547c-0.086-1.814-0.48-3.089-0.516-3.986c-0.094-2.354,2.099-5.887,5.337-5.887
	c3.927,0,5.969,2.431,5.969,6.616c0,0.825-0.067,1.408-0.074,2.03c0.411,0.083,0.809,0.137,1.18,0.137
	c1.638,0,3.301-1.054,5.201-2.641c2.195-1.833,3.978-2.487,5.883-2.678c-0.231-0.828-0.769-1.468-1.64-3.131
	c-1.299-2.483-1.458-5.029-2.201-5.029c-0.23,0-0.742,0.166-1.578,1.727c-0.701,1.308-0.085,3.788-1.024,3.788
	c-0.341,0-3.689-2.739-3.689-7.499c0-0.956,0.12-2.073,0.12-3.812c0-1.073-0.047-1.665-0.245-2.407
	c-0.852,0.281-1.542,0.964-2.157,1.809c-1.317,1.81-1.092,3.685-1.843,3.685c-0.683,0-1.996-2.866-1.996-5.136
	c0-2.44,0.699-4.249,1.394-6.615c-0.49,0-1.957,0.796-4.854,0.796c-3.279,0-4.242-0.546-4.242-1.665
	c0-1.236,0.894-1.208,2.462-2.232c1.299-0.847,1.981-1.802,2.333-2.762c-0.385-0.61-1.133-0.729-2.222-1.047
	c-1.262-0.37-2.752-0.849-3.706-1.802c-0.819-0.818-1.809-2.334-1.809-4.317c0-2.692,1.686-4.215,3.598-4.215
	c1.193,0,1.74,0.704,2.321,0.153c0-1.462-2.423-2.076-2.423-4.167c0-2.405,2.822-4.006,4.153-4.006c0.557,0,1.104,0.312,1.6,0.658
	c1.164,0.815,1.062,1.301,1.446,1.301c0.435,0,0.665-3.921,4.455-3.921c2.12,0,3.38,1.383,4.175,3.474
	c0.55,1.446,0.677,5.643,0.677,9.79c0,4.453,4.267,15.399,11.305,22.437c2.355,2.355,7.167,4.641,8.418,4.641
	c0.326,0,0.59-0.128,0.59-0.443c0-2.501-5.835-2.424-5.835-4.241c0-1.331,2.726-2.585,2.726-3.583c0-0.614-1.686-1.495-3.148-2.283
	c-1.224-0.66-1.902-1.146-1.902-2.145c0-1.049,2.905-0.593,4.39-0.593h2.688c3.301,0,8.854-2.018,12.691-5.854
	c0.632-0.632,1.747-1.986,2.412-3.623c-0.06-0.003-0.125-0.01-0.176-0.01c-0.842,0-2.208,1.34-4.296,2.792
	c-1.993,1.385-4.531,2.955-6.511,2.955c-2.422,0-4.875-2.354-4.875-5.085c0-0.989,0.234-1.531,0.724-1.531s0.636,0.337,3.81,0.337
	c1.774,0,4.585-1.229,4.585-2.454c0-0.413-0.87-1.81-1.911-2.851c-1.877-1.877-5.677-3.266-6.53-3.266
	c-0.717,0-1.331,0.177-2.014,0.177c-1.501,0-2.432-1.913-2.432-2.97c0-1.707,1.17-1.809,1.547-2.164
	c0.59-0.555,1.396-1.147,1.909-1.147c1.741,0,2.867,0.614,4.164,0.614s0.498-1.686,2.907-4.095c1.208-1.208,2.996-2.673,4.805-2.673
	c4.812,0,8.497,3.346,9.92,3.346c1.58,0,1.375-1.649,6.109-1.649C179.837,163.843,181.15,163.9,181.15,164.678z"/>
<path fill="#FFDF00" d="M163.684,166.249c-0.269,0-2.114,0.141-2.787,0.814c-0.376,0.376-1.536,1.874-1.536,2.321
	c0,0.143,0.202,0.259,0.392,0.362c0.4,0.217,1.031,0.381,2.152,0.381c1.33,0,2.451-0.417,3.213-0.9
	c0.684-0.434,1.08-0.922,1.08-1.212C166.198,167.301,165.284,166.249,163.684,166.249z"/>
<path fill="#00518B" d="M209.788,427.717v-0.029c0.887-0.063,1.492-0.663,1.492-1.512c0-0.576-0.432-1.382-1.732-1.382h-2.32v5.254
	h0.852v-2.236h0.504c0.646,0,0.897,0.235,1.564,1.41l0.461,0.826h1.039l-0.641-1.022
	C210.572,428.317,210.236,427.875,209.788,427.717z M209.298,427.089h-1.219v-1.574h1.36c0.56,0,0.948,0.297,0.948,0.777
	C210.387,426.834,209.948,427.089,209.298,427.089z"/>
<path fill="#00518B" d="M209.37,422.467c-2.709,0-4.885,2.164-4.885,4.866c0,2.716,2.176,4.899,4.885,4.899
	c2.694,0,4.89-2.184,4.89-4.899C214.26,424.631,212.064,422.467,209.37,422.467z M209.37,431.427c-2.263,0-4.077-1.833-4.077-4.093
	c0-2.246,1.814-4.06,4.077-4.06c2.248,0,4.072,1.813,4.072,4.06C213.442,429.594,211.618,431.427,209.37,431.427z"/>
<path fill="#00518B" d="M248.576,404.279c0.938,0,1.711,0.769,1.711,1.714c0,0.94-0.772,1.708-1.711,1.708
	c-0.948,0-1.713-0.768-1.713-1.708C246.863,405.048,247.628,404.279,248.576,404.279z"/>
</svg>
