<?xml version="1.0" encoding="utf-8"?>
<!-- Generator: Adobe Illustrator 13.0.0, SVG Export Plug-In . SVG Version: 6.00 Build 14948)  -->
<!DOCTYPE svg PUBLIC "-//W3C//DTD SVG 1.0//EN" "http://www.w3.org/TR/2001/REC-SVG-20010904/DTD/svg10.dtd">
<svg version="1.0" id="Layer_1" xmlns="http://www.w3.org/2000/svg" xmlns:xlink="http://www.w3.org/1999/xlink" x="0px" y="0px"
	 width="180.793px" height="232.632px" viewBox="0 0 180.793 232.632" enable-background="new 0 0 180.793 232.632"
	 xml:space="preserve">
<g>
	<g>
		<g>
			<path fill="#80c41c" d="M97.167,198.066h5.611v33.674h-6.506l-21.787-27.202h-0.12v27.202h-5.611v-33.674h6.865l21.429,27.201
				h0.119V198.066z"/>
			<path fill="#80c41c" d="M142.413,231.74h-33.726v-3.799l26.264-25.842h-24.293v-4.033h31.755v3.939l-26.384,25.701h26.384V231.74
				z"/>
			<path fill="#80c41c" d="M174.167,207.915c-0.298-5.206-5.79-6.847-10.625-6.847c-3.641,0-9.789,0.797-9.789,5.909
				c0,2.86,2.566,3.798,5.074,4.268l12.236,2.204c5.551,1.031,9.729,3.658,9.729,9.005c0,7.973-9.432,10.178-16.773,10.178
				c-7.938,0-11.043-1.877-12.953-3.236c-3.641-2.58-4.356-5.394-4.356-8.536h5.432c0,6.097,6.327,7.879,11.818,7.879
				c4.179,0,11.222-0.844,11.222-5.674c0-3.519-2.089-4.644-9.133-5.957l-8.773-1.595c-2.806-0.516-9.133-2.063-9.133-7.926
				c0-5.253,4.357-10.411,14.743-10.411c14.982,0,16.475,7.034,16.713,10.739H174.167z"/>
		</g>
	</g>
	<g>
		<path fill="none" d="M122.903,103.319c-17.877,0-32.369,17.438-32.369,38.948c0,21.51,14.492,38.947,32.369,38.947
			c17.876,0,32.368-17.438,32.368-38.947C155.271,120.756,140.78,103.319,122.903,103.319z M124.791,171.041
			c-12.766,0-23.115-13.416-23.115-29.964s10.349-29.964,23.115-29.964c12.766,0,23.115,13.416,23.115,29.964
			S137.557,171.041,124.791,171.041z"/>
	</g>
	<g>
		<path fill="none" d="M132.783,50.316c-13.227-15.539-32.177-20.677-41.465-12.772c-9.287,7.905-7.144,27.26,6.083,42.799
			c13.227,15.538,32.527,21.376,41.815,13.471C148.501,85.909,146.008,65.854,132.783,50.316z M134.137,85.284
			c-7.074,6.022-21.473,2.31-30.864-8.724s-10.22-25.209-3.145-31.231c7.074-6.021,21.123-3.009,30.515,8.024
			C140.034,64.387,141.212,79.263,134.137,85.284z"/>
	</g>
	<g>
		<path fill="none" d="M104.587,8.363C87.327-1,75.411-1.41,72.882,2.533c-2.528,3.941,4.763,11.436,22.024,20.8
			c17.26,9.363,27.986,12.094,30.516,8.152C127.951,27.542,121.848,17.726,104.587,8.363z M117.488,26.457
			c-1.927,3.003-12.51-1.039-20.363-4.937c-12.49-6.199-18.43-12.231-16.503-15.235c1.927-3.003,11.746-2.983,24.002,3.666
			C116.88,16.599,119.415,23.454,117.488,26.457z"/>
	</g>
	<g>
		<path fill="none" d="M172.785,78.156c-8.829-17.54-18.379-24.679-22.707-22.883c-4.325,1.792-2.615,12.109,6.214,29.649
			c8.828,17.539,16.078,25.903,20.403,24.109C181.022,107.238,181.615,95.694,172.785,78.156z M173.051,100.375
			c-3.297,1.366-9.68-7.993-13.904-15.676c-6.717-12.218-8.15-20.561-4.854-21.929c3.296-1.366,11.347,4.255,17.616,16.709
			C178.178,91.934,176.347,99.009,173.051,100.375z"/>
	</g>
	<g>
		<path fill="none" d="M39.847,27.285c-21.94,0-39.725,14.181-39.725,31.675s17.785,31.675,39.725,31.675
			c21.939,0,39.725-14.181,39.725-31.675S61.786,27.285,39.847,27.285z M40.554,80.135c-15.943,0-28.868-10.506-28.868-23.465
			c0-12.96,12.924-23.466,28.868-23.466s28.868,10.506,28.868,23.466C69.421,69.629,56.497,80.135,40.554,80.135z"/>
	</g>
	<g>
		<g>
			<g>
				<linearGradient id="SVGID_1_" gradientUnits="userSpaceOnUse" x1="97.1558" y1="167.7158" x2="163.4778" y2="101.3938">
					<stop  offset="0" style="stop-color:#80c41c"/>
					<stop  offset="0.9494" style="stop-color:#043825"/>
				</linearGradient>
				<path fill="url(#SVGID_1_)" d="M122.781,103.143c-17.876,0-32.368,17.438-32.368,38.947c0,21.51,14.491,38.947,32.368,38.947
					s32.369-17.437,32.369-38.947C155.15,120.581,140.658,103.143,122.781,103.143z M124.669,170.864
					c-12.766,0-23.115-13.415-23.115-29.963c0-16.549,10.349-29.964,23.115-29.964c12.766,0,23.114,13.416,23.114,29.964
					C147.784,157.449,137.435,170.864,124.669,170.864z"/>
			</g>
		</g>
		<g>
			<g>
				<linearGradient id="SVGID_2_" gradientUnits="userSpaceOnUse" x1="55.0415" y1="125.6069" x2="121.3651" y2="59.2834">
					<stop  offset="0" style="stop-color:#80c41c"/>
					<stop  offset="0.9494" style="stop-color:#043825"/>
				</linearGradient>
				<path fill="url(#SVGID_2_)" d="M132.661,50.14c-13.226-15.539-32.177-20.677-41.464-12.772
					c-9.287,7.906-7.145,27.26,6.083,42.799c13.227,15.539,32.527,21.376,41.814,13.471C148.38,85.733,145.887,65.679,132.661,50.14
					z M134.016,85.108c-7.075,6.022-21.474,2.31-30.865-8.723c-9.391-11.034-10.22-25.21-3.145-31.232
					c7.074-6.021,21.123-3.009,30.514,8.024C139.913,64.21,141.091,79.087,134.016,85.108z"/>
			</g>
		</g>
		<g>
			<g>
				<linearGradient id="SVGID_3_" gradientUnits="userSpaceOnUse" x1="22.6479" y1="93.2119" x2="88.9734" y2="26.8865">
					<stop  offset="0" style="stop-color:#80c41c"/>
					<stop  offset="0.9494" style="stop-color:#043825"/>
				</linearGradient>
				<path fill="url(#SVGID_3_)" d="M104.465,8.188C87.205-1.176,75.29-1.586,72.76,2.356c-2.529,3.942,4.763,11.437,22.024,20.8
					c17.259,9.363,27.986,12.094,30.516,8.152C127.829,27.366,121.726,17.55,104.465,8.188z M117.366,26.28
					c-1.927,3.003-12.51-1.039-20.363-4.937C84.514,15.145,78.574,9.113,80.5,6.109c1.927-3.003,11.746-2.983,24.002,3.666
					C116.758,16.423,119.293,23.277,117.366,26.28z"/>
			</g>
		</g>
		<g>
			<g>
				<linearGradient id="SVGID_4_" gradientUnits="userSpaceOnUse" x1="87.3447" y1="157.9102" x2="153.6716" y2="91.5833">
					<stop  offset="0" style="stop-color:#80c41c"/>
					<stop  offset="0.9494" style="stop-color:#043825"/>
				</linearGradient>
				<path fill="url(#SVGID_4_)" d="M172.663,77.979c-8.828-17.54-18.378-24.678-22.706-22.883
					c-4.326,1.792-2.616,12.109,6.213,29.649c8.828,17.539,16.078,25.904,20.404,24.11
					C180.901,107.062,181.493,95.519,172.663,77.979z M172.929,100.199c-3.296,1.366-9.679-7.993-13.903-15.676
					c-6.717-12.218-8.151-20.561-4.855-21.929c3.296-1.366,11.348,4.255,17.616,16.71
					C178.056,91.758,176.225,98.833,172.929,100.199z"/>
			</g>
		</g>
		<g>
			<g>
				<linearGradient id="SVGID_5_" gradientUnits="userSpaceOnUse" x1="13.9761" y1="84.5347" x2="80.3021" y2="18.2086">
					<stop  offset="0" style="stop-color:#80c41c"/>
					<stop  offset="0.9494" style="stop-color:#043825"/>
				</linearGradient>
				<path fill="url(#SVGID_5_)" d="M39.725,27.109C17.786,27.109,0,41.291,0,58.784c0,17.494,17.786,31.675,39.725,31.675
					c21.939,0,39.725-14.182,39.725-31.675C79.45,41.291,61.664,27.109,39.725,27.109z M40.432,79.959
					c-15.943,0-28.867-10.506-28.867-23.466c0-12.959,12.924-23.466,28.867-23.466c15.943,0,28.868,10.506,28.868,23.466
					C69.3,69.453,56.375,79.959,40.432,79.959z"/>
			</g>
		</g>
	</g>
</g>
</svg>
