<svg id="Layer_1" xmlns:rdf="http://www.w3.org/1999/02/22-rdf-syntax-ns#" xmlns="http://www.w3.org/2000/svg" xml:space="preserve" overflow="visible" height="165.91" viewBox="0 0 140 165.90796" width="140" version="1.1" enable-background="new 0 0 13.153 15.588" xmlns:cc="http://creativecommons.org/ns#" xmlns:dc="http://purl.org/dc/elements/1.1/"><metadata id="metadata45"><rdf:RDF><cc:Work rdf:about=""><dc:format>image/svg+xml</dc:format><dc:type rdf:resource="http://purl.org/dc/dcmitype/StillImage"/><dc:title/></cc:Work></rdf:RDF></metadata>
<path id="path3" fill="#f7e316" d="M138.62,1.6285c-0.76-0.78762-1.59-0.95792-3.38-0.95792h-65.213-0.04258-65.258c-1.5114,0-2.5546,0.1703-3.2464,0.88345-0.8728,0.90473-1.0112,2.1926-0.58542,3.257,0.56412,1.437,65.897,157.19,66.216,157.96,0.31932,0.74507,1.1602,2.4907,2.8845,2.4907,1.703,0,2.512-1.7243,2.8526-2.4907,0.47898-1.0644,65.663-156.55,66.227-157.97,0.50026-1.2347,0.29803-2.3842-0.45769-3.1719"/>
<line id="line5" y2="165.91" x2="140" y1="165.91" fill="none"/>
<line id="line7" y2="-2.2111E-7" x2="0" y1="-2.2111E-7" x1="140" fill="none"/>
<path id="path9" d="m69.995,165.91c-1.107,0.0213-1.9372-0.57478-2.4694-1.1815-0.54284-0.628-0.85152-1.3092-1.0218-1.703-0.32-0.77-65.642-156.52-66.227-157.98-0.18094-0.447-0.27674-0.9366-0.27674-1.4263,0-0.894,0.31932-1.8201,1.0112-2.5332,0.9154-0.93668,2.182-1.0857,3.7041-1.0857h65.269,0.04258,65.205c0.91538,0,1.6072,0.0426,2.2459,0.20223,0.63864,0.17031,1.1602,0.48963,1.6072,0.9686l-0.47898,0.44705,0.47898-0.44705c0.59606,0.61735,0.91538,1.4263,0.90474,2.2991,0,0.52155-0.10644,1.0431-0.30868,1.5753-0.56413,1.4369-65.748,156.89-66.227,157.99-0.18095,0.39382-0.48962,1.0963-1.0325,1.703-0.52155,0.60671-1.3411,1.1708-2.4268,1.1708m-68.034-163.91c-0.4364,0.45769-0.63864,1.0218-0.63864,1.6179,0,0.31932,0.063864,0.63864,0.18095,0.93667,0.56413,1.4156,65.907,157.21,66.216,157.95,0.14902,0.35125,0.41511,0.91538,0.80894,1.3624,0.39383,0.4364,0.84087,0.73443,1.4689,0.73443,0.60671,0,1.0431-0.28739,1.4369-0.72379,0.38318-0.44705,0.64928-1.0218,0.81958-1.3944,0.44705-1.0218,65.663-156.55,66.205-157.92,0.15966-0.39382,0.22352-0.75572,0.22352-1.0857,0-0.55349-0.18095-1.0112-0.54284-1.3944-0.29803-0.31932-0.57477-0.47898-1.0112-0.59606-0.40447-0.11709-1.0218-0.15966-1.8946-0.15966h-65.213-0.04258-65.269-0.031932c-1.4582,0-2.2672,0.19159-2.7249,0.68121z"/>
<path id="path11" d="m134.56,4.7153c-0.25546-0.38318-0.65993-0.42576-1.8095-0.42576h-125.52c-1.1389,0.0106-1.4689,0.18095-1.7243,0.45769-0.29803,0.31932-0.35125,0.74508-0.031932,1.5114,0.18095,0.45769,62.757,149.78,62.959,150.26,0.2661,0.60671,0.57477,1.2241,1.5327,1.2241v0.0106h0.01064v-0.0106c0.93667,0,1.2879-0.628,1.5753-1.2241,0.276-0.6,62.771-149.8,62.961-150.26,0.25545-0.628,0.37254-1.075,0.0532-1.5434"/>
<polyline id="polyline13" points="6.576,14.105,12.182,0.735,0.969,0.735,6.575,14.105" fill="#FFF" transform="scale(10.64396,10.64396)"/>
<polyline id="polyline15" points="6.576,13.412,11.254,2.245,1.897,2.245,6.574,13.412" transform="scale(10.64396,10.64396)"/>
<path id="path17" fill="#f7e316" d="m82.044,71.102c-7.0144-1.0963-12.049-1.0218-12.049-1.0218s-5.0239-0.07451-12.028,1.0218c-7.0144,1.0963-15.104,3.6083-15.104,3.6083l27.132,64.63,27.035-64.481c0,0.01064-7.9936-2.661-14.987-3.7573"/>
<path id="path19" d="m90.325,83.64c-0.54284-0.18095-2.0436-1.0538-3.0867-1.7456-1.1815-0.80894-2.2352-1.703-3.6189-3.0335-1.0112-0.9686-1.6924-1.3199-2.4694-1.3305-1.075-0.01064-2.1501,0.25546-2.7994,0.97924-0.59606,0.62799-0.8728,1.3518-1.0963,2.4055-0.25546,1.256-2.0862,8.0043-2.2991,8.9622-0.19159,0.85152-0.30868,1.075-0.84087,1.075-0.47898,0-0.54284-0.25546-0.80894-1.2241-0.20224-0.75572-0.34061-1.2986-0.41512-1.703-0.11708-0.59606-0.13837-0.81958-0.13837-0.81958l1.6711,0.02129s-1.0325-1.8095-1.3411-2.81c-0.27674-0.8728-0.24481-1.9266-0.24481-1.9266s0.86216,0.24481,1.2453,0.28739c0.38318,0.05322,0.46833-0.1703,0.24481-0.60671-0.24481-0.45769-0.76636-2.0436-0.81958-2.6397-0.03193-0.39383-0.02129-1.075,0.14902-1.4476,0.0958-0.22352,0.23417-0.4364,0.67057-0.73443,0.34061-0.22352,1.0538-0.41511,1.2986-0.51091,0.23417-0.10644-0.68121-0.29803-1.5434-0.45769-0.86216-0.14902-1.4369-0.5322-1.6817-0.58542-0.23417-0.05322-0.59606-0.29803-1.3624-0.44705,0,0-0.57477-0.04258-1.0112,0.07451-0.41511,0.10644-0.57477,0.42576-0.86216,0.55349-0.14902,0.06386-0.19159,0.03193-0.78765,0.08515-0.6067,0.05322-1.1921,0.07451-1.8733,0.48962-0.76637,0.45769-1.075,1.9798-0.83023,1.9053,0.25546-0.07451,1.0431-0.44705,1.4795-0.52155,0.4364-0.07451,0.92602,0.04258,1.0218,0.08515,0.40447,0.18095,0.47898,0.30867,0.58542,0.52155,0.18095,0.39383,0.21288,1.1495,0.11708,1.2241-0.0958,0.10644-0.46834-0.4364-1.0218-0.72379-0.38318-0.20224-1.8308-0.06386-2.033-0.0958-0.46833-0.07451-0.78765-0.41511-1.0112-0.56413-0.21288-0.14902-0.37254-0.45769-0.58542-0.63864-0.14902-0.12773-0.7025-0.40447-0.67057-0.07451,0.03193,0.34061,0.25546,1.0112,0.86216,1.4689,0.72379,0.5322,1.9478,0.62799,1.9478,0.62799s0,0.38318,0.31932,0.71314c0.36189,0.38318,0.88345,0.67057,1.5114,0.81958,0.39383,0.0958,0.45769,0.1703,0.45769,0.28739-0.01064,0.21288-0.04258,0.35125-0.20224,0.95796-0.24481,0.85152-0.34061,1.2028-0.58542,1.7882-0.24481,0.6067-1.3837,2.9271-1.3837,2.9271l1.6711-0.02129s-0.01064,0.22352-0.13837,0.81958c-0.10644,0.5322-0.15966,0.78765-0.41512,1.703-0.20224,0.72379-0.27674,0.91538-0.50027,1.0963-0.10644,0.0958-0.22352,0.11708-0.51091,0.11708-0.40447-0.02129-0.74508-0.28739-0.97924-1.0963-0.2661-0.94731-2.2778-7.7062-2.5546-8.9622-0.22352-1.0538-0.57477-2.0011-1.1283-2.5333-0.71314-0.67057-1.9798-0.86216-3.0335-0.85152-0.7983,0.01064-1.4689,0.36189-2.48,1.3305-1.3944,1.3305-2.4375,2.2246-3.6296,3.0335-1.0218,0.69186-2.5333,1.5647-3.0761,1.7456-0.3619,0.11708-0.19159,0.44705,0.38318,1.2986,0.48962,0.74508,1.3837,1.0325,2.6397,0.67057,0.6067-0.18095,1.8308-0.85152,2.7249-1.4476,0.86216-0.56413,1.5114-1.1921,1.7456-1.107,0.29803,0.11708,0.35125,0.58542-0.07451,1.107-0.28739,0.37254-0.61735,0.54284-1.1389,0.98989-0.55349,0.42576-2.6078,1.7563-3.1613,2.0117-0.46833,0.22352-0.85152,0.37254-1.2347,0.45769-0.32996,0.07451,0.10644,1.0857,0.48962,1.4476,0.37254,0.3619,0.78765,0.73443,1.8095,0.40447,0.63864-0.21288,1.9798-0.90474,2.6397-1.3092,0.71315-0.4364,1.5114-1.0857,1.852-1.0857,0.34061,0,0.85152,0.4364,0.31932,1.0644-0.12773,0.1703-1.5647,1.2879-2.5546,1.9372-1.0538,0.68121-2.182,1.2773-3.0867,1.4263-0.4364,0.08515,0.46834,1.405,1.2453,1.7243,0.75572,0.30868,2.1927-0.54284,2.6716-0.76636,0.46833-0.22352,1.1283-0.7025,1.6072-1.0431,0.4364-0.30868,0.86216-0.60671,1.0325-0.35125,0.15966,0.25546,0.15966,0.63864-0.0958,0.95796-0.41512,0.50027-0.51091,0.58542-1.1708,1.107-0.76636,0.59606-2.3417,1.6924-3.6402,1.735-0.46833,0.01064,0.56413,1.7137,1.3624,2.0011,0.41511,0.13837,1.3837-0.27674,1.3837-0.27674,0.56413-0.23417,1.4689-0.77701,1.9266-1.1283,0.30868-0.22352,0.78765-0.54284,1.1283-0.35125,0.32996,0.18095,0.2661,0.76636-0.21288,1.2028-0.39383,0.35125-0.89409,0.77701-1.5221,1.1708-0.46833,0.31932-1.405,0.93667-2.363,0.9686-0.52155,0,1.2879,2.4162,1.852,2.4481,1.0005,0.0745,2.4907-0.52156,3.6402-1.3518,0.97924-0.71314,1.5114-0.97924,2.0011-1.1283,0.45769-0.15966,0.88345-0.1703,1.4476,0,0.41511,0.13837,0.7025,0.28739,1.0218,0.5322,0.27674,0.22352,0.44705,0.39383,0.61735,0.64928,0.21288,0.30868,0.27674,0.54285,0.30868,0.78766,0.04257,0.29803-0.07451,0.63863-0.47898,1.1176-0.76636,0.93667-1.2134,1.1708-2.6078,2.1714-1.3837,1.0112-2.6823,1.4476-2.6823,1.4476s2.331,1.224,2.3736,1.224c0.05322,0-0.15966,0.56413-0.46833,0.80894-0.30868,0.2661-0.37254,0.24482-0.56413,0.2661-0.18095,0.0213-1.4795-0.22352-2.2991-0.0639-0.80894,0.15966-1.5434,1.3305-1.107,1.3092,0.65993-0.0426,1.5434-0.21288,2.033,0,0.5322,0.22352,0.01064,1.0431-0.25546,1.3944-0.2661,0.35125-0.80894,0.67057-0.80894,0.67057l-0.05322,1.4369,1.2879-0.32996s0.29803-0.57477,0.5322-0.95796c0.24481-0.39382,0.65992-0.62799,0.94731-0.72379,0.28739-0.10643,0.58542,0.30868,0.68121,0.80895,0.0958,0.50026-0.08515,1.5221,0.14902,1.5647,0.32996,0.0851,0.86216-1.3092,0.86216-1.9053,0-0.60671-0.4364-1.4582-0.72379-1.852-0.28739-0.39383-0.12773-0.67057,0-0.89409,0.20224-0.35125,0.83023-0.60671,0.83023-0.60671s1.5114,2.5758,1.5221,2.4907c0.05322-0.34061,0.28739-2.6504,0.67057-4.0021,0.38318-1.3411,0.32996-1.5966,0.67057-2.2033,0.42576-0.75572,0.65992-1.3092,0.80894-1.107,0.13837,0.21288,0.09579,1.107,0.09579,1.107s0.29803,8.8664,0.29803,11.421c0,2.5333-2.1394,5.0346-2.1394,5.0346h2.4694c0,0.5322,0.1703,3.9063,0.67057,3.917,0.50027-0.0106,0.65993-3.3848,0.65993-3.917h2.48s-2.1394-2.4907-2.1394-5.0346c0-2.5546,0.29803-11.421,0.29803-11.421s-0.04258-0.89409,0.0958-1.107c0.14902-0.19159,0.38318,0.36189,0.80894,1.1176,0.34061,0.60671,0.35125,0.86216,0.73443,2.2033,0.38318,1.3518,0.61735,3.6615,0.67057,4.0021,0.01064,0.0851,1.5221-2.4907,1.5221-2.4907s0.63864,0.24481,0.83023,0.6067c0.13837,0.22352,0.28739,0.50027,0,0.89409-0.28739,0.39383-0.71315,1.2454-0.71315,1.852,0,0.59606,0.52155,1.9904,0.86216,1.9053,0.23417-0.0532,0.04258-1.075,0.13837-1.5647,0.0958-0.50027,0.39383-0.91538,0.69186-0.80894,0.27674,0.10644,0.69186,0.32996,0.93667,0.72379,0.23417,0.38318,0.5322,0.95795,0.5322,0.95795l1.2986,0.32997-0.05322-1.4369s-0.54284-0.30867-0.80894-0.67057c-0.2661-0.36189-0.78765-1.1602-0.24481-1.3944,0.48962-0.21287,1.3624-0.0426,2.0117,0,0.45769,0.0213-0.28739-1.1495-1.107-1.3092-0.81958-0.15966-2.1075,0.0851-2.3097,0.0639-0.18095-0.0213-0.24481,0-0.56413-0.2661-0.29803-0.24481-0.51091-0.80894-0.45769-0.80894s2.3736-1.2241,2.3736-1.2241-1.2879-0.45769-2.6823-1.4582c-1.3837-1.0005-1.9053-1.2347-2.6716-2.1714-0.40447-0.47898-0.52155-0.81958-0.48962-1.1283,0.03193-0.24481,0.10644-0.47898,0.31932-0.78765,0.1703-0.24481,0.34061-0.42576,0.61735-0.64928,0.31932-0.23417,0.59606-0.39383,1.0112-0.5322,0.56413-0.1703,0.98989-0.15966,1.4582,0,0.47898,0.15966,1.0325,0.42576,2.0011,1.1389,1.1495,0.83023,2.6397,1.4263,3.6402,1.3518,0.56413-0.0426,2.3736-2.4481,1.852-2.4481-0.9686-0.03193-1.8946-0.64928-2.3736-0.9686-0.62799-0.39383-1.1176-0.81958-1.5221-1.1708-0.46834-0.44705-0.5322-1.0325-0.20224-1.2134,0.32996-0.19159,0.80894,0.12773,1.1176,0.35125,0.45769,0.35125,1.3518,0.89409,1.9159,1.1283,0,0,0.98989,0.41512,1.405,0.27674,0.7983-0.27674,1.8308-1.9798,1.3624-1.9904-1.2986-0.04258-2.8632-1.1389-3.6615-1.735-0.63864-0.52156-0.73443-0.60671-1.1495-1.107-0.25546-0.31932-0.25546-0.69186-0.0958-0.95796s0.58542,0.04258,1.0325,0.35125c0.47898,0.32996,1.1283,0.80894,1.6072,1.0431,0.46833,0.22352,1.9053,1.0857,2.6716,0.76636,0.77701-0.31932,1.6711-1.6392,1.2347-1.7243-0.89409-0.14902-2.033-0.74508-3.0974-1.4369-0.9686-0.63864-2.4055-1.7669-2.5333-1.9266-0.54284-0.62799-0.02129-1.0644,0.30868-1.0644,0.35125,0,1.1389,0.64928,1.8627,1.0857,0.65993,0.40447,2.0011,1.107,2.6291,1.3092,1.0325,0.32996,1.4369-0.04257,1.8201-0.40447,0.38318-0.3619,0.7983-1.3731,0.47898-1.4476-0.37254-0.08515-0.75572-0.23417-1.2347-0.45769-0.54284-0.25546-2.5971-1.586-3.1506-2.0117-0.52155-0.4364-0.85152-0.61735-1.1495-0.98989-0.41512-0.5322-0.35125-1.0005-0.06386-1.107,0.22352-0.08515,0.88345,0.55349,1.7456,1.107,0.89409,0.58542,2.1181,1.2666,2.7249,1.4369,1.2453,0.37254,2.1501,0.08515,2.6397-0.65993,0.57477-0.85152,0.74508-1.1815,0.38318-1.2986m-20.067-6.284c-0.34061,0-0.6067-0.21288-0.6067-0.46833,0-0.25546,0.2661-0.46833,0.6067-0.46833,0.32996,0,0.60671,0.21288,0.60671,0.46833,0,0.25546-0.27674,0.46833-0.60671,0.46833zm-0.24481,46.599z"/>
<path id="path21" d="m24.236,10.804h2.6716l4.4279,10.846h-2.7036l-0.89409-2.4162h-4.4279l-0.92602,2.4162h-2.6397l4.4918-10.846m-0.24481,6.6525h3.0655l-1.4902-3.9808h-0.03193l-1.5434,3.9808z"/>
<polyline id="polyline23" points="3.056,1.015,3.3,1.015,3.3,1.845,3.842,1.845,3.842,2.034,3.056,2.034,3.056,1.015" transform="scale(10.64396,10.64396)"/>
<polyline id="polyline25" points="3.995,1.015,4.827,1.015,4.827,1.203,4.239,1.203,4.239,1.422,4.716,1.422,4.716,1.596,4.239,1.596,4.239,1.845,4.839,1.845,4.839,2.034,3.995,2.034,3.995,1.015" transform="scale(10.64396,10.64396)"/>
<polyline id="polyline27" points="5.02,1.015,5.335,1.015,5.624,1.716,5.627,1.716,5.917,1.015,6.217,1.015,6.217,2.034,6.013,2.034,6.013,1.312,6.01,1.312,5.713,2.034,5.524,2.034,5.229,1.319,5.226,1.319,5.226,2.034,5.02,2.034,5.02,1.015" transform="scale(10.64396,10.64396)"/>
<path id="path29" d="m71.857,10.804h2.6716l4.4385,10.846h-2.7142l-0.89409-2.4162h-4.4279l-0.92602,2.4162h-2.6397l4.4918-10.846m-0.24481,6.6525h3.0655l-1.4902-3.9808h-0.03193l-1.5434,3.9808z"/>
<polyline id="polyline31" points="7.529,1.015,7.772,1.015,8.236,1.698,8.239,1.698,8.239,1.015,8.467,1.015,8.467,2.034,8.223,2.034,7.761,1.352,7.758,1.352,7.758,2.034,7.529,2.034,7.529,1.015" transform="scale(10.64396,10.64396)"/>
<polyline id="polyline33" points="8.7,1.015,8.942,1.015,9.406,1.698,9.409,1.698,9.409,1.015,9.638,1.015,9.638,2.034,9.393,2.034,8.931,1.352,8.928,1.352,8.928,2.034,8.7,2.034,8.7,1.015" transform="scale(10.64396,10.64396)"/>
<line id="line35" stroke-width="2.6035" y2="10.804" x2="106.34" stroke="#000" stroke-miterlimit="3.864" y1="21.65" x1="106.34" fill="none"/>
<path id="path37" d="m113.32,10.804h2.6716l4.4279,10.846h-2.7036l-0.89409-2.4162h-4.4279l-0.92602,2.4162h-2.6397l4.4918-10.846m-0.23417,6.6525h3.0548l-1.4902-3.9808h-0.0319l-1.5327,3.9808z"/>
<path id="path39" fill="#f7e316" d="m75.232,31.059h-9.356l1.1921,2.9484-12.773,30.697h3.9063l2.512-6.0564,16.498-0.01064,2.6184,6.0671h9.356l-13.953-33.645m-13.422,25.013,7.2166-17.456,7.1102,17.467-14.327-0.01064z"/>
</svg>
