<?xml version="1.0" encoding="UTF-8" standalone="no"?>
<!-- Created with Inkscape (http://www.inkscape.org/) by Marsupilami -->
<svg
   xmlns:svg="http://www.w3.org/2000/svg"
   xmlns="http://www.w3.org/2000/svg"
   version="1.0"
   width="813"
   height="768"
   viewBox="0 0 184.25125 174.15375"
   id="svg2869">
  <defs
     id="defs2871" />
  <g
     transform="translate(-14.17375,-127.56)"
     id="layer1">
    <path
       d="M 138.938,691.337 C 136.62,685.56 134.159,680.368 132.61,677.171 C 127.835,667.314 122.276,657.769 116.347,649.043 C 112.082,642.766 107.444,636.864 102.326,631.529 C 96.387,625.333 90.264,621.8 85.039,621.864 C 79.814,621.797 73.692,625.331 67.752,631.525 C 62.635,636.862 57.996,642.763 53.732,649.04 C 47.803,657.767 42.243,667.311 37.469,677.167 C 35.919,680.365 33.458,685.558 31.139,691.336 L 11.339,683.793 C 18.77,668.717 25.076,656.364 31.591,645.941 C 41.523,630.053 50.288,619.039 58.868,611.826 C 67.449,604.613 75.845,601.202 85.039,600.519 C 94.234,601.202 102.63,604.613 111.21,611.826 C 119.791,619.039 128.556,630.053 138.487,645.941 C 145.003,656.364 151.309,668.717 158.74,683.793 L 138.938,691.337 z"
       transform="matrix(1.25,0,0,-1.25,0,1052.3625)"
       id="path2566"
       style="fill:#231f20;fill-opacity:1;fill-rule:nonzero;stroke:none" />
    <path
       d="M 85.039,739.842 C 93.976,739.842 107.992,738.364 121.364,734.174 C 129.011,731.778 141.464,725.934 144.088,719.676 C 148.131,710.033 136.889,686.003 132.61,677.171 C 127.835,667.314 122.276,657.769 116.347,649.043 C 112.082,642.766 107.444,636.864 102.326,631.529 C 96.387,625.333 90.264,621.8 85.039,621.864 C 79.814,621.797 73.692,625.331 67.752,631.525 C 62.635,636.862 57.996,642.763 53.732,649.04 C 47.803,657.767 42.243,667.311 37.469,677.167 C 33.189,686 21.947,710.03 25.99,719.673 C 28.615,725.932 41.068,731.775 48.714,734.171 C 62.086,738.361 76.103,739.839 85.039,739.842"
       transform="matrix(1.25,0,0,-1.25,0,1052.3625)"
       id="path2568"
       style="fill:#ad1b3f;fill-opacity:1;fill-rule:nonzero;stroke:none" />
    <path
       d="M 85.02,735.403 C 78.033,735.551 65.318,734.209 54.003,730.915 C 44.707,728.209 33.833,723.447 31.195,718.2 C 29.738,715.302 30.086,712.154 31.355,706.608 C 32.693,700.768 35.153,693.798 38.666,685.89 C 41.618,679.246 45.111,672.337 49.346,664.767 C 53.591,657.177 58.253,650.66 62.658,644.748 C 71.673,632.651 78.988,626.713 85.022,626.595 L 85.057,626.595 C 91.092,626.716 98.406,632.655 107.42,644.752 C 111.827,650.664 116.489,657.182 120.733,664.771 C 124.965,672.336 128.459,679.245 131.412,685.893 C 134.927,693.803 137.387,700.774 138.724,706.611 C 139.993,712.156 140.34,715.305 138.884,718.203 C 136.245,723.45 125.372,728.212 116.076,730.918 C 104.754,734.214 92.041,735.554 85.02,735.403"
       transform="matrix(1.25,0,0,-1.25,0,1052.3625)"
       id="path2570"
       style="fill:#ffffff;fill-opacity:1;fill-rule:nonzero;stroke:none" />
    <path
       d="M 115.566,729.166 C 126.784,725.901 135.296,721.275 137.254,717.383 C 137.776,716.346 138.007,715.222 138.007,713.868 C 138.007,712.092 137.609,709.918 136.945,707.018 C 135.635,701.295 133.212,694.437 129.746,686.633 C 126.814,680.037 123.346,673.177 119.141,665.661 C 114.948,658.164 110.327,651.705 105.958,645.842 C 97.432,634.401 90.395,628.542 85.039,628.422 C 79.684,628.538 72.647,634.397 64.121,645.839 C 59.753,651.701 55.132,658.159 50.937,665.658 C 46.731,673.178 43.262,680.039 40.333,686.631 C 36.867,694.431 34.445,701.29 33.133,707.016 C 32.469,709.915 32.071,712.089 32.071,713.865 C 32.071,715.219 32.303,716.342 32.825,717.38 C 34.782,721.273 43.295,725.898 54.513,729.163 C 65.643,732.404 78.129,733.724 85.02,733.58 C 91.945,733.727 104.429,732.409 115.566,729.166"
       transform="matrix(1.25,0,0,-1.25,0,1052.3625)"
       id="path2572"
       style="fill:#ad1b3f;fill-opacity:1;fill-rule:nonzero;stroke:none" />
    <path
       d="M 76.052,712.486 C 76.019,712.109 75.989,711.732 75.962,711.355 C 75.249,701.738 80.447,696.016 80.55,684.198 C 80.591,679.393 79.397,673.579 77.102,666.087 C 85.039,670.161 93.61,662.316 102.189,667.115 C 107.906,670.313 109.592,678.373 109.521,684.312 C 109.415,693.23 106.025,702.182 98.549,707.363 C 92.147,711.799 83.729,713.506 76.052,712.486 M 93.141,723.251 C 104.588,721.122 111.601,716.786 116.256,709.341 C 120.842,702.006 121.474,691.418 119.601,681.632 C 117.872,672.596 113.509,661.706 105.544,655.78 C 101.372,652.677 96.211,650.937 89.922,651.538 C 85.57,651.954 82.195,654.881 73.567,655.036 C 70.191,655.097 66.01,654.56 60.652,653.544 C 62.947,657.215 64.271,662.007 64.903,666.625 C 65.553,671.388 65.62,676.354 64.548,681.063 C 63.129,687.293 60.346,691.132 60.043,698.812 C 59.925,701.804 60.145,704.891 60.699,707.922 C 54.735,705.466 47.956,701.563 39.795,693.934 C 39.862,707.288 51.823,716.264 65.46,720.696 C 69.622,727.43 76.159,732.128 85.039,731.887 C 81.743,729.69 79.672,726.785 78.342,723.505 C 83.219,724.073 88.301,724.151 93.141,723.251"
       transform="matrix(1.25,0,0,-1.25,0,1052.3625)"
       id="path2574"
       style="fill:#fffffd;fill-opacity:1;fill-rule:nonzero;stroke:none" />
    <path
       d="M 22.84375,65.3125 L 21.1875,66.09375 C 26.7825,77.896252 34.96,94.12875 41.09375,104.3125 L 42.65625,103.375 C 36.5575,93.248752 28.41875,77.075 22.84375,65.3125 z M 161.40625,65.3125 C 155.82749,77.079998 147.68875,93.255 141.59375,103.375 L 143.15625,104.3125 C 149.2875,94.136252 157.465,77.9 163.0625,66.09375 L 161.40625,65.3125 z M 18.71875,67.125 L 17.09375,67.90625 C 23.2425,80.615 30.685,94.72375 37.5625,106.59375 L 39.15625,105.6875 C 32.301249,93.852499 24.8475,79.795 18.71875,67.125 z M 165.53125,67.125 C 159.40875,79.783752 151.955,93.84125 145.09375,105.6875 L 146.6875,106.59375 C 153.57125,94.711254 161.015,80.60375 167.15625,67.90625 L 165.53125,67.125 z M 14.625,68.75 L 12.96875,69.5625 C 18.80875,81.633748 26.64375,96.34625 33.9375,108.9375 L 35.53125,108.03125 C 28.257502,95.476247 20.445,80.7825 14.625,68.75 z M 169.625,68.75 C 163.80375,80.783749 155.99125,95.4775 148.71875,108.03125 L 150.3125,108.9375 C 157.60625,96.347502 165.44,81.635 171.28125,69.5625 L 169.625,68.75 z M 10.59375,70.5 L 8.9375,71.28125 C 15.4625,84.768748 24.2675,100.7925 30.34375,111.28125 L 31.9375,110.375 C 25.878749,99.913752 17.0975,83.9425 10.59375,70.5 z M 173.65625,70.5 C 167.15,83.948748 158.37,99.9175 152.3125,110.375 L 153.90625,111.28125 C 159.98126,100.79625 168.78375,84.77625 175.3125,71.28125 L 173.65625,70.5 z M 6.71875,71.9375 L 5.0625,72.75 C 10.7225,84.452498 19.47875,100.85 26.84375,113.5625 L 28.4375,112.625 C 21.092501,99.946252 12.36125,83.6025 6.71875,71.9375 z M 177.53125,71.9375 C 171.8875,83.602499 163.1575,99.94625 155.8125,112.625 L 157.40625,113.5625 C 164.77251,100.85 173.5275,84.4525 179.1875,72.75 L 177.53125,71.9375 z M 139.375,106.46875 L 136.53125,110.53125 L 148.59375,118.96875 L 148.65625,119.09375 L 132.6875,116.03125 L 128.21875,122.375 L 144.53125,133.8125 L 147.40625,129.6875 L 134.96875,120.9375 L 151.28125,124.15625 L 155.6875,117.875 L 139.375,106.46875 z M 45.25,106.9375 L 28.75,118.0625 L 33.65625,125.34375 C 34.68125,126.865 35.769999,128.09251 36.9375,129.03125 C 38.43125,130.235 39.796251,130.7375 41.375,130.90625 C 43.2525,131.10625 45.13,130.49124 47.125,129.25 L 47.75,128.84375 C 50.36625,127.21625 51.865001,125.1625 52.375,122.9375 C 52.9875,120.26875 52.286251,117.37375 49.96875,113.9375 L 45.25,106.9375 z M 45.125,113.71875 L 46.65625,115.96875 C 47.57,117.32375 47.883749,118.7575 47.5625,120.28125 C 47.24125,121.805 46.382501,123.03625 45,123.96875 C 43.6,124.91375 42.147499,125.31625 40.6875,125.21875 C 38.99375,125.1 37.618749,124.285 36.5625,122.71875 L 35.0625,120.5 L 45.125,113.71875 z M 126.90625,125.1875 L 116.78125,136.4375 L 131.5625,149.75 L 141.6875,138.5 L 138.8125,135.90625 L 132.40625,143.03125 L 129.28125,140.25 L 135.21875,133.65625 L 132.34375,131.0625 L 126.40625,137.65625 L 123.375,134.90625 L 129.8125,127.78125 L 126.90625,125.1875 z M 58.09375,125.59375 L 43.09375,138.625 L 46.71875,142.84375 L 52.4375,137.875 L 53.28125,138.84375 C 54.2675,139.97875 54.814999,140.79625 54.875,141.3125 C 54.9375,141.82875 54.718752,142.34 54.28125,142.84375 C 54.2525,142.8675 53.611251,143.62 52.3125,145.0625 C 51.36875,146.1025 50.766252,146.8175 50.53125,147.21875 L 54.46875,151.75 C 55.05875,150.72625 56.031248,149.46875 57.34375,148 C 58.65625,146.53125 59.396249,145.45625 59.5625,144.75 C 59.81875,143.675 59.37,142.475 58.25,141.1875 L 58.34375,141.125 C 59.445,142.1125 60.5725,142.70501 61.71875,142.875 C 63.04625,143.085 64.27125,142.67375 65.40625,141.6875 C 66.57,140.67625 67.098747,139.4975 67,138.125 C 66.8825,136.455 65.80375,134.45125 63.78125,132.125 L 58.09375,125.59375 z M 58.8125,132.3125 L 60.375,134.125 C 61.0725,134.9275 61.48375,135.635 61.59375,136.28125 C 61.705,136.9275 61.475001,137.50624 60.90625,138 C 60.22875,138.59 59.525,138.76875 58.8125,138.5625 C 58.25125,138.39375 57.676249,137.955 57.0625,137.25 L 55.375,135.3125 L 58.8125,132.3125 z M 71.3125,140.46875 L 59.34375,156.34375 L 71.4375,165.46875 L 73.78125,162.375 L 66.125,156.59375 L 68.625,153.25 L 75.71875,158.59375 L 78.03125,155.5 L 70.96875,150.15625 L 73.40625,146.90625 L 81.09375,152.6875 L 83.4375,149.59375 L 71.3125,140.46875 z M 114.625,141.40625 C 112.58576,141.49836 110.45437,142.37313 107.90625,144.15625 L 101,149 L 112.40625,165.3125 L 119.59375,160.25 C 121.09375,159.19875 122.29875,158.0875 123.21875,156.90625 C 124.39625,155.39 124.7025,153.9575 124.84375,152.375 C 125.01125,150.495 124.33875,148.66 123.0625,146.6875 L 122.65625,146.0625 C 120.98125,143.475 118.89,142.03375 116.65625,141.5625 C 115.98656,141.42125 115.30475,141.37555 114.625,141.40625 z M 113.15625,146.34375 C 113.52645,146.34064 113.93031,146.39531 114.3125,146.46875 C 115.84125,146.76375 117.075,147.60249 118.03125,148.96875 C 118.99875,150.35375 119.44875,151.75626 119.375,153.21875 C 119.2875,154.915 118.45375,156.32376 116.90625,157.40625 L 114.71875,158.9375 L 107.78125,149 L 110,147.4375 C 111.00406,146.73438 112.04566,146.35307 113.15625,146.34375 z M 92.125,150.5625 C 89.5425,150.47375 87.498747,150.89 86,151.8125 C 84.3325,152.8375 83.48,154.40376 83.40625,156.53125 C 83.35875,157.86875 83.656251,158.98 84.34375,159.8125 C 84.94,160.53375 85.868748,161.125 87.0625,161.625 C 87.73125,161.90625 88.915002,162.22375 90.59375,162.71875 C 92.31375,163.225 93.302498,163.675 93.625,163.90625 C 94.215,164.33 94.521247,164.85751 94.5,165.5 C 94.48,166.08875 94.173751,166.5575 93.59375,166.90625 C 93.0125,167.25375 92.195003,167.41 91.1875,167.375 C 90.105,167.3375 89.333752,166.95874 88.84375,166.28125 C 88.47625,165.7725 88.287501,165.17 88.3125,164.4375 L 82.8125,164.21875 C 82.655,168.73 85.481252,171.10999 91.3125,171.3125 C 93.8425,171.4 95.917497,170.9275 97.53125,169.9375 C 99.315,168.84375 100.23875,167.2375 100.3125,165.09375 C 100.36625,163.59 99.977503,162.38125 99.1875,161.46875 C 98.565,160.7525 97.577501,160.1475 96.21875,159.65625 C 95.83625,159.51875 94.572499,159.16375 92.40625,158.59375 C 90.24,158.02125 89.183749,157.2275 89.21875,156.21875 C 89.2375,155.70625 89.4875,155.26499 89.96875,154.90625 C 90.44875,154.5475 91.048749,154.38125 91.78125,154.40625 C 92.645,154.43625 93.296253,154.68 93.75,155.125 C 94.20125,155.57125 94.432497,156.18375 94.40625,156.9375 L 99.875,157.125 L 99.90625,156.5625 C 99.96875,154.785 99.375,153.375 98.125,152.34375 C 96.7925,151.24625 94.778752,150.655 92.125,150.5625 z"
       transform="translate(14.17375,127.56)"
       id="path2576"
       style="fill:#fff200;fill-opacity:1;fill-rule:nonzero;stroke:none" />
  </g>
</svg>
