<?xml version="1.0" encoding="UTF-8"?>
<svg width="522.07" height="580.91" version="1.2" viewBox="0 0 391.55 435.69" xmlns="http://www.w3.org/2000/svg" xmlns:cc="http://creativecommons.org/ns#" xmlns:dc="http://purl.org/dc/elements/1.1/" xmlns:rdf="http://www.w3.org/1999/02/22-rdf-syntax-ns#" xmlns:xlink="http://www.w3.org/1999/xlink">
 <defs>
  <clipPath id="clip6">
   <path d="m223 123.31h149.55v168.38h-149.55z"/>
  </clipPath>
 </defs>
 <g transform="matrix(2.5447 0 0 2.5447 -561.12 -309.44)" stroke-width=".39298">
  <g clip-path="url(#clip6)" stroke-width=".39298">
   <path d="m247.09 123.93h103.65v47.156h21.336v2.5352c0 38.684-8.3008 64.188-21.656 81.969-13.398 17.84-31.75 27.77-51.867 35.383l-0.89062 0.33984-0.89063-0.33984c-20.117-7.6133-38.477-17.543-51.883-35.383-13.359-17.781-21.672-43.285-21.672-81.969v-2.5352h21.336v-47.156z" fill="#fff"/>
  </g>
  <g fill-rule="evenodd">
   <path d="m249.48 128.85h96.375v20.477h-96.375zm55.77 41.066c0 2.5547 1.4062 3.8164 3.0703 3.8164 0.46094 0 0.83203-0.0859 1.2344-0.25781l0.11718-2.0938c-0.3164 0.28516-0.60546 0.45703-1.0625 0.45703-1.0352 0-1.293-1.1172-1.293-1.9805 0-0.83203 0.25781-2.0117 1.3203-2.0117 0.42969 0 0.66015 0.17578 0.94922 0.46093v-2.1562c-0.31641-0.14062-0.66016-0.19922-1.0352-0.19922-0.97656 0-3.3008 0.57422-3.3008 3.9648m11.055-0.0586c0-1.8359-0.80469-3.9062-2.8711-3.9062-2.0664 0-2.875 2.0703-2.875 3.9062 0 1.8359 0.8086 3.875 2.875 3.875 2.0664 0 2.8711-2.0391 2.8711-3.875m-2.0664 0c0 0.45704-0.0312 1.9805-0.80469 1.9805-0.77734 0-0.80468-1.5234-0.80468-1.9805 0-0.48828 0.0273-2.0117 0.80468-2.0117 0.77344 0 0.80469 1.5234 0.80469 2.0117m7.0039-1.9219v-1.8398h-4.3359v1.8398h1.1211v5.6836h2.0391v-5.6836zm4.7695 0v-1.8398h-4.3359v1.8398h1.1211v5.6836h2.0391v-5.6836zm5.9141 3.5312c0-1.0078-0.54297-1.6367-1.5234-1.6953v-0.0273c0.86328 0 1.4102-0.66406 1.4102-1.4961 0-1.6367-1.4102-2.1523-2.6133-2.1523h-2.3828v7.5234h2.7266c1.8086 0 2.3828-1.2344 2.3828-2.1523m-2.9297-0.92188c0.48828 0 0.86328 0.20313 0.86328 0.71875 0 0.48829-0.40234 0.71875-0.83593 0.71875h-0.16797v-1.4375zm0.0586-2.8398c0.40234 0 0.71875 0.19922 0.71875 0.66016 0 0.48828-0.375 0.66015-0.80469 0.66015h-0.11328v-1.3203zm6.8047 3.7891c-0.0273 0.19922-0.17187 0.34375-0.45703 0.34375-0.28906 0-0.40234-0.14453-0.46093-0.37109-0.0547-0.20313-0.0547-0.46094-0.0547-0.66016v-4.7109h-2.0391v4.9102c0 0.91797 0.19921 2.7266 2.5547 2.7266s2.5547-1.8086 2.5547-2.7266v-4.9102h-2.0391v4.7383c0 0.17187 0 0.42968-0.0586 0.66015m6.9805-0.25781c0-0.57422-0.14453-0.97656-0.375-1.3203-0.22656-0.34766-0.57422-0.60547-1.0039-0.92188-0.11719-0.0859-0.25782-0.17187-0.3711-0.28515-0.11718-0.14453-0.20312-0.28907-0.20312-0.4336 0-0.28515 0.28906-0.45703 0.54297-0.45703 0.46093 0 0.94922 0.42969 1.1797 0.80469v-2.2695c-0.42968-0.23047-0.94921-0.40235-1.4336-0.40235-1.7266 0-2.3008 1.6094-2.3008 2.4688 0 0.57422 0.17578 0.97657 0.40234 1.3242 0.25782 0.3711 0.63282 0.66016 1.0039 0.97657 0.14453 0.0859 0.25781 0.17187 0.34766 0.28515 0.11328 0.11328 0.17187 0.23047 0.17187 0.40235 0 0.34375-0.31641 0.51562-0.60156 0.51562-0.51953 0-1.0078-0.42969-1.293-0.85937v2.3555c0.48437 0.19922 1.0039 0.3125 1.5195 0.3125 1.4375 0 2.4141-1.1172 2.4141-2.4961m-93.359-15.078v-4.4805h9.5352l64.641 91.523c-2.4141 2.5274-4.9688 4.8242-7.6406 6.9492zm22.598-4.4492 58.383 83.164c1.9805-2.8438 3.793-5.9453 5.4297-9.3359l-50.859-73.828zm-24.984-25.242h101.12v47.152h21.336c0 76.156-32.422 100.05-71.879 114.98-39.457-14.934-71.91-38.828-71.91-114.98h21.336zm50.574 159.7c-41.812-14.301-69.699-43.305-69.699-110.5h19.215c1.375 57.289 24.895 73.918 50.484 88.852 25.586-14.934 49.074-31.562 50.453-88.852h19.215c0 67.199-27.855 96.203-69.668 110.5" fill="#e61c02"/>
   <path d="m270.56 143.01h-3.3594v-2.2109h3.0117v-3.418h-3.0117v-2.0078h3.3594v-3.3906h-7.2656v14.418h7.2656zm6.0274-0.83203c0-1.3477-0.17188-2.6992-0.25782-4.0508l0.0312-0.0547 2.9297 8.3281h3.7617v-14.418h-3.7617v3.6758c0 1.668 0.28516 3.3047 0.42969 4.9688l-0.0273 0.0273-3.1328-8.6719h-3.7031v14.418h3.7305zm15.996 0.83203h-3.3281v-2.2109h2.9844v-3.418h-2.9844v-2.0078h3.3281v-3.3906h-7.2344v14.418h7.2344zm11.918-6.2305c0-3.8203-2.4375-4.7969-5.8281-4.7969h-3.7891v14.418h3.9024v-3.8477c0-0.69141-0.0274-1.4102-0.0547-2.1289l0.0547-0.0273 2.1562 6.0039h4.2188l-2.8984-6.0039c1.5508-0.60156 2.2383-2.0391 2.2383-3.6172m-3.875 0.0273c0 0.94922-0.54688 1.8398-1.5781 1.8398h-0.26171v-3.5625c1.1523 0 1.8398 0.51563 1.8398 1.7227m12.234 4.3086c0 0.83203-0.3164 2.0664-1.3516 2.0664-1.4922 0-1.4336-2.5274-1.4922-3.5586v-0.60547c0-1.4062 0.11329-3.8164 1.6367-3.8164 0.6875 0 1.0898 0.91797 1.1211 1.4922l3.7617-1.4062c-0.83204-2.0977-2.5859-3.5625-4.9102-3.5625-4.2227 0-5.6016 3.9648-5.6016 7.5547 0 3.6445 1.3789 7.3789 5.6289 7.3789 4.5391 0 5.2266-4.4219 5.2266-7.9844l-0.0274-0.60156h-5.4297v3.043zm5.7422 5.2852h3.9062v-14.418h-3.9062zm13.441-3.3906h-3.332v-2.2109h2.9844v-3.418h-2.9844v-2.0078h3.332v-3.3906h-7.2383v14.418h7.2383z" fill="#e61c02"/>
   <path d="m250.63 238.41c-0.69141 0.40234-1.8086-3.7891-4.5977-5.0547-4.5664-2.0938-5.2227-3.9336-8.0977-9.9336-0.17187 5.1406 2.8438 15.336 8.4727 16.195 1.6953 0.23047 4.1914-1.3789 5.2539-0.19922 1.7812 2.668 5.4883 8.4414 6.8633 10.367 0.17578 0.25781 0.0586 0.45703-0.0547 0.45703-0.40234 0.34375-2.8438-3.1016-5.2852-3.5312-4.8828-0.91797-5.9141-2.5273-9.9922-7.5234 0.94531 4.9102 6.1172 13.957 11.715 13.352 1.8398-0.23047 3.3008-1.75 4.5664-1.6367 6.8633 7.4688 8.3555 8.043 8.0703 8.3008-0.71875 0.51562-3.0156-2.3828-5.832-2.2969-4.793 0.0859-5.1953-0.40234-10.051-4.1953 1.8672 4.3398 7.0078 10.281 12.809 9.1914 1.5508-0.31641 2.4727-2.0391 4.1914-1.9258 4.5703 3.9062 7.1797 5.457 10.168 7.4375-0.0586 0.23046-0.3164 0.26171-0.57421 0.14453-1.1758-0.45703-3.5039-2.0078-5.8867-1.6055-4.9414 0.80078-6.4609-0.26172-12.004-3.4492 2.5547 4.1914 10.48 10.742 15.594 8.2148 1.4648-0.74609 2.0938-2.5273 3.8477-2.6992 1.8086 1.0625 3.6172 2.0391 5.457 2.9844 1.8672 0.94922 3.7305 1.8398 5.7148 2.6719 0.40235 0.25782 0.19922 0.28907-0.0312 0.28907-0.97656 0.0547-3.6172-1.4375-5.8008-0.71875-4.1914 1.3789-8.4414 0.42968-12.461-0.94922 3.7891 3.6211 11.285 7.6094 17.172 5.1133 1.2656-0.54688 1.5234-2.5 2.8438-3.0469 3.4726 1.3242 6.6914 3.3906 9.5898 5.9766l1.1211-0.60547c-3.3594-2.9844-6.6055-5.0234-10.914-6.5469 0.0859-1.2344 1.0352-2.1836 1.2656-3.4453 1.0039-5.457-7.2969-11.145-11.918-12.434 4.4805 4.3633 5.9141 5.4844 6.4883 10.336 0.25781 1.9844 1.582 3.8477 2.7305 4.5664 0.11328 0.0586 1.0312 0.83203 0.51562 0.66016-3.9336-1.4922-7.8086-3.6172-11.457-5.8594 0.28516-1.2617 1.3789-2.0078 1.8359-3.2734 1.8984-5.2266-5.457-12.262-9.793-14.301 3.707 5.0547 5 6.4062 4.7695 11.316-0.0859 2.0938 1.2617 4.2227 2.2695 5.1094 0.31641 0.31641 0.17188 0.51954 0.0274 0.63282-3.4453-2.1836-6.7774-4.6797-10.023-7.4961 0.46094-1.0898 1.582-1.6367 2.1562-2.7539 2.5273-4.8242-3.4766-12.695-7.3555-15.277 2.8438 5.3984 3.5078 7.1758 2.9609 11.688-0.23047 1.9531 0.60156 4.2774 1.5195 5.3125 0.20313 0.22657 0.0859 0.54297-0.11328 0.42969-2.8125-2.5-5.5977-5.3984-8.3008-8.4727 0.66015-0.97656 1.8086-1.4062 2.5273-2.4102 3.2188-4.4531-1.6914-12.98-5.2266-16.082 2.0977 5.7734 2.7852 7.3242 1.3242 11.887-0.77735 2.4414 0.22656 3.9922 1.0312 5.5156 0.17187 0.31641-0.0274 0.6875-0.14453 0.60156-1.8086-2.4688-4.5078-6.4023-7.0039-10.594 0.57422-1.3516 2.0938-1.7812 2.957-2.9297 3.332-4.4258-0.97656-13.152-4.4805-16.371 2.0117 5.8867 2.125 7.0352 0.60157 11.633-1.0625 3.1875 1.9258 6.2891 0.43359 6.6602-1.4648-2.8125-3.7617-7.9844-5.9766-13.957 0.66406-1.4336 2.3281-1.5508 3.2188-2.7539 3.1016-4.1641 0.0859-13.012-2.5859-16.398 1.1797 6.0312 1.0625 7.3789-0.85938 11.746-0.89062 2.0078 0.0859 4.4492 0.17188 5.6836 0.0273 0.28907-0.25781 0.48828-0.34766 0.63282-2.0938-5.082-3.5-10.426-4.4219-14.559 0.77734-1.7539 2.4726-1.6953 3.707-2.7578 4.1328-3.6484 1.4922-12.75-1.2656-16.629 0.4336 5.5156 0.14454 7.2383-2.0391 12.32-1.0039 2.3281 0.46094 5.4844-0.45703 5.6289l-0.23047 0.0273-1.5234-9.2148c3.0469-7.8125 1.3242-10.453-1.4062-14.906-3.1875 6.1758-3.2148 8.6719 0.57422 15.078l1.4375 8.957c-0.0859 0.0312-0.17578 0.0586-0.26172 0.0586-1.0039 0.20313-0.6875-4.0469-2.8984-6-2.8711-2.5586-3.2734-4.5664-4.9688-11.633-1.4922 4.8828-1.3789 15.508 3.7031 17.719 1.3242 0.54687 3.1328-0.0859 4.2812 0.80469l0.3711 0.54687c1.207 5.8008 2.6445 10.078 4.2812 14.816-0.0859 0.0312-0.17188 0.0859-0.25782 0.11719-1.0352 0.28515-1.2344-3.9375-3.8203-5.5742-4.25-2.7266-4.6523-4.5938-6.6914-10.824-0.91796 4.9375 0.54688 15.766 6.1758 16.914 3.2148 0.63281 5.0234 0.37109 5.1953 0.80469 2.7578 7.2344 4.8555 11.656 5.7148 13.41 0.23047 0.60157-0.17187 0.40235-0.28515 0.51563" fill="#fff000"/>
   <path d="m344.71 238.41c0.6875 0.40234 1.8086-3.7891 4.5938-5.0547 4.5664-2.0938 5.2266-3.9336 8.0977-9.9336 0.17187 5.1406-2.8438 15.336-8.4727 16.195-1.6914 0.23047-4.1914-1.3789-5.2539-0.19922-1.7812 2.668-5.4844 8.4414-6.8633 10.367-0.17187 0.25781-0.0586 0.45703 0.0586 0.45703 0.40234 0.34375 2.8398-3.1016 5.2812-3.5312 4.8555-0.91797 5.918-2.5273 9.9961-7.5234-0.94922 4.9102-6.1172 13.957-11.719 13.352-1.8359-0.23047-3.3008-1.75-4.5664-1.6367-6.8633 7.4688-8.3555 8.043-8.0664 8.3008 0.71484 0.51562 3.0156-2.3828 5.8281-2.2969 4.7969 0.0859 5.1992-0.40234 10.051-4.1953-1.8672 4.3398-7.0352 10.281-12.809 9.1914-1.5508-0.31641-2.4688-2.0391-4.1914-1.9258-4.5664 3.9062-7.1797 5.457-10.168 7.4375 0.0586 0.23046 0.3164 0.26171 0.57421 0.14453 1.1797-0.45703 3.5039-2.0078 5.8867-1.6055 4.9141 0.80078 6.4609-0.26172 12.004-3.4492-2.5547 4.1914-10.508 10.742-15.594 8.2148-1.4922-0.74609-2.0938-2.5273-3.8477-2.6992-1.8086 1.0625-3.6172 2.0391-5.4531 2.9844-1.8672 0.94922-3.7344 1.8398-5.7148 2.6719-0.40234 0.25782-0.20312 0.28907 0.0274 0.28907 0.97656 0.0547 3.6172-1.4375 5.8008-0.71875 4.1914 1.3789 8.4414 0.42968 12.465-0.94922-3.793 3.6211-11.289 7.6094-17.176 5.1133-1.2617-0.54688-1.5195-2.5-2.8438-3.0469-3.4726 1.3242-6.7188 3.3906-9.6172 5.9766l-1.1211-0.60547c3.3906-2.9844 6.6328-5.0234 10.941-6.5469-0.0859-1.2344-1.0352-2.1836-1.2617-3.4453-1.0078-5.457 7.293-11.145 11.914-12.434-4.4805 4.3633-5.9141 5.4844-6.4883 10.336-0.25781 1.9844-1.5781 3.8477-2.7266 4.5664-0.11719 0.0586-1.0352 0.83203-0.51953 0.66016 3.9336-1.4922 7.8125-3.6172 11.457-5.8594-0.28516-1.2617-1.375-2.0078-1.8359-3.2734-1.8945-5.2266 5.457-12.262 9.793-14.301-3.7031 5.0547-4.9961 6.4062-4.7656 11.316 0.0859 2.0938-1.2656 4.2227-2.2695 5.1094-0.3164 0.31641-0.17187 0.51954-0.0273 0.63282 3.4453-2.1836 6.7734-4.6797 10.02-7.4961-0.46094-1.0898-1.5781-1.6367-2.1523-2.7539-2.5274-4.8242 3.4726-12.695 7.3516-15.277-2.8438 5.3984-3.5039 7.1758-2.957 11.688 0.22656 1.9531-0.60547 4.2774-1.5234 5.3125-0.19922 0.22657-0.0859 0.54297 0.11328 0.42969 2.8164-2.5 5.6016-5.3984 8.3008-8.4727-0.66015-0.97656-1.8086-1.4062-2.5273-2.4102-3.2148-4.4531 1.6953-12.98 5.2266-16.082-2.0977 5.7734-2.7852 7.3242-1.3203 11.887 0.77344 2.4414-0.23047 3.9922-1.0352 5.5156-0.17187 0.31641 0.0274 0.6875 0.14453 0.60156 1.8086-2.4688 4.5078-6.4023 7.0078-10.594-0.57422-1.3516-2.0977-1.7812-2.9609-2.9297-3.3281-4.4258 0.98047-13.152 4.4805-16.371-2.0078 5.8867-2.125 7.0352-0.60157 11.633 1.0625 3.1875-1.9258 6.2891-0.42968 6.6602 1.4648-2.8125 3.7617-7.9844 5.9726-13.957-0.66015-1.4336-2.3281-1.5508-3.2188-2.7539-3.0976-4.1641-0.0859-13.012 2.5859-16.398-1.1758 6.0312-1.0625 7.3789 0.86328 11.746 0.85938 2.0078-0.0859 4.4492-0.17187 5.6836-0.0312 0.28907 0.25781 0.48828 0.34375 0.63282 2.0938-5.082 3.5039-10.426 4.4219-14.559-0.77344-1.7539-2.4688-1.6953-3.7031-2.7578-4.1367-3.6484-1.4961-12.75 1.2617-16.629-0.42969 5.5156-0.17188 7.2383 2.0391 12.32 0.97656 2.3281-0.46094 5.4844 0.45703 5.6289l0.23047 0.0273 1.5234-9.2148c-3.043-7.8125-1.3203-10.453 1.4062-14.906 3.1875 6.1758 3.2188 8.6719-0.57422 15.078l-1.4336 8.957c0.0859 0.0312 0.17188 0.0586 0.25782 0.0586 1.0039 0.20313 0.6875-4.0469 2.8984-6 2.8438-2.5586 3.2734-4.5664 4.9688-11.633 1.4961 4.8828 1.3516 15.508-3.7031 17.719-1.3516 0.54687-3.1289-0.0859-4.2774 0.80469l-0.375 0.54687c-1.207 5.8008-2.6406 10.078-4.2773 14.816 0.0859 0.0312 0.17188 0.0859 0.25781 0.11719 1.0312 0.28515 1.2031-3.9375 3.8164-5.5742 4.2539-2.7266 4.6523-4.5938 6.6914-10.824 0.92187 4.9375-0.54297 15.766-6.1719 16.914-3.2188 0.63281-5.0273 0.37109-5.1992 0.80469-2.7578 7.2344-4.8516 11.656-5.7148 13.41-0.23047 0.60157 0.17187 0.40235 0.28906 0.51563" fill="#fff000"/>
  </g>
 </g>
</svg>
