<?xml version="1.0" encoding="UTF-8"?>
<svg id="Ebene_1" data-name="Ebene 1" xmlns="http://www.w3.org/2000/svg" xmlns:xlink="http://www.w3.org/1999/xlink" width="200" height="200" viewBox="0 0 58 58">
  <defs>
    <style>
      .cls-1, .cls-2 {
        fill: #fff;
      }

      .cls-2, .cls-3 {
        fill-rule: evenodd;
      }

      .cls-4 {
        mask: url(#mask-2);
      }

      .cls-5 {
        fill: #ec1c24;
      }

      .cls-3, .cls-6 {
        fill: #604734;
      }

      .cls-7 {
        clip-path: url(#clippath);
      }

      .cls-8 {
        fill: none;
      }

      .cls-9 {
        mask: url(#mask-1);
      }

      .cls-10 {
        mask: url(#mask);
      }
    </style>
    <clipPath id="clippath">
      <rect class="cls-8" width="58" height="58"/>
    </clipPath>
    <mask id="mask" x="26.37" y="32.41" width="5.35" height="13.42" maskUnits="userSpaceOnUse">
      <g id="f">
        <path id="c" class="cls-2" d="m31.72,43.68c-.79.72-1.67.69-2.69.69-1.24,0-1.83-.02-2.67-.69v-8.69c0-1.45,1.17-2.57,2.68-2.57s2.68,1.12,2.68,2.57v8.69s0,0,0,0Z"/>
      </g>
    </mask>
    <mask id="mask-1" x="26.37" y="32.41" width="5.35" height="13.42" maskUnits="userSpaceOnUse">
      <g id="e">
        <path id="b" class="cls-2" d="m31.72,43.68c-.79.72-1.67.69-2.69.69-1.24,0-1.83-.02-2.67-.69v-8.69c0-1.45,1.17-2.57,2.68-2.57s2.68,1.12,2.68,2.57v8.69s0,0,0,0Z"/>
      </g>
    </mask>
    <mask id="mask-2" x="25.18" y="31.13" width="7.73" height="14.71" maskUnits="userSpaceOnUse">
      <g id="d">
        <path id="a" class="cls-2" d="m32.91,43.24c-1.08.77-2.31.47-3.78.47-1.5,0-2.86.3-3.95-.47v-8.4c0-2.09,1.69-3.71,3.86-3.71s3.86,1.62,3.86,3.71v8.4Z"/>
      </g>
    </mask>
  </defs>
  <g class="cls-7">
    <g>
      <rect class="cls-8" x="-11" y="-11" width="80" height="80"/>
      <g>
        <path id="Path" class="cls-6" d="m0,29C0,12.98,12.98,0,29,0s29,12.98,29,29-12.98,29-29,29S0,45.02,0,29Z"/>
        <path id="Path-2" data-name="Path" class="cls-1" d="m1.3,29C1.3,13.7,13.7,1.31,29,1.31s27.69,12.4,27.69,27.69-12.4,27.69-27.69,27.69S1.31,44.3,1.3,29Z"/>
        <path id="Path-3" data-name="Path" class="cls-5" d="m11.89,29c0-9.45,7.66-17.11,17.11-17.11s17.11,7.66,17.11,17.11-7.66,17.11-17.11,17.11-17.11-7.66-17.11-17.11Z"/>
        <polygon id="Path-4" data-name="Path" class="cls-6" points="11.11 38.48 9.87 38.48 9.24 37.4 8.62 38.47 7.4 38.47 8.02 39.54 7.4 40.61 8.64 40.61 9.26 41.67 9.89 40.61 11.1 40.61 10.48 39.55 11.11 38.48"/>
        <polygon id="Path-5" data-name="Path" class="cls-6" points="50.7 38.48 49.46 38.48 48.83 37.4 48.21 38.47 46.98 38.47 47.6 39.54 46.98 40.61 48.22 40.61 48.84 41.67 49.47 40.61 50.69 40.61 50.07 39.55 50.7 38.48"/>
        <polygon id="Path-6" data-name="Path" class="cls-1" points="38.15 17.91 36.9 17.91 36.28 16.83 35.66 17.9 34.43 17.9 35.05 18.96 34.43 20.03 35.67 20.03 36.29 21.1 36.92 20.03 38.14 20.03 37.52 18.98 38.15 17.91"/>
        <path id="Path-7" data-name="Path" class="cls-1" d="m29.42,18.68c1.34.09,2.31,1.09,2.41,2.41h-5.57c.1-1.32,1.07-2.33,2.41-2.41v-2.6h-1.67s0-.74,0-.74h1.67s0-2.23,0-2.23h.74v2.23h1.67s0,.75,0,.75h-1.67s0,2.6,0,2.6h0Z"/>
        <polygon id="Path-8" data-name="Path" class="cls-1" points="18.65 21.84 24.96 21.84 24.96 22.96 18.65 22.96 18.65 21.84"/>
        <polygon id="Path-9" data-name="Path" class="cls-1" points="25.89 21.84 32.2 21.84 32.2 22.96 25.89 22.96 25.89 21.84"/>
        <polygon id="Path-10" data-name="Path" class="cls-1" points="33.13 21.84 39.44 21.84 39.44 22.96 33.13 22.96 33.13 21.84"/>
        <polygon id="Path-11" data-name="Path" class="cls-1" points="18.65 28.9 39.44 28.9 39.44 30.01 18.65 30.01 18.65 28.9"/>
        <polygon id="Path-12" data-name="Path" class="cls-1" points="18.65 35.03 24.22 35.03 24.22 36.14 18.65 36.14 18.65 35.03"/>
        <polygon id="Path-13" data-name="Path" class="cls-1" points="33.87 35.03 39.44 35.03 39.44 36.14 33.87 36.14 33.87 35.03"/>
        <path id="Path-14" data-name="Path" class="cls-1" d="m19.4,23.83c.54-.16,1.42-.43,2.07-.05.33.19.12.51.01.8-.36.27-.65.36-1.09.36-.41,0-.66-.09-.99-.32-.11-.29-.36-.68,0-.79h0Z"/>
        <path id="Path-15" data-name="Path" class="cls-1" d="m22.34,24.73s-.23-.63,0-.89c.25-.29.62-.06.97-.06.25,0,.39.03.64,0,0,0,.19.63,0,.94-.32.54-1.61,0-1.61,0Z"/>
        <path id="Path-16" data-name="Path" class="cls-1" d="m19.73,25.39c-.23.23-.31.29-.32.71-.02.42.1.66.41.66.09,0,.15,0,.24-.01,0-.29.02-.51.02-.8,0-.27-.08-.48-.34-.56Z"/>
        <path id="Path-17" data-name="Path" class="cls-1" d="m26.68,25.42c-.06.27-.04.44-.04.72,0,.26,0,.59.26.6.45.02.41-.68.41-1.01,0-.29-.35-.29-.63-.31h0Z"/>
        <path id="Path-18" data-name="Path" class="cls-1" d="m26.39,24.04c0,.18.24.41.37.52.24.21.45.19.77.19.18,0,.39-.03.57-.03.38,0,.62-.28.62-.66,0-.33-.49-.45-.82-.45h-.8c-.29,0-.7,0-.7.44Z"/>
        <path id="Path-19" data-name="Path" class="cls-1" d="m29.38,24.69c.12.12.24.08.42.08h.56c.31,0,.49.04.73-.16.2-.17.1-.34.1-.61s-.54-.37-.93-.38c-.33,0-.6-.02-.81.23-.21.26-.06.85-.06.85h0Z"/>
        <path id="Path-20" data-name="Path" class="cls-1" d="m20.6,25.74c0,.2-.07.45-.07.65,0,.24.55.32.79.35.4.06.68.03,1.08.03.33,0,.65-.24.65-.57,0-.24.06-.44-.1-.62-.21-.24-.46-.23-.78-.27-.56-.06-1.39-.11-1.57.43h0Z"/>
        <path id="Path-21" data-name="Path" class="cls-1" d="m27.86,25.74c-.07.27-.05.47.11.7.23.35.49.31,1.03.31s1.33-.26,1.25-.99c-.02-.23-.49-.3-.77-.37,0,0-1.46-.29-1.61.34h0Z"/>
        <path id="Path-22" data-name="Path" class="cls-1" d="m30.68,26.13c0,.3-.09.66.28.66s.38-.17.38-.45c0-.24.27-.93-.11-.98-.18-.02-.31.03-.43.16-.17.17-.12.36-.12.61h0Z"/>
        <path id="Path-23" data-name="Path" class="cls-1" d="m33.65,24.23c0,.56.47.79,1.35.73.49-.03,1.03.03.95-.91,0-.1.08-.2,0-.26-.61-.46-.69,0-1.13,0-.45,0-1.17-.01-1.17.44h0Z"/>
        <path id="Path-24" data-name="Path" class="cls-1" d="m36.83,24.06v.4c0,.33.19.74.52.74.15,0,.35-.03.49-.03.48,0,.81-.43.81-.92,0-.26-.34-.44-.59-.49l-.76.08-.4.02c-.07.03-.08.12-.08.2Z"/>
        <path id="Path-25" data-name="Path" class="cls-1" d="m34.19,25.38c-.34.31-.35.38-.35.84,0,.07.03.44.03.51.07,0,.23.03.3.03.29,0,.38-.39.38-.68s-.1-.54-.35-.7h0Z"/>
        <path id="Path-26" data-name="Path" class="cls-1" d="m35,26.06c.02.1.13.31.28.45.29.26.62.2.98.2s.9-.17.93-.7c.03-.43-.81-.63-1.19-.63-.41,0-1.09.16-1,.68h0Z"/>
        <path id="Path-27" data-name="Path" class="cls-1" d="m36.79,27.61c0,.47.52.69.99.69.22,0,.31-.16.5-.27.17-.1.35-.19.35-.4,0-.33-.34-.52-.68-.52-.49,0-1.17,0-1.17.5h0Z"/>
        <path id="Path-28" data-name="Path" class="cls-1" d="m35.62,28.3c.3-.2.6-.66.31-.87-.18-.13-.46.02-.58.02-.21,0-.34-.11-.56-.12-.35-.02-.7-.12-.88.18-.07.11-.09.24-.09.31,0,.27,0,.39.14.57.25.3.61,0,1.01,0,.24,0,.45.06.67-.08h0Z"/>
        <path id="Path-29" data-name="Path" class="cls-1" d="m30.98,28.3c-.24.04-.39.05-.63.05-.36,0-.6-.08-.89-.25-.08-.05-.08-.14-.08-.29,0-.4.74-.52,1.14-.52.38,0,.66.12.66.5,0,.21-.08.35-.21.52h0Z"/>
        <path id="Path-30" data-name="Path" class="cls-1" d="m27.88,27.37c-.23,0-.39.01-.62.01-.31,0-.84,0-.84.31,0,.41.38.43.79.43h.8c.38,0,.69-.07.69-.45,0-.17-.22-.28-.39-.28-.18,0-.25-.03-.43-.03Z"/>
        <path id="Path-31" data-name="Path" class="cls-1" d="m23.26,28.34h-.88c.01-.12-.26-.19-.26-.32,0-.14.11-.25.23-.38.42-.45,1.01.04,1.59.04,0,.08.02.24.02.32,0,.12-.16.19-.26.25-.21.13-.18.09-.43.09h0Z"/>
        <path id="Path-32" data-name="Path" class="cls-1" d="m21.09,28.3c-.7,0-.78.07-1.47.01,0-.04-.2-.34-.2-.45,0-.41.25-.43.66-.43.52,0,1.36-.27,1.36.25,0,.23-.11.62-.35.62h0Z"/>
        <path id="Path-33" data-name="Path" class="cls-1" d="m19.38,31.23c.05.49.73.3,1.22.3.4,0,.64.11,1.02-.02.28-.09.33-.37.33-.67,0-.15-.23-.22-.38-.23-.41-.04-.51.04-.86-.15-.44-.24-1.39.15-1.33.77Z"/>
        <path id="Path-34" data-name="Path" class="cls-1" d="m22.8,30.61c-.31.24.02.89.46.89.2,0,.68-.01.88-.01.15,0,.24.01.39.01h.72c.37,0,.78-.18.74-.66-.03-.29-.46-.26-.75-.26-.5,0-.8.05-1.3.05h-.51c-.27,0-.43-.16-.63-.02Z"/>
        <path id="Path-35" data-name="Path" class="cls-1" d="m19.37,32.22c-.28.18.04.55.02.85-.02.32.24.28.42.28.27,0,.51-.12.51-.39,0-.43-.18-.82-.62-.82-.09,0-.22,0-.33.07Z"/>
        <path id="Path-36" data-name="Path" class="cls-1" d="m23.94,32.71c0,.24.22.42.46.42.39,0,.61-.44.67-.87-.22-.21-.56-.03-.86-.03-.23,0-.26.25-.26.48Z"/>
        <path id="Path-37" data-name="Path" class="cls-1" d="m22.35,34.11c0,.26.21.35.46.35.35,0,.76.11,1.04-.1.19-.15.19-.35.19-.59,0-.09,0-.11-.12-.19-.06,0-.31-.05-.37-.05-.62,0-1.2-.05-1.2.57Z"/>
        <path id="Path-38" data-name="Path" class="cls-1" d="m22.01,32.01c-.23.02-.35.19-.56.19-.29,0-.73-.09-.7.4.03.51.35.75,1.17.75.69,0,1.25-.26,1.25-.82,0-.47-.66-.56-1.15-.52h0Z"/>
        <path id="Path-39" data-name="Path" class="cls-1" d="m31.86,30.62c.58-.57,2.19,0,3.59,0,.27,0,.6.28.6.55,0,.32-.54.35-.86.35h-2.54c-.49,0-.88-.14-.76-.8,0-.04-.05-.07-.02-.1h0Z"/>
        <path id="Path-40" data-name="Path" class="cls-1" d="m36.83,30.62v.55c0,.19-.11.38.36.35.28-.02.45-.01.73-.01h.42c.29,0,.34-.41.34-.69,0-.14-.16-.16-.29-.19-.25-.05-.4-.08-.66-.08-.35,0-.55.08-.9.08h0Z"/>
        <path id="Path-41" data-name="Path" class="cls-1" d="m33.2,32.45c.1.49.45.89.94.89.4,0,.54-.49.67-.87,0,0-.45-.34-.79-.35-.35,0-.83.33-.83.33Z"/>
        <path id="Path-42" data-name="Path" class="cls-1" d="m35.47,32.21c-.16.12-.22.25-.22.46s.02.44.18.65c.33.41.81,0,1.34,0,.38,0,.56-.34.51-.89-.03-.31-.45-.25-.75-.25h-.45s-.42-.11-.61.03h0Z"/>
        <path id="Path-43" data-name="Path" class="cls-1" d="m37.98,32.51v.49c0,.22.31.32.53.32.07,0,.12-.01.19-.02,0,0,.29-.46.18-.74-.09-.21-.33-.38-.43-.38-.19,0-.35.19-.47.33h0Z"/>
        <path id="Path-44" data-name="Path" class="cls-1" d="m38.63,33.78c-.34,0-.61.01-.95.01-.41,0-.99-.06-.99.35,0,.19.18.32.34.42.17.1.15.11.35.11.23,0,.54.03.75-.05.16-.05.38-.08.49-.2.13-.14.03-.46,0-.65h0Z"/>
        <path id="Path-45" data-name="Path" class="cls-1" d="m36.84,36.73c-.23.2,0,.57.15.77.17.21.41.07.68.07.16,0,.29.03.44.04.56.02.49-.5.51-.89,0,0-1.33-.4-1.79.01h0Z"/>
        <path id="Path-46" data-name="Path" class="cls-1" d="m34.81,37.62c-.3,0-.48-.02-.64-.27-.09-.13-.21-.36-.21-.52v-.16s.07-.02.12-.02c.39,0,.54-.05.92-.05.27,0,.49.11.76.11.13,0,.35.21.35.34,0,.65-.57.59-1.3.56h0Z"/>
        <path id="Path-47" data-name="Path" class="cls-1" d="m34.19,38.09c-.15.26-.31.47-.31.77,0,.23-.07.43.57.35.19-.02.42.09.43-.29.01-.38-.27-.88-.69-.84Z"/>
        <path id="Path-48" data-name="Path" class="cls-1" d="m35.27,38.67c0,.31.08.59.6.55.22-.01.71,0,.71,0,0,0,.38.02.58-.08.19-.09.36-.2.36-.41s-.21-.28-.32-.46c-.12-.2-.69-.24-1.07-.24-.4,0-.85.24-.85.64h0Z"/>
        <path id="Path-49" data-name="Path" class="cls-1" d="m38.09,38.1s-.35.51-.19.79c.1.18.36.3.44.3.2,0,.41-.1.42-.31.04-.67-.27-.86-.67-.78Z"/>
        <path id="Path-50" data-name="Path" class="cls-1" d="m33.96,40.13v.13c0,.19-.03.33.06.49.2.38.66.25,1.09.25.36,0,.9.11.9-.25,0-.27.04-.46-.1-.69-.17-.26-.51-.13-.81-.16-.71-.07-.74.05-1.14.22h0Z"/>
        <path id="Path-51" data-name="Path" class="cls-1" d="m36.84,39.92c-.06.29-.22.41-.22.71,0,.31.28.46.71.37.28-.06.52.1.73-.08.31-.27.34-.53.41-.94-.12-.05-.28-.12-.42-.12s-.21.04-.35.04c-.33,0-.51-.02-.87.02h0Z"/>
        <path id="Path-52" data-name="Path" class="cls-1" d="m35.93,41.54c-.39.16-.67.26-.67.63,0,.3.36.26.65.26.47,0,1.03-.25.93-.76-.03-.15-.22-.22-.38-.22-.23,0-.31.05-.54.08Z"/>
        <path id="Path-53" data-name="Path" class="cls-1" d="m33.9,42.08c0,.38-.02.82.48.85.31.02.44-.39.44-.7,0-.16-.07-.26-.07-.42-.13-.18-.31-.43-.5-.31-.22.14-.35.32-.35.58Z"/>
        <path id="Path-54" data-name="Path" class="cls-1" d="m21.5,41.48c-.32,0-.74.04-.74.35,0,.47.49.62,1.21.56.25-.02.6.13.61-.23.01-.45-.64-.68-1.09-.68h0Z"/>
        <path id="Path-55" data-name="Path" class="cls-1" d="m23.24,39.64c-.17.11-.61.21-.82.23-.22.03-.29.22-.29.45,0,.2.02.4.02.6.16.16.36.08.58.08s.39.06.61.06c.26,0,.46-.14.52-.39.11-.49-.06-.78-.61-1.03h0Z"/>
        <path id="Path-56" data-name="Path" class="cls-1" d="m20.07,41c-.22,0-.47.08-.56-.12-.11-.27-.08-.46-.08-.75,0-.09.01-.14.02-.22h1.73c.22,0,.44.15.44.37,0,.4-.26.76-.65.76-.33,0-.58-.03-.9-.03h0Z"/>
        <path id="Path-57" data-name="Path" class="cls-1" d="m21.39,38.1c-.27,0-.43.32-.43.59,0,.19-.13.4.03.52.7.56,2.71.06,2.71.06.09-.19.16-.44.16-.65,0-.47-.58-.5-1.06-.5-.12,0-1.13-.02-1.42-.02h0Z"/>
        <path id="Path-58" data-name="Path" class="cls-1" d="m19.34,39.23c0-.27-.2-.49-.2-.75,0-.22.29-.34.51-.37.63-.09.84.84.46,1.13-.24.18-.77,0-.77,0h0Z"/>
        <path id="Path-59" data-name="Path" class="cls-1" d="m20.27,37.64c-.59-.01-.88-.26-.88-.71,0-.26.19-.45.57-.41.42.04.66-.02,1.08-.02.3,0,.4.36.4.66,0,.45-.36.5-1.18.48h0Z"/>
        <path id="Path-60" data-name="Path" class="cls-1" d="m23.4,36.5c-.17,0-.26,0-.43,0-.55-.02-.82.01-.82.32,0,.18-.02.37.14.52.35,0,.45.28.8.28.31,0,.71-.19.67-.65-.02-.23-.13-.47-.36-.47Z"/>
        <path id="Path-61" data-name="Path" class="cls-1" d="m23.46,41.45c-.26.05-.22.45-.23.72-.02.53-.03.7.26.7.11,0,.38-.07.38-.32,0-.24.12-.35.12-.6,0-.2-.22-.45-.53-.5Z"/>
        <path id="Path-62" data-name="Path" class="cls-1" d="m38.4,26.54h-.45c-.2,0-.25-.28-.25-.49,0-.17-.07-.28,0-.43.15-.35.98,0,.98,0v.42c0,.17-.19.36-.28.5Z"/>
        <polygon id="Path-63" data-name="Path" class="cls-1" points="23.66 17.91 22.42 17.91 21.79 16.83 21.17 17.9 19.95 17.9 20.57 18.96 19.95 20.03 21.19 20.03 21.81 21.1 22.44 20.03 23.65 20.03 23.03 18.98 23.66 17.91"/>
        <g>
          <g id="Clipped">
            <g class="cls-10">
              <path id="Path-64" data-name="Path" class="cls-1" d="m31.26,45.84v-10.91c0-1.15-.79-2.08-1.85-2.08,0,0,0,10.59,0,12.99h1.85Z"/>
            </g>
          </g>
          <g id="i">
            <g class="cls-9">
              <path id="Path-65" data-name="Path" class="cls-1" d="m26.84,45.84v-10.91c0-1.15.8-2.08,1.85-2.08,0,0,0,10.59,0,12.99h-1.86Z"/>
            </g>
          </g>
        </g>
        <g class="cls-4">
          <path id="Shape" class="cls-2" d="m32,45.84c-1.05,0-4.7,0-5.91,0v-10.94c0-1.6,1.29-2.84,2.96-2.84s2.96,1.24,2.96,2.84v10.94h0Zm.91-2.27c-1.08.77-2.39,1.34-3.86,1.34-1.5,0-2.78-.56-3.86-1.34v-8.73c0-2.09,1.69-3.71,3.86-3.71s3.86,1.62,3.86,3.71v8.73Z"/>
        </g>
        <path id="Path-66" data-name="Path" class="cls-1" d="m23.42,26.26c0,.08.11.28.11.36,0,.05.18,0,.23,0,.14,0,.25-.12.25-.27,0-.31.26-.57.1-1.01-.08-.22-.41-.13-.61,0-.12.33-.07.61-.07.9h0Z"/>
        <path id="Path-67" data-name="Path" class="cls-1" d="m19.16,34.36c.02.23.65.19.95.22.51.04.44-.11.95-.11.13,0,.62.03.62-.1,0-.37-.25-.56-.85-.57-1.19-.03-1.43.12-1.66.57h0Z"/>
        <path id="Path-68" data-name="Path" class="cls-1" d="m36.16,34.09c-.21-.4-.58-.31-.97-.31-.21,0-.45.02-.66.02s-.42.11-.42.31c0,.17.14.24.28.32.2.12,1.71.06,1.77-.34h0Z"/>
        <path id="Shape-2" data-name="Shape" class="cls-3" d="m31.81,10.03l.19-2.21c1.74.2,2.97-.24,3.13-1.99.16-1.78-1.15-2.41-2.91-2.57l-1.83-.16-.59,6.76,2.01.18h0Zm1.29-4.41c-.04.5-.41.75-.96.67l.14-1.56h.15c.49.05.72.46.68.89Z"/>
        <path id="Shape-3" data-name="Shape" class="cls-3" d="m40.07,13.16l1.61-6.78-2.21-1.1-4.63,5.27,1.86.93.54-.71,1.21.61-.26.85,1.87.93h0Zm-1.94-3.55l.95-1.29c.26-.34.5-.71.74-1.06h.02c-.14.41-.3.81-.44,1.22l-.51,1.51-.76-.38h0Z"/>
        <polygon id="Path-69" data-name="Path" class="cls-6" points="10.24 25.26 7.68 24.81 7.93 23.38 6.35 23.1 6.1 24.53 5.13 24.36 5.4 22.83 3.82 22.56 3.2 26.07 9.89 27.25 10.24 25.26"/>
        <path id="Path-70" data-name="Path" class="cls-6" d="m6.54,16.13c-.25.24-.45.53-.61.84-.44.87-1.03,3.15,1.68,4.53,2.07,1.05,3.73.32,4.48-1.15.2-.4.3-.76.34-1.2l-1.64-.97c.09.41.11.74-.1,1.15-.46.9-1.47.67-2.18.31-.67-.34-1.49-1.05-1.01-1.98.19-.37.43-.52.78-.66l-1.73-.88h0Z"/>
        <polygon id="Path-71" data-name="Path" class="cls-6" points="47.21 23.06 48.67 22.41 48.06 21.03 52.79 18.92 51.97 17.07 45.77 19.83 47.21 23.06"/>
        <path id="Path-72" data-name="Path" class="cls-6" d="m48.3,11.7l-3.13,2.91c-.13.12-.29.28-.47.37-.17.09-.36.09-.55-.12-.19-.2-.17-.39-.07-.57.09-.17.27-.32.4-.44l3.12-2.91-1.38-1.48-3.24,3.03c-.6.56-1.67,1.83-.08,3.53,1.59,1.71,2.93.73,3.53.17l3.24-3.03-1.38-1.48h0Z"/>
        <path id="Path-73" data-name="Path" class="cls-6" d="m24.77,10.49c.59-.2.93-.8.75-1.33-.2-.57-.85-.81-1.45-.6-.55.19-.88.8-.7,1.32.19.54.81.83,1.41.62h0Z"/>
        <polygon id="Path-74" data-name="Path" class="cls-6" points="22.04 11.18 19.88 6.53 20.92 6.04 20.23 4.54 16.34 6.35 17.04 7.85 18.05 7.38 20.21 12.03 22.04 11.18"/>
        <path id="Path-75" data-name="Path" class="cls-6" d="m15.32,15.24c.48-.17.95-.43,1.34-.76,1.08-.9,1.17-2.3.36-3.27-.33-.39-.66-.59-1.04-.67-.37-.09-.79-.06-1.29,0-.14,0-.31.03-.46.02-.15-.01-.3-.05-.39-.16-.17-.2-.05-.5.14-.65.36-.3.7-.44,1.16-.5l-1.11-1.28c-.46.12-.95.35-1.32.66-1.32,1.11-.82,2.57-.31,3.17.32.38.68.57,1.07.65.41.08.84.06,1.32.02.15-.02.29-.04.43-.02.14.01.26.06.36.19.19.23.05.55-.17.73-.39.33-.68.42-1.24.45l1.14,1.42h0Z"/>
        <polygon id="Path-76" data-name="Path" class="cls-6" points="48.01 27.25 54.73 26.3 54.45 24.3 47.73 25.25 48.01 27.25"/>
        <path id="h" class="cls-3" d="m35.88,46.91c-1.96.68-1.84,2.76-1.36,4.17.49,1.42,1.67,3.13,3.64,2.46,1.96-.68,1.84-2.76,1.36-4.17-.49-1.42-1.67-3.13-3.64-2.46Zm.51,1.48c.58-.2,1,.9,1.25,1.62.25.72.59,1.85.02,2.05-.58.2-1-.9-1.25-1.62-.25-.72-.59-1.85-.02-2.05h0Z"/>
        <polygon id="g" class="cls-6" points="19.81 53.45 22.48 47.21 20.26 46.26 19.27 47.54 20 47.85 17.95 52.66 19.81 53.45"/>
        <polygon class="cls-6" points="32.77 54.8 32.09 48.05 29.69 48.29 29.44 49.89 30.24 49.81 30.76 55.01 32.77 54.8"/>
        <path class="cls-3" d="m25.75,49.28c.65.14.58.7.51,1.01-.06.3-.26.78-.85.65-.6-.13-.62-.64-.56-.93.07-.31.25-.88.9-.74h0Zm-2.61,5.1l1.97.38,1.01-1c.72-.8,1.72-1.97,1.94-3.01.28-1.33-.33-2.59-1.88-2.92-1.58-.34-2.77.48-3.07,1.88-.2.93.17,2.24,1.35,2.49.27.06.48.03.72-.04l-2.04,2.23h0Z"/>
      </g>
    </g>
  </g>
</svg>