<?xml version="1.0" encoding="utf-8"?>
<svg version="1.1" xmlns="http://www.w3.org/2000/svg" height="791.08" width="791.08">
	<path d="M791.077 395.541c0 218.451-177.088 395.539-395.538 395.539C177.089 791.08 0 613.992 0 395.541 0 177.092 177.09.003 395.539.003c218.45 0 395.538 177.089 395.538 395.538" fill="#fff"/>
	<path d="M18.899 395.544c0-208.016 168.625-376.641 376.641-376.641 208.015 0 376.64 168.625 376.64 376.641 0 208.015-168.625 376.64-376.64 376.64-208.016 0-376.641-168.625-376.641-376.64zm38.469 0c0 186.77 151.401 338.17 338.172 338.17 186.77 0 338.172-151.4 338.172-338.17S582.311 57.372 395.54 57.372c-186.77 0-338.172 151.401-338.172 338.172" fill="#2fa641"/>
	<path d="M345.205 364.767c3.875-5.148 7.271-10.243-19.581-35.45-32.979-30.961-88.397-86.66-52.91-153.154 24.09-45.135 69.353-36.158 88.306-26.427 13.096 6.723 44.46 27.261 74.668 5.093 33.697-24.729 83.675-6.202 94.544 23.454 10.607 28.938 13.82 74.19-29.27 119.034-43.091 44.843-67.331 62.73-46.487 71.27 7.913 3.244 14.516-7.538 25.09-20.304 17.758-21.435 48.79-42.88 89.334-61.667 43.02-19.933 119.276 6.264 87.333 100.333-9.992 29.426-11.583 62.344-1 82.334 15 28.333 12 77.333-25 92.333-36.361 14.741-79.388 10.857-105.39-7.875-26.003-18.732-66.178-76.418-73.394-85.757-7.216-9.339-14.965-23.827-33.273-27.701 3.45 28.125-3.396 68.245-5.094 78.486-1.698 10.243-13.693 44.366-26.906 72.546-13.214 28.178-13.639 28.604-32.426 31.574-18.786 2.972-56.601 13.459-63.15 16.186-4.71 1.961-17.938-1.643-21.334-7.216-3.396-5.574 2.972-10.191 8.12-12.79 5.148-2.601 102.422-61.932 102.846-173.692 0-17.458-9.392-11.092-17.088-3.821-7.695 7.27-24.359 20.112-73.818 81.09-49.458 60.973-119.093 40.637-127.576 37.517-31.785-11.691-49.297-59.878-34.121-92.604 14.399-31.055 22.612-51.703 12.788-76.364-5.093-12.79-20.854-46.064-5.093-75.942 15.76-29.877 58.094-52.266 113.882-20.908 34.178 19.211 53.388 43.887 64.903 56.304 11.516 12.42 21.759 23.511 31.097 14.118" fill="#2fa641"/>
</svg>
