<?xml version="1.0" encoding="utf-8"?>
<!-- Generator: Adobe Illustrator 13.0.2, SVG Export Plug-In . SVG Version: 6.00 Build 14948)  -->
<!DOCTYPE svg PUBLIC "-//W3C//DTD SVG 1.1 Tiny//EN" "http://www.w3.org/Graphics/SVG/1.1/DTD/svg11-tiny.dtd">
<svg version="1.1" baseProfile="tiny" id="Ebene_1" xmlns="http://www.w3.org/2000/svg" xmlns:xlink="http://www.w3.org/1999/xlink"
	 x="0px" y="0px" width="555.094px" height="615.263px" viewBox="0 0 555.094 615.263" xml:space="preserve">
<path fill="#E2001A" d="M0.001,0L0,337.717c0,153.285,124.262,277.546,277.547,277.546s277.547-124.261,277.547-277.546V0H0.001z"/>
<path fill="#FFFFFF" d="M530.892,24.202c0,41.715,0,313.515,0,313.515c0,67.671-26.353,131.291-74.203,179.142
	c-47.85,47.85-111.471,74.202-179.142,74.202s-131.291-26.353-179.142-74.202c-47.851-47.851-74.203-111.471-74.203-179.142
	c0,0,0-271.8,0.001-313.515C66.459,24.202,488.635,24.202,530.892,24.202z"/>
<path fill="#E2001A" d="M369.215,254.045c0-42.299-31.322-82.857-89.481-82.857h-103.87V401.78l63.922,41.684V334.886l65.934,104.65
	l52.234-42.639l-44.561-67.773C339.557,326.161,369.215,289.19,369.215,254.045z M275.105,290.325h-35.32v-68.113h35.32
	c16.834,0,26.695,16.57,26.695,34.01C301.801,273.747,291.939,290.325,275.105,290.325z"/>
<path fill="#E2001A" d="M77.928,56.772v120.784h67.848c0-19.101,0-37.273,0-52.936c74.353,0,189.19,0,263.543,0
	c0,80.39,0,226.751,0,226.751c0,72.659-59.112,131.771-131.771,131.771c-71.346,0-129.624-56.996-131.708-127.846H77.978
	c2.093,108.433,90.636,195.693,199.569,195.693c110.246,0,199.619-89.373,199.619-199.619v-294.6H77.928z"/>
</svg>
