<?xml version="1.0" encoding="utf-8"?>
<!-- Generator: Adobe Illustrator 27.1.0, SVG Export Plug-In . SVG Version: 6.00 Build 0)  -->
<svg version="1.1" id="Ebene_1" xmlns="http://www.w3.org/2000/svg" xmlns:xlink="http://www.w3.org/1999/xlink" x="0px" y="0px"
	 viewBox="0 0 264.81 246.64" style="enable-background:new 0 0 264.81 246.64;" xml:space="preserve">
<style type="text/css">
	.st0{fill:#FFFFFF;}
	.st1{fill:#E30613;}
</style>
<g>
	<path class="st0" d="M132.62,246.64c71.19,0,128.9-53.76,128.9-120.08c0-66.32-57.71-120.08-128.9-120.08
		c-71.19,0-128.9,53.76-128.9,120.08C3.72,192.88,61.43,246.64,132.62,246.64L132.62,246.64z"/>
	<path class="st1" d="M111.25,127.5c-2.5-26.33-16.77-46.68-31.89-45.46c-15.11,1.22-25.34,23.55-22.85,49.87
		c0.49,5.16,1.43,10.09,2.74,14.67c5.38,18.8,16.99,31.76,29.14,30.78c11.26-0.91,19.8-13.53,22.4-30.78
		C111.7,140.67,111.89,134.21,111.25,127.5L111.25,127.5z M85.99,151.07c-3.11,0.25-6.16-1.44-8.72-4.48
		c-3.45-4.09-6.04-10.61-6.75-18.11c-1.24-13.07,3.68-24.14,10.98-24.73c7.3-0.59,14.23,9.53,15.47,22.59
		c0.78,8.27-0.9,15.73-4.09,20.25C91.03,149.22,88.67,150.85,85.99,151.07L85.99,151.07z"/>
	<path class="st1" d="M132.86,232.95h-0.46c-9.26-0.04-19.26-1.45-27.83-3.43c14.78-25.5,17.17-50.61,17.17-50.61V96.39L73.09,53.61
		C53.92,69.1,41.83,91.88,41.83,117.28c0,34.56,22.44,64.37,54.62,77.48l-10.21,28.66c-40.27-16.66-68.35-54-68.35-97.38
		c0-51.35,39.34-94.17,91.67-104.33c0.48-0.08,0.95-0.12,1.47-0.12c4.31,0,7.8,3.03,7.8,6.78c0,2.85-2.02,5.28-4.88,6.29
		c-9.42,1.87-18.3,5.07-26.39,9.39l44.83,39.32l45.25-39.34c-8.08-4.31-16.95-7.51-26.36-9.37c-2.86-1-4.88-3.44-4.88-6.29
		c0-3.74,3.49-6.78,7.8-6.78c0.51,0,0.98,0.04,1.47,0.12c52.33,10.15,91.67,52.98,91.67,104.33c0,43.39-28.07,80.73-68.35,97.38
		l-10.21-28.66c32.18-13.11,54.62-42.91,54.62-77.48c0-25.4-12.08-48.18-31.25-63.67l-48.63,42.78v82.52c0,0,2.39,25.11,17.17,50.61
		C152.12,231.5,142.12,232.91,132.86,232.95L132.86,232.95L132.86,232.95z"/>
	<path class="st1" d="M203.95,119.11c3.26,17.38-8.21,41.33-30.4,57.55c-3.59,2.62-4.37,4.08-6.96,5.45l-5.08-14.73
		c3.07-1.46,4.21-2.14,8.24-5.08c10.44-7.63,16.06-17.89,14.45-26.52c-1.1-5.87-5.66-11.68-13.28-6.11
		c-5.77,4.21-9.23,7.53-14.06,12.76l0.11-42.26l35.08-30.06l-0.32,18.76l-18.59,14.69l0.17,12.44c1.37-1.26,2.55-2.25,5.16-4.16
		C190.66,102.92,201.54,106.22,203.95,119.11L203.95,119.11L203.95,119.11z"/>
</g>
<g>
	<path class="st1" d="M132.62,240.54c-67.44,0-122.31-51.13-122.31-113.98S65.18,12.58,132.62,12.58s122.31,51.13,122.31,113.98
		S200.06,240.54,132.62,240.54z M132.62,13.58c-66.89,0-121.31,50.68-121.31,112.98c0,62.3,54.42,112.98,121.31,112.98
		c66.89,0,121.31-50.68,121.31-112.98C253.93,64.26,199.51,13.58,132.62,13.58z"/>
</g>
</svg>
