<?xml version="1.0" encoding="UTF-8"?>
<svg width="478.49" height="543.17" version="1.2" viewBox="0 0 358.88 407.38" xmlns="http://www.w3.org/2000/svg" xmlns:xlink="http://www.w3.org/1999/xlink">
 <defs>
  <clipPath id="n">
   <path d="m277 828h44v0.797h-44z"/>
  </clipPath>
  <clipPath id="o">
   <path d="m424 614h10v46h-10z"/>
  </clipPath>
  <clipPath id="p">
   <path d="m436.41 606.21s-12 0-12 12v71.809s0 12 12 12h109.51s12 0 12-12v-71.809s0-12-12-12z"/>
  </clipPath>
  <clipPath id="q">
   <path d="m424 616h8v42h-8z"/>
  </clipPath>
  <clipPath id="r">
   <path d="m436.41 606.21s-12 0-12 12v71.809s0 12 12 12h109.51s12 0 12-12v-71.809s0-12-12-12z"/>
  </clipPath>
 </defs>
 <use transform="translate(-54.648 -252.75)" x="377.09201" y="20.517" width="100%" height="100%" fill="#fff" xlink:href="#k"/>
 <use transform="translate(-54.648 -252.75)" x="377.08401" y="20.517" width="100%" height="100%" fill="#fff" xlink:href="#k"/>
 <use transform="translate(-54.648 -252.75)" x="110.497" y="100.015" width="100%" height="100%" xlink:href="#l"/>
 <use transform="translate(-54.648 -252.75)" x="244.293" y="88.309998" width="100%" height="100%" xlink:href="#l"/>
 <use transform="translate(-54.648 -252.75)" x="278.599" y="85.307999" width="100%" height="100%" xlink:href="#l"/>
 <use transform="translate(-54.648 -252.75)" x="373.258" y="77.026001" width="100%" height="100%" xlink:href="#l"/>
 <use transform="translate(-54.648 -252.75)" x="513.612" y="813.06702" width="100%" height="100%" xlink:href="#m"/>
 <g transform="translate(-.003 285.02)">
  <g transform="translate(-54.645,-537.77)" clip-path="url(#n)">
   <path d="m303.71 850.15a4.756 4.756 0 1 1-9.512 3e-3 4.756 4.756 0 0 1 9.512-3e-3z" fill="none" stroke="#fff" stroke-miterlimit="10" stroke-width="1.189"/>
  </g>
  <g transform="translate(-54.645,-537.77)" clip-path="url(#o)">
   <g clip-path="url(#p)">
    <path d="m415.37 636.99a5 5 0 1 1-10 1e-3 5 5 0 0 1 10 0z" fill="none" stroke="#fff" stroke-miterlimit="10" stroke-width="1.25"/>
   </g>
  </g>
  <g transform="translate(-54.645,-537.77)" clip-path="url(#q)">
   <g clip-path="url(#r)">
    <path d="m413.37 636.99c0 1.66-1.344 3-3 3s-3-1.34-3-3a3 3 0 0 1 6 0z" fill="none" stroke="#fff" stroke-miterlimit="10" stroke-width="1.25"/>
   </g>
  </g>
 </g>
 <g transform="translate(-.003 285.02)">
  <use transform="translate(-54.645,-537.77)" x="339.59698" y="569.474" width="100%" height="100%" xlink:href="#s"/>
  <use transform="translate(-54.645,-537.77)" x="402.27301" y="563.99103" width="100%" height="100%" xlink:href="#s"/>
  <use transform="translate(-54.645,-537.77)" x="344.19901" y="523.40997" width="100%" height="100%" xlink:href="#t"/>
 </g>
 <g transform="matrix(3.3292 0 0 3.3292 -.0099877 -.0041289)" stroke-width=".30037">
  <path d="m81.855 0h-81.852c0.547 35.707 2.059 62.594 9.285 82.328 7.442 20.324 27.844 40.039 45.691 40.039 23.81 0 50.375-33.68 52.82-76.613 0 0-28.77-10.672-25.945-45.754"/>
  <path d="m80.905 26.6c-2.707-5.855-4.5-12.957-4.57-21.281h-70.935c0.419 22.781 1.415 41.656 4.137 56.934l71.493-35.398c-0.039-0.086-0.085-0.168-0.125-0.254m-61.956 63.629a68.906 68.906 0 0 0 7.367 10.191c5.211 5.988 11.355 10.898 17.328 13.734 3.985 1.906 7.856 2.887 11.332 2.879 4.68 8e-3 9.828-1.668 15.051-5.07 5.211-3.387 10.418-8.477 15.055-14.922 8.75-12.137 15.43-29.04 17.145-48.047z" fill="#fff"/>
  <path d="m14.753 23.78c0 2.46 1.824 3.422 3.894 3.422 1.356 0 3.426-0.414 3.426-2.309 0-1.996-2.64-2.332-5.226-3.058-2.61-0.727-5.246-1.793-5.246-5.266 0-3.789 3.398-5.605 6.578-5.605 3.672 0 7.047 1.687 7.047 5.968h-3.747c-0.12-2.23-1.625-2.8-3.472-2.8-1.235 0-2.664 0.543-2.664 2.101 0 1.426 0.84 1.606 5.25 2.801 1.28 0.336 5.222 1.191 5.222 5.394 0 3.395-2.539 5.938-7.316 5.938-3.895 0-7.54-2.023-7.492-6.586zm27.793-6.15c-0.246-1.844-1.922-3.242-3.844-3.242-3.473 0-4.777 3.113-4.777 6.355 0 3.086 1.305 6.2 4.777 6.2 2.367 0 3.695-1.711 3.992-4.153h3.746c-0.394 4.617-3.425 7.574-7.738 7.574-5.445 0-8.648-4.277-8.648-9.62 0-5.5 3.203-9.782 8.648-9.782 3.867 0 7.121 2.39 7.59 6.668zm17.419 12.29h-4.363l-5.715-18.52h3.992l3.918 13.023h0.047l3.969-13.023h3.987zm-9.07 63.85h-1.973v-6.645h-2.445v-1.562c1.375 0.027 2.64-0.469 2.848-2.035h1.57zm3.92-2.64c0.125 0.688 0.625 1.273 1.305 1.273 1.43 0 1.804-1.976 1.863-3.117l-0.031-0.031c-0.54 0.805-1.25 1.14-2.196 1.14-0.832 0-1.68-0.406-2.234-1.05-0.516-0.63-0.75-1.48-0.75-2.285 0-2.09 1.375-3.746 3.402-3.746 2.946 0 3.739 2.707 3.739 5.296 0 2.504-1.055 5.356-3.82 5.356-1.684 0-2.934-1.04-3.157-2.836zm2.984-4.2c0-0.952-0.582-1.902-1.57-1.902-0.945 0-1.484 0.95-1.484 1.872 0 0.964 0.472 1.933 1.484 1.933 1.059 0 1.57-0.894 1.57-1.902m3.196 0.529c-0.07-2.34 1.195-4.14 3.531-4.14 1.778 0 3.332 1.203 3.332 3.206 0 1.536-0.777 2.383-1.734 3.102-0.961 0.715-2.098 1.3-2.809 2.356h4.602v1.785h-7.145c0.016-2.371 1.39-3.38 3.07-4.578 0.864-0.618 2.032-1.246 2.044-2.504 0-0.965-0.61-1.582-1.457-1.582-1.168 0-1.543 1.273-1.543 2.355zm11.83 3.93h-4.113v-1.902l4.222-5.97h1.766v6.161h1.293v1.711h-1.293v2.371h-1.875zm0-5.266h-0.043l-2.516 3.555h2.559zm-24.56 18.776c0.059 1.316 0.668 1.914 1.766 1.914 0.793 0 1.43-0.512 1.554-0.98h1.739c-0.555 1.785-1.739 2.547-3.364 2.547-2.265 0-3.668-1.637-3.668-3.981 0-2.27 1.489-3.992 3.668-3.992 2.446 0 3.63 2.164 3.489 4.492zm3.21-1.32c-0.179-1.051-0.608-1.61-1.57-1.61-1.25 0-1.613 1.028-1.64 1.61zm11.83 4.6h-2.46l-3.225-10.449h2.25l2.211 7.348h0.028l2.238-7.348h2.25zm-7.52-2.26c0.602 0 1.09 0.504 1.09 1.125s-0.488 1.129-1.09 1.129-1.09-0.508-1.09-1.129 0.488-1.125 1.09-1.125m10.83 0c0.602 0 1.09 0.504 1.09 1.125s-0.488 1.129-1.09 1.129-1.094-0.508-1.094-1.129 0.492-1.125 1.094-1.125"/>
  <path d="m63.835 53.45-2.894 5.86 3.277 0.496 6.586-13.332-17.871 8.851v-3.82l-3.16 1.562v3.825l-10.908 5.398 2.907-5.875-3.282-0.496-6.593 13.348 17.875-8.852v3.824l3.16-1.566v-3.82z" fill="#fff"/>
 </g>
 <g transform="translate(-.003 285.02)">
  <use transform="translate(-54.645,-537.77)" x="178.923" y="312.289" width="100%" height="100%" xlink:href="#t"/>
  <use transform="translate(-54.645,-537.77)" x="347.08701" y="297.57599" width="100%" height="100%" xlink:href="#t"/>
  <use transform="translate(-54.645,-537.77)" x="317.29001" y="344.72699" width="100%" height="100%" xlink:href="#s"/>
  <use transform="translate(-54.645,-537.77)" x="379.966" y="339.24399" width="100%" height="100%" xlink:href="#s"/>
 </g>
</svg>
