<?xml version="1.0" encoding="utf-8"?>
<svg version="1.1" id="Ebene_1" xmlns="http://www.w3.org/2000/svg" xmlns:xlink="http://www.w3.org/1999/xlink" x="0px" y="0px"
	 width="200" height="200" viewBox="0 0 197 197" style="enable-background:new 0 0 197 197;" xml:space="preserve">
<style type="text/css">
	.st0{fill-rule:evenodd;clip-rule:evenodd;fill:#FFFFFF;}
	.st1{fill:#FFFFFF;}
	.st2{fill:#C4161C;}
	.st3{fill:#231F20;}
	.st4{fill:#B88748;}
</style>
<g id="logo" transform="translate(6.000000, 5.500000)">
	<circle id="Oval" class="st0" cx="92.5" cy="93" r="98.5"/>
	<path id="path3361" class="st1" d="M184.7,92.4c0,50.7-41.1,91.8-91.8,91.8C42.1,184.3,1,143.1,1,92.4C1,41.7,42.1,0.6,92.8,0.6
		C143.6,0.6,184.7,41.7,184.7,92.4"/>
	<path id="path3365" class="st2" d="M153.1,93.2c0,35.9-27,64.9-60.3,64.9s-60.3-29.1-60.3-64.9c0-35.9,27-64.9,60.3-64.9
		S153.1,57.3,153.1,93.2"/>
	<path id="path3369" class="st3" d="M95,157.3c-0.1,0-0.5,0-0.9,0c-1,0-1.7,0-2.1,0.1c-1.9-0.1-4-0.4-6.3-0.8
		c-15.5-2.7-29.1-11.8-38.3-25.5C37,115.4,33.3,95.1,37.6,77C40.9,63,49,50.4,60.3,41.3c5.3-4.2,11.5-7.5,18.4-9.7
		c3.3-1.1,6.8-1.8,10.9-2.3c1-0.1,2-0.2,3-0.2c0,0,0.1,0,0.1,0c0.1,0,0.1,0,0.2,0c2,0.1,4.3,0.4,7,0.8c28.3,4.9,49.8,32.1,50,63.3
		c-0.1,18.1-7.1,34.9-19.4,47.3c-5.7,5.7-12.9,10.3-20.9,13.4c-3.5,1.3-7.3,2.3-11.7,3C97,157,96,157.2,95,157.3z M157.8,93.6
		c0,0,0-0.4,0-0.4l0-0.4l0,0c-0.3-18.3-7.3-35.4-19.9-47.9c-11.4-11.4-26.7-17.4-44.2-17.5c0,0,0,0,0,0c-0.2,0-0.5,0-0.8,0
		c-0.4,0-0.7,0-1,0c-16.9,0.3-31.2,5.7-42.6,16C36.5,55,28.7,72.4,28,90.9c-0.7,18,6,35.8,18.5,48.8c11.8,12.3,27.5,19.2,44.2,19.3
		c17.9,0.2,32.4-4.6,44.2-14.7c13.1-11.2,21.4-28.1,22.8-46.6C157.7,96.4,157.8,94.9,157.8,93.6L157.8,93.6z"/>
	<path id="path3373" class="st4" d="M120.9,177.4c-8.4,3.4-17.5,5.4-27.2,6c-8.8,0.5-19.1-2.4-26.2-4.9c-16-5.7-30.8-16.8-41.5-31.5
		C15.3,132.4,9.3,114.6,8.7,95.6c-0.6-18.8,4.2-37,13.8-52.7c9.1-14.9,23-27.1,39.2-34.4C69.5,5,78.2,2.7,87.5,1.7
		c7.9-0.9,17.1,0.3,27.4,3.5c36.3,11.3,61.8,47.1,62.1,87.2c-0.1,18.4-5.5,36.2-15.5,51.4C151.4,159.1,137.4,170.7,120.9,177.4z
		 M185.6,92.2c-0.1-18.6-5.6-36.6-15.8-52.1c-10.2-15.5-24.5-27.3-41.2-34.2c-13.7-5.6-30-7.6-48.4-5.8C62.8,1.8,45.5,9.5,31.5,21.6
		C17.6,33.7,7.8,49.9,3.1,68.5c-4.7,18.4-4,37.6,2.1,55.3c11.9,35,44.4,59.6,80.8,61.2c27.1,1.2,50-6.1,68.1-21.9
		c19.6-17,31.4-43.4,31.6-70.6c0,0,0-0.1,0-0.2v0C185.7,92.3,185.7,92.3,185.6,92.2L185.6,92.2z"/>
	<path id="Combined-Shape" class="st4" d="M17,107.7c-0.5,0.2-0.9,0.4-1.1,0.7c-0.4,0.5-0.5,1.2-0.3,2.1c0.1,0.6,0.3,1,0.5,1.3
		c0.4,0.6,0.9,0.8,1.6,0.7c0.4-0.1,0.7-0.3,0.8-0.7c0.1-0.4,0.2-0.9,0.2-1.7l0-1.3c0-1.2,0.1-2.1,0.4-2.6c0.4-0.9,1.2-1.4,2.3-1.7
		c1.1-0.2,2-0.1,2.9,0.5c0.9,0.6,1.5,1.6,1.8,3c0.3,1.2,0.2,2.3-0.3,3.3c-0.5,1-1.3,1.6-2.6,2l-0.5-2.2c0.7-0.2,1.2-0.6,1.3-1.2
		c0.1-0.4,0.1-0.9,0-1.4c-0.1-0.6-0.4-1.1-0.7-1.4c-0.3-0.3-0.7-0.4-1.2-0.3c-0.4,0.1-0.7,0.4-0.8,0.8c-0.1,0.3-0.1,0.8-0.2,1.6
		l0,2.1c0,0.9-0.2,1.6-0.4,2.1c-0.4,0.8-1.1,1.3-2.2,1.5c-1.1,0.2-2.1,0.1-3-0.6c-0.9-0.6-1.5-1.6-1.8-3.1c-0.3-1.5-0.2-2.7,0.3-3.7
		c0.5-1,1.4-1.6,2.6-1.9L17,107.7z M30,121.7l0.9,2.3l-12.8,0.7l-0.8-2.1l10.1-8l0.9,2.4l-7.8,5.6L30,121.7z M35.6,132.8l-4.8,5.3
		l-1.4,1.4l1.7-0.8l6.5-3l1.5,2l-4.9,5.2l-1.4,1.4l1.7-0.8l6.7-2.9l1.4,2L30.7,147l-1.3-1.9l5-5.3l1.7-1.7l-2.2,1l-6.6,3l-1.3-1.8
		l8.1-9.7L35.6,132.8z M48.7,151.2l-4.4-4.2l-1.8,1.9l4,3.8l-1.5,1.5l-4-3.8l-2.2,2.3l4.6,4.4l-1.5,1.6l-6.2-6l8.5-8.9l6,5.8
		L48.7,151.2z M45.6,161.6l6.8-10.2l2,1.3l-2.6,3.9l3.7,2.5l2.6-3.9l2,1.3l-6.8,10.2l-2-1.3l3-4.6l-3.7-2.5l-3,4.6L45.6,161.6z
		 M69.5,163.2l-5.5-2.4l-1,2.4l5.1,2.2l-0.8,2l-5.1-2.2l-1.3,2.9l5.8,2.5l-0.9,2l-7.9-3.4l4.9-11.2l7.7,3.3L69.5,163.2z M72.9,162.1
		l2.4,0.6l2.5,9.3l1.9-8.3l2.2,0.5l-2.8,11.9l-2.3-0.5l-2.5-9.5l-2,8.5l-2.2-0.5L72.9,162.1z M92.2,165l1.9,6.9l0.4,1.9l0.2-1.9
		l0.8-7.1l2.5-0.2l1.8,6.9l0.5,1.9l0.2-1.9l1.1-7.2l2.4-0.2l-2.4,12.4l-2.3,0.1l-1.8-7.1l-0.5-2.3l-0.3,2.4l-0.9,7.2l-2.2,0.1l-4-12
		L92.2,165z M111.2,174.9l-2.3,0.5l-2.7-11.9l2.3-0.5L111.2,174.9z M120.4,161.2l-5.6,2.1l0.9,2.4l5.2-2l0.8,2l-5.2,2l1.1,2.9
		l5.9-2.2l0.8,2.1l-8.1,3.1l-4.3-11.5l7.8-3L120.4,161.2z M128,164.3c0.3,0.4,0.7,0.7,1,0.9c0.6,0.2,1.3,0.1,2.1-0.4
		c0.5-0.3,0.9-0.6,1.1-0.9c0.5-0.6,0.5-1.1,0.2-1.7c-0.2-0.3-0.5-0.5-0.9-0.6c-0.4,0-0.9,0.1-1.7,0.3l-1.2,0.4
		c-1.2,0.4-2.1,0.5-2.6,0.5c-0.9-0.1-1.7-0.7-2.3-1.7c-0.6-0.9-0.7-1.9-0.4-2.9c0.3-1,1-1.9,2.3-2.6c1-0.6,2.1-0.8,3.2-0.7
		c1.1,0.2,2,0.8,2.7,1.9l-2,1.2c-0.4-0.6-0.9-0.9-1.6-0.9c-0.4,0-0.9,0.2-1.4,0.5c-0.5,0.3-0.9,0.7-1.1,1.1
		c-0.2,0.4-0.2,0.8,0.1,1.2c0.2,0.4,0.5,0.6,1,0.6c0.3,0,0.8-0.1,1.6-0.3l2-0.6c0.9-0.3,1.6-0.3,2.1-0.2c0.9,0.2,1.6,0.7,2.1,1.6
		c0.6,1,0.7,2,0.4,3c-0.3,1-1.1,1.9-2.4,2.7c-1.3,0.8-2.5,1-3.6,0.9c-1.1-0.2-2-0.8-2.6-1.9L128,164.3z M138.1,155.7l2.1,2.5
		l2.1-1.8c0.4-0.3,0.6-0.6,0.7-0.9c0.2-0.5,0.1-1.1-0.4-1.7c-0.4-0.5-0.9-0.7-1.4-0.5c-0.3,0.1-0.6,0.3-1,0.6L138.1,155.7z
		 M135,152.1l1.7,2.1l2.1-1.8c0.4-0.3,0.6-0.7,0.7-1c0.1-0.4,0-0.7-0.3-1.1c-0.4-0.4-0.8-0.6-1.2-0.5c-0.4,0.1-0.7,0.4-1.1,0.7
		L135,152.1z M139.2,147.5c0.6,0.2,1.1,0.5,1.6,1.1c0.5,0.6,0.7,1.1,0.8,1.7c0,0.3-0.1,0.7-0.2,1.1c0.6-0.2,1.2-0.2,1.7,0
		c0.5,0.2,1,0.5,1.5,1.1c0.5,0.6,0.8,1.2,0.9,1.8c0.1,0.4,0.1,0.8,0,1.3c-0.1,0.5-0.3,0.9-0.6,1.3c-0.3,0.4-0.7,0.8-1.1,1.2
		l-3.9,3.3l-7.9-9.3l4.2-3.6C137.2,147.5,138.2,147.2,139.2,147.5z M148.8,146.4l1.9-2.2l-4.6-2L148.8,146.4z M143.1,141.3l1.7-2.1
		l12,4.8l-1.7,2l-2.4-1.1l-2.7,3.2l1.4,2.2l-1.6,1.9L143.1,141.3z M151.8,133.3l6.8,4.1l1.1-1.9c0.6-1,0.5-1.9-0.3-2.9
		c-0.4-0.5-1-1.1-1.8-1.5c-1.1-0.6-2-1-2.7-1c-0.8,0-1.4,0.4-2,1.3L151.8,133.3z M152.5,128.7c0.7-0.5,1.4-0.8,2.3-0.9
		c0.7,0,1.4,0.1,2.1,0.3c0.7,0.2,1.3,0.5,1.8,0.9c1.4,0.8,2.4,1.8,3.1,2.9c0.9,1.5,0.9,3,0,4.4l-2.5,4.2l-10.5-6.3l2.5-4.2
		C151.7,129.4,152.1,129,152.5,128.7z M160.3,116.5l-2.3,5.6l2.4,1l2.1-5.1l2,0.8l-2.1,5.1l2.9,1.2l2.4-5.8l2,0.9l-3.3,8l-11.3-4.8
		l3.2-7.7L160.3,116.5z M159.3,112.6l0.6-2.4l9.4-2.2l-8.3-2.2l0.6-2.1l11.8,3.1l-0.6,2.3l-9.6,2.3l8.4,2.2l-0.6,2.1L159.3,112.6z"
		/>
	<path id="lilien" class="st4" d="M75.4,20.4L75,21.1c0,0.1-1,1.3-2.3,0.8c-0.2-0.1-0.4-0.2-0.6-0.5c0.2-0.3,0.2-0.6,0.1-0.8
		l-0.3-0.8c-0.1-0.3-0.3-0.5-0.7-0.6c0-0.6,0.4-1.2,1-1.7c0.6-0.5,1.2-0.6,1.7-0.6c0.8,0.1,1.2,0.8,1.2,0.8l0.8,1.3c0,0,0-1.6,0-1.6
		c0-0.1-0.1-1.6-0.6-3.2c-0.5-1.5-1.1-2.4-2.3-2.4c-0.6,0-1.2,0.3-1.7,0.9c-1.1,1.2-2,3.5-1.5,6.7l-1,0.4c-0.1-0.7-0.2-1.2-0.2-1.9
		l-0.1-0.8c-0.1-0.7,0-1.3,0-1.9c0-1.2,0.1-2.4-0.7-3.8c-1-1.6-3.4-2.7-3.5-2.7l-0.4-0.2L63.6,9c0,0.1-1.2,2.5-0.9,4.4
		c0.2,1.6,1,2.4,1.9,3.3c0.4,0.4,0.8,0.9,1.2,1.4l0.4,0.6c0.4,0.5,0.7,1,1,1.6l-1,0.4c-1.7-2.7-3.9-3.9-5.4-4.1
		c-0.8-0.1-1.5,0-1.9,0.4c-0.9,0.8-0.7,1.9-0.2,3.4c0.6,1.6,1.6,2.8,1.6,2.9l1,1.2l-0.2-1.6c0,0-0.1-0.8,0.4-1.4
		c0.3-0.4,0.9-0.6,1.7-0.7c0.8,0,1.4,0.2,1.8,0.6c-0.2,0.3-0.2,0.6-0.1,0.9l0.3,0.8c0.1,0.3,0.3,0.5,0.6,0.6c0,0.4-0.1,0.7-0.2,0.8
		c-0.7,1.2-2.1,0.9-2.2,0.9L62.5,25l0.3,0.8c0.7,2.1,1.9,2.6,2.8,2.3c1.3-0.4,2.3-2.3,1.7-4.8l1-0.4c0,0.1,0.1,0.2,0.1,0.3l0,0.1
		c0.2,1,0.2,1.3-0.1,2.7c-0.4,1.5-0.6,2.6,1.3,3.2c0.2,0.1,0.6,0.1,1.3,0.2c0.1,0,0.2,0,0.2,0l0.2,0l0.2-0.2c0,0,0.1-0.1,0.2-0.2
		c0.5-0.5,0.8-0.8,0.9-1c1-1.7,0.1-2.4-1.1-3.3c-1.2-0.9-1.3-1.1-1.8-2l-0.1-0.1c-0.1-0.1-0.1-0.2-0.1-0.3l1-0.4
		c1.2,2.3,3.2,3.1,4.4,2.6c0.9-0.4,1.6-1.5,0.7-3.6L75.4,20.4z M100.3,9.7c-0.5-0.2-1.2-0.1-1.9,0.3c-1.4,0.7-3.1,2.6-3.7,5.7h-1.1
		c0.1-0.7,0.3-1.2,0.4-1.9l0.2-0.7c0.2-0.7,0.4-1.2,0.6-1.8c0.5-1.1,0.9-2.2,0.6-3.8c-0.4-1.9-2.3-3.7-2.4-3.8l-0.3-0.3l-0.3,0.3
		c-0.1,0.1-2,1.9-2.4,3.8c-0.3,1.5,0.1,2.6,0.6,3.8c0.2,0.5,0.5,1.1,0.6,1.8l0.2,0.7c0.2,0.6,0.3,1.2,0.4,1.9H91
		c-0.6-3.1-2.3-5-3.7-5.7c-0.7-0.4-1.4-0.5-1.9-0.3c-1.1,0.5-1.3,1.5-1.3,3.1c0,1.7,0.5,3.2,0.5,3.3l0.5,1.5l0.3-1.6
		c0,0,0.2-0.8,0.9-1.2c0.5-0.3,1.1-0.3,1.8-0.1c0.7,0.2,1.2,0.6,1.5,1.2c-0.3,0.2-0.4,0.5-0.4,0.8v0.8c0,0.3,0.1,0.5,0.4,0.7
		c-0.1,0.4-0.3,0.6-0.4,0.7c-1,0.9-2.3,0.1-2.4,0.1L86,18.5l0,0.9c-0.1,2.2,0.9,3.1,1.9,3.2c1.4,0.1,3-1.4,3.3-3.9h1.1
		c0,0.1,0,0.2,0,0.3l0,0.1c-0.2,1.1-0.2,1.3-1,2.5c-0.9,1.3-1.5,2.2,0.1,3.5c0.2,0.1,0.5,0.3,1.2,0.6c0.1,0,0.2,0.1,0.2,0.1l0.2,0.1
		l0.2-0.1c0,0,0.1-0.1,0.2-0.1c0.6-0.3,1-0.5,1.2-0.6c1.6-1.2,0.9-2.2,0.1-3.5c-0.8-1.2-0.8-1.4-1-2.5l0-0.1c0-0.1,0-0.2,0-0.3h1.1
		c0.3,2.5,1.9,4,3.3,3.9c1-0.1,2-0.9,1.9-3.2l0-0.7l-0.6,0.4c-0.1,0-1.4,0.9-2.4-0.1c-0.1-0.1-0.3-0.3-0.4-0.7
		c0.2-0.2,0.4-0.4,0.4-0.7v-0.8c0-0.3-0.2-0.6-0.4-0.8c0.3-0.6,0.8-1,1.5-1.2c0.7-0.2,1.3-0.2,1.8,0.1c0.7,0.4,0.9,1.2,0.9,1.2
		l0.3,1.5c0,0,0.5-1.5,0.5-1.5c0-0.1,0.5-1.5,0.5-3.3C101.7,11.3,101.5,10.2,100.3,9.7z M126.8,17c-0.4-0.4-1.1-0.5-1.9-0.4
		c-1.6,0.2-3.8,1.4-5.4,4.1l-1-0.4c0.3-0.6,0.7-1.1,1-1.6l0.4-0.6c0.4-0.6,0.8-1,1.2-1.4c0.8-0.9,1.6-1.8,1.9-3.3
		c0.3-1.9-0.9-4.3-0.9-4.4l-0.2-0.4l-0.4,0.2c-0.1,0-2.5,1.1-3.5,2.7c-0.8,1.3-0.8,2.5-0.7,3.8c0,0.6,0,1.2,0,1.9l-0.1,0.8
		c0,0.7-0.1,1.2-0.2,1.9l-1-0.4c0.5-3.1-0.5-5.5-1.5-6.7c-0.6-0.6-1.2-0.9-1.7-0.9c-1.2,0-1.8,1-2.3,2.4c-0.6,1.6-0.6,3.2-0.6,3.2
		l0,1.6l0.8-1.4c0,0,0.4-0.7,1.2-0.8c0.5-0.1,1.1,0.1,1.7,0.6c0.6,0.5,0.9,1,1,1.7c-0.3,0.1-0.6,0.3-0.7,0.6l-0.3,0.8
		c-0.1,0.3,0,0.6,0.1,0.8c-0.3,0.3-0.5,0.4-0.6,0.5c-1.3,0.5-2.2-0.6-2.3-0.8l-0.4-0.7l-0.3,0.8c-0.9,2.1-0.2,3.2,0.7,3.6
		c1.3,0.5,3.3-0.3,4.4-2.6l1.1,0.4c0,0.1-0.1,0.2-0.1,0.3l-0.1,0.1c-0.5,0.9-0.6,1.1-1.8,2c-1.2,0.9-2.1,1.6-1.1,3.3
		c0.1,0.2,0.4,0.5,0.9,1c0.1,0.1,0.2,0.2,0.2,0.2l0.2,0.2l0.2,0c0,0,0.1,0,0.3,0c0.7-0.1,1.1-0.1,1.3-0.2c1.9-0.6,1.6-1.7,1.3-3.2
		c-0.3-1.4-0.3-1.6-0.1-2.7l0-0.1c0-0.1,0.1-0.2,0.1-0.3l1,0.4c-0.5,2.5,0.4,4.4,1.7,4.8c0.9,0.3,2.2-0.2,2.8-2.3l0.2-0.7l-0.7,0.2
		c-0.1,0-1.6,0.4-2.3-0.9c-0.1-0.1-0.2-0.4-0.2-0.8c0.3-0.1,0.5-0.3,0.6-0.6l0.3-0.8c0.1-0.3,0-0.6-0.1-0.9c0.4-0.5,1-0.7,1.8-0.6
		c0.8,0,1.3,0.3,1.7,0.7c0.5,0.6,0.4,1.4,0.4,1.4l-0.2,1.5c0,0,1-1.2,1-1.2c0-0.1,1-1.3,1.6-2.9C127.5,18.8,127.7,17.8,126.8,17
		L126.8,17z"/>
	<path id="path3445" class="st1" d="M84.5,139.3l3.9-3.5c2.1-1.8,3.2-3.9,3.2-6.5c0-3.8-3.1-6.2-7.3-6.2c0,0-0.1,0-0.1,0
		c-3.7,0-5.6,1.2-6.6,2.8c-1,1.5-1,3.3-1,4.4v1h5.1l0-0.2c0-0.2,0-0.3,0-0.5v-0.4c0-0.8,0-1.6,0.4-2.2c0.3-0.7,1.1-1,2.1-1
		c1.3,0,2.1,0.5,2.1,2.5c0,2.1-0.8,2.7-2.4,4.3l-2.4,2.2c-3.1,2.8-4.4,4.9-4.7,6.6c-0.2,1.3-0.4,2.9-0.4,3.9l0,0.2h15v-3.8H82
		C82.1,141.6,83.5,140.2,84.5,139.3z M103.4,142.5c-0.3,0.5-0.7,0.8-1.7,0.9l0,0.2l0-0.2c-0.1,0-0.2,0-0.3,0c-0.9,0-1.4-0.4-1.7-1
		c-0.3-0.7-0.3-1.6-0.3-2.8c0-0.3,0,0,0-0.4c0-1,0-2,0.3-2.7c0.3-0.7,0.8-1.2,1.9-1.2c2,0,2.1,1.5,2.2,3.1c0,0.3,0,0.6,0,0.8
		c0,0.5,0,0.4,0,0.8C103.7,141.1,103.7,142,103.4,142.5z M102.9,131.4c-2,0-2.9,0.6-3.7,1.2v-1c0-0.7,0-2.4,0.3-3.2
		c0.3-0.8,0.8-1.4,2.1-1.5c0.1,0,0.2,0,0.3,0c1.6,0,1.5,0.9,1.6,1.6l0,0.2h5l0-0.2c0-0.1,0-0.2,0-0.3c0-1.8-0.7-3.1-1.9-4
		c-1.2-0.8-2.9-1.2-4.8-1.2c-2.6,0-4.6,0.5-6,2c-1.3,1.5-1.9,4.5-1.9,8.2v5.5c0,0.1,0,0.2,0,0.3c0,2.6,0.4,4.1,1.6,5.7
		c1.2,1.5,3.1,2.4,6.1,2.3h0c2.9,0,4.8-0.8,6-2.3c1.2-1.5,1.6-3.1,1.6-6c0-2.4-0.4-4.3-1.5-5.5C106.6,132.1,105.1,131.4,102.9,131.4
		z M105.9,66l5.9-24H106l0,0.2l-2.8,15.1c-0.3,1.3-0.5,2.7-0.6,4c0,0.1,0,0.1,0,0.2c0-0.1,0-0.1,0-0.2c-0.1-1.3-0.3-2.7-0.6-4
		l-3.2-15.2h-5.9l6.1,24H105.9z M83.3,66.6c2.5,0,4.6-0.6,6.1-1.8c1.5-1.2,2.4-3,2.4-5.2c0-2.1-0.6-3.6-2.3-5.1
		c-1.4-1.2-4.5-3-6.2-3.9c-1.6-0.9-2.8-1.5-2.8-3.2c0-1.5,0.9-1.9,2.5-2c2.5,0,2.7,1.6,2.7,3.6c0,0.1,0,0.2,0,0.4l0,0.2h5.3l0-0.2
		c0-1.2,0-3.1-1-4.8c-1-1.7-3.1-3.1-7.1-3.1c-2.7,0-4.7,0.6-6.1,1.6c-1.4,1.1-2.1,2.7-2,4.8c0,1.3,0.5,2.6,1.3,3.7
		c2.1,2.4,5.4,3.7,8,5.5c1.3,0.8,1.9,1.6,1.9,2.9c0,1.7-0.8,2.5-2.9,2.5c-2.2,0-2.9-1.3-2.9-3.3c0-0.1,0-0.3,0-0.4v-1.6h-5.5v2
		c0,2.1,0.6,4,1.9,5.3C78.2,65.9,80.3,66.6,83.3,66.6z M126.1,55.1l-5.9,6.2c7.9,7.9,12.9,19.3,12.9,32c0,10.9-3.7,20.9-9.8,28.6
		L92.8,90l-30.5,31.7c-6.1-7.6-9.8-17.6-9.8-28.6c0-12.7,5-24.1,12.9-32L59.5,55C50,64.6,44.1,78.2,44.1,93.2
		c0,14.8,5.8,28.3,15.1,37.8l3.1,3.1l30.6-31.8l30.6,31.8l3.1-3.1c9.4-9.5,15.1-23,15.1-37.8C141.6,78.2,135.7,64.6,126.1,55.1z
		 M62.5,115.2L62.5,115.2L62.5,115.2l30.4-31.7l30.3,31.7l0,0l0.1,0.1c3.9-6.2,6.2-13.7,6.2-21.8c0-10.7-4-20.5-10.6-27.6
		c-0.5-0.5-1-1.1-1.5-1.6l-5.9,6.1c0.4,0.4,0.8,0.8,1.2,1.2c5.1,5.5,8.3,13.2,8.3,21.8c0,2.2-0.2,4.3-0.6,6.4L92.8,71.2L65.4,99.8
		c-0.4-2.1-0.6-4.2-0.6-6.4c0-8.6,3.2-16.3,8.3-21.8c0.4-0.4,0.8-0.8,1.2-1.2l-5.9-6.1c-0.5,0.5-1,1-1.5,1.6
		C60.3,73,56.3,82.8,56.3,93.5C56.3,101.5,58.6,109,62.5,115.2L62.5,115.2z"/>
</g>
</svg>
