<?xml version="1.0" encoding="UTF-8"?>
<svg width="364.95" height="455.15" enable-background="new 0 0 400 400" version="1.1" viewBox="0 0 364.95 455.15" xml:space="preserve" xmlns="http://www.w3.org/2000/svg" xmlns:cc="http://creativecommons.org/ns#" xmlns:dc="http://purl.org/dc/elements/1.1/" xmlns:rdf="http://www.w3.org/1999/02/22-rdf-syntax-ns#">
<g transform="matrix(1.1154 0 0 1.1154 -40.597 5.0038)" stroke-width=".89655">
	<polygon points="74.391 400 325.45 400 359.12 361 359.12 38.968 325.52 0 321.44 0 74.436 0 40.883 39.009 40.9 360.9" fill="#fff"/>
	<path d="m321.44 8.912h-242.92l-28.73 33.403 0.017 315.29 28.68 33.479h242.88l28.838-33.402v-315.41zm19.854 345.46c-3.336 3.863-19.979 23.14-24.006 27.807h-234.7c-4.027-4.701-20.567-24.011-23.869-27.864 0-6.385-0.015-302.29-0.016-308.69 3.318-3.857 19.881-23.114 23.907-27.795h234.74c4.025 4.67 20.607 23.906 23.938 27.766v308.78z"/>
	<path d="m138.05 370.82h-10.467v-33.441h-12.974v-7.881c7.303 0.137 14.002-2.367 15.112-10.248h8.328z"/>
	<path d="m180.4 343.04c4.85-1.759 7.512-5.877 7.512-10.979 0-5.013-4.423-13.841-17.24-13.841-8.391 0-17.387 4.784-17.387 14.063 0 5.097 2.584 9.214 7.592 10.623v0.134c-6.049 1.473-9.729 6.12-9.729 12.677 0 11.135 9.653 16.135 19.602 16.135 9.576 0 19.295-5.376 19.295-16.206-2e-3 -6.486-3.534-11.196-9.645-12.606zm-9.729-16.937c6.479 0 7.74 4.504 7.74 7.15 0 4.418-3.463 6.775-7.74 6.775-4.202 0-7.881-2.282-7.881-6.775 0-4.565 3.68-7.15 7.881-7.15zm0.077 37.868c-5.014 0-9.141-3.468-9.141-8.764 0-5.308 4.052-8.175 9.141-8.175 4.86 0 8.835 3.314 8.835 8.249 0 5.159-3.83 8.69-8.835 8.69z"/>
	<path d="m232.78 341.49c-2.943-3.231-7.439-5.304-11.867-5.304-5.016 0-8.768 1.695-11.635 5.74l-0.15-0.135c0.293-5.751 2.273-15.697 9.873-15.697 3.613 0 6.264 2.938 6.93 6.412h9.938c-1.17-9.071-7.803-14.293-16.717-14.293-14.664 0-20.268 14.364-20.268 26.967 0 13.043 4.2 26.663 19.833 26.663 10.746 0 18.037-8.314 18.037-18.854-3e-3 -4.053-1.243-8.328-3.974-11.499zm-14.373 21.735c-5.229 0-8.326-4.782-8.326-9.575 0-5.077 2.732-9.572 8.326-9.572 5.373 0 7.893 4.86 7.893 9.728 0 4.635-2.881 9.419-7.893 9.419z"/>
	<path d="m265.7 318.22c-10.166 0-18.857 6.483-18.857 26.604 0 20.546 8.691 27.026 18.857 27.026 10.314 0 19.014-6.48 19.014-27.026 0-20.121-8.699-26.604-19.014-26.604zm0 45.01c-8.404 0-8.404-12.589-8.404-18.406 0-5.392 0-17.992 8.404-17.992 8.553 0 8.553 12.602 8.553 17.992-2e-3 5.817-2e-3 18.406-8.553 18.406z"/>
	<path d="m315.96 112.59c-13.479-11.134-26.793-13.047-38.715-9.373-20.152-37.453 1.662-53.268 11.98-52.83 9.801 0.392 10.836 5.066 10.836 5.066-6.871 14.371-3.064 20.5-0.424 28.598 2.135 6.56-3.459 11.385-3.459 11.385 6.252-0.626 9.348-6.687 9.348-6.687 1.564 3.132-0.354 10.475-0.354 10.475 4.367-1.871 5.893-8.595 5.893-8.595 1.398 6.568 6.576 10.138 6.576 10.138s-1.223-5.919-0.285-11.23c0.945-5.316 4.693-22.21-2.525-33.107-20.021-30.199-75.326-9.73-45.141 49.595-16.758 8.757-27.092 29.262-21.732 48.197 3.807 13.44 15.518 26.088 38.447 33.184-7.957 12.546-21.887 15.754-28.295 15.854-4.465 0.077-6.25-2.541-6.938-4.25-0.059-0.219-0.086-0.438-0.164-0.667-5.088-15.78-23.395-31.574-23.395-31.574 5.473-6.477 4.248-9.215 4.248-9.215-12.744 5.609-14.891 0.918-11.586-3.333h4e-3c1.076-1.385 2.727-2.719 4.773-3.639 8.379-3.744 8.063-8.223 8.063-8.223-13.367 1.404-7.982-7.69-0.947-12.226 7.039-4.54 8.359-7.266 8.359-7.266-10.121 1.016-11.771-6.744 0.236-13.838 11.973-7.087 10.311-9.805 10.311-9.805s-2.416 0.548-4.535 0.252c-4.1-0.568-3.525-2.44-3.205-5.791 1.271-13.661-2.693-20.655-2.693-20.655 7.816-5.558 6.637-9.196 6.637-9.196-6.021 1.878-10.521-1.036-7.783-7.223 2.738-6.171 4.289-13.983 4.289-13.983-4.848-1.888-12.541 0.19-12.541 0.19-2.125-6.083-4.553-6.838-4.553-6.838-1.246 1.883-4.131 4.337-4.131 4.337-22.117-10.389-30.47 3.904-32.123 5.764-1.489 1.678-3.776 1.811-5.33 2.389-8 2.953-7.595 6.896-9.064 8.516-0.776 0.875-4.439 2.238-4.388 3.894 0.143 4.575 3.44 3.956 4.764 7.468 1.726 4.529 2.371 4.368 4.134 4.899 3.6 1.119 6.556-1.893 12.525-2.341 3.082-0.229 7.494 3.362 6.684 7.433-1.509-0.557-3.231-1.174-5.172-1.842-12.197-4.135-20.438 3.67-30.441 3.912-15.793 0.359-18.365-8.998-15.849-14.178 1.341-2.736 4.039-3.862 3.054-5.326-2.179-3.243-13.086 4.975-9.194 15.035 5.034 13.025 23.423 10.312 38.409 4.161 5.854-2.41 12.553-0.507 17.324 1.63-4.771 5.624-9.569 1.126-12.489-0.043-3.131-1.249-7.243 3.041-3.758 6.083 2.715 2.388 8.248 3.536 7.514 5.614 0 0 0.315 1.679-9.624 0.416-13.078-1.651-21.125 2.258-21.125 2.258-30.182-9.95-40.313-42.816-39.243-44.419 1.2-1.781 5.162-9.489-3.349-14.347-0.912-0.515-1.448-0.796-2.225-1.028-3.232-5.837-10.531-2.605-10.531-2.605 2.249 0.787 3.546 1.246 4.727 3.591-2.197 1.922-2.878 5.207-2.878 5.207s-3.514-8.042-11.717-5.451c-10.301 3.273-10.43 14.177-10.43 14.177s4.84-5.889 7.692-3.971c1.788 1.204 1.371 2.907 0.813 4.024-4.875 3.867-5.127 7.015-3.898 9.513-3.19 6.478 1.553 9.775 1.553 9.775 0-2.944 1.074-4.554 2.216-5.441 0.119 0.099 0.233 0.209 0.351 0.318 3.121 2.81 7.311 3.504 7.311 3.504s-1.09 0.839-1.646 2.877c-0.343 1.281 1.229 3.175-0.234 4.42-1.461 1.259-3.867-1.299-3.867-1.299 0.886 8.995 9.489 6.807 11.206 5.764 0.655-0.401 2.011-1.403 3.347-2.079 1.36-0.688 2.495-0.876 3.289-0.074 3.014 3.039-4.703 6.021 1.025 12.37 0 0-0.566-2.235 3.284-2.446 2.392-0.129 4.379 0.278 7.608 5.275 3.241 5.003 8.007 14.9 4.567 17.603-0.813 0.633-1.814 0.886-2.862 0.911-3.413 0.03-7.381-2.436-7.381-2.436s0.781 10.258 12.542 12.696c-6.673 2.301-12.223-0.457-12.223-0.457 1.668 6.985 7.886 9.292 7.886 9.292-3.962 2.4-8.94 8.571-8.94 8.571-1.243-1.773-5.846-1.413-5.846-1.413-1.872-8.438-7.856-8.82-9.92-9.106-1.069-0.152-1.944 0.386-2.469 0.386-0.456-1.303-1.378-2.576-3.13-3.538-6.254-3.436-10.34 2.762-10.34 2.762s2.503-0.179 4.078 0.098c2.167 0.37 5.643 5.165-2.624 5.982-5.316 0.539-9.042 4.182-8.554 8.081-4.433 3.066-5.155 8.247-3.983 11.069l0.238 3e-3h-0.238c0.037 0.086 0.075 0.173 0.117 0.258 0 0 0.059-0.096 0.168-0.258h1e-3c0.717-1.064 3.605-4.996 6.44-3.915 0.317 0.242 1.651 1.063 2.09 1.249 2.424 1.074 3.533 0.831 3.533 0.831-0.683 0.62-1.245 1.234-1.706 1.835h-2e-3c-2.563 3.352-1.98 6.311-1.451 7.795 0.656 1.839 1.507 2.408 2.433 3.202-0.153 0.718-1.567 6.457 5.001 9.681 0 0-0.729-0.927-0.517-3.851 0.099-1.371 0.934-3.024 2.71-3.232 3.632 0.234 6.092-1.952 6.092-1.952 1.978-1.779 3.811-0.758 1.832 2.569-2.076 3.489 2.396 5.329 2.396 5.329-1.354 3.117-4.315 3.754-4.315 3.754s4.831 3.533 10.705-1.881c5.835-5.374 3.868-15.151 3.868-15.151 4.697 2.705 11.655 2.246 11.655 2.246 3.647 8.548 11.752 7.949 11.752 7.949-2.811-2.924-6.389-9.32-2.43-11.821 3.962-2.495 6.391 6.77 10.878 13.135 4.48 6.348 8.132 5.306 8.132 5.306-6.886-8.964-0.7-9.882-2.001-9.443 1.62-0.548 2.728 0.479 4.883 4.396 2.742 5.026 5.303 3.645 5.303 3.645s-0.897-0.788-1.336-4.188c-1.158-9 3.464-4.62 5.618-0.154 0.96 2.002 4.133 4.91 8.271 7.463 4.063 2.497 9.055 4.64 13.842 5.253 10.733 1.366 11.272 3.381 11.272 3.381-3.967 1.15-6.108 4.543-6.108 4.543 7.188 0.206 13.083 1.271 15.091 1.95 2.004 0.676 14.949 6.884-2.334 5.897-5.995-0.34-10.907 0.229-14.566 1.006-3.262 0.687-5.526 1.532-6.633 2.038-3.087 1.396-4.62 3.82-11.678 1.693-5.659-1.693-7.375-1.793-13.922-1.521-6.54 0.263-26.048 9.249-30.637 5.179-4.592-4.063 6.115-10.598 6.115-10.598-10.534-3.755-18.347 6.012-18.347 6.012-15.474-13.521-41.114-7.162-37.063 15.422 0.173 0.967 0.394 1.856 0.654 2.68v2e-3c3.476 10.941 14.103 9.742 14.103 9.742-1.827-1.639-5.603-3.883-6.795-9.739v-3e-3c-0.097-0.475-0.177-0.979-0.237-1.504-0.939-8.118 6.294-10.09 6.187-6.278-0.104 3.751 1.22 3.774 1.22 3.774 1.346-5.935 3.323-7.707 10.21-6.459 4.383 0.791 5.823 4.477 5.823 4.477s-4.623 1.391-7.132 5.988v2e-3c-0.997 1.828-1.659 4.166-1.563 7.126 0.26 8.151 10.378 8.269 10.378 8.269s-6.615-5.023-3.176-10.238c3.441-5.226 7.528-3.666 9.723-0.125 2.182 3.545 4.517 3.408 4.517 3.408s-2.517 2.368-1.903 7.649c0.806 6.778 6.339 7.183 6.339 7.183-3.121-9.797 6.011-9.152 6.011-9.152 2.088 12.406 9.294 11.854 14.008 12.47 4.718 0.595 6.251 3.306 3.386 6.06-2.217 2.125-8.16 2.125-14.636 13.479-10.21 17.874-14.578 4.563-14.891 2.896-0.313-1.668-1.603-3.076-1.603-3.076 8.23-5.004 2.332-15.657-8.321-17.305-2.149-0.322-4.181-0.207-5.776 0.291-1.287 0.365-3.287 1.598-4.316 2.348-0.795 0.082-2.142 0.177-2.652 0.262-6.411 1.146-6.885 7.556-6.885 7.556 2.741-2.916 5.904-1.847 7.703-1.676 0.677 2.528 2.807 4.472 5.458 4.929 1.137 0.732 0.56 1.795-0.309 1.864-0.85 0.085-3.15-1.364-6.436-0.269-4.134 1.375-5.954 3.99-5.636 8.451-1.35 1.366-4.148 3.567-3.584 7.498 0.613 4.377 4.632 6.146 4.632 6.146s-1.506-7.432 2.198-6.711c0.924 1.164 2.236 1.217 3.484 1.499 2.876 0.657 3.594-1.866 5.492 0.054 0.912 0.928 1.883 3.023 1.883 3.023s-3.572 1.719-5.185 4.99c-4.195 8.498 2.338 12.354 2.338 12.354s-0.517-3.015 0.604-5.745c2.386-5.785 4.133-1.782 7.775-1.563 3.648 0.205 6.328-3.451 6.328-3.451s0.651 1.084 2.303 2.574c1.65 1.491 5.017 0.98 5.017 0.98s-1.383 1.168-1.486 3.128c-0.105 2.174 0.474 3.843 1.47 5.098-0.771 1.187-2.524 3.097-5.635 2.958 0 0 5.008 4.274 11.463-0.04 2.619 0.354 5.318-0.145 6.874-1.165 3.862-2.496 1.672-8.426 1.364-13.088-0.313-4.646 13.587-8.231 16.268-9.141 2.679-0.903 4.777-3.26 4.777-3.26 4.696 9.173 10.968 8.563 10.968 8.563-1.981-3.124-0.459-6.69-0.459-6.69 7.913 2.295 12.227-0.844 12.227-0.844-6.576-2.377-6.784-9.682-1.578-11.152 5.969-1.657 7.163-5.984 7.163-5.984 2.505 1.563 4.438 0.939 4.438 0.939s-1.121-0.98-0.773-2.993c1.431-8.142-3.687-11.237-6.39-12.06-2.718-0.834-6.417-8.757 1.717-19.195 5.592-7.188 14.013-8.663 19.677-8.663 3.42 0 5.779 0.491 5.779 0.491-0.996 1.244-1.822 2.474-2.527 3.67-6.756 11.595-1.074 20.895-1.074 20.895-6.355 5.003-4.496 10.713-4.496 10.713 2.713-2.305 6.121-2.263 6.121-2.263-7.377 16.229 7.787 22.953 7.787 22.953s-3.018-14.229 5.949-10.785c9.514 3.647 10.943 1.887 10.943 1.887-2.506-1.981-1.49-4.065-1.49-4.065 2.121-0.293 4.117-0.709 5.979-1.2 14.063-3.815 20.459-12.695 20.459-12.695 0.313 2.073 0.238 3.128 4.629 10.735 4.377 7.607 2.314 18.169-2.539 20.089-3.283 1.28-5.641 1.539-7.453 1.221-4.537-0.813-5.314-4.089-9.32-6.497-5.428-3.271-11.514-0.926-13.645 5.317-0.668 1.938-0.486 1.888-0.807 3.347-3.947 2.295-4.896 8.588-0.486 13.331 0 0-0.605-4.743 2.744-6.43 2.795 2.249 7.016 2.044 7.016 2.044s-0.607 1.896-1.373 2.611c-7.361 6.999 2.064 14.003 2.064 14.003-1.258-4.169 0.572-6.109 0.572-6.109s2.91 5.494 8.73 4.034c5.859-1.468 4.545-9.852 4.545-9.852 3.93-0.916 4.557 2.618 6.744 5.442 1.732 2.231 3.832 3.012 5.709 3.159 1.35 1.866 3.785 3.805 8.135 3.669 1.889-0.052 2.025-0.983 2.025-0.983s-2.479-0.685-4.414-3.999c1.961-1.389 4.438-6.359 1.607-10.302-3.131-4.387 0.9-4.368 2.67-2.49 1.781 1.877 2.809 3.002 3.969 4.172 1.953 1.979 5.58 1.332 5.58 1.332-0.109 3.751-3.666 7.226-3.666 7.226 9.6-0.271 9.041-8.945 9.041-8.945 2.918-1.146 7.813-6.598 5.516-11.601-2.289-5.004-11.902-2.971-11.902-2.971 5.229-6.559 5.445-13.687 5.445-13.687 2.92 0.103 5.859 6.106 5.859 6.106 2.904-6.035-0.584-11.484-0.584-11.484 3.438-1.043 3.916-4.807 3.916-4.807s-6.527-0.222-5.691-4.391c0.834-4.17 7.576-1.363 7.576-1.363-0.209-5.734-5.979-5.037-5.463-8.707 0.6-4.305 7.443-1.533 7.443-1.533s1.729-5.639-4.531-9.357c-10.902-6.475-4.598-12.023 0.709-10.84 5.453 1.225 8.891 9.381 8.891 9.381s2.719-5.52-0.988-10.928v-6e-3c-0.713-1.035-1.664-2.072-2.92-3.065-11.809-9.346-22.887 2.354-22.887 2.354-6.885-5.944-12.096-2.715-17.92-1.108-11.264 3.131-18.338-5.623-3.104-9.097 25.904-5.891 42.492-24.928 36.58-56.814v-2e-3c-2.365-12.756-8.334-27.572-18.748-44.426-0.037-0.051-0.068-0.119-0.123-0.182 8.566-1.938 18.342-0.208 27.951 7.167l0.965 1.015c-4.695 7.962-3.686 16.367-1.688 23.928-0.859 3.562-1.65 8.324-1.156 12.502 0.01 0.087 0.021 0.17 0.031 0.253 0 0 0.064-0.096 0.18-0.257h-0.047l0.047-1e-3c0.857-1.213 4.471-6.172 3.541-2.307-0.186 0.787-0.326 1.555-0.424 2.303v3e-3c-0.447 3.412-0.037 6.406 0.662 8.796 0.396 1.335 2.281-7.49 5.061-4.208l0.469 0.606c3.471 5.274 4.578 7.353 4.578 7.353 0.908 1.292 1.686 0.079 1.408-0.702-0.959-4.875-0.789-6.896 1.188-11.846 0.021-0.054 0.043-0.107 0.063-0.159 1.329-3.312 13.353-24.6-7.04-41.465zm-113.32-55.416c-1.643-1.022-5.045-2.081-5.045-2.081-0.708-0.275-0.927-1.093-0.315-1.6 0.481-0.348 1.381-0.385 2.245-0.795 1.84-0.924 3.227-1.58 4.686-0.22 1.324 1.333 0.787 2.188 1.715 4.418 0.315 1.325-0.458 2.014-3.286 0.278zm88.324 97.05c2.172 10.619 1.529 19.077-0.971 25.81-19.703-5.147-30.271-15.021-34.346-25.809v-4e-3c-6.174-16.34 2.553-34.781 16.982-42.06 0.244 0.429 1.016 0.846 1.264 1.284 9.477 16.269 14.807 29.699 17.071 40.779z"/>
</g>
</svg>
