<?xml version="1.0" encoding="UTF-8" standalone="no"?>
<svg xmlns="http://www.w3.org/2000/svg" xml:space="preserve" width="772.62665" height="772.62665">
  <g fill-rule="evenodd" transform="matrix(.13333 0 0 -.13333 0 772.62667)">
    <path fill="#161315" d="M2897.32 5794.66c1599.88 0 2897.33-1297.45 2897.33-2897.32C5794.65 1297.45 4497.2 0 2897.32 0 1297.45 0 0 1297.45 0 2897.34c0 1599.87 1297.45 2897.32 2897.32 2897.32"/>
    <path fill="#fff" d="M3570.83 4965.52c0 70.31.26 122.37.8 156.19.53 33.81 1.07 63.59 1.61 89.36l-144.65-245.69zm176.3-87.75v87.75h-63.59v357.46h-128.02l-210.12-347.8v-97.41h225.43v-126.41h112.71v126.41h63.59zm-630.28-51.53c31.67 0 53.27 15.03 64.82 45.08 11.54 30.06 17.3 82.93 17.3 158.61 0 75.14-5.76 127.74-17.3 157.8-11.55 30.05-33.15 45.08-64.82 45.08-31.66 0-53.27-14.9-64.8-44.68-11.55-29.8-17.32-82.52-17.32-158.2 0-75.15 5.77-127.88 17.32-158.2 11.53-30.33 33.14-45.49 64.8-45.49zm0 496.74c-67.63 0-117.54-23.89-149.75-71.66-32.19-47.77-48.3-121.56-48.3-221.39 0-99.84 16.23-173.77 48.7-221.81 32.49-48.04 82.27-72.05 149.35-72.05 67.64 0 117.55 23.88 149.76 71.65 32.19 47.77 48.3 121.84 48.3 222.21 0 99.83-16.24 173.62-48.71 221.39-32.47 47.77-82.25 71.66-149.35 71.66zm-433.03-293.85c22.01 0 41.33 8.04 57.96 24.14 16.65 16.11 24.96 39.99 24.96 71.66 0 33.81-7.11 59.84-21.33 78.09-14.22 18.25-35.83 27.37-64.81 27.37-20.93 0-39.71-6.98-56.36-20.93-16.63-13.96-24.95-39.18-24.95-75.68 0-39.72 7.78-67.09 23.34-82.12 15.57-15.03 35.97-22.53 61.19-22.53zm-74.06-145.73h-111.91c4.83-45.62 23.35-81.58 55.55-107.88 32.2-26.3 72.73-39.45 121.57-39.45 58.5 0 107.74 23.35 147.73 70.04 39.99 46.69 59.98 121.03 59.98 223.02 0 100.89-16.77 175.1-50.32 222.6-33.55 47.49-83.86 71.25-150.96 71.25-58.49 0-105.59-17.31-141.29-51.93-35.69-34.61-53.53-85.75-53.53-153.37 0-49.91 15.56-92.18 46.83-126.8 31.26-34.62 72.99-51.93 125.32-51.93 22.41 0 43.07 3.62 61.99 10.87 18.92 7.24 34.35 19.72 46.02 37.44l3.23-1.62c0-55.28-9.13-95.66-27.38-121.16-18.24-25.49-40.51-38.24-66.82-38.24-17.71 0-32.34 4.69-43.88 14.09-11.53 9.39-18.91 23.76-22.13 43.07zm-522.41 340.55v-78.9h136.07v-393.69h112.71v571.62h-92.59c0-25.76-11-48.71-33.01-68.83-22-20.13-57.69-30.2-107.07-30.2h-16.11zM4781.13 3198.7l-16.43 116.85 599.26 84.22 17.6-125.2-392.96-304.6 427.56 58.39 16.42-116.84-599.25-84.22-18.54 131.86 383.88 296.52-417.54-56.98zm475.16-753.43 52.25 296.32 107.91-19.03-74.21-420.82-595.95 105.09 21.95 124.49 488.05-86.05zm-653.46-242.14-43.21-97.02-88.53 39.42 43.18 97.01 88.56-39.41zm-66.85-150.15-43.2-97.02-88.54 39.43 43.19 97 88.55-39.41zm544.46-211.04c-17.59-39.53-47.9-67.87-90.89-85.01-42.99-17.15-99.4-10.17-169.21 20.9-69.81 31.1-112.68 68.47-128.6 112.15-15.91 43.68-15.18 85.03 2.18 124.05 17.6 39.52 47.9 67.85 90.9 85 43 17.14 99.4 10.17 169.21-20.9 69.82-31.09 112.68-68.47 128.59-112.16 15.92-43.67 15.2-85.02-2.18-124.03zm-484.3 215.62c15.54 34.9 39.35 69.04 71.44 102.43 32.08 33.38 76.78 56.08 134.09 68.07 57.32 12 125.25.53 203.78-34.44 79.06-35.2 133.23-77.92 162.52-128.17 29.28-50.25 42.27-98.48 38.93-144.65-3.34-46.19-12.9-86.99-28.67-122.4-15.54-34.91-39.35-69.05-71.44-102.43-32.09-33.39-76.79-56.08-134.1-68.08-57.3-12-125.23-.52-203.78 34.45-79.04 35.19-133.21 77.93-162.5 128.18-29.3 50.24-42.26 98.46-38.92 144.64 3.33 46.18 12.89 86.98 28.65 122.4zm38.52-979.21-86.22-92.452-442.57 412.712 86.22 92.46 179.99-167.86-22.5 336.75 111.52 119.59 12.8-349.61 439.55-52.62-110.94-118.97-321.77 44.22 4.14-84.54 149.78-139.68zM3386.72 667.039l23.35 251.063L3537 701.742l-150.28-34.703Zm-22.34-240.437-129.76-29.954 75.06 638.402 142.76 32.95 342.26-542.039-133.86-30.91-65.84 112.82-217.62-50.242-13-131.027zm-359.5-44.289-126.35-4.422-21.12 604.781 126.34 4.41 21.13-604.769zM2426.99 773.77l-144.54 33.371 36.4 157.679 153.58-35.461c32.29-7.449 52.94-20.437 61.93-38.957 8.99-18.5 11.15-37.882 6.47-58.14-6.7-29.02-19.14-47.922-37.31-56.692-18.17-8.789-43.68-9.39-76.53-1.8zm-205.34 320.74 298.1-68.82c53.65-12.39 94.68-36.999 123.09-73.819 28.4-36.84 36.4-82.082 24.02-135.742-7.59-32.848-22.39-60.137-44.42-81.867-22.03-21.731-48.41-34.231-79.16-37.512 25.01-19.031 40.94-38.719 47.79-59.039 6.83-20.32 4.32-56.199-7.56-107.68-10.75-46.519-16.47-76.929-17.17-91.191-.69-14.258 4.75-25.02 16.34-32.309l-3.6-15.601-136.34 31.461c-.71 16.898-.26 33.808 1.34 50.738 1.6 16.922 5.94 40.723 13.01 71.383 10.37 44.898 12.06 75.929 5.07 93.109-6.98 17.199-32.11 30.781-75.36 40.758l-127.28 29.391L2206.24 477l-120.72 27.871 136.13 589.639zm-566.1-281.041c-37.46 21.633-62.48 54.73-75.04 99.281-12.56 44.551.27 99.91 38.48 166.1 38.22 66.17 79.87 104.89 124.97 116.16 45.11 11.26 86.16 6.21 123.14-15.14 37.46-21.62 62.48-54.72 75.04-99.27 12.55-44.56-.27-99.92-38.47-166.108-38.22-66.183-79.88-104.902-124.98-116.16-45.11-11.262-86.15-6.223-123.14 15.137zm265.07 459.101c33.09-19.1 64.56-46.36 94.4-81.76 29.85-35.39 47.75-82.2 53.69-140.47 5.93-58.258-12.58-124.61-55.57-199.051-43.26-74.949-91.41-124.348-144.45-148.23-53.04-23.879-102.35-31.75-147.92-23.598-45.58 8.148-85.16 21.93-118.74 41.301-33.08 19.109-64.56 46.359-94.4 81.758-29.85 35.39-47.74 82.222-53.68 140.48-5.95 58.24 12.57 124.61 55.56 199.06 43.26 74.93 91.41 124.35 144.45 148.22 53.05 23.87 102.35 31.74 147.92 23.59 45.59-8.15 85.17-21.92 118.74-41.3zm-893.79-55.31-81.26 96.84 381.58 320.19-117.56 140.11 81.99 68.79 316.39-377.05-82-68.79-117.56 140.09-381.58-320.18zm-506.494 860.2-45.309 118.03 564.953 216.87 45.31-118.03-229.759-88.2 312.519-127.4 58.6-152.64-319.834 141.73-239.996-371.99-58.289 151.88 180.809 269.81-77.801 33.34-191.203-73.4zm-106.055 437.31-15.402 125.48L999.516 2714l15.404-125.49-600.639-73.74zm565.106 476.42-18.301-130.2-570.641 287.87 16.778 119.35 627.637 117.76-18.88-134.38-472.097-64.72 435.504-195.68zM4792.35 4787.57l-502.86-964.31c176.73-265.09 279.79-583.49 279.79-925.92 0-923.27-748.7-1671.96-1671.96-1671.96-923.24 0-1671.94 748.69-1671.94 1671.96 0 341.09 102.28 658.34 277.75 922.81l-503.208 964.97c-481.645-484-779.356-1151.19-779.356-1887.78 0-1478.1 1198.674-2676.77 2676.754-2676.77 1478.1 0 2676.77 1198.67 2676.77 2676.77 0 737.81-298.68 1406.03-781.74 1890.23zm-1895.03 786.52c517.8 0 1001.18-147.23 1410.87-401.91l-2.23-4.27-464.63-890.64c-268.67 184.18-593.74 292.01-944.01 292.01-351.44 0-677.51-108.58-946.7-293.88l-465.6 892.51-1.32 2.54c410.28 255.75 894.67 403.64 1413.62 403.64"/>
    <path fill="#eb2225" d="M1027.08 4811.88c129.78 126.8 272.3 240.65 425.63 339.16l1442.78-2765.69 1442.8 2765.69c153.32-98.51 295.84-212.36 425.62-339.16L2895.49 1228.91 1027.08 4811.88"/>
  </g>
</svg>