<?xml version="1.0" encoding="UTF-8" standalone="no"?>
<!-- Created with Inkscape (http://www.inkscape.org/) -->
<svg
   xmlns:svg="http://www.w3.org/2000/svg"
   xmlns="http://www.w3.org/2000/svg"
   version="1.0"
   width="534.74597"
   height="779.867"
   viewBox="0 0 534.746 779.867"
   id="Logo-SV-Waldhof-07"
   xml:space="preserve"><defs
   id="defs20" />
<polygon
   points="269.761,779.867 534.746,378.912 269.761,0 0,378.912 269.761,779.867 "
   transform="matrix(0.9747465,0,0,0.9747465,6.7520956,9.8471734)"
   id="Fond-blau"
   style="fill:#004292;fill-rule:evenodd" />
<path
   d="M 269.55058,733.73391 L 503.673,379.47593 L 269.55448,42.730248 L 31.212385,379.47983 L 269.55058,733.73391 L 269.55058,733.73391 z M 269.62661,751.87687 L 515.83394,379.33362 L 269.62856,25.201381 L 18.98224,379.33557 L 269.62661,751.87687 L 269.62661,751.87687 z"
   id="Raute1"
   style="fill:#ffffff;fill-rule:evenodd" />
<path
   d="M 269.70069,695.26944 L 479.35113,379.76251 L 269.4073,77.787007 L 60.021994,379.53929 L 269.70069,695.26944 L 269.70069,695.26944 z M 269.4765,715.58803 L 491.51109,379.61922 L 269.4804,60.25814 L 43.44253,379.62507 L 269.4765,715.58803 L 269.4765,715.58803 z"
   id="Raute2"
   style="fill:#ffffff;fill-rule:evenodd" />
<path
   d="M 269.33322,95.315873 L 75.876246,379.62799 L 269.70167,673.50043 L 465.01651,379.62799 L 269.33322,95.315873 z M 269.70069,114.29321 L 453.62464,379.63287 C 401.07703,414.20907 338.2439,434.30055 270.56335,434.3103 C 202.90131,434.30055 140.07988,414.22077 87.539088,379.66016 L 269.70069,114.29321 z M 147.15361,469.88367 C 185.93878,482.84683 227.43276,489.87377 270.52533,489.8728 C 270.53703,489.8728 270.5497,489.8728 270.56335,489.8728 L 270.60331,489.8728 L 271.73986,489.8728 L 271.74571,489.8689 C 314.16961,489.74998 355.02806,482.81466 393.26639,470.11664 L 269.70069,655.35552 L 147.15361,469.88367 z"
   id="Raute3_1_"
   style="fill:#ffffff" />
<polygon
   points="270.582,424.762 167.446,277.552 192.371,242.183 270.093,354.814 347.343,244.501 372.179,280.443 270.582,424.762 "
   transform="matrix(0.9747465,0,0,0.9747465,6.7520956,9.8471734)"
   id="V"
   style="fill:#ffffff;fill-rule:evenodd" />
<polygon
   points="270.238,338.864 245.636,303.263 268.305,268.729 223.056,202.365 269.705,133.731 292.605,166.685 270.666,199.217 318.583,270.046 270.238,338.864 "
   transform="matrix(0.9747465,0,0,0.9747465,6.7520956,9.8471734)"
   id="S"
   style="fill:#ffffff;fill-rule:evenodd" />
<path
   d="M 243.23243,565.12518 C 243.23243,567.94512 243.64864,571.6745 244.50057,572.78182 C 245.36225,573.90277 246.82632,574.44376 248.89278,574.44376 C 251.14737,574.44376 252.72158,573.89693 253.61348,572.78182 C 254.50537,571.66671 254.95278,567.94415 254.95278,565.12518 L 254.95278,521.4195 C 254.95278,518.59955 254.53169,515.45697 253.68463,514.3867 C 252.81808,513.29011 251.3121,512.74523 249.15109,512.74523 C 247.03686,512.74523 245.5377,513.31838 244.61754,514.44908 C 243.70615,515.56809 243.23145,518.66389 243.23145,521.41852 L 243.23145,565.12518 L 243.23243,565.12518 z M 274.28298,552.57337 C 274.28298,578.50358 265.03751,587.87382 249.15109,587.87382 C 225.2698,587.87382 223.97144,571.0955 223.97144,552.57337 L 223.97144,533.84751 C 223.97144,510.10366 232.75585,498.73617 249.15109,498.73617 C 265.54632,498.73617 274.28298,507.75647 274.28298,533.84751 L 274.28298,552.57337 L 274.28298,552.57337 z M 281.84116,501.83489 L 338.6182,501.83489 L 325.05558,531.48278 L 332.22386,531.48278 L 332.22386,546.01625 L 318.40585,546.01625 L 300.05723,586.12707 L 281.84116,586.12707 L 300.259,546.01625 L 281.84116,546.01625 L 281.84116,531.48278 L 306.93114,531.48278 L 313.42685,517.33726 L 299.32227,517.33726 C 295.31898,517.96694 294.70977,520.8249 293.85491,522.56872 L 281.84214,522.56872 L 281.84214,501.83489 L 281.84116,501.83489 z"
   id="_x30_7"
   style="fill:#ffffff;fill-rule:evenodd" />
<path
   d="M 444.41329,393.4421 L 399.51841,460.74445 C 359.24481,475.17265 315.85299,483.04275 270.65887,483.04762 C 270.61891,483.04665 270.5575,483.04568 270.46879,483.04957 C 225.03001,483.04178 181.414,475.0781 140.95325,460.49881 L 96.604231,393.37972 C 147.50355,423.71188 206.95236,441.12962 270.56335,441.13547 C 334.12949,441.12865 393.53639,423.7343 444.41329,393.4421 z"
   id="Fond-schwarz" />
<g
   transform="matrix(0.9747465,0,0,0.9747465,6.7520956,9.8471734)"
   id="WALDHOF">
	<path
   d="M 172.771,470.024 L 165.016,467.703 L 166.231,441.742 L 166.132,441.713 L 152.986,464.103 L 145.082,461.738 L 146.309,423.431 L 154.114,425.766 L 152.501,451.608 L 152.6,451.638 L 165.995,429.322 L 173.303,431.51 L 172.049,457.783 L 172.148,457.813 L 185.284,435.094 L 192.94,437.385 L 172.771,470.024 z"
   id="W"
   style="fill:#ffffff" />
	<path
   d="M 204.971,439.026 L 213.199,440.48 L 220.393,479.378 L 212.063,477.905 L 210.74,469.293 L 197.096,466.881 L 192.798,474.5 L 184.673,473.063 L 204.971,439.026 z M 200.248,461.273 L 209.702,462.944 L 207.47,448.742 L 207.367,448.724 L 200.248,461.273 z"
   id="A"
   style="fill:#ffffff" />
	<path
   d="M 230.026,442.993 L 238.147,443.651 L 235.705,473.756 L 253.706,475.217 L 253.152,482.044 L 227.03,479.925 L 230.026,442.993 z"
   id="L"
   style="fill:#ffffff" />
	<path
   d="M 260.569,445.328 L 276.548,445.07 C 286.146,444.915 293.454,450.816 293.652,463.111 C 293.826,473.85 288.456,481.929 277.146,482.112 L 261.167,482.371 L 260.569,445.328 z M 269.203,475.391 L 276.466,475.274 C 281.188,475.198 285.654,472.219 285.522,464.022 C 285.401,456.551 282.73,451.821 274.636,451.952 L 268.825,452.046 L 269.203,475.391 z"
   id="D"
   style="fill:#ffffff" />
	<path
   d="M 298.514,444.38 L 306.599,443.386 L 308.334,457.496 L 323.217,455.666 L 321.482,441.556 L 329.568,440.562 L 334.089,477.333 L 326.003,478.327 L 324.053,462.465 L 309.17,464.295 L 311.12,480.157 L 303.035,481.151 L 298.514,444.38 z"
   id="H"
   style="fill:#ffffff" />
	<path
   d="M 351.962,434.771 C 363.121,432.124 371.661,438.897 374.2,449.602 C 376.668,460.002 372.08,469.891 360.922,472.539 C 349.764,475.185 341.223,468.412 338.756,458.011 C 336.216,447.306 340.804,437.417 351.962,434.771 z M 359.341,465.873 C 366.46,464.184 367.698,457.49 366.274,451.481 C 364.777,445.169 360.664,439.746 353.544,441.435 C 346.425,443.123 345.187,449.817 346.684,456.128 C 348.109,462.138 352.222,467.562 359.341,465.873 z"
   id="O"
   style="fill:#ffffff" />
	<path
   d="M 374.843,429.651 L 399.454,421.118 L 401.698,427.59 L 384.783,433.454 L 387.589,441.543 L 402.247,436.461 L 404.321,442.442 L 389.662,447.524 L 394.677,461.987 L 386.98,464.656 L 374.843,429.651 z"
   id="F"
   style="fill:#ffffff" />
</g>
</svg>