<?xml version="1.0"?>
<svg width="120" height="120"
     xmlns="http://www.w3.org/2000/svg"
     shape-rendering="crispEdges">
<polygon points="63,63 69,67 73,61" style="fill:rgb(228,156,142)"/>
<polygon points="73,61 69,56 63,63" style="fill:rgb(212,150,135)"/>
<polygon points="86,62 74,60 73,61" style="fill:rgb(159,108,101)"/>
<polygon points="73,61 74,60 69,56" style="fill:rgb(188,130,119)"/>
<polygon points="72,53 68,54 69,56" style="fill:rgb(110,76,80)"/>
<polygon points="69,56 63,55 63,63" style="fill:rgb(190,136,120)"/>
<polygon points="74,60 74,56 69,56" style="fill:rgb(202,152,141)"/>
<polygon points="68,54 63,55 69,56" style="fill:rgb(130,93,88)"/>
<polygon points="65,47 62,55 63,55" style="fill:rgb(191,134,122)"/>
<polygon points="63,55 62,55 63,63" style="fill:rgb(216,150,136)"/>
<polygon points="74,56 72,53 69,56" style="fill:rgb(181,148,134)"/>
<polygon points="68,54 68,51 63,55" style="fill:rgb(69,46,62)"/>
<polygon points="74,56 74,54 72,53" style="fill:rgb(104,96,99)"/>
<polygon points="72,53 68,51 68,54" style="fill:rgb(70,50,65)"/>
<polygon points="60,75 69,74 69,67" style="fill:rgb(204,143,134)"/>
<polygon points="69,67 82,74 73,61" style="fill:rgb(242,170,157)"/>
<polygon points="56,56 56,66 63,63" style="fill:rgb(248,183,170)"/>
<polygon points="63,63 60,75 69,67" style="fill:rgb(234,166,155)"/>
<polygon points="75,51 67,49 68,51" style="fill:rgb(89,60,72)"/>
<polygon points="68,51 67,49 63,55" style="fill:rgb(103,71,78)"/>
<polygon points="75,51 68,51 72,53" style="fill:rgb(69,53,69)"/>
<polygon points="88,56 75,51 74,54" style="fill:rgb(46,47,69)"/>
<polygon points="74,54 75,51 72,53" style="fill:rgb(39,44,67)"/>
<polygon points="88,56 74,54 74,56" style="fill:rgb(101,98,101)"/>
<polygon points="57,50 56,56 62,55" style="fill:rgb(242,181,165)"/>
<polygon points="62,55 56,56 63,63" style="fill:rgb(248,186,169)"/>
<polygon points="69,74 72,75 69,67" style="fill:rgb(197,137,128)"/>
<polygon points="60,75 68,76 69,74" style="fill:rgb(136,95,99)"/>
<polygon points="69,74 68,76 72,75" style="fill:rgb(181,126,118)"/>
<polygon points="56,66 60,75 63,63" style="fill:rgb(250,189,177)"/>
<polygon points="76,44 65,47 67,49" style="fill:rgb(204,146,135)"/>
<polygon points="67,49 65,47 63,55" style="fill:rgb(172,121,113)"/>
<polygon points="52,62 53,66 56,66" style="fill:rgb(226,153,140)"/>
<polygon points="56,66 53,66 60,75" style="fill:rgb(237,170,159)"/>
<polygon points="56,56 52,62 56,66" style="fill:rgb(222,151,138)"/>
<polygon points="65,47 57,50 62,55" style="fill:rgb(226,162,147)"/>
<polygon points="56,56 51,56 52,62" style="fill:rgb(213,152,136)"/>
<polygon points="57,50 55,52 56,56" style="fill:rgb(176,123,113)"/>
<polygon points="86,48 76,47 75,51" style="fill:rgb(89,67,77)"/>
<polygon points="75,51 76,47 67,49" style="fill:rgb(81,60,74)"/>
<polygon points="86,62 74,56 74,60" style="fill:rgb(193,140,129)"/>
<polygon points="82,74 86,62 73,61" style="fill:rgb(235,168,153)"/>
<polygon points="55,52 51,56 56,56" style="fill:rgb(120,83,85)"/>
<polygon points="60,75 66,80 68,76" style="fill:rgb(65,47,68)"/>
<polygon points="68,76 66,80 72,75" style="fill:rgb(105,70,78)"/>
<polygon points="77,85 82,74 72,75" style="fill:rgb(213,146,135)"/>
<polygon points="72,75 82,74 69,67" style="fill:rgb(228,156,144)"/>
<polygon points="84,45 76,44 76,47" style="fill:rgb(195,147,135)"/>
<polygon points="76,47 76,44 67,49" style="fill:rgb(163,121,112)"/>
<polygon points="90,64 88,58 86,62" style="fill:rgb(203,147,137)"/>
<polygon points="86,62 88,58 74,56" style="fill:rgb(182,133,124)"/>
<polygon points="49,76 56,79 60,75" style="fill:rgb(89,58,73)"/>
<polygon points="60,75 56,79 66,80" style="fill:rgb(77,53,70)"/>
<polygon points="48,73 60,75 53,66" style="fill:rgb(216,150,139)"/>
<polygon points="88,58 88,56 74,56" style="fill:rgb(123,94,96)"/>
<polygon points="48,49 49,53 55,52" style="fill:rgb(99,67,75)"/>
<polygon points="55,52 49,53 51,56" style="fill:rgb(111,76,80)"/>
<polygon points="51,56 38,57 52,62" style="fill:rgb(204,148,135)"/>
<polygon points="52,62 48,73 53,66" style="fill:rgb(231,159,147)"/>
<polygon points="82,74 90,64 86,62" style="fill:rgb(217,153,144)"/>
<polygon points="88,58 93,60 88,56" style="fill:rgb(175,131,127)"/>
<polygon points="77,85 86,75 82,74" style="fill:rgb(193,135,128)"/>
<polygon points="82,74 86,75 90,64" style="fill:rgb(201,141,134)"/>
<polygon points="88,56 86,48 75,51" style="fill:rgb(100,78,87)"/>
<polygon points="36,61 48,73 52,62" style="fill:rgb(246,182,166)"/>
<polygon points="49,76 55,81 56,79" style="fill:rgb(155,103,102)"/>
<polygon points="56,79 60,85 66,80" style="fill:rgb(138,101,100)"/>
<polygon points="86,48 84,45 76,47" style="fill:rgb(133,101,100)"/>
<polygon points="48,73 49,76 60,75" style="fill:rgb(175,119,116)"/>
<polygon points="48,47 48,49 55,52" style="fill:rgb(138,97,97)"/>
<polygon points="49,53 39,55 51,56" style="fill:rgb(105,91,92)"/>
<polygon points="48,47 55,52 57,50" style="fill:rgb(186,130,121)"/>
<polygon points="48,47 57,50 47,45" style="fill:rgb(204,147,135)"/>
<polygon points="77,29 70,38 76,44" style="fill:rgb(239,169,157)"/>
<polygon points="76,44 70,38 65,47" style="fill:rgb(244,186,173)"/>
<polygon points="55,81 60,85 56,79" style="fill:rgb(151,109,104)"/>
<polygon points="66,80 77,85 72,75" style="fill:rgb(205,143,133)"/>
<polygon points="65,87 77,85 66,80" style="fill:rgb(176,130,120)"/>
<polygon points="47,45 57,50 65,47" style="fill:rgb(234,169,156)"/>
<polygon points="95,68 93,60 90,64" style="fill:rgb(152,132,136)"/>
<polygon points="90,64 93,60 88,58" style="fill:rgb(177,135,133)"/>
<polygon points="88,56 93,51 86,48" style="fill:rgb(127,110,115)"/>
<polygon points="60,85 65,87 66,80" style="fill:rgb(182,133,124)"/>
<polygon points="53,88 61,88 60,85" style="fill:rgb(202,148,141)"/>
<polygon points="60,85 61,88 65,87" style="fill:rgb(192,139,134)"/>
<polygon points="65,87 77,89 77,85" style="fill:rgb(116,86,91)"/>
<polygon points="62,90 61,88 53,90" style="fill:rgb(156,99,99)"/>
<polygon points="70,38 47,45 65,47" style="fill:rgb(248,192,178)"/>
<polygon points="40,47 42,52 48,49" style="fill:rgb(98,71,78)"/>
<polygon points="48,49 42,52 49,53" style="fill:rgb(57,47,68)"/>
<polygon points="61,88 65,89 65,87" style="fill:rgb(63,41,66)"/>
<polygon points="93,60 93,51 88,56" style="fill:rgb(154,129,131)"/>
<polygon points="86,48 90,42 84,45" style="fill:rgb(175,136,133)"/>
<polygon points="98,69 95,68 93,81" style="fill:rgb(139,117,124)"/>
<polygon points="86,75 95,68 90,64" style="fill:rgb(162,130,131)"/>
<polygon points="93,60 97,56 93,51" style="fill:rgb(65,65,85)"/>
<polygon points="40,47 48,49 48,47" style="fill:rgb(150,114,106)"/>
<polygon points="65,89 77,89 65,87" style="fill:rgb(28,22,55)"/>
<polygon points="77,85 82,90 86,75" style="fill:rgb(176,126,121)"/>
<polygon points="53,88 60,85 55,81" style="fill:rgb(177,128,120)"/>
<polygon points="61,88 62,90 65,89" style="fill:rgb(188,128,121)"/>
<polygon points="65,89 77,90 77,89" style="fill:rgb(149,105,103)"/>
<polygon points="95,68 97,60 93,60" style="fill:rgb(93,80,96)"/>
<polygon points="66,96 77,90 65,89" style="fill:rgb(199,143,134)"/>
<polygon points="77,89 82,90 77,85" style="fill:rgb(191,133,126)"/>
<polygon points="97,60 97,56 93,60" style="fill:rgb(76,72,89)"/>
<polygon points="40,47 40,52 42,52" style="fill:rgb(140,108,102)"/>
<polygon points="42,52 39,55 49,53" style="fill:rgb(43,46,70)"/>
<polygon points="35,75 43,85 49,76" style="fill:rgb(223,157,147)"/>
<polygon points="93,51 90,42 86,48" style="fill:rgb(153,128,130)"/>
<polygon points="84,45 77,29 76,44" style="fill:rgb(233,168,156)"/>
<polygon points="93,42 90,42 93,51" style="fill:rgb(121,106,114)"/>
<polygon points="97,56 96,52 93,51" style="fill:rgb(23,37,65)"/>
<polygon points="40,52 39,55 42,52" style="fill:rgb(22,30,58)"/>
<polygon points="53,89 53,88 44,88" style="fill:rgb(62,42,62)"/>
<polygon points="43,85 53,88 55,81" style="fill:rgb(167,124,115)"/>
<polygon points="97,60 98,59 97,56" style="fill:rgb(186,184,185)"/>
<polygon points="97,56 100,54 96,52" style="fill:rgb(70,77,95)"/>
<polygon points="99,69 98,59 97,60" style="fill:rgb(180,173,171)"/>
<polygon points="29,57 38,57 30,50" style="fill:rgb(131,100,101)"/>
<polygon points="39,55 38,57 51,56" style="fill:rgb(150,108,105)"/>
<polygon points="93,81 95,68 86,75" style="fill:rgb(140,125,129)"/>
<polygon points="95,68 98,69 97,60" style="fill:rgb(136,104,114)"/>
<polygon points="53,90 53,89 44,88" style="fill:rgb(149,106,104)"/>
<polygon points="53,88 53,89 61,88" style="fill:rgb(76,46,70)"/>
<polygon points="77,90 82,90 77,89" style="fill:rgb(185,135,128)"/>
<polygon points="82,90 93,81 86,75" style="fill:rgb(136,114,117)"/>
<polygon points="47,45 40,47 48,47" style="fill:rgb(185,139,126)"/>
<polygon points="30,50 38,57 39,55" style="fill:rgb(101,77,88)"/>
<polygon points="39,45 40,47 47,45" style="fill:rgb(225,173,161)"/>
<polygon points="43,85 55,81 49,76" style="fill:rgb(208,146,136)"/>
<polygon points="53,89 53,90 61,88" style="fill:rgb(183,117,114)"/>
<polygon points="93,81 99,69 98,69" style="fill:rgb(190,176,170)"/>
<polygon points="98,69 99,69 97,60" style="fill:rgb(145,122,128)"/>
<polygon points="29,57 36,61 38,57" style="fill:rgb(185,136,126)"/>
<polygon points="38,57 36,61 52,62" style="fill:rgb(197,142,130)"/>
<polygon points="97,45 93,42 93,51" style="fill:rgb(8,21,56)"/>
<polygon points="86,28 77,29 84,45" style="fill:rgb(217,153,144)"/>
<polygon points="108,61 100,54 98,59" style="fill:rgb(228,223,213)"/>
<polygon points="98,59 100,54 97,56" style="fill:rgb(159,156,155)"/>
<polygon points="96,52 97,45 93,51" style="fill:rgb(8,25,58)"/>
<polygon points="38,36 39,45 47,45" style="fill:rgb(244,185,171)"/>
<polygon points="40,47 30,50 40,52" style="fill:rgb(115,86,90)"/>
<polygon points="100,49 97,45 96,52" style="fill:rgb(37,56,83)"/>
<polygon points="35,75 49,76 48,73" style="fill:rgb(233,162,152)"/>
<polygon points="54,97 66,96 62,90" style="fill:rgb(204,148,139)"/>
<polygon points="62,90 66,96 65,89" style="fill:rgb(210,151,143)"/>
<polygon points="77,90 78,102 82,90" style="fill:rgb(183,134,129)"/>
<polygon points="92,32 90,42 93,42" style="fill:rgb(135,110,117)"/>
<polygon points="86,28 84,45 90,42" style="fill:rgb(195,145,139)"/>
<polygon points="41,20 38,36 47,45" style="fill:rgb(239,171,159)"/>
<polygon points="100,54 100,49 96,52" style="fill:rgb(60,73,94)"/>
<polygon points="43,85 44,88 53,88" style="fill:rgb(107,81,86)"/>
<polygon points="53,90 54,97 62,90" style="fill:rgb(218,161,153)"/>
<polygon points="36,61 35,75 48,73" style="fill:rgb(244,179,166)"/>
<polygon points="43,85 43,89 44,88" style="fill:rgb(132,97,96)"/>
<polygon points="100,54 101,49 100,49" style="fill:rgb(158,150,146)"/>
<polygon points="100,49 101,45 97,45" style="fill:rgb(55,71,94)"/>
<polygon points="108,61 101,49 100,54" style="fill:rgb(226,221,211)"/>
<polygon points="38,90 43,89 43,85" style="fill:rgb(186,139,130)"/>
<polygon points="44,88 43,89 53,90" style="fill:rgb(161,116,108)"/>
<polygon points="101,49 101,45 100,49" style="fill:rgb(86,94,108)"/>
<polygon points="97,45 98,34 93,42" style="fill:rgb(3,17,54)"/>
<polygon points="88,96 90,92 82,90" style="fill:rgb(135,121,128)"/>
<polygon points="82,90 90,92 93,81" style="fill:rgb(133,117,123)"/>
<polygon points="104,84 109,67 99,69" style="fill:rgb(227,222,211)"/>
<polygon points="29,57 31,67 36,61" style="fill:rgb(220,160,149)"/>
<polygon points="36,61 31,67 35,75" style="fill:rgb(226,163,153)"/>
<polygon points="43,89 54,97 53,90" style="fill:rgb(214,153,144)"/>
<polygon points="94,32 92,32 93,42" style="fill:rgb(86,73,89)"/>
<polygon points="92,93 92,92 90,92" style="fill:rgb(243,240,231)"/>
<polygon points="90,92 92,92 93,81" style="fill:rgb(216,211,202)"/>
<polygon points="92,32 86,28 90,42" style="fill:rgb(167,127,128)"/>
<polygon points="88,96 92,93 90,92" style="fill:rgb(76,97,124)"/>
<polygon points="109,67 108,61 99,69" style="fill:rgb(222,217,207)"/>
<polygon points="30,50 39,55 40,52" style="fill:rgb(90,71,82)"/>
<polygon points="73,104 73,101 67,108" style="fill:rgb(174,135,133)"/>
<polygon points="66,96 73,101 77,90" style="fill:rgb(211,151,143)"/>
<polygon points="78,102 88,96 82,90" style="fill:rgb(140,116,120)"/>
<polygon points="31,67 31,76 35,75" style="fill:rgb(205,149,143)"/>
<polygon points="35,75 38,90 43,85" style="fill:rgb(198,143,135)"/>
<polygon points="28,68 31,76 31,67" style="fill:rgb(185,137,133)"/>
<polygon points="60,14 47,45 70,38" style="fill:rgb(251,198,185)"/>
<polygon points="31,46 30,50 40,47" style="fill:rgb(168,129,123)"/>
<polygon points="98,34 94,32 93,42" style="fill:rgb(12,27,60)"/>
<polygon points="92,32 91,23 86,28" style="fill:rgb(157,118,122)"/>
<polygon points="31,46 40,47 39,45" style="fill:rgb(201,154,145)"/>
<polygon points="99,69 93,81 104,84" style="fill:rgb(238,233,221)"/>
<polygon points="99,69 108,61 98,59" style="fill:rgb(232,226,215)"/>
<polygon points="101,49 110,35 101,45" style="fill:rgb(220,216,208)"/>
<polygon points="38,36 31,46 39,45" style="fill:rgb(228,168,157)"/>
<polygon points="29,57 28,68 31,67" style="fill:rgb(197,143,138)"/>
<polygon points="31,76 38,90 35,75" style="fill:rgb(176,131,128)"/>
<polygon points="44,101 49,103 54,97" style="fill:rgb(220,166,158)"/>
<polygon points="102,35 98,34 97,45" style="fill:rgb(44,56,81)"/>
<polygon points="102,35 97,45 101,45" style="fill:rgb(59,67,88)"/>
<polygon points="73,101 78,102 77,90" style="fill:rgb(193,141,136)"/>
<polygon points="104,84 93,81 92,92" style="fill:rgb(240,236,224)"/>
<polygon points="96,96 104,84 92,92" style="fill:rgb(239,235,223)"/>
<polygon points="62,104 73,101 66,96" style="fill:rgb(228,171,161)"/>
<polygon points="73,101 73,104 78,102" style="fill:rgb(160,127,127)"/>
<polygon points="49,103 62,104 54,97" style="fill:rgb(232,176,167)"/>
<polygon points="54,97 62,104 66,96" style="fill:rgb(243,190,179)"/>
<polygon points="88,96 93,97 92,93" style="fill:rgb(2,28,69)"/>
<polygon points="92,93 95,96 92,92" style="fill:rgb(208,217,219)"/>
<polygon points="86,103 93,97 88,96" style="fill:rgb(2,15,58)"/>
<polygon points="85,103 88,96 78,102" style="fill:rgb(108,100,114)"/>
<polygon points="30,50 25,57 29,57" style="fill:rgb(148,121,120)"/>
<polygon points="29,57 25,57 28,68" style="fill:rgb(164,129,127)"/>
<polygon points="24,48 25,57 30,50" style="fill:rgb(134,113,118)"/>
<polygon points="93,97 95,96 92,93" style="fill:rgb(6,49,91)"/>
<polygon points="103,35 102,35 101,45" style="fill:rgb(99,99,109)"/>
<polygon points="93,22 91,23 94,32" style="fill:rgb(49,51,75)"/>
<polygon points="94,32 91,23 92,32" style="fill:rgb(106,87,99)"/>
<polygon points="97,104 96,96 93,97" style="fill:rgb(10,55,97)"/>
<polygon points="93,97 96,96 95,96" style="fill:rgb(193,206,215)"/>
<polygon points="95,96 96,96 92,92" style="fill:rgb(167,191,205)"/>
<polygon points="110,35 103,35 101,45" style="fill:rgb(213,208,201)"/>
<polygon points="102,35 102,31 98,34" style="fill:rgb(42,55,80)"/>
<polygon points="27,34 27,45 31,46" style="fill:rgb(157,127,127)"/>
<polygon points="31,46 27,45 30,50" style="fill:rgb(166,133,131)"/>
<polygon points="72,109 85,103 78,102" style="fill:rgb(81,76,95)"/>
<polygon points="25,57 24,68 28,68" style="fill:rgb(140,119,124)"/>
<polygon points="28,68 24,68 31,76" style="fill:rgb(144,119,122)"/>
<polygon points="31,76 31,90 38,90" style="fill:rgb(160,124,123)"/>
<polygon points="97,111 86,103 96,114" style="fill:rgb(1,25,67)"/>
<polygon points="85,103 86,103 88,96" style="fill:rgb(15,34,69)"/>
<polygon points="78,14 72,17 77,29" style="fill:rgb(228,157,151)"/>
<polygon points="77,29 72,17 70,38" style="fill:rgb(238,167,157)"/>
<polygon points="78,14 77,29 86,28" style="fill:rgb(210,146,140)"/>
<polygon points="44,101 54,97 43,89" style="fill:rgb(222,160,151)"/>
<polygon points="102,31 94,32 98,34" style="fill:rgb(17,36,67)"/>
<polygon points="49,103 61,107 62,104" style="fill:rgb(215,160,155)"/>
<polygon points="62,104 67,108 73,101" style="fill:rgb(202,152,146)"/>
<polygon points="73,104 72,109 78,102" style="fill:rgb(110,93,102)"/>
<polygon points="38,103 44,101 38,90" style="fill:rgb(183,139,135)"/>
<polygon points="38,90 44,101 43,89" style="fill:rgb(203,150,142)"/>
<polygon points="61,107 67,108 62,104" style="fill:rgb(194,146,143)"/>
<polygon points="103,35 102,31 102,35" style="fill:rgb(168,165,164)"/>
<polygon points="27,45 24,48 30,50" style="fill:rgb(142,120,123)"/>
<polygon points="25,57 21,67 24,68" style="fill:rgb(104,91,103)"/>
<polygon points="41,20 32,33 38,36" style="fill:rgb(223,158,149)"/>
<polygon points="38,36 32,33 31,46" style="fill:rgb(214,156,148)"/>
<polygon points="27,45 24,43 24,48" style="fill:rgb(123,105,115)"/>
<polygon points="22,78 31,90 31,76" style="fill:rgb(141,118,121)"/>
<polygon points="116,73 115,64 109,67" style="fill:rgb(192,188,179)"/>
<polygon points="109,67 115,64 108,61" style="fill:rgb(203,198,189)"/>
<polygon points="108,61 110,35 101,49" style="fill:rgb(217,212,203)"/>
<polygon points="103,35 103,30 102,31" style="fill:rgb(146,146,150)"/>
<polygon points="68,110 72,109 67,108" style="fill:rgb(76,69,90)"/>
<polygon points="67,108 72,109 73,104" style="fill:rgb(120,98,107)"/>
<polygon points="99,21 93,22 94,32" style="fill:rgb(46,53,77)"/>
<polygon points="83,13 78,14 86,28" style="fill:rgb(193,139,138)"/>
<polygon points="20,58 21,67 25,57" style="fill:rgb(80,68,86)"/>
<polygon points="24,68 22,78 31,76" style="fill:rgb(134,116,122)"/>
<polygon points="110,35 103,30 103,35" style="fill:rgb(216,211,204)"/>
<polygon points="102,31 99,21 94,32" style="fill:rgb(28,44,72)"/>
<polygon points="17,54 21,53 17,49" style="fill:rgb(79,66,85)"/>
<polygon points="24,48 21,53 25,57" style="fill:rgb(43,48,72)"/>
<polygon points="105,100 111,83 104,84" style="fill:rgb(220,216,204)"/>
<polygon points="104,84 111,83 109,67" style="fill:rgb(215,211,200)"/>
<polygon points="27,34 24,43 27,45" style="fill:rgb(127,105,112)"/>
<polygon points="61,110 68,110 67,108" style="fill:rgb(110,90,103)"/>
<polygon points="61,110 67,108 61,107" style="fill:rgb(150,118,121)"/>
<polygon points="21,53 20,58 25,57" style="fill:rgb(61,61,81)"/>
<polygon points="43,106 44,104 38,103" style="fill:rgb(114,94,103)"/>
<polygon points="44,101 44,104 49,103" style="fill:rgb(181,138,134)"/>
<polygon points="50,108 61,110 61,107" style="fill:rgb(153,122,124)"/>
<polygon points="50,108 61,107 49,103" style="fill:rgb(187,142,139)"/>
<polygon points="66,11 60,14 72,17" style="fill:rgb(225,165,157)"/>
<polygon points="72,17 60,14 70,38" style="fill:rgb(245,180,170)"/>
<polygon points="21,67 22,78 24,68" style="fill:rgb(130,106,115)"/>
<polygon points="20,79 22,78 17,67" style="fill:rgb(207,198,189)"/>
<polygon points="83,13 86,28 91,23" style="fill:rgb(165,123,125)"/>
<polygon points="111,83 116,73 109,67" style="fill:rgb(199,195,185)"/>
<polygon points="44,104 50,108 49,103" style="fill:rgb(154,122,122)"/>
<polygon points="32,33 27,34 31,46" style="fill:rgb(182,138,136)"/>
<polygon points="27,23 27,34 32,33" style="fill:rgb(176,133,132)"/>
<polygon points="60,14 41,20 47,45" style="fill:rgb(247,186,175)"/>
<polygon points="115,64 110,35 108,61" style="fill:rgb(201,197,188)"/>
<polygon points="103,24 99,21 102,31" style="fill:rgb(34,51,77)"/>
<polygon points="64,117 72,112 68,110" style="fill:rgb(12,29,62)"/>
<polygon points="68,110 72,112 72,109" style="fill:rgb(23,38,69)"/>
<polygon points="72,109 72,112 85,103" style="fill:rgb(48,54,79)"/>
<polygon points="50,111 61,112 61,110" style="fill:rgb(51,52,76)"/>
<polygon points="61,110 61,112 68,110" style="fill:rgb(74,64,84)"/>
<polygon points="38,103 44,104 44,101" style="fill:rgb(154,122,123)"/>
<polygon points="44,104 43,106 50,108" style="fill:rgb(117,98,104)"/>
<polygon points="50,108 50,111 61,110" style="fill:rgb(90,76,92)"/>
<polygon points="22,78 27,92 31,90" style="fill:rgb(135,122,129)"/>
<polygon points="31,90 38,103 38,90" style="fill:rgb(165,129,128)"/>
<polygon points="27,94 38,103 31,90" style="fill:rgb(126,107,116)"/>
<polygon points="22,78 20,79 27,92" style="fill:rgb(202,198,193)"/>
<polygon points="17,67 22,78 21,67" style="fill:rgb(152,119,126)"/>
<polygon points="110,35 105,27 103,30" style="fill:rgb(213,208,201)"/>
<polygon points="85,13 83,13 91,23" style="fill:rgb(130,103,110)"/>
<polygon points="78,14 66,11 72,17" style="fill:rgb(220,160,153)"/>
<polygon points="60,14 53,10 41,20" style="fill:rgb(234,171,163)"/>
<polygon points="86,103 97,104 93,97" style="fill:rgb(1,25,71)"/>
<polygon points="96,96 105,100 104,84" style="fill:rgb(231,227,216)"/>
<polygon points="98,107 97,104 97,111" style="fill:rgb(94,133,166)"/>
<polygon points="17,54 17,67 20,58" style="fill:rgb(137,111,120)"/>
<polygon points="20,58 17,67 21,67" style="fill:rgb(139,108,118)"/>
<polygon points="85,13 91,23 93,22" style="fill:rgb(39,43,68)"/>
<polygon points="78,6 66,8 66,11" style="fill:rgb(98,76,88)"/>
<polygon points="103,24 102,31 103,30" style="fill:rgb(89,94,105)"/>
<polygon points="98,107 98,104 97,104" style="fill:rgb(184,195,199)"/>
<polygon points="97,104 98,104 96,96" style="fill:rgb(49,91,122)"/>
<polygon points="17,49 21,53 24,48" style="fill:rgb(37,45,72)"/>
<polygon points="21,53 17,54 20,58" style="fill:rgb(108,90,102)"/>
<polygon points="17,49 24,48 24,43" style="fill:rgb(7,27,60)"/>
<polygon points="26,23 24,35 27,34" style="fill:rgb(112,93,104)"/>
<polygon points="27,34 24,35 24,43" style="fill:rgb(101,83,98)"/>
<polygon points="66,11 60,11 60,14" style="fill:rgb(188,141,136)"/>
<polygon points="105,27 103,24 103,30" style="fill:rgb(184,181,179)"/>
<polygon points="91,10 85,13 93,22" style="fill:rgb(4,17,53)"/>
<polygon points="79,8 66,11 78,14" style="fill:rgb(189,142,138)"/>
<polygon points="23,94 27,94 27,92" style="fill:rgb(67,88,112)"/>
<polygon points="27,92 27,94 31,90" style="fill:rgb(125,111,120)"/>
<polygon points="45,114 50,111 43,106" style="fill:rgb(32,41,69)"/>
<polygon points="43,106 50,111 50,108" style="fill:rgb(84,76,92)"/>
<polygon points="103,24 102,16 99,21" style="fill:rgb(46,60,83)"/>
<polygon points="105,27 104,24 103,24" style="fill:rgb(198,197,194)"/>
<polygon points="107,23 104,24 105,27" style="fill:rgb(157,152,156)"/>
<polygon points="116,73 120,68 115,64" style="fill:rgb(173,169,162)"/>
<polygon points="115,64 116,33 110,35" style="fill:rgb(188,183,177)"/>
<polygon points="117,104 120,68 116,73" style="fill:rgb(171,167,159)"/>
<polygon points="16,42 17,49 24,43" style="fill:rgb(15,38,68)"/>
<polygon points="27,94 36,104 38,103" style="fill:rgb(97,86,102)"/>
<polygon points="38,103 36,104 43,106" style="fill:rgb(84,75,92)"/>
<polygon points="98,104 105,100 96,96" style="fill:rgb(226,224,215)"/>
<polygon points="111,83 114,100 116,73" style="fill:rgb(192,188,179)"/>
<polygon points="79,8 78,14 83,13" style="fill:rgb(174,130,131)"/>
<polygon points="66,11 66,8 60,11" style="fill:rgb(140,109,110)"/>
<polygon points="60,11 53,10 60,14" style="fill:rgb(200,147,142)"/>
<polygon points="97,111 97,104 86,103" style="fill:rgb(2,42,87)"/>
<polygon points="98,104 103,110 105,100" style="fill:rgb(221,218,207)"/>
<polygon points="66,8 53,10 60,11" style="fill:rgb(150,114,113)"/>
<polygon points="14,48 14,51 17,49" style="fill:rgb(72,77,91)"/>
<polygon points="17,49 14,51 17,54" style="fill:rgb(134,129,134)"/>
<polygon points="17,54 14,51 17,67" style="fill:rgb(214,207,197)"/>
<polygon points="79,6 79,8 85,13" style="fill:rgb(49,45,66)"/>
<polygon points="85,13 79,8 83,13" style="fill:rgb(132,104,109)"/>
<polygon points="91,10 93,22 99,21" style="fill:rgb(36,47,73)"/>
<polygon points="61,112 64,117 68,110" style="fill:rgb(27,37,66)"/>
<polygon points="72,112 84,120 85,103" style="fill:rgb(79,69,89)"/>
<polygon points="53,118 64,117 61,112" style="fill:rgb(31,37,66)"/>
<polygon points="109,23 107,23 105,27" style="fill:rgb(200,196,190)"/>
<polygon points="104,24 102,16 103,24" style="fill:rgb(68,75,92)"/>
<polygon points="109,23 105,27 110,35" style="fill:rgb(206,202,195)"/>
<polygon points="22,94 23,94 27,92" style="fill:rgb(34,82,122)"/>
<polygon points="27,94 32,106 36,104" style="fill:rgb(83,77,94)"/>
<polygon points="22,94 27,92 20,79" style="fill:rgb(231,228,218)"/>
<polygon points="40,13 34,18 41,20" style="fill:rgb(206,148,145)"/>
<polygon points="41,20 34,18 32,33" style="fill:rgb(208,147,143)"/>
<polygon points="17,36 16,42 24,43" style="fill:rgb(16,37,67)"/>
<polygon points="17,36 24,43 24,35" style="fill:rgb(10,27,60)"/>
<polygon points="15,43 14,48 17,49" style="fill:rgb(65,73,92)"/>
<polygon points="13,85 22,94 20,79" style="fill:rgb(230,227,215)"/>
<polygon points="29,107 32,106 27,94" style="fill:rgb(111,97,110)"/>
<polygon points="10,73 20,79 17,67" style="fill:rgb(224,221,209)"/>
<polygon points="120,68 116,33 115,64" style="fill:rgb(171,168,162)"/>
<polygon points="64,117 72,118 72,112" style="fill:rgb(66,62,83)"/>
<polygon points="15,36 15,43 16,42" style="fill:rgb(131,135,149)"/>
<polygon points="16,42 15,43 17,49" style="fill:rgb(39,56,79)"/>
<polygon points="53,10 40,13 41,20" style="fill:rgb(225,161,155)"/>
<polygon points="26,23 27,23 31,16" style="fill:rgb(101,86,96)"/>
<polygon points="34,18 27,23 32,33" style="fill:rgb(183,137,136)"/>
<polygon points="116,33 109,23 110,35" style="fill:rgb(192,188,183)"/>
<polygon points="102,16 91,10 99,21" style="fill:rgb(15,36,66)"/>
<polygon points="29,107 27,94 27,107" style="fill:rgb(80,80,102)"/>
<polygon points="36,104 45,114 43,106" style="fill:rgb(42,46,71)"/>
<polygon points="50,111 53,118 61,112" style="fill:rgb(15,29,60)"/>
<polygon points="32,106 45,114 36,104" style="fill:rgb(88,76,92)"/>
<polygon points="102,16 104,24 107,23" style="fill:rgb(181,178,174)"/>
<polygon points="79,6 78,6 79,8" style="fill:rgb(4,12,48)"/>
<polygon points="79,8 78,6 66,11" style="fill:rgb(133,104,108)"/>
<polygon points="66,8 50,8 53,10" style="fill:rgb(99,75,87)"/>
<polygon points="70,3 50,8 66,8" style="fill:rgb(36,39,65)"/>
<polygon points="53,10 43,9 40,13" style="fill:rgb(194,143,138)"/>
<polygon points="96,114 86,103 84,120" style="fill:rgb(1,14,57)"/>
<polygon points="103,110 110,101 105,100" style="fill:rgb(212,209,198)"/>
<polygon points="14,48 13,47 14,51" style="fill:rgb(167,163,161)"/>
<polygon points="14,51 10,73 17,67" style="fill:rgb(218,214,203)"/>
<polygon points="15,43 13,47 14,48" style="fill:rgb(156,157,161)"/>
<polygon points="91,10 79,6 85,13" style="fill:rgb(1,10,48)"/>
<polygon points="103,15 102,16 107,23" style="fill:rgb(128,130,137)"/>
<polygon points="23,22 17,36 24,35" style="fill:rgb(14,34,65)"/>
<polygon points="15,43 8,48 13,47" style="fill:rgb(208,205,195)"/>
<polygon points="31,16 27,23 34,18" style="fill:rgb(166,131,132)"/>
<polygon points="27,23 26,23 27,34" style="fill:rgb(142,115,120)"/>
<polygon points="103,110 98,104 98,107" style="fill:rgb(207,210,208)"/>
<polygon points="105,100 110,101 111,83" style="fill:rgb(211,208,197)"/>
<polygon points="45,114 53,118 50,111" style="fill:rgb(27,34,63)"/>
<polygon points="64,117 50,120 72,118" style="fill:rgb(85,73,89)"/>
<polygon points="18,21 16,36 17,36" style="fill:rgb(95,98,112)"/>
<polygon points="17,36 16,36 16,42" style="fill:rgb(38,53,79)"/>
<polygon points="100,113 101,110 97,111" style="fill:rgb(1,34,75)"/>
<polygon points="97,111 101,110 98,107" style="fill:rgb(24,67,100)"/>
<polygon points="40,13 36,13 34,18" style="fill:rgb(183,136,135)"/>
<polygon points="39,11 36,13 40,13" style="fill:rgb(141,106,108)"/>
<polygon points="50,8 43,9 53,10" style="fill:rgb(146,106,106)"/>
<polygon points="104,14 103,15 107,23" style="fill:rgb(187,183,179)"/>
<polygon points="102,16 93,8 91,10" style="fill:rgb(34,49,74)"/>
<polygon points="43,9 39,11 40,13" style="fill:rgb(153,114,115)"/>
<polygon points="8,48 10,73 14,51" style="fill:rgb(208,204,193)"/>
<polygon points="18,21 15,36 16,36" style="fill:rgb(146,144,150)"/>
<polygon points="16,36 15,36 16,42" style="fill:rgb(124,124,132)"/>
<polygon points="36,13 31,16 34,18" style="fill:rgb(150,116,119)"/>
<polygon points="26,23 23,22 24,35" style="fill:rgb(42,47,73)"/>
<polygon points="36,10 31,16 36,13" style="fill:rgb(63,51,72)"/>
<polygon points="82,1 70,3 78,6" style="fill:rgb(3,23,57)"/>
<polygon points="78,6 70,3 66,8" style="fill:rgb(26,33,60)"/>
<polygon points="50,8 43,7 43,9" style="fill:rgb(82,58,73)"/>
<polygon points="84,120 86,103 85,103" style="fill:rgb(40,50,81)"/>
<polygon points="104,14 107,23 109,23" style="fill:rgb(144,142,144)"/>
<polygon points="104,14 103,14 103,15" style="fill:rgb(71,78,85)"/>
<polygon points="103,15 103,14 102,16" style="fill:rgb(199,196,190)"/>
<polygon points="101,113 103,110 101,110" style="fill:rgb(208,207,199)"/>
<polygon points="101,110 103,110 98,107" style="fill:rgb(73,105,140)"/>
<polygon points="91,10 82,1 79,6" style="fill:rgb(1,14,50)"/>
<polygon points="79,6 82,1 78,6" style="fill:rgb(1,13,50)"/>
<polygon points="97,7 93,8 102,16" style="fill:rgb(90,97,113)"/>
<polygon points="20,99 27,94 23,94" style="fill:rgb(5,41,83)"/>
<polygon points="32,106 43,118 45,114" style="fill:rgb(119,100,109)"/>
<polygon points="45,114 50,120 53,118" style="fill:rgb(95,79,93)"/>
<polygon points="20,99 23,94 22,94" style="fill:rgb(78,123,155)"/>
<polygon points="10,73 13,85 20,79" style="fill:rgb(221,218,206)"/>
<polygon points="114,107 114,100 110,101" style="fill:rgb(187,184,174)"/>
<polygon points="110,101 114,100 111,83" style="fill:rgb(200,196,186)"/>
<polygon points="109,12 104,14 109,23" style="fill:rgb(186,183,179)"/>
<polygon points="103,14 97,7 102,16" style="fill:rgb(177,176,177)"/>
<polygon points="50,120 84,120 72,118" style="fill:rgb(100,83,97)"/>
<polygon points="72,118 84,120 72,112" style="fill:rgb(99,82,96)"/>
<polygon points="31,16 23,22 26,23" style="fill:rgb(47,53,76)"/>
<polygon points="96,114 100,113 97,111" style="fill:rgb(2,36,78)"/>
<polygon points="103,110 114,107 110,101" style="fill:rgb(197,195,184)"/>
<polygon points="101,113 100,113 104,114" style="fill:rgb(72,107,139)"/>
<polygon points="35,2 43,7 38,0" style="fill:rgb(18,33,62)"/>
<polygon points="43,9 43,7 39,11" style="fill:rgb(80,59,75)"/>
<polygon points="39,11 36,10 36,13" style="fill:rgb(75,52,71)"/>
<polygon points="19,99 20,99 22,94" style="fill:rgb(169,189,200)"/>
<polygon points="43,118 50,120 45,114" style="fill:rgb(119,99,108)"/>
<polygon points="53,118 50,120 64,117" style="fill:rgb(85,70,86)"/>
<polygon points="104,114 100,113 106,116" style="fill:rgb(111,140,160)"/>
<polygon points="100,113 101,113 101,110" style="fill:rgb(120,133,143)"/>
<polygon points="20,99 27,107 27,94" style="fill:rgb(1,24,68)"/>
<polygon points="30,120 43,118 32,106" style="fill:rgb(146,119,124)"/>
<polygon points="43,7 36,10 39,11" style="fill:rgb(42,36,62)"/>
<polygon points="19,18 19,21 23,22" style="fill:rgb(16,34,64)"/>
<polygon points="116,33 115,23 109,23" style="fill:rgb(181,177,172)"/>
<polygon points="120,22 115,23 116,33" style="fill:rgb(162,159,155)"/>
<polygon points="30,120 32,106 29,107" style="fill:rgb(130,108,115)"/>
<polygon points="13,85 19,99 22,94" style="fill:rgb(227,226,214)"/>
<polygon points="20,99 21,106 27,107" style="fill:rgb(1,31,76)"/>
<polygon points="8,35 8,48 15,43" style="fill:rgb(205,201,192)"/>
<polygon points="13,47 8,48 14,51" style="fill:rgb(208,204,194)"/>
<polygon points="8,35 15,43 15,36" style="fill:rgb(211,207,198)"/>
<polygon points="98,6 103,14 104,14" style="fill:rgb(91,94,106)"/>
<polygon points="98,6 97,7 103,14" style="fill:rgb(110,109,117)"/>
<polygon points="85,0 82,1 91,10" style="fill:rgb(17,36,65)"/>
<polygon points="92,3 91,10 93,8" style="fill:rgb(42,54,78)"/>
<polygon points="29,6 36,10 35,2" style="fill:rgb(6,28,60)"/>
<polygon points="97,7 95,5 93,8" style="fill:rgb(102,106,115)"/>
<polygon points="98,6 95,5 97,7" style="fill:rgb(134,142,154)"/>
<polygon points="106,116 100,113 96,114" style="fill:rgb(2,40,80)"/>
<polygon points="101,113 104,114 103,110" style="fill:rgb(191,194,190)"/>
<polygon points="109,12 98,6 104,14" style="fill:rgb(182,179,178)"/>
<polygon points="94,3 92,3 95,5" style="fill:rgb(162,164,169)"/>
<polygon points="95,5 92,3 93,8" style="fill:rgb(68,76,94)"/>
<polygon points="85,0 83,0 82,1" style="fill:rgb(80,97,119)"/>
<polygon points="82,1 83,0 70,3" style="fill:rgb(27,46,71)"/>
<polygon points="18,21 19,21 19,18" style="fill:rgb(49,58,78)"/>
<polygon points="23,22 19,21 17,36" style="fill:rgb(44,54,77)"/>
<polygon points="92,3 85,0 91,10" style="fill:rgb(37,51,75)"/>
<polygon points="104,114 114,107 103,110" style="fill:rgb(196,193,184)"/>
<polygon points="114,100 117,104 116,73" style="fill:rgb(181,178,169)"/>
<polygon points="19,105 21,106 20,99" style="fill:rgb(17,68,109)"/>
<polygon points="28,119 30,120 29,107" style="fill:rgb(105,89,102)"/>
<polygon points="19,105 20,99 19,99" style="fill:rgb(80,116,138)"/>
<polygon points="98,6 94,3 95,5" style="fill:rgb(134,135,145)"/>
<polygon points="92,3 94,3 85,0" style="fill:rgb(72,82,103)"/>
<polygon points="114,107 117,104 114,100" style="fill:rgb(173,170,161)"/>
<polygon points="10,73 8,86 13,85" style="fill:rgb(208,205,193)"/>
<polygon points="13,85 12,102 19,99" style="fill:rgb(219,217,205)"/>
<polygon points="4,88 8,86 10,73" style="fill:rgb(194,192,180)"/>
<polygon points="19,18 23,22 23,13" style="fill:rgb(11,31,62)"/>
<polygon points="19,21 18,21 17,36" style="fill:rgb(90,90,104)"/>
<polygon points="115,23 109,12 109,23" style="fill:rgb(181,178,173)"/>
<polygon points="98,6 105,0 94,3" style="fill:rgb(169,167,165)"/>
<polygon points="16,105 19,105 19,99" style="fill:rgb(190,202,202)"/>
<polygon points="28,119 29,107 27,107" style="fill:rgb(61,62,86)"/>
<polygon points="120,68 120,22 116,33" style="fill:rgb(158,154,150)"/>
<polygon points="115,23 116,11 109,12" style="fill:rgb(164,161,157)"/>
<polygon points="16,20 8,35 15,36" style="fill:rgb(208,204,195)"/>
<polygon points="23,13 23,22 31,16" style="fill:rgb(31,42,70)"/>
<polygon points="18,21 16,20 15,36" style="fill:rgb(177,173,172)"/>
<polygon points="104,114 106,116 114,107" style="fill:rgb(186,184,176)"/>
<polygon points="114,107 120,109 117,104" style="fill:rgb(160,157,149)"/>
<polygon points="111,120 106,116 96,114" style="fill:rgb(11,52,87)"/>
<polygon points="22,13 23,13 28,6" style="fill:rgb(113,115,129)"/>
<polygon points="29,7 23,13 31,16" style="fill:rgb(4,21,56)"/>
<polygon points="22,13 18,18 19,18" style="fill:rgb(150,147,156)"/>
<polygon points="19,18 18,18 18,21" style="fill:rgb(96,100,118)"/>
<polygon points="18,18 16,20 18,21" style="fill:rgb(173,172,172)"/>
<polygon points="23,13 22,13 19,18" style="fill:rgb(74,80,102)"/>
<polygon points="18,18 8,16 16,20" style="fill:rgb(202,199,192)"/>
<polygon points="29,7 31,16 36,10" style="fill:rgb(2,17,53)"/>
<polygon points="29,6 29,7 36,10" style="fill:rgb(2,23,56)"/>
<polygon points="36,10 43,7 35,2" style="fill:rgb(9,22,56)"/>
<polygon points="12,102 16,105 19,99" style="fill:rgb(216,213,203)"/>
<polygon points="19,105 16,105 21,106" style="fill:rgb(50,90,126)"/>
<polygon points="43,7 50,8 38,0" style="fill:rgb(11,22,54)"/>
<polygon points="29,7 28,6 23,13" style="fill:rgb(66,75,95)"/>
<polygon points="38,0 50,8 70,3" style="fill:rgb(19,32,61)"/>
<polygon points="8,86 12,102 13,85" style="fill:rgb(209,206,195)"/>
<polygon points="35,0 28,6 29,6" style="fill:rgb(156,155,161)"/>
<polygon points="29,6 28,6 29,7" style="fill:rgb(95,100,118)"/>
<polygon points="83,0 38,0 70,3" style="fill:rgb(22,39,66)"/>
<polygon points="35,2 35,0 29,6" style="fill:rgb(115,119,139)"/>
<polygon points="8,48 4,88 10,73" style="fill:rgb(194,191,180)"/>
<polygon points="8,86 6,101 12,102" style="fill:rgb(197,195,183)"/>
<polygon points="3,38 4,88 8,48" style="fill:rgb(182,179,169)"/>
<polygon points="3,34 3,38 8,35" style="fill:rgb(182,178,170)"/>
<polygon points="8,35 3,38 8,48" style="fill:rgb(188,184,176)"/>
<polygon points="28,119 21,106 13,114" style="fill:rgb(1,25,67)"/>
<polygon points="28,119 27,107 21,106" style="fill:rgb(0,12,54)"/>
<polygon points="43,118 30,120 50,120" style="fill:rgb(145,118,123)"/>
<polygon points="13,114 21,106 16,105" style="fill:rgb(4,38,79)"/>
<polygon points="120,22 116,11 115,23" style="fill:rgb(150,147,144)"/>
<polygon points="109,12 105,0 98,6" style="fill:rgb(175,171,167)"/>
<polygon points="111,120 120,109 114,107" style="fill:rgb(157,155,147)"/>
<polygon points="117,104 120,109 120,68" style="fill:rgb(159,156,148)"/>
<polygon points="38,0 35,0 35,2" style="fill:rgb(110,111,124)"/>
<polygon points="8,16 3,34 8,35" style="fill:rgb(183,179,172)"/>
<polygon points="0,32 3,34 8,16" style="fill:rgb(167,164,157)"/>
<polygon points="8,35 16,20 8,16" style="fill:rgb(198,194,186)"/>
<polygon points="116,11 105,0 109,12" style="fill:rgb(157,153,149)"/>
<polygon points="94,3 105,0 85,0" style="fill:rgb(158,157,160)"/>
<polygon points="84,120 111,120 96,114" style="fill:rgb(0,24,65)"/>
<polygon points="106,116 111,120 114,107" style="fill:rgb(170,169,162)"/>
<polygon points="4,88 6,101 8,86" style="fill:rgb(187,184,174)"/>
<polygon points="12,102 11,108 16,105" style="fill:rgb(195,197,191)"/>
<polygon points="6,101 11,108 12,102" style="fill:rgb(194,191,181)"/>
<polygon points="6,101 11,109 11,108" style="fill:rgb(185,186,178)"/>
<polygon points="11,108 11,109 16,105" style="fill:rgb(72,109,135)"/>
<polygon points="8,16 18,18 10,11" style="fill:rgb(186,183,176)"/>
<polygon points="3,34 0,32 3,38" style="fill:rgb(165,161,155)"/>
<polygon points="3,38 0,32 4,88" style="fill:rgb(166,163,155)"/>
<polygon points="10,11 18,18 22,13" style="fill:rgb(200,196,190)"/>
<polygon points="10,11 22,13 21,0" style="fill:rgb(191,187,181)"/>
<polygon points="11,113 13,114 11,109" style="fill:rgb(96,118,132)"/>
<polygon points="11,109 13,114 16,105" style="fill:rgb(6,40,76)"/>
<polygon points="28,119 0,120 30,120" style="fill:rgb(88,83,95)"/>
<polygon points="8,115 11,113 11,109" style="fill:rgb(158,165,164)"/>
<polygon points="21,0 22,13 28,6" style="fill:rgb(198,194,190)"/>
<polygon points="8,16 4,11 0,32" style="fill:rgb(159,156,150)"/>
<polygon points="35,0 21,0 28,6" style="fill:rgb(193,188,184)"/>
<polygon points="4,88 0,100 6,101" style="fill:rgb(171,168,159)"/>
<polygon points="6,101 8,115 11,109" style="fill:rgb(177,175,167)"/>
<polygon points="0,32 0,100 4,88" style="fill:rgb(164,161,152)"/>
<polygon points="111,120 120,120 120,109" style="fill:rgb(137,135,129)"/>
<polygon points="0,100 8,115 6,101" style="fill:rgb(168,165,156)"/>
<polygon points="11,113 8,116 13,114" style="fill:rgb(3,49,81)"/>
<polygon points="13,114 8,116 28,119" style="fill:rgb(1,29,68)"/>
<polygon points="1,119 8,116 8,115" style="fill:rgb(104,120,129)"/>
<polygon points="8,115 8,116 11,113" style="fill:rgb(86,112,128)"/>
<polygon points="120,22 120,0 116,11" style="fill:rgb(129,126,123)"/>
<polygon points="116,11 120,0 105,0" style="fill:rgb(131,128,125)"/>
<polygon points="10,11 4,11 8,16" style="fill:rgb(162,158,153)"/>
<polygon points="12,0 4,11 10,11" style="fill:rgb(154,150,145)"/>
<polygon points="21,0 12,0 10,11" style="fill:rgb(167,163,157)"/>
<polygon points="0,100 1,119 8,115" style="fill:rgb(145,144,137)"/>
<polygon points="8,116 0,120 28,119" style="fill:rgb(1,20,54)"/>
<polygon points="0,100 0,120 1,119" style="fill:rgb(43,61,80)"/>
<polygon points="1,119 0,120 8,116" style="fill:rgb(30,53,76)"/>
<polygon points="12,0 0,0 4,11" style="fill:rgb(132,128,124)"/>
<polygon points="4,11 0,0 0,32" style="fill:rgb(137,134,130)"/>
</svg>