<svg version="1" xmlns="http://www.w3.org/2000/svg" width="682.667" height="682.667" viewBox="0 0 512.000000 512.000000"><path d="M0 256v256h512V0H0v256zm222-78.9c0 42.9.4 77.8.9 77.5.4-.3 1.6-2.7 2.6-5.3 2.2-6 5.9-13.8 31-64.8 11.1-22.6 25-51 31-63.3l11-22.2h58.3c32.1 0 58.1.3 57.9.7-.9 1.8-32.3 54.6-33.9 57.1-.9 1.5-2.3 3.8-3.1 5.2-.7 1.4-11.8 20-24.5 41.4-12.8 21.4-23.2 39.3-23.2 39.7 0 .5-.3.9-.7.9-.5 0-1.3 1-1.9 2.3-.6 1.2-2 3.8-3.2 5.7l-2 3.5 8.7 14.5c4.8 8 9.4 15.6 10.2 17 1.9 3 11.5 19.3 13.9 23.5 1.7 3 28.7 48.3 59.3 99.5 4.1 6.9 7.9 13.5 8.6 14.7l1.1 2.2-59.7-.2-59.6-.2-1.7-3c-.9-1.7-5.4-10.2-10-19-4.5-8.8-9.7-18.7-11.5-22-1.8-3.3-6.1-11.4-9.5-18-11.1-21.3-17.2-32.9-20.8-39.5-10-18.4-24.1-47.2-25.7-52.8-1-3.4-2.2-6.2-2.7-6.2-.4 0-.8 36.2-.8 80.5v80.4h-99V99h99v78.1z"/></svg>